<svg width="24" height="24" viewBox="0 0 24 24" fill="none" xmlns="http://www.w3.org/2000/svg">
<path d="M11.9999 2.14999C11.3432 2.14999 10.7006 2.21439 10.0785 2.33746C9.61797 2.42856 9.3185 2.87574 9.4096 3.33626C9.50071 3.79678 9.94789 4.09624 10.4084 4.00514C10.9225 3.90345 11.4545 3.84999 11.9999 3.84999C12.5453 3.84999 13.0774 3.90345 13.5914 4.00514C14.0519 4.09624 14.4991 3.79678 14.5902 3.33626C14.6813 2.87574 14.3818 2.42856 13.9213 2.33746C13.2992 2.21439 12.6567 2.14999 11.9999 2.14999Z" fill="currentColor"/>
<path d="M17.4733 3.80958C17.0832 3.54842 16.5553 3.65294 16.2941 4.04303C16.033 4.43312 16.1375 4.96107 16.5276 5.22223C17.4167 5.81749 18.1824 6.58319 18.7777 7.47232C19.0388 7.86242 19.5668 7.96694 19.9569 7.70578C20.347 7.44462 20.4515 6.91667 20.1903 6.52658C19.4714 5.45279 18.5471 4.52847 17.4733 3.80958Z" fill="currentColor"/>
<path d="M7.47223 5.22223C7.86232 4.96107 7.96684 4.43313 7.70568 4.04303C7.44452 3.65294 6.91658 3.54842 6.52649 3.80958C5.4527 4.52847 4.52837 5.45279 3.80949 6.52658C3.54833 6.91667 3.65285 7.44462 4.04294 7.70578C4.43303 7.96694 4.96098 7.86242 5.22214 7.47232C5.8174 6.58319 6.5831 5.81749 7.47223 5.22223Z" fill="currentColor"/>
<path d="M4.00505 10.4085C4.09615 9.94798 3.79668 9.5008 3.33617 9.4097C2.87565 9.31859 2.42847 9.61806 2.33737 10.0786C2.2143 10.7007 2.1499 11.3432 2.1499 12C2.1499 12.6567 2.2143 13.2993 2.33737 13.9214C2.42847 14.3819 2.87565 14.6814 3.33617 14.5903C3.79668 14.4992 4.09615 14.052 4.00505 13.5915C3.90335 13.0774 3.8499 12.5454 3.8499 12C3.8499 11.4546 3.90335 10.9225 4.00505 10.4085Z" fill="currentColor"/>
<path d="M21.6624 10.0786C21.5713 9.61806 21.1242 9.31859 20.6636 9.4097C20.2031 9.5008 19.9037 9.94798 19.9948 10.4085C20.0965 10.9225 20.1499 11.4546 20.1499 12C20.1499 12.5454 20.0965 13.0774 19.9948 13.5915C19.9037 14.052 20.2031 14.4992 20.6636 14.5903C21.1242 14.6814 21.5713 14.3819 21.6624 13.9214C21.7855 13.2993 21.8499 12.6567 21.8499 12C21.8499 11.3432 21.7855 10.7007 21.6624 10.0786Z" fill="currentColor"/>
<path d="M20.1903 17.4734C20.4515 17.0833 20.347 16.5554 19.9569 16.2942C19.5668 16.0331 19.0388 16.1376 18.7777 16.5277C18.1824 17.4168 17.4167 18.1825 16.5276 18.7778C16.1375 19.0389 16.033 19.5669 16.2941 19.957C16.5553 20.347 17.0832 20.4516 17.4733 20.1904C18.5471 19.4715 19.4714 18.5472 20.1903 17.4734Z" fill="currentColor"/>
<path d="M5.22214 16.5277C4.96098 16.1376 4.43303 16.0331 4.04294 16.2942C3.65285 16.5554 3.54833 17.0833 3.80949 17.4734C4.52838 18.5472 5.4527 19.4715 6.52649 20.1904C6.91658 20.4516 7.44453 20.347 7.70568 19.957C7.96684 19.5669 7.86232 19.0389 7.47223 18.7778C6.5831 18.1825 5.8174 17.4168 5.22214 16.5277Z" fill="currentColor"/>
<path d="M10.4084 19.9948C9.94789 19.9037 9.50071 20.2032 9.4096 20.6637C9.3185 21.1242 9.61797 21.5714 10.0785 21.6625C10.7006 21.7856 11.3432 21.85 11.9999 21.85C12.6567 21.85 13.2992 21.7856 13.9213 21.6625C14.3818 21.5714 14.6813 21.1242 14.5902 20.6637C14.4991 20.2032 14.0519 19.9037 13.5914 19.9948C13.0774 20.0965 12.5453 20.15 11.9999 20.15C11.4545 20.15 10.9225 20.0965 10.4084 19.9948Z" fill="currentColor"/>
<path d="M16.2806 9.21939C16.3503 9.28904 16.4056 9.37176 16.4433 9.46281C16.4811 9.55385 16.5005 9.65145 16.5005 9.75001C16.5005 9.84857 16.4811 9.94617 16.4433 10.0372C16.4056 10.1283 16.3503 10.211 16.2806 10.2806L11.0306 15.5306C10.9609 15.6004 10.8782 15.6557 10.7871 15.6934C10.6961 15.7312 10.5985 15.7506 10.4999 15.7506C10.4014 15.7506 10.3038 15.7312 10.2127 15.6934C10.1217 15.6557 10.039 15.6004 9.9693 15.5306L7.7193 13.2806C7.57857 13.1399 7.49951 12.949 7.49951 12.75C7.49951 12.551 7.57857 12.3601 7.7193 12.2194C7.86003 12.0787 8.05091 11.9996 8.24993 11.9996C8.44895 11.9996 8.63982 12.0787 8.78055 12.2194L10.4999 13.9397L15.2193 9.21939C15.289 9.14965 15.3717 9.09433 15.4627 9.05659C15.5538 9.01885 15.6514 8.99942 15.7499 8.99942C15.8485 8.99942 15.9461 9.01885 16.0371 9.05659C16.1282 9.09433 16.2109 9.14965 16.2806 9.21939Z" fill="currentColor"/>
</svg>
