<svg xmlns="http://www.w3.org/2000/svg" width="500" height="284" viewBox="0 0 36 20" fill="none">
<path d="M10 0L12 2L10 4L8 2L10 0Z" fill="#909090"/>
<path d="M26 0L28 2L26 4L24 2L26 0Z" fill="#909090"/>
<path d="M14 4L16 6L14 8L12 6L14 4Z" fill="#909090"/>
<path d="M30 4L32 6L30 8L28 6L30 4Z" fill="#909090"/>
<path d="M34 8L36 10L34 12L32 10L34 8Z" fill="#909090"/>
<path d="M14 12L16 14L14 16L12 14L14 12Z" fill="#909090"/>
<path d="M30 12L32 14L30 16L28 14L30 12Z" fill="#909090"/>
<path d="M10 16L12 18L10 20L8 18L10 16Z" fill="#909090"/>
<path d="M26 16L28 18L26 20L24 18L26 16Z" fill="#909090"/>
<path d="M6 12L8 14L6 16L4 14L6 12Z" fill="#909090"/>
<path d="M22 12L24 14L22 16L20 14L22 12Z" fill="#909090"/>
<path d="M2 8L4 10L2 12L0 10L2 8Z" fill="#909090"/>
<path d="M18 8L20 10L18 12L16 10L18 8Z" fill="#909090"/>
<path d="M6 4L8 6L6 8L4 6L6 4Z" fill="#909090"/>
<path d="M22 4L24 6L22 8L20 6L22 4Z" fill="#909090"/>
</svg>
