<svg fill="none" xmlns="http://www.w3.org/2000/svg" viewBox="0 59.17 284 156.07" width="284" height="156.07"><path d="m78.893 59.167 15.774 15.608L78.893 90.383l-15.786 -15.62zm31.548 31.216 15.774 15.608 -15.774 15.608 -15.774 -15.62zm126.226 0 15.774 15.608 -15.774 15.608 -15.786 -15.62zm31.548 31.216L284 137.208l-15.786 15.608 -15.774 -15.62zm-31.548 31.217 15.774 15.596 -15.774 15.62 -15.786 -15.62zm-31.559 31.204 15.786 15.62 -15.786 15.596 -15.775 -15.609zm-31.548 -31.204 15.773 15.596 -15.786 15.62 -15.774 -15.62zM47.333 90.383l15.774 15.608 -15.774 15.608 -15.774 -15.62z" fill="#A9C1EA"/><path d="m205.107 59.167 15.786 15.608 -142 140.462L0 137.208l15.774 -15.62 63.119 62.433z" fill="#1671F1"/></svg>