<svg width="16px" height="16px" viewBox="0 0 0.48 0.48" xmlns="http://www.w3.org/2000/svg">
  <title>webhook</title>
  <path width="24" height="24" fill="none" d="M0 0H0.48V0.48H0V0z"/>
  <path d="M0.209 0.38a0.092 0.092 0 0 1 -0.127 0.023 0.093 0.093 0 0 1 0.05 -0.168v0.029a0.063 0.063 0 0 0 -0.047 0.027A0.063 0.063 0 0 0 0.1 0.378a0.062 0.062 0 0 0 0.086 -0.017 0.066 0.066 0 0 0 0.011 -0.029v-0.02h0.112l0.001 -0.002a0.038 0.038 0 1 1 0.013 0.052 0.035 0.035 0 0 1 -0.017 -0.02h-0.081a0.1 0.1 0 0 1 -0.017 0.038m0.146 -0.143a0.091 0.091 0 1 1 -0.022 0.18 0.093 0.093 0 0 1 -0.069 -0.044l0.025 -0.013a0.064 0.064 0 0 0 0.046 0.029 0.061 0.061 0 1 0 0.015 -0.121 0.068 0.068 0 0 0 -0.031 0.004l-0.017 0.009 -0.052 -0.096h-0.004a0.038 0.038 0 1 1 0.003 -0.075 0.039 0.039 0 0 1 0.037 0.039 0.038 0.038 0 0 1 -0.009 0.023l0.038 0.07a0.095 0.095 0 0 1 0.04 -0.004M0.165 0.183a0.091 0.091 0 1 1 0.167 -0.071 0.092 0.092 0 0 1 -0.004 0.081L0.304 0.18a0.063 0.063 0 0 0 0.002 -0.055A0.061 0.061 0 1 0 0.193 0.172 0.064 0.064 0 0 0 0.22 0.202l0.008 0.004 -0.061 0.1a0.02 0.02 0 0 1 0.002 0.004 0.038 0.038 0 1 1 -0.051 -0.017 0.035 0.035 0 0 1 0.025 -0.003l0.046 -0.075a0.088 0.088 0 0 1 -0.023 -0.032"/>
</svg>
