<?xml version="1.0" encoding="UTF-8" standalone="no"?>
<!DOCTYPE svg PUBLIC "-//W3C//DTD SVG 1.1//EN"
 "http://www.w3.org/Graphics/SVG/1.1/DTD/svg11.dtd">
<!-- Generated by graphviz version 2.40.1 (20161225.0304)
 -->
<!-- Title: BrowserReleases Pages: 1 -->
<svg width="490pt" height="472pt"
 viewBox="0.00 0.00 489.89 472.00" xmlns="http://www.w3.org/2000/svg" xmlns:xlink="http://www.w3.org/1999/xlink">
<g id="graph0" class="graph" transform="scale(1 1) rotate(0) translate(4 468)">
<title>BrowserReleases</title>
<polygon fill="#ffffff" stroke="transparent" points="-4,4 -4,-468 485.8887,-468 485.8887,4 -4,4"/>
<!-- BrowserReleases -->
<g id="node1" class="node">
<title>BrowserReleases</title>
<polygon fill="#efefef" stroke="transparent" points="109.3887,-135.5 109.3887,-170.5 396.3887,-170.5 396.3887,-135.5 109.3887,-135.5"/>
<polygon fill="none" stroke="#000000" points="109.3887,-135.5 109.3887,-170.5 396.3887,-170.5 396.3887,-135.5 109.3887,-135.5"/>
<text text-anchor="start" x="116.2702" y="-148.3" font-family="Arial Bold" font-size="18.00" fill="#000000">BrowserReleases</text>
<text text-anchor="start" x="257.2786" y="-148.3" font-family="Arial" font-size="14.00" fill="#000000">    </text>
<text text-anchor="start" x="291.4834" y="-148.3" font-family="Arial" font-size="14.00" fill="#666666">[BASIC TABLE]</text>
<polygon fill="none" stroke="#000000" points="109.3887,-105.5 109.3887,-135.5 396.3887,-135.5 396.3887,-105.5 109.3887,-105.5"/>
<text text-anchor="start" x="116.3887" y="-116.9" font-family="Arial" font-size="14.00" fill="#000000">BrowserName </text>
<text text-anchor="start" x="208.9413" y="-116.9" font-family="Arial" font-size="14.00" fill="#666666">[STRING(64)]</text>
<polygon fill="none" stroke="#000000" points="109.3887,-75.5 109.3887,-105.5 396.3887,-105.5 396.3887,-75.5 109.3887,-75.5"/>
<text text-anchor="start" x="116.3887" y="-86.9" font-family="Arial" font-size="14.00" fill="#000000">BrowserVersion </text>
<text text-anchor="start" x="219.0605" y="-86.9" font-family="Arial" font-size="14.00" fill="#666666">[STRING(8)]</text>
<polygon fill="none" stroke="#000000" points="109.3887,-45.5 109.3887,-75.5 396.3887,-75.5 396.3887,-45.5 109.3887,-45.5"/>
<text text-anchor="start" x="116.3887" y="-56.9" font-family="Arial" font-size="14.00" fill="#000000">ReleaseDate </text>
<text text-anchor="start" x="201.1853" y="-56.9" font-family="Arial" font-size="14.00" fill="#666666">[TIMESTAMP]</text>
<polygon fill="none" stroke="#000000" stroke-width="3" points="107.3887,-44.5 107.3887,-172.5 397.3887,-172.5 397.3887,-44.5 107.3887,-44.5"/>
</g>
<!-- BrowserFeatureAvailabilities -->
<g id="node2" class="node">
<title>BrowserFeatureAvailabilities</title>
<polygon fill="#efefef" stroke="transparent" points="66.3887,-385.5 66.3887,-420.5 439.3887,-420.5 439.3887,-385.5 66.3887,-385.5"/>
<polygon fill="none" stroke="#000000" points="66.3887,-385.5 66.3887,-420.5 439.3887,-420.5 439.3887,-385.5 66.3887,-385.5"/>
<text text-anchor="start" x="73.2709" y="-398.3" font-family="Arial Bold" font-size="18.00" fill="#000000">BrowserFeatureAvailabilities</text>
<text text-anchor="start" x="300.2779" y="-398.3" font-family="Arial" font-size="14.00" fill="#000000">    </text>
<text text-anchor="start" x="334.4827" y="-398.3" font-family="Arial" font-size="14.00" fill="#666666">[BASIC TABLE]</text>
<polygon fill="none" stroke="#000000" points="66.3887,-355.5 66.3887,-385.5 439.3887,-385.5 439.3887,-355.5 66.3887,-355.5"/>
<text text-anchor="start" x="73.3887" y="-366.9" font-family="Arial" font-size="14.00" fill="#000000">BrowserName    </text>
<text text-anchor="start" x="196.2555" y="-366.9" font-family="Arial" font-size="14.00" fill="#666666">[STRING(64)]</text>
<polygon fill="none" stroke="#000000" points="66.3887,-325.5 66.3887,-355.5 439.3887,-355.5 439.3887,-325.5 66.3887,-325.5"/>
<text text-anchor="start" x="73.3887" y="-336.9" font-family="Arial" font-size="14.00" fill="#000000">BrowserVersion    </text>
<text text-anchor="start" x="206.3747" y="-336.9" font-family="Arial" font-size="14.00" fill="#666666">[STRING(8)]</text>
<polygon fill="none" stroke="#000000" points="66.3887,-295.5 66.3887,-325.5 439.3887,-325.5 439.3887,-295.5 66.3887,-295.5"/>
<text text-anchor="start" x="73.3887" y="-306.9" font-family="Arial" font-size="14.00" fill="#000000">FeatureID    </text>
<text text-anchor="start" x="169.8249" y="-306.9" font-family="Arial" font-size="14.00" fill="#666666">[STRING(36)]</text>
</g>
<!-- BrowserFeatureAvailabilities&#45;&gt;BrowserReleases -->
<g id="edge1" class="edge">
<title>BrowserFeatureAvailabilities:BrowserName&#45;&gt;BrowserReleases:BrowserName</title>
<path fill="none" stroke="#000000" stroke-dasharray="5,2" d="M56.2727,-369.7828C-43.5984,-355.1191 .1692,-120.5 109.3887,-120.5"/>
<polygon fill="#000000" stroke="#000000" points="56.4137,-369.7927 66.0704,-374.9887 61.4012,-370.1464 66.3887,-370.5 66.3887,-370.5 66.3887,-370.5 61.4012,-370.1464 66.7069,-366.0113 56.4137,-369.7927 56.4137,-369.7927"/>
</g>
</g>
</svg>
