<?xml version="1.0" encoding="UTF-8" standalone="no"?>
<!DOCTYPE svg PUBLIC "-//W3C//DTD SVG 1.1//EN"
 "http://www.w3.org/Graphics/SVG/1.1/DTD/svg11.dtd">
<!-- Generated by graphviz version 12.1.2 (20240928.0832)
 -->
<!-- Title: BrowserReleases Pages: 1 -->
<svg width="1917pt" height="540pt"
 viewBox="0.00 0.00 1917.29 540.40" xmlns="http://www.w3.org/2000/svg" xmlns:xlink="http://www.w3.org/1999/xlink">
<g id="graph0" class="graph" transform="scale(1 1) rotate(0) translate(4 536.4)">
<title>BrowserReleases</title>
<polygon fill="white" stroke="none" points="-4,4 -4,-536.4 1913.29,-536.4 1913.29,4 -4,4"/>
<!-- BrowserReleases -->
<g id="node1" class="node">
<title>BrowserReleases</title>
<polygon fill="#efefef" stroke="none" points="742.45,-138.6 742.45,-174.2 1009.56,-174.2 1009.56,-138.6 742.45,-138.6"/>
<polygon fill="none" stroke="black" points="742.45,-138.6 742.45,-174.2 1009.56,-174.2 1009.56,-138.6 742.45,-138.6"/>
<text text-anchor="start" x="749.45" y="-152" font-family="Arial Bold" font-size="18.00">BrowserReleases</text>
<text text-anchor="start" x="873.41" y="-152" font-family="Arial" font-size="14.00">    </text>
<text text-anchor="start" x="904.53" y="-152" font-family="Arial" font-size="14.00" fill="#666666">[BASIC TABLE]</text>
<polygon fill="none" stroke="black" points="742.45,-107.8 742.45,-138.6 1009.56,-138.6 1009.56,-107.8 742.45,-107.8"/>
<text text-anchor="start" x="749.45" y="-120" font-family="Arial" font-size="14.00">BrowserName </text>
<text text-anchor="start" x="842.03" y="-120" font-family="Arial" font-size="14.00" fill="#666666">[STRING(64)]</text>
<polygon fill="none" stroke="black" points="742.45,-77 742.45,-107.8 1009.56,-107.8 1009.56,-77 742.45,-77"/>
<text text-anchor="start" x="749.45" y="-89.2" font-family="Arial" font-size="14.00">BrowserVersion </text>
<text text-anchor="start" x="852.15" y="-89.2" font-family="Arial" font-size="14.00" fill="#666666">[STRING(8)]</text>
<polygon fill="none" stroke="black" points="742.45,-46.2 742.45,-77 1009.56,-77 1009.56,-46.2 742.45,-46.2"/>
<text text-anchor="start" x="749.45" y="-58.4" font-family="Arial" font-size="14.00">ReleaseDate </text>
<text text-anchor="start" x="834.28" y="-58.4" font-family="Arial" font-size="14.00" fill="#666666">[TIMESTAMP]</text>
<polygon fill="none" stroke="black" stroke-width="3" points="740.95,-44.7 740.95,-175.7 1011.06,-175.7 1011.06,-44.7 740.95,-44.7"/>
</g>
<!-- BrowserFeatureAvailabilities -->
<g id="node2" class="node">
<title>BrowserFeatureAvailabilities</title>
<polygon fill="#efefef" stroke="none" points="466.46,-422.8 466.46,-458.4 821.55,-458.4 821.55,-422.8 466.46,-422.8"/>
<polygon fill="none" stroke="black" points="466.46,-422.8 466.46,-458.4 821.55,-458.4 821.55,-422.8 466.46,-422.8"/>
<text text-anchor="start" x="473.46" y="-436.2" font-family="Arial Bold" font-size="18.00">BrowserFeatureAvailabilities</text>
<text text-anchor="start" x="685.4" y="-436.2" font-family="Arial" font-size="14.00">    </text>
<text text-anchor="start" x="716.52" y="-436.2" font-family="Arial" font-size="14.00" fill="#666666">[BASIC TABLE]</text>
<polygon fill="none" stroke="black" points="466.46,-392 466.46,-422.8 821.55,-422.8 821.55,-392 466.46,-392"/>
<text text-anchor="start" x="473.46" y="-404.2" font-family="Arial" font-size="14.00">BrowserName </text>
<text text-anchor="start" x="566.04" y="-404.2" font-family="Arial" font-size="14.00" fill="#666666">[STRING(64)]</text>
<polygon fill="none" stroke="black" points="466.46,-361.2 466.46,-392 821.55,-392 821.55,-361.2 466.46,-361.2"/>
<text text-anchor="start" x="473.46" y="-373.4" font-family="Arial" font-size="14.00">BrowserVersion </text>
<text text-anchor="start" x="576.16" y="-373.4" font-family="Arial" font-size="14.00" fill="#666666">[STRING(8)]</text>
<polygon fill="none" stroke="black" points="466.46,-330.4 466.46,-361.2 821.55,-361.2 821.55,-330.4 466.46,-330.4"/>
<text text-anchor="start" x="473.46" y="-342.6" font-family="Arial" font-size="14.00">WebFeatureID </text>
<text text-anchor="start" x="568.38" y="-342.6" font-family="Arial" font-size="14.00" fill="#666666">[STRING(36)]</text>
</g>
<!-- BrowserFeatureAvailabilities&#45;&gt;BrowserReleases -->
<g id="edge1" class="edge">
<title>BrowserFeatureAvailabilities:BrowserName&#45;&gt;BrowserReleases:BrowserName</title>
<path fill="none" stroke="black" d="M832.59,-406.37C871.56,-397.41 842.66,-332.16 821.55,-287.2 802,-245.55 762.04,-262.03 742.45,-220.4 724.05,-181.31 698.25,-123.2 741.45,-123.2"/>
<polygon fill="black" stroke="black" points="832.83,-406.34 822.42,-402.89 827.52,-406.89 823.22,-407.33 823.22,-407.33 823.22,-407.33 827.52,-406.89 823.34,-411.84 832.83,-406.34"/>
<text text-anchor="start" x="7" y="-417.4" font-family="Arial" font-size="10.00">FOREIGN KEY (BrowserName, BrowserName, BrowserVersion, BrowserVersion) REFERENCES BrowserReleases (BrowserName, BrowserVersion, BrowserName, BrowserVersion)</text>
</g>
<!-- BrowserFeatureSupportEvents -->
<g id="node3" class="node">
<title>BrowserFeatureSupportEvents</title>
<polygon fill="#efefef" stroke="none" points="925.95,-453.6 925.95,-489.2 1290.06,-489.2 1290.06,-453.6 925.95,-453.6"/>
<polygon fill="none" stroke="black" points="925.95,-453.6 925.95,-489.2 1290.06,-489.2 1290.06,-453.6 925.95,-453.6"/>
<text text-anchor="start" x="932.95" y="-467" font-family="Arial Bold" font-size="18.00">BrowserFeatureSupportEvents</text>
<text text-anchor="start" x="1153.91" y="-467" font-family="Arial" font-size="14.00">    </text>
<text text-anchor="start" x="1185.02" y="-467" font-family="Arial" font-size="14.00" fill="#666666">[BASIC TABLE]</text>
<polygon fill="none" stroke="black" points="925.95,-422.8 925.95,-453.6 1290.06,-453.6 1290.06,-422.8 925.95,-422.8"/>
<text text-anchor="start" x="932.95" y="-435" font-family="Arial" font-size="14.00">TargetBrowserName </text>
<text text-anchor="start" x="1065.99" y="-435" font-family="Arial" font-size="14.00" fill="#666666">[STRING(64)]</text>
<polygon fill="none" stroke="black" points="925.95,-392 925.95,-422.8 1290.06,-422.8 1290.06,-392 925.95,-392"/>
<text text-anchor="start" x="932.95" y="-404.2" font-family="Arial" font-size="14.00">EventBrowserName </text>
<text text-anchor="start" x="1061.33" y="-404.2" font-family="Arial" font-size="14.00" fill="#666666">[STRING(64)]</text>
<polygon fill="none" stroke="black" points="925.95,-361.2 925.95,-392 1290.06,-392 1290.06,-361.2 925.95,-361.2"/>
<text text-anchor="start" x="932.95" y="-373.4" font-family="Arial" font-size="14.00">EventReleaseDate </text>
<text text-anchor="start" x="1053.58" y="-373.4" font-family="Arial" font-size="14.00" fill="#666666">[TIMESTAMP]</text>
<polygon fill="none" stroke="black" points="925.95,-330.4 925.95,-361.2 1290.06,-361.2 1290.06,-330.4 925.95,-330.4"/>
<text text-anchor="start" x="932.95" y="-342.6" font-family="Arial" font-size="14.00">WebFeatureID </text>
<text text-anchor="start" x="1027.87" y="-342.6" font-family="Arial" font-size="14.00" fill="#666666">[STRING(36)]</text>
<polygon fill="none" stroke="black" points="925.95,-299.6 925.95,-330.4 1290.06,-330.4 1290.06,-299.6 925.95,-299.6"/>
<text text-anchor="start" x="932.95" y="-311.8" font-family="Arial" font-size="14.00">SupportStatus </text>
<text text-anchor="start" x="1025.56" y="-311.8" font-family="Arial" font-size="14.00" fill="#666666">[STRING(32)]</text>
</g>
<!-- BrowserFeatureSupportEvents&#45;&gt;BrowserReleases -->
<g id="edge2" class="edge">
<title>BrowserFeatureSupportEvents:EventBrowserName&#45;&gt;BrowserReleases:BrowserName</title>
<path fill="none" stroke="black" d="M914.81,-406.57C861.25,-397.12 890.9,-309.28 925.95,-256.4 948.31,-222.68 987.14,-254.08 1009.56,-220.4 1033.5,-184.44 1053.76,-123.2 1010.56,-123.2"/>
<polygon fill="black" stroke="black" points="914.65,-406.56 924.25,-411.86 919.97,-406.99 924.28,-407.35 924.28,-407.35 924.28,-407.35 919.97,-406.99 924.98,-402.89 914.65,-406.56"/>
<text text-anchor="start" x="931.95" y="-417.4" font-family="Arial" font-size="10.00">FOREIGN KEY (EventBrowserName, EventBrowserName, EventReleaseDate, EventReleaseDate) REFERENCES BrowserReleases (BrowserName, ReleaseDate, ReleaseDate, BrowserName) ON DELETE CASCADE</text>
</g>
</g>
</svg>
