<?xml version="1.0" encoding="UTF-8" standalone="no"?>
<!DOCTYPE svg PUBLIC "-//W3C//DTD SVG 1.1//EN"
 "http://www.w3.org/Graphics/SVG/1.1/DTD/svg11.dtd">
<!-- Generated by graphviz version 2.40.1 (20161225.0304)
 -->
<!-- Title: BrowserReleases Pages: 1 -->
<svg width="964pt" height="532pt"
 viewBox="0.00 0.00 963.50 532.00" xmlns="http://www.w3.org/2000/svg" xmlns:xlink="http://www.w3.org/1999/xlink">
<g id="graph0" class="graph" transform="scale(1 1) rotate(0) translate(4 528)">
<title>BrowserReleases</title>
<polygon fill="#ffffff" stroke="transparent" points="-4,4 -4,-528 959.5,-528 959.5,4 -4,4"/>
<!-- BrowserReleases -->
<g id="node1" class="node">
<title>BrowserReleases</title>
<polygon fill="#efefef" stroke="transparent" points="329.5,-135.5 329.5,-170.5 616.5,-170.5 616.5,-135.5 329.5,-135.5"/>
<polygon fill="none" stroke="#000000" points="329.5,-135.5 329.5,-170.5 616.5,-170.5 616.5,-135.5 329.5,-135.5"/>
<text text-anchor="start" x="336.3815" y="-148.3" font-family="Arial Bold" font-size="18.00" fill="#000000">BrowserReleases</text>
<text text-anchor="start" x="477.3899" y="-148.3" font-family="Arial" font-size="14.00" fill="#000000">    </text>
<text text-anchor="start" x="511.5947" y="-148.3" font-family="Arial" font-size="14.00" fill="#666666">[BASIC TABLE]</text>
<polygon fill="none" stroke="#000000" points="329.5,-105.5 329.5,-135.5 616.5,-135.5 616.5,-105.5 329.5,-105.5"/>
<text text-anchor="start" x="336.5" y="-116.9" font-family="Arial" font-size="14.00" fill="#000000">BrowserName </text>
<text text-anchor="start" x="429.0526" y="-116.9" font-family="Arial" font-size="14.00" fill="#666666">[STRING(64)]</text>
<polygon fill="none" stroke="#000000" points="329.5,-75.5 329.5,-105.5 616.5,-105.5 616.5,-75.5 329.5,-75.5"/>
<text text-anchor="start" x="336.5" y="-86.9" font-family="Arial" font-size="14.00" fill="#000000">BrowserVersion </text>
<text text-anchor="start" x="439.1718" y="-86.9" font-family="Arial" font-size="14.00" fill="#666666">[STRING(8)]</text>
<polygon fill="none" stroke="#000000" points="329.5,-45.5 329.5,-75.5 616.5,-75.5 616.5,-45.5 329.5,-45.5"/>
<text text-anchor="start" x="336.5" y="-56.9" font-family="Arial" font-size="14.00" fill="#000000">ReleaseDate </text>
<text text-anchor="start" x="421.2966" y="-56.9" font-family="Arial" font-size="14.00" fill="#666666">[TIMESTAMP]</text>
<polygon fill="none" stroke="#000000" stroke-width="3" points="327.5,-44.5 327.5,-172.5 617.5,-172.5 617.5,-44.5 327.5,-44.5"/>
</g>
<!-- BrowserFeatureAvailabilities -->
<g id="node2" class="node">
<title>BrowserFeatureAvailabilities</title>
<polygon fill="#efefef" stroke="transparent" points="43.5,-415.5 43.5,-450.5 416.5,-450.5 416.5,-415.5 43.5,-415.5"/>
<polygon fill="none" stroke="#000000" points="43.5,-415.5 43.5,-450.5 416.5,-450.5 416.5,-415.5 43.5,-415.5"/>
<text text-anchor="start" x="50.3822" y="-428.3" font-family="Arial Bold" font-size="18.00" fill="#000000">BrowserFeatureAvailabilities</text>
<text text-anchor="start" x="277.3892" y="-428.3" font-family="Arial" font-size="14.00" fill="#000000">    </text>
<text text-anchor="start" x="311.594" y="-428.3" font-family="Arial" font-size="14.00" fill="#666666">[BASIC TABLE]</text>
<polygon fill="none" stroke="#000000" points="43.5,-385.5 43.5,-415.5 416.5,-415.5 416.5,-385.5 43.5,-385.5"/>
<text text-anchor="start" x="50.5" y="-396.9" font-family="Arial" font-size="14.00" fill="#000000">BrowserName    </text>
<text text-anchor="start" x="173.3668" y="-396.9" font-family="Arial" font-size="14.00" fill="#666666">[STRING(64)]</text>
<polygon fill="none" stroke="#000000" points="43.5,-355.5 43.5,-385.5 416.5,-385.5 416.5,-355.5 43.5,-355.5"/>
<text text-anchor="start" x="50.5" y="-366.9" font-family="Arial" font-size="14.00" fill="#000000">BrowserVersion    </text>
<text text-anchor="start" x="183.486" y="-366.9" font-family="Arial" font-size="14.00" fill="#666666">[STRING(8)]</text>
<polygon fill="none" stroke="#000000" points="43.5,-325.5 43.5,-355.5 416.5,-355.5 416.5,-325.5 43.5,-325.5"/>
<text text-anchor="start" x="50.5" y="-336.9" font-family="Arial" font-size="14.00" fill="#000000">WebFeatureID    </text>
<text text-anchor="start" x="175.716" y="-336.9" font-family="Arial" font-size="14.00" fill="#666666">[STRING(36)]</text>
</g>
<!-- BrowserFeatureAvailabilities&#45;&gt;BrowserReleases -->
<g id="edge1" class="edge">
<title>BrowserFeatureAvailabilities:BrowserName&#45;&gt;BrowserReleases:BrowserName</title>
<path fill="none" stroke="#000000" stroke-dasharray="5,2" d="M426.821,-399.3699C464.4499,-390.1334 438.0023,-326.3015 416.5,-283 394.9142,-239.5303 351.0858,-260.4697 329.5,-217 310.425,-178.5865 286.6111,-120.5 329.5,-120.5"/>
<polygon fill="#000000" stroke="#000000" points="426.4406,-399.4115 416.0102,-396.0267 421.4703,-399.9557 416.5,-400.5 416.5,-400.5 416.5,-400.5 421.4703,-399.9557 416.9898,-404.9733 426.4406,-399.4115 426.4406,-399.4115"/>
</g>
<!-- BrowserFeatureSupportEvents -->
<g id="node3" class="node">
<title>BrowserFeatureSupportEvents</title>
<polygon fill="#efefef" stroke="transparent" points="520.5,-445.5 520.5,-480.5 912.5,-480.5 912.5,-445.5 520.5,-445.5"/>
<polygon fill="none" stroke="#000000" points="520.5,-445.5 520.5,-480.5 912.5,-480.5 912.5,-445.5 520.5,-445.5"/>
<text text-anchor="start" x="527.3593" y="-458.3" font-family="Arial Bold" font-size="18.00" fill="#000000">BrowserFeatureSupportEvents</text>
<text text-anchor="start" x="773.4121" y="-458.3" font-family="Arial" font-size="14.00" fill="#000000">    </text>
<text text-anchor="start" x="807.6169" y="-458.3" font-family="Arial" font-size="14.00" fill="#666666">[BASIC TABLE]</text>
<polygon fill="none" stroke="#000000" points="520.5,-415.5 520.5,-445.5 912.5,-445.5 912.5,-415.5 520.5,-415.5"/>
<text text-anchor="start" x="527.5" y="-426.9" font-family="Arial" font-size="14.00" fill="#000000">TargetBrowserName    </text>
<text text-anchor="start" x="690.8184" y="-426.9" font-family="Arial" font-size="14.00" fill="#666666">[STRING(64)]</text>
<polygon fill="none" stroke="#000000" points="520.5,-385.5 520.5,-415.5 912.5,-415.5 912.5,-385.5 520.5,-385.5"/>
<text text-anchor="start" x="527.5" y="-396.9" font-family="Arial" font-size="14.00" fill="#000000">EventBrowserName    </text>
<text text-anchor="start" x="686.1592" y="-396.9" font-family="Arial" font-size="14.00" fill="#666666">[STRING(64)]</text>
<polygon fill="none" stroke="#000000" points="520.5,-355.5 520.5,-385.5 912.5,-385.5 912.5,-355.5 520.5,-355.5"/>
<text text-anchor="start" x="527.5" y="-366.9" font-family="Arial" font-size="14.00" fill="#000000">EventReleaseDate    </text>
<text text-anchor="start" x="678.4032" y="-366.9" font-family="Arial" font-size="14.00" fill="#666666">[TIMESTAMP]</text>
<polygon fill="none" stroke="#000000" points="520.5,-325.5 520.5,-355.5 912.5,-355.5 912.5,-325.5 520.5,-325.5"/>
<text text-anchor="start" x="527.5" y="-336.9" font-family="Arial" font-size="14.00" fill="#000000">WebFeatureID    </text>
<text text-anchor="start" x="652.716" y="-336.9" font-family="Arial" font-size="14.00" fill="#666666">[STRING(36)]</text>
<polygon fill="none" stroke="#000000" points="520.5,-295.5 520.5,-325.5 912.5,-325.5 912.5,-295.5 520.5,-295.5"/>
<text text-anchor="start" x="527.5" y="-306.9" font-family="Arial" font-size="14.00" fill="#000000">SupportStatus    </text>
<text text-anchor="start" x="650.406" y="-306.9" font-family="Arial" font-size="14.00" fill="#666666">[STRING(32)]</text>
</g>
<!-- BrowserFeatureSupportEvents&#45;&gt;BrowserReleases -->
<g id="edge2" class="edge">
<title>BrowserFeatureSupportEvents:EventBrowserName&#45;&gt;BrowserReleases:BrowserName</title>
<path fill="none" stroke="#000000" stroke-dasharray="5,2" d="M510.2478,-399.6232C458.17,-390.0223 485.2749,-303.8299 520.5,-253 546.4553,-215.5465 590.5447,-254.4535 616.5,-217 640.9293,-181.7485 659.3889,-120.5 616.5,-120.5"/>
<polygon fill="#000000" stroke="#000000" points="510.5364,-399.6478 520.1165,-404.9836 515.5182,-400.0739 520.5,-400.5 520.5,-400.5 520.5,-400.5 515.5182,-400.0739 520.8835,-396.0164 510.5364,-399.6478 510.5364,-399.6478"/>
</g>
</g>
</svg>
