<?xml version="1.0" encoding="UTF-8" standalone="no"?>
<!DOCTYPE svg PUBLIC "-//W3C//DTD SVG 1.1//EN"
 "http://www.w3.org/Graphics/SVG/1.1/DTD/svg11.dtd">
<!-- Generated by graphviz version 2.40.1 (20161225.0304)
 -->
<!-- Title: BrowserFeatureSupportEvents Pages: 1 -->
<svg width="778pt" height="682pt"
 viewBox="0.00 0.00 778.00 682.00" xmlns="http://www.w3.org/2000/svg" xmlns:xlink="http://www.w3.org/1999/xlink">
<g id="graph0" class="graph" transform="scale(1 1) rotate(0) translate(4 678)">
<title>BrowserFeatureSupportEvents</title>
<polygon fill="#ffffff" stroke="transparent" points="-4,4 -4,-678 774,-678 774,4 -4,4"/>
<!-- BrowserFeatureSupportEvents -->
<g id="node1" class="node">
<title>BrowserFeatureSupportEvents</title>
<polygon fill="#efefef" stroke="transparent" points="188.5,-592.5 188.5,-627.5 580.5,-627.5 580.5,-592.5 188.5,-592.5"/>
<polygon fill="none" stroke="#000000" points="188.5,-592.5 188.5,-627.5 580.5,-627.5 580.5,-592.5 188.5,-592.5"/>
<text text-anchor="start" x="195.3593" y="-605.3" font-family="Arial Bold" font-size="18.00" fill="#000000">BrowserFeatureSupportEvents</text>
<text text-anchor="start" x="441.4121" y="-605.3" font-family="Arial" font-size="14.00" fill="#000000">    </text>
<text text-anchor="start" x="475.6169" y="-605.3" font-family="Arial" font-size="14.00" fill="#666666">[BASIC TABLE]</text>
<polygon fill="none" stroke="#000000" points="188.5,-562.5 188.5,-592.5 580.5,-592.5 580.5,-562.5 188.5,-562.5"/>
<text text-anchor="start" x="195.5" y="-573.9" font-family="Arial" font-size="14.00" fill="#000000">TargetBrowserName </text>
<text text-anchor="start" x="328.5042" y="-573.9" font-family="Arial" font-size="14.00" fill="#666666">[STRING(64)]</text>
<polygon fill="none" stroke="#000000" points="188.5,-532.5 188.5,-562.5 580.5,-562.5 580.5,-532.5 188.5,-532.5"/>
<text text-anchor="start" x="195.5" y="-543.9" font-family="Arial" font-size="14.00" fill="#000000">EventBrowserName </text>
<text text-anchor="start" x="323.845" y="-543.9" font-family="Arial" font-size="14.00" fill="#666666">[STRING(64)]</text>
<polygon fill="none" stroke="#000000" points="188.5,-502.5 188.5,-532.5 580.5,-532.5 580.5,-502.5 188.5,-502.5"/>
<text text-anchor="start" x="195.5" y="-513.9" font-family="Arial" font-size="14.00" fill="#000000">EventReleaseDate </text>
<text text-anchor="start" x="316.089" y="-513.9" font-family="Arial" font-size="14.00" fill="#666666">[TIMESTAMP]</text>
<polygon fill="none" stroke="#000000" points="188.5,-472.5 188.5,-502.5 580.5,-502.5 580.5,-472.5 188.5,-472.5"/>
<text text-anchor="start" x="195.5" y="-483.9" font-family="Arial" font-size="14.00" fill="#000000">WebFeatureID </text>
<text text-anchor="start" x="290.4018" y="-483.9" font-family="Arial" font-size="14.00" fill="#666666">[STRING(36)]</text>
<polygon fill="none" stroke="#000000" points="188.5,-442.5 188.5,-472.5 580.5,-472.5 580.5,-442.5 188.5,-442.5"/>
<text text-anchor="start" x="195.5" y="-453.9" font-family="Arial" font-size="14.00" fill="#000000">SupportStatus </text>
<text text-anchor="start" x="288.0918" y="-453.9" font-family="Arial" font-size="14.00" fill="#666666">[STRING(32)]</text>
<polygon fill="none" stroke="#000000" stroke-width="3" points="187,-441.5 187,-629.5 582,-629.5 582,-441.5 187,-441.5"/>
</g>
<!-- BrowserReleases -->
<g id="node2" class="node">
<title>BrowserReleases</title>
<polygon fill="#efefef" stroke="transparent" points="43.5,-207.5 43.5,-242.5 330.5,-242.5 330.5,-207.5 43.5,-207.5"/>
<polygon fill="none" stroke="#000000" points="43.5,-207.5 43.5,-242.5 330.5,-242.5 330.5,-207.5 43.5,-207.5"/>
<text text-anchor="start" x="50.3815" y="-220.3" font-family="Arial Bold" font-size="18.00" fill="#000000">BrowserReleases</text>
<text text-anchor="start" x="191.3899" y="-220.3" font-family="Arial" font-size="14.00" fill="#000000">    </text>
<text text-anchor="start" x="225.5947" y="-220.3" font-family="Arial" font-size="14.00" fill="#666666">[BASIC TABLE]</text>
<polygon fill="none" stroke="#000000" points="43.5,-177.5 43.5,-207.5 330.5,-207.5 330.5,-177.5 43.5,-177.5"/>
<text text-anchor="start" x="50.5" y="-188.9" font-family="Arial" font-size="14.00" fill="#000000">BrowserName    </text>
<text text-anchor="start" x="173.3668" y="-188.9" font-family="Arial" font-size="14.00" fill="#666666">[STRING(64)]</text>
<polygon fill="none" stroke="#000000" points="43.5,-147.5 43.5,-177.5 330.5,-177.5 330.5,-147.5 43.5,-147.5"/>
<text text-anchor="start" x="50.5" y="-158.9" font-family="Arial" font-size="14.00" fill="#000000">BrowserVersion    </text>
<text text-anchor="start" x="183.486" y="-158.9" font-family="Arial" font-size="14.00" fill="#666666">[STRING(8)]</text>
<polygon fill="none" stroke="#000000" points="43.5,-117.5 43.5,-147.5 330.5,-147.5 330.5,-117.5 43.5,-117.5"/>
<text text-anchor="start" x="50.5" y="-128.9" font-family="Arial" font-size="14.00" fill="#000000">ReleaseDate    </text>
<text text-anchor="start" x="165.6108" y="-128.9" font-family="Arial" font-size="14.00" fill="#666666">[TIMESTAMP]</text>
</g>
<!-- BrowserFeatureSupportEvents&#45;&gt;BrowserReleases -->
<g id="edge1" class="edge">
<title>BrowserFeatureSupportEvents:EventBrowserName&#45;&gt;BrowserReleases:BrowserName</title>
<path fill="none" stroke="#000000" stroke-dasharray="5,2" d="M178.4449,-546.7089C125.6961,-537.7055 160.7885,-453.835 188.5,-397 223.6066,-324.9978 295.3934,-358.0022 330.5,-286 348.7121,-248.6478 372.0556,-192.5 330.5,-192.5"/>
<polygon fill="#000000" stroke="#000000" points="178.5308,-546.7155 188.147,-551.9861 183.5154,-547.1078 188.5,-547.5 188.5,-547.5 188.5,-547.5 183.5154,-547.1078 188.853,-543.0139 178.5308,-546.7155 178.5308,-546.7155"/>
</g>
<!-- WebFeatures -->
<g id="node3" class="node">
<title>WebFeatures</title>
<polygon fill="#efefef" stroke="transparent" points="434.5,-282.5 434.5,-317.5 727.5,-317.5 727.5,-282.5 434.5,-282.5"/>
<polygon fill="none" stroke="#000000" points="434.5,-282.5 434.5,-317.5 727.5,-317.5 727.5,-282.5 434.5,-282.5"/>
<text text-anchor="start" x="460.8767" y="-295.3" font-family="Arial Bold" font-size="18.00" fill="#000000">WebFeatures</text>
<text text-anchor="start" x="568.8947" y="-295.3" font-family="Arial" font-size="14.00" fill="#000000">    </text>
<text text-anchor="start" x="603.0995" y="-295.3" font-family="Arial" font-size="14.00" fill="#666666">[BASIC TABLE]</text>
<polygon fill="none" stroke="#000000" points="434.5,-252.5 434.5,-282.5 727.5,-282.5 727.5,-252.5 434.5,-252.5"/>
<text text-anchor="start" x="441.5" y="-263.9" font-family="Arial" font-size="14.00" fill="#000000">ID    </text>
<text text-anchor="start" x="489.702" y="-263.9" font-family="Arial" font-size="14.00" fill="#666666">[STRING(36)]</text>
<polygon fill="none" stroke="#000000" points="434.5,-222.5 434.5,-252.5 727.5,-252.5 727.5,-222.5 434.5,-222.5"/>
<text text-anchor="start" x="441.5" y="-233.9" font-family="Arial" font-size="14.00" fill="#000000">FeatureKey    </text>
<text text-anchor="start" x="548.0582" y="-233.9" font-family="Arial" font-size="14.00" fill="#666666">[STRING(64)]</text>
<polygon fill="none" stroke="#000000" points="434.5,-192.5 434.5,-222.5 727.5,-222.5 727.5,-192.5 434.5,-192.5"/>
<text text-anchor="start" x="441.5" y="-203.9" font-family="Arial" font-size="14.00" fill="#000000">Name    </text>
<text text-anchor="start" x="513.0372" y="-203.9" font-family="Arial" font-size="14.00" fill="#666666">[STRING(64)]</text>
<polygon fill="none" stroke="#000000" points="434.5,-162.5 434.5,-192.5 727.5,-192.5 727.5,-162.5 434.5,-162.5"/>
<text text-anchor="start" x="441.5" y="-173.9" font-family="Arial" font-size="14.00" fill="#000000">FeatureKey_Lowercase    </text>
<text text-anchor="start" x="623.521" y="-173.9" font-family="Arial" font-size="14.00" fill="#666666">[STRING(64)]</text>
<polygon fill="none" stroke="#000000" points="434.5,-132.5 434.5,-162.5 727.5,-162.5 727.5,-132.5 434.5,-132.5"/>
<text text-anchor="start" x="441.5" y="-143.9" font-family="Arial" font-size="14.00" fill="#000000">Name_Lowercase    </text>
<text text-anchor="start" x="588.5" y="-143.9" font-family="Arial" font-size="14.00" fill="#666666">[STRING(64)]</text>
<polygon fill="none" stroke="#000000" points="434.5,-102.5 434.5,-132.5 727.5,-132.5 727.5,-102.5 434.5,-102.5"/>
<text text-anchor="start" x="441.5" y="-113.9" font-family="Arial" font-size="14.00" fill="#000000">Description    </text>
<text text-anchor="start" x="545.7062" y="-113.9" font-family="Arial" font-size="14.00" fill="#666666">[STRING(MAX)]</text>
<polygon fill="none" stroke="#000000" points="434.5,-72.5 434.5,-102.5 727.5,-102.5 727.5,-72.5 434.5,-72.5"/>
<text text-anchor="start" x="441.5" y="-83.9" font-family="Arial" font-size="14.00" fill="#000000">DescriptionHtml    </text>
<text text-anchor="start" x="574.4706" y="-83.9" font-family="Arial" font-size="14.00" fill="#666666">[STRING(MAX)]</text>
<polygon fill="none" stroke="#000000" points="434.5,-42.5 434.5,-72.5 727.5,-72.5 727.5,-42.5 434.5,-42.5"/>
<text text-anchor="start" x="441.0056" y="-53.9" font-family="Arial" font-size="14.00" fill="#000000">Description_Lowercase    </text>
<text text-anchor="start" x="620.6746" y="-53.9" font-family="Arial" font-size="14.00" fill="#666666">[STRING(MAX)]</text>
</g>
<!-- BrowserFeatureSupportEvents&#45;&gt;WebFeatures -->
<g id="edge2" class="edge">
<title>BrowserFeatureSupportEvents:WebFeatureID&#45;&gt;WebFeatures:ID</title>
<path fill="none" stroke="#000000" stroke-dasharray="5,2" d="M590.7351,-485.8968C617.6214,-476.2676 602.882,-425.5713 580.5,-397 539.2856,-344.3888 475.7144,-413.6112 434.5,-361 408.8734,-328.287 392.9444,-267.5 434.5,-267.5"/>
<polygon fill="#000000" stroke="#000000" points="590.3795,-485.9524 579.8036,-483.0542 585.4398,-486.7262 580.5,-487.5 580.5,-487.5 580.5,-487.5 585.4398,-486.7262 581.1964,-491.9458 590.3795,-485.9524 590.3795,-485.9524"/>
</g>
</g>
</svg>
