<?xml version="1.0" encoding="UTF-8" standalone="no"?>
<!DOCTYPE svg PUBLIC "-//W3C//DTD SVG 1.1//EN"
 "http://www.w3.org/Graphics/SVG/1.1/DTD/svg11.dtd">
<!-- Generated by graphviz version 12.1.2 (20240928.0832)
 -->
<!-- Title: BrowserFeatureAvailabilities Pages: 1 -->
<svg width="1608pt" height="633pt"
 viewBox="0.00 0.00 1608.39 632.80" xmlns="http://www.w3.org/2000/svg" xmlns:xlink="http://www.w3.org/1999/xlink">
<g id="graph0" class="graph" transform="scale(1 1) rotate(0) translate(4 628.8)">
<title>BrowserFeatureAvailabilities</title>
<polygon fill="white" stroke="none" points="-4,4 -4,-628.8 1604.39,-628.8 1604.39,4 -4,4"/>
<!-- BrowserFeatureAvailabilities -->
<g id="node1" class="node">
<title>BrowserFeatureAvailabilities</title>
<polygon fill="#efefef" stroke="none" points="823.55,-543 823.55,-578.6 1178.64,-578.6 1178.64,-543 823.55,-543"/>
<polygon fill="none" stroke="black" points="823.55,-543 823.55,-578.6 1178.64,-578.6 1178.64,-543 823.55,-543"/>
<text text-anchor="start" x="830.55" y="-556.4" font-family="Arial Bold" font-size="18.00">BrowserFeatureAvailabilities</text>
<text text-anchor="start" x="1042.49" y="-556.4" font-family="Arial" font-size="14.00">    </text>
<text text-anchor="start" x="1073.61" y="-556.4" font-family="Arial" font-size="14.00" fill="#666666">[BASIC TABLE]</text>
<polygon fill="none" stroke="black" points="823.55,-512.2 823.55,-543 1178.64,-543 1178.64,-512.2 823.55,-512.2"/>
<text text-anchor="start" x="830.55" y="-524.4" font-family="Arial" font-size="14.00">BrowserName </text>
<text text-anchor="start" x="923.13" y="-524.4" font-family="Arial" font-size="14.00" fill="#666666">[STRING(64)]</text>
<polygon fill="none" stroke="black" points="823.55,-481.4 823.55,-512.2 1178.64,-512.2 1178.64,-481.4 823.55,-481.4"/>
<text text-anchor="start" x="830.55" y="-493.6" font-family="Arial" font-size="14.00">BrowserVersion </text>
<text text-anchor="start" x="933.25" y="-493.6" font-family="Arial" font-size="14.00" fill="#666666">[STRING(8)]</text>
<polygon fill="none" stroke="black" points="823.55,-450.6 823.55,-481.4 1178.64,-481.4 1178.64,-450.6 823.55,-450.6"/>
<text text-anchor="start" x="830.55" y="-462.8" font-family="Arial" font-size="14.00">WebFeatureID </text>
<text text-anchor="start" x="925.47" y="-462.8" font-family="Arial" font-size="14.00" fill="#666666">[STRING(36)]</text>
<polygon fill="none" stroke="black" stroke-width="3" points="822.05,-449.1 822.05,-580.1 1180.14,-580.1 1180.14,-449.1 822.05,-449.1"/>
</g>
<!-- BrowserReleases -->
<g id="node2" class="node">
<title>BrowserReleases</title>
<polygon fill="#efefef" stroke="none" points="682.54,-212.6 682.54,-248.2 949.65,-248.2 949.65,-212.6 682.54,-212.6"/>
<polygon fill="none" stroke="black" points="682.54,-212.6 682.54,-248.2 949.65,-248.2 949.65,-212.6 682.54,-212.6"/>
<text text-anchor="start" x="689.54" y="-226" font-family="Arial Bold" font-size="18.00">BrowserReleases</text>
<text text-anchor="start" x="813.5" y="-226" font-family="Arial" font-size="14.00">    </text>
<text text-anchor="start" x="844.62" y="-226" font-family="Arial" font-size="14.00" fill="#666666">[BASIC TABLE]</text>
<polygon fill="none" stroke="black" points="682.54,-181.8 682.54,-212.6 949.65,-212.6 949.65,-181.8 682.54,-181.8"/>
<text text-anchor="start" x="689.54" y="-194" font-family="Arial" font-size="14.00">BrowserName </text>
<text text-anchor="start" x="782.12" y="-194" font-family="Arial" font-size="14.00" fill="#666666">[STRING(64)]</text>
<polygon fill="none" stroke="black" points="682.54,-151 682.54,-181.8 949.65,-181.8 949.65,-151 682.54,-151"/>
<text text-anchor="start" x="689.54" y="-163.2" font-family="Arial" font-size="14.00">BrowserVersion </text>
<text text-anchor="start" x="792.24" y="-163.2" font-family="Arial" font-size="14.00" fill="#666666">[STRING(8)]</text>
<polygon fill="none" stroke="black" points="682.54,-120.2 682.54,-151 949.65,-151 949.65,-120.2 682.54,-120.2"/>
<text text-anchor="start" x="689.54" y="-132.4" font-family="Arial" font-size="14.00">ReleaseDate </text>
<text text-anchor="start" x="774.37" y="-132.4" font-family="Arial" font-size="14.00" fill="#666666">[TIMESTAMP]</text>
</g>
<!-- BrowserFeatureAvailabilities&#45;&gt;BrowserReleases -->
<g id="edge1" class="edge">
<title>BrowserFeatureAvailabilities:BrowserName&#45;&gt;BrowserReleases:BrowserName</title>
<path fill="none" stroke="black" d="M812.27,-526.55C772.41,-517.41 802.6,-450.8 823.55,-404.4 854.52,-335.81 918.6,-359.95 949.65,-291.4 966.93,-253.26 992.52,-197.2 950.65,-197.2"/>
<polygon fill="black" stroke="black" points="812.27,-526.55 821.76,-532.04 817.58,-527.09 821.88,-527.53 821.88,-527.53 821.88,-527.53 817.58,-527.09 822.68,-523.09 812.27,-526.55"/>
<text text-anchor="start" x="7" y="-537.6" font-family="Arial" font-size="10.00">FOREIGN KEY (BrowserName, BrowserName, BrowserVersion, BrowserVersion) REFERENCES BrowserReleases (BrowserName, BrowserVersion, BrowserName, BrowserVersion)</text>
</g>
<!-- WebFeatures -->
<g id="node3" class="node">
<title>WebFeatures</title>
<polygon fill="#efefef" stroke="none" points="1054.23,-289.6 1054.23,-325.2 1317.96,-325.2 1317.96,-289.6 1054.23,-289.6"/>
<polygon fill="none" stroke="black" points="1054.23,-289.6 1054.23,-325.2 1317.96,-325.2 1317.96,-289.6 1054.23,-289.6"/>
<text text-anchor="start" x="1074.04" y="-303" font-family="Arial Bold" font-size="18.00">WebFeatures</text>
<text text-anchor="start" x="1169" y="-303" font-family="Arial" font-size="14.00">    </text>
<text text-anchor="start" x="1200.12" y="-303" font-family="Arial" font-size="14.00" fill="#666666">[BASIC TABLE]</text>
<polygon fill="none" stroke="black" points="1054.23,-258.8 1054.23,-289.6 1317.96,-289.6 1317.96,-258.8 1054.23,-258.8"/>
<text text-anchor="start" x="1061.23" y="-271" font-family="Arial" font-size="14.00">ID </text>
<text text-anchor="start" x="1079.12" y="-271" font-family="Arial" font-size="14.00" fill="#666666">[STRING(36)]</text>
<polygon fill="none" stroke="black" points="1054.23,-228 1054.23,-258.8 1317.96,-258.8 1317.96,-228 1054.23,-228"/>
<text text-anchor="start" x="1061.23" y="-240.2" font-family="Arial" font-size="14.00">FeatureKey </text>
<text text-anchor="start" x="1137.49" y="-240.2" font-family="Arial" font-size="14.00" fill="#666666">[STRING(64)]</text>
<polygon fill="none" stroke="black" points="1054.23,-197.2 1054.23,-228 1317.96,-228 1317.96,-197.2 1054.23,-197.2"/>
<text text-anchor="start" x="1061.23" y="-209.4" font-family="Arial" font-size="14.00">Name </text>
<text text-anchor="start" x="1102.46" y="-209.4" font-family="Arial" font-size="14.00" fill="#666666">[STRING(64)]</text>
<polygon fill="none" stroke="black" points="1054.23,-166.4 1054.23,-197.2 1317.96,-197.2 1317.96,-166.4 1054.23,-166.4"/>
<text text-anchor="start" x="1061.23" y="-178.6" font-family="Arial" font-size="14.00">FeatureKey_Lowercase </text>
<text text-anchor="start" x="1212.98" y="-178.6" font-family="Arial" font-size="14.00" fill="#666666">[STRING(64)]</text>
<polygon fill="none" stroke="black" points="1054.23,-135.6 1054.23,-166.4 1317.96,-166.4 1317.96,-135.6 1054.23,-135.6"/>
<text text-anchor="start" x="1061.23" y="-147.8" font-family="Arial" font-size="14.00">Name_Lowercase </text>
<text text-anchor="start" x="1177.95" y="-147.8" font-family="Arial" font-size="14.00" fill="#666666">[STRING(64)]</text>
<polygon fill="none" stroke="black" points="1054.23,-104.8 1054.23,-135.6 1317.96,-135.6 1317.96,-104.8 1054.23,-104.8"/>
<text text-anchor="start" x="1061.23" y="-117" font-family="Arial" font-size="14.00">Description </text>
<text text-anchor="start" x="1135.14" y="-117" font-family="Arial" font-size="14.00" fill="#666666">[STRING(MAX)]</text>
<polygon fill="none" stroke="black" points="1054.23,-74 1054.23,-104.8 1317.96,-104.8 1317.96,-74 1054.23,-74"/>
<text text-anchor="start" x="1061.23" y="-86.2" font-family="Arial" font-size="14.00">DescriptionHtml </text>
<text text-anchor="start" x="1163.92" y="-86.2" font-family="Arial" font-size="14.00" fill="#666666">[STRING(MAX)]</text>
<polygon fill="none" stroke="black" points="1054.23,-43.2 1054.23,-74 1317.96,-74 1317.96,-43.2 1054.23,-43.2"/>
<text text-anchor="start" x="1061.23" y="-55.4" font-family="Arial" font-size="14.00">Description_Lowercase </text>
<text text-anchor="start" x="1210.63" y="-55.4" font-family="Arial" font-size="14.00" fill="#666666">[STRING(MAX)]</text>
</g>
<!-- BrowserFeatureAvailabilities&#45;&gt;WebFeatures -->
<g id="edge2" class="edge">
<title>BrowserFeatureAvailabilities:WebFeatureID&#45;&gt;WebFeatures:ID</title>
<path fill="none" stroke="black" d="M1189.36,-463.56C1203.43,-454.57 1192.8,-422.92 1178.64,-404.4 1143.68,-358.67 1089.06,-414.23 1054.23,-368.4 1028.89,-335.07 1011.36,-274.2 1053.23,-274.2"/>
<polygon fill="black" stroke="black" points="1189.66,-463.48 1178.87,-461.55 1184.49,-464.78 1180.29,-465.84 1180.29,-465.84 1180.29,-465.84 1184.49,-464.78 1181.06,-470.28 1189.66,-463.48"/>
<text text-anchor="start" x="1186.64" y="-476" font-family="Arial" font-size="10.00">FOREIGN KEY (WebFeatureID) REFERENCES WebFeatures (ID) ON DELETE CASCADE</text>
</g>
</g>
</svg>
