<?xml version="1.0" encoding="UTF-8" standalone="no"?>
<!DOCTYPE svg PUBLIC "-//W3C//DTD SVG 1.1//EN"
 "http://www.w3.org/Graphics/SVG/1.1/DTD/svg11.dtd">
<!-- Generated by graphviz version 2.40.1 (20161225.0304)
 -->
<!-- Title: BrowserFeatureAvailabilities Pages: 1 -->
<svg width="756pt" height="532pt"
 viewBox="0.00 0.00 756.00 532.00" xmlns="http://www.w3.org/2000/svg" xmlns:xlink="http://www.w3.org/1999/xlink">
<g id="graph0" class="graph" transform="scale(1 1) rotate(0) translate(4 528)">
<title>BrowserFeatureAvailabilities</title>
<polygon fill="#ffffff" stroke="transparent" points="-4,4 -4,-528 752,-528 752,4 -4,4"/>
<!-- BrowserFeatureAvailabilities -->
<g id="node1" class="node">
<title>BrowserFeatureAvailabilities</title>
<polygon fill="#efefef" stroke="transparent" points="191.5,-442.5 191.5,-477.5 564.5,-477.5 564.5,-442.5 191.5,-442.5"/>
<polygon fill="none" stroke="#000000" points="191.5,-442.5 191.5,-477.5 564.5,-477.5 564.5,-442.5 191.5,-442.5"/>
<text text-anchor="start" x="198.3822" y="-455.3" font-family="Arial Bold" font-size="18.00" fill="#000000">BrowserFeatureAvailabilities</text>
<text text-anchor="start" x="425.3892" y="-455.3" font-family="Arial" font-size="14.00" fill="#000000">    </text>
<text text-anchor="start" x="459.594" y="-455.3" font-family="Arial" font-size="14.00" fill="#666666">[BASIC TABLE]</text>
<polygon fill="none" stroke="#000000" points="191.5,-412.5 191.5,-442.5 564.5,-442.5 564.5,-412.5 191.5,-412.5"/>
<text text-anchor="start" x="198.5" y="-423.9" font-family="Arial" font-size="14.00" fill="#000000">BrowserName </text>
<text text-anchor="start" x="291.0526" y="-423.9" font-family="Arial" font-size="14.00" fill="#666666">[STRING(64)]</text>
<polygon fill="none" stroke="#000000" points="191.5,-382.5 191.5,-412.5 564.5,-412.5 564.5,-382.5 191.5,-382.5"/>
<text text-anchor="start" x="198.5" y="-393.9" font-family="Arial" font-size="14.00" fill="#000000">BrowserVersion </text>
<text text-anchor="start" x="301.1718" y="-393.9" font-family="Arial" font-size="14.00" fill="#666666">[STRING(8)]</text>
<polygon fill="none" stroke="#000000" points="191.5,-352.5 191.5,-382.5 564.5,-382.5 564.5,-352.5 191.5,-352.5"/>
<text text-anchor="start" x="198.5" y="-363.9" font-family="Arial" font-size="14.00" fill="#000000">FeatureID </text>
<text text-anchor="start" x="264.622" y="-363.9" font-family="Arial" font-size="14.00" fill="#666666">[STRING(36)]</text>
<polygon fill="none" stroke="#000000" stroke-width="3" points="189.5,-351.5 189.5,-479.5 565.5,-479.5 565.5,-351.5 189.5,-351.5"/>
</g>
<!-- BrowserReleases -->
<g id="node2" class="node">
<title>BrowserReleases</title>
<polygon fill="#efefef" stroke="transparent" points="43.5,-162.5 43.5,-197.5 330.5,-197.5 330.5,-162.5 43.5,-162.5"/>
<polygon fill="none" stroke="#000000" points="43.5,-162.5 43.5,-197.5 330.5,-197.5 330.5,-162.5 43.5,-162.5"/>
<text text-anchor="start" x="50.3815" y="-175.3" font-family="Arial Bold" font-size="18.00" fill="#000000">BrowserReleases</text>
<text text-anchor="start" x="191.3899" y="-175.3" font-family="Arial" font-size="14.00" fill="#000000">    </text>
<text text-anchor="start" x="225.5947" y="-175.3" font-family="Arial" font-size="14.00" fill="#666666">[BASIC TABLE]</text>
<polygon fill="none" stroke="#000000" points="43.5,-132.5 43.5,-162.5 330.5,-162.5 330.5,-132.5 43.5,-132.5"/>
<text text-anchor="start" x="50.5" y="-143.9" font-family="Arial" font-size="14.00" fill="#000000">BrowserName    </text>
<text text-anchor="start" x="173.3668" y="-143.9" font-family="Arial" font-size="14.00" fill="#666666">[STRING(64)]</text>
<polygon fill="none" stroke="#000000" points="43.5,-102.5 43.5,-132.5 330.5,-132.5 330.5,-102.5 43.5,-102.5"/>
<text text-anchor="start" x="50.5" y="-113.9" font-family="Arial" font-size="14.00" fill="#000000">BrowserVersion    </text>
<text text-anchor="start" x="183.486" y="-113.9" font-family="Arial" font-size="14.00" fill="#666666">[STRING(8)]</text>
<polygon fill="none" stroke="#000000" points="43.5,-72.5 43.5,-102.5 330.5,-102.5 330.5,-72.5 43.5,-72.5"/>
<text text-anchor="start" x="50.5" y="-83.9" font-family="Arial" font-size="14.00" fill="#000000">ReleaseDate    </text>
<text text-anchor="start" x="165.6108" y="-83.9" font-family="Arial" font-size="14.00" fill="#666666">[TIMESTAMP]</text>
</g>
<!-- BrowserFeatureAvailabilities&#45;&gt;BrowserReleases -->
<g id="edge1" class="edge">
<title>BrowserFeatureAvailabilities:BrowserName&#45;&gt;BrowserReleases:BrowserName</title>
<path fill="none" stroke="#000000" stroke-dasharray="5,2" d="M181.3413,-426.4208C141.4695,-417.0687 164.8944,-349.0854 191.5,-307 228.0437,-249.1943 293.9563,-298.8057 330.5,-241 352.7055,-205.8748 372.0556,-147.5 330.5,-147.5"/>
<polygon fill="#000000" stroke="#000000" points="181.556,-426.4435 191.0246,-431.9748 186.528,-426.9717 191.5,-427.5 191.5,-427.5 191.5,-427.5 186.528,-426.9717 191.9754,-423.0252 181.556,-426.4435 181.556,-426.4435"/>
</g>
<!-- WebFeatures -->
<g id="node3" class="node">
<title>WebFeatures</title>
<polygon fill="#efefef" stroke="transparent" points="434.5,-192.5 434.5,-227.5 705.5,-227.5 705.5,-192.5 434.5,-192.5"/>
<polygon fill="none" stroke="#000000" points="434.5,-192.5 434.5,-227.5 705.5,-227.5 705.5,-192.5 434.5,-192.5"/>
<text text-anchor="start" x="449.8767" y="-205.3" font-family="Arial Bold" font-size="18.00" fill="#000000">WebFeatures</text>
<text text-anchor="start" x="557.8947" y="-205.3" font-family="Arial" font-size="14.00" fill="#000000">    </text>
<text text-anchor="start" x="592.0995" y="-205.3" font-family="Arial" font-size="14.00" fill="#666666">[BASIC TABLE]</text>
<polygon fill="none" stroke="#000000" points="434.5,-162.5 434.5,-192.5 705.5,-192.5 705.5,-162.5 434.5,-162.5"/>
<text text-anchor="start" x="441.5" y="-173.9" font-family="Arial" font-size="14.00" fill="#000000">ID    </text>
<text text-anchor="start" x="489.702" y="-173.9" font-family="Arial" font-size="14.00" fill="#666666">[STRING(36)]</text>
<polygon fill="none" stroke="#000000" points="434.5,-132.5 434.5,-162.5 705.5,-162.5 705.5,-132.5 434.5,-132.5"/>
<text text-anchor="start" x="441.5" y="-143.9" font-family="Arial" font-size="14.00" fill="#000000">FeatureID    </text>
<text text-anchor="start" x="537.9362" y="-143.9" font-family="Arial" font-size="14.00" fill="#666666">[STRING(64)]</text>
<polygon fill="none" stroke="#000000" points="434.5,-102.5 434.5,-132.5 705.5,-132.5 705.5,-102.5 434.5,-102.5"/>
<text text-anchor="start" x="441.5" y="-113.9" font-family="Arial" font-size="14.00" fill="#000000">Name    </text>
<text text-anchor="start" x="513.0372" y="-113.9" font-family="Arial" font-size="14.00" fill="#666666">[STRING(64)]</text>
<polygon fill="none" stroke="#000000" points="434.5,-72.5 434.5,-102.5 705.5,-102.5 705.5,-72.5 434.5,-72.5"/>
<text text-anchor="start" x="441.2749" y="-83.9" font-family="Arial" font-size="14.00" fill="#000000">FeatureID_Lowercase    </text>
<text text-anchor="start" x="613.1739" y="-83.9" font-family="Arial" font-size="14.00" fill="#666666">[STRING(64)]</text>
<polygon fill="none" stroke="#000000" points="434.5,-42.5 434.5,-72.5 705.5,-72.5 705.5,-42.5 434.5,-42.5"/>
<text text-anchor="start" x="441.5" y="-53.9" font-family="Arial" font-size="14.00" fill="#000000">Name_Lowercase    </text>
<text text-anchor="start" x="588.5" y="-53.9" font-family="Arial" font-size="14.00" fill="#666666">[STRING(64)]</text>
</g>
<!-- BrowserFeatureAvailabilities&#45;&gt;WebFeatures -->
<g id="edge2" class="edge">
<title>BrowserFeatureAvailabilities:FeatureID&#45;&gt;WebFeatures:ID</title>
<path fill="none" stroke="#000000" stroke-dasharray="5,2" d="M574.4791,-364.8529C587.9351,-355.7135 578.236,-325.0567 564.5,-307 528.2024,-259.2847 470.7976,-318.7153 434.5,-271 409.3405,-237.9264 392.9444,-177.5 434.5,-177.5"/>
<polygon fill="#000000" stroke="#000000" points="574.1657,-364.936 563.3462,-363.1504 569.3329,-366.218 564.5,-367.5 564.5,-367.5 564.5,-367.5 569.3329,-366.218 565.6538,-371.8496 574.1657,-364.936 574.1657,-364.936"/>
</g>
</g>
</svg>
