<?xml version="1.0" encoding="UTF-8" standalone="no"?>
<!DOCTYPE svg PUBLIC "-//W3C//DTD SVG 1.1//EN"
 "http://www.w3.org/Graphics/SVG/1.1/DTD/svg11.dtd">
<!-- Generated by graphviz version 2.40.1 (20161225.0304)
 -->
<!-- Title: BrowserFeatureAvailabilities Pages: 1 -->
<svg width="740pt" height="472pt"
 viewBox="0.00 0.00 739.50 472.00" xmlns="http://www.w3.org/2000/svg" xmlns:xlink="http://www.w3.org/1999/xlink">
<g id="graph0" class="graph" transform="scale(1 1) rotate(0) translate(4 468)">
<title>BrowserFeatureAvailabilities</title>
<polygon fill="#ffffff" stroke="transparent" points="-4,4 -4,-468 735.5,-468 735.5,4 -4,4"/>
<!-- BrowserFeatureAvailabilities -->
<g id="node1" class="node">
<title>BrowserFeatureAvailabilities</title>
<polygon fill="#efefef" stroke="transparent" points="187.5,-382.5 187.5,-417.5 560.5,-417.5 560.5,-382.5 187.5,-382.5"/>
<polygon fill="none" stroke="#000000" points="187.5,-382.5 187.5,-417.5 560.5,-417.5 560.5,-382.5 187.5,-382.5"/>
<text text-anchor="start" x="194.3822" y="-395.3" font-family="Arial Bold" font-size="18.00" fill="#000000">BrowserFeatureAvailabilities</text>
<text text-anchor="start" x="421.3892" y="-395.3" font-family="Arial" font-size="14.00" fill="#000000">    </text>
<text text-anchor="start" x="455.594" y="-395.3" font-family="Arial" font-size="14.00" fill="#666666">[BASIC TABLE]</text>
<polygon fill="none" stroke="#000000" points="187.5,-352.5 187.5,-382.5 560.5,-382.5 560.5,-352.5 187.5,-352.5"/>
<text text-anchor="start" x="194.5" y="-363.9" font-family="Arial" font-size="14.00" fill="#000000">BrowserName </text>
<text text-anchor="start" x="287.0526" y="-363.9" font-family="Arial" font-size="14.00" fill="#666666">[STRING(64)]</text>
<polygon fill="none" stroke="#000000" points="187.5,-322.5 187.5,-352.5 560.5,-352.5 560.5,-322.5 187.5,-322.5"/>
<text text-anchor="start" x="194.5" y="-333.9" font-family="Arial" font-size="14.00" fill="#000000">BrowserVersion </text>
<text text-anchor="start" x="297.1718" y="-333.9" font-family="Arial" font-size="14.00" fill="#666666">[STRING(8)]</text>
<polygon fill="none" stroke="#000000" points="187.5,-292.5 187.5,-322.5 560.5,-322.5 560.5,-292.5 187.5,-292.5"/>
<text text-anchor="start" x="194.5" y="-303.9" font-family="Arial" font-size="14.00" fill="#000000">FeatureID </text>
<text text-anchor="start" x="260.622" y="-303.9" font-family="Arial" font-size="14.00" fill="#666666">[STRING(64)]</text>
<polygon fill="none" stroke="#000000" stroke-width="3" points="185.5,-291.5 185.5,-419.5 561.5,-419.5 561.5,-291.5 185.5,-291.5"/>
</g>
<!-- BrowserReleases -->
<g id="node2" class="node">
<title>BrowserReleases</title>
<polygon fill="#efefef" stroke="transparent" points="43.5,-132.5 43.5,-167.5 330.5,-167.5 330.5,-132.5 43.5,-132.5"/>
<polygon fill="none" stroke="#000000" points="43.5,-132.5 43.5,-167.5 330.5,-167.5 330.5,-132.5 43.5,-132.5"/>
<text text-anchor="start" x="50.3815" y="-145.3" font-family="Arial Bold" font-size="18.00" fill="#000000">BrowserReleases</text>
<text text-anchor="start" x="191.3899" y="-145.3" font-family="Arial" font-size="14.00" fill="#000000">    </text>
<text text-anchor="start" x="225.5947" y="-145.3" font-family="Arial" font-size="14.00" fill="#666666">[BASIC TABLE]</text>
<polygon fill="none" stroke="#000000" points="43.5,-102.5 43.5,-132.5 330.5,-132.5 330.5,-102.5 43.5,-102.5"/>
<text text-anchor="start" x="50.5" y="-113.9" font-family="Arial" font-size="14.00" fill="#000000">BrowserName    </text>
<text text-anchor="start" x="173.3668" y="-113.9" font-family="Arial" font-size="14.00" fill="#666666">[STRING(64)]</text>
<polygon fill="none" stroke="#000000" points="43.5,-72.5 43.5,-102.5 330.5,-102.5 330.5,-72.5 43.5,-72.5"/>
<text text-anchor="start" x="50.5" y="-83.9" font-family="Arial" font-size="14.00" fill="#000000">BrowserVersion    </text>
<text text-anchor="start" x="183.486" y="-83.9" font-family="Arial" font-size="14.00" fill="#666666">[STRING(8)]</text>
<polygon fill="none" stroke="#000000" points="43.5,-42.5 43.5,-72.5 330.5,-72.5 330.5,-42.5 43.5,-42.5"/>
<text text-anchor="start" x="50.5" y="-53.9" font-family="Arial" font-size="14.00" fill="#000000">ReleaseDate    </text>
<text text-anchor="start" x="165.6108" y="-53.9" font-family="Arial" font-size="14.00" fill="#666666">[TIMESTAMP]</text>
</g>
<!-- BrowserFeatureAvailabilities&#45;&gt;BrowserReleases -->
<g id="edge1" class="edge">
<title>BrowserFeatureAvailabilities:BrowserName&#45;&gt;BrowserReleases:BrowserName</title>
<path fill="none" stroke="#000000" stroke-dasharray="5,2" d="M177.5372,-366.4394C136.8226,-356.9687 156.8266,-286.3524 187.5,-247 227.7908,-195.309 290.2092,-262.691 330.5,-211 356.0469,-178.2247 372.0556,-117.5 330.5,-117.5"/>
<polygon fill="#000000" stroke="#000000" points="177.5562,-366.4413 187.0236,-371.9747 182.5281,-366.9707 187.5,-367.5 187.5,-367.5 187.5,-367.5 182.5281,-366.9707 187.9764,-363.0253 177.5562,-366.4413 177.5562,-366.4413"/>
</g>
<!-- WebFeatures -->
<g id="node3" class="node">
<title>WebFeatures</title>
<polygon fill="#efefef" stroke="transparent" points="434.5,-132.5 434.5,-167.5 688.5,-167.5 688.5,-132.5 434.5,-132.5"/>
<polygon fill="none" stroke="#000000" points="434.5,-132.5 434.5,-167.5 688.5,-167.5 688.5,-132.5 434.5,-132.5"/>
<text text-anchor="start" x="441.3767" y="-145.3" font-family="Arial Bold" font-size="18.00" fill="#000000">WebFeatures</text>
<text text-anchor="start" x="549.3947" y="-145.3" font-family="Arial" font-size="14.00" fill="#000000">    </text>
<text text-anchor="start" x="583.5995" y="-145.3" font-family="Arial" font-size="14.00" fill="#666666">[BASIC TABLE]</text>
<polygon fill="none" stroke="#000000" points="434.5,-102.5 434.5,-132.5 688.5,-132.5 688.5,-102.5 434.5,-102.5"/>
<text text-anchor="start" x="441.5" y="-113.9" font-family="Arial" font-size="14.00" fill="#000000">ID    </text>
<text text-anchor="start" x="489.702" y="-113.9" font-family="Arial" font-size="14.00" fill="#666666">[STRING(36)]</text>
<polygon fill="none" stroke="#000000" points="434.5,-72.5 434.5,-102.5 688.5,-102.5 688.5,-72.5 434.5,-72.5"/>
<text text-anchor="start" x="441.5" y="-83.9" font-family="Arial" font-size="14.00" fill="#000000">FeatureID    </text>
<text text-anchor="start" x="537.9362" y="-83.9" font-family="Arial" font-size="14.00" fill="#666666">[STRING(64)]</text>
<polygon fill="none" stroke="#000000" points="434.5,-42.5 434.5,-72.5 688.5,-72.5 688.5,-42.5 434.5,-42.5"/>
<text text-anchor="start" x="441.5" y="-53.9" font-family="Arial" font-size="14.00" fill="#000000">Name    </text>
<text text-anchor="start" x="513.0372" y="-53.9" font-family="Arial" font-size="14.00" fill="#666666">[STRING(64)]</text>
</g>
<!-- BrowserFeatureAvailabilities&#45;&gt;WebFeatures -->
<g id="edge2" class="edge">
<title>BrowserFeatureAvailabilities:FeatureID&#45;&gt;WebFeatures:FeatureID</title>
<path fill="none" stroke="#000000" stroke-dasharray="5,2" d="M570.4737,-304.857C583.9121,-295.731 574.1623,-265.1125 560.5,-247 525.4276,-200.5035 469.5724,-257.4965 434.5,-211 401.4462,-167.1795 379.6111,-87.5 434.5,-87.5"/>
<polygon fill="#000000" stroke="#000000" points="570.1664,-304.9384 559.3473,-303.1501 565.3332,-306.2192 560.5,-307.5 560.5,-307.5 560.5,-307.5 565.3332,-306.2192 561.6527,-311.8499 570.1664,-304.9384 570.1664,-304.9384"/>
</g>
</g>
</svg>
