<?xml version="1.0" encoding="UTF-8" standalone="no"?>
<!DOCTYPE svg PUBLIC "-//W3C//DTD SVG 1.1//EN"
 "http://www.w3.org/Graphics/SVG/1.1/DTD/svg11.dtd">
<!-- Generated by graphviz version 12.1.2 (20240928.0832)
 -->
<!-- Title: BrowserFeatureSupportEvents Pages: 1 -->
<svg width="1779pt" height="694pt"
 viewBox="0.00 0.00 1779.20 694.40" xmlns="http://www.w3.org/2000/svg" xmlns:xlink="http://www.w3.org/1999/xlink">
<g id="graph0" class="graph" transform="scale(1 1) rotate(0) translate(4 690.4)">
<title>BrowserFeatureSupportEvents</title>
<polygon fill="white" stroke="none" points="-4,4 -4,-690.4 1775.2,-690.4 1775.2,4 -4,4"/>
<!-- BrowserFeatureSupportEvents -->
<g id="node1" class="node">
<title>BrowserFeatureSupportEvents</title>
<polygon fill="#efefef" stroke="none" points="985.34,-604.6 985.34,-640.2 1349.45,-640.2 1349.45,-604.6 985.34,-604.6"/>
<polygon fill="none" stroke="black" points="985.34,-604.6 985.34,-640.2 1349.45,-640.2 1349.45,-604.6 985.34,-604.6"/>
<text text-anchor="start" x="992.34" y="-618" font-family="Arial Bold" font-size="18.00">BrowserFeatureSupportEvents</text>
<text text-anchor="start" x="1213.3" y="-618" font-family="Arial" font-size="14.00">    </text>
<text text-anchor="start" x="1244.42" y="-618" font-family="Arial" font-size="14.00" fill="#666666">[BASIC TABLE]</text>
<polygon fill="none" stroke="black" points="985.34,-573.8 985.34,-604.6 1349.45,-604.6 1349.45,-573.8 985.34,-573.8"/>
<text text-anchor="start" x="992.34" y="-586" font-family="Arial" font-size="14.00">TargetBrowserName </text>
<text text-anchor="start" x="1125.38" y="-586" font-family="Arial" font-size="14.00" fill="#666666">[STRING(64)]</text>
<polygon fill="none" stroke="black" points="985.34,-543 985.34,-573.8 1349.45,-573.8 1349.45,-543 985.34,-543"/>
<text text-anchor="start" x="992.34" y="-555.2" font-family="Arial" font-size="14.00">EventBrowserName </text>
<text text-anchor="start" x="1120.72" y="-555.2" font-family="Arial" font-size="14.00" fill="#666666">[STRING(64)]</text>
<polygon fill="none" stroke="black" points="985.34,-512.2 985.34,-543 1349.45,-543 1349.45,-512.2 985.34,-512.2"/>
<text text-anchor="start" x="992.34" y="-524.4" font-family="Arial" font-size="14.00">EventReleaseDate </text>
<text text-anchor="start" x="1112.97" y="-524.4" font-family="Arial" font-size="14.00" fill="#666666">[TIMESTAMP]</text>
<polygon fill="none" stroke="black" points="985.34,-481.4 985.34,-512.2 1349.45,-512.2 1349.45,-481.4 985.34,-481.4"/>
<text text-anchor="start" x="992.34" y="-493.6" font-family="Arial" font-size="14.00">WebFeatureID </text>
<text text-anchor="start" x="1087.27" y="-493.6" font-family="Arial" font-size="14.00" fill="#666666">[STRING(36)]</text>
<polygon fill="none" stroke="black" points="985.34,-450.6 985.34,-481.4 1349.45,-481.4 1349.45,-450.6 985.34,-450.6"/>
<text text-anchor="start" x="992.34" y="-462.8" font-family="Arial" font-size="14.00">SupportStatus </text>
<text text-anchor="start" x="1084.96" y="-462.8" font-family="Arial" font-size="14.00" fill="#666666">[STRING(32)]</text>
<polygon fill="none" stroke="black" stroke-width="3" points="983.84,-449.1 983.84,-641.7 1350.95,-641.7 1350.95,-449.1 983.84,-449.1"/>
</g>
<!-- BrowserReleases -->
<g id="node2" class="node">
<title>BrowserReleases</title>
<polygon fill="#efefef" stroke="none" points="848.84,-212.6 848.84,-248.2 1115.95,-248.2 1115.95,-212.6 848.84,-212.6"/>
<polygon fill="none" stroke="black" points="848.84,-212.6 848.84,-248.2 1115.95,-248.2 1115.95,-212.6 848.84,-212.6"/>
<text text-anchor="start" x="855.84" y="-226" font-family="Arial Bold" font-size="18.00">BrowserReleases</text>
<text text-anchor="start" x="979.8" y="-226" font-family="Arial" font-size="14.00">    </text>
<text text-anchor="start" x="1010.92" y="-226" font-family="Arial" font-size="14.00" fill="#666666">[BASIC TABLE]</text>
<polygon fill="none" stroke="black" points="848.84,-181.8 848.84,-212.6 1115.95,-212.6 1115.95,-181.8 848.84,-181.8"/>
<text text-anchor="start" x="855.84" y="-194" font-family="Arial" font-size="14.00">BrowserName </text>
<text text-anchor="start" x="948.42" y="-194" font-family="Arial" font-size="14.00" fill="#666666">[STRING(64)]</text>
<polygon fill="none" stroke="black" points="848.84,-151 848.84,-181.8 1115.95,-181.8 1115.95,-151 848.84,-151"/>
<text text-anchor="start" x="855.84" y="-163.2" font-family="Arial" font-size="14.00">BrowserVersion </text>
<text text-anchor="start" x="958.54" y="-163.2" font-family="Arial" font-size="14.00" fill="#666666">[STRING(8)]</text>
<polygon fill="none" stroke="black" points="848.84,-120.2 848.84,-151 1115.95,-151 1115.95,-120.2 848.84,-120.2"/>
<text text-anchor="start" x="855.84" y="-132.4" font-family="Arial" font-size="14.00">ReleaseDate </text>
<text text-anchor="start" x="940.67" y="-132.4" font-family="Arial" font-size="14.00" fill="#666666">[TIMESTAMP]</text>
</g>
<!-- BrowserFeatureSupportEvents&#45;&gt;BrowserReleases -->
<g id="edge1" class="edge">
<title>BrowserFeatureSupportEvents:EventBrowserName&#45;&gt;BrowserReleases:BrowserName</title>
<path fill="none" stroke="black" d="M974.07,-557.6C920.32,-548.44 958.25,-463.16 985.34,-404.4 1017.48,-334.69 1083.67,-361.04 1115.95,-291.4 1133.56,-253.41 1158.82,-197.2 1116.95,-197.2"/>
<polygon fill="black" stroke="black" points="974.04,-557.59 983.66,-562.86 979.36,-558.01 983.67,-558.35 983.67,-558.35 983.67,-558.35 979.36,-558.01 984.36,-553.89 974.04,-557.59"/>
<text text-anchor="start" x="7" y="-568.4" font-family="Arial" font-size="10.00">FOREIGN KEY (EventBrowserName, EventBrowserName, EventReleaseDate, EventReleaseDate) REFERENCES BrowserReleases (BrowserName, ReleaseDate, ReleaseDate, BrowserName) ON DELETE CASCADE</text>
</g>
<!-- WebFeatures -->
<g id="node3" class="node">
<title>WebFeatures</title>
<polygon fill="#efefef" stroke="none" points="1220.53,-289.6 1220.53,-325.2 1484.26,-325.2 1484.26,-289.6 1220.53,-289.6"/>
<polygon fill="none" stroke="black" points="1220.53,-289.6 1220.53,-325.2 1484.26,-325.2 1484.26,-289.6 1220.53,-289.6"/>
<text text-anchor="start" x="1240.34" y="-303" font-family="Arial Bold" font-size="18.00">WebFeatures</text>
<text text-anchor="start" x="1335.3" y="-303" font-family="Arial" font-size="14.00">    </text>
<text text-anchor="start" x="1366.42" y="-303" font-family="Arial" font-size="14.00" fill="#666666">[BASIC TABLE]</text>
<polygon fill="none" stroke="black" points="1220.53,-258.8 1220.53,-289.6 1484.26,-289.6 1484.26,-258.8 1220.53,-258.8"/>
<text text-anchor="start" x="1227.53" y="-271" font-family="Arial" font-size="14.00">ID </text>
<text text-anchor="start" x="1245.42" y="-271" font-family="Arial" font-size="14.00" fill="#666666">[STRING(36)]</text>
<polygon fill="none" stroke="black" points="1220.53,-228 1220.53,-258.8 1484.26,-258.8 1484.26,-228 1220.53,-228"/>
<text text-anchor="start" x="1227.53" y="-240.2" font-family="Arial" font-size="14.00">FeatureKey </text>
<text text-anchor="start" x="1303.79" y="-240.2" font-family="Arial" font-size="14.00" fill="#666666">[STRING(64)]</text>
<polygon fill="none" stroke="black" points="1220.53,-197.2 1220.53,-228 1484.26,-228 1484.26,-197.2 1220.53,-197.2"/>
<text text-anchor="start" x="1227.53" y="-209.4" font-family="Arial" font-size="14.00">Name </text>
<text text-anchor="start" x="1268.76" y="-209.4" font-family="Arial" font-size="14.00" fill="#666666">[STRING(64)]</text>
<polygon fill="none" stroke="black" points="1220.53,-166.4 1220.53,-197.2 1484.26,-197.2 1484.26,-166.4 1220.53,-166.4"/>
<text text-anchor="start" x="1227.53" y="-178.6" font-family="Arial" font-size="14.00">FeatureKey_Lowercase </text>
<text text-anchor="start" x="1379.28" y="-178.6" font-family="Arial" font-size="14.00" fill="#666666">[STRING(64)]</text>
<polygon fill="none" stroke="black" points="1220.53,-135.6 1220.53,-166.4 1484.26,-166.4 1484.26,-135.6 1220.53,-135.6"/>
<text text-anchor="start" x="1227.53" y="-147.8" font-family="Arial" font-size="14.00">Name_Lowercase </text>
<text text-anchor="start" x="1344.25" y="-147.8" font-family="Arial" font-size="14.00" fill="#666666">[STRING(64)]</text>
<polygon fill="none" stroke="black" points="1220.53,-104.8 1220.53,-135.6 1484.26,-135.6 1484.26,-104.8 1220.53,-104.8"/>
<text text-anchor="start" x="1227.53" y="-117" font-family="Arial" font-size="14.00">Description </text>
<text text-anchor="start" x="1301.44" y="-117" font-family="Arial" font-size="14.00" fill="#666666">[STRING(MAX)]</text>
<polygon fill="none" stroke="black" points="1220.53,-74 1220.53,-104.8 1484.26,-104.8 1484.26,-74 1220.53,-74"/>
<text text-anchor="start" x="1227.53" y="-86.2" font-family="Arial" font-size="14.00">DescriptionHtml </text>
<text text-anchor="start" x="1330.22" y="-86.2" font-family="Arial" font-size="14.00" fill="#666666">[STRING(MAX)]</text>
<polygon fill="none" stroke="black" points="1220.53,-43.2 1220.53,-74 1484.26,-74 1484.26,-43.2 1220.53,-43.2"/>
<text text-anchor="start" x="1227.53" y="-55.4" font-family="Arial" font-size="14.00">Description_Lowercase </text>
<text text-anchor="start" x="1376.93" y="-55.4" font-family="Arial" font-size="14.00" fill="#666666">[STRING(MAX)]</text>
</g>
<!-- BrowserFeatureSupportEvents&#45;&gt;WebFeatures -->
<g id="edge2" class="edge">
<title>BrowserFeatureSupportEvents:WebFeatureID&#45;&gt;WebFeatures:ID</title>
<path fill="none" stroke="black" d="M1360.51,-495.29C1388.25,-485.82 1372.11,-433.92 1349.45,-404.4 1313.23,-357.21 1256.75,-415.6 1220.53,-368.4 1195.04,-335.18 1177.66,-274.2 1219.53,-274.2"/>
<polygon fill="black" stroke="black" points="1360.67,-495.27 1350.11,-492.3 1355.4,-496.06 1351.11,-496.7 1351.11,-496.7 1351.11,-496.7 1355.4,-496.06 1351.45,-501.2 1360.67,-495.27"/>
<text text-anchor="start" x="1357.45" y="-506.8" font-family="Arial" font-size="10.00">FOREIGN KEY (WebFeatureID) REFERENCES WebFeatures (ID) ON DELETE CASCADE</text>
</g>
</g>
</svg>
