<?xml version="1.0" encoding="UTF-8" standalone="no"?>
<!DOCTYPE svg PUBLIC "-//W3C//DTD SVG 1.1//EN"
 "http://www.w3.org/Graphics/SVG/1.1/DTD/svg11.dtd">
<!-- Generated by graphviz version 12.1.2 (20240928.0832)
 -->
<!-- Title: ChromiumHistogramEnumValues Pages: 1 -->
<svg width="1887pt" height="791pt"
 viewBox="0.00 0.00 1886.83 790.80" xmlns="http://www.w3.org/2000/svg" xmlns:xlink="http://www.w3.org/1999/xlink">
<g id="graph0" class="graph" transform="scale(1 1) rotate(0) translate(4 786.8)">
<title>ChromiumHistogramEnumValues</title>
<polygon fill="white" stroke="none" points="-4,4 -4,-786.8 1882.83,-786.8 1882.83,4 -4,4"/>
<!-- ChromiumHistogramEnumValues -->
<g id="node1" class="node">
<title>ChromiumHistogramEnumValues</title>
<polygon fill="#efefef" stroke="none" points="744.36,-450.6 744.36,-486.2 1134.48,-486.2 1134.48,-450.6 744.36,-450.6"/>
<polygon fill="none" stroke="black" points="744.36,-450.6 744.36,-486.2 1134.48,-486.2 1134.48,-450.6 744.36,-450.6"/>
<text text-anchor="start" x="751.36" y="-464" font-family="Arial Bold" font-size="18.00">ChromiumHistogramEnumValues</text>
<text text-anchor="start" x="998.33" y="-464" font-family="Arial" font-size="14.00">    </text>
<text text-anchor="start" x="1029.45" y="-464" font-family="Arial" font-size="14.00" fill="#666666">[BASIC TABLE]</text>
<polygon fill="none" stroke="black" points="744.36,-419.8 744.36,-450.6 1134.48,-450.6 1134.48,-419.8 744.36,-419.8"/>
<text text-anchor="start" x="751.36" y="-432" font-family="Arial" font-size="14.00">ID </text>
<text text-anchor="start" x="769.25" y="-432" font-family="Arial" font-size="14.00" fill="#666666">[STRING(36)]</text>
<polygon fill="none" stroke="black" points="744.36,-389 744.36,-419.8 1134.48,-419.8 1134.48,-389 744.36,-389"/>
<text text-anchor="start" x="751.36" y="-401.2" font-family="Arial" font-size="14.00">ChromiumHistogramEnumID </text>
<text text-anchor="start" x="934.18" y="-401.2" font-family="Arial" font-size="14.00" fill="#666666">[STRING(36)]</text>
<polygon fill="none" stroke="black" points="744.36,-358.2 744.36,-389 1134.48,-389 1134.48,-358.2 744.36,-358.2"/>
<text text-anchor="start" x="751.36" y="-370.4" font-family="Arial" font-size="14.00">BucketID </text>
<text text-anchor="start" x="812.05" y="-370.4" font-family="Arial" font-size="14.00" fill="#666666">[INT64]</text>
<polygon fill="none" stroke="black" points="744.36,-327.4 744.36,-358.2 1134.48,-358.2 1134.48,-327.4 744.36,-327.4"/>
<text text-anchor="start" x="751.36" y="-339.6" font-family="Arial" font-size="14.00">Label </text>
<text text-anchor="start" x="789.5" y="-339.6" font-family="Arial" font-size="14.00" fill="#666666">[STRING(MAX)]</text>
<polygon fill="none" stroke="black" points="744.36,-296.6 744.36,-327.4 1134.48,-327.4 1134.48,-296.6 744.36,-296.6"/>
<text text-anchor="start" x="751.36" y="-308.8" font-family="Arial" font-size="14.00">Label_Lowercase </text>
<text text-anchor="start" x="864.99" y="-308.8" font-family="Arial" font-size="14.00" fill="#666666">[STRING(64)]</text>
<polygon fill="none" stroke="black" stroke-width="3" points="742.86,-295.1 742.86,-487.7 1135.98,-487.7 1135.98,-295.1 742.86,-295.1"/>
</g>
<!-- ChromiumHistogramEnums -->
<g id="node5" class="node">
<title>ChromiumHistogramEnums</title>
<polygon fill="#efefef" stroke="none" points="765.85,-135.6 765.85,-171.2 1112.99,-171.2 1112.99,-135.6 765.85,-135.6"/>
<polygon fill="none" stroke="black" points="765.85,-135.6 765.85,-171.2 1112.99,-171.2 1112.99,-135.6 765.85,-135.6"/>
<text text-anchor="start" x="772.85" y="-149" font-family="Arial Bold" font-size="18.00">ChromiumHistogramEnums</text>
<text text-anchor="start" x="976.84" y="-149" font-family="Arial" font-size="14.00">    </text>
<text text-anchor="start" x="1007.96" y="-149" font-family="Arial" font-size="14.00" fill="#666666">[BASIC TABLE]</text>
<polygon fill="none" stroke="black" points="765.85,-104.8 765.85,-135.6 1112.99,-135.6 1112.99,-104.8 765.85,-104.8"/>
<text text-anchor="start" x="772.85" y="-117" font-family="Arial" font-size="14.00">ID </text>
<text text-anchor="start" x="790.74" y="-117" font-family="Arial" font-size="14.00" fill="#666666">[STRING(36)]</text>
<polygon fill="none" stroke="black" points="765.85,-74 765.85,-104.8 1112.99,-104.8 1112.99,-74 765.85,-74"/>
<text text-anchor="start" x="772.85" y="-86.2" font-family="Arial" font-size="14.00">HistogramName </text>
<text text-anchor="start" x="877.88" y="-86.2" font-family="Arial" font-size="14.00" fill="#666666">[STRING(MAX)]</text>
<polygon fill="none" stroke="black" points="765.85,-43.2 765.85,-74 1112.99,-74 1112.99,-43.2 765.85,-43.2"/>
<text text-anchor="start" x="772.85" y="-55.4" font-family="Arial" font-size="14.00">HistogramName_Lowercase </text>
<text text-anchor="start" x="953.37" y="-55.4" font-family="Arial" font-size="14.00" fill="#666666">[STRING(64)]</text>
</g>
<!-- ChromiumHistogramEnumValues&#45;&gt;ChromiumHistogramEnums -->
<g id="edge4" class="edge">
<title>ChromiumHistogramEnumValues:ChromiumHistogramEnumID&#45;&gt;ChromiumHistogramEnums:ID</title>
<path fill="none" stroke="black" d="M1145.89,-403.73C1260.85,-388.53 1237.08,-120.2 1113.99,-120.2"/>
<polygon fill="black" stroke="black" points="1145.8,-403.74 1135.53,-399.89 1140.47,-404.08 1136.15,-404.36 1136.15,-404.36 1136.15,-404.36 1140.47,-404.08 1136.11,-408.87 1145.8,-403.74"/>
<text text-anchor="start" x="1142.48" y="-414.4" font-family="Arial" font-size="10.00">FOREIGN KEY (ChromiumHistogramEnumID) REFERENCES ChromiumHistogramEnums (ID) ON DELETE CASCADE</text>
</g>
<!-- LatestDailyChromiumHistogramMetrics -->
<g id="node2" class="node">
<title>LatestDailyChromiumHistogramMetrics</title>
<polygon fill="#efefef" stroke="none" points="160.37,-704 160.37,-739.6 596.47,-739.6 596.47,-704 160.37,-704"/>
<polygon fill="none" stroke="black" points="160.37,-704 160.37,-739.6 596.47,-739.6 596.47,-704 160.37,-704"/>
<text text-anchor="start" x="167.37" y="-717.4" font-family="Arial Bold" font-size="18.00">LatestDailyChromiumHistogramMetrics</text>
<text text-anchor="start" x="460.32" y="-717.4" font-family="Arial" font-size="14.00">    </text>
<text text-anchor="start" x="491.44" y="-717.4" font-family="Arial" font-size="14.00" fill="#666666">[BASIC TABLE]</text>
<polygon fill="none" stroke="black" points="160.37,-673.2 160.37,-704 596.47,-704 596.47,-673.2 160.37,-673.2"/>
<text text-anchor="start" x="167.37" y="-685.4" font-family="Arial" font-size="14.00">WebFeatureID </text>
<text text-anchor="start" x="262.3" y="-685.4" font-family="Arial" font-size="14.00" fill="#666666">[STRING(36)]</text>
<polygon fill="none" stroke="black" points="160.37,-642.4 160.37,-673.2 596.47,-673.2 596.47,-642.4 160.37,-642.4"/>
<text text-anchor="start" x="167.37" y="-654.6" font-family="Arial" font-size="14.00">ChromiumHistogramEnumValueID </text>
<text text-anchor="start" x="386" y="-654.6" font-family="Arial" font-size="14.00" fill="#666666">[STRING(36)]</text>
<polygon fill="none" stroke="black" points="160.37,-611.6 160.37,-642.4 596.47,-642.4 596.47,-611.6 160.37,-611.6"/>
<text text-anchor="start" x="167.37" y="-623.8" font-family="Arial" font-size="14.00">Day </text>
<text text-anchor="start" x="196.16" y="-623.8" font-family="Arial" font-size="14.00" fill="#666666">[DATE]</text>
</g>
<!-- LatestDailyChromiumHistogramMetrics&#45;&gt;ChromiumHistogramEnumValues -->
<g id="edge1" class="edge">
<title>LatestDailyChromiumHistogramMetrics:ChromiumHistogramEnumValueID&#45;&gt;ChromiumHistogramEnumValues:ID</title>
<path fill="none" stroke="black" d="M607.47,-656.81C640.32,-649.54 625.82,-603.78 648.42,-568.4 687.57,-507.14 670.66,-435.2 743.36,-435.2"/>
<polygon fill="black" stroke="black" points="607.76,-656.78 597.36,-653.29 602.45,-657.31 598.14,-657.73 598.14,-657.73 598.14,-657.73 602.45,-657.31 598.25,-662.25 607.76,-656.78"/>
<text text-anchor="start" x="7" y="-667.8" font-family="Arial" font-size="10.00">FOREIGN KEY (ChromiumHistogramEnumValueID) REFERENCES ChromiumHistogramEnumValues (ID) ON DELETE CASCADE</text>
</g>
<!-- WebFeatureChromiumHistogramEnumValues -->
<g id="node3" class="node">
<title>WebFeatureChromiumHistogramEnumValues</title>
<polygon fill="#efefef" stroke="none" points="700.38,-688.6 700.38,-724.2 1178.46,-724.2 1178.46,-688.6 700.38,-688.6"/>
<polygon fill="none" stroke="black" points="700.38,-688.6 700.38,-724.2 1178.46,-724.2 1178.46,-688.6 700.38,-688.6"/>
<text text-anchor="start" x="707.38" y="-702" font-family="Arial Bold" font-size="18.00">WebFeatureChromiumHistogramEnumValues</text>
<text text-anchor="start" x="1042.31" y="-702" font-family="Arial" font-size="14.00">    </text>
<text text-anchor="start" x="1073.43" y="-702" font-family="Arial" font-size="14.00" fill="#666666">[BASIC TABLE]</text>
<polygon fill="none" stroke="black" points="700.38,-657.8 700.38,-688.6 1178.46,-688.6 1178.46,-657.8 700.38,-657.8"/>
<text text-anchor="start" x="707.38" y="-670" font-family="Arial" font-size="14.00">WebFeatureID </text>
<text text-anchor="start" x="802.31" y="-670" font-family="Arial" font-size="14.00" fill="#666666">[STRING(36)]</text>
<polygon fill="none" stroke="black" points="700.38,-627 700.38,-657.8 1178.46,-657.8 1178.46,-627 700.38,-627"/>
<text text-anchor="start" x="707.38" y="-639.2" font-family="Arial" font-size="14.00">ChromiumHistogramEnumValueID </text>
<text text-anchor="start" x="926.01" y="-639.2" font-family="Arial" font-size="14.00" fill="#666666">[STRING(36)]</text>
</g>
<!-- WebFeatureChromiumHistogramEnumValues&#45;&gt;ChromiumHistogramEnumValues -->
<g id="edge2" class="edge">
<title>WebFeatureChromiumHistogramEnumValues:ChromiumHistogramEnumValueID&#45;&gt;ChromiumHistogramEnumValues:ID</title>
<path fill="none" stroke="black" d="M940,-616.02C949.94,-535.83 1084.77,-610.51 1134.48,-532.4 1157.68,-495.95 1178.69,-435.2 1135.48,-435.2"/>
<polygon fill="black" stroke="black" points="940.02,-615.68 934.95,-625.4 939.71,-621.01 939.46,-625.33 939.46,-625.33 939.46,-625.33 939.71,-621.01 943.93,-625.93 940.02,-615.68"/>
<text text-anchor="start" x="647.69" y="-610" font-family="Arial" font-size="10.00">FOREIGN KEY (ChromiumHistogramEnumValueID) REFERENCES ChromiumHistogramEnumValues (ID) ON DELETE CASCADE</text>
</g>
<!-- DailyChromiumHistogramMetrics -->
<g id="node4" class="node">
<title>DailyChromiumHistogramMetrics</title>
<polygon fill="#efefef" stroke="none" points="1282.36,-704 1282.36,-739.6 1674.48,-739.6 1674.48,-704 1282.36,-704"/>
<polygon fill="none" stroke="black" points="1282.36,-704 1282.36,-739.6 1674.48,-739.6 1674.48,-704 1282.36,-704"/>
<text text-anchor="start" x="1289.36" y="-717.4" font-family="Arial Bold" font-size="18.00">DailyChromiumHistogramMetrics</text>
<text text-anchor="start" x="1538.33" y="-717.4" font-family="Arial" font-size="14.00">    </text>
<text text-anchor="start" x="1569.45" y="-717.4" font-family="Arial" font-size="14.00" fill="#666666">[BASIC TABLE]</text>
<polygon fill="none" stroke="black" points="1282.36,-673.2 1282.36,-704 1674.48,-704 1674.48,-673.2 1282.36,-673.2"/>
<text text-anchor="start" x="1289.36" y="-685.4" font-family="Arial" font-size="14.00">ChromiumHistogramEnumValueID </text>
<text text-anchor="start" x="1507.99" y="-685.4" font-family="Arial" font-size="14.00" fill="#666666">[STRING(36)]</text>
<polygon fill="none" stroke="black" points="1282.36,-642.4 1282.36,-673.2 1674.48,-673.2 1674.48,-642.4 1282.36,-642.4"/>
<text text-anchor="start" x="1289.36" y="-654.6" font-family="Arial" font-size="14.00">Day </text>
<text text-anchor="start" x="1318.15" y="-654.6" font-family="Arial" font-size="14.00" fill="#666666">[DATE]</text>
<polygon fill="none" stroke="black" points="1282.36,-611.6 1282.36,-642.4 1674.48,-642.4 1674.48,-611.6 1282.36,-611.6"/>
<text text-anchor="start" x="1289.36" y="-623.8" font-family="Arial" font-size="14.00">Rate </text>
<text text-anchor="start" x="1322.82" y="-623.8" font-family="Arial" font-size="14.00" fill="#666666">[NUMERIC]</text>
</g>
<!-- DailyChromiumHistogramMetrics&#45;&gt;ChromiumHistogramEnumValues -->
<g id="edge3" class="edge">
<title>DailyChromiumHistogramMetrics:ChromiumHistogramEnumValueID&#45;&gt;ChromiumHistogramEnumValues:ID</title>
<path fill="none" stroke="black" d="M1270.99,-687.71C1227.76,-679.44 1256.87,-615.67 1230.42,-568.4 1194.93,-504.95 1208.18,-435.2 1135.48,-435.2"/>
<polygon fill="black" stroke="black" points="1271.07,-687.71 1280.64,-693.05 1276.38,-688.17 1280.7,-688.54 1280.7,-688.54 1280.7,-688.54 1276.38,-688.17 1281.42,-684.09 1271.07,-687.71"/>
<text text-anchor="start" x="1288.36" y="-698.6" font-family="Arial" font-size="10.00">FOREIGN KEY (ChromiumHistogramEnumValueID) REFERENCES ChromiumHistogramEnumValues (ID) ON DELETE CASCADE</text>
</g>
</g>
</svg>
