<?xml version="1.0" encoding="UTF-8" standalone="no"?>
<!DOCTYPE svg PUBLIC "-//W3C//DTD SVG 1.1//EN"
 "http://www.w3.org/Graphics/SVG/1.1/DTD/svg11.dtd">
<!-- Generated by graphviz version 2.40.1 (20161225.0304)
 -->
<!-- Title: ChromiumHistogramEnumValues Pages: 1 -->
<svg width="1120pt" height="779pt"
 viewBox="0.00 0.00 1119.50 779.00" xmlns="http://www.w3.org/2000/svg" xmlns:xlink="http://www.w3.org/1999/xlink">
<g id="graph0" class="graph" transform="scale(1 1) rotate(0) translate(4 775)">
<title>ChromiumHistogramEnumValues</title>
<polygon fill="#ffffff" stroke="transparent" points="-4,4 -4,-775 1115.5,-775 1115.5,4 -4,4"/>
<!-- ChromiumHistogramEnumValues -->
<g id="node1" class="node">
<title>ChromiumHistogramEnumValues</title>
<polygon fill="#efefef" stroke="transparent" points="375,-442.5 375,-477.5 788,-477.5 788,-442.5 375,-442.5"/>
<polygon fill="none" stroke="#000000" points="375,-442.5 375,-477.5 788,-477.5 788,-442.5 375,-442.5"/>
<text text-anchor="start" x="381.8842" y="-455.3" font-family="Arial Bold" font-size="18.00" fill="#000000">ChromiumHistogramEnumValues</text>
<text text-anchor="start" x="648.8872" y="-455.3" font-family="Arial" font-size="14.00" fill="#000000">    </text>
<text text-anchor="start" x="683.092" y="-455.3" font-family="Arial" font-size="14.00" fill="#666666">[BASIC TABLE]</text>
<polygon fill="none" stroke="#000000" points="375,-412.5 375,-442.5 788,-442.5 788,-412.5 375,-412.5"/>
<text text-anchor="start" x="382" y="-423.9" font-family="Arial" font-size="14.00" fill="#000000">ID </text>
<text text-anchor="start" x="399.8878" y="-423.9" font-family="Arial" font-size="14.00" fill="#666666">[STRING(36)]</text>
<polygon fill="none" stroke="#000000" points="375,-382.5 375,-412.5 788,-412.5 788,-382.5 375,-382.5"/>
<text text-anchor="start" x="382" y="-393.9" font-family="Arial" font-size="14.00" fill="#000000">ChromiumHistogramEnumID </text>
<text text-anchor="start" x="564.7658" y="-393.9" font-family="Arial" font-size="14.00" fill="#666666">[STRING(36)]</text>
<polygon fill="none" stroke="#000000" points="375,-352.5 375,-382.5 788,-382.5 788,-352.5 375,-352.5"/>
<text text-anchor="start" x="382" y="-363.9" font-family="Arial" font-size="14.00" fill="#000000">BucketID </text>
<text text-anchor="start" x="442.6802" y="-363.9" font-family="Arial" font-size="14.00" fill="#666666">[INT64]</text>
<polygon fill="none" stroke="#000000" points="375,-322.5 375,-352.5 788,-352.5 788,-322.5 375,-322.5"/>
<text text-anchor="start" x="382" y="-333.9" font-family="Arial" font-size="14.00" fill="#000000">Label </text>
<text text-anchor="start" x="420.1276" y="-333.9" font-family="Arial" font-size="14.00" fill="#666666">[STRING(MAX)]</text>
<polygon fill="none" stroke="#000000" points="375,-292.5 375,-322.5 788,-322.5 788,-292.5 375,-292.5"/>
<text text-anchor="start" x="382" y="-303.9" font-family="Arial" font-size="14.00" fill="#000000">Label_Lowercase </text>
<text text-anchor="start" x="495.5904" y="-303.9" font-family="Arial" font-size="14.00" fill="#666666">[STRING(64)]</text>
<polygon fill="none" stroke="#000000" stroke-width="3" points="373,-291.5 373,-479.5 789,-479.5 789,-291.5 373,-291.5"/>
</g>
<!-- ChromiumHistogramEnums -->
<g id="node4" class="node">
<title>ChromiumHistogramEnums</title>
<polygon fill="#efefef" stroke="transparent" points="398,-132.5 398,-167.5 765,-167.5 765,-132.5 398,-132.5"/>
<polygon fill="none" stroke="#000000" points="398,-132.5 398,-167.5 765,-167.5 765,-132.5 398,-132.5"/>
<text text-anchor="start" x="404.8927" y="-145.3" font-family="Arial Bold" font-size="18.00" fill="#000000">ChromiumHistogramEnums</text>
<text text-anchor="start" x="625.8787" y="-145.3" font-family="Arial" font-size="14.00" fill="#000000">    </text>
<text text-anchor="start" x="660.0835" y="-145.3" font-family="Arial" font-size="14.00" fill="#666666">[BASIC TABLE]</text>
<polygon fill="none" stroke="#000000" points="398,-102.5 398,-132.5 765,-132.5 765,-102.5 398,-102.5"/>
<text text-anchor="start" x="405" y="-113.9" font-family="Arial" font-size="14.00" fill="#000000">ID    </text>
<text text-anchor="start" x="453.202" y="-113.9" font-family="Arial" font-size="14.00" fill="#666666">[STRING(36)]</text>
<polygon fill="none" stroke="#000000" points="398,-72.5 398,-102.5 765,-102.5 765,-72.5 398,-72.5"/>
<text text-anchor="start" x="405" y="-83.9" font-family="Arial" font-size="14.00" fill="#000000">HistogramName    </text>
<text text-anchor="start" x="540.31" y="-83.9" font-family="Arial" font-size="14.00" fill="#666666">[STRING(MAX)]</text>
<polygon fill="none" stroke="#000000" points="398,-42.5 398,-72.5 765,-72.5 765,-42.5 398,-42.5"/>
<text text-anchor="start" x="405" y="-53.9" font-family="Arial" font-size="14.00" fill="#000000">HistogramName_Lowercase    </text>
<text text-anchor="start" x="615.7728" y="-53.9" font-family="Arial" font-size="14.00" fill="#666666">[STRING(64)]</text>
</g>
<!-- ChromiumHistogramEnumValues&#45;&gt;ChromiumHistogramEnums -->
<g id="edge3" class="edge">
<title>ChromiumHistogramEnumValues:ChromiumHistogramEnumID&#45;&gt;ChromiumHistogramEnums:ID</title>
<path fill="none" stroke="#000000" stroke-dasharray="5,2" d="M364.7462,-396.839C251.5209,-381.8652 276.6726,-117.5 398,-117.5"/>
<polygon fill="#000000" stroke="#000000" points="365.0207,-396.8566 374.7105,-401.9907 370.0104,-397.1783 375,-397.5 375,-397.5 375,-397.5 370.0104,-397.1783 375.2895,-393.0093 365.0207,-396.8566 365.0207,-396.8566"/>
</g>
<!-- WebFeatureChromiumHistogramEnumValues -->
<g id="node2" class="node">
<title>WebFeatureChromiumHistogramEnumValues</title>
<polygon fill="#efefef" stroke="transparent" points="43,-677.5 43,-712.5 555,-712.5 555,-677.5 43,-677.5"/>
<polygon fill="none" stroke="#000000" points="43,-677.5 43,-712.5 555,-712.5 555,-677.5 43,-677.5"/>
<text text-anchor="start" x="49.8752" y="-690.3" font-family="Arial Bold" font-size="18.00" fill="#000000">WebFeatureChromiumHistogramEnumValues</text>
<text text-anchor="start" x="415.8962" y="-690.3" font-family="Arial" font-size="14.00" fill="#000000">    </text>
<text text-anchor="start" x="450.101" y="-690.3" font-family="Arial" font-size="14.00" fill="#666666">[BASIC TABLE]</text>
<polygon fill="none" stroke="#000000" points="43,-647.5 43,-677.5 555,-677.5 555,-647.5 43,-647.5"/>
<text text-anchor="start" x="50" y="-658.9" font-family="Arial" font-size="14.00" fill="#000000">WebFeatureID    </text>
<text text-anchor="start" x="175.216" y="-658.9" font-family="Arial" font-size="14.00" fill="#666666">[STRING(36)]</text>
<polygon fill="none" stroke="#000000" points="43,-617.5 43,-647.5 555,-647.5 555,-617.5 43,-617.5"/>
<text text-anchor="start" x="50" y="-628.9" font-family="Arial" font-size="14.00" fill="#000000">ChromiumHistogramEnumValueID    </text>
<text text-anchor="start" x="298.871" y="-628.9" font-family="Arial" font-size="14.00" fill="#666666">[STRING(36)]</text>
</g>
<!-- WebFeatureChromiumHistogramEnumValues&#45;&gt;ChromiumHistogramEnumValues -->
<g id="edge1" class="edge">
<title>WebFeatureChromiumHistogramEnumValues:ChromiumHistogramEnumValueID&#45;&gt;ChromiumHistogramEnumValues:ID</title>
<path fill="none" stroke="#000000" stroke-dasharray="5,2" d="M564.8298,-629.7408C577.0854,-620.772 567.8834,-592.0408 555,-575 504.8549,-508.6732 425.1451,-590.3268 375,-524 349.1348,-489.7882 332.1111,-427.5 375,-427.5"/>
<polygon fill="#000000" stroke="#000000" points="564.6279,-629.7974 553.7838,-628.1674 559.8139,-631.1487 555,-632.5 555,-632.5 555,-632.5 559.8139,-631.1487 556.2162,-636.8326 564.6279,-629.7974 564.6279,-629.7974"/>
</g>
<!-- DailyChromiumHistogramMetrics -->
<g id="node3" class="node">
<title>DailyChromiumHistogramMetrics</title>
<polygon fill="#efefef" stroke="transparent" points="660,-692.5 660,-727.5 1069,-727.5 1069,-692.5 660,-692.5"/>
<polygon fill="none" stroke="#000000" points="660,-692.5 660,-727.5 1069,-727.5 1069,-692.5 660,-692.5"/>
<text text-anchor="start" x="666.9092" y="-705.3" font-family="Arial Bold" font-size="18.00" fill="#000000">DailyChromiumHistogramMetrics</text>
<text text-anchor="start" x="929.8622" y="-705.3" font-family="Arial" font-size="14.00" fill="#000000">    </text>
<text text-anchor="start" x="964.067" y="-705.3" font-family="Arial" font-size="14.00" fill="#666666">[BASIC TABLE]</text>
<polygon fill="none" stroke="#000000" points="660,-662.5 660,-692.5 1069,-692.5 1069,-662.5 660,-662.5"/>
<text text-anchor="start" x="667" y="-673.9" font-family="Arial" font-size="14.00" fill="#000000">ChromiumHistogramEnumValueID    </text>
<text text-anchor="start" x="915.871" y="-673.9" font-family="Arial" font-size="14.00" fill="#666666">[STRING(36)]</text>
<polygon fill="none" stroke="#000000" points="660,-632.5 660,-662.5 1069,-662.5 1069,-632.5 660,-632.5"/>
<text text-anchor="start" x="667" y="-643.9" font-family="Arial" font-size="14.00" fill="#000000">Day    </text>
<text text-anchor="start" x="726.094" y="-643.9" font-family="Arial" font-size="14.00" fill="#666666">[DATE]</text>
<polygon fill="none" stroke="#000000" points="660,-602.5 660,-632.5 1069,-632.5 1069,-602.5 660,-602.5"/>
<text text-anchor="start" x="667" y="-613.9" font-family="Arial" font-size="14.00" fill="#000000">Rate    </text>
<text text-anchor="start" x="730.7672" y="-613.9" font-family="Arial" font-size="14.00" fill="#666666">[NUMERIC]</text>
</g>
<!-- DailyChromiumHistogramMetrics&#45;&gt;ChromiumHistogramEnumValues -->
<g id="edge2" class="edge">
<title>DailyChromiumHistogramMetrics:ChromiumHistogramEnumValueID&#45;&gt;ChromiumHistogramEnumValues:ID</title>
<path fill="none" stroke="#000000" stroke-dasharray="5,2" d="M650.0442,-676.413C610.7407,-666.9996 630.6832,-598.6996 660,-560 695.6848,-512.8944 752.3152,-571.1056 788,-524 813.8982,-489.8131 830.8889,-427.5 788,-427.5"/>
<polygon fill="#000000" stroke="#000000" points="650.0591,-676.4145 659.5115,-681.9734 655.0295,-676.9572 660,-677.5 660,-677.5 660,-677.5 655.0295,-676.9572 660.4885,-673.0266 650.0591,-676.4145 650.0591,-676.4145"/>
</g>
</g>
</svg>
