<?xml version="1.0" encoding="UTF-8" standalone="no"?>
<!DOCTYPE svg PUBLIC "-//W3C//DTD SVG 1.1//EN"
 "http://www.w3.org/Graphics/SVG/1.1/DTD/svg11.dtd">
<!-- Generated by graphviz version 12.1.2 (20240928.0832)
 -->
<!-- Title: ChromiumHistogramEnums Pages: 1 -->
<svg width="1204pt" height="540pt"
 viewBox="0.00 0.00 1203.51 540.40" xmlns="http://www.w3.org/2000/svg" xmlns:xlink="http://www.w3.org/1999/xlink">
<g id="graph0" class="graph" transform="scale(1 1) rotate(0) translate(4 536.4)">
<title>ChromiumHistogramEnums</title>
<polygon fill="white" stroke="none" points="-4,4 -4,-536.4 1199.51,-536.4 1199.51,4 -4,4"/>
<!-- ChromiumHistogramEnums -->
<g id="node1" class="node">
<title>ChromiumHistogramEnums</title>
<polygon fill="#efefef" stroke="none" points="407.68,-138.6 407.68,-174.2 754.83,-174.2 754.83,-138.6 407.68,-138.6"/>
<polygon fill="none" stroke="black" points="407.68,-138.6 407.68,-174.2 754.83,-174.2 754.83,-138.6 407.68,-138.6"/>
<text text-anchor="start" x="414.68" y="-152" font-family="Arial Bold" font-size="18.00">ChromiumHistogramEnums</text>
<text text-anchor="start" x="618.68" y="-152" font-family="Arial" font-size="14.00">    </text>
<text text-anchor="start" x="649.79" y="-152" font-family="Arial" font-size="14.00" fill="#666666">[BASIC TABLE]</text>
<polygon fill="none" stroke="black" points="407.68,-107.8 407.68,-138.6 754.83,-138.6 754.83,-107.8 407.68,-107.8"/>
<text text-anchor="start" x="414.68" y="-120" font-family="Arial" font-size="14.00">ID </text>
<text text-anchor="start" x="432.57" y="-120" font-family="Arial" font-size="14.00" fill="#666666">[STRING(36)]</text>
<polygon fill="none" stroke="black" points="407.68,-77 407.68,-107.8 754.83,-107.8 754.83,-77 407.68,-77"/>
<text text-anchor="start" x="414.68" y="-89.2" font-family="Arial" font-size="14.00">HistogramName </text>
<text text-anchor="start" x="519.71" y="-89.2" font-family="Arial" font-size="14.00" fill="#666666">[STRING(MAX)]</text>
<polygon fill="none" stroke="black" points="407.68,-46.2 407.68,-77 754.83,-77 754.83,-46.2 407.68,-46.2"/>
<text text-anchor="start" x="414.68" y="-58.4" font-family="Arial" font-size="14.00">HistogramName_Lowercase </text>
<text text-anchor="start" x="595.2" y="-58.4" font-family="Arial" font-size="14.00" fill="#666666">[STRING(64)]</text>
<polygon fill="none" stroke="black" stroke-width="3" points="406.18,-44.7 406.18,-175.7 756.33,-175.7 756.33,-44.7 406.18,-44.7"/>
</g>
<!-- DailyChromiumHistogramEnumCapstones -->
<g id="node2" class="node">
<title>DailyChromiumHistogramEnumCapstones</title>
<polygon fill="#efefef" stroke="none" points="91.19,-407.4 91.19,-443 545.32,-443 545.32,-407.4 91.19,-407.4"/>
<polygon fill="none" stroke="black" points="91.19,-407.4 91.19,-443 545.32,-443 545.32,-407.4 91.19,-407.4"/>
<text text-anchor="start" x="98.19" y="-420.8" font-family="Arial Bold" font-size="18.00">DailyChromiumHistogramEnumCapstones</text>
<text text-anchor="start" x="409.17" y="-420.8" font-family="Arial" font-size="14.00">    </text>
<text text-anchor="start" x="440.29" y="-420.8" font-family="Arial" font-size="14.00" fill="#666666">[BASIC TABLE]</text>
<polygon fill="none" stroke="black" points="91.19,-376.6 91.19,-407.4 545.32,-407.4 545.32,-376.6 91.19,-376.6"/>
<text text-anchor="start" x="98.19" y="-388.8" font-family="Arial" font-size="14.00">ChromiumHistogramEnumID </text>
<text text-anchor="start" x="281.01" y="-388.8" font-family="Arial" font-size="14.00" fill="#666666">[STRING(36)]</text>
<polygon fill="none" stroke="black" points="91.19,-345.8 91.19,-376.6 545.32,-376.6 545.32,-345.8 91.19,-345.8"/>
<text text-anchor="start" x="98.19" y="-358" font-family="Arial" font-size="14.00">Day </text>
<text text-anchor="start" x="126.98" y="-358" font-family="Arial" font-size="14.00" fill="#666666">[DATE]</text>
</g>
<!-- DailyChromiumHistogramEnumCapstones&#45;&gt;ChromiumHistogramEnums -->
<g id="edge1" class="edge">
<title>DailyChromiumHistogramEnumCapstones:ChromiumHistogramEnumID&#45;&gt;ChromiumHistogramEnums:ID</title>
<path fill="none" stroke="black" d="M556.61,-390.38C581.82,-381.05 563.11,-333.55 545.32,-302.6 509.81,-240.83 443.17,-282.18 407.68,-220.4 386.17,-182.94 363.48,-123.2 406.68,-123.2"/>
<polygon fill="black" stroke="black" points="556.53,-390.39 545.95,-387.5 551.26,-391.22 546.98,-391.9 546.98,-391.9 546.98,-391.9 551.26,-391.22 547.35,-396.39 556.53,-390.39"/>
<text text-anchor="start" x="7" y="-402" font-family="Arial" font-size="10.00">FOREIGN KEY (ChromiumHistogramEnumID) REFERENCES ChromiumHistogramEnums (ID) ON DELETE CASCADE</text>
</g>
<!-- ChromiumHistogramEnumValues -->
<g id="node3" class="node">
<title>ChromiumHistogramEnumValues</title>
<polygon fill="#efefef" stroke="none" points="650.19,-453.6 650.19,-489.2 1040.32,-489.2 1040.32,-453.6 650.19,-453.6"/>
<polygon fill="none" stroke="black" points="650.19,-453.6 650.19,-489.2 1040.32,-489.2 1040.32,-453.6 650.19,-453.6"/>
<text text-anchor="start" x="657.19" y="-467" font-family="Arial Bold" font-size="18.00">ChromiumHistogramEnumValues</text>
<text text-anchor="start" x="904.17" y="-467" font-family="Arial" font-size="14.00">    </text>
<text text-anchor="start" x="935.28" y="-467" font-family="Arial" font-size="14.00" fill="#666666">[BASIC TABLE]</text>
<polygon fill="none" stroke="black" points="650.19,-422.8 650.19,-453.6 1040.32,-453.6 1040.32,-422.8 650.19,-422.8"/>
<text text-anchor="start" x="657.19" y="-435" font-family="Arial" font-size="14.00">ID </text>
<text text-anchor="start" x="675.08" y="-435" font-family="Arial" font-size="14.00" fill="#666666">[STRING(36)]</text>
<polygon fill="none" stroke="black" points="650.19,-392 650.19,-422.8 1040.32,-422.8 1040.32,-392 650.19,-392"/>
<text text-anchor="start" x="657.19" y="-404.2" font-family="Arial" font-size="14.00">ChromiumHistogramEnumID </text>
<text text-anchor="start" x="840.01" y="-404.2" font-family="Arial" font-size="14.00" fill="#666666">[STRING(36)]</text>
<polygon fill="none" stroke="black" points="650.19,-361.2 650.19,-392 1040.32,-392 1040.32,-361.2 650.19,-361.2"/>
<text text-anchor="start" x="657.19" y="-373.4" font-family="Arial" font-size="14.00">BucketID </text>
<text text-anchor="start" x="717.88" y="-373.4" font-family="Arial" font-size="14.00" fill="#666666">[INT64]</text>
<polygon fill="none" stroke="black" points="650.19,-330.4 650.19,-361.2 1040.32,-361.2 1040.32,-330.4 650.19,-330.4"/>
<text text-anchor="start" x="657.19" y="-342.6" font-family="Arial" font-size="14.00">Label </text>
<text text-anchor="start" x="695.34" y="-342.6" font-family="Arial" font-size="14.00" fill="#666666">[STRING(MAX)]</text>
<polygon fill="none" stroke="black" points="650.19,-299.6 650.19,-330.4 1040.32,-330.4 1040.32,-299.6 650.19,-299.6"/>
<text text-anchor="start" x="657.19" y="-311.8" font-family="Arial" font-size="14.00">Label_Lowercase </text>
<text text-anchor="start" x="770.83" y="-311.8" font-family="Arial" font-size="14.00" fill="#666666">[STRING(64)]</text>
</g>
<!-- ChromiumHistogramEnumValues&#45;&gt;ChromiumHistogramEnums -->
<g id="edge2" class="edge">
<title>ChromiumHistogramEnumValues:ChromiumHistogramEnumID&#45;&gt;ChromiumHistogramEnums:ID</title>
<path fill="none" stroke="black" d="M639.03,-406.56C585.28,-396.97 613.18,-307.92 650.19,-256.4 678.89,-216.46 726.06,-260.29 754.83,-220.4 780.1,-185.36 799.03,-123.2 755.83,-123.2"/>
<polygon fill="black" stroke="black" points="638.9,-406.55 648.49,-411.86 644.21,-406.99 648.53,-407.34 648.53,-407.34 648.53,-407.34 644.21,-406.99 649.23,-402.89 638.9,-406.55"/>
<text text-anchor="start" x="656.19" y="-417.4" font-family="Arial" font-size="10.00">FOREIGN KEY (ChromiumHistogramEnumID) REFERENCES ChromiumHistogramEnums (ID) ON DELETE CASCADE</text>
</g>
</g>
</svg>
