<?xml version="1.0" encoding="UTF-8" standalone="no"?>
<!DOCTYPE svg PUBLIC "-//W3C//DTD SVG 1.1//EN"
 "http://www.w3.org/Graphics/SVG/1.1/DTD/svg11.dtd">
<!-- Generated by graphviz version 2.40.1 (20161225.0304)
 -->
<!-- Title: ChromiumHistogramEnums Pages: 1 -->
<svg width="1096pt" height="532pt"
 viewBox="0.00 0.00 1095.50 532.00" xmlns="http://www.w3.org/2000/svg" xmlns:xlink="http://www.w3.org/1999/xlink">
<g id="graph0" class="graph" transform="scale(1 1) rotate(0) translate(4 528)">
<title>ChromiumHistogramEnums</title>
<polygon fill="#ffffff" stroke="transparent" points="-4,4 -4,-528 1091.5,-528 1091.5,4 -4,4"/>
<!-- ChromiumHistogramEnums -->
<g id="node1" class="node">
<title>ChromiumHistogramEnums</title>
<polygon fill="#efefef" stroke="transparent" points="342.5,-135.5 342.5,-170.5 709.5,-170.5 709.5,-135.5 342.5,-135.5"/>
<polygon fill="none" stroke="#000000" points="342.5,-135.5 342.5,-170.5 709.5,-170.5 709.5,-135.5 342.5,-135.5"/>
<text text-anchor="start" x="349.3927" y="-148.3" font-family="Arial Bold" font-size="18.00" fill="#000000">ChromiumHistogramEnums</text>
<text text-anchor="start" x="570.3787" y="-148.3" font-family="Arial" font-size="14.00" fill="#000000">    </text>
<text text-anchor="start" x="604.5835" y="-148.3" font-family="Arial" font-size="14.00" fill="#666666">[BASIC TABLE]</text>
<polygon fill="none" stroke="#000000" points="342.5,-105.5 342.5,-135.5 709.5,-135.5 709.5,-105.5 342.5,-105.5"/>
<text text-anchor="start" x="349.5" y="-116.9" font-family="Arial" font-size="14.00" fill="#000000">ID </text>
<text text-anchor="start" x="367.3878" y="-116.9" font-family="Arial" font-size="14.00" fill="#666666">[STRING(36)]</text>
<polygon fill="none" stroke="#000000" points="342.5,-75.5 342.5,-105.5 709.5,-105.5 709.5,-75.5 342.5,-75.5"/>
<text text-anchor="start" x="349.5" y="-86.9" font-family="Arial" font-size="14.00" fill="#000000">HistogramName </text>
<text text-anchor="start" x="454.4958" y="-86.9" font-family="Arial" font-size="14.00" fill="#666666">[STRING(MAX)]</text>
<polygon fill="none" stroke="#000000" points="342.5,-45.5 342.5,-75.5 709.5,-75.5 709.5,-45.5 342.5,-45.5"/>
<text text-anchor="start" x="349.5" y="-56.9" font-family="Arial" font-size="14.00" fill="#000000">HistogramName_Lowercase </text>
<text text-anchor="start" x="529.9586" y="-56.9" font-family="Arial" font-size="14.00" fill="#666666">[STRING(64)]</text>
<polygon fill="none" stroke="#000000" stroke-width="3" points="340.5,-44.5 340.5,-172.5 710.5,-172.5 710.5,-44.5 340.5,-44.5"/>
</g>
<!-- ChromiumHistogramEnumValues -->
<g id="node2" class="node">
<title>ChromiumHistogramEnumValues</title>
<polygon fill="#efefef" stroke="transparent" points="43.5,-445.5 43.5,-480.5 456.5,-480.5 456.5,-445.5 43.5,-445.5"/>
<polygon fill="none" stroke="#000000" points="43.5,-445.5 43.5,-480.5 456.5,-480.5 456.5,-445.5 43.5,-445.5"/>
<text text-anchor="start" x="50.3842" y="-458.3" font-family="Arial Bold" font-size="18.00" fill="#000000">ChromiumHistogramEnumValues</text>
<text text-anchor="start" x="317.3872" y="-458.3" font-family="Arial" font-size="14.00" fill="#000000">    </text>
<text text-anchor="start" x="351.592" y="-458.3" font-family="Arial" font-size="14.00" fill="#666666">[BASIC TABLE]</text>
<polygon fill="none" stroke="#000000" points="43.5,-415.5 43.5,-445.5 456.5,-445.5 456.5,-415.5 43.5,-415.5"/>
<text text-anchor="start" x="50.5" y="-426.9" font-family="Arial" font-size="14.00" fill="#000000">ID    </text>
<text text-anchor="start" x="98.702" y="-426.9" font-family="Arial" font-size="14.00" fill="#666666">[STRING(36)]</text>
<polygon fill="none" stroke="#000000" points="43.5,-385.5 43.5,-415.5 456.5,-415.5 456.5,-385.5 43.5,-385.5"/>
<text text-anchor="start" x="50.5" y="-396.9" font-family="Arial" font-size="14.00" fill="#000000">ChromiumHistogramEnumID    </text>
<text text-anchor="start" x="263.58" y="-396.9" font-family="Arial" font-size="14.00" fill="#666666">[STRING(36)]</text>
<polygon fill="none" stroke="#000000" points="43.5,-355.5 43.5,-385.5 456.5,-385.5 456.5,-355.5 43.5,-355.5"/>
<text text-anchor="start" x="50.5" y="-366.9" font-family="Arial" font-size="14.00" fill="#000000">BucketID    </text>
<text text-anchor="start" x="141.4944" y="-366.9" font-family="Arial" font-size="14.00" fill="#666666">[INT64]</text>
<polygon fill="none" stroke="#000000" points="43.5,-325.5 43.5,-355.5 456.5,-355.5 456.5,-325.5 43.5,-325.5"/>
<text text-anchor="start" x="50.5" y="-336.9" font-family="Arial" font-size="14.00" fill="#000000">Label    </text>
<text text-anchor="start" x="118.9418" y="-336.9" font-family="Arial" font-size="14.00" fill="#666666">[STRING(MAX)]</text>
<polygon fill="none" stroke="#000000" points="43.5,-295.5 43.5,-325.5 456.5,-325.5 456.5,-295.5 43.5,-295.5"/>
<text text-anchor="start" x="50.5" y="-306.9" font-family="Arial" font-size="14.00" fill="#000000">Label_Lowercase    </text>
<text text-anchor="start" x="194.4046" y="-306.9" font-family="Arial" font-size="14.00" fill="#666666">[STRING(64)]</text>
</g>
<!-- ChromiumHistogramEnumValues&#45;&gt;ChromiumHistogramEnums -->
<g id="edge1" class="edge">
<title>ChromiumHistogramEnumValues:ChromiumHistogramEnumID&#45;&gt;ChromiumHistogramEnums:ID</title>
<path fill="none" stroke="#000000" stroke-dasharray="5,2" d="M466.765,-399.6141C518.9809,-389.9148 493.0569,-302.8807 456.5,-253 425.0915,-210.1442 373.9085,-259.8558 342.5,-217 317.1471,-182.4068 299.6111,-120.5 342.5,-120.5"/>
<polygon fill="#000000" stroke="#000000" points="466.463,-399.6401 456.113,-396.0167 461.4815,-400.07 456.5,-400.5 456.5,-400.5 456.5,-400.5 461.4815,-400.07 456.887,-404.9833 466.463,-399.6401 466.463,-399.6401"/>
</g>
<!-- DailyChromiumHistogramEnumCapstones -->
<g id="node3" class="node">
<title>DailyChromiumHistogramEnumCapstones</title>
<polygon fill="#efefef" stroke="transparent" points="560.5,-400.5 560.5,-435.5 1044.5,-435.5 1044.5,-400.5 560.5,-400.5"/>
<polygon fill="none" stroke="#000000" points="560.5,-400.5 560.5,-435.5 1044.5,-435.5 1044.5,-400.5 560.5,-400.5"/>
<text text-anchor="start" x="567.3846" y="-413.3" font-family="Arial Bold" font-size="18.00" fill="#000000">DailyChromiumHistogramEnumCapstones</text>
<text text-anchor="start" x="905.3868" y="-413.3" font-family="Arial" font-size="14.00" fill="#000000">    </text>
<text text-anchor="start" x="939.5916" y="-413.3" font-family="Arial" font-size="14.00" fill="#666666">[BASIC TABLE]</text>
<polygon fill="none" stroke="#000000" points="560.5,-370.5 560.5,-400.5 1044.5,-400.5 1044.5,-370.5 560.5,-370.5"/>
<text text-anchor="start" x="567.5" y="-381.9" font-family="Arial" font-size="14.00" fill="#000000">ChromiumHistogramEnumID    </text>
<text text-anchor="start" x="780.58" y="-381.9" font-family="Arial" font-size="14.00" fill="#666666">[STRING(36)]</text>
<polygon fill="none" stroke="#000000" points="560.5,-340.5 560.5,-370.5 1044.5,-370.5 1044.5,-340.5 560.5,-340.5"/>
<text text-anchor="start" x="567.5" y="-351.9" font-family="Arial" font-size="14.00" fill="#000000">Day    </text>
<text text-anchor="start" x="626.594" y="-351.9" font-family="Arial" font-size="14.00" fill="#666666">[DATE]</text>
</g>
<!-- DailyChromiumHistogramEnumCapstones&#45;&gt;ChromiumHistogramEnums -->
<g id="edge2" class="edge">
<title>DailyChromiumHistogramEnumCapstones:ChromiumHistogramEnumID&#45;&gt;ChromiumHistogramEnums:ID</title>
<path fill="none" stroke="#000000" stroke-dasharray="5,2" d="M550.3831,-383.905C525.4822,-374.7293 542.6436,-328.0316 560.5,-298 599.022,-233.2123 670.978,-281.7877 709.5,-217 731.4193,-180.1354 752.3889,-120.5 709.5,-120.5"/>
<polygon fill="#000000" stroke="#000000" points="550.622,-383.9426 559.7992,-389.9451 555.561,-384.7213 560.5,-385.5 560.5,-385.5 560.5,-385.5 555.561,-384.7213 561.2008,-381.0549 550.622,-383.9426 550.622,-383.9426"/>
</g>
</g>
</svg>
