<?xml version="1.0" encoding="UTF-8" standalone="no"?>
<!DOCTYPE svg PUBLIC "-//W3C//DTD SVG 1.1//EN"
 "http://www.w3.org/Graphics/SVG/1.1/DTD/svg11.dtd">
<!-- Generated by graphviz version 2.40.1 (20161225.0304)
 -->
<!-- Title: DailyChromiumHistogramEnumCapstones Pages: 1 -->
<svg width="584pt" height="442pt"
 viewBox="0.00 0.00 584.00 442.00" xmlns="http://www.w3.org/2000/svg" xmlns:xlink="http://www.w3.org/1999/xlink">
<g id="graph0" class="graph" transform="scale(1 1) rotate(0) translate(4 438)">
<title>DailyChromiumHistogramEnumCapstones</title>
<polygon fill="#ffffff" stroke="transparent" points="-4,4 -4,-438 580,-438 580,4 -4,4"/>
<!-- DailyChromiumHistogramEnumCapstones -->
<g id="node1" class="node">
<title>DailyChromiumHistogramEnumCapstones</title>
<polygon fill="#efefef" stroke="transparent" points="46,-352.5 46,-387.5 530,-387.5 530,-352.5 46,-352.5"/>
<polygon fill="none" stroke="#000000" points="46,-352.5 46,-387.5 530,-387.5 530,-352.5 46,-352.5"/>
<text text-anchor="start" x="52.8846" y="-365.3" font-family="Arial Bold" font-size="18.00" fill="#000000">DailyChromiumHistogramEnumCapstones</text>
<text text-anchor="start" x="390.8868" y="-365.3" font-family="Arial" font-size="14.00" fill="#000000">    </text>
<text text-anchor="start" x="425.0916" y="-365.3" font-family="Arial" font-size="14.00" fill="#666666">[BASIC TABLE]</text>
<polygon fill="none" stroke="#000000" points="46,-322.5 46,-352.5 530,-352.5 530,-322.5 46,-322.5"/>
<text text-anchor="start" x="53" y="-333.9" font-family="Arial" font-size="14.00" fill="#000000">ChromiumHistogramEnumID </text>
<text text-anchor="start" x="235.7658" y="-333.9" font-family="Arial" font-size="14.00" fill="#666666">[STRING(36)]</text>
<polygon fill="none" stroke="#000000" points="46,-292.5 46,-322.5 530,-322.5 530,-292.5 46,-292.5"/>
<text text-anchor="start" x="53" y="-303.9" font-family="Arial" font-size="14.00" fill="#000000">Day </text>
<text text-anchor="start" x="81.7798" y="-303.9" font-family="Arial" font-size="14.00" fill="#666666">[DATE]</text>
<polygon fill="none" stroke="#000000" stroke-width="3" points="44.5,-291.5 44.5,-389.5 531.5,-389.5 531.5,-291.5 44.5,-291.5"/>
</g>
<!-- ChromiumHistogramEnums -->
<g id="node2" class="node">
<title>ChromiumHistogramEnums</title>
<polygon fill="#efefef" stroke="transparent" points="104,-132.5 104,-167.5 471,-167.5 471,-132.5 104,-132.5"/>
<polygon fill="none" stroke="#000000" points="104,-132.5 104,-167.5 471,-167.5 471,-132.5 104,-132.5"/>
<text text-anchor="start" x="110.8927" y="-145.3" font-family="Arial Bold" font-size="18.00" fill="#000000">ChromiumHistogramEnums</text>
<text text-anchor="start" x="331.8787" y="-145.3" font-family="Arial" font-size="14.00" fill="#000000">    </text>
<text text-anchor="start" x="366.0835" y="-145.3" font-family="Arial" font-size="14.00" fill="#666666">[BASIC TABLE]</text>
<polygon fill="none" stroke="#000000" points="104,-102.5 104,-132.5 471,-132.5 471,-102.5 104,-102.5"/>
<text text-anchor="start" x="111" y="-113.9" font-family="Arial" font-size="14.00" fill="#000000">ID    </text>
<text text-anchor="start" x="159.202" y="-113.9" font-family="Arial" font-size="14.00" fill="#666666">[STRING(36)]</text>
<polygon fill="none" stroke="#000000" points="104,-72.5 104,-102.5 471,-102.5 471,-72.5 104,-72.5"/>
<text text-anchor="start" x="111" y="-83.9" font-family="Arial" font-size="14.00" fill="#000000">HistogramName    </text>
<text text-anchor="start" x="246.31" y="-83.9" font-family="Arial" font-size="14.00" fill="#666666">[STRING(MAX)]</text>
<polygon fill="none" stroke="#000000" points="104,-42.5 104,-72.5 471,-72.5 471,-42.5 104,-42.5"/>
<text text-anchor="start" x="111" y="-53.9" font-family="Arial" font-size="14.00" fill="#000000">HistogramName_Lowercase    </text>
<text text-anchor="start" x="321.7728" y="-53.9" font-family="Arial" font-size="14.00" fill="#666666">[STRING(64)]</text>
</g>
<!-- DailyChromiumHistogramEnumCapstones&#45;&gt;ChromiumHistogramEnums -->
<g id="edge1" class="edge">
<title>DailyChromiumHistogramEnumCapstones:ChromiumHistogramEnumID&#45;&gt;ChromiumHistogramEnums:ID</title>
<path fill="none" stroke="#000000" stroke-dasharray="5,2" d="M36.0589,-335.9706C8.3416,-326.3593 21.3367,-273.8407 46,-247 110.1307,-177.2074 406.8693,-280.7926 471,-211 499.1168,-180.4008 512.5556,-117.5 471,-117.5"/>
<polygon fill="#000000" stroke="#000000" points="36.1163,-335.9794 45.3157,-341.9477 41.0581,-336.7397 46,-337.5 46,-337.5 46,-337.5 41.0581,-336.7397 46.6843,-333.0523 36.1163,-335.9794 36.1163,-335.9794"/>
</g>
</g>
</svg>
