<?xml version="1.0" encoding="UTF-8" standalone="no"?>
<!DOCTYPE svg PUBLIC "-//W3C//DTD SVG 1.1//EN"
 "http://www.w3.org/Graphics/SVG/1.1/DTD/svg11.dtd">
<!-- Generated by graphviz version 12.1.2 (20240928.0832)
 -->
<!-- Title: DailyChromiumHistogramMetrics Pages: 1 -->
<svg width="1638pt" height="791pt"
 viewBox="0.00 0.00 1638.14 790.80" xmlns="http://www.w3.org/2000/svg" xmlns:xlink="http://www.w3.org/1999/xlink">
<g id="graph0" class="graph" transform="scale(1 1) rotate(0) translate(4 786.8)">
<title>DailyChromiumHistogramMetrics</title>
<polygon fill="white" stroke="none" points="-4,4 -4,-786.8 1634.14,-786.8 1634.14,4 -4,4"/>
<!-- DailyChromiumHistogramMetrics -->
<g id="node1" class="node">
<title>DailyChromiumHistogramMetrics</title>
<polygon fill="#efefef" stroke="none" points="65.19,-450.6 65.19,-486.2 457.31,-486.2 457.31,-450.6 65.19,-450.6"/>
<polygon fill="none" stroke="black" points="65.19,-450.6 65.19,-486.2 457.31,-486.2 457.31,-450.6 65.19,-450.6"/>
<text text-anchor="start" x="72.19" y="-464" font-family="Arial Bold" font-size="18.00">DailyChromiumHistogramMetrics</text>
<text text-anchor="start" x="321.16" y="-464" font-family="Arial" font-size="14.00">    </text>
<text text-anchor="start" x="352.28" y="-464" font-family="Arial" font-size="14.00" fill="#666666">[BASIC TABLE]</text>
<polygon fill="none" stroke="black" points="65.19,-419.8 65.19,-450.6 457.31,-450.6 457.31,-419.8 65.19,-419.8"/>
<text text-anchor="start" x="72.19" y="-432" font-family="Arial" font-size="14.00">ChromiumHistogramEnumValueID </text>
<text text-anchor="start" x="290.82" y="-432" font-family="Arial" font-size="14.00" fill="#666666">[STRING(36)]</text>
<polygon fill="none" stroke="black" points="65.19,-389 65.19,-419.8 457.31,-419.8 457.31,-389 65.19,-389"/>
<text text-anchor="start" x="72.19" y="-401.2" font-family="Arial" font-size="14.00">Day </text>
<text text-anchor="start" x="100.98" y="-401.2" font-family="Arial" font-size="14.00" fill="#666666">[DATE]</text>
<polygon fill="none" stroke="black" points="65.19,-358.2 65.19,-389 457.31,-389 457.31,-358.2 65.19,-358.2"/>
<text text-anchor="start" x="72.19" y="-370.4" font-family="Arial" font-size="14.00">Rate </text>
<text text-anchor="start" x="105.65" y="-370.4" font-family="Arial" font-size="14.00" fill="#666666">[NUMERIC]</text>
<polygon fill="none" stroke="black" stroke-width="3" points="63.69,-356.7 63.69,-487.7 458.81,-487.7 458.81,-356.7 63.69,-356.7"/>
</g>
<!-- ChromiumHistogramEnumValues -->
<g id="node2" class="node">
<title>ChromiumHistogramEnumValues</title>
<polygon fill="#efefef" stroke="none" points="66.19,-197.2 66.19,-232.8 456.31,-232.8 456.31,-197.2 66.19,-197.2"/>
<polygon fill="none" stroke="black" points="66.19,-197.2 66.19,-232.8 456.31,-232.8 456.31,-197.2 66.19,-197.2"/>
<text text-anchor="start" x="73.19" y="-210.6" font-family="Arial Bold" font-size="18.00">ChromiumHistogramEnumValues</text>
<text text-anchor="start" x="320.16" y="-210.6" font-family="Arial" font-size="14.00">    </text>
<text text-anchor="start" x="351.28" y="-210.6" font-family="Arial" font-size="14.00" fill="#666666">[BASIC TABLE]</text>
<polygon fill="none" stroke="black" points="66.19,-166.4 66.19,-197.2 456.31,-197.2 456.31,-166.4 66.19,-166.4"/>
<text text-anchor="start" x="73.19" y="-178.6" font-family="Arial" font-size="14.00">ID </text>
<text text-anchor="start" x="91.08" y="-178.6" font-family="Arial" font-size="14.00" fill="#666666">[STRING(36)]</text>
<polygon fill="none" stroke="black" points="66.19,-135.6 66.19,-166.4 456.31,-166.4 456.31,-135.6 66.19,-135.6"/>
<text text-anchor="start" x="73.19" y="-147.8" font-family="Arial" font-size="14.00">ChromiumHistogramEnumID </text>
<text text-anchor="start" x="256.01" y="-147.8" font-family="Arial" font-size="14.00" fill="#666666">[STRING(36)]</text>
<polygon fill="none" stroke="black" points="66.19,-104.8 66.19,-135.6 456.31,-135.6 456.31,-104.8 66.19,-104.8"/>
<text text-anchor="start" x="73.19" y="-117" font-family="Arial" font-size="14.00">BucketID </text>
<text text-anchor="start" x="133.88" y="-117" font-family="Arial" font-size="14.00" fill="#666666">[INT64]</text>
<polygon fill="none" stroke="black" points="66.19,-74 66.19,-104.8 456.31,-104.8 456.31,-74 66.19,-74"/>
<text text-anchor="start" x="73.19" y="-86.2" font-family="Arial" font-size="14.00">Label </text>
<text text-anchor="start" x="111.33" y="-86.2" font-family="Arial" font-size="14.00" fill="#666666">[STRING(MAX)]</text>
<polygon fill="none" stroke="black" points="66.19,-43.2 66.19,-74 456.31,-74 456.31,-43.2 66.19,-43.2"/>
<text text-anchor="start" x="73.19" y="-55.4" font-family="Arial" font-size="14.00">Label_Lowercase </text>
<text text-anchor="start" x="186.82" y="-55.4" font-family="Arial" font-size="14.00" fill="#666666">[STRING(64)]</text>
</g>
<!-- DailyChromiumHistogramMetrics&#45;&gt;ChromiumHistogramEnumValues -->
<g id="edge1" class="edge">
<title>DailyChromiumHistogramMetrics:ChromiumHistogramEnumValueID&#45;&gt;ChromiumHistogramEnumValues:ID</title>
<path fill="none" stroke="black" d="M468.53,-434.47C570.76,-419.61 566.42,-181.8 457.31,-181.8"/>
<polygon fill="black" stroke="black" points="468.62,-434.47 458.32,-430.69 463.3,-434.85 458.98,-435.15 458.98,-435.15 458.98,-435.15 463.3,-434.85 458.96,-439.66 468.62,-434.47"/>
<text text-anchor="start" x="465.31" y="-445.2" font-family="Arial" font-size="10.00">FOREIGN KEY (ChromiumHistogramEnumValueID) REFERENCES ChromiumHistogramEnumValues (ID) ON DELETE CASCADE</text>
</g>
<!-- LatestDailyChromiumHistogramMetrics -->
<g id="node3" class="node">
<title>LatestDailyChromiumHistogramMetrics</title>
<polygon fill="#efefef" stroke="none" points="43.2,-704 43.2,-739.6 479.3,-739.6 479.3,-704 43.2,-704"/>
<polygon fill="none" stroke="black" points="43.2,-704 43.2,-739.6 479.3,-739.6 479.3,-704 43.2,-704"/>
<text text-anchor="start" x="50.2" y="-717.4" font-family="Arial Bold" font-size="18.00">LatestDailyChromiumHistogramMetrics</text>
<text text-anchor="start" x="343.15" y="-717.4" font-family="Arial" font-size="14.00">    </text>
<text text-anchor="start" x="374.27" y="-717.4" font-family="Arial" font-size="14.00" fill="#666666">[BASIC TABLE]</text>
<polygon fill="none" stroke="black" points="43.2,-673.2 43.2,-704 479.3,-704 479.3,-673.2 43.2,-673.2"/>
<text text-anchor="start" x="50.2" y="-685.4" font-family="Arial" font-size="14.00">WebFeatureID </text>
<text text-anchor="start" x="145.12" y="-685.4" font-family="Arial" font-size="14.00" fill="#666666">[STRING(36)]</text>
<polygon fill="none" stroke="black" points="43.2,-642.4 43.2,-673.2 479.3,-673.2 479.3,-642.4 43.2,-642.4"/>
<text text-anchor="start" x="50.2" y="-654.6" font-family="Arial" font-size="14.00">ChromiumHistogramEnumValueID </text>
<text text-anchor="start" x="268.83" y="-654.6" font-family="Arial" font-size="14.00" fill="#666666">[STRING(36)]</text>
<polygon fill="none" stroke="black" points="43.2,-611.6 43.2,-642.4 479.3,-642.4 479.3,-611.6 43.2,-611.6"/>
<text text-anchor="start" x="50.2" y="-623.8" font-family="Arial" font-size="14.00">Day </text>
<text text-anchor="start" x="78.99" y="-623.8" font-family="Arial" font-size="14.00" fill="#666666">[DATE]</text>
</g>
<!-- LatestDailyChromiumHistogramMetrics&#45;&gt;DailyChromiumHistogramMetrics -->
<g id="edge2" class="edge">
<title>LatestDailyChromiumHistogramMetrics:ChromiumHistogramEnumValueID&#45;&gt;DailyChromiumHistogramMetrics:Day</title>
<path fill="none" stroke="black" d="M490.5,-657.07C591.88,-642.21 567.82,-404.4 458.31,-404.4"/>
<polygon fill="black" stroke="black" points="490.61,-657.07 480.31,-653.29 485.29,-657.44 480.97,-657.75 480.97,-657.75 480.97,-657.75 485.29,-657.44 480.95,-662.26 490.61,-657.07"/>
<text text-anchor="start" x="487.3" y="-667.8" font-family="Arial" font-size="10.00">FOREIGN KEY (ChromiumHistogramEnumValueID, ChromiumHistogramEnumValueID, Day, Day) REFERENCES DailyChromiumHistogramMetrics (Day, ChromiumHistogramEnumValueID, ChromiumHistogramEnumValueID, Day) ON DELETE CASCADE</text>
</g>
</g>
</svg>
