<?xml version="1.0" encoding="UTF-8" standalone="no"?>
<!DOCTYPE svg PUBLIC "-//W3C//DTD SVG 1.1//EN"
 "http://www.w3.org/Graphics/SVG/1.1/DTD/svg11.dtd">
<!-- Generated by graphviz version 12.1.2 (20240928.0832)
 -->
<!-- Title: DailyChromiumHistogramEnumCapstones Pages: 1 -->
<svg width="1056pt" height="448pt"
 viewBox="0.00 0.00 1055.65 448.00" xmlns="http://www.w3.org/2000/svg" xmlns:xlink="http://www.w3.org/1999/xlink">
<g id="graph0" class="graph" transform="scale(1 1) rotate(0) translate(4 444)">
<title>DailyChromiumHistogramEnumCapstones</title>
<polygon fill="white" stroke="none" points="-4,4 -4,-444 1051.65,-444 1051.65,4 -4,4"/>
<!-- DailyChromiumHistogramEnumCapstones -->
<g id="node1" class="node">
<title>DailyChromiumHistogramEnumCapstones</title>
<polygon fill="#efefef" stroke="none" points="46.2,-358.2 46.2,-393.8 500.33,-393.8 500.33,-358.2 46.2,-358.2"/>
<polygon fill="none" stroke="black" points="46.2,-358.2 46.2,-393.8 500.33,-393.8 500.33,-358.2 46.2,-358.2"/>
<text text-anchor="start" x="53.2" y="-371.6" font-family="Arial Bold" font-size="18.00">DailyChromiumHistogramEnumCapstones</text>
<text text-anchor="start" x="364.17" y="-371.6" font-family="Arial" font-size="14.00">    </text>
<text text-anchor="start" x="395.29" y="-371.6" font-family="Arial" font-size="14.00" fill="#666666">[BASIC TABLE]</text>
<polygon fill="none" stroke="black" points="46.2,-327.4 46.2,-358.2 500.33,-358.2 500.33,-327.4 46.2,-327.4"/>
<text text-anchor="start" x="53.2" y="-339.6" font-family="Arial" font-size="14.00">ChromiumHistogramEnumID </text>
<text text-anchor="start" x="236.02" y="-339.6" font-family="Arial" font-size="14.00" fill="#666666">[STRING(36)]</text>
<polygon fill="none" stroke="black" points="46.2,-296.6 46.2,-327.4 500.33,-327.4 500.33,-296.6 46.2,-296.6"/>
<text text-anchor="start" x="53.2" y="-308.8" font-family="Arial" font-size="14.00">Day </text>
<text text-anchor="start" x="81.99" y="-308.8" font-family="Arial" font-size="14.00" fill="#666666">[DATE]</text>
<polygon fill="none" stroke="black" stroke-width="3" points="44.7,-295.1 44.7,-395.3 501.83,-395.3 501.83,-295.1 44.7,-295.1"/>
</g>
<!-- ChromiumHistogramEnums -->
<g id="node2" class="node">
<title>ChromiumHistogramEnums</title>
<polygon fill="#efefef" stroke="none" points="99.69,-135.6 99.69,-171.2 446.84,-171.2 446.84,-135.6 99.69,-135.6"/>
<polygon fill="none" stroke="black" points="99.69,-135.6 99.69,-171.2 446.84,-171.2 446.84,-135.6 99.69,-135.6"/>
<text text-anchor="start" x="106.69" y="-149" font-family="Arial Bold" font-size="18.00">ChromiumHistogramEnums</text>
<text text-anchor="start" x="310.68" y="-149" font-family="Arial" font-size="14.00">    </text>
<text text-anchor="start" x="341.8" y="-149" font-family="Arial" font-size="14.00" fill="#666666">[BASIC TABLE]</text>
<polygon fill="none" stroke="black" points="99.69,-104.8 99.69,-135.6 446.84,-135.6 446.84,-104.8 99.69,-104.8"/>
<text text-anchor="start" x="106.69" y="-117" font-family="Arial" font-size="14.00">ID </text>
<text text-anchor="start" x="124.58" y="-117" font-family="Arial" font-size="14.00" fill="#666666">[STRING(36)]</text>
<polygon fill="none" stroke="black" points="99.69,-74 99.69,-104.8 446.84,-104.8 446.84,-74 99.69,-74"/>
<text text-anchor="start" x="106.69" y="-86.2" font-family="Arial" font-size="14.00">HistogramName </text>
<text text-anchor="start" x="211.72" y="-86.2" font-family="Arial" font-size="14.00" fill="#666666">[STRING(MAX)]</text>
<polygon fill="none" stroke="black" points="99.69,-43.2 99.69,-74 446.84,-74 446.84,-43.2 99.69,-43.2"/>
<text text-anchor="start" x="106.69" y="-55.4" font-family="Arial" font-size="14.00">HistogramName_Lowercase </text>
<text text-anchor="start" x="287.21" y="-55.4" font-family="Arial" font-size="14.00" fill="#666666">[STRING(64)]</text>
</g>
<!-- DailyChromiumHistogramEnumCapstones&#45;&gt;ChromiumHistogramEnums -->
<g id="edge1" class="edge">
<title>DailyChromiumHistogramEnumCapstones:ChromiumHistogramEnumID&#45;&gt;ChromiumHistogramEnums:ID</title>
<path fill="none" stroke="black" d="M511.49,-341.99C599.25,-327.42 546.01,-120.2 447.84,-120.2"/>
<polygon fill="black" stroke="black" points="511.63,-341.98 501.3,-338.29 506.31,-342.4 501.99,-342.75 501.99,-342.75 501.99,-342.75 506.31,-342.4 502.02,-347.26 511.63,-341.98"/>
<text text-anchor="start" x="508.33" y="-352.8" font-family="Arial" font-size="10.00">FOREIGN KEY (ChromiumHistogramEnumID) REFERENCES ChromiumHistogramEnums (ID) ON DELETE CASCADE</text>
</g>
</g>
</svg>
