<?xml version="1.0" encoding="UTF-8" standalone="no"?>
<!DOCTYPE svg PUBLIC "-//W3C//DTD SVG 1.1//EN"
 "http://www.w3.org/Graphics/SVG/1.1/DTD/svg11.dtd">
<!-- Generated by graphviz version 2.40.1 (20161225.0304)
 -->
<!-- Title: DailyChromiumHistogramMetrics Pages: 1 -->
<svg width="509pt" height="532pt"
 viewBox="0.00 0.00 509.00 532.00" xmlns="http://www.w3.org/2000/svg" xmlns:xlink="http://www.w3.org/1999/xlink">
<g id="graph0" class="graph" transform="scale(1 1) rotate(0) translate(4 528)">
<title>DailyChromiumHistogramMetrics</title>
<polygon fill="#ffffff" stroke="transparent" points="-4,4 -4,-528 505,-528 505,4 -4,4"/>
<!-- DailyChromiumHistogramMetrics -->
<g id="node1" class="node">
<title>DailyChromiumHistogramMetrics</title>
<polygon fill="#efefef" stroke="transparent" points="46.5,-442.5 46.5,-477.5 455.5,-477.5 455.5,-442.5 46.5,-442.5"/>
<polygon fill="none" stroke="#000000" points="46.5,-442.5 46.5,-477.5 455.5,-477.5 455.5,-442.5 46.5,-442.5"/>
<text text-anchor="start" x="53.4092" y="-455.3" font-family="Arial Bold" font-size="18.00" fill="#000000">DailyChromiumHistogramMetrics</text>
<text text-anchor="start" x="316.3622" y="-455.3" font-family="Arial" font-size="14.00" fill="#000000">    </text>
<text text-anchor="start" x="350.567" y="-455.3" font-family="Arial" font-size="14.00" fill="#666666">[BASIC TABLE]</text>
<polygon fill="none" stroke="#000000" points="46.5,-412.5 46.5,-442.5 455.5,-442.5 455.5,-412.5 46.5,-412.5"/>
<text text-anchor="start" x="53.5" y="-423.9" font-family="Arial" font-size="14.00" fill="#000000">ChromiumHistogramEnumValueID </text>
<text text-anchor="start" x="272.0568" y="-423.9" font-family="Arial" font-size="14.00" fill="#666666">[STRING(36)]</text>
<polygon fill="none" stroke="#000000" points="46.5,-382.5 46.5,-412.5 455.5,-412.5 455.5,-382.5 46.5,-382.5"/>
<text text-anchor="start" x="53.5" y="-393.9" font-family="Arial" font-size="14.00" fill="#000000">Day </text>
<text text-anchor="start" x="82.2798" y="-393.9" font-family="Arial" font-size="14.00" fill="#666666">[DATE]</text>
<polygon fill="none" stroke="#000000" points="46.5,-352.5 46.5,-382.5 455.5,-382.5 455.5,-352.5 46.5,-352.5"/>
<text text-anchor="start" x="53.5" y="-363.9" font-family="Arial" font-size="14.00" fill="#000000">Rate </text>
<text text-anchor="start" x="86.953" y="-363.9" font-family="Arial" font-size="14.00" fill="#666666">[NUMERIC]</text>
<polygon fill="none" stroke="#000000" stroke-width="3" points="44.5,-351.5 44.5,-479.5 456.5,-479.5 456.5,-351.5 44.5,-351.5"/>
</g>
<!-- ChromiumHistogramEnumValues -->
<g id="node2" class="node">
<title>ChromiumHistogramEnumValues</title>
<polygon fill="#efefef" stroke="transparent" points="44.5,-192.5 44.5,-227.5 457.5,-227.5 457.5,-192.5 44.5,-192.5"/>
<polygon fill="none" stroke="#000000" points="44.5,-192.5 44.5,-227.5 457.5,-227.5 457.5,-192.5 44.5,-192.5"/>
<text text-anchor="start" x="51.3842" y="-205.3" font-family="Arial Bold" font-size="18.00" fill="#000000">ChromiumHistogramEnumValues</text>
<text text-anchor="start" x="318.3872" y="-205.3" font-family="Arial" font-size="14.00" fill="#000000">    </text>
<text text-anchor="start" x="352.592" y="-205.3" font-family="Arial" font-size="14.00" fill="#666666">[BASIC TABLE]</text>
<polygon fill="none" stroke="#000000" points="44.5,-162.5 44.5,-192.5 457.5,-192.5 457.5,-162.5 44.5,-162.5"/>
<text text-anchor="start" x="51.5" y="-173.9" font-family="Arial" font-size="14.00" fill="#000000">ID    </text>
<text text-anchor="start" x="99.702" y="-173.9" font-family="Arial" font-size="14.00" fill="#666666">[STRING(36)]</text>
<polygon fill="none" stroke="#000000" points="44.5,-132.5 44.5,-162.5 457.5,-162.5 457.5,-132.5 44.5,-132.5"/>
<text text-anchor="start" x="51.5" y="-143.9" font-family="Arial" font-size="14.00" fill="#000000">ChromiumHistogramEnumID    </text>
<text text-anchor="start" x="264.58" y="-143.9" font-family="Arial" font-size="14.00" fill="#666666">[STRING(36)]</text>
<polygon fill="none" stroke="#000000" points="44.5,-102.5 44.5,-132.5 457.5,-132.5 457.5,-102.5 44.5,-102.5"/>
<text text-anchor="start" x="51.5" y="-113.9" font-family="Arial" font-size="14.00" fill="#000000">BucketID    </text>
<text text-anchor="start" x="142.4944" y="-113.9" font-family="Arial" font-size="14.00" fill="#666666">[INT64]</text>
<polygon fill="none" stroke="#000000" points="44.5,-72.5 44.5,-102.5 457.5,-102.5 457.5,-72.5 44.5,-72.5"/>
<text text-anchor="start" x="51.5" y="-83.9" font-family="Arial" font-size="14.00" fill="#000000">Label    </text>
<text text-anchor="start" x="119.9418" y="-83.9" font-family="Arial" font-size="14.00" fill="#666666">[STRING(MAX)]</text>
<polygon fill="none" stroke="#000000" points="44.5,-42.5 44.5,-72.5 457.5,-72.5 457.5,-42.5 44.5,-42.5"/>
<text text-anchor="start" x="51.5" y="-53.9" font-family="Arial" font-size="14.00" fill="#000000">Label_Lowercase    </text>
<text text-anchor="start" x="195.4046" y="-53.9" font-family="Arial" font-size="14.00" fill="#666666">[STRING(64)]</text>
</g>
<!-- DailyChromiumHistogramMetrics&#45;&gt;ChromiumHistogramEnumValues -->
<g id="edge1" class="edge">
<title>DailyChromiumHistogramMetrics:ChromiumHistogramEnumValueID&#45;&gt;ChromiumHistogramEnumValues:ID</title>
<path fill="none" stroke="#000000" stroke-dasharray="5,2" d="M36.7116,-424.6924C-9.0825,-397.2266 -7.585,-177.5 44.5,-177.5"/>
<polygon fill="#000000" stroke="#000000" points="36.8876,-424.7428 45.2593,-431.8256 41.6938,-426.1214 46.5,-427.5 46.5,-427.5 46.5,-427.5 41.6938,-426.1214 47.7407,-423.1744 36.8876,-424.7428 36.8876,-424.7428"/>
</g>
</g>
</svg>
