<?xml version="1.0" encoding="UTF-8" standalone="no"?>
<!DOCTYPE svg PUBLIC "-//W3C//DTD SVG 1.1//EN"
 "http://www.w3.org/Graphics/SVG/1.1/DTD/svg11.dtd">
<!-- Generated by graphviz version 2.40.1 (20161225.0304)
 -->
<!-- Title: ExcludedFeatureKeys Pages: 1 -->
<svg width="422pt" height="165pt"
 viewBox="0.00 0.00 422.00 165.00" xmlns="http://www.w3.org/2000/svg" xmlns:xlink="http://www.w3.org/1999/xlink">
<g id="graph0" class="graph" transform="scale(1 1) rotate(0) translate(4 161)">
<title>ExcludedFeatureKeys</title>
<polygon fill="#ffffff" stroke="transparent" points="-4,4 -4,-161 418,-161 418,4 -4,4"/>
<!-- ExcludedFeatureKeys -->
<g id="node1" class="node">
<title>ExcludedFeatureKeys</title>
<polygon fill="#efefef" stroke="transparent" points="46,-75.5 46,-110.5 368,-110.5 368,-75.5 46,-75.5"/>
<polygon fill="none" stroke="#000000" points="46,-75.5 46,-110.5 368,-110.5 368,-75.5 46,-75.5"/>
<text text-anchor="start" x="52.8612" y="-88.3" font-family="Arial Bold" font-size="18.00" fill="#000000">ExcludedFeatureKeys</text>
<text text-anchor="start" x="228.9102" y="-88.3" font-family="Arial" font-size="14.00" fill="#000000">    </text>
<text text-anchor="start" x="263.115" y="-88.3" font-family="Arial" font-size="14.00" fill="#666666">[BASIC TABLE]</text>
<polygon fill="none" stroke="#000000" points="46,-45.5 46,-75.5 368,-75.5 368,-45.5 46,-45.5"/>
<text text-anchor="start" x="53" y="-56.9" font-family="Arial" font-size="14.00" fill="#000000">FeatureKey </text>
<text text-anchor="start" x="129.244" y="-56.9" font-family="Arial" font-size="14.00" fill="#666666">[STRING(64)]</text>
<polygon fill="none" stroke="#000000" stroke-width="3" points="44.5,-44.5 44.5,-112.5 369.5,-112.5 369.5,-44.5 44.5,-44.5"/>
</g>
</g>
</svg>
