<?xml version="1.0" encoding="UTF-8" standalone="no"?>
<!DOCTYPE svg PUBLIC "-//W3C//DTD SVG 1.1//EN"
 "http://www.w3.org/Graphics/SVG/1.1/DTD/svg11.dtd">
<!-- Generated by graphviz version 12.1.2 (20240928.0832)
 -->
<!-- Title: ExcludedFeatureKeys Pages: 1 -->
<svg width="402pt" height="167pt"
 viewBox="0.00 0.00 402.49 166.80" xmlns="http://www.w3.org/2000/svg" xmlns:xlink="http://www.w3.org/1999/xlink">
<g id="graph0" class="graph" transform="scale(1 1) rotate(0) translate(4 162.8)">
<title>ExcludedFeatureKeys</title>
<polygon fill="white" stroke="none" points="-4,4 -4,-162.8 398.49,-162.8 398.49,4 -4,4"/>
<!-- ExcludedFeatureKeys -->
<g id="node1" class="node">
<title>ExcludedFeatureKeys</title>
<polygon fill="#efefef" stroke="none" points="46.2,-77 46.2,-112.6 348.29,-112.6 348.29,-77 46.2,-77"/>
<polygon fill="none" stroke="black" points="46.2,-77 46.2,-112.6 348.29,-112.6 348.29,-77 46.2,-77"/>
<text text-anchor="start" x="53.2" y="-90.4" font-family="Arial Bold" font-size="18.00">ExcludedFeatureKeys</text>
<text text-anchor="start" x="212.14" y="-90.4" font-family="Arial" font-size="14.00">    </text>
<text text-anchor="start" x="243.26" y="-90.4" font-family="Arial" font-size="14.00" fill="#666666">[BASIC TABLE]</text>
<polygon fill="none" stroke="black" points="46.2,-46.2 46.2,-77 348.29,-77 348.29,-46.2 46.2,-46.2"/>
<text text-anchor="start" x="53.2" y="-58.4" font-family="Arial" font-size="14.00">FeatureKey </text>
<text text-anchor="start" x="129.46" y="-58.4" font-family="Arial" font-size="14.00" fill="#666666">[STRING(64)]</text>
<polygon fill="none" stroke="black" stroke-width="3" points="44.7,-44.7 44.7,-114.1 349.79,-114.1 349.79,-44.7 44.7,-44.7"/>
</g>
</g>
</svg>
