<?xml version="1.0" encoding="UTF-8" standalone="no"?>
<!DOCTYPE svg PUBLIC "-//W3C//DTD SVG 1.1//EN"
 "http://www.w3.org/Graphics/SVG/1.1/DTD/svg11.dtd">
<!-- Generated by graphviz version 12.1.2 (20240928.0832)
 -->
<!-- Title: FeatureSpecs Pages: 1 -->
<svg width="724pt" height="602pt"
 viewBox="0.00 0.00 724.38 602.00" xmlns="http://www.w3.org/2000/svg" xmlns:xlink="http://www.w3.org/1999/xlink">
<g id="graph0" class="graph" transform="scale(1 1) rotate(0) translate(4 598)">
<title>FeatureSpecs</title>
<polygon fill="white" stroke="none" points="-4,4 -4,-598 720.38,-598 720.38,4 -4,4"/>
<!-- FeatureSpecs -->
<g id="node1" class="node">
<title>FeatureSpecs</title>
<polygon fill="#efefef" stroke="none" points="55.51,-512.2 55.51,-547.8 294.63,-547.8 294.63,-512.2 55.51,-512.2"/>
<polygon fill="none" stroke="black" points="55.51,-512.2 55.51,-547.8 294.63,-547.8 294.63,-512.2 55.51,-512.2"/>
<text text-anchor="start" x="62.51" y="-525.6" font-family="Arial Bold" font-size="18.00">FeatureSpecs</text>
<text text-anchor="start" x="158.48" y="-525.6" font-family="Arial" font-size="14.00">    </text>
<text text-anchor="start" x="189.59" y="-525.6" font-family="Arial" font-size="14.00" fill="#666666">[BASIC TABLE]</text>
<polygon fill="none" stroke="black" points="55.51,-481.4 55.51,-512.2 294.63,-512.2 294.63,-481.4 55.51,-481.4"/>
<text text-anchor="start" x="62.51" y="-493.6" font-family="Arial" font-size="14.00">WebFeatureID </text>
<text text-anchor="start" x="157.43" y="-493.6" font-family="Arial" font-size="14.00" fill="#666666">[STRING(36)]</text>
<polygon fill="none" stroke="black" points="55.51,-450.6 55.51,-481.4 294.63,-481.4 294.63,-450.6 55.51,-450.6"/>
<text text-anchor="start" x="62.51" y="-462.8" font-family="Arial" font-size="14.00">Links </text>
<text text-anchor="start" x="99.08" y="-462.8" font-family="Arial" font-size="14.00" fill="#666666">[ARRAY&lt;STRING(MAX)&gt;]</text>
<polygon fill="none" stroke="black" stroke-width="3" points="54.01,-449.1 54.01,-549.3 296.13,-549.3 296.13,-449.1 54.01,-449.1"/>
</g>
<!-- WebFeatures -->
<g id="node2" class="node">
<title>WebFeatures</title>
<polygon fill="#efefef" stroke="none" points="43.2,-289.6 43.2,-325.2 306.94,-325.2 306.94,-289.6 43.2,-289.6"/>
<polygon fill="none" stroke="black" points="43.2,-289.6 43.2,-325.2 306.94,-325.2 306.94,-289.6 43.2,-289.6"/>
<text text-anchor="start" x="63.01" y="-303" font-family="Arial Bold" font-size="18.00">WebFeatures</text>
<text text-anchor="start" x="157.97" y="-303" font-family="Arial" font-size="14.00">    </text>
<text text-anchor="start" x="189.09" y="-303" font-family="Arial" font-size="14.00" fill="#666666">[BASIC TABLE]</text>
<polygon fill="none" stroke="black" points="43.2,-258.8 43.2,-289.6 306.94,-289.6 306.94,-258.8 43.2,-258.8"/>
<text text-anchor="start" x="50.2" y="-271" font-family="Arial" font-size="14.00">ID </text>
<text text-anchor="start" x="68.09" y="-271" font-family="Arial" font-size="14.00" fill="#666666">[STRING(36)]</text>
<polygon fill="none" stroke="black" points="43.2,-228 43.2,-258.8 306.94,-258.8 306.94,-228 43.2,-228"/>
<text text-anchor="start" x="50.2" y="-240.2" font-family="Arial" font-size="14.00">FeatureKey </text>
<text text-anchor="start" x="126.46" y="-240.2" font-family="Arial" font-size="14.00" fill="#666666">[STRING(64)]</text>
<polygon fill="none" stroke="black" points="43.2,-197.2 43.2,-228 306.94,-228 306.94,-197.2 43.2,-197.2"/>
<text text-anchor="start" x="50.2" y="-209.4" font-family="Arial" font-size="14.00">Name </text>
<text text-anchor="start" x="91.43" y="-209.4" font-family="Arial" font-size="14.00" fill="#666666">[STRING(64)]</text>
<polygon fill="none" stroke="black" points="43.2,-166.4 43.2,-197.2 306.94,-197.2 306.94,-166.4 43.2,-166.4"/>
<text text-anchor="start" x="50.2" y="-178.6" font-family="Arial" font-size="14.00">FeatureKey_Lowercase </text>
<text text-anchor="start" x="201.95" y="-178.6" font-family="Arial" font-size="14.00" fill="#666666">[STRING(64)]</text>
<polygon fill="none" stroke="black" points="43.2,-135.6 43.2,-166.4 306.94,-166.4 306.94,-135.6 43.2,-135.6"/>
<text text-anchor="start" x="50.2" y="-147.8" font-family="Arial" font-size="14.00">Name_Lowercase </text>
<text text-anchor="start" x="166.92" y="-147.8" font-family="Arial" font-size="14.00" fill="#666666">[STRING(64)]</text>
<polygon fill="none" stroke="black" points="43.2,-104.8 43.2,-135.6 306.94,-135.6 306.94,-104.8 43.2,-104.8"/>
<text text-anchor="start" x="50.2" y="-117" font-family="Arial" font-size="14.00">Description </text>
<text text-anchor="start" x="124.12" y="-117" font-family="Arial" font-size="14.00" fill="#666666">[STRING(MAX)]</text>
<polygon fill="none" stroke="black" points="43.2,-74 43.2,-104.8 306.94,-104.8 306.94,-74 43.2,-74"/>
<text text-anchor="start" x="50.2" y="-86.2" font-family="Arial" font-size="14.00">DescriptionHtml </text>
<text text-anchor="start" x="152.89" y="-86.2" font-family="Arial" font-size="14.00" fill="#666666">[STRING(MAX)]</text>
<polygon fill="none" stroke="black" points="43.2,-43.2 43.2,-74 306.94,-74 306.94,-43.2 43.2,-43.2"/>
<text text-anchor="start" x="50.2" y="-55.4" font-family="Arial" font-size="14.00">Description_Lowercase </text>
<text text-anchor="start" x="199.61" y="-55.4" font-family="Arial" font-size="14.00" fill="#666666">[STRING(MAX)]</text>
</g>
<!-- FeatureSpecs&#45;&gt;WebFeatures -->
<g id="edge1" class="edge">
<title>FeatureSpecs:WebFeatureID&#45;&gt;WebFeatures:ID</title>
<path fill="none" stroke="black" d="M305.52,-493.65C346.6,-466.6 354,-274.2 307.94,-274.2"/>
<polygon fill="black" stroke="black" points="305.48,-493.67 294.58,-492.41 300.39,-495.28 296.27,-496.6 296.27,-496.6 296.27,-496.6 300.39,-495.28 297.31,-500.99 305.48,-493.67"/>
<text text-anchor="start" x="302.63" y="-506.8" font-family="Arial" font-size="10.00">FOREIGN KEY (WebFeatureID) REFERENCES WebFeatures (ID) ON DELETE CASCADE</text>
</g>
</g>
</svg>
