<?xml version="1.0" encoding="UTF-8" standalone="no"?>
<!DOCTYPE svg PUBLIC "-//W3C//DTD SVG 1.1//EN"
 "http://www.w3.org/Graphics/SVG/1.1/DTD/svg11.dtd">
<!-- Generated by graphviz version 12.1.2 (20240928.0832)
 -->
<!-- Title: FeatureGroupKeysLookup Pages: 1 -->
<svg width="1168pt" height="664pt"
 viewBox="0.00 0.00 1167.60 663.60" xmlns="http://www.w3.org/2000/svg" xmlns:xlink="http://www.w3.org/1999/xlink">
<g id="graph0" class="graph" transform="scale(1 1) rotate(0) translate(4 659.6)">
<title>FeatureGroupKeysLookup</title>
<polygon fill="white" stroke="none" points="-4,4 -4,-659.6 1163.6,-659.6 1163.6,4 -4,4"/>
<!-- FeatureGroupKeysLookup -->
<g id="node1" class="node">
<title>FeatureGroupKeysLookup</title>
<polygon fill="#efefef" stroke="none" points="421.75,-573.8 421.75,-609.4 757.86,-609.4 757.86,-573.8 421.75,-573.8"/>
<polygon fill="none" stroke="black" points="421.75,-573.8 421.75,-609.4 757.86,-609.4 757.86,-573.8 421.75,-573.8"/>
<text text-anchor="start" x="428.75" y="-587.2" font-family="Arial Bold" font-size="18.00">FeatureGroupKeysLookup</text>
<text text-anchor="start" x="621.71" y="-587.2" font-family="Arial" font-size="14.00">    </text>
<text text-anchor="start" x="652.83" y="-587.2" font-family="Arial" font-size="14.00" fill="#666666">[BASIC TABLE]</text>
<polygon fill="none" stroke="black" points="421.75,-543 421.75,-573.8 757.86,-573.8 757.86,-543 421.75,-543"/>
<text text-anchor="start" x="428.75" y="-555.2" font-family="Arial" font-size="14.00">GroupKey_Lowercase </text>
<text text-anchor="start" x="571.17" y="-555.2" font-family="Arial" font-size="14.00" fill="#666666">[STRING(64)]</text>
<polygon fill="none" stroke="black" points="421.75,-512.2 421.75,-543 757.86,-543 757.86,-512.2 421.75,-512.2"/>
<text text-anchor="start" x="428.75" y="-524.4" font-family="Arial" font-size="14.00">WebFeatureID </text>
<text text-anchor="start" x="523.68" y="-524.4" font-family="Arial" font-size="14.00" fill="#666666">[STRING(36)]</text>
<polygon fill="none" stroke="black" points="421.75,-481.4 421.75,-512.2 757.86,-512.2 757.86,-481.4 421.75,-481.4"/>
<text text-anchor="start" x="428.75" y="-493.6" font-family="Arial" font-size="14.00">GroupID </text>
<text text-anchor="start" x="485.55" y="-493.6" font-family="Arial" font-size="14.00" fill="#666666">[STRING(36)]</text>
<polygon fill="none" stroke="black" points="421.75,-450.6 421.75,-481.4 757.86,-481.4 757.86,-450.6 421.75,-450.6"/>
<text text-anchor="start" x="428.75" y="-462.8" font-family="Arial" font-size="14.00">Depth </text>
<text text-anchor="start" x="470" y="-462.8" font-family="Arial" font-size="14.00" fill="#666666">[INT64]</text>
<polygon fill="none" stroke="black" stroke-width="3" points="420.25,-449.1 420.25,-610.9 759.36,-610.9 759.36,-449.1 420.25,-449.1"/>
</g>
<!-- WebFeatures -->
<g id="node2" class="node">
<title>WebFeatures</title>
<polygon fill="#efefef" stroke="none" points="275.94,-289.6 275.94,-325.2 539.67,-325.2 539.67,-289.6 275.94,-289.6"/>
<polygon fill="none" stroke="black" points="275.94,-289.6 275.94,-325.2 539.67,-325.2 539.67,-289.6 275.94,-289.6"/>
<text text-anchor="start" x="295.75" y="-303" font-family="Arial Bold" font-size="18.00">WebFeatures</text>
<text text-anchor="start" x="390.71" y="-303" font-family="Arial" font-size="14.00">    </text>
<text text-anchor="start" x="421.83" y="-303" font-family="Arial" font-size="14.00" fill="#666666">[BASIC TABLE]</text>
<polygon fill="none" stroke="black" points="275.94,-258.8 275.94,-289.6 539.67,-289.6 539.67,-258.8 275.94,-258.8"/>
<text text-anchor="start" x="282.94" y="-271" font-family="Arial" font-size="14.00">ID </text>
<text text-anchor="start" x="300.83" y="-271" font-family="Arial" font-size="14.00" fill="#666666">[STRING(36)]</text>
<polygon fill="none" stroke="black" points="275.94,-228 275.94,-258.8 539.67,-258.8 539.67,-228 275.94,-228"/>
<text text-anchor="start" x="282.94" y="-240.2" font-family="Arial" font-size="14.00">FeatureKey </text>
<text text-anchor="start" x="359.2" y="-240.2" font-family="Arial" font-size="14.00" fill="#666666">[STRING(64)]</text>
<polygon fill="none" stroke="black" points="275.94,-197.2 275.94,-228 539.67,-228 539.67,-197.2 275.94,-197.2"/>
<text text-anchor="start" x="282.94" y="-209.4" font-family="Arial" font-size="14.00">Name </text>
<text text-anchor="start" x="324.17" y="-209.4" font-family="Arial" font-size="14.00" fill="#666666">[STRING(64)]</text>
<polygon fill="none" stroke="black" points="275.94,-166.4 275.94,-197.2 539.67,-197.2 539.67,-166.4 275.94,-166.4"/>
<text text-anchor="start" x="282.94" y="-178.6" font-family="Arial" font-size="14.00">FeatureKey_Lowercase </text>
<text text-anchor="start" x="434.69" y="-178.6" font-family="Arial" font-size="14.00" fill="#666666">[STRING(64)]</text>
<polygon fill="none" stroke="black" points="275.94,-135.6 275.94,-166.4 539.67,-166.4 539.67,-135.6 275.94,-135.6"/>
<text text-anchor="start" x="282.94" y="-147.8" font-family="Arial" font-size="14.00">Name_Lowercase </text>
<text text-anchor="start" x="399.66" y="-147.8" font-family="Arial" font-size="14.00" fill="#666666">[STRING(64)]</text>
<polygon fill="none" stroke="black" points="275.94,-104.8 275.94,-135.6 539.67,-135.6 539.67,-104.8 275.94,-104.8"/>
<text text-anchor="start" x="282.94" y="-117" font-family="Arial" font-size="14.00">Description </text>
<text text-anchor="start" x="356.85" y="-117" font-family="Arial" font-size="14.00" fill="#666666">[STRING(MAX)]</text>
<polygon fill="none" stroke="black" points="275.94,-74 275.94,-104.8 539.67,-104.8 539.67,-74 275.94,-74"/>
<text text-anchor="start" x="282.94" y="-86.2" font-family="Arial" font-size="14.00">DescriptionHtml </text>
<text text-anchor="start" x="385.63" y="-86.2" font-family="Arial" font-size="14.00" fill="#666666">[STRING(MAX)]</text>
<polygon fill="none" stroke="black" points="275.94,-43.2 275.94,-74 539.67,-74 539.67,-43.2 275.94,-43.2"/>
<text text-anchor="start" x="282.94" y="-55.4" font-family="Arial" font-size="14.00">Description_Lowercase </text>
<text text-anchor="start" x="432.34" y="-55.4" font-family="Arial" font-size="14.00" fill="#666666">[STRING(MAX)]</text>
</g>
<!-- FeatureGroupKeysLookup&#45;&gt;WebFeatures -->
<g id="edge1" class="edge">
<title>FeatureGroupKeysLookup:WebFeatureID&#45;&gt;WebFeatures:ID</title>
<path fill="none" stroke="black" d="M410.59,-526.52C369.19,-516.92 391.23,-445.28 421.75,-404.4 454.54,-360.49 506.84,-412.27 539.67,-368.4 564.76,-334.88 582.54,-274.2 540.67,-274.2"/>
<polygon fill="black" stroke="black" points="410.48,-526.51 419.95,-532.04 415.78,-527.07 420.09,-527.53 420.09,-527.53 420.09,-527.53 415.78,-527.07 420.89,-523.09 410.48,-526.51"/>
<text text-anchor="start" x="7" y="-537.6" font-family="Arial" font-size="10.00">FOREIGN KEY (WebFeatureID) REFERENCES WebFeatures (ID) ON DELETE CASCADE</text>
</g>
<!-- WebDXGroups -->
<g id="node3" class="node">
<title>WebDXGroups</title>
<polygon fill="#efefef" stroke="none" points="643.74,-243.4 643.74,-279 899.87,-279 899.87,-243.4 643.74,-243.4"/>
<polygon fill="none" stroke="black" points="643.74,-243.4 643.74,-279 899.87,-279 899.87,-243.4 643.74,-243.4"/>
<text text-anchor="start" x="650.74" y="-256.8" font-family="Arial Bold" font-size="18.00">WebDXGroups</text>
<text text-anchor="start" x="763.72" y="-256.8" font-family="Arial" font-size="14.00">    </text>
<text text-anchor="start" x="794.83" y="-256.8" font-family="Arial" font-size="14.00" fill="#666666">[BASIC TABLE]</text>
<polygon fill="none" stroke="black" points="643.74,-212.6 643.74,-243.4 899.87,-243.4 899.87,-212.6 643.74,-212.6"/>
<text text-anchor="start" x="650.74" y="-224.8" font-family="Arial" font-size="14.00">ID </text>
<text text-anchor="start" x="668.63" y="-224.8" font-family="Arial" font-size="14.00" fill="#666666">[STRING(36)]</text>
<polygon fill="none" stroke="black" points="643.74,-181.8 643.74,-212.6 899.87,-212.6 899.87,-181.8 643.74,-181.8"/>
<text text-anchor="start" x="650.74" y="-194" font-family="Arial" font-size="14.00">GroupKey </text>
<text text-anchor="start" x="717.67" y="-194" font-family="Arial" font-size="14.00" fill="#666666">[STRING(64)]</text>
<polygon fill="none" stroke="black" points="643.74,-151 643.74,-181.8 899.87,-181.8 899.87,-151 643.74,-151"/>
<text text-anchor="start" x="650.74" y="-163.2" font-family="Arial" font-size="14.00">Name </text>
<text text-anchor="start" x="691.98" y="-163.2" font-family="Arial" font-size="14.00" fill="#666666">[STRING(64)]</text>
<polygon fill="none" stroke="black" points="643.74,-120.2 643.74,-151 899.87,-151 899.87,-120.2 643.74,-120.2"/>
<text text-anchor="start" x="650.74" y="-132.4" font-family="Arial" font-size="14.00">GroupKey_Lowercase </text>
<text text-anchor="start" x="793.16" y="-132.4" font-family="Arial" font-size="14.00" fill="#666666">[STRING(64)]</text>
<polygon fill="none" stroke="black" points="643.74,-89.4 643.74,-120.2 899.87,-120.2 899.87,-89.4 643.74,-89.4"/>
<text text-anchor="start" x="650.74" y="-101.6" font-family="Arial" font-size="14.00">Name_Lowercase </text>
<text text-anchor="start" x="767.47" y="-101.6" font-family="Arial" font-size="14.00" fill="#666666">[STRING(64)]</text>
</g>
<!-- FeatureGroupKeysLookup&#45;&gt;WebDXGroups -->
<g id="edge2" class="edge">
<title>FeatureGroupKeysLookup:GroupID&#45;&gt;WebDXGroups:ID</title>
<path fill="none" stroke="black" d="M769.12,-495.27C795.45,-486.06 774.93,-437.29 757.86,-404.4 729.07,-348.92 672.53,-377.68 643.74,-322.2 624.46,-285.04 600.87,-228 642.74,-228"/>
<polygon fill="black" stroke="black" points="769.08,-495.28 758.53,-492.3 763.8,-496.06 759.52,-496.7 759.52,-496.7 759.52,-496.7 763.8,-496.06 759.85,-501.2 769.08,-495.28"/>
<text text-anchor="start" x="765.86" y="-506.8" font-family="Arial" font-size="10.00">FOREIGN KEY (GroupID) REFERENCES WebDXGroups (ID) ON DELETE CASCADE</text>
</g>
</g>
</svg>
