<?xml version="1.0" encoding="UTF-8" standalone="no"?>
<!DOCTYPE svg PUBLIC "-//W3C//DTD SVG 1.1//EN"
 "http://www.w3.org/Graphics/SVG/1.1/DTD/svg11.dtd">
<!-- Generated by graphviz version 2.40.1 (20161225.0304)
 -->
<!-- Title: FeatureBaselineStatus Pages: 1 -->
<svg width="428pt" height="502pt"
 viewBox="0.00 0.00 428.00 502.00" xmlns="http://www.w3.org/2000/svg" xmlns:xlink="http://www.w3.org/1999/xlink">
<g id="graph0" class="graph" transform="scale(1 1) rotate(0) translate(4 498)">
<title>FeatureBaselineStatus</title>
<polygon fill="#ffffff" stroke="transparent" points="-4,4 -4,-498 424,-498 424,4 -4,4"/>
<!-- FeatureBaselineStatus -->
<g id="node1" class="node">
<title>FeatureBaselineStatus</title>
<polygon fill="#efefef" stroke="transparent" points="46,-412.5 46,-447.5 374,-447.5 374,-412.5 46,-412.5"/>
<polygon fill="none" stroke="#000000" points="46,-412.5 46,-447.5 374,-447.5 374,-412.5 46,-412.5"/>
<text text-anchor="start" x="52.8588" y="-425.3" font-family="Arial Bold" font-size="18.00" fill="#000000">FeatureBaselineStatus</text>
<text text-anchor="start" x="234.9126" y="-425.3" font-family="Arial" font-size="14.00" fill="#000000">    </text>
<text text-anchor="start" x="269.1174" y="-425.3" font-family="Arial" font-size="14.00" fill="#666666">[BASIC TABLE]</text>
<polygon fill="none" stroke="#000000" points="46,-382.5 46,-412.5 374,-412.5 374,-382.5 46,-382.5"/>
<text text-anchor="start" x="53" y="-393.9" font-family="Arial" font-size="14.00" fill="#000000">FeatureID </text>
<text text-anchor="start" x="119.122" y="-393.9" font-family="Arial" font-size="14.00" fill="#666666">[STRING(64)]</text>
<polygon fill="none" stroke="#000000" points="46,-352.5 46,-382.5 374,-382.5 374,-352.5 46,-352.5"/>
<text text-anchor="start" x="53" y="-363.9" font-family="Arial" font-size="14.00" fill="#000000">Status </text>
<text text-anchor="start" x="96.5736" y="-363.9" font-family="Arial" font-size="14.00" fill="#666666">[STRING(16)]</text>
<polygon fill="none" stroke="#000000" points="46,-322.5 46,-352.5 374,-352.5 374,-322.5 46,-322.5"/>
<text text-anchor="start" x="53" y="-333.9" font-family="Arial" font-size="14.00" fill="#000000">LowDate </text>
<text text-anchor="start" x="112.1248" y="-333.9" font-family="Arial" font-size="14.00" fill="#666666">[TIMESTAMP]</text>
<polygon fill="none" stroke="#000000" points="46,-292.5 46,-322.5 374,-322.5 374,-292.5 46,-292.5"/>
<text text-anchor="start" x="53" y="-303.9" font-family="Arial" font-size="14.00" fill="#000000">HighDate </text>
<text text-anchor="start" x="115.2314" y="-303.9" font-family="Arial" font-size="14.00" fill="#666666">[TIMESTAMP]</text>
<polygon fill="none" stroke="#000000" stroke-width="3" points="44.5,-291.5 44.5,-449.5 375.5,-449.5 375.5,-291.5 44.5,-291.5"/>
</g>
<!-- WebFeatures -->
<g id="node2" class="node">
<title>WebFeatures</title>
<polygon fill="#efefef" stroke="transparent" points="83,-132.5 83,-167.5 337,-167.5 337,-132.5 83,-132.5"/>
<polygon fill="none" stroke="#000000" points="83,-132.5 83,-167.5 337,-167.5 337,-132.5 83,-132.5"/>
<text text-anchor="start" x="89.8767" y="-145.3" font-family="Arial Bold" font-size="18.00" fill="#000000">WebFeatures</text>
<text text-anchor="start" x="197.8947" y="-145.3" font-family="Arial" font-size="14.00" fill="#000000">    </text>
<text text-anchor="start" x="232.0995" y="-145.3" font-family="Arial" font-size="14.00" fill="#666666">[BASIC TABLE]</text>
<polygon fill="none" stroke="#000000" points="83,-102.5 83,-132.5 337,-132.5 337,-102.5 83,-102.5"/>
<text text-anchor="start" x="90" y="-113.9" font-family="Arial" font-size="14.00" fill="#000000">ID    </text>
<text text-anchor="start" x="138.202" y="-113.9" font-family="Arial" font-size="14.00" fill="#666666">[STRING(36)]</text>
<polygon fill="none" stroke="#000000" points="83,-72.5 83,-102.5 337,-102.5 337,-72.5 83,-72.5"/>
<text text-anchor="start" x="90" y="-83.9" font-family="Arial" font-size="14.00" fill="#000000">FeatureID    </text>
<text text-anchor="start" x="186.4362" y="-83.9" font-family="Arial" font-size="14.00" fill="#666666">[STRING(64)]</text>
<polygon fill="none" stroke="#000000" points="83,-42.5 83,-72.5 337,-72.5 337,-42.5 83,-42.5"/>
<text text-anchor="start" x="90" y="-53.9" font-family="Arial" font-size="14.00" fill="#000000">Name    </text>
<text text-anchor="start" x="161.5372" y="-53.9" font-family="Arial" font-size="14.00" fill="#666666">[STRING(64)]</text>
</g>
<!-- FeatureBaselineStatus&#45;&gt;WebFeatures -->
<g id="edge1" class="edge">
<title>FeatureBaselineStatus:FeatureID&#45;&gt;WebFeatures:FeatureID</title>
<path fill="none" stroke="#000000" stroke-dasharray="5,2" d="M383.756,-395.183C439.5365,-366.815 402.8547,-87.5 337,-87.5"/>
<polygon fill="#000000" stroke="#000000" points="383.7294,-395.1892 372.9601,-393.1218 378.8647,-396.3446 374,-397.5 374,-397.5 374,-397.5 378.8647,-396.3446 375.0399,-401.8782 383.7294,-395.1892 383.7294,-395.1892"/>
</g>
</g>
</svg>
