<?xml version="1.0" encoding="UTF-8" standalone="no"?>
<!DOCTYPE svg PUBLIC "-//W3C//DTD SVG 1.1//EN"
 "http://www.w3.org/Graphics/SVG/1.1/DTD/svg11.dtd">
<!-- Generated by graphviz version 2.40.1 (20161225.0304)
 -->
<!-- Title: FeatureBaselineStatus Pages: 1 -->
<svg width="428pt" height="652pt"
 viewBox="0.00 0.00 428.00 652.00" xmlns="http://www.w3.org/2000/svg" xmlns:xlink="http://www.w3.org/1999/xlink">
<g id="graph0" class="graph" transform="scale(1 1) rotate(0) translate(4 648)">
<title>FeatureBaselineStatus</title>
<polygon fill="#ffffff" stroke="transparent" points="-4,4 -4,-648 424,-648 424,4 -4,4"/>
<!-- FeatureBaselineStatus -->
<g id="node1" class="node">
<title>FeatureBaselineStatus</title>
<polygon fill="#efefef" stroke="transparent" points="46,-562.5 46,-597.5 374,-597.5 374,-562.5 46,-562.5"/>
<polygon fill="none" stroke="#000000" points="46,-562.5 46,-597.5 374,-597.5 374,-562.5 46,-562.5"/>
<text text-anchor="start" x="52.8588" y="-575.3" font-family="Arial Bold" font-size="18.00" fill="#000000">FeatureBaselineStatus</text>
<text text-anchor="start" x="234.9126" y="-575.3" font-family="Arial" font-size="14.00" fill="#000000">    </text>
<text text-anchor="start" x="269.1174" y="-575.3" font-family="Arial" font-size="14.00" fill="#666666">[BASIC TABLE]</text>
<polygon fill="none" stroke="#000000" points="46,-532.5 46,-562.5 374,-562.5 374,-532.5 46,-532.5"/>
<text text-anchor="start" x="53" y="-543.9" font-family="Arial" font-size="14.00" fill="#000000">WebFeatureID </text>
<text text-anchor="start" x="147.9018" y="-543.9" font-family="Arial" font-size="14.00" fill="#666666">[STRING(36)]</text>
<polygon fill="none" stroke="#000000" points="46,-502.5 46,-532.5 374,-532.5 374,-502.5 46,-502.5"/>
<text text-anchor="start" x="53" y="-513.9" font-family="Arial" font-size="14.00" fill="#000000">Status </text>
<text text-anchor="start" x="96.5736" y="-513.9" font-family="Arial" font-size="14.00" fill="#666666">[STRING(16)]</text>
<polygon fill="none" stroke="#000000" points="46,-472.5 46,-502.5 374,-502.5 374,-472.5 46,-472.5"/>
<text text-anchor="start" x="53" y="-483.9" font-family="Arial" font-size="14.00" fill="#000000">LowDate </text>
<text text-anchor="start" x="112.1248" y="-483.9" font-family="Arial" font-size="14.00" fill="#666666">[TIMESTAMP]</text>
<polygon fill="none" stroke="#000000" points="46,-442.5 46,-472.5 374,-472.5 374,-442.5 46,-442.5"/>
<text text-anchor="start" x="53" y="-453.9" font-family="Arial" font-size="14.00" fill="#000000">HighDate </text>
<text text-anchor="start" x="115.2314" y="-453.9" font-family="Arial" font-size="14.00" fill="#666666">[TIMESTAMP]</text>
<polygon fill="none" stroke="#000000" stroke-width="3" points="44.5,-441.5 44.5,-599.5 375.5,-599.5 375.5,-441.5 44.5,-441.5"/>
</g>
<!-- WebFeatures -->
<g id="node2" class="node">
<title>WebFeatures</title>
<polygon fill="#efefef" stroke="transparent" points="63,-282.5 63,-317.5 356,-317.5 356,-282.5 63,-282.5"/>
<polygon fill="none" stroke="#000000" points="63,-282.5 63,-317.5 356,-317.5 356,-282.5 63,-282.5"/>
<text text-anchor="start" x="89.3767" y="-295.3" font-family="Arial Bold" font-size="18.00" fill="#000000">WebFeatures</text>
<text text-anchor="start" x="197.3947" y="-295.3" font-family="Arial" font-size="14.00" fill="#000000">    </text>
<text text-anchor="start" x="231.5995" y="-295.3" font-family="Arial" font-size="14.00" fill="#666666">[BASIC TABLE]</text>
<polygon fill="none" stroke="#000000" points="63,-252.5 63,-282.5 356,-282.5 356,-252.5 63,-252.5"/>
<text text-anchor="start" x="70" y="-263.9" font-family="Arial" font-size="14.00" fill="#000000">ID    </text>
<text text-anchor="start" x="118.202" y="-263.9" font-family="Arial" font-size="14.00" fill="#666666">[STRING(36)]</text>
<polygon fill="none" stroke="#000000" points="63,-222.5 63,-252.5 356,-252.5 356,-222.5 63,-222.5"/>
<text text-anchor="start" x="70" y="-233.9" font-family="Arial" font-size="14.00" fill="#000000">FeatureKey    </text>
<text text-anchor="start" x="176.5582" y="-233.9" font-family="Arial" font-size="14.00" fill="#666666">[STRING(64)]</text>
<polygon fill="none" stroke="#000000" points="63,-192.5 63,-222.5 356,-222.5 356,-192.5 63,-192.5"/>
<text text-anchor="start" x="70" y="-203.9" font-family="Arial" font-size="14.00" fill="#000000">Name    </text>
<text text-anchor="start" x="141.5372" y="-203.9" font-family="Arial" font-size="14.00" fill="#666666">[STRING(64)]</text>
<polygon fill="none" stroke="#000000" points="63,-162.5 63,-192.5 356,-192.5 356,-162.5 63,-162.5"/>
<text text-anchor="start" x="70" y="-173.9" font-family="Arial" font-size="14.00" fill="#000000">FeatureKey_Lowercase    </text>
<text text-anchor="start" x="252.021" y="-173.9" font-family="Arial" font-size="14.00" fill="#666666">[STRING(64)]</text>
<polygon fill="none" stroke="#000000" points="63,-132.5 63,-162.5 356,-162.5 356,-132.5 63,-132.5"/>
<text text-anchor="start" x="70" y="-143.9" font-family="Arial" font-size="14.00" fill="#000000">Name_Lowercase    </text>
<text text-anchor="start" x="217" y="-143.9" font-family="Arial" font-size="14.00" fill="#666666">[STRING(64)]</text>
<polygon fill="none" stroke="#000000" points="63,-102.5 63,-132.5 356,-132.5 356,-102.5 63,-102.5"/>
<text text-anchor="start" x="70" y="-113.9" font-family="Arial" font-size="14.00" fill="#000000">Description    </text>
<text text-anchor="start" x="174.2062" y="-113.9" font-family="Arial" font-size="14.00" fill="#666666">[STRING(MAX)]</text>
<polygon fill="none" stroke="#000000" points="63,-72.5 63,-102.5 356,-102.5 356,-72.5 63,-72.5"/>
<text text-anchor="start" x="70" y="-83.9" font-family="Arial" font-size="14.00" fill="#000000">DescriptionHtml    </text>
<text text-anchor="start" x="202.9706" y="-83.9" font-family="Arial" font-size="14.00" fill="#666666">[STRING(MAX)]</text>
<polygon fill="none" stroke="#000000" points="63,-42.5 63,-72.5 356,-72.5 356,-42.5 63,-42.5"/>
<text text-anchor="start" x="69.5056" y="-53.9" font-family="Arial" font-size="14.00" fill="#000000">Description_Lowercase    </text>
<text text-anchor="start" x="249.1746" y="-53.9" font-family="Arial" font-size="14.00" fill="#666666">[STRING(MAX)]</text>
</g>
<!-- FeatureBaselineStatus&#45;&gt;WebFeatures -->
<g id="edge1" class="edge">
<title>FeatureBaselineStatus:WebFeatureID&#45;&gt;WebFeatures:ID</title>
<path fill="none" stroke="#000000" stroke-dasharray="5,2" d="M35.8162,-546.6226C-18.3725,-536.6538 3.9468,-444.2194 46,-397 138.2482,-293.4192 263.7518,-464.5808 356,-361 383.6375,-329.9672 397.5556,-267.5 356,-267.5"/>
<polygon fill="#000000" stroke="#000000" points="36.0369,-546.6415 45.6137,-551.9834 41.0185,-547.0708 46,-547.5 46,-547.5 46,-547.5 41.0185,-547.0708 46.3863,-543.0166 36.0369,-546.6415 36.0369,-546.6415"/>
</g>
</g>
</svg>
