<?xml version="1.0" encoding="UTF-8" standalone="no"?>
<!DOCTYPE svg PUBLIC "-//W3C//DTD SVG 1.1//EN"
 "http://www.w3.org/Graphics/SVG/1.1/DTD/svg11.dtd">
<!-- Generated by graphviz version 12.1.2 (20240928.0832)
 -->
<!-- Title: FeatureBaselineStatus Pages: 1 -->
<svg width="779pt" height="664pt"
 viewBox="0.00 0.00 779.07 663.60" xmlns="http://www.w3.org/2000/svg" xmlns:xlink="http://www.w3.org/1999/xlink">
<g id="graph0" class="graph" transform="scale(1 1) rotate(0) translate(4 659.6)">
<title>FeatureBaselineStatus</title>
<polygon fill="white" stroke="none" points="-4,4 -4,-659.6 775.07,-659.6 775.07,4 -4,4"/>
<!-- FeatureBaselineStatus -->
<g id="node1" class="node">
<title>FeatureBaselineStatus</title>
<polygon fill="#efefef" stroke="none" points="46.2,-573.8 46.2,-609.4 349.31,-609.4 349.31,-573.8 46.2,-573.8"/>
<polygon fill="none" stroke="black" points="46.2,-573.8 46.2,-609.4 349.31,-609.4 349.31,-573.8 46.2,-573.8"/>
<text text-anchor="start" x="53.2" y="-587.2" font-family="Arial Bold" font-size="18.00">FeatureBaselineStatus</text>
<text text-anchor="start" x="213.16" y="-587.2" font-family="Arial" font-size="14.00">    </text>
<text text-anchor="start" x="244.28" y="-587.2" font-family="Arial" font-size="14.00" fill="#666666">[BASIC TABLE]</text>
<polygon fill="none" stroke="black" points="46.2,-543 46.2,-573.8 349.31,-573.8 349.31,-543 46.2,-543"/>
<text text-anchor="start" x="53.2" y="-555.2" font-family="Arial" font-size="14.00">WebFeatureID </text>
<text text-anchor="start" x="148.12" y="-555.2" font-family="Arial" font-size="14.00" fill="#666666">[STRING(36)]</text>
<polygon fill="none" stroke="black" points="46.2,-512.2 46.2,-543 349.31,-543 349.31,-512.2 46.2,-512.2"/>
<text text-anchor="start" x="53.2" y="-524.4" font-family="Arial" font-size="14.00">Status </text>
<text text-anchor="start" x="96.78" y="-524.4" font-family="Arial" font-size="14.00" fill="#666666">[STRING(16)]</text>
<polygon fill="none" stroke="black" points="46.2,-481.4 46.2,-512.2 349.31,-512.2 349.31,-481.4 46.2,-481.4"/>
<text text-anchor="start" x="53.2" y="-493.6" font-family="Arial" font-size="14.00">LowDate </text>
<text text-anchor="start" x="112.34" y="-493.6" font-family="Arial" font-size="14.00" fill="#666666">[TIMESTAMP]</text>
<polygon fill="none" stroke="black" points="46.2,-450.6 46.2,-481.4 349.31,-481.4 349.31,-450.6 46.2,-450.6"/>
<text text-anchor="start" x="53.2" y="-462.8" font-family="Arial" font-size="14.00">HighDate </text>
<text text-anchor="start" x="115.45" y="-462.8" font-family="Arial" font-size="14.00" fill="#666666">[TIMESTAMP]</text>
<polygon fill="none" stroke="black" stroke-width="3" points="44.7,-449.1 44.7,-610.9 350.81,-610.9 350.81,-449.1 44.7,-449.1"/>
</g>
<!-- WebFeatures -->
<g id="node2" class="node">
<title>WebFeatures</title>
<polygon fill="#efefef" stroke="none" points="65.89,-289.6 65.89,-325.2 329.62,-325.2 329.62,-289.6 65.89,-289.6"/>
<polygon fill="none" stroke="black" points="65.89,-289.6 65.89,-325.2 329.62,-325.2 329.62,-289.6 65.89,-289.6"/>
<text text-anchor="start" x="85.7" y="-303" font-family="Arial Bold" font-size="18.00">WebFeatures</text>
<text text-anchor="start" x="180.66" y="-303" font-family="Arial" font-size="14.00">    </text>
<text text-anchor="start" x="211.78" y="-303" font-family="Arial" font-size="14.00" fill="#666666">[BASIC TABLE]</text>
<polygon fill="none" stroke="black" points="65.89,-258.8 65.89,-289.6 329.62,-289.6 329.62,-258.8 65.89,-258.8"/>
<text text-anchor="start" x="72.89" y="-271" font-family="Arial" font-size="14.00">ID </text>
<text text-anchor="start" x="90.78" y="-271" font-family="Arial" font-size="14.00" fill="#666666">[STRING(36)]</text>
<polygon fill="none" stroke="black" points="65.89,-228 65.89,-258.8 329.62,-258.8 329.62,-228 65.89,-228"/>
<text text-anchor="start" x="72.89" y="-240.2" font-family="Arial" font-size="14.00">FeatureKey </text>
<text text-anchor="start" x="149.15" y="-240.2" font-family="Arial" font-size="14.00" fill="#666666">[STRING(64)]</text>
<polygon fill="none" stroke="black" points="65.89,-197.2 65.89,-228 329.62,-228 329.62,-197.2 65.89,-197.2"/>
<text text-anchor="start" x="72.89" y="-209.4" font-family="Arial" font-size="14.00">Name </text>
<text text-anchor="start" x="114.12" y="-209.4" font-family="Arial" font-size="14.00" fill="#666666">[STRING(64)]</text>
<polygon fill="none" stroke="black" points="65.89,-166.4 65.89,-197.2 329.62,-197.2 329.62,-166.4 65.89,-166.4"/>
<text text-anchor="start" x="72.89" y="-178.6" font-family="Arial" font-size="14.00">FeatureKey_Lowercase </text>
<text text-anchor="start" x="224.64" y="-178.6" font-family="Arial" font-size="14.00" fill="#666666">[STRING(64)]</text>
<polygon fill="none" stroke="black" points="65.89,-135.6 65.89,-166.4 329.62,-166.4 329.62,-135.6 65.89,-135.6"/>
<text text-anchor="start" x="72.89" y="-147.8" font-family="Arial" font-size="14.00">Name_Lowercase </text>
<text text-anchor="start" x="189.61" y="-147.8" font-family="Arial" font-size="14.00" fill="#666666">[STRING(64)]</text>
<polygon fill="none" stroke="black" points="65.89,-104.8 65.89,-135.6 329.62,-135.6 329.62,-104.8 65.89,-104.8"/>
<text text-anchor="start" x="72.89" y="-117" font-family="Arial" font-size="14.00">Description </text>
<text text-anchor="start" x="146.8" y="-117" font-family="Arial" font-size="14.00" fill="#666666">[STRING(MAX)]</text>
<polygon fill="none" stroke="black" points="65.89,-74 65.89,-104.8 329.62,-104.8 329.62,-74 65.89,-74"/>
<text text-anchor="start" x="72.89" y="-86.2" font-family="Arial" font-size="14.00">DescriptionHtml </text>
<text text-anchor="start" x="175.58" y="-86.2" font-family="Arial" font-size="14.00" fill="#666666">[STRING(MAX)]</text>
<polygon fill="none" stroke="black" points="65.89,-43.2 65.89,-74 329.62,-74 329.62,-43.2 65.89,-43.2"/>
<text text-anchor="start" x="72.89" y="-55.4" font-family="Arial" font-size="14.00">Description_Lowercase </text>
<text text-anchor="start" x="222.29" y="-55.4" font-family="Arial" font-size="14.00" fill="#666666">[STRING(MAX)]</text>
</g>
<!-- FeatureBaselineStatus&#45;&gt;WebFeatures -->
<g id="edge1" class="edge">
<title>FeatureBaselineStatus:WebFeatureID&#45;&gt;WebFeatures:ID</title>
<path fill="none" stroke="black" d="M360.28,-555.77C411.25,-527.12 390.35,-274.2 330.62,-274.2"/>
<polygon fill="black" stroke="black" points="360.3,-555.76 349.49,-553.96 355.15,-557.12 350.96,-558.23 350.96,-558.23 350.96,-558.23 355.15,-557.12 351.78,-562.67 360.3,-555.76"/>
<text text-anchor="start" x="357.31" y="-568.4" font-family="Arial" font-size="10.00">FOREIGN KEY (WebFeatureID) REFERENCES WebFeatures (ID) ON DELETE CASCADE</text>
</g>
</g>
</svg>
