<?xml version="1.0" encoding="UTF-8" standalone="no"?>
<!DOCTYPE svg PUBLIC "-//W3C//DTD SVG 1.1//EN"
 "http://www.w3.org/Graphics/SVG/1.1/DTD/svg11.dtd">
<!-- Generated by graphviz version 2.40.1 (20161225.0304)
 -->
<!-- Title: FeatureDiscouragedDetails Pages: 1 -->
<svg width="464pt" height="225pt"
 viewBox="0.00 0.00 464.00 225.00" xmlns="http://www.w3.org/2000/svg" xmlns:xlink="http://www.w3.org/1999/xlink">
<g id="graph0" class="graph" transform="scale(1 1) rotate(0) translate(4 221)">
<title>FeatureDiscouragedDetails</title>
<polygon fill="#ffffff" stroke="transparent" points="-4,4 -4,-221 460,-221 460,4 -4,4"/>
<!-- FeatureDiscouragedDetails -->
<g id="node1" class="node">
<title>FeatureDiscouragedDetails</title>
<polygon fill="#efefef" stroke="transparent" points="46,-135.5 46,-170.5 410,-170.5 410,-135.5 46,-135.5"/>
<polygon fill="none" stroke="#000000" points="46,-135.5 46,-170.5 410,-170.5 410,-135.5 46,-135.5"/>
<text text-anchor="start" x="52.8705" y="-148.3" font-family="Arial Bold" font-size="18.00" fill="#000000">FeatureDiscouragedDetails</text>
<text text-anchor="start" x="270.9009" y="-148.3" font-family="Arial" font-size="14.00" fill="#000000">    </text>
<text text-anchor="start" x="305.1057" y="-148.3" font-family="Arial" font-size="14.00" fill="#666666">[BASIC TABLE]</text>
<polygon fill="none" stroke="#000000" points="46,-105.5 46,-135.5 410,-135.5 410,-105.5 46,-105.5"/>
<text text-anchor="start" x="53" y="-116.9" font-family="Arial" font-size="14.00" fill="#000000">WebFeatureID </text>
<text text-anchor="start" x="147.9018" y="-116.9" font-family="Arial" font-size="14.00" fill="#666666">[STRING(MAX)]</text>
<polygon fill="none" stroke="#000000" points="46,-75.5 46,-105.5 410,-105.5 410,-75.5 46,-75.5"/>
<text text-anchor="start" x="53" y="-86.9" font-family="Arial" font-size="14.00" fill="#000000">AccordingTo </text>
<text text-anchor="start" x="135.46" y="-86.9" font-family="Arial" font-size="14.00" fill="#666666">[ARRAY&lt;STRING(MAX)&gt;]</text>
<polygon fill="none" stroke="#000000" points="46,-45.5 46,-75.5 410,-75.5 410,-45.5 46,-45.5"/>
<text text-anchor="start" x="53" y="-56.9" font-family="Arial" font-size="14.00" fill="#000000">Alternatives </text>
<text text-anchor="start" x="130.0126" y="-56.9" font-family="Arial" font-size="14.00" fill="#666666">[ARRAY&lt;STRING(MAX)&gt;]</text>
<polygon fill="none" stroke="#000000" stroke-width="3" points="44.5,-44.5 44.5,-172.5 411.5,-172.5 411.5,-44.5 44.5,-44.5"/>
</g>
</g>
</svg>
