<?xml version="1.0" encoding="UTF-8" standalone="no"?>
<!DOCTYPE svg PUBLIC "-//W3C//DTD SVG 1.1//EN"
 "http://www.w3.org/Graphics/SVG/1.1/DTD/svg11.dtd">
<!-- Generated by graphviz version 2.40.1 (20161225.0304)
 -->
<!-- Title: FeatureSpecs Pages: 1 -->
<svg width="358pt" height="195pt"
 viewBox="0.00 0.00 358.00 195.00" xmlns="http://www.w3.org/2000/svg" xmlns:xlink="http://www.w3.org/1999/xlink">
<g id="graph0" class="graph" transform="scale(1 1) rotate(0) translate(4 191)">
<title>FeatureSpecs</title>
<polygon fill="#ffffff" stroke="transparent" points="-4,4 -4,-191 354,-191 354,4 -4,4"/>
<!-- FeatureSpecs -->
<g id="node1" class="node">
<title>FeatureSpecs</title>
<polygon fill="#efefef" stroke="transparent" points="46,-105.5 46,-140.5 304,-140.5 304,-105.5 46,-105.5"/>
<polygon fill="none" stroke="#000000" points="46,-105.5 46,-140.5 304,-140.5 304,-105.5 46,-105.5"/>
<text text-anchor="start" x="52.8697" y="-118.3" font-family="Arial Bold" font-size="18.00" fill="#000000">FeatureSpecs</text>
<text text-anchor="start" x="164.9017" y="-118.3" font-family="Arial" font-size="14.00" fill="#000000">    </text>
<text text-anchor="start" x="199.1065" y="-118.3" font-family="Arial" font-size="14.00" fill="#666666">[BASIC TABLE]</text>
<polygon fill="none" stroke="#000000" points="46,-75.5 46,-105.5 304,-105.5 304,-75.5 46,-75.5"/>
<text text-anchor="start" x="53" y="-86.9" font-family="Arial" font-size="14.00" fill="#000000">WebFeatureID </text>
<text text-anchor="start" x="147.9018" y="-86.9" font-family="Arial" font-size="14.00" fill="#666666">[STRING(36)]</text>
<polygon fill="none" stroke="#000000" points="46,-45.5 46,-75.5 304,-75.5 304,-45.5 46,-45.5"/>
<text text-anchor="start" x="53" y="-56.9" font-family="Arial" font-size="14.00" fill="#000000">Links </text>
<text text-anchor="start" x="89.5624" y="-56.9" font-family="Arial" font-size="14.00" fill="#666666">[ARRAY&lt;STRING(MAX)&gt;]</text>
<polygon fill="none" stroke="#000000" stroke-width="3" points="44.5,-44.5 44.5,-142.5 305.5,-142.5 305.5,-44.5 44.5,-44.5"/>
</g>
</g>
</svg>
