<?xml version="1.0" encoding="UTF-8" standalone="no"?>
<!DOCTYPE svg PUBLIC "-//W3C//DTD SVG 1.1//EN"
 "http://www.w3.org/Graphics/SVG/1.1/DTD/svg11.dtd">
<!-- Generated by graphviz version 2.40.1 (20161225.0304)
 -->
<!-- Title: FeatureBaselineStatus Pages: 1 -->
<svg width="428pt" height="562pt"
 viewBox="0.00 0.00 428.00 562.00" xmlns="http://www.w3.org/2000/svg" xmlns:xlink="http://www.w3.org/1999/xlink">
<g id="graph0" class="graph" transform="scale(1 1) rotate(0) translate(4 558)">
<title>FeatureBaselineStatus</title>
<polygon fill="#ffffff" stroke="transparent" points="-4,4 -4,-558 424,-558 424,4 -4,4"/>
<!-- FeatureBaselineStatus -->
<g id="node1" class="node">
<title>FeatureBaselineStatus</title>
<polygon fill="#efefef" stroke="transparent" points="46,-472.5 46,-507.5 374,-507.5 374,-472.5 46,-472.5"/>
<polygon fill="none" stroke="#000000" points="46,-472.5 46,-507.5 374,-507.5 374,-472.5 46,-472.5"/>
<text text-anchor="start" x="52.8588" y="-485.3" font-family="Arial Bold" font-size="18.00" fill="#000000">FeatureBaselineStatus</text>
<text text-anchor="start" x="234.9126" y="-485.3" font-family="Arial" font-size="14.00" fill="#000000">    </text>
<text text-anchor="start" x="269.1174" y="-485.3" font-family="Arial" font-size="14.00" fill="#666666">[BASIC TABLE]</text>
<polygon fill="none" stroke="#000000" points="46,-442.5 46,-472.5 374,-472.5 374,-442.5 46,-442.5"/>
<text text-anchor="start" x="53" y="-453.9" font-family="Arial" font-size="14.00" fill="#000000">FeatureID </text>
<text text-anchor="start" x="119.122" y="-453.9" font-family="Arial" font-size="14.00" fill="#666666">[STRING(36)]</text>
<polygon fill="none" stroke="#000000" points="46,-412.5 46,-442.5 374,-442.5 374,-412.5 46,-412.5"/>
<text text-anchor="start" x="53" y="-423.9" font-family="Arial" font-size="14.00" fill="#000000">Status </text>
<text text-anchor="start" x="96.5736" y="-423.9" font-family="Arial" font-size="14.00" fill="#666666">[STRING(16)]</text>
<polygon fill="none" stroke="#000000" points="46,-382.5 46,-412.5 374,-412.5 374,-382.5 46,-382.5"/>
<text text-anchor="start" x="53" y="-393.9" font-family="Arial" font-size="14.00" fill="#000000">LowDate </text>
<text text-anchor="start" x="112.1248" y="-393.9" font-family="Arial" font-size="14.00" fill="#666666">[TIMESTAMP]</text>
<polygon fill="none" stroke="#000000" points="46,-352.5 46,-382.5 374,-382.5 374,-352.5 46,-352.5"/>
<text text-anchor="start" x="53" y="-363.9" font-family="Arial" font-size="14.00" fill="#000000">HighDate </text>
<text text-anchor="start" x="115.2314" y="-363.9" font-family="Arial" font-size="14.00" fill="#666666">[TIMESTAMP]</text>
<polygon fill="none" stroke="#000000" stroke-width="3" points="44.5,-351.5 44.5,-509.5 375.5,-509.5 375.5,-351.5 44.5,-351.5"/>
</g>
<!-- WebFeatures -->
<g id="node2" class="node">
<title>WebFeatures</title>
<polygon fill="#efefef" stroke="transparent" points="74,-192.5 74,-227.5 345,-227.5 345,-192.5 74,-192.5"/>
<polygon fill="none" stroke="#000000" points="74,-192.5 74,-227.5 345,-227.5 345,-192.5 74,-192.5"/>
<text text-anchor="start" x="89.3767" y="-205.3" font-family="Arial Bold" font-size="18.00" fill="#000000">WebFeatures</text>
<text text-anchor="start" x="197.3947" y="-205.3" font-family="Arial" font-size="14.00" fill="#000000">    </text>
<text text-anchor="start" x="231.5995" y="-205.3" font-family="Arial" font-size="14.00" fill="#666666">[BASIC TABLE]</text>
<polygon fill="none" stroke="#000000" points="74,-162.5 74,-192.5 345,-192.5 345,-162.5 74,-162.5"/>
<text text-anchor="start" x="81" y="-173.9" font-family="Arial" font-size="14.00" fill="#000000">ID    </text>
<text text-anchor="start" x="129.202" y="-173.9" font-family="Arial" font-size="14.00" fill="#666666">[STRING(36)]</text>
<polygon fill="none" stroke="#000000" points="74,-132.5 74,-162.5 345,-162.5 345,-132.5 74,-132.5"/>
<text text-anchor="start" x="81" y="-143.9" font-family="Arial" font-size="14.00" fill="#000000">FeatureID    </text>
<text text-anchor="start" x="177.4362" y="-143.9" font-family="Arial" font-size="14.00" fill="#666666">[STRING(64)]</text>
<polygon fill="none" stroke="#000000" points="74,-102.5 74,-132.5 345,-132.5 345,-102.5 74,-102.5"/>
<text text-anchor="start" x="81" y="-113.9" font-family="Arial" font-size="14.00" fill="#000000">Name    </text>
<text text-anchor="start" x="152.5372" y="-113.9" font-family="Arial" font-size="14.00" fill="#666666">[STRING(64)]</text>
<polygon fill="none" stroke="#000000" points="74,-72.5 74,-102.5 345,-102.5 345,-72.5 74,-72.5"/>
<text text-anchor="start" x="80.7749" y="-83.9" font-family="Arial" font-size="14.00" fill="#000000">FeatureID_Lowercase    </text>
<text text-anchor="start" x="252.6739" y="-83.9" font-family="Arial" font-size="14.00" fill="#666666">[STRING(64)]</text>
<polygon fill="none" stroke="#000000" points="74,-42.5 74,-72.5 345,-72.5 345,-42.5 74,-42.5"/>
<text text-anchor="start" x="81" y="-53.9" font-family="Arial" font-size="14.00" fill="#000000">Name_Lowercase    </text>
<text text-anchor="start" x="228" y="-53.9" font-family="Arial" font-size="14.00" fill="#666666">[STRING(64)]</text>
</g>
<!-- FeatureBaselineStatus&#45;&gt;WebFeatures -->
<g id="edge1" class="edge">
<title>FeatureBaselineStatus:FeatureID&#45;&gt;WebFeatures:ID</title>
<path fill="none" stroke="#000000" stroke-dasharray="5,2" d="M35.8171,-456.6234C-18.3616,-446.6635 4.0464,-354.3079 46,-307 134.8084,-206.8575 256.1916,-371.1425 345,-271 372.5721,-239.9091 386.5556,-177.5 345,-177.5"/>
<polygon fill="#000000" stroke="#000000" points="36.0369,-456.6422 45.614,-461.9834 41.0184,-457.0711 46,-457.5 46,-457.5 46,-457.5 41.0184,-457.0711 46.386,-453.0166 36.0369,-456.6422 36.0369,-456.6422"/>
</g>
</g>
</svg>
