<?xml version="1.0" encoding="UTF-8" standalone="no"?>
<!DOCTYPE svg PUBLIC "-//W3C//DTD SVG 1.1//EN"
 "http://www.w3.org/Graphics/SVG/1.1/DTD/svg11.dtd">
<!-- Generated by graphviz version 12.1.2 (20240928.0832)
 -->
<!-- Title: FeatureDiscouragedDetails Pages: 1 -->
<svg width="815pt" height="633pt"
 viewBox="0.00 0.00 815.03 632.80" xmlns="http://www.w3.org/2000/svg" xmlns:xlink="http://www.w3.org/1999/xlink">
<g id="graph0" class="graph" transform="scale(1 1) rotate(0) translate(4 628.8)">
<title>FeatureDiscouragedDetails</title>
<polygon fill="white" stroke="none" points="-4,4 -4,-628.8 811.03,-628.8 811.03,4 -4,4"/>
<!-- FeatureDiscouragedDetails -->
<g id="node1" class="node">
<title>FeatureDiscouragedDetails</title>
<polygon fill="#efefef" stroke="none" points="46.2,-543 46.2,-578.6 385.28,-578.6 385.28,-543 46.2,-543"/>
<polygon fill="none" stroke="black" points="46.2,-543 46.2,-578.6 385.28,-578.6 385.28,-543 46.2,-543"/>
<text text-anchor="start" x="53.2" y="-556.4" font-family="Arial Bold" font-size="18.00">FeatureDiscouragedDetails</text>
<text text-anchor="start" x="249.13" y="-556.4" font-family="Arial" font-size="14.00">    </text>
<text text-anchor="start" x="280.24" y="-556.4" font-family="Arial" font-size="14.00" fill="#666666">[BASIC TABLE]</text>
<polygon fill="none" stroke="black" points="46.2,-512.2 46.2,-543 385.28,-543 385.28,-512.2 46.2,-512.2"/>
<text text-anchor="start" x="53.2" y="-524.4" font-family="Arial" font-size="14.00">WebFeatureID </text>
<text text-anchor="start" x="148.12" y="-524.4" font-family="Arial" font-size="14.00" fill="#666666">[STRING(MAX)]</text>
<polygon fill="none" stroke="black" points="46.2,-481.4 46.2,-512.2 385.28,-512.2 385.28,-481.4 46.2,-481.4"/>
<text text-anchor="start" x="53.2" y="-493.6" font-family="Arial" font-size="14.00">AccordingTo </text>
<text text-anchor="start" x="135.68" y="-493.6" font-family="Arial" font-size="14.00" fill="#666666">[ARRAY&lt;STRING(MAX)&gt;]</text>
<polygon fill="none" stroke="black" points="46.2,-450.6 46.2,-481.4 385.28,-481.4 385.28,-450.6 46.2,-450.6"/>
<text text-anchor="start" x="53.2" y="-462.8" font-family="Arial" font-size="14.00">Alternatives </text>
<text text-anchor="start" x="130.23" y="-462.8" font-family="Arial" font-size="14.00" fill="#666666">[ARRAY&lt;STRING(MAX)&gt;]</text>
<polygon fill="none" stroke="black" stroke-width="3" points="44.7,-449.1 44.7,-580.1 386.78,-580.1 386.78,-449.1 44.7,-449.1"/>
</g>
<!-- WebFeatures -->
<g id="node2" class="node">
<title>WebFeatures</title>
<polygon fill="#efefef" stroke="none" points="83.87,-289.6 83.87,-325.2 347.61,-325.2 347.61,-289.6 83.87,-289.6"/>
<polygon fill="none" stroke="black" points="83.87,-289.6 83.87,-325.2 347.61,-325.2 347.61,-289.6 83.87,-289.6"/>
<text text-anchor="start" x="103.68" y="-303" font-family="Arial Bold" font-size="18.00">WebFeatures</text>
<text text-anchor="start" x="198.64" y="-303" font-family="Arial" font-size="14.00">    </text>
<text text-anchor="start" x="229.76" y="-303" font-family="Arial" font-size="14.00" fill="#666666">[BASIC TABLE]</text>
<polygon fill="none" stroke="black" points="83.87,-258.8 83.87,-289.6 347.61,-289.6 347.61,-258.8 83.87,-258.8"/>
<text text-anchor="start" x="90.87" y="-271" font-family="Arial" font-size="14.00">ID </text>
<text text-anchor="start" x="108.76" y="-271" font-family="Arial" font-size="14.00" fill="#666666">[STRING(36)]</text>
<polygon fill="none" stroke="black" points="83.87,-228 83.87,-258.8 347.61,-258.8 347.61,-228 83.87,-228"/>
<text text-anchor="start" x="90.87" y="-240.2" font-family="Arial" font-size="14.00">FeatureKey </text>
<text text-anchor="start" x="167.13" y="-240.2" font-family="Arial" font-size="14.00" fill="#666666">[STRING(64)]</text>
<polygon fill="none" stroke="black" points="83.87,-197.2 83.87,-228 347.61,-228 347.61,-197.2 83.87,-197.2"/>
<text text-anchor="start" x="90.87" y="-209.4" font-family="Arial" font-size="14.00">Name </text>
<text text-anchor="start" x="132.1" y="-209.4" font-family="Arial" font-size="14.00" fill="#666666">[STRING(64)]</text>
<polygon fill="none" stroke="black" points="83.87,-166.4 83.87,-197.2 347.61,-197.2 347.61,-166.4 83.87,-166.4"/>
<text text-anchor="start" x="90.87" y="-178.6" font-family="Arial" font-size="14.00">FeatureKey_Lowercase </text>
<text text-anchor="start" x="242.62" y="-178.6" font-family="Arial" font-size="14.00" fill="#666666">[STRING(64)]</text>
<polygon fill="none" stroke="black" points="83.87,-135.6 83.87,-166.4 347.61,-166.4 347.61,-135.6 83.87,-135.6"/>
<text text-anchor="start" x="90.87" y="-147.8" font-family="Arial" font-size="14.00">Name_Lowercase </text>
<text text-anchor="start" x="207.59" y="-147.8" font-family="Arial" font-size="14.00" fill="#666666">[STRING(64)]</text>
<polygon fill="none" stroke="black" points="83.87,-104.8 83.87,-135.6 347.61,-135.6 347.61,-104.8 83.87,-104.8"/>
<text text-anchor="start" x="90.87" y="-117" font-family="Arial" font-size="14.00">Description </text>
<text text-anchor="start" x="164.79" y="-117" font-family="Arial" font-size="14.00" fill="#666666">[STRING(MAX)]</text>
<polygon fill="none" stroke="black" points="83.87,-74 83.87,-104.8 347.61,-104.8 347.61,-74 83.87,-74"/>
<text text-anchor="start" x="90.87" y="-86.2" font-family="Arial" font-size="14.00">DescriptionHtml </text>
<text text-anchor="start" x="193.56" y="-86.2" font-family="Arial" font-size="14.00" fill="#666666">[STRING(MAX)]</text>
<polygon fill="none" stroke="black" points="83.87,-43.2 83.87,-74 347.61,-74 347.61,-43.2 83.87,-43.2"/>
<text text-anchor="start" x="90.87" y="-55.4" font-family="Arial" font-size="14.00">Description_Lowercase </text>
<text text-anchor="start" x="240.28" y="-55.4" font-family="Arial" font-size="14.00" fill="#666666">[STRING(MAX)]</text>
</g>
<!-- FeatureDiscouragedDetails&#45;&gt;WebFeatures -->
<g id="edge1" class="edge">
<title>FeatureDiscouragedDetails:WebFeatureID&#45;&gt;WebFeatures:ID</title>
<path fill="none" stroke="black" d="M396.51,-526.87C497.71,-512.01 458.91,-274.2 348.61,-274.2"/>
<polygon fill="black" stroke="black" points="396.59,-526.87 386.29,-523.09 391.26,-527.25 386.94,-527.55 386.94,-527.55 386.94,-527.55 391.26,-527.25 386.93,-532.06 396.59,-526.87"/>
<text text-anchor="start" x="393.28" y="-537.6" font-family="Arial" font-size="10.00">FOREIGN KEY (WebFeatureID) REFERENCES WebFeatures (ID) ON DELETE CASCADE</text>
</g>
</g>
</svg>
