<?xml version="1.0" encoding="UTF-8" standalone="no"?>
<!DOCTYPE svg PUBLIC "-//W3C//DTD SVG 1.1//EN"
 "http://www.w3.org/Graphics/SVG/1.1/DTD/svg11.dtd">
<!-- Generated by graphviz version 2.40.1 (20161225.0304)
 -->
<!-- Title: FeatureGroupKeysLookup Pages: 1 -->
<svg width="764pt" height="652pt"
 viewBox="0.00 0.00 763.50 652.00" xmlns="http://www.w3.org/2000/svg" xmlns:xlink="http://www.w3.org/1999/xlink">
<g id="graph0" class="graph" transform="scale(1 1) rotate(0) translate(4 648)">
<title>FeatureGroupKeysLookup</title>
<polygon fill="#ffffff" stroke="transparent" points="-4,4 -4,-648 759.5,-648 759.5,4 -4,4"/>
<!-- FeatureGroupKeysLookup -->
<g id="node1" class="node">
<title>FeatureGroupKeysLookup</title>
<polygon fill="#efefef" stroke="transparent" points="204.5,-562.5 204.5,-597.5 561.5,-597.5 561.5,-562.5 204.5,-562.5"/>
<polygon fill="none" stroke="#000000" points="204.5,-562.5 204.5,-597.5 561.5,-597.5 561.5,-562.5 204.5,-562.5"/>
<text text-anchor="start" x="211.3508" y="-575.3" font-family="Arial Bold" font-size="18.00" fill="#000000">FeatureGroupKeysLookup</text>
<text text-anchor="start" x="422.4206" y="-575.3" font-family="Arial" font-size="14.00" fill="#000000">    </text>
<text text-anchor="start" x="456.6254" y="-575.3" font-family="Arial" font-size="14.00" fill="#666666">[BASIC TABLE]</text>
<polygon fill="none" stroke="#000000" points="204.5,-532.5 204.5,-562.5 561.5,-562.5 561.5,-532.5 204.5,-532.5"/>
<text text-anchor="start" x="211.5" y="-543.9" font-family="Arial" font-size="14.00" fill="#000000">GroupKey_Lowercase </text>
<text text-anchor="start" x="353.8716" y="-543.9" font-family="Arial" font-size="14.00" fill="#666666">[STRING(64)]</text>
<polygon fill="none" stroke="#000000" points="204.5,-502.5 204.5,-532.5 561.5,-532.5 561.5,-502.5 204.5,-502.5"/>
<text text-anchor="start" x="211.5" y="-513.9" font-family="Arial" font-size="14.00" fill="#000000">WebFeatureID </text>
<text text-anchor="start" x="306.4018" y="-513.9" font-family="Arial" font-size="14.00" fill="#666666">[STRING(36)]</text>
<polygon fill="none" stroke="#000000" points="204.5,-472.5 204.5,-502.5 561.5,-502.5 561.5,-472.5 204.5,-472.5"/>
<text text-anchor="start" x="211.5" y="-483.9" font-family="Arial" font-size="14.00" fill="#000000">GroupID </text>
<text text-anchor="start" x="268.2868" y="-483.9" font-family="Arial" font-size="14.00" fill="#666666">[STRING(36)]</text>
<polygon fill="none" stroke="#000000" points="204.5,-442.5 204.5,-472.5 561.5,-472.5 561.5,-442.5 204.5,-442.5"/>
<text text-anchor="start" x="211.5" y="-453.9" font-family="Arial" font-size="14.00" fill="#000000">Depth </text>
<text text-anchor="start" x="252.7356" y="-453.9" font-family="Arial" font-size="14.00" fill="#666666">[INT64]</text>
<polygon fill="none" stroke="#000000" stroke-width="3" points="202.5,-441.5 202.5,-599.5 562.5,-599.5 562.5,-441.5 202.5,-441.5"/>
</g>
<!-- WebFeatures -->
<g id="node2" class="node">
<title>WebFeatures</title>
<polygon fill="#efefef" stroke="transparent" points="43.5,-282.5 43.5,-317.5 336.5,-317.5 336.5,-282.5 43.5,-282.5"/>
<polygon fill="none" stroke="#000000" points="43.5,-282.5 43.5,-317.5 336.5,-317.5 336.5,-282.5 43.5,-282.5"/>
<text text-anchor="start" x="69.8767" y="-295.3" font-family="Arial Bold" font-size="18.00" fill="#000000">WebFeatures</text>
<text text-anchor="start" x="177.8947" y="-295.3" font-family="Arial" font-size="14.00" fill="#000000">    </text>
<text text-anchor="start" x="212.0995" y="-295.3" font-family="Arial" font-size="14.00" fill="#666666">[BASIC TABLE]</text>
<polygon fill="none" stroke="#000000" points="43.5,-252.5 43.5,-282.5 336.5,-282.5 336.5,-252.5 43.5,-252.5"/>
<text text-anchor="start" x="50.5" y="-263.9" font-family="Arial" font-size="14.00" fill="#000000">ID    </text>
<text text-anchor="start" x="98.702" y="-263.9" font-family="Arial" font-size="14.00" fill="#666666">[STRING(36)]</text>
<polygon fill="none" stroke="#000000" points="43.5,-222.5 43.5,-252.5 336.5,-252.5 336.5,-222.5 43.5,-222.5"/>
<text text-anchor="start" x="50.5" y="-233.9" font-family="Arial" font-size="14.00" fill="#000000">FeatureKey    </text>
<text text-anchor="start" x="157.0582" y="-233.9" font-family="Arial" font-size="14.00" fill="#666666">[STRING(64)]</text>
<polygon fill="none" stroke="#000000" points="43.5,-192.5 43.5,-222.5 336.5,-222.5 336.5,-192.5 43.5,-192.5"/>
<text text-anchor="start" x="50.5" y="-203.9" font-family="Arial" font-size="14.00" fill="#000000">Name    </text>
<text text-anchor="start" x="122.0372" y="-203.9" font-family="Arial" font-size="14.00" fill="#666666">[STRING(64)]</text>
<polygon fill="none" stroke="#000000" points="43.5,-162.5 43.5,-192.5 336.5,-192.5 336.5,-162.5 43.5,-162.5"/>
<text text-anchor="start" x="50.5" y="-173.9" font-family="Arial" font-size="14.00" fill="#000000">FeatureKey_Lowercase    </text>
<text text-anchor="start" x="232.521" y="-173.9" font-family="Arial" font-size="14.00" fill="#666666">[STRING(64)]</text>
<polygon fill="none" stroke="#000000" points="43.5,-132.5 43.5,-162.5 336.5,-162.5 336.5,-132.5 43.5,-132.5"/>
<text text-anchor="start" x="50.5" y="-143.9" font-family="Arial" font-size="14.00" fill="#000000">Name_Lowercase    </text>
<text text-anchor="start" x="197.5" y="-143.9" font-family="Arial" font-size="14.00" fill="#666666">[STRING(64)]</text>
<polygon fill="none" stroke="#000000" points="43.5,-102.5 43.5,-132.5 336.5,-132.5 336.5,-102.5 43.5,-102.5"/>
<text text-anchor="start" x="50.5" y="-113.9" font-family="Arial" font-size="14.00" fill="#000000">Description    </text>
<text text-anchor="start" x="154.7062" y="-113.9" font-family="Arial" font-size="14.00" fill="#666666">[STRING(MAX)]</text>
<polygon fill="none" stroke="#000000" points="43.5,-72.5 43.5,-102.5 336.5,-102.5 336.5,-72.5 43.5,-72.5"/>
<text text-anchor="start" x="50.5" y="-83.9" font-family="Arial" font-size="14.00" fill="#000000">DescriptionHtml    </text>
<text text-anchor="start" x="183.4706" y="-83.9" font-family="Arial" font-size="14.00" fill="#666666">[STRING(MAX)]</text>
<polygon fill="none" stroke="#000000" points="43.5,-42.5 43.5,-72.5 336.5,-72.5 336.5,-42.5 43.5,-42.5"/>
<text text-anchor="start" x="50.0056" y="-53.9" font-family="Arial" font-size="14.00" fill="#000000">Description_Lowercase    </text>
<text text-anchor="start" x="229.6746" y="-53.9" font-family="Arial" font-size="14.00" fill="#666666">[STRING(MAX)]</text>
</g>
<!-- FeatureGroupKeysLookup&#45;&gt;WebFeatures -->
<g id="edge1" class="edge">
<title>FeatureGroupKeysLookup:WebFeatureID&#45;&gt;WebFeatures:ID</title>
<path fill="none" stroke="#000000" stroke-dasharray="5,2" d="M194.5426,-516.4436C153.8756,-507.0096 174.2143,-436.6515 204.5,-397 241.4109,-348.6744 299.5891,-409.3256 336.5,-361 361.724,-327.9755 378.0556,-267.5 336.5,-267.5"/>
<polygon fill="#000000" stroke="#000000" points="194.5558,-516.4449 204.0252,-521.9749 199.5279,-516.9724 204.5,-517.5 204.5,-517.5 204.5,-517.5 199.5279,-516.9724 204.9748,-513.0251 194.5558,-516.4449 194.5558,-516.4449"/>
</g>
<!-- WebDXGroups -->
<g id="node3" class="node">
<title>WebDXGroups</title>
<polygon fill="#efefef" stroke="transparent" points="440.5,-237.5 440.5,-272.5 712.5,-272.5 712.5,-237.5 440.5,-237.5"/>
<polygon fill="none" stroke="#000000" points="440.5,-237.5 440.5,-272.5 712.5,-272.5 712.5,-237.5 440.5,-237.5"/>
<text text-anchor="start" x="449.8787" y="-250.3" font-family="Arial Bold" font-size="18.00" fill="#000000">WebDXGroups</text>
<text text-anchor="start" x="570.8927" y="-250.3" font-family="Arial" font-size="14.00" fill="#000000">    </text>
<text text-anchor="start" x="605.0975" y="-250.3" font-family="Arial" font-size="14.00" fill="#666666">[BASIC TABLE]</text>
<polygon fill="none" stroke="#000000" points="440.5,-207.5 440.5,-237.5 712.5,-237.5 712.5,-207.5 440.5,-207.5"/>
<text text-anchor="start" x="447.5" y="-218.9" font-family="Arial" font-size="14.00" fill="#000000">ID    </text>
<text text-anchor="start" x="495.702" y="-218.9" font-family="Arial" font-size="14.00" fill="#666666">[STRING(36)]</text>
<polygon fill="none" stroke="#000000" points="440.5,-177.5 440.5,-207.5 712.5,-207.5 712.5,-177.5 440.5,-177.5"/>
<text text-anchor="start" x="447.5" y="-188.9" font-family="Arial" font-size="14.00" fill="#000000">GroupKey    </text>
<text text-anchor="start" x="544.723" y="-188.9" font-family="Arial" font-size="14.00" fill="#666666">[STRING(64)]</text>
<polygon fill="none" stroke="#000000" points="440.5,-147.5 440.5,-177.5 712.5,-177.5 712.5,-147.5 440.5,-147.5"/>
<text text-anchor="start" x="447.5" y="-158.9" font-family="Arial" font-size="14.00" fill="#000000">Name    </text>
<text text-anchor="start" x="519.0372" y="-158.9" font-family="Arial" font-size="14.00" fill="#666666">[STRING(64)]</text>
<polygon fill="none" stroke="#000000" points="440.5,-117.5 440.5,-147.5 712.5,-147.5 712.5,-117.5 440.5,-117.5"/>
<text text-anchor="start" x="447.3815" y="-128.9" font-family="Arial" font-size="14.00" fill="#000000">GroupKey_Lowercase    </text>
<text text-anchor="start" x="620.0673" y="-128.9" font-family="Arial" font-size="14.00" fill="#666666">[STRING(64)]</text>
<polygon fill="none" stroke="#000000" points="440.5,-87.5 440.5,-117.5 712.5,-117.5 712.5,-87.5 440.5,-87.5"/>
<text text-anchor="start" x="447.5" y="-98.9" font-family="Arial" font-size="14.00" fill="#000000">Name_Lowercase    </text>
<text text-anchor="start" x="594.5" y="-98.9" font-family="Arial" font-size="14.00" fill="#666666">[STRING(64)]</text>
</g>
<!-- FeatureGroupKeysLookup&#45;&gt;WebDXGroups -->
<g id="edge2" class="edge">
<title>FeatureGroupKeysLookup:GroupID&#45;&gt;WebDXGroups:ID</title>
<path fill="none" stroke="#000000" stroke-dasharray="5,2" d="M571.5838,-485.9953C597.5888,-476.9404 578.5953,-429.016 561.5,-397 531.018,-339.9132 470.982,-373.0868 440.5,-316 420.9266,-279.3429 398.9444,-222.5 440.5,-222.5"/>
<polygon fill="#000000" stroke="#000000" points="571.3905,-486.0241 560.8358,-483.0493 566.4452,-486.762 561.5,-487.5 561.5,-487.5 561.5,-487.5 566.4452,-486.762 562.1642,-491.9507 571.3905,-486.0241 571.3905,-486.0241"/>
</g>
</g>
</svg>
