<?xml version="1.0" encoding="UTF-8" standalone="no"?>
<!DOCTYPE svg PUBLIC "-//W3C//DTD SVG 1.1//EN"
 "http://www.w3.org/Graphics/SVG/1.1/DTD/svg11.dtd">
<!-- Generated by graphviz version 12.1.2 (20240928.0832)
 -->
<!-- Title: LatestDailyChromiumHistogramMetrics Pages: 1 -->
<svg width="2017pt" height="633pt"
 viewBox="0.00 0.00 2016.70 632.80" xmlns="http://www.w3.org/2000/svg" xmlns:xlink="http://www.w3.org/1999/xlink">
<g id="graph0" class="graph" transform="scale(1 1) rotate(0) translate(4 628.8)">
<title>LatestDailyChromiumHistogramMetrics</title>
<polygon fill="white" stroke="none" points="-4,4 -4,-628.8 2012.7,-628.8 2012.7,4 -4,4"/>
<!-- LatestDailyChromiumHistogramMetrics -->
<g id="node1" class="node">
<title>LatestDailyChromiumHistogramMetrics</title>
<polygon fill="#efefef" stroke="none" points="421.75,-543 421.75,-578.6 857.85,-578.6 857.85,-543 421.75,-543"/>
<polygon fill="none" stroke="black" points="421.75,-543 421.75,-578.6 857.85,-578.6 857.85,-543 421.75,-543"/>
<text text-anchor="start" x="428.75" y="-556.4" font-family="Arial Bold" font-size="18.00">LatestDailyChromiumHistogramMetrics</text>
<text text-anchor="start" x="721.7" y="-556.4" font-family="Arial" font-size="14.00">    </text>
<text text-anchor="start" x="752.82" y="-556.4" font-family="Arial" font-size="14.00" fill="#666666">[BASIC TABLE]</text>
<polygon fill="none" stroke="black" points="421.75,-512.2 421.75,-543 857.85,-543 857.85,-512.2 421.75,-512.2"/>
<text text-anchor="start" x="428.75" y="-524.4" font-family="Arial" font-size="14.00">WebFeatureID </text>
<text text-anchor="start" x="523.68" y="-524.4" font-family="Arial" font-size="14.00" fill="#666666">[STRING(36)]</text>
<polygon fill="none" stroke="black" points="421.75,-481.4 421.75,-512.2 857.85,-512.2 857.85,-481.4 421.75,-481.4"/>
<text text-anchor="start" x="428.75" y="-493.6" font-family="Arial" font-size="14.00">ChromiumHistogramEnumValueID </text>
<text text-anchor="start" x="647.38" y="-493.6" font-family="Arial" font-size="14.00" fill="#666666">[STRING(36)]</text>
<polygon fill="none" stroke="black" points="421.75,-450.6 421.75,-481.4 857.85,-481.4 857.85,-450.6 421.75,-450.6"/>
<text text-anchor="start" x="428.75" y="-462.8" font-family="Arial" font-size="14.00">Day </text>
<text text-anchor="start" x="457.54" y="-462.8" font-family="Arial" font-size="14.00" fill="#666666">[DATE]</text>
<polygon fill="none" stroke="black" stroke-width="3" points="420.25,-449.1 420.25,-580.1 859.35,-580.1 859.35,-449.1 420.25,-449.1"/>
</g>
<!-- WebFeatures -->
<g id="node2" class="node">
<title>WebFeatures</title>
<polygon fill="#efefef" stroke="none" points="76.93,-289.6 76.93,-325.2 340.67,-325.2 340.67,-289.6 76.93,-289.6"/>
<polygon fill="none" stroke="black" points="76.93,-289.6 76.93,-325.2 340.67,-325.2 340.67,-289.6 76.93,-289.6"/>
<text text-anchor="start" x="96.75" y="-303" font-family="Arial Bold" font-size="18.00">WebFeatures</text>
<text text-anchor="start" x="191.71" y="-303" font-family="Arial" font-size="14.00">    </text>
<text text-anchor="start" x="222.82" y="-303" font-family="Arial" font-size="14.00" fill="#666666">[BASIC TABLE]</text>
<polygon fill="none" stroke="black" points="76.93,-258.8 76.93,-289.6 340.67,-289.6 340.67,-258.8 76.93,-258.8"/>
<text text-anchor="start" x="83.93" y="-271" font-family="Arial" font-size="14.00">ID </text>
<text text-anchor="start" x="101.82" y="-271" font-family="Arial" font-size="14.00" fill="#666666">[STRING(36)]</text>
<polygon fill="none" stroke="black" points="76.93,-228 76.93,-258.8 340.67,-258.8 340.67,-228 76.93,-228"/>
<text text-anchor="start" x="83.93" y="-240.2" font-family="Arial" font-size="14.00">FeatureKey </text>
<text text-anchor="start" x="160.2" y="-240.2" font-family="Arial" font-size="14.00" fill="#666666">[STRING(64)]</text>
<polygon fill="none" stroke="black" points="76.93,-197.2 76.93,-228 340.67,-228 340.67,-197.2 76.93,-197.2"/>
<text text-anchor="start" x="83.93" y="-209.4" font-family="Arial" font-size="14.00">Name </text>
<text text-anchor="start" x="125.17" y="-209.4" font-family="Arial" font-size="14.00" fill="#666666">[STRING(64)]</text>
<polygon fill="none" stroke="black" points="76.93,-166.4 76.93,-197.2 340.67,-197.2 340.67,-166.4 76.93,-166.4"/>
<text text-anchor="start" x="83.93" y="-178.6" font-family="Arial" font-size="14.00">FeatureKey_Lowercase </text>
<text text-anchor="start" x="235.69" y="-178.6" font-family="Arial" font-size="14.00" fill="#666666">[STRING(64)]</text>
<polygon fill="none" stroke="black" points="76.93,-135.6 76.93,-166.4 340.67,-166.4 340.67,-135.6 76.93,-135.6"/>
<text text-anchor="start" x="83.93" y="-147.8" font-family="Arial" font-size="14.00">Name_Lowercase </text>
<text text-anchor="start" x="200.66" y="-147.8" font-family="Arial" font-size="14.00" fill="#666666">[STRING(64)]</text>
<polygon fill="none" stroke="black" points="76.93,-104.8 76.93,-135.6 340.67,-135.6 340.67,-104.8 76.93,-104.8"/>
<text text-anchor="start" x="83.93" y="-117" font-family="Arial" font-size="14.00">Description </text>
<text text-anchor="start" x="157.85" y="-117" font-family="Arial" font-size="14.00" fill="#666666">[STRING(MAX)]</text>
<polygon fill="none" stroke="black" points="76.93,-74 76.93,-104.8 340.67,-104.8 340.67,-74 76.93,-74"/>
<text text-anchor="start" x="83.93" y="-86.2" font-family="Arial" font-size="14.00">DescriptionHtml </text>
<text text-anchor="start" x="186.62" y="-86.2" font-family="Arial" font-size="14.00" fill="#666666">[STRING(MAX)]</text>
<polygon fill="none" stroke="black" points="76.93,-43.2 76.93,-74 340.67,-74 340.67,-43.2 76.93,-43.2"/>
<text text-anchor="start" x="83.93" y="-55.4" font-family="Arial" font-size="14.00">Description_Lowercase </text>
<text text-anchor="start" x="233.34" y="-55.4" font-family="Arial" font-size="14.00" fill="#666666">[STRING(MAX)]</text>
</g>
<!-- LatestDailyChromiumHistogramMetrics&#45;&gt;WebFeatures -->
<g id="edge1" class="edge">
<title>LatestDailyChromiumHistogramMetrics:WebFeatureID&#45;&gt;WebFeatures:ID</title>
<path fill="none" stroke="black" d="M410.48,-526.87C312.31,-512.01 455.96,-274.2 341.67,-274.2"/>
<polygon fill="black" stroke="black" points="410.44,-526.87 420.1,-532.07 415.77,-527.25 420.09,-527.55 420.09,-527.55 420.09,-527.55 415.77,-527.25 420.74,-523.09 410.44,-526.87"/>
<text text-anchor="start" x="7" y="-537.6" font-family="Arial" font-size="10.00">FOREIGN KEY (WebFeatureID) REFERENCES WebFeatures (ID) ON DELETE CASCADE</text>
</g>
<!-- ChromiumHistogramEnumValues -->
<g id="node3" class="node">
<title>ChromiumHistogramEnumValues</title>
<polygon fill="#efefef" stroke="none" points="444.74,-243.4 444.74,-279 834.86,-279 834.86,-243.4 444.74,-243.4"/>
<polygon fill="none" stroke="black" points="444.74,-243.4 444.74,-279 834.86,-279 834.86,-243.4 444.74,-243.4"/>
<text text-anchor="start" x="451.74" y="-256.8" font-family="Arial Bold" font-size="18.00">ChromiumHistogramEnumValues</text>
<text text-anchor="start" x="698.71" y="-256.8" font-family="Arial" font-size="14.00">    </text>
<text text-anchor="start" x="729.83" y="-256.8" font-family="Arial" font-size="14.00" fill="#666666">[BASIC TABLE]</text>
<polygon fill="none" stroke="black" points="444.74,-212.6 444.74,-243.4 834.86,-243.4 834.86,-212.6 444.74,-212.6"/>
<text text-anchor="start" x="451.74" y="-224.8" font-family="Arial" font-size="14.00">ID </text>
<text text-anchor="start" x="469.63" y="-224.8" font-family="Arial" font-size="14.00" fill="#666666">[STRING(36)]</text>
<polygon fill="none" stroke="black" points="444.74,-181.8 444.74,-212.6 834.86,-212.6 834.86,-181.8 444.74,-181.8"/>
<text text-anchor="start" x="451.74" y="-194" font-family="Arial" font-size="14.00">ChromiumHistogramEnumID </text>
<text text-anchor="start" x="634.56" y="-194" font-family="Arial" font-size="14.00" fill="#666666">[STRING(36)]</text>
<polygon fill="none" stroke="black" points="444.74,-151 444.74,-181.8 834.86,-181.8 834.86,-151 444.74,-151"/>
<text text-anchor="start" x="451.74" y="-163.2" font-family="Arial" font-size="14.00">BucketID </text>
<text text-anchor="start" x="512.43" y="-163.2" font-family="Arial" font-size="14.00" fill="#666666">[INT64]</text>
<polygon fill="none" stroke="black" points="444.74,-120.2 444.74,-151 834.86,-151 834.86,-120.2 444.74,-120.2"/>
<text text-anchor="start" x="451.74" y="-132.4" font-family="Arial" font-size="14.00">Label </text>
<text text-anchor="start" x="489.89" y="-132.4" font-family="Arial" font-size="14.00" fill="#666666">[STRING(MAX)]</text>
<polygon fill="none" stroke="black" points="444.74,-89.4 444.74,-120.2 834.86,-120.2 834.86,-89.4 444.74,-89.4"/>
<text text-anchor="start" x="451.74" y="-101.6" font-family="Arial" font-size="14.00">Label_Lowercase </text>
<text text-anchor="start" x="565.37" y="-101.6" font-family="Arial" font-size="14.00" fill="#666666">[STRING(64)]</text>
</g>
<!-- LatestDailyChromiumHistogramMetrics&#45;&gt;ChromiumHistogramEnumValues -->
<g id="edge2" class="edge">
<title>LatestDailyChromiumHistogramMetrics:ChromiumHistogramEnumValueID&#45;&gt;ChromiumHistogramEnumValues:ID</title>
<path fill="none" stroke="black" d="M866.16,-489.61C884.27,-446.86 862.91,-228 835.86,-228"/>
<polygon fill="black" stroke="black" points="866.22,-489.55 855.94,-493.36 862.42,-493.29 859.33,-496.33 859.33,-496.33 859.33,-496.33 862.42,-493.29 862.25,-499.77 866.22,-489.55"/>
<text text-anchor="start" x="865.85" y="-506.8" font-family="Arial" font-size="10.00">FOREIGN KEY (ChromiumHistogramEnumValueID) REFERENCES ChromiumHistogramEnumValues (ID) ON DELETE CASCADE</text>
</g>
<!-- DailyChromiumHistogramMetrics -->
<g id="node4" class="node">
<title>DailyChromiumHistogramMetrics</title>
<polygon fill="#efefef" stroke="none" points="939.74,-212.6 939.74,-248.2 1331.86,-248.2 1331.86,-212.6 939.74,-212.6"/>
<polygon fill="none" stroke="black" points="939.74,-212.6 939.74,-248.2 1331.86,-248.2 1331.86,-212.6 939.74,-212.6"/>
<text text-anchor="start" x="946.74" y="-226" font-family="Arial Bold" font-size="18.00">DailyChromiumHistogramMetrics</text>
<text text-anchor="start" x="1195.71" y="-226" font-family="Arial" font-size="14.00">    </text>
<text text-anchor="start" x="1226.83" y="-226" font-family="Arial" font-size="14.00" fill="#666666">[BASIC TABLE]</text>
<polygon fill="none" stroke="black" points="939.74,-181.8 939.74,-212.6 1331.86,-212.6 1331.86,-181.8 939.74,-181.8"/>
<text text-anchor="start" x="946.74" y="-194" font-family="Arial" font-size="14.00">ChromiumHistogramEnumValueID </text>
<text text-anchor="start" x="1165.37" y="-194" font-family="Arial" font-size="14.00" fill="#666666">[STRING(36)]</text>
<polygon fill="none" stroke="black" points="939.74,-151 939.74,-181.8 1331.86,-181.8 1331.86,-151 939.74,-151"/>
<text text-anchor="start" x="946.74" y="-163.2" font-family="Arial" font-size="14.00">Day </text>
<text text-anchor="start" x="975.53" y="-163.2" font-family="Arial" font-size="14.00" fill="#666666">[DATE]</text>
<polygon fill="none" stroke="black" points="939.74,-120.2 939.74,-151 1331.86,-151 1331.86,-120.2 939.74,-120.2"/>
<text text-anchor="start" x="946.74" y="-132.4" font-family="Arial" font-size="14.00">Rate </text>
<text text-anchor="start" x="980.21" y="-132.4" font-family="Arial" font-size="14.00" fill="#666666">[NUMERIC]</text>
</g>
<!-- LatestDailyChromiumHistogramMetrics&#45;&gt;DailyChromiumHistogramMetrics -->
<g id="edge3" class="edge">
<title>LatestDailyChromiumHistogramMetrics:ChromiumHistogramEnumValueID&#45;&gt;DailyChromiumHistogramMetrics:Day</title>
<path fill="none" stroke="black" d="M868.9,-494.51C927.79,-465.32 866.89,-166.4 938.74,-166.4"/>
<polygon fill="black" stroke="black" points="868.93,-494.51 858.18,-492.34 863.73,-495.69 859.5,-496.65 859.5,-496.65 859.5,-496.65 863.73,-495.69 860.18,-501.11 868.93,-494.51"/>
<text text-anchor="start" x="865.85" y="-480.8" font-family="Arial" font-size="10.00">FOREIGN KEY (ChromiumHistogramEnumValueID, ChromiumHistogramEnumValueID, Day, Day) REFERENCES DailyChromiumHistogramMetrics (Day, ChromiumHistogramEnumValueID, ChromiumHistogramEnumValueID, Day) ON DELETE CASCADE</text>
</g>
</g>
</svg>
