<?xml version="1.0" encoding="UTF-8" standalone="no"?>
<!DOCTYPE svg PUBLIC "-//W3C//DTD SVG 1.1//EN"
 "http://www.w3.org/Graphics/SVG/1.1/DTD/svg11.dtd">
<!-- Generated by graphviz version 12.1.2 (20240928.0832)
 -->
<!-- Title: LatestWPTRunFeatureMetrics Pages: 1 -->
<svg width="1237pt" height="787pt"
 viewBox="0.00 0.00 1236.81 786.80" xmlns="http://www.w3.org/2000/svg" xmlns:xlink="http://www.w3.org/1999/xlink">
<g id="graph0" class="graph" transform="scale(1 1) rotate(0) translate(4 782.8)">
<title>LatestWPTRunFeatureMetrics</title>
<polygon fill="white" stroke="none" points="-4,4 -4,-782.8 1232.81,-782.8 1232.81,4 -4,4"/>
<!-- LatestWPTRunFeatureMetrics -->
<g id="node1" class="node">
<title>LatestWPTRunFeatureMetrics</title>
<polygon fill="#efefef" stroke="none" points="46.2,-697 46.2,-732.6 410.29,-732.6 410.29,-697 46.2,-697"/>
<polygon fill="none" stroke="black" points="46.2,-697 46.2,-732.6 410.29,-732.6 410.29,-697 46.2,-697"/>
<text text-anchor="start" x="53.2" y="-710.4" font-family="Arial Bold" font-size="18.00">LatestWPTRunFeatureMetrics</text>
<text text-anchor="start" x="274.14" y="-710.4" font-family="Arial" font-size="14.00">    </text>
<text text-anchor="start" x="305.26" y="-710.4" font-family="Arial" font-size="14.00" fill="#666666">[BASIC TABLE]</text>
<polygon fill="none" stroke="black" points="46.2,-666.2 46.2,-697 410.29,-697 410.29,-666.2 46.2,-666.2"/>
<text text-anchor="start" x="53.2" y="-678.4" font-family="Arial" font-size="14.00">RunMetricID </text>
<text text-anchor="start" x="134.88" y="-678.4" font-family="Arial" font-size="14.00" fill="#666666">[STRING(36)]</text>
<polygon fill="none" stroke="black" points="46.2,-635.4 46.2,-666.2 410.29,-666.2 410.29,-635.4 46.2,-635.4"/>
<text text-anchor="start" x="53.2" y="-647.6" font-family="Arial" font-size="14.00">WebFeatureID </text>
<text text-anchor="start" x="148.12" y="-647.6" font-family="Arial" font-size="14.00" fill="#666666">[STRING(36)]</text>
<polygon fill="none" stroke="black" points="46.2,-604.6 46.2,-635.4 410.29,-635.4 410.29,-604.6 46.2,-604.6"/>
<text text-anchor="start" x="53.2" y="-616.8" font-family="Arial" font-size="14.00">BrowserName </text>
<text text-anchor="start" x="145.78" y="-616.8" font-family="Arial" font-size="14.00" fill="#666666">[STRING(64)]</text>
<polygon fill="none" stroke="black" points="46.2,-573.8 46.2,-604.6 410.29,-604.6 410.29,-573.8 46.2,-573.8"/>
<text text-anchor="start" x="53.2" y="-586" font-family="Arial" font-size="14.00">Channel </text>
<text text-anchor="start" x="109.24" y="-586" font-family="Arial" font-size="14.00" fill="#666666">[STRING(32)]</text>
<polygon fill="none" stroke="black" stroke-width="3" points="44.7,-572.3 44.7,-734.1 411.79,-734.1 411.79,-572.3 44.7,-572.3"/>
</g>
<!-- WPTRunFeatureMetrics -->
<g id="node2" class="node">
<title>WPTRunFeatureMetrics</title>
<polygon fill="#efefef" stroke="none" points="68.19,-412.8 68.19,-448.4 388.3,-448.4 388.3,-412.8 68.19,-412.8"/>
<polygon fill="none" stroke="black" points="68.19,-412.8 68.19,-448.4 388.3,-448.4 388.3,-412.8 68.19,-412.8"/>
<text text-anchor="start" x="75.19" y="-426.2" font-family="Arial Bold" font-size="18.00">WPTRunFeatureMetrics</text>
<text text-anchor="start" x="252.15" y="-426.2" font-family="Arial" font-size="14.00">    </text>
<text text-anchor="start" x="283.27" y="-426.2" font-family="Arial" font-size="14.00" fill="#666666">[BASIC TABLE]</text>
<polygon fill="none" stroke="black" points="68.19,-382 68.19,-412.8 388.3,-412.8 388.3,-382 68.19,-382"/>
<text text-anchor="start" x="75.19" y="-394.2" font-family="Arial" font-size="14.00">ID </text>
<text text-anchor="start" x="93.08" y="-394.2" font-family="Arial" font-size="14.00" fill="#666666">[STRING(36)]</text>
<polygon fill="none" stroke="black" points="68.19,-351.2 68.19,-382 388.3,-382 388.3,-351.2 68.19,-351.2"/>
<text text-anchor="start" x="75.19" y="-363.4" font-family="Arial" font-size="14.00">WebFeatureID </text>
<text text-anchor="start" x="170.11" y="-363.4" font-family="Arial" font-size="14.00" fill="#666666">[STRING(36)]</text>
<polygon fill="none" stroke="black" points="68.19,-320.4 68.19,-351.2 388.3,-351.2 388.3,-320.4 68.19,-320.4"/>
<text text-anchor="start" x="75.19" y="-332.6" font-family="Arial" font-size="14.00">TotalTests </text>
<text text-anchor="start" x="144.43" y="-332.6" font-family="Arial" font-size="14.00" fill="#666666">[INT64]</text>
<polygon fill="none" stroke="black" points="68.19,-289.6 68.19,-320.4 388.3,-320.4 388.3,-289.6 68.19,-289.6"/>
<text text-anchor="start" x="75.19" y="-301.8" font-family="Arial" font-size="14.00">TestPass </text>
<text text-anchor="start" x="137.43" y="-301.8" font-family="Arial" font-size="14.00" fill="#666666">[INT64]</text>
<polygon fill="none" stroke="black" points="68.19,-258.8 68.19,-289.6 388.3,-289.6 388.3,-258.8 68.19,-258.8"/>
<text text-anchor="start" x="75.19" y="-271" font-family="Arial" font-size="14.00">TestPassRate </text>
<text text-anchor="start" x="167" y="-271" font-family="Arial" font-size="14.00" fill="#666666">[NUMERIC]</text>
<polygon fill="none" stroke="black" points="68.19,-228 68.19,-258.8 388.3,-258.8 388.3,-228 68.19,-228"/>
<text text-anchor="start" x="75.19" y="-240.2" font-family="Arial" font-size="14.00">TotalSubtests </text>
<text text-anchor="start" x="164.68" y="-240.2" font-family="Arial" font-size="14.00" fill="#666666">[INT64]</text>
<polygon fill="none" stroke="black" points="68.19,-197.2 68.19,-228 388.3,-228 388.3,-197.2 68.19,-197.2"/>
<text text-anchor="start" x="75.19" y="-209.4" font-family="Arial" font-size="14.00">SubtestPass </text>
<text text-anchor="start" x="157.68" y="-209.4" font-family="Arial" font-size="14.00" fill="#666666">[INT64]</text>
<polygon fill="none" stroke="black" points="68.19,-166.4 68.19,-197.2 388.3,-197.2 388.3,-166.4 68.19,-166.4"/>
<text text-anchor="start" x="75.19" y="-178.6" font-family="Arial" font-size="14.00">SubtestPassRate </text>
<text text-anchor="start" x="187.25" y="-178.6" font-family="Arial" font-size="14.00" fill="#666666">[NUMERIC]</text>
<polygon fill="none" stroke="black" points="68.19,-135.6 68.19,-166.4 388.3,-166.4 388.3,-135.6 68.19,-135.6"/>
<text text-anchor="start" x="75.19" y="-147.8" font-family="Arial" font-size="14.00">Channel </text>
<text text-anchor="start" x="131.23" y="-147.8" font-family="Arial" font-size="14.00" fill="#666666">[STRING(32)]</text>
<polygon fill="none" stroke="black" points="68.19,-104.8 68.19,-135.6 388.3,-135.6 388.3,-104.8 68.19,-104.8"/>
<text text-anchor="start" x="75.19" y="-117" font-family="Arial" font-size="14.00">BrowserName </text>
<text text-anchor="start" x="167.77" y="-117" font-family="Arial" font-size="14.00" fill="#666666">[STRING(64)]</text>
<polygon fill="none" stroke="black" points="68.19,-74 68.19,-104.8 388.3,-104.8 388.3,-74 68.19,-74"/>
<text text-anchor="start" x="75.19" y="-86.2" font-family="Arial" font-size="14.00">TimeStart </text>
<text text-anchor="start" x="139.76" y="-86.2" font-family="Arial" font-size="14.00" fill="#666666">[TIMESTAMP]</text>
<polygon fill="none" stroke="black" points="68.19,-43.2 68.19,-74 388.3,-74 388.3,-43.2 68.19,-43.2"/>
<text text-anchor="start" x="75.19" y="-55.4" font-family="Arial" font-size="14.00">FeatureRunDetails </text>
<text text-anchor="start" x="195.8" y="-55.4" font-family="Arial" font-size="14.00" fill="#666666">[JSON]</text>
</g>
<!-- LatestWPTRunFeatureMetrics&#45;&gt;WPTRunFeatureMetrics -->
<g id="edge1" class="edge">
<title>LatestWPTRunFeatureMetrics:RunMetricID&#45;&gt;WPTRunFeatureMetrics:WebFeatureID</title>
<path fill="none" stroke="black" d="M421.27,-679.25C479.1,-650.42 455.91,-366.6 389.3,-366.6"/>
<polygon fill="black" stroke="black" points="421.35,-679.23 410.58,-677.14 416.16,-680.45 411.94,-681.45 411.94,-681.45 411.94,-681.45 416.16,-680.45 412.65,-685.9 421.35,-679.23"/>
<text text-anchor="start" x="418.29" y="-691.6" font-family="Arial" font-size="10.00">FOREIGN KEY (RunMetricID, RunMetricID, WebFeatureID, WebFeatureID) REFERENCES WPTRunFeatureMetrics (WebFeatureID, ID, ID, WebFeatureID) ON DELETE CASCADE</text>
</g>
</g>
</svg>
