<?xml version="1.0" encoding="UTF-8" standalone="no"?>
<!DOCTYPE svg PUBLIC "-//W3C//DTD SVG 1.1//EN"
 "http://www.w3.org/Graphics/SVG/1.1/DTD/svg11.dtd">
<!-- Generated by graphviz version 2.40.1 (20161225.0304)
 -->
<!-- Title: LatestWPTRunFeatureMetrics Pages: 1 -->
<svg width="488pt" height="772pt"
 viewBox="0.00 0.00 488.00 772.00" xmlns="http://www.w3.org/2000/svg" xmlns:xlink="http://www.w3.org/1999/xlink">
<g id="graph0" class="graph" transform="scale(1 1) rotate(0) translate(4 768)">
<title>LatestWPTRunFeatureMetrics</title>
<polygon fill="#ffffff" stroke="transparent" points="-4,4 -4,-768 484,-768 484,4 -4,4"/>
<!-- LatestWPTRunFeatureMetrics -->
<g id="node1" class="node">
<title>LatestWPTRunFeatureMetrics</title>
<polygon fill="#efefef" stroke="transparent" points="46,-682.5 46,-717.5 434,-717.5 434,-682.5 46,-682.5"/>
<polygon fill="none" stroke="#000000" points="46,-682.5 46,-717.5 434,-717.5 434,-682.5 46,-682.5"/>
<text text-anchor="start" x="52.8744" y="-695.3" font-family="Arial Bold" font-size="18.00" fill="#000000">LatestWPTRunFeatureMetrics</text>
<text text-anchor="start" x="294.897" y="-695.3" font-family="Arial" font-size="14.00" fill="#000000">    </text>
<text text-anchor="start" x="329.1018" y="-695.3" font-family="Arial" font-size="14.00" fill="#666666">[BASIC TABLE]</text>
<polygon fill="none" stroke="#000000" points="46,-652.5 46,-682.5 434,-682.5 434,-652.5 46,-652.5"/>
<text text-anchor="start" x="53" y="-663.9" font-family="Arial" font-size="14.00" fill="#000000">RunMetricID </text>
<text text-anchor="start" x="134.6606" y="-663.9" font-family="Arial" font-size="14.00" fill="#666666">[STRING(36)]</text>
<polygon fill="none" stroke="#000000" points="46,-622.5 46,-652.5 434,-652.5 434,-622.5 46,-622.5"/>
<text text-anchor="start" x="53" y="-633.9" font-family="Arial" font-size="14.00" fill="#000000">WebFeatureID </text>
<text text-anchor="start" x="147.9018" y="-633.9" font-family="Arial" font-size="14.00" fill="#666666">[STRING(36)]</text>
<polygon fill="none" stroke="#000000" points="46,-592.5 46,-622.5 434,-622.5 434,-592.5 46,-592.5"/>
<text text-anchor="start" x="53" y="-603.9" font-family="Arial" font-size="14.00" fill="#000000">BrowserName </text>
<text text-anchor="start" x="145.5526" y="-603.9" font-family="Arial" font-size="14.00" fill="#666666">[STRING(64)]</text>
<polygon fill="none" stroke="#000000" points="46,-562.5 46,-592.5 434,-592.5 434,-562.5 46,-562.5"/>
<text text-anchor="start" x="53" y="-573.9" font-family="Arial" font-size="14.00" fill="#000000">Channel </text>
<text text-anchor="start" x="109.0168" y="-573.9" font-family="Arial" font-size="14.00" fill="#666666">[STRING(32)]</text>
<polygon fill="none" stroke="#000000" stroke-width="3" points="44.5,-561.5 44.5,-719.5 435.5,-719.5 435.5,-561.5 44.5,-561.5"/>
</g>
<!-- WPTRunFeatureMetrics -->
<g id="node2" class="node">
<title>WPTRunFeatureMetrics</title>
<polygon fill="#efefef" stroke="transparent" points="70,-402.5 70,-437.5 409,-437.5 409,-402.5 70,-402.5"/>
<polygon fill="none" stroke="#000000" points="70,-402.5 70,-437.5 409,-437.5 409,-402.5 70,-402.5"/>
<text text-anchor="start" x="76.8859" y="-415.3" font-family="Arial Bold" font-size="18.00" fill="#000000">WPTRunFeatureMetrics</text>
<text text-anchor="start" x="269.8855" y="-415.3" font-family="Arial" font-size="14.00" fill="#000000">    </text>
<text text-anchor="start" x="304.0903" y="-415.3" font-family="Arial" font-size="14.00" fill="#666666">[BASIC TABLE]</text>
<polygon fill="none" stroke="#000000" points="70,-372.5 70,-402.5 409,-402.5 409,-372.5 70,-372.5"/>
<text text-anchor="start" x="77" y="-383.9" font-family="Arial" font-size="14.00" fill="#000000">ID    </text>
<text text-anchor="start" x="125.202" y="-383.9" font-family="Arial" font-size="14.00" fill="#666666">[STRING(36)]</text>
<polygon fill="none" stroke="#000000" points="70,-342.5 70,-372.5 409,-372.5 409,-342.5 70,-342.5"/>
<text text-anchor="start" x="77" y="-353.9" font-family="Arial" font-size="14.00" fill="#000000">WebFeatureID    </text>
<text text-anchor="start" x="202.216" y="-353.9" font-family="Arial" font-size="14.00" fill="#666666">[STRING(36)]</text>
<polygon fill="none" stroke="#000000" points="70,-312.5 70,-342.5 409,-342.5 409,-312.5 70,-312.5"/>
<text text-anchor="start" x="77" y="-323.9" font-family="Arial" font-size="14.00" fill="#000000">TotalTests    </text>
<text text-anchor="start" x="176.5456" y="-323.9" font-family="Arial" font-size="14.00" fill="#666666">[INT64]</text>
<polygon fill="none" stroke="#000000" points="70,-282.5 70,-312.5 409,-312.5 409,-282.5 70,-282.5"/>
<text text-anchor="start" x="77" y="-293.9" font-family="Arial" font-size="14.00" fill="#000000">TestPass    </text>
<text text-anchor="start" x="169.5498" y="-293.9" font-family="Arial" font-size="14.00" fill="#666666">[INT64]</text>
<polygon fill="none" stroke="#000000" points="70,-252.5 70,-282.5 409,-282.5 409,-252.5 70,-252.5"/>
<text text-anchor="start" x="77" y="-263.9" font-family="Arial" font-size="14.00" fill="#000000">TestPassRate    </text>
<text text-anchor="start" x="199.1122" y="-263.9" font-family="Arial" font-size="14.00" fill="#666666">[NUMERIC]</text>
<polygon fill="none" stroke="#000000" points="70,-222.5 70,-252.5 409,-252.5 409,-222.5 70,-222.5"/>
<text text-anchor="start" x="77" y="-233.9" font-family="Arial" font-size="14.00" fill="#000000">TotalSubtests    </text>
<text text-anchor="start" x="196.7854" y="-233.9" font-family="Arial" font-size="14.00" fill="#666666">[INT64]</text>
<polygon fill="none" stroke="#000000" points="70,-192.5 70,-222.5 409,-222.5 409,-192.5 70,-192.5"/>
<text text-anchor="start" x="77" y="-203.9" font-family="Arial" font-size="14.00" fill="#000000">SubtestPass    </text>
<text text-anchor="start" x="189.7896" y="-203.9" font-family="Arial" font-size="14.00" fill="#666666">[INT64]</text>
<polygon fill="none" stroke="#000000" points="70,-162.5 70,-192.5 409,-192.5 409,-162.5 70,-162.5"/>
<text text-anchor="start" x="77" y="-173.9" font-family="Arial" font-size="14.00" fill="#000000">SubtestPassRate    </text>
<text text-anchor="start" x="219.352" y="-173.9" font-family="Arial" font-size="14.00" fill="#666666">[NUMERIC]</text>
<polygon fill="none" stroke="#000000" points="70,-132.5 70,-162.5 409,-162.5 409,-132.5 70,-132.5"/>
<text text-anchor="start" x="77" y="-143.9" font-family="Arial" font-size="14.00" fill="#000000">Channel    </text>
<text text-anchor="start" x="163.331" y="-143.9" font-family="Arial" font-size="14.00" fill="#666666">[STRING(32)]</text>
<polygon fill="none" stroke="#000000" points="70,-102.5 70,-132.5 409,-132.5 409,-102.5 70,-102.5"/>
<text text-anchor="start" x="77" y="-113.9" font-family="Arial" font-size="14.00" fill="#000000">BrowserName    </text>
<text text-anchor="start" x="199.8668" y="-113.9" font-family="Arial" font-size="14.00" fill="#666666">[STRING(64)]</text>
<polygon fill="none" stroke="#000000" points="70,-72.5 70,-102.5 409,-102.5 409,-72.5 70,-72.5"/>
<text text-anchor="start" x="77" y="-83.9" font-family="Arial" font-size="14.00" fill="#000000">TimeStart    </text>
<text text-anchor="start" x="171.8682" y="-83.9" font-family="Arial" font-size="14.00" fill="#666666">[TIMESTAMP]</text>
<polygon fill="none" stroke="#000000" points="70,-42.5 70,-72.5 409,-72.5 409,-42.5 70,-42.5"/>
<text text-anchor="start" x="77" y="-53.9" font-family="Arial" font-size="14.00" fill="#000000">FeatureRunDetails    </text>
<text text-anchor="start" x="227.8864" y="-53.9" font-family="Arial" font-size="14.00" fill="#666666">[JSON]</text>
</g>
<!-- LatestWPTRunFeatureMetrics&#45;&gt;WPTRunFeatureMetrics -->
<g id="edge1" class="edge">
<title>LatestWPTRunFeatureMetrics:RunMetricID&#45;&gt;WPTRunFeatureMetrics:ID</title>
<path fill="none" stroke="#000000" stroke-dasharray="5,2" d="M35.8127,-666.6194C-18.4157,-656.6151 3.5525,-563.8653 46,-517 100.4179,-456.9183 354.5821,-541.0817 409,-481 436.8966,-450.1999 450.5556,-387.5 409,-387.5"/>
<polygon fill="#000000" stroke="#000000" points="36.0372,-666.6387 45.6124,-671.9833 41.0186,-667.0694 46,-667.5 46,-667.5 46,-667.5 41.0186,-667.0694 46.3876,-663.0167 36.0372,-666.6387 36.0372,-666.6387"/>
</g>
</g>
</svg>
