<?xml version="1.0" encoding="UTF-8" standalone="no"?>
<!DOCTYPE svg PUBLIC "-//W3C//DTD SVG 1.1//EN"
 "http://www.w3.org/Graphics/SVG/1.1/DTD/svg11.dtd">
<!-- Generated by graphviz version 12.1.2 (20240928.0832)
 -->
<!-- Title: LatestFeatureDeveloperSignals Pages: 1 -->
<svg width="845pt" height="633pt"
 viewBox="0.00 0.00 845.03 632.80" xmlns="http://www.w3.org/2000/svg" xmlns:xlink="http://www.w3.org/1999/xlink">
<g id="graph0" class="graph" transform="scale(1 1) rotate(0) translate(4 628.8)">
<title>LatestFeatureDeveloperSignals</title>
<polygon fill="white" stroke="none" points="-4,4 -4,-628.8 841.03,-628.8 841.03,4 -4,4"/>
<!-- LatestFeatureDeveloperSignals -->
<g id="node1" class="node">
<title>LatestFeatureDeveloperSignals</title>
<polygon fill="#efefef" stroke="none" points="46.2,-543 46.2,-578.6 415.27,-578.6 415.27,-543 46.2,-543"/>
<polygon fill="none" stroke="black" points="46.2,-543 46.2,-578.6 415.27,-578.6 415.27,-543 46.2,-543"/>
<text text-anchor="start" x="53.2" y="-556.4" font-family="Arial Bold" font-size="18.00">LatestFeatureDeveloperSignals</text>
<text text-anchor="start" x="279.12" y="-556.4" font-family="Arial" font-size="14.00">    </text>
<text text-anchor="start" x="310.24" y="-556.4" font-family="Arial" font-size="14.00" fill="#666666">[BASIC TABLE]</text>
<polygon fill="none" stroke="black" points="46.2,-512.2 46.2,-543 415.27,-543 415.27,-512.2 46.2,-512.2"/>
<text text-anchor="start" x="53.2" y="-524.4" font-family="Arial" font-size="14.00">WebFeatureID </text>
<text text-anchor="start" x="148.12" y="-524.4" font-family="Arial" font-size="14.00" fill="#666666">[STRING(36)]</text>
<polygon fill="none" stroke="black" points="46.2,-481.4 46.2,-512.2 415.27,-512.2 415.27,-481.4 46.2,-481.4"/>
<text text-anchor="start" x="53.2" y="-493.6" font-family="Arial" font-size="14.00">Upvotes </text>
<text text-anchor="start" x="108.45" y="-493.6" font-family="Arial" font-size="14.00" fill="#666666">[INT64]</text>
<polygon fill="none" stroke="black" points="46.2,-450.6 46.2,-481.4 415.27,-481.4 415.27,-450.6 46.2,-450.6"/>
<text text-anchor="start" x="53.2" y="-462.8" font-family="Arial" font-size="14.00">Link </text>
<text text-anchor="start" x="82.77" y="-462.8" font-family="Arial" font-size="14.00" fill="#666666">[STRING(MAX)]</text>
<polygon fill="none" stroke="black" stroke-width="3" points="44.7,-449.1 44.7,-580.1 416.77,-580.1 416.77,-449.1 44.7,-449.1"/>
</g>
<!-- WebFeatures -->
<g id="node2" class="node">
<title>WebFeatures</title>
<polygon fill="#efefef" stroke="none" points="98.87,-289.6 98.87,-325.2 362.61,-325.2 362.61,-289.6 98.87,-289.6"/>
<polygon fill="none" stroke="black" points="98.87,-289.6 98.87,-325.2 362.61,-325.2 362.61,-289.6 98.87,-289.6"/>
<text text-anchor="start" x="118.68" y="-303" font-family="Arial Bold" font-size="18.00">WebFeatures</text>
<text text-anchor="start" x="213.64" y="-303" font-family="Arial" font-size="14.00">    </text>
<text text-anchor="start" x="244.76" y="-303" font-family="Arial" font-size="14.00" fill="#666666">[BASIC TABLE]</text>
<polygon fill="none" stroke="black" points="98.87,-258.8 98.87,-289.6 362.61,-289.6 362.61,-258.8 98.87,-258.8"/>
<text text-anchor="start" x="105.87" y="-271" font-family="Arial" font-size="14.00">ID </text>
<text text-anchor="start" x="123.76" y="-271" font-family="Arial" font-size="14.00" fill="#666666">[STRING(36)]</text>
<polygon fill="none" stroke="black" points="98.87,-228 98.87,-258.8 362.61,-258.8 362.61,-228 98.87,-228"/>
<text text-anchor="start" x="105.87" y="-240.2" font-family="Arial" font-size="14.00">FeatureKey </text>
<text text-anchor="start" x="182.13" y="-240.2" font-family="Arial" font-size="14.00" fill="#666666">[STRING(64)]</text>
<polygon fill="none" stroke="black" points="98.87,-197.2 98.87,-228 362.61,-228 362.61,-197.2 98.87,-197.2"/>
<text text-anchor="start" x="105.87" y="-209.4" font-family="Arial" font-size="14.00">Name </text>
<text text-anchor="start" x="147.1" y="-209.4" font-family="Arial" font-size="14.00" fill="#666666">[STRING(64)]</text>
<polygon fill="none" stroke="black" points="98.87,-166.4 98.87,-197.2 362.61,-197.2 362.61,-166.4 98.87,-166.4"/>
<text text-anchor="start" x="105.87" y="-178.6" font-family="Arial" font-size="14.00">FeatureKey_Lowercase </text>
<text text-anchor="start" x="257.62" y="-178.6" font-family="Arial" font-size="14.00" fill="#666666">[STRING(64)]</text>
<polygon fill="none" stroke="black" points="98.87,-135.6 98.87,-166.4 362.61,-166.4 362.61,-135.6 98.87,-135.6"/>
<text text-anchor="start" x="105.87" y="-147.8" font-family="Arial" font-size="14.00">Name_Lowercase </text>
<text text-anchor="start" x="222.59" y="-147.8" font-family="Arial" font-size="14.00" fill="#666666">[STRING(64)]</text>
<polygon fill="none" stroke="black" points="98.87,-104.8 98.87,-135.6 362.61,-135.6 362.61,-104.8 98.87,-104.8"/>
<text text-anchor="start" x="105.87" y="-117" font-family="Arial" font-size="14.00">Description </text>
<text text-anchor="start" x="179.79" y="-117" font-family="Arial" font-size="14.00" fill="#666666">[STRING(MAX)]</text>
<polygon fill="none" stroke="black" points="98.87,-74 98.87,-104.8 362.61,-104.8 362.61,-74 98.87,-74"/>
<text text-anchor="start" x="105.87" y="-86.2" font-family="Arial" font-size="14.00">DescriptionHtml </text>
<text text-anchor="start" x="208.56" y="-86.2" font-family="Arial" font-size="14.00" fill="#666666">[STRING(MAX)]</text>
<polygon fill="none" stroke="black" points="98.87,-43.2 98.87,-74 362.61,-74 362.61,-43.2 98.87,-43.2"/>
<text text-anchor="start" x="105.87" y="-55.4" font-family="Arial" font-size="14.00">Description_Lowercase </text>
<text text-anchor="start" x="255.27" y="-55.4" font-family="Arial" font-size="14.00" fill="#666666">[STRING(MAX)]</text>
</g>
<!-- LatestFeatureDeveloperSignals&#45;&gt;WebFeatures -->
<g id="edge1" class="edge">
<title>LatestFeatureDeveloperSignals:WebFeatureID&#45;&gt;WebFeatures:ID</title>
<path fill="none" stroke="black" d="M426.57,-526.87C527.95,-512.01 475.04,-274.2 363.61,-274.2"/>
<polygon fill="black" stroke="black" points="426.58,-526.87 416.29,-523.09 421.26,-527.25 416.94,-527.55 416.94,-527.55 416.94,-527.55 421.26,-527.25 416.92,-532.07 426.58,-526.87"/>
<text text-anchor="start" x="423.27" y="-537.6" font-family="Arial" font-size="10.00">FOREIGN KEY (WebFeatureID) REFERENCES WebFeatures (ID) ON DELETE CASCADE</text>
</g>
</g>
</svg>
