<?xml version="1.0" encoding="UTF-8" standalone="no"?>
<!DOCTYPE svg PUBLIC "-//W3C//DTD SVG 1.1//EN"
 "http://www.w3.org/Graphics/SVG/1.1/DTD/svg11.dtd">
<!-- Generated by graphviz version 2.40.1 (20161225.0304)
 -->
<!-- Title: MovedWebFeatures Pages: 1 -->
<svg width="408pt" height="255pt"
 viewBox="0.00 0.00 408.00 255.00" xmlns="http://www.w3.org/2000/svg" xmlns:xlink="http://www.w3.org/1999/xlink">
<g id="graph0" class="graph" transform="scale(1 1) rotate(0) translate(4 251)">
<title>MovedWebFeatures</title>
<polygon fill="#ffffff" stroke="transparent" points="-4,4 -4,-251 404,-251 404,4 -4,4"/>
<!-- MovedWebFeatures -->
<g id="node1" class="node">
<title>MovedWebFeatures</title>
<polygon fill="#efefef" stroke="transparent" points="46,-165.5 46,-200.5 354,-200.5 354,-165.5 46,-165.5"/>
<polygon fill="none" stroke="#000000" points="46,-165.5 46,-200.5 354,-200.5 354,-165.5 46,-165.5"/>
<text text-anchor="start" x="52.8713" y="-178.3" font-family="Arial Bold" font-size="18.00" fill="#000000">MovedWebFeatures</text>
<text text-anchor="start" x="214.9001" y="-178.3" font-family="Arial" font-size="14.00" fill="#000000">    </text>
<text text-anchor="start" x="249.1049" y="-178.3" font-family="Arial" font-size="14.00" fill="#666666">[BASIC TABLE]</text>
<polygon fill="none" stroke="#000000" points="46,-135.5 46,-165.5 354,-165.5 354,-135.5 46,-135.5"/>
<text text-anchor="start" x="53" y="-146.9" font-family="Arial" font-size="14.00" fill="#000000">ID </text>
<text text-anchor="start" x="70.8878" y="-146.9" font-family="Arial" font-size="14.00" fill="#666666">[STRING(36)]</text>
<polygon fill="none" stroke="#000000" points="46,-105.5 46,-135.5 354,-135.5 354,-105.5 46,-105.5"/>
<text text-anchor="start" x="53" y="-116.9" font-family="Arial" font-size="14.00" fill="#000000">OriginalFeatureKey </text>
<text text-anchor="start" x="177.4628" y="-116.9" font-family="Arial" font-size="14.00" fill="#666666">[STRING(64)]</text>
<polygon fill="none" stroke="#000000" points="46,-75.5 46,-105.5 354,-105.5 354,-75.5 46,-75.5"/>
<text text-anchor="start" x="53" y="-86.9" font-family="Arial" font-size="14.00" fill="#000000">TargetWebFeatureID </text>
<text text-anchor="start" x="188.3534" y="-86.9" font-family="Arial" font-size="14.00" fill="#666666">[STRING(36)]</text>
<polygon fill="none" stroke="#000000" points="46,-45.5 46,-75.5 354,-75.5 354,-45.5 46,-45.5"/>
<text text-anchor="start" x="53" y="-56.9" font-family="Arial" font-size="14.00" fill="#000000">OriginalFeatureKey_Lowercase </text>
<text text-anchor="start" x="252.9256" y="-56.9" font-family="Arial" font-size="14.00" fill="#666666">[STRING(64)]</text>
<polygon fill="none" stroke="#000000" stroke-width="3" points="44.5,-44.5 44.5,-202.5 355.5,-202.5 355.5,-44.5 44.5,-44.5"/>
</g>
</g>
</svg>
