<?xml version="1.0" encoding="UTF-8" standalone="no"?>
<!DOCTYPE svg PUBLIC "-//W3C//DTD SVG 1.1//EN"
 "http://www.w3.org/Graphics/SVG/1.1/DTD/svg11.dtd">
<!-- Generated by graphviz version 12.1.2 (20240928.0832)
 -->
<!-- Title: NotificationChannelStates Pages: 1 -->
<svg width="880pt" height="664pt"
 viewBox="0.00 0.00 880.03 663.60" xmlns="http://www.w3.org/2000/svg" xmlns:xlink="http://www.w3.org/1999/xlink">
<g id="graph0" class="graph" transform="scale(1 1) rotate(0) translate(4 659.6)">
<title>NotificationChannelStates</title>
<polygon fill="white" stroke="none" points="-4,4 -4,-659.6 876.03,-659.6 876.03,4 -4,4"/>
<!-- NotificationChannelStates -->
<g id="node1" class="node">
<title>NotificationChannelStates</title>
<polygon fill="#efefef" stroke="none" points="46.2,-573.8 46.2,-609.4 436.35,-609.4 436.35,-573.8 46.2,-573.8"/>
<polygon fill="none" stroke="black" points="46.2,-573.8 46.2,-609.4 436.35,-609.4 436.35,-573.8 46.2,-573.8"/>
<text text-anchor="start" x="81.72" y="-587.2" font-family="Arial Bold" font-size="18.00">NotificationChannelStates</text>
<text text-anchor="start" x="271.68" y="-587.2" font-family="Arial" font-size="14.00">    </text>
<text text-anchor="start" x="302.8" y="-587.2" font-family="Arial" font-size="14.00" fill="#666666">[BASIC TABLE]</text>
<polygon fill="none" stroke="black" points="46.2,-543 46.2,-573.8 436.35,-573.8 436.35,-543 46.2,-543"/>
<text text-anchor="start" x="53.2" y="-555.2" font-family="Arial" font-size="14.00">ChannelID </text>
<text text-anchor="start" x="123.24" y="-555.2" font-family="Arial" font-size="14.00" fill="#666666">[STRING(36)]</text>
<polygon fill="none" stroke="black" points="46.2,-512.2 46.2,-543 436.35,-543 436.35,-512.2 46.2,-512.2"/>
<text text-anchor="start" x="53.2" y="-524.4" font-family="Arial" font-size="14.00">IsDisabledBySystem </text>
<text text-anchor="start" x="185.47" y="-524.4" font-family="Arial" font-size="14.00" fill="#666666">[BOOL]</text>
<polygon fill="none" stroke="black" points="46.2,-481.4 46.2,-512.2 436.35,-512.2 436.35,-481.4 46.2,-481.4"/>
<text text-anchor="start" x="53.2" y="-493.6" font-family="Arial" font-size="14.00">ConsecutiveFailures </text>
<text text-anchor="start" x="183.92" y="-493.6" font-family="Arial" font-size="14.00" fill="#666666">[INT64]</text>
<polygon fill="none" stroke="black" points="46.2,-450.6 46.2,-481.4 436.35,-481.4 436.35,-450.6 46.2,-450.6"/>
<text text-anchor="start" x="53.2" y="-462.8" font-family="Arial" font-size="14.00">CreatedAt </text>
<text text-anchor="start" x="120.12" y="-462.8" font-family="Arial" font-size="14.00" fill="#666666">[TIMESTAMP (allow_commit_timestamp=TRUE)]</text>
<polygon fill="none" stroke="black" points="46.2,-419.8 46.2,-450.6 436.35,-450.6 436.35,-419.8 46.2,-419.8"/>
<text text-anchor="start" x="53.2" y="-432" font-family="Arial" font-size="14.00">UpdatedAt </text>
<text text-anchor="start" x="123.25" y="-432" font-family="Arial" font-size="14.00" fill="#666666">[TIMESTAMP (allow_commit_timestamp=TRUE)]</text>
<polygon fill="none" stroke="black" stroke-width="3" points="44.7,-418.3 44.7,-610.9 437.85,-610.9 437.85,-418.3 44.7,-418.3"/>
</g>
<!-- NotificationChannels -->
<g id="node2" class="node">
<title>NotificationChannels</title>
<polygon fill="#efefef" stroke="none" points="46.2,-258.8 46.2,-294.4 436.35,-294.4 436.35,-258.8 46.2,-258.8"/>
<polygon fill="none" stroke="black" points="46.2,-258.8 46.2,-294.4 436.35,-294.4 436.35,-258.8 46.2,-258.8"/>
<text text-anchor="start" x="99.72" y="-272.2" font-family="Arial Bold" font-size="18.00">NotificationChannels</text>
<text text-anchor="start" x="253.68" y="-272.2" font-family="Arial" font-size="14.00">    </text>
<text text-anchor="start" x="284.8" y="-272.2" font-family="Arial" font-size="14.00" fill="#666666">[BASIC TABLE]</text>
<polygon fill="none" stroke="black" points="46.2,-228 46.2,-258.8 436.35,-258.8 436.35,-228 46.2,-228"/>
<text text-anchor="start" x="53.2" y="-240.2" font-family="Arial" font-size="14.00">ID </text>
<text text-anchor="start" x="71.09" y="-240.2" font-family="Arial" font-size="14.00" fill="#666666">[STRING(36)]</text>
<polygon fill="none" stroke="black" points="46.2,-197.2 46.2,-228 436.35,-228 436.35,-197.2 46.2,-197.2"/>
<text text-anchor="start" x="53.2" y="-209.4" font-family="Arial" font-size="14.00">UserID </text>
<text text-anchor="start" x="100.65" y="-209.4" font-family="Arial" font-size="14.00" fill="#666666">[STRING(MAX)]</text>
<polygon fill="none" stroke="black" points="46.2,-166.4 46.2,-197.2 436.35,-197.2 436.35,-166.4 46.2,-166.4"/>
<text text-anchor="start" x="53.2" y="-178.6" font-family="Arial" font-size="14.00">Name </text>
<text text-anchor="start" x="94.43" y="-178.6" font-family="Arial" font-size="14.00" fill="#666666">[STRING(MAX)]</text>
<polygon fill="none" stroke="black" points="46.2,-135.6 46.2,-166.4 436.35,-166.4 436.35,-135.6 46.2,-135.6"/>
<text text-anchor="start" x="53.2" y="-147.8" font-family="Arial" font-size="14.00">Type </text>
<text text-anchor="start" x="88.21" y="-147.8" font-family="Arial" font-size="14.00" fill="#666666">[STRING(MAX)]</text>
<polygon fill="none" stroke="black" points="46.2,-104.8 46.2,-135.6 436.35,-135.6 436.35,-104.8 46.2,-104.8"/>
<text text-anchor="start" x="53.2" y="-117" font-family="Arial" font-size="14.00">Config </text>
<text text-anchor="start" x="97.56" y="-117" font-family="Arial" font-size="14.00" fill="#666666">[JSON]</text>
<polygon fill="none" stroke="black" points="46.2,-74 46.2,-104.8 436.35,-104.8 436.35,-74 46.2,-74"/>
<text text-anchor="start" x="53.2" y="-86.2" font-family="Arial" font-size="14.00">CreatedAt </text>
<text text-anchor="start" x="120.12" y="-86.2" font-family="Arial" font-size="14.00" fill="#666666">[TIMESTAMP (allow_commit_timestamp=TRUE)]</text>
<polygon fill="none" stroke="black" points="46.2,-43.2 46.2,-74 436.35,-74 436.35,-43.2 46.2,-43.2"/>
<text text-anchor="start" x="53.2" y="-55.4" font-family="Arial" font-size="14.00">UpdatedAt </text>
<text text-anchor="start" x="123.25" y="-55.4" font-family="Arial" font-size="14.00" fill="#666666">[TIMESTAMP (allow_commit_timestamp=TRUE)]</text>
</g>
<!-- NotificationChannelStates&#45;&gt;NotificationChannels -->
<g id="edge1" class="edge">
<title>NotificationChannelStates:ChannelID&#45;&gt;NotificationChannels:ID</title>
<path fill="none" stroke="black" d="M447.48,-556.05C507.17,-527.22 503.8,-243.4 437.35,-243.4"/>
<polygon fill="black" stroke="black" points="447.42,-556.06 436.66,-553.94 442.22,-557.27 438.01,-558.25 438.01,-558.25 438.01,-558.25 442.22,-557.27 438.7,-562.71 447.42,-556.06"/>
<text text-anchor="start" x="444.35" y="-568.4" font-family="Arial" font-size="10.00">FOREIGN KEY (ChannelID) REFERENCES NotificationChannels (ID) ON DELETE CASCADE</text>
</g>
</g>
</svg>
