<?xml version="1.0" encoding="UTF-8" standalone="no"?>
<!DOCTYPE svg PUBLIC "-//W3C//DTD SVG 1.1//EN"
 "http://www.w3.org/Graphics/SVG/1.1/DTD/svg11.dtd">
<!-- Generated by graphviz version 2.40.1 (20161225.0304)
 -->
<!-- Title: NotificationChannels Pages: 1 -->
<svg width="516pt" height="652pt"
 viewBox="0.00 0.00 516.17 652.00" xmlns="http://www.w3.org/2000/svg" xmlns:xlink="http://www.w3.org/1999/xlink">
<g id="graph0" class="graph" transform="scale(1 1) rotate(0) translate(4 648)">
<title>NotificationChannels</title>
<polygon fill="#ffffff" stroke="transparent" points="-4,4 -4,-648 512.169,-648 512.169,4 -4,4"/>
<!-- NotificationChannels -->
<g id="node1" class="node">
<title>NotificationChannels</title>
<polygon fill="#efefef" stroke="transparent" points="58,-255.5 58,-290.5 448,-290.5 448,-255.5 58,-255.5"/>
<polygon fill="none" stroke="#000000" points="58,-255.5 58,-290.5 448,-290.5 448,-255.5 58,-255.5"/>
<text text-anchor="start" x="104.3719" y="-268.3" font-family="Arial Bold" font-size="18.00" fill="#000000">NotificationChannels</text>
<text text-anchor="start" x="269.3995" y="-268.3" font-family="Arial" font-size="14.00" fill="#000000">    </text>
<text text-anchor="start" x="303.6043" y="-268.3" font-family="Arial" font-size="14.00" fill="#666666">[BASIC TABLE]</text>
<polygon fill="none" stroke="#000000" points="58,-225.5 58,-255.5 448,-255.5 448,-225.5 58,-225.5"/>
<text text-anchor="start" x="65" y="-236.9" font-family="Arial" font-size="14.00" fill="#000000">ID </text>
<text text-anchor="start" x="82.8878" y="-236.9" font-family="Arial" font-size="14.00" fill="#666666">[STRING(36)]</text>
<polygon fill="none" stroke="#000000" points="58,-195.5 58,-225.5 448,-225.5 448,-195.5 58,-195.5"/>
<text text-anchor="start" x="65" y="-206.9" font-family="Arial" font-size="14.00" fill="#000000">UserID </text>
<text text-anchor="start" x="112.4376" y="-206.9" font-family="Arial" font-size="14.00" fill="#666666">[STRING(MAX)]</text>
<polygon fill="none" stroke="#000000" points="58,-165.5 58,-195.5 448,-195.5 448,-165.5 58,-165.5"/>
<text text-anchor="start" x="65" y="-176.9" font-family="Arial" font-size="14.00" fill="#000000">Name </text>
<text text-anchor="start" x="106.223" y="-176.9" font-family="Arial" font-size="14.00" fill="#666666">[STRING(MAX)]</text>
<polygon fill="none" stroke="#000000" points="58,-135.5 58,-165.5 448,-165.5 448,-135.5 58,-135.5"/>
<text text-anchor="start" x="65" y="-146.9" font-family="Arial" font-size="14.00" fill="#000000">Type </text>
<text text-anchor="start" x="100.0084" y="-146.9" font-family="Arial" font-size="14.00" fill="#666666">[STRING(MAX)]</text>
<polygon fill="none" stroke="#000000" points="58,-105.5 58,-135.5 448,-135.5 448,-105.5 58,-105.5"/>
<text text-anchor="start" x="65" y="-116.9" font-family="Arial" font-size="14.00" fill="#000000">Config </text>
<text text-anchor="start" x="109.3422" y="-116.9" font-family="Arial" font-size="14.00" fill="#666666">[JSON]</text>
<polygon fill="none" stroke="#000000" points="58,-75.5 58,-105.5 448,-105.5 448,-75.5 58,-75.5"/>
<text text-anchor="start" x="65" y="-86.9" font-family="Arial" font-size="14.00" fill="#000000">CreatedAt </text>
<text text-anchor="start" x="131.906" y="-86.9" font-family="Arial" font-size="14.00" fill="#666666">[TIMESTAMP (allow_commit_timestamp=TRUE)]</text>
<polygon fill="none" stroke="#000000" points="58,-45.5 58,-75.5 448,-75.5 448,-45.5 58,-45.5"/>
<text text-anchor="start" x="64.9653" y="-56.9" font-family="Arial" font-size="14.00" fill="#000000">UpdatedAt </text>
<text text-anchor="start" x="134.9933" y="-56.9" font-family="Arial" font-size="14.00" fill="#666666">[TIMESTAMP (allow_commit_timestamp=TRUE)]</text>
<polygon fill="none" stroke="#000000" stroke-width="3" points="56.5,-44.5 56.5,-292.5 449.5,-292.5 449.5,-44.5 56.5,-44.5"/>
</g>
<!-- NotificationChannelStates -->
<g id="node2" class="node">
<title>NotificationChannelStates</title>
<polygon fill="#efefef" stroke="transparent" points="43,-565.5 43,-600.5 463,-600.5 463,-565.5 43,-565.5"/>
<polygon fill="none" stroke="#000000" points="43,-565.5 43,-600.5 463,-600.5 463,-565.5 43,-565.5"/>
<text text-anchor="start" x="83.3614" y="-578.3" font-family="Arial Bold" font-size="18.00" fill="#000000">NotificationChannelStates</text>
<text text-anchor="start" x="290.41" y="-578.3" font-family="Arial" font-size="14.00" fill="#000000">    </text>
<text text-anchor="start" x="324.6148" y="-578.3" font-family="Arial" font-size="14.00" fill="#666666">[BASIC TABLE]</text>
<polygon fill="none" stroke="#000000" points="43,-535.5 43,-565.5 463,-565.5 463,-535.5 43,-535.5"/>
<text text-anchor="start" x="50" y="-546.9" font-family="Arial" font-size="14.00" fill="#000000">ChannelID    </text>
<text text-anchor="start" x="150.3282" y="-546.9" font-family="Arial" font-size="14.00" fill="#666666">[STRING(36)]</text>
<polygon fill="none" stroke="#000000" points="43,-505.5 43,-535.5 463,-535.5 463,-505.5 43,-505.5"/>
<text text-anchor="start" x="50" y="-516.9" font-family="Arial" font-size="14.00" fill="#000000">IsDisabledBySystem    </text>
<text text-anchor="start" x="212.5526" y="-516.9" font-family="Arial" font-size="14.00" fill="#666666">[BOOL]</text>
<polygon fill="none" stroke="#000000" points="43,-475.5 43,-505.5 463,-505.5 463,-475.5 43,-475.5"/>
<text text-anchor="start" x="50" y="-486.9" font-family="Arial" font-size="14.00" fill="#000000">ConsecutiveFailures    </text>
<text text-anchor="start" x="210.9958" y="-486.9" font-family="Arial" font-size="14.00" fill="#666666">[INT64]</text>
<polygon fill="none" stroke="#000000" points="43,-445.5 43,-475.5 463,-475.5 463,-445.5 43,-445.5"/>
<text text-anchor="start" x="50" y="-456.9" font-family="Arial" font-size="14.00" fill="#000000">CreatedAt    </text>
<text text-anchor="start" x="147.2202" y="-456.9" font-family="Arial" font-size="14.00" fill="#666666">[TIMESTAMP (allow_commit_timestamp=TRUE)]</text>
<polygon fill="none" stroke="#000000" points="43,-415.5 43,-445.5 463,-445.5 463,-415.5 43,-415.5"/>
<text text-anchor="start" x="49.8082" y="-426.9" font-family="Arial" font-size="14.00" fill="#000000">UpdatedAt    </text>
<text text-anchor="start" x="150.1504" y="-426.9" font-family="Arial" font-size="14.00" fill="#666666">[TIMESTAMP (allow_commit_timestamp=TRUE)]</text>
</g>
<!-- NotificationChannelStates&#45;&gt;NotificationChannels -->
<g id="edge1" class="edge">
<title>NotificationChannelStates:ChannelID&#45;&gt;NotificationChannels:ID</title>
<path fill="none" stroke="#000000" stroke-dasharray="5,2" d="M472.8614,-548.183C530.3069,-519.815 513.4671,-240.5 448,-240.5"/>
<polygon fill="#000000" stroke="#000000" points="472.7349,-548.2126 461.9707,-546.1193 467.8674,-549.3563 463,-550.5 463,-550.5 463,-550.5 467.8674,-549.3563 464.0293,-554.8807 472.7349,-548.2126 472.7349,-548.2126"/>
</g>
</g>
</svg>
