<?xml version="1.0" encoding="UTF-8" standalone="no"?>
<!DOCTYPE svg PUBLIC "-//W3C//DTD SVG 1.1//EN"
 "http://www.w3.org/Graphics/SVG/1.1/DTD/svg11.dtd">
<!-- Generated by graphviz version 12.1.2 (20240928.0832)
 -->
<!-- Title: NotificationChannels Pages: 1 -->
<svg width="1503pt" height="725pt"
 viewBox="0.00 0.00 1502.55 725.20" xmlns="http://www.w3.org/2000/svg" xmlns:xlink="http://www.w3.org/1999/xlink">
<g id="graph0" class="graph" transform="scale(1 1) rotate(0) translate(4 721.2)">
<title>NotificationChannels</title>
<polygon fill="white" stroke="none" points="-4,4 -4,-721.2 1498.55,-721.2 1498.55,4 -4,4"/>
<!-- NotificationChannels -->
<g id="node1" class="node">
<title>NotificationChannels</title>
<polygon fill="#efefef" stroke="none" points="552.2,-261.8 552.2,-297.4 942.35,-297.4 942.35,-261.8 552.2,-261.8"/>
<polygon fill="none" stroke="black" points="552.2,-261.8 552.2,-297.4 942.35,-297.4 942.35,-261.8 552.2,-261.8"/>
<text text-anchor="start" x="605.72" y="-275.2" font-family="Arial Bold" font-size="18.00">NotificationChannels</text>
<text text-anchor="start" x="759.68" y="-275.2" font-family="Arial" font-size="14.00">    </text>
<text text-anchor="start" x="790.8" y="-275.2" font-family="Arial" font-size="14.00" fill="#666666">[BASIC TABLE]</text>
<polygon fill="none" stroke="black" points="552.2,-231 552.2,-261.8 942.35,-261.8 942.35,-231 552.2,-231"/>
<text text-anchor="start" x="559.2" y="-243.2" font-family="Arial" font-size="14.00">ID </text>
<text text-anchor="start" x="577.09" y="-243.2" font-family="Arial" font-size="14.00" fill="#666666">[STRING(36)]</text>
<polygon fill="none" stroke="black" points="552.2,-200.2 552.2,-231 942.35,-231 942.35,-200.2 552.2,-200.2"/>
<text text-anchor="start" x="559.2" y="-212.4" font-family="Arial" font-size="14.00">UserID </text>
<text text-anchor="start" x="606.65" y="-212.4" font-family="Arial" font-size="14.00" fill="#666666">[STRING(MAX)]</text>
<polygon fill="none" stroke="black" points="552.2,-169.4 552.2,-200.2 942.35,-200.2 942.35,-169.4 552.2,-169.4"/>
<text text-anchor="start" x="559.2" y="-181.6" font-family="Arial" font-size="14.00">Name </text>
<text text-anchor="start" x="600.43" y="-181.6" font-family="Arial" font-size="14.00" fill="#666666">[STRING(MAX)]</text>
<polygon fill="none" stroke="black" points="552.2,-138.6 552.2,-169.4 942.35,-169.4 942.35,-138.6 552.2,-138.6"/>
<text text-anchor="start" x="559.2" y="-150.8" font-family="Arial" font-size="14.00">Type </text>
<text text-anchor="start" x="594.21" y="-150.8" font-family="Arial" font-size="14.00" fill="#666666">[STRING(MAX)]</text>
<polygon fill="none" stroke="black" points="552.2,-107.8 552.2,-138.6 942.35,-138.6 942.35,-107.8 552.2,-107.8"/>
<text text-anchor="start" x="559.2" y="-120" font-family="Arial" font-size="14.00">Config </text>
<text text-anchor="start" x="603.56" y="-120" font-family="Arial" font-size="14.00" fill="#666666">[JSON]</text>
<polygon fill="none" stroke="black" points="552.2,-77 552.2,-107.8 942.35,-107.8 942.35,-77 552.2,-77"/>
<text text-anchor="start" x="559.2" y="-89.2" font-family="Arial" font-size="14.00">CreatedAt </text>
<text text-anchor="start" x="626.12" y="-89.2" font-family="Arial" font-size="14.00" fill="#666666">[TIMESTAMP (allow_commit_timestamp=TRUE)]</text>
<polygon fill="none" stroke="black" points="552.2,-46.2 552.2,-77 942.35,-77 942.35,-46.2 552.2,-46.2"/>
<text text-anchor="start" x="559.2" y="-58.4" font-family="Arial" font-size="14.00">UpdatedAt </text>
<text text-anchor="start" x="629.25" y="-58.4" font-family="Arial" font-size="14.00" fill="#666666">[TIMESTAMP (allow_commit_timestamp=TRUE)]</text>
<polygon fill="none" stroke="black" stroke-width="3" points="550.7,-44.7 550.7,-298.9 943.85,-298.9 943.85,-44.7 550.7,-44.7"/>
</g>
<!-- NotificationChannelStates -->
<g id="node2" class="node">
<title>NotificationChannelStates</title>
<polygon fill="#efefef" stroke="none" points="43.2,-607.6 43.2,-643.2 433.35,-643.2 433.35,-607.6 43.2,-607.6"/>
<polygon fill="none" stroke="black" points="43.2,-607.6 43.2,-643.2 433.35,-643.2 433.35,-607.6 43.2,-607.6"/>
<text text-anchor="start" x="78.72" y="-621" font-family="Arial Bold" font-size="18.00">NotificationChannelStates</text>
<text text-anchor="start" x="268.68" y="-621" font-family="Arial" font-size="14.00">    </text>
<text text-anchor="start" x="299.8" y="-621" font-family="Arial" font-size="14.00" fill="#666666">[BASIC TABLE]</text>
<polygon fill="none" stroke="black" points="43.2,-576.8 43.2,-607.6 433.35,-607.6 433.35,-576.8 43.2,-576.8"/>
<text text-anchor="start" x="50.2" y="-589" font-family="Arial" font-size="14.00">ChannelID </text>
<text text-anchor="start" x="120.24" y="-589" font-family="Arial" font-size="14.00" fill="#666666">[STRING(36)]</text>
<polygon fill="none" stroke="black" points="43.2,-546 43.2,-576.8 433.35,-576.8 433.35,-546 43.2,-546"/>
<text text-anchor="start" x="50.2" y="-558.2" font-family="Arial" font-size="14.00">IsDisabledBySystem </text>
<text text-anchor="start" x="182.47" y="-558.2" font-family="Arial" font-size="14.00" fill="#666666">[BOOL]</text>
<polygon fill="none" stroke="black" points="43.2,-515.2 43.2,-546 433.35,-546 433.35,-515.2 43.2,-515.2"/>
<text text-anchor="start" x="50.2" y="-527.4" font-family="Arial" font-size="14.00">ConsecutiveFailures </text>
<text text-anchor="start" x="180.92" y="-527.4" font-family="Arial" font-size="14.00" fill="#666666">[INT64]</text>
<polygon fill="none" stroke="black" points="43.2,-484.4 43.2,-515.2 433.35,-515.2 433.35,-484.4 43.2,-484.4"/>
<text text-anchor="start" x="50.2" y="-496.6" font-family="Arial" font-size="14.00">CreatedAt </text>
<text text-anchor="start" x="117.12" y="-496.6" font-family="Arial" font-size="14.00" fill="#666666">[TIMESTAMP (allow_commit_timestamp=TRUE)]</text>
<polygon fill="none" stroke="black" points="43.2,-453.6 43.2,-484.4 433.35,-484.4 433.35,-453.6 43.2,-453.6"/>
<text text-anchor="start" x="50.2" y="-465.8" font-family="Arial" font-size="14.00">UpdatedAt </text>
<text text-anchor="start" x="120.25" y="-465.8" font-family="Arial" font-size="14.00" fill="#666666">[TIMESTAMP (allow_commit_timestamp=TRUE)]</text>
</g>
<!-- NotificationChannelStates&#45;&gt;NotificationChannels -->
<g id="edge1" class="edge">
<title>NotificationChannelStates:ChannelID&#45;&gt;NotificationChannels:ID</title>
<path fill="none" stroke="black" d="M444.46,-591.71C525.78,-583.24 453.43,-467.57 485.28,-379.6 507.76,-317.49 485.15,-246.4 551.2,-246.4"/>
<polygon fill="black" stroke="black" points="444.68,-591.7 434.47,-587.69 439.35,-591.96 435.02,-592.17 435.02,-592.17 435.02,-592.17 439.35,-591.96 434.91,-596.68 444.68,-591.7"/>
<text text-anchor="start" x="441.35" y="-602.2" font-family="Arial" font-size="10.00">FOREIGN KEY (ChannelID) REFERENCES NotificationChannels (ID) ON DELETE CASCADE</text>
</g>
<!-- NotificationChannelDeliveryAttempts -->
<g id="node3" class="node">
<title>NotificationChannelDeliveryAttempts</title>
<polygon fill="#efefef" stroke="none" points="537.74,-607.6 537.74,-643.2 956.82,-643.2 956.82,-607.6 537.74,-607.6"/>
<polygon fill="none" stroke="black" points="537.74,-607.6 537.74,-643.2 956.82,-643.2 956.82,-607.6 537.74,-607.6"/>
<text text-anchor="start" x="544.74" y="-621" font-family="Arial Bold" font-size="18.00">NotificationChannelDeliveryAttempts</text>
<text text-anchor="start" x="820.67" y="-621" font-family="Arial" font-size="14.00">    </text>
<text text-anchor="start" x="851.78" y="-621" font-family="Arial" font-size="14.00" fill="#666666">[BASIC TABLE]</text>
<polygon fill="none" stroke="black" points="537.74,-576.8 537.74,-607.6 956.82,-607.6 956.82,-576.8 537.74,-576.8"/>
<text text-anchor="start" x="544.74" y="-589" font-family="Arial" font-size="14.00">ID </text>
<text text-anchor="start" x="562.62" y="-589" font-family="Arial" font-size="14.00" fill="#666666">[STRING(36)]</text>
<polygon fill="none" stroke="black" points="537.74,-546 537.74,-576.8 956.82,-576.8 956.82,-546 537.74,-546"/>
<text text-anchor="start" x="544.74" y="-558.2" font-family="Arial" font-size="14.00">ChannelID </text>
<text text-anchor="start" x="614.78" y="-558.2" font-family="Arial" font-size="14.00" fill="#666666">[STRING(36)]</text>
<polygon fill="none" stroke="black" points="537.74,-515.2 537.74,-546 956.82,-546 956.82,-515.2 537.74,-515.2"/>
<text text-anchor="start" x="544.74" y="-527.4" font-family="Arial" font-size="14.00">AttemptTimestamp </text>
<text text-anchor="start" x="666.1" y="-527.4" font-family="Arial" font-size="14.00" fill="#666666">[TIMESTAMP]</text>
<polygon fill="none" stroke="black" points="537.74,-484.4 537.74,-515.2 956.82,-515.2 956.82,-484.4 537.74,-484.4"/>
<text text-anchor="start" x="544.74" y="-496.6" font-family="Arial" font-size="14.00">Status </text>
<text text-anchor="start" x="588.31" y="-496.6" font-family="Arial" font-size="14.00" fill="#666666">[STRING(MAX)]</text>
<polygon fill="none" stroke="black" points="537.74,-453.6 537.74,-484.4 956.82,-484.4 956.82,-453.6 537.74,-453.6"/>
<text text-anchor="start" x="544.74" y="-465.8" font-family="Arial" font-size="14.00">Details </text>
<text text-anchor="start" x="591.42" y="-465.8" font-family="Arial" font-size="14.00" fill="#666666">[JSON]</text>
</g>
<!-- NotificationChannelDeliveryAttempts&#45;&gt;NotificationChannels -->
<g id="edge2" class="edge">
<title>NotificationChannelDeliveryAttempts:ChannelID&#45;&gt;NotificationChannels:ID</title>
<path fill="none" stroke="black" d="M967.84,-559.05C1026.28,-530.22 1009.87,-246.4 943.35,-246.4"/>
<polygon fill="black" stroke="black" points="967.88,-559.04 957.12,-556.94 962.69,-560.26 958.47,-561.25 958.47,-561.25 958.47,-561.25 962.69,-560.26 959.17,-565.7 967.88,-559.04"/>
<text text-anchor="start" x="747.48" y="-545.4" font-family="Arial" font-size="10.00">FOREIGN KEY (ChannelID) REFERENCES NotificationChannels (ID) ON DELETE CASCADE</text>
</g>
<!-- SavedSearchSubscriptions -->
<g id="node4" class="node">
<title>SavedSearchSubscriptions</title>
<polygon fill="#efefef" stroke="none" points="1061.2,-638.4 1061.2,-674 1451.35,-674 1451.35,-638.4 1061.2,-638.4"/>
<polygon fill="none" stroke="black" points="1061.2,-638.4 1061.2,-674 1451.35,-674 1451.35,-638.4 1061.2,-638.4"/>
<text text-anchor="start" x="1096.22" y="-651.8" font-family="Arial Bold" font-size="18.00">SavedSearchSubscriptions</text>
<text text-anchor="start" x="1287.19" y="-651.8" font-family="Arial" font-size="14.00">    </text>
<text text-anchor="start" x="1318.3" y="-651.8" font-family="Arial" font-size="14.00" fill="#666666">[BASIC TABLE]</text>
<polygon fill="none" stroke="black" points="1061.2,-607.6 1061.2,-638.4 1451.35,-638.4 1451.35,-607.6 1061.2,-607.6"/>
<text text-anchor="start" x="1068.2" y="-619.8" font-family="Arial" font-size="14.00">ID </text>
<text text-anchor="start" x="1086.09" y="-619.8" font-family="Arial" font-size="14.00" fill="#666666">[STRING(36)]</text>
<polygon fill="none" stroke="black" points="1061.2,-576.8 1061.2,-607.6 1451.35,-607.6 1451.35,-576.8 1061.2,-576.8"/>
<text text-anchor="start" x="1068.2" y="-589" font-family="Arial" font-size="14.00">ChannelID </text>
<text text-anchor="start" x="1138.24" y="-589" font-family="Arial" font-size="14.00" fill="#666666">[STRING(36)]</text>
<polygon fill="none" stroke="black" points="1061.2,-546 1061.2,-576.8 1451.35,-576.8 1451.35,-546 1061.2,-546"/>
<text text-anchor="start" x="1068.2" y="-558.2" font-family="Arial" font-size="14.00">SavedSearchID </text>
<text text-anchor="start" x="1170.14" y="-558.2" font-family="Arial" font-size="14.00" fill="#666666">[STRING(36)]</text>
<polygon fill="none" stroke="black" points="1061.2,-515.2 1061.2,-546 1451.35,-546 1451.35,-515.2 1061.2,-515.2"/>
<text text-anchor="start" x="1068.2" y="-527.4" font-family="Arial" font-size="14.00">Triggers </text>
<text text-anchor="start" x="1123.43" y="-527.4" font-family="Arial" font-size="14.00" fill="#666666">[ARRAY&lt;STRING(MAX)&gt;]</text>
<polygon fill="none" stroke="black" points="1061.2,-484.4 1061.2,-515.2 1451.35,-515.2 1451.35,-484.4 1061.2,-484.4"/>
<text text-anchor="start" x="1068.2" y="-496.6" font-family="Arial" font-size="14.00">Frequency </text>
<text text-anchor="start" x="1138.23" y="-496.6" font-family="Arial" font-size="14.00" fill="#666666">[STRING(MAX)]</text>
<polygon fill="none" stroke="black" points="1061.2,-453.6 1061.2,-484.4 1451.35,-484.4 1451.35,-453.6 1061.2,-453.6"/>
<text text-anchor="start" x="1068.2" y="-465.8" font-family="Arial" font-size="14.00">CreatedAt </text>
<text text-anchor="start" x="1135.12" y="-465.8" font-family="Arial" font-size="14.00" fill="#666666">[TIMESTAMP (allow_commit_timestamp=TRUE)]</text>
<polygon fill="none" stroke="black" points="1061.2,-422.8 1061.2,-453.6 1451.35,-453.6 1451.35,-422.8 1061.2,-422.8"/>
<text text-anchor="start" x="1068.2" y="-435" font-family="Arial" font-size="14.00">UpdatedAt </text>
<text text-anchor="start" x="1138.25" y="-435" font-family="Arial" font-size="14.00" fill="#666666">[TIMESTAMP (allow_commit_timestamp=TRUE)]</text>
</g>
<!-- SavedSearchSubscriptions&#45;&gt;NotificationChannels -->
<g id="edge3" class="edge">
<title>SavedSearchSubscriptions:ChannelID&#45;&gt;NotificationChannels:ID</title>
<path fill="none" stroke="black" d="M1050.1,-591.71C968.77,-583.24 1041.12,-467.57 1009.28,-379.6 986.79,-317.49 1009.41,-246.4 943.35,-246.4"/>
<polygon fill="black" stroke="black" points="1049.88,-591.7 1059.65,-596.68 1055.21,-591.96 1059.53,-592.17 1059.53,-592.17 1059.53,-592.17 1055.21,-591.96 1060.09,-587.69 1049.88,-591.7"/>
<text text-anchor="start" x="741.19" y="-576.2" font-family="Arial" font-size="10.00">FOREIGN KEY (ChannelID) REFERENCES NotificationChannels (ID) ON DELETE CASCADE</text>
</g>
</g>
</svg>
