<?xml version="1.0" encoding="UTF-8" standalone="no"?>
<!DOCTYPE svg PUBLIC "-//W3C//DTD SVG 1.1//EN"
 "http://www.w3.org/Graphics/SVG/1.1/DTD/svg11.dtd">
<!-- Generated by graphviz version 2.40.1 (20161225.0304)
 -->
<!-- Title: NotificationChannelDeliveryAttempts Pages: 1 -->
<svg width="538pt" height="285pt"
 viewBox="0.00 0.00 538.00 285.00" xmlns="http://www.w3.org/2000/svg" xmlns:xlink="http://www.w3.org/1999/xlink">
<g id="graph0" class="graph" transform="scale(1 1) rotate(0) translate(4 281)">
<title>NotificationChannelDeliveryAttempts</title>
<polygon fill="#ffffff" stroke="transparent" points="-4,4 -4,-281 534,-281 534,4 -4,4"/>
<!-- NotificationChannelDeliveryAttempts -->
<g id="node1" class="node">
<title>NotificationChannelDeliveryAttempts</title>
<polygon fill="#efefef" stroke="transparent" points="46,-195.5 46,-230.5 484,-230.5 484,-195.5 46,-195.5"/>
<polygon fill="none" stroke="#000000" points="46,-195.5 46,-230.5 484,-230.5 484,-195.5 46,-195.5"/>
<text text-anchor="start" x="52.8706" y="-208.3" font-family="Arial Bold" font-size="18.00" fill="#000000">NotificationChannelDeliveryAttempts</text>
<text text-anchor="start" x="344.9008" y="-208.3" font-family="Arial" font-size="14.00" fill="#000000">    </text>
<text text-anchor="start" x="379.1056" y="-208.3" font-family="Arial" font-size="14.00" fill="#666666">[BASIC TABLE]</text>
<polygon fill="none" stroke="#000000" points="46,-165.5 46,-195.5 484,-195.5 484,-165.5 46,-165.5"/>
<text text-anchor="start" x="53" y="-176.9" font-family="Arial" font-size="14.00" fill="#000000">ID </text>
<text text-anchor="start" x="70.8878" y="-176.9" font-family="Arial" font-size="14.00" fill="#666666">[STRING(36)]</text>
<polygon fill="none" stroke="#000000" points="46,-135.5 46,-165.5 484,-165.5 484,-135.5 46,-135.5"/>
<text text-anchor="start" x="53" y="-146.9" font-family="Arial" font-size="14.00" fill="#000000">ChannelID </text>
<text text-anchor="start" x="123.014" y="-146.9" font-family="Arial" font-size="14.00" fill="#666666">[STRING(36)]</text>
<polygon fill="none" stroke="#000000" points="46,-105.5 46,-135.5 484,-135.5 484,-105.5 46,-105.5"/>
<text text-anchor="start" x="53" y="-116.9" font-family="Arial" font-size="14.00" fill="#000000">AttemptTimestamp </text>
<text text-anchor="start" x="174.3436" y="-116.9" font-family="Arial" font-size="14.00" fill="#666666">[TIMESTAMP]</text>
<polygon fill="none" stroke="#000000" points="46,-75.5 46,-105.5 484,-105.5 484,-75.5 46,-75.5"/>
<text text-anchor="start" x="53" y="-86.9" font-family="Arial" font-size="14.00" fill="#000000">Status </text>
<text text-anchor="start" x="96.5736" y="-86.9" font-family="Arial" font-size="14.00" fill="#666666">[STRING(MAX)]</text>
<polygon fill="none" stroke="#000000" points="46,-45.5 46,-75.5 484,-75.5 484,-45.5 46,-45.5"/>
<text text-anchor="start" x="53" y="-56.9" font-family="Arial" font-size="14.00" fill="#000000">Details </text>
<text text-anchor="start" x="99.6662" y="-56.9" font-family="Arial" font-size="14.00" fill="#666666">[JSON]</text>
<polygon fill="none" stroke="#000000" stroke-width="3" points="44.5,-44.5 44.5,-232.5 485.5,-232.5 485.5,-44.5 44.5,-44.5"/>
</g>
</g>
</svg>
