<?xml version="1.0" encoding="UTF-8" standalone="no"?>
<!DOCTYPE svg PUBLIC "-//W3C//DTD SVG 1.1//EN"
 "http://www.w3.org/Graphics/SVG/1.1/DTD/svg11.dtd">
<!-- Generated by graphviz version 12.1.2 (20240928.0832)
 -->
<!-- Title: NotificationChannelDeliveryAttempts Pages: 1 -->
<svg width="909pt" height="664pt"
 viewBox="0.00 0.00 908.96 663.60" xmlns="http://www.w3.org/2000/svg" xmlns:xlink="http://www.w3.org/1999/xlink">
<g id="graph0" class="graph" transform="scale(1 1) rotate(0) translate(4 659.6)">
<title>NotificationChannelDeliveryAttempts</title>
<polygon fill="white" stroke="none" points="-4,4 -4,-659.6 904.96,-659.6 904.96,4 -4,4"/>
<!-- NotificationChannelDeliveryAttempts -->
<g id="node1" class="node">
<title>NotificationChannelDeliveryAttempts</title>
<polygon fill="#efefef" stroke="none" points="46.2,-573.8 46.2,-609.4 465.28,-609.4 465.28,-573.8 46.2,-573.8"/>
<polygon fill="none" stroke="black" points="46.2,-573.8 46.2,-609.4 465.28,-609.4 465.28,-573.8 46.2,-573.8"/>
<text text-anchor="start" x="53.2" y="-587.2" font-family="Arial Bold" font-size="18.00">NotificationChannelDeliveryAttempts</text>
<text text-anchor="start" x="329.13" y="-587.2" font-family="Arial" font-size="14.00">    </text>
<text text-anchor="start" x="360.25" y="-587.2" font-family="Arial" font-size="14.00" fill="#666666">[BASIC TABLE]</text>
<polygon fill="none" stroke="black" points="46.2,-543 46.2,-573.8 465.28,-573.8 465.28,-543 46.2,-543"/>
<text text-anchor="start" x="53.2" y="-555.2" font-family="Arial" font-size="14.00">ID </text>
<text text-anchor="start" x="71.09" y="-555.2" font-family="Arial" font-size="14.00" fill="#666666">[STRING(36)]</text>
<polygon fill="none" stroke="black" points="46.2,-512.2 46.2,-543 465.28,-543 465.28,-512.2 46.2,-512.2"/>
<text text-anchor="start" x="53.2" y="-524.4" font-family="Arial" font-size="14.00">ChannelID </text>
<text text-anchor="start" x="123.24" y="-524.4" font-family="Arial" font-size="14.00" fill="#666666">[STRING(36)]</text>
<polygon fill="none" stroke="black" points="46.2,-481.4 46.2,-512.2 465.28,-512.2 465.28,-481.4 46.2,-481.4"/>
<text text-anchor="start" x="53.2" y="-493.6" font-family="Arial" font-size="14.00">AttemptTimestamp </text>
<text text-anchor="start" x="174.57" y="-493.6" font-family="Arial" font-size="14.00" fill="#666666">[TIMESTAMP]</text>
<polygon fill="none" stroke="black" points="46.2,-450.6 46.2,-481.4 465.28,-481.4 465.28,-450.6 46.2,-450.6"/>
<text text-anchor="start" x="53.2" y="-462.8" font-family="Arial" font-size="14.00">Status </text>
<text text-anchor="start" x="96.78" y="-462.8" font-family="Arial" font-size="14.00" fill="#666666">[STRING(MAX)]</text>
<polygon fill="none" stroke="black" points="46.2,-419.8 46.2,-450.6 465.28,-450.6 465.28,-419.8 46.2,-419.8"/>
<text text-anchor="start" x="53.2" y="-432" font-family="Arial" font-size="14.00">Details </text>
<text text-anchor="start" x="99.88" y="-432" font-family="Arial" font-size="14.00" fill="#666666">[JSON]</text>
<polygon fill="none" stroke="black" stroke-width="3" points="44.7,-418.3 44.7,-610.9 466.78,-610.9 466.78,-418.3 44.7,-418.3"/>
</g>
<!-- NotificationChannels -->
<g id="node2" class="node">
<title>NotificationChannels</title>
<polygon fill="#efefef" stroke="none" points="60.66,-258.8 60.66,-294.4 450.82,-294.4 450.82,-258.8 60.66,-258.8"/>
<polygon fill="none" stroke="black" points="60.66,-258.8 60.66,-294.4 450.82,-294.4 450.82,-258.8 60.66,-258.8"/>
<text text-anchor="start" x="114.18" y="-272.2" font-family="Arial Bold" font-size="18.00">NotificationChannels</text>
<text text-anchor="start" x="268.15" y="-272.2" font-family="Arial" font-size="14.00">    </text>
<text text-anchor="start" x="299.27" y="-272.2" font-family="Arial" font-size="14.00" fill="#666666">[BASIC TABLE]</text>
<polygon fill="none" stroke="black" points="60.66,-228 60.66,-258.8 450.82,-258.8 450.82,-228 60.66,-228"/>
<text text-anchor="start" x="67.66" y="-240.2" font-family="Arial" font-size="14.00">ID </text>
<text text-anchor="start" x="85.55" y="-240.2" font-family="Arial" font-size="14.00" fill="#666666">[STRING(36)]</text>
<polygon fill="none" stroke="black" points="60.66,-197.2 60.66,-228 450.82,-228 450.82,-197.2 60.66,-197.2"/>
<text text-anchor="start" x="67.66" y="-209.4" font-family="Arial" font-size="14.00">UserID </text>
<text text-anchor="start" x="115.11" y="-209.4" font-family="Arial" font-size="14.00" fill="#666666">[STRING(MAX)]</text>
<polygon fill="none" stroke="black" points="60.66,-166.4 60.66,-197.2 450.82,-197.2 450.82,-166.4 60.66,-166.4"/>
<text text-anchor="start" x="67.66" y="-178.6" font-family="Arial" font-size="14.00">Name </text>
<text text-anchor="start" x="108.9" y="-178.6" font-family="Arial" font-size="14.00" fill="#666666">[STRING(MAX)]</text>
<polygon fill="none" stroke="black" points="60.66,-135.6 60.66,-166.4 450.82,-166.4 450.82,-135.6 60.66,-135.6"/>
<text text-anchor="start" x="67.66" y="-147.8" font-family="Arial" font-size="14.00">Type </text>
<text text-anchor="start" x="102.68" y="-147.8" font-family="Arial" font-size="14.00" fill="#666666">[STRING(MAX)]</text>
<polygon fill="none" stroke="black" points="60.66,-104.8 60.66,-135.6 450.82,-135.6 450.82,-104.8 60.66,-104.8"/>
<text text-anchor="start" x="67.66" y="-117" font-family="Arial" font-size="14.00">Config </text>
<text text-anchor="start" x="112.02" y="-117" font-family="Arial" font-size="14.00" fill="#666666">[JSON]</text>
<polygon fill="none" stroke="black" points="60.66,-74 60.66,-104.8 450.82,-104.8 450.82,-74 60.66,-74"/>
<text text-anchor="start" x="67.66" y="-86.2" font-family="Arial" font-size="14.00">CreatedAt </text>
<text text-anchor="start" x="134.59" y="-86.2" font-family="Arial" font-size="14.00" fill="#666666">[TIMESTAMP (allow_commit_timestamp=TRUE)]</text>
<polygon fill="none" stroke="black" points="60.66,-43.2 60.66,-74 450.82,-74 450.82,-43.2 60.66,-43.2"/>
<text text-anchor="start" x="67.66" y="-55.4" font-family="Arial" font-size="14.00">UpdatedAt </text>
<text text-anchor="start" x="137.71" y="-55.4" font-family="Arial" font-size="14.00" fill="#666666">[TIMESTAMP (allow_commit_timestamp=TRUE)]</text>
</g>
<!-- NotificationChannelDeliveryAttempts&#45;&gt;NotificationChannels -->
<g id="edge1" class="edge">
<title>NotificationChannelDeliveryAttempts:ChannelID&#45;&gt;NotificationChannels:ID</title>
<path fill="none" stroke="black" d="M476.29,-524.97C527.73,-496.32 511.47,-243.4 451.82,-243.4"/>
<polygon fill="black" stroke="black" points="476.28,-524.97 465.46,-523.16 471.12,-526.33 466.93,-527.43 466.93,-527.43 466.93,-527.43 471.12,-526.33 467.75,-531.87 476.28,-524.97"/>
<text text-anchor="start" x="473.28" y="-537.6" font-family="Arial" font-size="10.00">FOREIGN KEY (ChannelID) REFERENCES NotificationChannels (ID) ON DELETE CASCADE</text>
</g>
</g>
</svg>
