<?xml version="1.0" encoding="UTF-8" standalone="no"?>
<!DOCTYPE svg PUBLIC "-//W3C//DTD SVG 1.1//EN"
 "http://www.w3.org/Graphics/SVG/1.1/DTD/svg11.dtd">
<!-- Generated by graphviz version 2.40.1 (20161225.0304)
 -->
<!-- Title: NotificationChannelStates Pages: 1 -->
<svg width="516pt" height="652pt"
 viewBox="0.00 0.00 516.14 652.00" xmlns="http://www.w3.org/2000/svg" xmlns:xlink="http://www.w3.org/1999/xlink">
<g id="graph0" class="graph" transform="scale(1 1) rotate(0) translate(4 648)">
<title>NotificationChannelStates</title>
<polygon fill="#ffffff" stroke="transparent" points="-4,4 -4,-648 512.1366,-648 512.1366,4 -4,4"/>
<!-- NotificationChannelStates -->
<g id="node1" class="node">
<title>NotificationChannelStates</title>
<polygon fill="#efefef" stroke="transparent" points="58,-562.5 58,-597.5 448,-597.5 448,-562.5 58,-562.5"/>
<polygon fill="none" stroke="#000000" points="58,-562.5 58,-597.5 448,-597.5 448,-562.5 58,-562.5"/>
<text text-anchor="start" x="83.3614" y="-575.3" font-family="Arial Bold" font-size="18.00" fill="#000000">NotificationChannelStates</text>
<text text-anchor="start" x="290.41" y="-575.3" font-family="Arial" font-size="14.00" fill="#000000">    </text>
<text text-anchor="start" x="324.6148" y="-575.3" font-family="Arial" font-size="14.00" fill="#666666">[BASIC TABLE]</text>
<polygon fill="none" stroke="#000000" points="58,-532.5 58,-562.5 448,-562.5 448,-532.5 58,-532.5"/>
<text text-anchor="start" x="65" y="-543.9" font-family="Arial" font-size="14.00" fill="#000000">ChannelID </text>
<text text-anchor="start" x="135.014" y="-543.9" font-family="Arial" font-size="14.00" fill="#666666">[STRING(36)]</text>
<polygon fill="none" stroke="#000000" points="58,-502.5 58,-532.5 448,-532.5 448,-502.5 58,-502.5"/>
<text text-anchor="start" x="65" y="-513.9" font-family="Arial" font-size="14.00" fill="#000000">IsDisabledBySystem </text>
<text text-anchor="start" x="197.2384" y="-513.9" font-family="Arial" font-size="14.00" fill="#666666">[BOOL]</text>
<polygon fill="none" stroke="#000000" points="58,-472.5 58,-502.5 448,-502.5 448,-472.5 58,-472.5"/>
<text text-anchor="start" x="65" y="-483.9" font-family="Arial" font-size="14.00" fill="#000000">ConsecutiveFailures </text>
<text text-anchor="start" x="195.6816" y="-483.9" font-family="Arial" font-size="14.00" fill="#666666">[INT64]</text>
<polygon fill="none" stroke="#000000" points="58,-442.5 58,-472.5 448,-472.5 448,-442.5 58,-442.5"/>
<text text-anchor="start" x="65" y="-453.9" font-family="Arial" font-size="14.00" fill="#000000">CreatedAt </text>
<text text-anchor="start" x="131.906" y="-453.9" font-family="Arial" font-size="14.00" fill="#666666">[TIMESTAMP (allow_commit_timestamp=TRUE)]</text>
<polygon fill="none" stroke="#000000" points="58,-412.5 58,-442.5 448,-442.5 448,-412.5 58,-412.5"/>
<text text-anchor="start" x="64.9653" y="-423.9" font-family="Arial" font-size="14.00" fill="#000000">UpdatedAt </text>
<text text-anchor="start" x="134.9933" y="-423.9" font-family="Arial" font-size="14.00" fill="#666666">[TIMESTAMP (allow_commit_timestamp=TRUE)]</text>
<polygon fill="none" stroke="#000000" stroke-width="3" points="56.5,-411.5 56.5,-599.5 449.5,-599.5 449.5,-411.5 56.5,-411.5"/>
</g>
<!-- NotificationChannels -->
<g id="node2" class="node">
<title>NotificationChannels</title>
<polygon fill="#efefef" stroke="transparent" points="43,-252.5 43,-287.5 463,-287.5 463,-252.5 43,-252.5"/>
<polygon fill="none" stroke="#000000" points="43,-252.5 43,-287.5 463,-287.5 463,-252.5 43,-252.5"/>
<text text-anchor="start" x="104.3719" y="-265.3" font-family="Arial Bold" font-size="18.00" fill="#000000">NotificationChannels</text>
<text text-anchor="start" x="269.3995" y="-265.3" font-family="Arial" font-size="14.00" fill="#000000">    </text>
<text text-anchor="start" x="303.6043" y="-265.3" font-family="Arial" font-size="14.00" fill="#666666">[BASIC TABLE]</text>
<polygon fill="none" stroke="#000000" points="43,-222.5 43,-252.5 463,-252.5 463,-222.5 43,-222.5"/>
<text text-anchor="start" x="50" y="-233.9" font-family="Arial" font-size="14.00" fill="#000000">ID    </text>
<text text-anchor="start" x="98.202" y="-233.9" font-family="Arial" font-size="14.00" fill="#666666">[STRING(36)]</text>
<polygon fill="none" stroke="#000000" points="43,-192.5 43,-222.5 463,-222.5 463,-192.5 43,-192.5"/>
<text text-anchor="start" x="50" y="-203.9" font-family="Arial" font-size="14.00" fill="#000000">UserID    </text>
<text text-anchor="start" x="127.7518" y="-203.9" font-family="Arial" font-size="14.00" fill="#666666">[STRING(MAX)]</text>
<polygon fill="none" stroke="#000000" points="43,-162.5 43,-192.5 463,-192.5 463,-162.5 43,-162.5"/>
<text text-anchor="start" x="50" y="-173.9" font-family="Arial" font-size="14.00" fill="#000000">Name    </text>
<text text-anchor="start" x="121.5372" y="-173.9" font-family="Arial" font-size="14.00" fill="#666666">[STRING(MAX)]</text>
<polygon fill="none" stroke="#000000" points="43,-132.5 43,-162.5 463,-162.5 463,-132.5 43,-132.5"/>
<text text-anchor="start" x="50" y="-143.9" font-family="Arial" font-size="14.00" fill="#000000">Type    </text>
<text text-anchor="start" x="115.3226" y="-143.9" font-family="Arial" font-size="14.00" fill="#666666">[STRING(MAX)]</text>
<polygon fill="none" stroke="#000000" points="43,-102.5 43,-132.5 463,-132.5 463,-102.5 43,-102.5"/>
<text text-anchor="start" x="50" y="-113.9" font-family="Arial" font-size="14.00" fill="#000000">Config    </text>
<text text-anchor="start" x="124.6564" y="-113.9" font-family="Arial" font-size="14.00" fill="#666666">[JSON]</text>
<polygon fill="none" stroke="#000000" points="43,-72.5 43,-102.5 463,-102.5 463,-72.5 43,-72.5"/>
<text text-anchor="start" x="50" y="-83.9" font-family="Arial" font-size="14.00" fill="#000000">CreatedAt    </text>
<text text-anchor="start" x="147.2202" y="-83.9" font-family="Arial" font-size="14.00" fill="#666666">[TIMESTAMP (allow_commit_timestamp=TRUE)]</text>
<polygon fill="none" stroke="#000000" points="43,-42.5 43,-72.5 463,-72.5 463,-42.5 43,-42.5"/>
<text text-anchor="start" x="49.8082" y="-53.9" font-family="Arial" font-size="14.00" fill="#000000">UpdatedAt    </text>
<text text-anchor="start" x="150.1504" y="-53.9" font-family="Arial" font-size="14.00" fill="#666666">[TIMESTAMP (allow_commit_timestamp=TRUE)]</text>
</g>
<!-- NotificationChannelStates&#45;&gt;NotificationChannels -->
<g id="edge1" class="edge">
<title>NotificationChannelStates:ChannelID&#45;&gt;NotificationChannels:ID</title>
<path fill="none" stroke="#000000" stroke-dasharray="5,2" d="M458.0856,-545.183C518.2764,-516.815 528.4671,-237.5 463,-237.5"/>
<polygon fill="#000000" stroke="#000000" points="457.7461,-545.2609 446.9924,-543.1142 452.8731,-546.3804 448,-547.5 448,-547.5 448,-547.5 452.8731,-546.3804 449.0076,-551.8858 457.7461,-545.2609 457.7461,-545.2609"/>
</g>
</g>
</svg>
