<?xml version="1.0" encoding="UTF-8" standalone="no"?>
<!DOCTYPE svg PUBLIC "-//W3C//DTD SVG 1.1//EN"
 "http://www.w3.org/Graphics/SVG/1.1/DTD/svg11.dtd">
<!-- Generated by graphviz version 12.1.2 (20240928.0832)
 -->
<!-- Title: SavedSearchNotificationEvents Pages: 1 -->
<svg width="1382pt" height="725pt"
 viewBox="0.00 0.00 1382.33 725.20" xmlns="http://www.w3.org/2000/svg" xmlns:xlink="http://www.w3.org/1999/xlink">
<g id="graph0" class="graph" transform="scale(1 1) rotate(0) translate(4 721.2)">
<title>SavedSearchNotificationEvents</title>
<polygon fill="white" stroke="none" points="-4,4 -4,-721.2 1378.33,-721.2 1378.33,4 -4,4"/>
<!-- SavedSearchNotificationEvents -->
<g id="node1" class="node">
<title>SavedSearchNotificationEvents</title>
<polygon fill="#efefef" stroke="none" points="46.2,-635.4 46.2,-671 439.43,-671 439.43,-635.4 46.2,-635.4"/>
<polygon fill="none" stroke="black" points="46.2,-635.4 46.2,-671 439.43,-671 439.43,-635.4 46.2,-635.4"/>
<text text-anchor="start" x="63.78" y="-648.8" font-family="Arial Bold" font-size="18.00">SavedSearchNotificationEvents</text>
<text text-anchor="start" x="292.7" y="-648.8" font-family="Arial" font-size="14.00">    </text>
<text text-anchor="start" x="323.82" y="-648.8" font-family="Arial" font-size="14.00" fill="#666666">[BASIC TABLE]</text>
<polygon fill="none" stroke="black" points="46.2,-604.6 46.2,-635.4 439.43,-635.4 439.43,-604.6 46.2,-604.6"/>
<text text-anchor="start" x="53.2" y="-616.8" font-family="Arial" font-size="14.00">EventId </text>
<text text-anchor="start" x="104.57" y="-616.8" font-family="Arial" font-size="14.00" fill="#666666">[STRING(36)]</text>
<polygon fill="none" stroke="black" points="46.2,-573.8 46.2,-604.6 439.43,-604.6 439.43,-573.8 46.2,-573.8"/>
<text text-anchor="start" x="53.2" y="-586" font-family="Arial" font-size="14.00">SavedSearchId </text>
<text text-anchor="start" x="152.82" y="-586" font-family="Arial" font-size="14.00" fill="#666666">[STRING(36)]</text>
<polygon fill="none" stroke="black" points="46.2,-543 46.2,-573.8 439.43,-573.8 439.43,-543 46.2,-543"/>
<text text-anchor="start" x="53.2" y="-555.2" font-family="Arial" font-size="14.00">SnapshotType </text>
<text text-anchor="start" x="147.37" y="-555.2" font-family="Arial" font-size="14.00" fill="#666666">[STRING(MAX)]</text>
<polygon fill="none" stroke="black" points="46.2,-512.2 46.2,-543 439.43,-543 439.43,-512.2 46.2,-512.2"/>
<text text-anchor="start" x="53.2" y="-524.4" font-family="Arial" font-size="14.00">Timestamp </text>
<text text-anchor="start" x="126.32" y="-524.4" font-family="Arial" font-size="14.00" fill="#666666">[TIMESTAMP (allow_commit_timestamp=TRUE)]</text>
<polygon fill="none" stroke="black" points="46.2,-481.4 46.2,-512.2 439.43,-512.2 439.43,-481.4 46.2,-481.4"/>
<text text-anchor="start" x="53.2" y="-493.6" font-family="Arial" font-size="14.00">EventType </text>
<text text-anchor="start" x="124.01" y="-493.6" font-family="Arial" font-size="14.00" fill="#666666">[STRING(MAX)]</text>
<polygon fill="none" stroke="black" points="46.2,-450.6 46.2,-481.4 439.43,-481.4 439.43,-450.6 46.2,-450.6"/>
<text text-anchor="start" x="53.2" y="-462.8" font-family="Arial" font-size="14.00">BlobPath </text>
<text text-anchor="start" x="113.91" y="-462.8" font-family="Arial" font-size="14.00" fill="#666666">[STRING(MAX)]</text>
<polygon fill="none" stroke="black" points="46.2,-419.8 46.2,-450.6 439.43,-450.6 439.43,-419.8 46.2,-419.8"/>
<text text-anchor="start" x="53.2" y="-432" font-family="Arial" font-size="14.00">Summary </text>
<text text-anchor="start" x="116.99" y="-432" font-family="Arial" font-size="14.00" fill="#666666">[JSON]</text>
<polygon fill="none" stroke="black" points="46.2,-389 46.2,-419.8 439.43,-419.8 439.43,-389 46.2,-389"/>
<text text-anchor="start" x="53.2" y="-401.2" font-family="Arial" font-size="14.00">DiffBlobPath </text>
<text text-anchor="start" x="134.91" y="-401.2" font-family="Arial" font-size="14.00" fill="#666666">[STRING(MAX)]</text>
<polygon fill="none" stroke="black" points="46.2,-358.2 46.2,-389 439.43,-389 439.43,-358.2 46.2,-358.2"/>
<text text-anchor="start" x="53.2" y="-370.4" font-family="Arial" font-size="14.00">Reasons </text>
<text text-anchor="start" x="112.34" y="-370.4" font-family="Arial" font-size="14.00" fill="#666666">[ARRAY&lt;STRING(MAX)&gt;]</text>
<polygon fill="none" stroke="black" stroke-width="3" points="44.7,-356.7 44.7,-672.5 440.93,-672.5 440.93,-356.7 44.7,-356.7"/>
</g>
<!-- SavedSearchState -->
<g id="node2" class="node">
<title>SavedSearchState</title>
<polygon fill="#efefef" stroke="none" points="104.32,-197.2 104.32,-232.8 381.31,-232.8 381.31,-197.2 104.32,-197.2"/>
<polygon fill="none" stroke="black" points="104.32,-197.2 104.32,-232.8 381.31,-232.8 381.31,-197.2 104.32,-197.2"/>
<text text-anchor="start" x="113.76" y="-210.6" font-family="Arial Bold" font-size="18.00">SavedSearchState</text>
<text text-anchor="start" x="242.72" y="-210.6" font-family="Arial" font-size="14.00">    </text>
<text text-anchor="start" x="273.83" y="-210.6" font-family="Arial" font-size="14.00" fill="#666666">[BASIC TABLE]</text>
<polygon fill="none" stroke="black" points="104.32,-166.4 104.32,-197.2 381.31,-197.2 381.31,-166.4 104.32,-166.4"/>
<text text-anchor="start" x="111.32" y="-178.6" font-family="Arial" font-size="14.00">SavedSearchId </text>
<text text-anchor="start" x="210.94" y="-178.6" font-family="Arial" font-size="14.00" fill="#666666">[STRING(36)]</text>
<polygon fill="none" stroke="black" points="104.32,-135.6 104.32,-166.4 381.31,-166.4 381.31,-135.6 104.32,-135.6"/>
<text text-anchor="start" x="111.32" y="-147.8" font-family="Arial" font-size="14.00">SnapshotType </text>
<text text-anchor="start" x="205.49" y="-147.8" font-family="Arial" font-size="14.00" fill="#666666">[STRING(MAX)]</text>
<polygon fill="none" stroke="black" points="104.32,-104.8 104.32,-135.6 381.31,-135.6 381.31,-104.8 104.32,-104.8"/>
<text text-anchor="start" x="111.32" y="-117" font-family="Arial" font-size="14.00">LastKnownStateBlobPath </text>
<text text-anchor="start" x="273.98" y="-117" font-family="Arial" font-size="14.00" fill="#666666">[STRING(MAX)]</text>
<polygon fill="none" stroke="black" points="104.32,-74 104.32,-104.8 381.31,-104.8 381.31,-74 104.32,-74"/>
<text text-anchor="start" x="111.32" y="-86.2" font-family="Arial" font-size="14.00">WorkerLockId </text>
<text text-anchor="start" x="201.56" y="-86.2" font-family="Arial" font-size="14.00" fill="#666666">[STRING(MAX)]</text>
<polygon fill="none" stroke="black" points="104.32,-43.2 104.32,-74 381.31,-74 381.31,-43.2 104.32,-43.2"/>
<text text-anchor="start" x="111.32" y="-55.4" font-family="Arial" font-size="14.00">WorkerLockExpiresAt </text>
<text text-anchor="start" x="249.8" y="-55.4" font-family="Arial" font-size="14.00" fill="#666666">[TIMESTAMP]</text>
</g>
<!-- SavedSearchNotificationEvents&#45;&gt;SavedSearchState -->
<g id="edge1" class="edge">
<title>SavedSearchNotificationEvents:SavedSearchId&#45;&gt;SavedSearchState:SavedSearchId</title>
<path fill="none" stroke="black" d="M450.47,-587.38C527.29,-557.99 470.19,-181.8 382.31,-181.8"/>
<polygon fill="black" stroke="black" points="450.6,-587.36 439.96,-584.71 445.35,-588.31 441.09,-589.08 441.09,-589.08 441.09,-589.08 445.35,-588.31 441.56,-593.57 450.6,-587.36"/>
<text text-anchor="start" x="447.43" y="-599.2" font-family="Arial" font-size="10.00">FOREIGN KEY (SavedSearchId, SavedSearchId, SnapshotType, SnapshotType) REFERENCES SavedSearchState (SavedSearchId, SnapshotType, SavedSearchId, SnapshotType) ON DELETE CASCADE</text>
</g>
</g>
</svg>
