<?xml version="1.0" encoding="UTF-8" standalone="no"?>
<!DOCTYPE svg PUBLIC "-//W3C//DTD SVG 1.1//EN"
 "http://www.w3.org/Graphics/SVG/1.1/DTD/svg11.dtd">
<!-- Generated by graphviz version 12.1.2 (20240928.0832)
 -->
<!-- Title: SavedSearches Pages: 1 -->
<svg width="2386pt" height="756pt"
 viewBox="0.00 0.00 2385.98 756.00" xmlns="http://www.w3.org/2000/svg" xmlns:xlink="http://www.w3.org/1999/xlink">
<g id="graph0" class="graph" transform="scale(1 1) rotate(0) translate(4 752)">
<title>SavedSearches</title>
<polygon fill="white" stroke="none" points="-4,4 -4,-752 2381.98,-752 2381.98,4 -4,4"/>
<!-- SavedSearches -->
<g id="node1" class="node">
<title>SavedSearches</title>
<polygon fill="#efefef" stroke="none" points="993.11,-292.6 993.11,-328.2 1383.26,-328.2 1383.26,-292.6 993.11,-292.6"/>
<polygon fill="none" stroke="black" points="993.11,-292.6 993.11,-328.2 1383.26,-328.2 1383.26,-292.6 993.11,-292.6"/>
<text text-anchor="start" x="1069.63" y="-306" font-family="Arial Bold" font-size="18.00">SavedSearches</text>
<text text-anchor="start" x="1177.59" y="-306" font-family="Arial" font-size="14.00">    </text>
<text text-anchor="start" x="1208.7" y="-306" font-family="Arial" font-size="14.00" fill="#666666">[BASIC TABLE]</text>
<polygon fill="none" stroke="black" points="993.11,-261.8 993.11,-292.6 1383.26,-292.6 1383.26,-261.8 993.11,-261.8"/>
<text text-anchor="start" x="1000.11" y="-274" font-family="Arial" font-size="14.00">ID </text>
<text text-anchor="start" x="1018" y="-274" font-family="Arial" font-size="14.00" fill="#666666">[STRING(36)]</text>
<polygon fill="none" stroke="black" points="993.11,-231 993.11,-261.8 1383.26,-261.8 1383.26,-231 993.11,-231"/>
<text text-anchor="start" x="1000.11" y="-243.2" font-family="Arial" font-size="14.00">Name </text>
<text text-anchor="start" x="1041.34" y="-243.2" font-family="Arial" font-size="14.00" fill="#666666">[STRING(MAX)]</text>
<polygon fill="none" stroke="black" points="993.11,-200.2 993.11,-231 1383.26,-231 1383.26,-200.2 993.11,-200.2"/>
<text text-anchor="start" x="1000.11" y="-212.4" font-family="Arial" font-size="14.00">Query </text>
<text text-anchor="start" x="1042.12" y="-212.4" font-family="Arial" font-size="14.00" fill="#666666">[STRING(MAX)]</text>
<polygon fill="none" stroke="black" points="993.11,-169.4 993.11,-200.2 1383.26,-200.2 1383.26,-169.4 993.11,-169.4"/>
<text text-anchor="start" x="1000.11" y="-181.6" font-family="Arial" font-size="14.00">Scope </text>
<text text-anchor="start" x="1043.69" y="-181.6" font-family="Arial" font-size="14.00" fill="#666666">[STRING(MAX)]</text>
<polygon fill="none" stroke="black" points="993.11,-138.6 993.11,-169.4 1383.26,-169.4 1383.26,-138.6 993.11,-138.6"/>
<text text-anchor="start" x="1000.11" y="-150.8" font-family="Arial" font-size="14.00">AuthorID </text>
<text text-anchor="start" x="1059.24" y="-150.8" font-family="Arial" font-size="14.00" fill="#666666">[STRING(MAX)]</text>
<polygon fill="none" stroke="black" points="993.11,-107.8 993.11,-138.6 1383.26,-138.6 1383.26,-107.8 993.11,-107.8"/>
<text text-anchor="start" x="1000.11" y="-120" font-family="Arial" font-size="14.00">CreatedAt </text>
<text text-anchor="start" x="1067.03" y="-120" font-family="Arial" font-size="14.00" fill="#666666">[TIMESTAMP (allow_commit_timestamp=TRUE)]</text>
<polygon fill="none" stroke="black" points="993.11,-77 993.11,-107.8 1383.26,-107.8 1383.26,-77 993.11,-77"/>
<text text-anchor="start" x="1000.11" y="-89.2" font-family="Arial" font-size="14.00">UpdatedAt </text>
<text text-anchor="start" x="1070.15" y="-89.2" font-family="Arial" font-size="14.00" fill="#666666">[TIMESTAMP (allow_commit_timestamp=TRUE)]</text>
<polygon fill="none" stroke="black" points="993.11,-46.2 993.11,-77 1383.26,-77 1383.26,-46.2 993.11,-46.2"/>
<text text-anchor="start" x="1000.11" y="-58.4" font-family="Arial" font-size="14.00">Description </text>
<text text-anchor="start" x="1074.02" y="-58.4" font-family="Arial" font-size="14.00" fill="#666666">[STRING(MAX)]</text>
<polygon fill="none" stroke="black" stroke-width="3" points="991.61,-44.7 991.61,-329.7 1384.76,-329.7 1384.76,-44.7 991.61,-44.7"/>
</g>
<!-- SavedSearchState -->
<g id="node2" class="node">
<title>SavedSearchState</title>
<polygon fill="#efefef" stroke="none" points="156.68,-638.4 156.68,-674 433.68,-674 433.68,-638.4 156.68,-638.4"/>
<polygon fill="none" stroke="black" points="156.68,-638.4 156.68,-674 433.68,-674 433.68,-638.4 156.68,-638.4"/>
<text text-anchor="start" x="166.13" y="-651.8" font-family="Arial Bold" font-size="18.00">SavedSearchState</text>
<text text-anchor="start" x="295.08" y="-651.8" font-family="Arial" font-size="14.00">    </text>
<text text-anchor="start" x="326.2" y="-651.8" font-family="Arial" font-size="14.00" fill="#666666">[BASIC TABLE]</text>
<polygon fill="none" stroke="black" points="156.68,-607.6 156.68,-638.4 433.68,-638.4 433.68,-607.6 156.68,-607.6"/>
<text text-anchor="start" x="163.68" y="-619.8" font-family="Arial" font-size="14.00">SavedSearchId </text>
<text text-anchor="start" x="263.3" y="-619.8" font-family="Arial" font-size="14.00" fill="#666666">[STRING(36)]</text>
<polygon fill="none" stroke="black" points="156.68,-576.8 156.68,-607.6 433.68,-607.6 433.68,-576.8 156.68,-576.8"/>
<text text-anchor="start" x="163.68" y="-589" font-family="Arial" font-size="14.00">SnapshotType </text>
<text text-anchor="start" x="257.86" y="-589" font-family="Arial" font-size="14.00" fill="#666666">[STRING(MAX)]</text>
<polygon fill="none" stroke="black" points="156.68,-546 156.68,-576.8 433.68,-576.8 433.68,-546 156.68,-546"/>
<text text-anchor="start" x="163.68" y="-558.2" font-family="Arial" font-size="14.00">LastKnownStateBlobPath </text>
<text text-anchor="start" x="326.35" y="-558.2" font-family="Arial" font-size="14.00" fill="#666666">[STRING(MAX)]</text>
<polygon fill="none" stroke="black" points="156.68,-515.2 156.68,-546 433.68,-546 433.68,-515.2 156.68,-515.2"/>
<text text-anchor="start" x="163.68" y="-527.4" font-family="Arial" font-size="14.00">WorkerLockId </text>
<text text-anchor="start" x="253.93" y="-527.4" font-family="Arial" font-size="14.00" fill="#666666">[STRING(MAX)]</text>
<polygon fill="none" stroke="black" points="156.68,-484.4 156.68,-515.2 433.68,-515.2 433.68,-484.4 156.68,-484.4"/>
<text text-anchor="start" x="163.68" y="-496.6" font-family="Arial" font-size="14.00">WorkerLockExpiresAt </text>
<text text-anchor="start" x="302.17" y="-496.6" font-family="Arial" font-size="14.00" fill="#666666">[TIMESTAMP]</text>
</g>
<!-- SavedSearchState&#45;&gt;SavedSearches -->
<g id="edge1" class="edge">
<title>SavedSearchState:SavedSearchId&#45;&gt;SavedSearches:ID</title>
<path fill="none" stroke="black" d="M444.66,-622.42C523.71,-612.48 420.65,-477.25 486.18,-410.4 567.57,-327.38 875.85,-277.2 992.11,-277.2"/>
<polygon fill="black" stroke="black" points="445,-622.4 434.76,-618.49 439.68,-622.71 435.35,-622.96 435.35,-622.96 435.35,-622.96 439.68,-622.71 435.28,-627.47 445,-622.4"/>
<text text-anchor="start" x="7" y="-633" font-family="Arial" font-size="10.00">FOREIGN KEY (SavedSearchId) REFERENCES SavedSearches (ID) ON DELETE CASCADE</text>
</g>
<!-- SavedSearchSubscriptions -->
<g id="node3" class="node">
<title>SavedSearchSubscriptions</title>
<polygon fill="#efefef" stroke="none" points="538.11,-669.2 538.11,-704.8 928.26,-704.8 928.26,-669.2 538.11,-669.2"/>
<polygon fill="none" stroke="black" points="538.11,-669.2 538.11,-704.8 928.26,-704.8 928.26,-669.2 538.11,-669.2"/>
<text text-anchor="start" x="573.12" y="-682.6" font-family="Arial Bold" font-size="18.00">SavedSearchSubscriptions</text>
<text text-anchor="start" x="764.09" y="-682.6" font-family="Arial" font-size="14.00">    </text>
<text text-anchor="start" x="795.21" y="-682.6" font-family="Arial" font-size="14.00" fill="#666666">[BASIC TABLE]</text>
<polygon fill="none" stroke="black" points="538.11,-638.4 538.11,-669.2 928.26,-669.2 928.26,-638.4 538.11,-638.4"/>
<text text-anchor="start" x="545.11" y="-650.6" font-family="Arial" font-size="14.00">ID </text>
<text text-anchor="start" x="563" y="-650.6" font-family="Arial" font-size="14.00" fill="#666666">[STRING(36)]</text>
<polygon fill="none" stroke="black" points="538.11,-607.6 538.11,-638.4 928.26,-638.4 928.26,-607.6 538.11,-607.6"/>
<text text-anchor="start" x="545.11" y="-619.8" font-family="Arial" font-size="14.00">ChannelID </text>
<text text-anchor="start" x="615.15" y="-619.8" font-family="Arial" font-size="14.00" fill="#666666">[STRING(36)]</text>
<polygon fill="none" stroke="black" points="538.11,-576.8 538.11,-607.6 928.26,-607.6 928.26,-576.8 538.11,-576.8"/>
<text text-anchor="start" x="545.11" y="-589" font-family="Arial" font-size="14.00">SavedSearchID </text>
<text text-anchor="start" x="647.05" y="-589" font-family="Arial" font-size="14.00" fill="#666666">[STRING(36)]</text>
<polygon fill="none" stroke="black" points="538.11,-546 538.11,-576.8 928.26,-576.8 928.26,-546 538.11,-546"/>
<text text-anchor="start" x="545.11" y="-558.2" font-family="Arial" font-size="14.00">Triggers </text>
<text text-anchor="start" x="600.34" y="-558.2" font-family="Arial" font-size="14.00" fill="#666666">[ARRAY&lt;STRING(MAX)&gt;]</text>
<polygon fill="none" stroke="black" points="538.11,-515.2 538.11,-546 928.26,-546 928.26,-515.2 538.11,-515.2"/>
<text text-anchor="start" x="545.11" y="-527.4" font-family="Arial" font-size="14.00">Frequency </text>
<text text-anchor="start" x="615.14" y="-527.4" font-family="Arial" font-size="14.00" fill="#666666">[STRING(MAX)]</text>
<polygon fill="none" stroke="black" points="538.11,-484.4 538.11,-515.2 928.26,-515.2 928.26,-484.4 538.11,-484.4"/>
<text text-anchor="start" x="545.11" y="-496.6" font-family="Arial" font-size="14.00">CreatedAt </text>
<text text-anchor="start" x="612.03" y="-496.6" font-family="Arial" font-size="14.00" fill="#666666">[TIMESTAMP (allow_commit_timestamp=TRUE)]</text>
<polygon fill="none" stroke="black" points="538.11,-453.6 538.11,-484.4 928.26,-484.4 928.26,-453.6 538.11,-453.6"/>
<text text-anchor="start" x="545.11" y="-465.8" font-family="Arial" font-size="14.00">UpdatedAt </text>
<text text-anchor="start" x="615.15" y="-465.8" font-family="Arial" font-size="14.00" fill="#666666">[TIMESTAMP (allow_commit_timestamp=TRUE)]</text>
</g>
<!-- SavedSearchSubscriptions&#45;&gt;SavedSearches -->
<g id="edge2" class="edge">
<title>SavedSearchSubscriptions:SavedSearchID&#45;&gt;SavedSearches:ID</title>
<path fill="none" stroke="black" d="M939.44,-591.6C1060.95,-576.41 852.97,-277.2 992.11,-277.2"/>
<polygon fill="black" stroke="black" points="939.58,-591.59 929.33,-587.69 934.25,-591.91 929.93,-592.16 929.93,-592.16 929.93,-592.16 934.25,-591.91 929.86,-596.67 939.58,-591.59"/>
<text text-anchor="start" x="936.26" y="-602.2" font-family="Arial" font-size="10.00">FOREIGN KEY (SavedSearchID) REFERENCES SavedSearches (ID) ON DELETE CASCADE</text>
</g>
<!-- SavedSearchUserRoles -->
<g id="node4" class="node">
<title>SavedSearchUserRoles</title>
<polygon fill="#efefef" stroke="none" points="1032.63,-607.6 1032.63,-643.2 1343.73,-643.2 1343.73,-607.6 1032.63,-607.6"/>
<polygon fill="none" stroke="black" points="1032.63,-607.6 1032.63,-643.2 1343.73,-643.2 1343.73,-607.6 1032.63,-607.6"/>
<text text-anchor="start" x="1039.63" y="-621" font-family="Arial Bold" font-size="18.00">SavedSearchUserRoles</text>
<text text-anchor="start" x="1207.58" y="-621" font-family="Arial" font-size="14.00">    </text>
<text text-anchor="start" x="1238.7" y="-621" font-family="Arial" font-size="14.00" fill="#666666">[BASIC TABLE]</text>
<polygon fill="none" stroke="black" points="1032.63,-576.8 1032.63,-607.6 1343.73,-607.6 1343.73,-576.8 1032.63,-576.8"/>
<text text-anchor="start" x="1039.63" y="-589" font-family="Arial" font-size="14.00">SavedSearchID </text>
<text text-anchor="start" x="1141.58" y="-589" font-family="Arial" font-size="14.00" fill="#666666">[STRING(36)]</text>
<polygon fill="none" stroke="black" points="1032.63,-546 1032.63,-576.8 1343.73,-576.8 1343.73,-546 1032.63,-546"/>
<text text-anchor="start" x="1039.63" y="-558.2" font-family="Arial" font-size="14.00">UserID </text>
<text text-anchor="start" x="1087.08" y="-558.2" font-family="Arial" font-size="14.00" fill="#666666">[STRING(MAX)]</text>
<polygon fill="none" stroke="black" points="1032.63,-515.2 1032.63,-546 1343.73,-546 1343.73,-515.2 1032.63,-515.2"/>
<text text-anchor="start" x="1039.63" y="-527.4" font-family="Arial" font-size="14.00">UserRole </text>
<text text-anchor="start" x="1101.87" y="-527.4" font-family="Arial" font-size="14.00" fill="#666666">[STRING(MAX)]</text>
</g>
<!-- SavedSearchUserRoles&#45;&gt;SavedSearches -->
<g id="edge3" class="edge">
<title>SavedSearchUserRoles:SavedSearchID&#45;&gt;SavedSearches:ID</title>
<path fill="none" stroke="black" d="M1353.25,-586.46C1385.86,-543.77 1416.71,-277.2 1384.26,-277.2"/>
<polygon fill="black" stroke="black" points="1353.31,-586.43 1342.5,-588.28 1348.88,-589.41 1345.29,-591.83 1345.29,-591.83 1345.29,-591.83 1348.88,-589.41 1347.53,-595.75 1353.31,-586.43"/>
<text text-anchor="start" x="915.39" y="-576.2" font-family="Arial" font-size="10.00">FOREIGN KEY (SavedSearchID) REFERENCES SavedSearches (ID) ON DELETE CASCADE</text>
</g>
<!-- SystemManagedSavedSearches -->
<g id="node5" class="node">
<title>SystemManagedSavedSearches</title>
<polygon fill="#efefef" stroke="none" points="1448.11,-623 1448.11,-658.6 1838.26,-658.6 1838.26,-623 1448.11,-623"/>
<polygon fill="none" stroke="black" points="1448.11,-623 1448.11,-658.6 1838.26,-658.6 1838.26,-623 1448.11,-623"/>
<text text-anchor="start" x="1464.64" y="-636.4" font-family="Arial Bold" font-size="18.00">SystemManagedSavedSearches</text>
<text text-anchor="start" x="1692.58" y="-636.4" font-family="Arial" font-size="14.00">    </text>
<text text-anchor="start" x="1723.69" y="-636.4" font-family="Arial" font-size="14.00" fill="#666666">[BASIC TABLE]</text>
<polygon fill="none" stroke="black" points="1448.11,-592.2 1448.11,-623 1838.26,-623 1838.26,-592.2 1448.11,-592.2"/>
<text text-anchor="start" x="1455.11" y="-604.4" font-family="Arial" font-size="14.00">FeatureID </text>
<text text-anchor="start" x="1521.24" y="-604.4" font-family="Arial" font-size="14.00" fill="#666666">[STRING(36)]</text>
<polygon fill="none" stroke="black" points="1448.11,-561.4 1448.11,-592.2 1838.26,-592.2 1838.26,-561.4 1448.11,-561.4"/>
<text text-anchor="start" x="1455.11" y="-573.6" font-family="Arial" font-size="14.00">SavedSearchID </text>
<text text-anchor="start" x="1557.05" y="-573.6" font-family="Arial" font-size="14.00" fill="#666666">[STRING(36)]</text>
<polygon fill="none" stroke="black" points="1448.11,-530.6 1448.11,-561.4 1838.26,-561.4 1838.26,-530.6 1448.11,-530.6"/>
<text text-anchor="start" x="1455.11" y="-542.8" font-family="Arial" font-size="14.00">CreatedAt </text>
<text text-anchor="start" x="1522.03" y="-542.8" font-family="Arial" font-size="14.00" fill="#666666">[TIMESTAMP (allow_commit_timestamp=TRUE)]</text>
<polygon fill="none" stroke="black" points="1448.11,-499.8 1448.11,-530.6 1838.26,-530.6 1838.26,-499.8 1448.11,-499.8"/>
<text text-anchor="start" x="1455.11" y="-512" font-family="Arial" font-size="14.00">UpdatedAt </text>
<text text-anchor="start" x="1525.15" y="-512" font-family="Arial" font-size="14.00" fill="#666666">[TIMESTAMP (allow_commit_timestamp=TRUE)]</text>
</g>
<!-- SystemManagedSavedSearches&#45;&gt;SavedSearches -->
<g id="edge4" class="edge">
<title>SystemManagedSavedSearches:SavedSearchID&#45;&gt;SavedSearches:ID</title>
<path fill="none" stroke="black" d="M1436.71,-576.14C1322.24,-560.64 1516.59,-277.2 1384.26,-277.2"/>
<polygon fill="black" stroke="black" points="1436.79,-576.15 1446.49,-581.27 1442.12,-576.48 1446.44,-576.76 1446.44,-576.76 1446.44,-576.76 1442.12,-576.48 1447.06,-572.29 1436.79,-576.15"/>
<text text-anchor="start" x="1454.11" y="-586.8" font-family="Arial" font-size="10.00">FOREIGN KEY (SavedSearchID) REFERENCES SavedSearches (ID) ON DELETE CASCADE</text>
</g>
<!-- UserSavedSearchBookmarks -->
<g id="node6" class="node">
<title>UserSavedSearchBookmarks</title>
<polygon fill="#efefef" stroke="none" points="1942.64,-592.2 1942.64,-627.8 2295.73,-627.8 2295.73,-592.2 1942.64,-592.2"/>
<polygon fill="none" stroke="black" points="1942.64,-592.2 1942.64,-627.8 2295.73,-627.8 2295.73,-592.2 1942.64,-592.2"/>
<text text-anchor="start" x="1949.64" y="-605.6" font-family="Arial Bold" font-size="18.00">UserSavedSearchBookmarks</text>
<text text-anchor="start" x="2159.58" y="-605.6" font-family="Arial" font-size="14.00">    </text>
<text text-anchor="start" x="2190.7" y="-605.6" font-family="Arial" font-size="14.00" fill="#666666">[BASIC TABLE]</text>
<polygon fill="none" stroke="black" points="1942.64,-561.4 1942.64,-592.2 2295.73,-592.2 2295.73,-561.4 1942.64,-561.4"/>
<text text-anchor="start" x="1949.64" y="-573.6" font-family="Arial" font-size="14.00">SavedSearchID </text>
<text text-anchor="start" x="2051.58" y="-573.6" font-family="Arial" font-size="14.00" fill="#666666">[STRING(36)]</text>
<polygon fill="none" stroke="black" points="1942.64,-530.6 1942.64,-561.4 2295.73,-561.4 2295.73,-530.6 1942.64,-530.6"/>
<text text-anchor="start" x="1949.64" y="-542.8" font-family="Arial" font-size="14.00">UserID </text>
<text text-anchor="start" x="1997.08" y="-542.8" font-family="Arial" font-size="14.00" fill="#666666">[STRING(MAX)]</text>
</g>
<!-- UserSavedSearchBookmarks&#45;&gt;SavedSearches -->
<g id="edge5" class="edge">
<title>UserSavedSearchBookmarks:SavedSearchID&#45;&gt;SavedSearches:ID</title>
<path fill="none" stroke="black" d="M1931.4,-576.01C1871.89,-565.92 1943.34,-461.35 1890.18,-410.4 1806.25,-329.96 1500.52,-277.2 1384.26,-277.2"/>
<polygon fill="black" stroke="black" points="1931.33,-576.01 1940.96,-581.26 1936.65,-576.42 1940.97,-576.75 1940.97,-576.75 1940.97,-576.75 1936.65,-576.42 1941.65,-572.29 1931.33,-576.01"/>
<text text-anchor="start" x="1948.64" y="-586.8" font-family="Arial" font-size="10.00">FOREIGN KEY (SavedSearchID) REFERENCES SavedSearches (ID) ON DELETE CASCADE</text>
</g>
</g>
</svg>
