<?xml version="1.0" encoding="UTF-8" standalone="no"?>
<!DOCTYPE svg PUBLIC "-//W3C//DTD SVG 1.1//EN"
 "http://www.w3.org/Graphics/SVG/1.1/DTD/svg11.dtd">
<!-- Generated by graphviz version 2.40.1 (20161225.0304)
 -->
<!-- Title: SavedSearchState Pages: 1 -->
<svg width="514pt" height="682pt"
 viewBox="0.00 0.00 514.00 682.00" xmlns="http://www.w3.org/2000/svg" xmlns:xlink="http://www.w3.org/1999/xlink">
<g id="graph0" class="graph" transform="scale(1 1) rotate(0) translate(4 678)">
<title>SavedSearchState</title>
<polygon fill="#ffffff" stroke="transparent" points="-4,4 -4,-678 510,-678 510,4 -4,4"/>
<!-- SavedSearchState -->
<g id="node1" class="node">
<title>SavedSearchState</title>
<polygon fill="#efefef" stroke="transparent" points="105,-592.5 105,-627.5 401,-627.5 401,-592.5 105,-592.5"/>
<polygon fill="none" stroke="#000000" points="105,-592.5 105,-627.5 401,-627.5 401,-592.5 105,-592.5"/>
<text text-anchor="start" x="111.8563" y="-605.3" font-family="Arial Bold" font-size="18.00" fill="#000000">SavedSearchState</text>
<text text-anchor="start" x="261.9151" y="-605.3" font-family="Arial" font-size="14.00" fill="#000000">    </text>
<text text-anchor="start" x="296.1199" y="-605.3" font-family="Arial" font-size="14.00" fill="#666666">[BASIC TABLE]</text>
<polygon fill="none" stroke="#000000" points="105,-562.5 105,-592.5 401,-592.5 401,-562.5 105,-562.5"/>
<text text-anchor="start" x="112" y="-573.9" font-family="Arial" font-size="14.00" fill="#000000">SavedSearchId </text>
<text text-anchor="start" x="211.5932" y="-573.9" font-family="Arial" font-size="14.00" fill="#666666">[STRING(36)]</text>
<polygon fill="none" stroke="#000000" points="105,-532.5 105,-562.5 401,-562.5 401,-532.5 105,-532.5"/>
<text text-anchor="start" x="112" y="-543.9" font-family="Arial" font-size="14.00" fill="#000000">SnapshotType </text>
<text text-anchor="start" x="206.1486" y="-543.9" font-family="Arial" font-size="14.00" fill="#666666">[STRING(MAX)]</text>
<polygon fill="none" stroke="#000000" points="105,-502.5 105,-532.5 401,-532.5 401,-502.5 105,-502.5"/>
<text text-anchor="start" x="112" y="-513.9" font-family="Arial" font-size="14.00" fill="#000000">LastKnownStateBlobPath </text>
<text text-anchor="start" x="274.6212" y="-513.9" font-family="Arial" font-size="14.00" fill="#666666">[STRING(MAX)]</text>
<polygon fill="none" stroke="#000000" points="105,-472.5 105,-502.5 401,-502.5 401,-472.5 105,-472.5"/>
<text text-anchor="start" x="112" y="-483.9" font-family="Arial" font-size="14.00" fill="#000000">WorkerLockId </text>
<text text-anchor="start" x="202.23" y="-483.9" font-family="Arial" font-size="14.00" fill="#666666">[STRING(MAX)]</text>
<polygon fill="none" stroke="#000000" points="105,-442.5 105,-472.5 401,-472.5 401,-442.5 105,-442.5"/>
<text text-anchor="start" x="112" y="-453.9" font-family="Arial" font-size="14.00" fill="#000000">WorkerLockExpiresAt </text>
<text text-anchor="start" x="250.453" y="-453.9" font-family="Arial" font-size="14.00" fill="#666666">[TIMESTAMP]</text>
<polygon fill="none" stroke="#000000" stroke-width="3" points="103.5,-441.5 103.5,-629.5 402.5,-629.5 402.5,-441.5 103.5,-441.5"/>
</g>
<!-- SavedSearches -->
<g id="node2" class="node">
<title>SavedSearches</title>
<polygon fill="#efefef" stroke="transparent" points="43,-282.5 43,-317.5 463,-317.5 463,-282.5 43,-282.5"/>
<polygon fill="none" stroke="#000000" points="43,-282.5 43,-317.5 463,-317.5 463,-282.5 43,-282.5"/>
<text text-anchor="start" x="123.3637" y="-295.3" font-family="Arial Bold" font-size="18.00" fill="#000000">SavedSearches</text>
<text text-anchor="start" x="250.4077" y="-295.3" font-family="Arial" font-size="14.00" fill="#000000">    </text>
<text text-anchor="start" x="284.6125" y="-295.3" font-family="Arial" font-size="14.00" fill="#666666">[BASIC TABLE]</text>
<polygon fill="none" stroke="#000000" points="43,-252.5 43,-282.5 463,-282.5 463,-252.5 43,-252.5"/>
<text text-anchor="start" x="50" y="-263.9" font-family="Arial" font-size="14.00" fill="#000000">ID    </text>
<text text-anchor="start" x="98.202" y="-263.9" font-family="Arial" font-size="14.00" fill="#666666">[STRING(36)]</text>
<polygon fill="none" stroke="#000000" points="43,-222.5 43,-252.5 463,-252.5 463,-222.5 43,-222.5"/>
<text text-anchor="start" x="50" y="-233.9" font-family="Arial" font-size="14.00" fill="#000000">Name    </text>
<text text-anchor="start" x="121.5372" y="-233.9" font-family="Arial" font-size="14.00" fill="#666666">[STRING(MAX)]</text>
<polygon fill="none" stroke="#000000" points="43,-192.5 43,-222.5 463,-222.5 463,-192.5 43,-192.5"/>
<text text-anchor="start" x="50" y="-203.9" font-family="Arial" font-size="14.00" fill="#000000">Query    </text>
<text text-anchor="start" x="122.3212" y="-203.9" font-family="Arial" font-size="14.00" fill="#666666">[STRING(MAX)]</text>
<polygon fill="none" stroke="#000000" points="43,-162.5 43,-192.5 463,-192.5 463,-162.5 43,-162.5"/>
<text text-anchor="start" x="50" y="-173.9" font-family="Arial" font-size="14.00" fill="#000000">Scope    </text>
<text text-anchor="start" x="123.8892" y="-173.9" font-family="Arial" font-size="14.00" fill="#666666">[STRING(MAX)]</text>
<polygon fill="none" stroke="#000000" points="43,-132.5 43,-162.5 463,-162.5 463,-132.5 43,-132.5"/>
<text text-anchor="start" x="50" y="-143.9" font-family="Arial" font-size="14.00" fill="#000000">AuthorID    </text>
<text text-anchor="start" x="139.4376" y="-143.9" font-family="Arial" font-size="14.00" fill="#666666">[STRING(MAX)]</text>
<polygon fill="none" stroke="#000000" points="43,-102.5 43,-132.5 463,-132.5 463,-102.5 43,-102.5"/>
<text text-anchor="start" x="50" y="-113.9" font-family="Arial" font-size="14.00" fill="#000000">CreatedAt    </text>
<text text-anchor="start" x="147.2202" y="-113.9" font-family="Arial" font-size="14.00" fill="#666666">[TIMESTAMP (allow_commit_timestamp=TRUE)]</text>
<polygon fill="none" stroke="#000000" points="43,-72.5 43,-102.5 463,-102.5 463,-72.5 43,-72.5"/>
<text text-anchor="start" x="49.8082" y="-83.9" font-family="Arial" font-size="14.00" fill="#000000">UpdatedAt    </text>
<text text-anchor="start" x="150.1504" y="-83.9" font-family="Arial" font-size="14.00" fill="#666666">[TIMESTAMP (allow_commit_timestamp=TRUE)]</text>
<polygon fill="none" stroke="#000000" points="43,-42.5 43,-72.5 463,-72.5 463,-42.5 43,-42.5"/>
<text text-anchor="start" x="50" y="-53.9" font-family="Arial" font-size="14.00" fill="#000000">Description    </text>
<text text-anchor="start" x="154.2062" y="-53.9" font-family="Arial" font-size="14.00" fill="#666666">[STRING(MAX)]</text>
</g>
<!-- SavedSearchState&#45;&gt;SavedSearches -->
<g id="edge1" class="edge">
<title>SavedSearchState:SavedSearchId&#45;&gt;SavedSearches:ID</title>
<path fill="none" stroke="#000000" stroke-dasharray="5,2" d="M410.8122,-575.5204C476.7751,-549.1187 529.96,-267.5 463,-267.5"/>
<polygon fill="#000000" stroke="#000000" points="410.8025,-575.5223 400.11,-573.0889 405.9012,-576.5111 401,-577.5 401,-577.5 401,-577.5 405.9012,-576.5111 401.89,-581.9111 410.8025,-575.5223 410.8025,-575.5223"/>
</g>
</g>
</svg>
