<?xml version="1.0" encoding="UTF-8" standalone="no"?>
<!DOCTYPE svg PUBLIC "-//W3C//DTD SVG 1.1//EN"
 "http://www.w3.org/Graphics/SVG/1.1/DTD/svg11.dtd">
<!-- Generated by graphviz version 2.40.1 (20161225.0304)
 -->
<!-- Title: SavedSearches Pages: 1 -->
<svg width="1330pt" height="682pt"
 viewBox="0.00 0.00 1329.50 682.00" xmlns="http://www.w3.org/2000/svg" xmlns:xlink="http://www.w3.org/1999/xlink">
<g id="graph0" class="graph" transform="scale(1 1) rotate(0) translate(4 678)">
<title>SavedSearches</title>
<polygon fill="#ffffff" stroke="transparent" points="-4,4 -4,-678 1325.5,-678 1325.5,4 -4,4"/>
<!-- SavedSearches -->
<g id="node1" class="node">
<title>SavedSearches</title>
<polygon fill="#efefef" stroke="transparent" points="481,-285.5 481,-320.5 871,-320.5 871,-285.5 481,-285.5"/>
<polygon fill="none" stroke="#000000" points="481,-285.5 481,-320.5 871,-320.5 871,-285.5 481,-285.5"/>
<text text-anchor="start" x="546.3637" y="-298.3" font-family="Arial Bold" font-size="18.00" fill="#000000">SavedSearches</text>
<text text-anchor="start" x="673.4077" y="-298.3" font-family="Arial" font-size="14.00" fill="#000000">    </text>
<text text-anchor="start" x="707.6125" y="-298.3" font-family="Arial" font-size="14.00" fill="#666666">[BASIC TABLE]</text>
<polygon fill="none" stroke="#000000" points="481,-255.5 481,-285.5 871,-285.5 871,-255.5 481,-255.5"/>
<text text-anchor="start" x="488" y="-266.9" font-family="Arial" font-size="14.00" fill="#000000">ID </text>
<text text-anchor="start" x="505.8878" y="-266.9" font-family="Arial" font-size="14.00" fill="#666666">[STRING(36)]</text>
<polygon fill="none" stroke="#000000" points="481,-225.5 481,-255.5 871,-255.5 871,-225.5 481,-225.5"/>
<text text-anchor="start" x="488" y="-236.9" font-family="Arial" font-size="14.00" fill="#000000">Name </text>
<text text-anchor="start" x="529.223" y="-236.9" font-family="Arial" font-size="14.00" fill="#666666">[STRING(MAX)]</text>
<polygon fill="none" stroke="#000000" points="481,-195.5 481,-225.5 871,-225.5 871,-195.5 481,-195.5"/>
<text text-anchor="start" x="488" y="-206.9" font-family="Arial" font-size="14.00" fill="#000000">Query </text>
<text text-anchor="start" x="530.007" y="-206.9" font-family="Arial" font-size="14.00" fill="#666666">[STRING(MAX)]</text>
<polygon fill="none" stroke="#000000" points="481,-165.5 481,-195.5 871,-195.5 871,-165.5 481,-165.5"/>
<text text-anchor="start" x="488" y="-176.9" font-family="Arial" font-size="14.00" fill="#000000">Scope </text>
<text text-anchor="start" x="531.575" y="-176.9" font-family="Arial" font-size="14.00" fill="#666666">[STRING(MAX)]</text>
<polygon fill="none" stroke="#000000" points="481,-135.5 481,-165.5 871,-165.5 871,-135.5 481,-135.5"/>
<text text-anchor="start" x="488" y="-146.9" font-family="Arial" font-size="14.00" fill="#000000">AuthorID </text>
<text text-anchor="start" x="547.1234" y="-146.9" font-family="Arial" font-size="14.00" fill="#666666">[STRING(MAX)]</text>
<polygon fill="none" stroke="#000000" points="481,-105.5 481,-135.5 871,-135.5 871,-105.5 481,-105.5"/>
<text text-anchor="start" x="488" y="-116.9" font-family="Arial" font-size="14.00" fill="#000000">CreatedAt </text>
<text text-anchor="start" x="554.906" y="-116.9" font-family="Arial" font-size="14.00" fill="#666666">[TIMESTAMP (allow_commit_timestamp=TRUE)]</text>
<polygon fill="none" stroke="#000000" points="481,-75.5 481,-105.5 871,-105.5 871,-75.5 481,-75.5"/>
<text text-anchor="start" x="487.9653" y="-86.9" font-family="Arial" font-size="14.00" fill="#000000">UpdatedAt </text>
<text text-anchor="start" x="557.9933" y="-86.9" font-family="Arial" font-size="14.00" fill="#666666">[TIMESTAMP (allow_commit_timestamp=TRUE)]</text>
<polygon fill="none" stroke="#000000" points="481,-45.5 481,-75.5 871,-75.5 871,-45.5 481,-45.5"/>
<text text-anchor="start" x="488" y="-56.9" font-family="Arial" font-size="14.00" fill="#000000">Description </text>
<text text-anchor="start" x="561.892" y="-56.9" font-family="Arial" font-size="14.00" fill="#666666">[STRING(MAX)]</text>
<polygon fill="none" stroke="#000000" stroke-width="3" points="479.5,-44.5 479.5,-322.5 872.5,-322.5 872.5,-44.5 479.5,-44.5"/>
</g>
<!-- SavedSearchUserRoles -->
<g id="node2" class="node">
<title>SavedSearchUserRoles</title>
<polygon fill="#efefef" stroke="transparent" points="43,-565.5 43,-600.5 381,-600.5 381,-565.5 43,-565.5"/>
<polygon fill="none" stroke="#000000" points="43,-565.5 43,-600.5 381,-600.5 381,-565.5 43,-565.5"/>
<text text-anchor="start" x="49.8701" y="-578.3" font-family="Arial Bold" font-size="18.00" fill="#000000">SavedSearchUserRoles</text>
<text text-anchor="start" x="241.9013" y="-578.3" font-family="Arial" font-size="14.00" fill="#000000">    </text>
<text text-anchor="start" x="276.1061" y="-578.3" font-family="Arial" font-size="14.00" fill="#666666">[BASIC TABLE]</text>
<polygon fill="none" stroke="#000000" points="43,-535.5 43,-565.5 381,-565.5 381,-535.5 43,-535.5"/>
<text text-anchor="start" x="50" y="-546.9" font-family="Arial" font-size="14.00" fill="#000000">SavedSearchID    </text>
<text text-anchor="start" x="182.2314" y="-546.9" font-family="Arial" font-size="14.00" fill="#666666">[STRING(36)]</text>
<polygon fill="none" stroke="#000000" points="43,-505.5 43,-535.5 381,-535.5 381,-505.5 43,-505.5"/>
<text text-anchor="start" x="50" y="-516.9" font-family="Arial" font-size="14.00" fill="#000000">UserID    </text>
<text text-anchor="start" x="127.7518" y="-516.9" font-family="Arial" font-size="14.00" fill="#666666">[STRING(MAX)]</text>
<polygon fill="none" stroke="#000000" points="43,-475.5 43,-505.5 381,-505.5 381,-475.5 43,-475.5"/>
<text text-anchor="start" x="50" y="-486.9" font-family="Arial" font-size="14.00" fill="#000000">UserRole    </text>
<text text-anchor="start" x="142.533" y="-486.9" font-family="Arial" font-size="14.00" fill="#666666">[STRING(MAX)]</text>
</g>
<!-- SavedSearchUserRoles&#45;&gt;SavedSearches -->
<g id="edge1" class="edge">
<title>SavedSearchUserRoles:SavedSearchID&#45;&gt;SavedSearches:ID</title>
<path fill="none" stroke="#000000" stroke-dasharray="5,2" d="M390.9908,-548.0794C443.8495,-520.7124 418.5419,-270.5 481,-270.5"/>
<polygon fill="#000000" stroke="#000000" points="390.7188,-548.1452 379.9403,-546.1265 385.8594,-549.3226 381,-550.5 381,-550.5 381,-550.5 385.8594,-549.3226 382.0597,-554.8735 390.7188,-548.1452 390.7188,-548.1452"/>
</g>
<!-- UserSavedSearchBookmarks -->
<g id="node3" class="node">
<title>UserSavedSearchBookmarks</title>
<polygon fill="#efefef" stroke="transparent" points="485,-550.5 485,-585.5 867,-585.5 867,-550.5 485,-550.5"/>
<polygon fill="none" stroke="#000000" points="485,-550.5 485,-585.5 867,-585.5 867,-550.5 485,-550.5"/>
<text text-anchor="start" x="491.8669" y="-563.3" font-family="Arial Bold" font-size="18.00" fill="#000000">UserSavedSearchBookmarks</text>
<text text-anchor="start" x="727.9045" y="-563.3" font-family="Arial" font-size="14.00" fill="#000000">    </text>
<text text-anchor="start" x="762.1093" y="-563.3" font-family="Arial" font-size="14.00" fill="#666666">[BASIC TABLE]</text>
<polygon fill="none" stroke="#000000" points="485,-520.5 485,-550.5 867,-550.5 867,-520.5 485,-520.5"/>
<text text-anchor="start" x="492" y="-531.9" font-family="Arial" font-size="14.00" fill="#000000">SavedSearchID    </text>
<text text-anchor="start" x="624.2314" y="-531.9" font-family="Arial" font-size="14.00" fill="#666666">[STRING(36)]</text>
<polygon fill="none" stroke="#000000" points="485,-490.5 485,-520.5 867,-520.5 867,-490.5 485,-490.5"/>
<text text-anchor="start" x="492" y="-501.9" font-family="Arial" font-size="14.00" fill="#000000">UserID    </text>
<text text-anchor="start" x="569.7518" y="-501.9" font-family="Arial" font-size="14.00" fill="#666666">[STRING(MAX)]</text>
</g>
<!-- UserSavedSearchBookmarks&#45;&gt;SavedSearches -->
<g id="edge2" class="edge">
<title>UserSavedSearchBookmarks:SavedSearchID&#45;&gt;SavedSearches:ID</title>
<path fill="none" stroke="#000000" stroke-dasharray="5,2" d="M876.7857,-532.8772C926.1484,-505.3551 926.4447,-270.5 871,-270.5"/>
<polygon fill="#000000" stroke="#000000" points="876.6591,-532.9111 865.835,-531.1534 871.8295,-534.2055 867,-535.5 867,-535.5 867,-535.5 871.8295,-534.2055 868.165,-539.8466 876.6591,-532.9111 876.6591,-532.9111"/>
</g>
<!-- SavedSearchState -->
<g id="node4" class="node">
<title>SavedSearchState</title>
<polygon fill="#efefef" stroke="transparent" points="972,-595.5 972,-630.5 1279,-630.5 1279,-595.5 972,-595.5"/>
<polygon fill="none" stroke="#000000" points="972,-595.5 972,-630.5 1279,-630.5 1279,-595.5 972,-595.5"/>
<text text-anchor="start" x="984.3563" y="-608.3" font-family="Arial Bold" font-size="18.00" fill="#000000">SavedSearchState</text>
<text text-anchor="start" x="1134.4151" y="-608.3" font-family="Arial" font-size="14.00" fill="#000000">    </text>
<text text-anchor="start" x="1168.6199" y="-608.3" font-family="Arial" font-size="14.00" fill="#666666">[BASIC TABLE]</text>
<polygon fill="none" stroke="#000000" points="972,-565.5 972,-595.5 1279,-595.5 1279,-565.5 972,-565.5"/>
<text text-anchor="start" x="979" y="-576.9" font-family="Arial" font-size="14.00" fill="#000000">SavedSearchId    </text>
<text text-anchor="start" x="1108.9074" y="-576.9" font-family="Arial" font-size="14.00" fill="#666666">[STRING(36)]</text>
<polygon fill="none" stroke="#000000" points="972,-535.5 972,-565.5 1279,-565.5 1279,-535.5 972,-535.5"/>
<text text-anchor="start" x="979" y="-546.9" font-family="Arial" font-size="14.00" fill="#000000">SnapshotType    </text>
<text text-anchor="start" x="1103.4628" y="-546.9" font-family="Arial" font-size="14.00" fill="#666666">[STRING(MAX)]</text>
<polygon fill="none" stroke="#000000" points="972,-505.5 972,-535.5 1279,-535.5 1279,-505.5 972,-505.5"/>
<text text-anchor="start" x="978.8724" y="-516.9" font-family="Arial" font-size="14.00" fill="#000000">LastKnownStateBlobPath    </text>
<text text-anchor="start" x="1171.8078" y="-516.9" font-family="Arial" font-size="14.00" fill="#666666">[STRING(MAX)]</text>
<polygon fill="none" stroke="#000000" points="972,-475.5 972,-505.5 1279,-505.5 1279,-475.5 972,-475.5"/>
<text text-anchor="start" x="979" y="-486.9" font-family="Arial" font-size="14.00" fill="#000000">WorkerLockId    </text>
<text text-anchor="start" x="1099.5442" y="-486.9" font-family="Arial" font-size="14.00" fill="#666666">[STRING(MAX)]</text>
<polygon fill="none" stroke="#000000" points="972,-445.5 972,-475.5 1279,-475.5 1279,-445.5 972,-445.5"/>
<text text-anchor="start" x="979" y="-456.9" font-family="Arial" font-size="14.00" fill="#000000">WorkerLockExpiresAt    </text>
<text text-anchor="start" x="1147.7672" y="-456.9" font-family="Arial" font-size="14.00" fill="#666666">[TIMESTAMP]</text>
</g>
<!-- SavedSearchState&#45;&gt;SavedSearches -->
<g id="edge3" class="edge">
<title>SavedSearchState:SavedSearchId&#45;&gt;SavedSearches:ID</title>
<path fill="none" stroke="#000000" stroke-dasharray="5,2" d="M962.1919,-578.3549C903.5573,-550.9657 939.9152,-270.5 871,-270.5"/>
<polygon fill="#000000" stroke="#000000" points="962.2309,-578.3633 971.0385,-584.8961 967.1155,-579.4317 972,-580.5 972,-580.5 972,-580.5 967.1155,-579.4317 972.9615,-576.1039 962.2309,-578.3633 962.2309,-578.3633"/>
</g>
</g>
</svg>
