<?xml version="1.0" encoding="UTF-8" standalone="no"?>
<!DOCTYPE svg PUBLIC "-//W3C//DTD SVG 1.1//EN"
 "http://www.w3.org/Graphics/SVG/1.1/DTD/svg11.dtd">
<!-- Generated by graphviz version 2.40.1 (20161225.0304)
 -->
<!-- Title: SavedSearchUserRoles Pages: 1 -->
<svg width="514pt" height="622pt"
 viewBox="0.00 0.00 514.00 622.00" xmlns="http://www.w3.org/2000/svg" xmlns:xlink="http://www.w3.org/1999/xlink">
<g id="graph0" class="graph" transform="scale(1 1) rotate(0) translate(4 618)">
<title>SavedSearchUserRoles</title>
<polygon fill="#ffffff" stroke="transparent" points="-4,4 -4,-618 510,-618 510,4 -4,4"/>
<!-- SavedSearchUserRoles -->
<g id="node1" class="node">
<title>SavedSearchUserRoles</title>
<polygon fill="#efefef" stroke="transparent" points="84,-532.5 84,-567.5 422,-567.5 422,-532.5 84,-532.5"/>
<polygon fill="none" stroke="#000000" points="84,-532.5 84,-567.5 422,-567.5 422,-532.5 84,-532.5"/>
<text text-anchor="start" x="90.8701" y="-545.3" font-family="Arial Bold" font-size="18.00" fill="#000000">SavedSearchUserRoles</text>
<text text-anchor="start" x="282.9013" y="-545.3" font-family="Arial" font-size="14.00" fill="#000000">    </text>
<text text-anchor="start" x="317.1061" y="-545.3" font-family="Arial" font-size="14.00" fill="#666666">[BASIC TABLE]</text>
<polygon fill="none" stroke="#000000" points="84,-502.5 84,-532.5 422,-532.5 422,-502.5 84,-502.5"/>
<text text-anchor="start" x="91" y="-513.9" font-family="Arial" font-size="14.00" fill="#000000">SavedSearchID </text>
<text text-anchor="start" x="192.9172" y="-513.9" font-family="Arial" font-size="14.00" fill="#666666">[STRING(36)]</text>
<polygon fill="none" stroke="#000000" points="84,-472.5 84,-502.5 422,-502.5 422,-472.5 84,-472.5"/>
<text text-anchor="start" x="91" y="-483.9" font-family="Arial" font-size="14.00" fill="#000000">UserID </text>
<text text-anchor="start" x="138.4376" y="-483.9" font-family="Arial" font-size="14.00" fill="#666666">[STRING(MAX)]</text>
<polygon fill="none" stroke="#000000" points="84,-442.5 84,-472.5 422,-472.5 422,-442.5 84,-442.5"/>
<text text-anchor="start" x="91" y="-453.9" font-family="Arial" font-size="14.00" fill="#000000">UserRole </text>
<text text-anchor="start" x="153.2188" y="-453.9" font-family="Arial" font-size="14.00" fill="#666666">[STRING(MAX)]</text>
<polygon fill="none" stroke="#000000" stroke-width="3" points="82.5,-441.5 82.5,-569.5 423.5,-569.5 423.5,-441.5 82.5,-441.5"/>
</g>
<!-- SavedSearches -->
<g id="node2" class="node">
<title>SavedSearches</title>
<polygon fill="#efefef" stroke="transparent" points="43,-282.5 43,-317.5 463,-317.5 463,-282.5 43,-282.5"/>
<polygon fill="none" stroke="#000000" points="43,-282.5 43,-317.5 463,-317.5 463,-282.5 43,-282.5"/>
<text text-anchor="start" x="123.3637" y="-295.3" font-family="Arial Bold" font-size="18.00" fill="#000000">SavedSearches</text>
<text text-anchor="start" x="250.4077" y="-295.3" font-family="Arial" font-size="14.00" fill="#000000">    </text>
<text text-anchor="start" x="284.6125" y="-295.3" font-family="Arial" font-size="14.00" fill="#666666">[BASIC TABLE]</text>
<polygon fill="none" stroke="#000000" points="43,-252.5 43,-282.5 463,-282.5 463,-252.5 43,-252.5"/>
<text text-anchor="start" x="50" y="-263.9" font-family="Arial" font-size="14.00" fill="#000000">ID    </text>
<text text-anchor="start" x="98.202" y="-263.9" font-family="Arial" font-size="14.00" fill="#666666">[STRING(36)]</text>
<polygon fill="none" stroke="#000000" points="43,-222.5 43,-252.5 463,-252.5 463,-222.5 43,-222.5"/>
<text text-anchor="start" x="50" y="-233.9" font-family="Arial" font-size="14.00" fill="#000000">Name    </text>
<text text-anchor="start" x="121.5372" y="-233.9" font-family="Arial" font-size="14.00" fill="#666666">[STRING(MAX)]</text>
<polygon fill="none" stroke="#000000" points="43,-192.5 43,-222.5 463,-222.5 463,-192.5 43,-192.5"/>
<text text-anchor="start" x="50" y="-203.9" font-family="Arial" font-size="14.00" fill="#000000">Query    </text>
<text text-anchor="start" x="122.3212" y="-203.9" font-family="Arial" font-size="14.00" fill="#666666">[STRING(MAX)]</text>
<polygon fill="none" stroke="#000000" points="43,-162.5 43,-192.5 463,-192.5 463,-162.5 43,-162.5"/>
<text text-anchor="start" x="50" y="-173.9" font-family="Arial" font-size="14.00" fill="#000000">Scope    </text>
<text text-anchor="start" x="123.8892" y="-173.9" font-family="Arial" font-size="14.00" fill="#666666">[STRING(MAX)]</text>
<polygon fill="none" stroke="#000000" points="43,-132.5 43,-162.5 463,-162.5 463,-132.5 43,-132.5"/>
<text text-anchor="start" x="50" y="-143.9" font-family="Arial" font-size="14.00" fill="#000000">AuthorID    </text>
<text text-anchor="start" x="139.4376" y="-143.9" font-family="Arial" font-size="14.00" fill="#666666">[STRING(MAX)]</text>
<polygon fill="none" stroke="#000000" points="43,-102.5 43,-132.5 463,-132.5 463,-102.5 43,-102.5"/>
<text text-anchor="start" x="50" y="-113.9" font-family="Arial" font-size="14.00" fill="#000000">CreatedAt    </text>
<text text-anchor="start" x="147.2202" y="-113.9" font-family="Arial" font-size="14.00" fill="#666666">[TIMESTAMP (allow_commit_timestamp=TRUE)]</text>
<polygon fill="none" stroke="#000000" points="43,-72.5 43,-102.5 463,-102.5 463,-72.5 43,-72.5"/>
<text text-anchor="start" x="49.8082" y="-83.9" font-family="Arial" font-size="14.00" fill="#000000">UpdatedAt    </text>
<text text-anchor="start" x="150.1504" y="-83.9" font-family="Arial" font-size="14.00" fill="#666666">[TIMESTAMP (allow_commit_timestamp=TRUE)]</text>
<polygon fill="none" stroke="#000000" points="43,-42.5 43,-72.5 463,-72.5 463,-42.5 43,-42.5"/>
<text text-anchor="start" x="50" y="-53.9" font-family="Arial" font-size="14.00" fill="#000000">Description    </text>
<text text-anchor="start" x="154.2062" y="-53.9" font-family="Arial" font-size="14.00" fill="#666666">[STRING(MAX)]</text>
</g>
<!-- SavedSearchUserRoles&#45;&gt;SavedSearches -->
<g id="edge1" class="edge">
<title>SavedSearchUserRoles:SavedSearchID&#45;&gt;SavedSearches:ID</title>
<path fill="none" stroke="#000000" stroke-dasharray="5,2" d="M431.722,-515.0257C482.7684,-489.0614 515.999,-267.5 463,-267.5"/>
<polygon fill="#000000" stroke="#000000" points="431.6911,-515.0335 420.8901,-513.139 426.8455,-516.2667 422,-517.5 422,-517.5 422,-517.5 426.8455,-516.2667 423.1099,-521.861 431.6911,-515.0335 431.6911,-515.0335"/>
</g>
</g>
</svg>
