<?xml version="1.0" encoding="UTF-8" standalone="no"?>
<!DOCTYPE svg PUBLIC "-//W3C//DTD SVG 1.1//EN"
 "http://www.w3.org/Graphics/SVG/1.1/DTD/svg11.dtd">
<!-- Generated by graphviz version 2.40.1 (20161225.0304)
 -->
<!-- Title: SavedSearchNotificationEvents Pages: 1 -->
<svg width="498pt" height="405pt"
 viewBox="0.00 0.00 498.00 405.00" xmlns="http://www.w3.org/2000/svg" xmlns:xlink="http://www.w3.org/1999/xlink">
<g id="graph0" class="graph" transform="scale(1 1) rotate(0) translate(4 401)">
<title>SavedSearchNotificationEvents</title>
<polygon fill="#ffffff" stroke="transparent" points="-4,4 -4,-401 494,-401 494,4 -4,4"/>
<!-- SavedSearchNotificationEvents -->
<g id="node1" class="node">
<title>SavedSearchNotificationEvents</title>
<polygon fill="#efefef" stroke="transparent" points="46,-315.5 46,-350.5 444,-350.5 444,-315.5 46,-315.5"/>
<polygon fill="none" stroke="#000000" points="46,-315.5 46,-350.5 444,-350.5 444,-315.5 46,-315.5"/>
<text text-anchor="start" x="52.8533" y="-328.3" font-family="Arial Bold" font-size="18.00" fill="#000000">SavedSearchNotificationEvents</text>
<text text-anchor="start" x="304.9181" y="-328.3" font-family="Arial" font-size="14.00" fill="#000000">    </text>
<text text-anchor="start" x="339.1229" y="-328.3" font-family="Arial" font-size="14.00" fill="#666666">[BASIC TABLE]</text>
<polygon fill="none" stroke="#000000" points="46,-285.5 46,-315.5 444,-315.5 444,-285.5 46,-285.5"/>
<text text-anchor="start" x="53" y="-296.9" font-family="Arial" font-size="14.00" fill="#000000">EventId </text>
<text text-anchor="start" x="104.3562" y="-296.9" font-family="Arial" font-size="14.00" fill="#666666">[STRING(36)]</text>
<polygon fill="none" stroke="#000000" points="46,-255.5 46,-285.5 444,-285.5 444,-255.5 46,-255.5"/>
<text text-anchor="start" x="53" y="-266.9" font-family="Arial" font-size="14.00" fill="#000000">SavedSearchId </text>
<text text-anchor="start" x="152.5932" y="-266.9" font-family="Arial" font-size="14.00" fill="#666666">[STRING(36)]</text>
<polygon fill="none" stroke="#000000" points="46,-225.5 46,-255.5 444,-255.5 444,-225.5 46,-225.5"/>
<text text-anchor="start" x="53" y="-236.9" font-family="Arial" font-size="14.00" fill="#000000">SnapshotType </text>
<text text-anchor="start" x="147.1486" y="-236.9" font-family="Arial" font-size="14.00" fill="#666666">[STRING(MAX)]</text>
<polygon fill="none" stroke="#000000" points="46,-195.5 46,-225.5 444,-225.5 444,-195.5 46,-195.5"/>
<text text-anchor="start" x="53" y="-206.9" font-family="Arial" font-size="14.00" fill="#000000">Timestamp </text>
<text text-anchor="start" x="126.1094" y="-206.9" font-family="Arial" font-size="14.00" fill="#666666">[TIMESTAMP (allow_commit_timestamp=TRUE)]</text>
<polygon fill="none" stroke="#000000" points="46,-165.5 46,-195.5 444,-195.5 444,-165.5 46,-165.5"/>
<text text-anchor="start" x="53" y="-176.9" font-family="Arial" font-size="14.00" fill="#000000">EventType </text>
<text text-anchor="start" x="123.8008" y="-176.9" font-family="Arial" font-size="14.00" fill="#666666">[STRING(MAX)]</text>
<polygon fill="none" stroke="#000000" points="46,-135.5 46,-165.5 444,-165.5 444,-135.5 46,-135.5"/>
<text text-anchor="start" x="53" y="-146.9" font-family="Arial" font-size="14.00" fill="#000000">BlobPath </text>
<text text-anchor="start" x="113.6914" y="-146.9" font-family="Arial" font-size="14.00" fill="#666666">[STRING(MAX)]</text>
<polygon fill="none" stroke="#000000" points="46,-105.5 46,-135.5 444,-135.5 444,-105.5 46,-105.5"/>
<text text-anchor="start" x="53" y="-116.9" font-family="Arial" font-size="14.00" fill="#000000">Summary </text>
<text text-anchor="start" x="116.7742" y="-116.9" font-family="Arial" font-size="14.00" fill="#666666">[JSON]</text>
<polygon fill="none" stroke="#000000" points="46,-75.5 46,-105.5 444,-105.5 444,-75.5 46,-75.5"/>
<text text-anchor="start" x="53" y="-86.9" font-family="Arial" font-size="14.00" fill="#000000">DiffBlobPath </text>
<text text-anchor="start" x="134.6858" y="-86.9" font-family="Arial" font-size="14.00" fill="#666666">[STRING(MAX)]</text>
<polygon fill="none" stroke="#000000" points="46,-45.5 46,-75.5 444,-75.5 444,-45.5 46,-45.5"/>
<text text-anchor="start" x="53" y="-56.9" font-family="Arial" font-size="14.00" fill="#000000">Reasons </text>
<text text-anchor="start" x="112.1276" y="-56.9" font-family="Arial" font-size="14.00" fill="#666666">[ARRAY&lt;STRING(MAX)&gt;]</text>
<polygon fill="none" stroke="#000000" stroke-width="3" points="44.5,-44.5 44.5,-352.5 445.5,-352.5 445.5,-44.5 44.5,-44.5"/>
</g>
</g>
</svg>
