<?xml version="1.0" encoding="UTF-8" standalone="no"?>
<!DOCTYPE svg PUBLIC "-//W3C//DTD SVG 1.1//EN"
 "http://www.w3.org/Graphics/SVG/1.1/DTD/svg11.dtd">
<!-- Generated by graphviz version 2.40.1 (20161225.0304)
 -->
<!-- Title: SavedSearchSubscriptions Pages: 1 -->
<svg width="490pt" height="345pt"
 viewBox="0.00 0.00 490.00 345.00" xmlns="http://www.w3.org/2000/svg" xmlns:xlink="http://www.w3.org/1999/xlink">
<g id="graph0" class="graph" transform="scale(1 1) rotate(0) translate(4 341)">
<title>SavedSearchSubscriptions</title>
<polygon fill="#ffffff" stroke="transparent" points="-4,4 -4,-341 486,-341 486,4 -4,4"/>
<!-- SavedSearchSubscriptions -->
<g id="node1" class="node">
<title>SavedSearchSubscriptions</title>
<polygon fill="#efefef" stroke="transparent" points="46,-255.5 46,-290.5 436,-290.5 436,-255.5 46,-255.5"/>
<polygon fill="none" stroke="#000000" points="46,-255.5 46,-290.5 436,-290.5 436,-255.5 46,-255.5"/>
<text text-anchor="start" x="66.8578" y="-268.3" font-family="Arial Bold" font-size="18.00" fill="#000000">SavedSearchSubscriptions</text>
<text text-anchor="start" x="282.9136" y="-268.3" font-family="Arial" font-size="14.00" fill="#000000">    </text>
<text text-anchor="start" x="317.1184" y="-268.3" font-family="Arial" font-size="14.00" fill="#666666">[BASIC TABLE]</text>
<polygon fill="none" stroke="#000000" points="46,-225.5 46,-255.5 436,-255.5 436,-225.5 46,-225.5"/>
<text text-anchor="start" x="53" y="-236.9" font-family="Arial" font-size="14.00" fill="#000000">ID </text>
<text text-anchor="start" x="70.8878" y="-236.9" font-family="Arial" font-size="14.00" fill="#666666">[STRING(36)]</text>
<polygon fill="none" stroke="#000000" points="46,-195.5 46,-225.5 436,-225.5 436,-195.5 46,-195.5"/>
<text text-anchor="start" x="53" y="-206.9" font-family="Arial" font-size="14.00" fill="#000000">ChannelID </text>
<text text-anchor="start" x="123.014" y="-206.9" font-family="Arial" font-size="14.00" fill="#666666">[STRING(36)]</text>
<polygon fill="none" stroke="#000000" points="46,-165.5 46,-195.5 436,-195.5 436,-165.5 46,-165.5"/>
<text text-anchor="start" x="53" y="-176.9" font-family="Arial" font-size="14.00" fill="#000000">SavedSearchID </text>
<text text-anchor="start" x="154.9172" y="-176.9" font-family="Arial" font-size="14.00" fill="#666666">[STRING(36)]</text>
<polygon fill="none" stroke="#000000" points="46,-135.5 46,-165.5 436,-165.5 436,-135.5 46,-135.5"/>
<text text-anchor="start" x="53" y="-146.9" font-family="Arial" font-size="14.00" fill="#000000">Triggers </text>
<text text-anchor="start" x="108.2188" y="-146.9" font-family="Arial" font-size="14.00" fill="#666666">[ARRAY&lt;STRING(MAX)&gt;]</text>
<polygon fill="none" stroke="#000000" points="46,-105.5 46,-135.5 436,-135.5 436,-105.5 46,-105.5"/>
<text text-anchor="start" x="53" y="-116.9" font-family="Arial" font-size="14.00" fill="#000000">Frequency </text>
<text text-anchor="start" x="123.0168" y="-116.9" font-family="Arial" font-size="14.00" fill="#666666">[STRING(MAX)]</text>
<polygon fill="none" stroke="#000000" points="46,-75.5 46,-105.5 436,-105.5 436,-75.5 46,-75.5"/>
<text text-anchor="start" x="53" y="-86.9" font-family="Arial" font-size="14.00" fill="#000000">CreatedAt </text>
<text text-anchor="start" x="119.906" y="-86.9" font-family="Arial" font-size="14.00" fill="#666666">[TIMESTAMP (allow_commit_timestamp=TRUE)]</text>
<polygon fill="none" stroke="#000000" points="46,-45.5 46,-75.5 436,-75.5 436,-45.5 46,-45.5"/>
<text text-anchor="start" x="52.9653" y="-56.9" font-family="Arial" font-size="14.00" fill="#000000">UpdatedAt </text>
<text text-anchor="start" x="122.9933" y="-56.9" font-family="Arial" font-size="14.00" fill="#666666">[TIMESTAMP (allow_commit_timestamp=TRUE)]</text>
<polygon fill="none" stroke="#000000" stroke-width="3" points="44.5,-44.5 44.5,-292.5 437.5,-292.5 437.5,-44.5 44.5,-44.5"/>
</g>
</g>
</svg>
