<?xml version="1.0" encoding="UTF-8" standalone="no"?>
<!DOCTYPE svg PUBLIC "-//W3C//DTD SVG 1.1//EN"
 "http://www.w3.org/Graphics/SVG/1.1/DTD/svg11.dtd">
<!-- Generated by graphviz version 12.1.2 (20240928.0832)
 -->
<!-- Title: SavedSearchUserRoles Pages: 1 -->
<svg width="839pt" height="633pt"
 viewBox="0.00 0.00 839.17 632.80" xmlns="http://www.w3.org/2000/svg" xmlns:xlink="http://www.w3.org/1999/xlink">
<g id="graph0" class="graph" transform="scale(1 1) rotate(0) translate(4 628.8)">
<title>SavedSearchUserRoles</title>
<polygon fill="white" stroke="none" points="-4,4 -4,-628.8 835.17,-628.8 835.17,4 -4,4"/>
<!-- SavedSearchUserRoles -->
<g id="node1" class="node">
<title>SavedSearchUserRoles</title>
<polygon fill="#efefef" stroke="none" points="82.73,-543 82.73,-578.6 393.83,-578.6 393.83,-543 82.73,-543"/>
<polygon fill="none" stroke="black" points="82.73,-543 82.73,-578.6 393.83,-578.6 393.83,-543 82.73,-543"/>
<text text-anchor="start" x="89.73" y="-556.4" font-family="Arial Bold" font-size="18.00">SavedSearchUserRoles</text>
<text text-anchor="start" x="257.68" y="-556.4" font-family="Arial" font-size="14.00">    </text>
<text text-anchor="start" x="288.79" y="-556.4" font-family="Arial" font-size="14.00" fill="#666666">[BASIC TABLE]</text>
<polygon fill="none" stroke="black" points="82.73,-512.2 82.73,-543 393.83,-543 393.83,-512.2 82.73,-512.2"/>
<text text-anchor="start" x="89.73" y="-524.4" font-family="Arial" font-size="14.00">SavedSearchID </text>
<text text-anchor="start" x="191.67" y="-524.4" font-family="Arial" font-size="14.00" fill="#666666">[STRING(36)]</text>
<polygon fill="none" stroke="black" points="82.73,-481.4 82.73,-512.2 393.83,-512.2 393.83,-481.4 82.73,-481.4"/>
<text text-anchor="start" x="89.73" y="-493.6" font-family="Arial" font-size="14.00">UserID </text>
<text text-anchor="start" x="137.17" y="-493.6" font-family="Arial" font-size="14.00" fill="#666666">[STRING(MAX)]</text>
<polygon fill="none" stroke="black" points="82.73,-450.6 82.73,-481.4 393.83,-481.4 393.83,-450.6 82.73,-450.6"/>
<text text-anchor="start" x="89.73" y="-462.8" font-family="Arial" font-size="14.00">UserRole </text>
<text text-anchor="start" x="151.97" y="-462.8" font-family="Arial" font-size="14.00" fill="#666666">[STRING(MAX)]</text>
<polygon fill="none" stroke="black" stroke-width="3" points="81.23,-449.1 81.23,-580.1 395.33,-580.1 395.33,-449.1 81.23,-449.1"/>
</g>
<!-- SavedSearches -->
<g id="node2" class="node">
<title>SavedSearches</title>
<polygon fill="#efefef" stroke="none" points="43.2,-289.6 43.2,-325.2 433.35,-325.2 433.35,-289.6 43.2,-289.6"/>
<polygon fill="none" stroke="black" points="43.2,-289.6 43.2,-325.2 433.35,-325.2 433.35,-289.6 43.2,-289.6"/>
<text text-anchor="start" x="119.72" y="-303" font-family="Arial Bold" font-size="18.00">SavedSearches</text>
<text text-anchor="start" x="227.68" y="-303" font-family="Arial" font-size="14.00">    </text>
<text text-anchor="start" x="258.8" y="-303" font-family="Arial" font-size="14.00" fill="#666666">[BASIC TABLE]</text>
<polygon fill="none" stroke="black" points="43.2,-258.8 43.2,-289.6 433.35,-289.6 433.35,-258.8 43.2,-258.8"/>
<text text-anchor="start" x="50.2" y="-271" font-family="Arial" font-size="14.00">ID </text>
<text text-anchor="start" x="68.09" y="-271" font-family="Arial" font-size="14.00" fill="#666666">[STRING(36)]</text>
<polygon fill="none" stroke="black" points="43.2,-228 43.2,-258.8 433.35,-258.8 433.35,-228 43.2,-228"/>
<text text-anchor="start" x="50.2" y="-240.2" font-family="Arial" font-size="14.00">Name </text>
<text text-anchor="start" x="91.43" y="-240.2" font-family="Arial" font-size="14.00" fill="#666666">[STRING(MAX)]</text>
<polygon fill="none" stroke="black" points="43.2,-197.2 43.2,-228 433.35,-228 433.35,-197.2 43.2,-197.2"/>
<text text-anchor="start" x="50.2" y="-209.4" font-family="Arial" font-size="14.00">Query </text>
<text text-anchor="start" x="92.21" y="-209.4" font-family="Arial" font-size="14.00" fill="#666666">[STRING(MAX)]</text>
<polygon fill="none" stroke="black" points="43.2,-166.4 43.2,-197.2 433.35,-197.2 433.35,-166.4 43.2,-166.4"/>
<text text-anchor="start" x="50.2" y="-178.6" font-family="Arial" font-size="14.00">Scope </text>
<text text-anchor="start" x="93.79" y="-178.6" font-family="Arial" font-size="14.00" fill="#666666">[STRING(MAX)]</text>
<polygon fill="none" stroke="black" points="43.2,-135.6 43.2,-166.4 433.35,-166.4 433.35,-135.6 43.2,-135.6"/>
<text text-anchor="start" x="50.2" y="-147.8" font-family="Arial" font-size="14.00">AuthorID </text>
<text text-anchor="start" x="109.34" y="-147.8" font-family="Arial" font-size="14.00" fill="#666666">[STRING(MAX)]</text>
<polygon fill="none" stroke="black" points="43.2,-104.8 43.2,-135.6 433.35,-135.6 433.35,-104.8 43.2,-104.8"/>
<text text-anchor="start" x="50.2" y="-117" font-family="Arial" font-size="14.00">CreatedAt </text>
<text text-anchor="start" x="117.12" y="-117" font-family="Arial" font-size="14.00" fill="#666666">[TIMESTAMP (allow_commit_timestamp=TRUE)]</text>
<polygon fill="none" stroke="black" points="43.2,-74 43.2,-104.8 433.35,-104.8 433.35,-74 43.2,-74"/>
<text text-anchor="start" x="50.2" y="-86.2" font-family="Arial" font-size="14.00">UpdatedAt </text>
<text text-anchor="start" x="120.25" y="-86.2" font-family="Arial" font-size="14.00" fill="#666666">[TIMESTAMP (allow_commit_timestamp=TRUE)]</text>
<polygon fill="none" stroke="black" points="43.2,-43.2 43.2,-74 433.35,-74 433.35,-43.2 43.2,-43.2"/>
<text text-anchor="start" x="50.2" y="-55.4" font-family="Arial" font-size="14.00">Description </text>
<text text-anchor="start" x="124.12" y="-55.4" font-family="Arial" font-size="14.00" fill="#666666">[STRING(MAX)]</text>
</g>
<!-- SavedSearchUserRoles&#45;&gt;SavedSearches -->
<g id="edge1" class="edge">
<title>SavedSearchUserRoles:SavedSearchID&#45;&gt;SavedSearches:ID</title>
<path fill="none" stroke="black" d="M404.65,-525.09C456.12,-498.77 488.01,-274.2 434.35,-274.2"/>
<polygon fill="black" stroke="black" points="404.84,-525.04 394.04,-523.16 399.67,-526.36 395.48,-527.43 395.48,-527.43 395.48,-527.43 399.67,-526.36 396.27,-531.88 404.84,-525.04"/>
<text text-anchor="start" x="401.83" y="-537.6" font-family="Arial" font-size="10.00">FOREIGN KEY (SavedSearchID) REFERENCES SavedSearches (ID) ON DELETE CASCADE</text>
</g>
</g>
</svg>
