<?xml version="1.0" encoding="UTF-8" standalone="no"?>
<!DOCTYPE svg PUBLIC "-//W3C//DTD SVG 1.1//EN"
 "http://www.w3.org/Graphics/SVG/1.1/DTD/svg11.dtd">
<!-- Generated by graphviz version 12.1.2 (20240928.0832)
 -->
<!-- Title: SavedSearchState Pages: 1 -->
<svg width="1379pt" height="1130pt"
 viewBox="0.00 0.00 1379.33 1129.60" xmlns="http://www.w3.org/2000/svg" xmlns:xlink="http://www.w3.org/1999/xlink">
<g id="graph0" class="graph" transform="scale(1 1) rotate(0) translate(4 1125.6)">
<title>SavedSearchState</title>
<polygon fill="white" stroke="none" points="-4,4 -4,-1125.6 1375.33,-1125.6 1375.33,4 -4,4"/>
<!-- SavedSearchState -->
<g id="node1" class="node">
<title>SavedSearchState</title>
<polygon fill="#efefef" stroke="none" points="101.32,-604.6 101.32,-640.2 378.31,-640.2 378.31,-604.6 101.32,-604.6"/>
<polygon fill="none" stroke="black" points="101.32,-604.6 101.32,-640.2 378.31,-640.2 378.31,-604.6 101.32,-604.6"/>
<text text-anchor="start" x="110.76" y="-618" font-family="Arial Bold" font-size="18.00">SavedSearchState</text>
<text text-anchor="start" x="239.72" y="-618" font-family="Arial" font-size="14.00">    </text>
<text text-anchor="start" x="270.83" y="-618" font-family="Arial" font-size="14.00" fill="#666666">[BASIC TABLE]</text>
<polygon fill="none" stroke="black" points="101.32,-573.8 101.32,-604.6 378.31,-604.6 378.31,-573.8 101.32,-573.8"/>
<text text-anchor="start" x="108.32" y="-586" font-family="Arial" font-size="14.00">SavedSearchId </text>
<text text-anchor="start" x="207.94" y="-586" font-family="Arial" font-size="14.00" fill="#666666">[STRING(36)]</text>
<polygon fill="none" stroke="black" points="101.32,-543 101.32,-573.8 378.31,-573.8 378.31,-543 101.32,-543"/>
<text text-anchor="start" x="108.32" y="-555.2" font-family="Arial" font-size="14.00">SnapshotType </text>
<text text-anchor="start" x="202.49" y="-555.2" font-family="Arial" font-size="14.00" fill="#666666">[STRING(MAX)]</text>
<polygon fill="none" stroke="black" points="101.32,-512.2 101.32,-543 378.31,-543 378.31,-512.2 101.32,-512.2"/>
<text text-anchor="start" x="108.32" y="-524.4" font-family="Arial" font-size="14.00">LastKnownStateBlobPath </text>
<text text-anchor="start" x="270.98" y="-524.4" font-family="Arial" font-size="14.00" fill="#666666">[STRING(MAX)]</text>
<polygon fill="none" stroke="black" points="101.32,-481.4 101.32,-512.2 378.31,-512.2 378.31,-481.4 101.32,-481.4"/>
<text text-anchor="start" x="108.32" y="-493.6" font-family="Arial" font-size="14.00">WorkerLockId </text>
<text text-anchor="start" x="198.56" y="-493.6" font-family="Arial" font-size="14.00" fill="#666666">[STRING(MAX)]</text>
<polygon fill="none" stroke="black" points="101.32,-450.6 101.32,-481.4 378.31,-481.4 378.31,-450.6 101.32,-450.6"/>
<text text-anchor="start" x="108.32" y="-462.8" font-family="Arial" font-size="14.00">WorkerLockExpiresAt </text>
<text text-anchor="start" x="246.8" y="-462.8" font-family="Arial" font-size="14.00" fill="#666666">[TIMESTAMP]</text>
<polygon fill="none" stroke="black" stroke-width="3" points="99.82,-449.1 99.82,-641.7 379.81,-641.7 379.81,-449.1 99.82,-449.1"/>
</g>
<!-- SavedSearches -->
<g id="node2" class="node">
<title>SavedSearches</title>
<polygon fill="#efefef" stroke="none" points="44.74,-289.6 44.74,-325.2 434.89,-325.2 434.89,-289.6 44.74,-289.6"/>
<polygon fill="none" stroke="black" points="44.74,-289.6 44.74,-325.2 434.89,-325.2 434.89,-289.6 44.74,-289.6"/>
<text text-anchor="start" x="121.26" y="-303" font-family="Arial Bold" font-size="18.00">SavedSearches</text>
<text text-anchor="start" x="229.22" y="-303" font-family="Arial" font-size="14.00">    </text>
<text text-anchor="start" x="260.33" y="-303" font-family="Arial" font-size="14.00" fill="#666666">[BASIC TABLE]</text>
<polygon fill="none" stroke="black" points="44.74,-258.8 44.74,-289.6 434.89,-289.6 434.89,-258.8 44.74,-258.8"/>
<text text-anchor="start" x="51.74" y="-271" font-family="Arial" font-size="14.00">ID </text>
<text text-anchor="start" x="69.63" y="-271" font-family="Arial" font-size="14.00" fill="#666666">[STRING(36)]</text>
<polygon fill="none" stroke="black" points="44.74,-228 44.74,-258.8 434.89,-258.8 434.89,-228 44.74,-228"/>
<text text-anchor="start" x="51.74" y="-240.2" font-family="Arial" font-size="14.00">Name </text>
<text text-anchor="start" x="92.97" y="-240.2" font-family="Arial" font-size="14.00" fill="#666666">[STRING(MAX)]</text>
<polygon fill="none" stroke="black" points="44.74,-197.2 44.74,-228 434.89,-228 434.89,-197.2 44.74,-197.2"/>
<text text-anchor="start" x="51.74" y="-209.4" font-family="Arial" font-size="14.00">Query </text>
<text text-anchor="start" x="93.75" y="-209.4" font-family="Arial" font-size="14.00" fill="#666666">[STRING(MAX)]</text>
<polygon fill="none" stroke="black" points="44.74,-166.4 44.74,-197.2 434.89,-197.2 434.89,-166.4 44.74,-166.4"/>
<text text-anchor="start" x="51.74" y="-178.6" font-family="Arial" font-size="14.00">Scope </text>
<text text-anchor="start" x="95.32" y="-178.6" font-family="Arial" font-size="14.00" fill="#666666">[STRING(MAX)]</text>
<polygon fill="none" stroke="black" points="44.74,-135.6 44.74,-166.4 434.89,-166.4 434.89,-135.6 44.74,-135.6"/>
<text text-anchor="start" x="51.74" y="-147.8" font-family="Arial" font-size="14.00">AuthorID </text>
<text text-anchor="start" x="110.88" y="-147.8" font-family="Arial" font-size="14.00" fill="#666666">[STRING(MAX)]</text>
<polygon fill="none" stroke="black" points="44.74,-104.8 44.74,-135.6 434.89,-135.6 434.89,-104.8 44.74,-104.8"/>
<text text-anchor="start" x="51.74" y="-117" font-family="Arial" font-size="14.00">CreatedAt </text>
<text text-anchor="start" x="118.66" y="-117" font-family="Arial" font-size="14.00" fill="#666666">[TIMESTAMP (allow_commit_timestamp=TRUE)]</text>
<polygon fill="none" stroke="black" points="44.74,-74 44.74,-104.8 434.89,-104.8 434.89,-74 44.74,-74"/>
<text text-anchor="start" x="51.74" y="-86.2" font-family="Arial" font-size="14.00">UpdatedAt </text>
<text text-anchor="start" x="121.79" y="-86.2" font-family="Arial" font-size="14.00" fill="#666666">[TIMESTAMP (allow_commit_timestamp=TRUE)]</text>
<polygon fill="none" stroke="black" points="44.74,-43.2 44.74,-74 434.89,-74 434.89,-43.2 44.74,-43.2"/>
<text text-anchor="start" x="51.74" y="-55.4" font-family="Arial" font-size="14.00">Description </text>
<text text-anchor="start" x="125.66" y="-55.4" font-family="Arial" font-size="14.00" fill="#666666">[STRING(MAX)]</text>
</g>
<!-- SavedSearchState&#45;&gt;SavedSearches -->
<g id="edge1" class="edge">
<title>SavedSearchState:SavedSearchId&#45;&gt;SavedSearches:ID</title>
<path fill="none" stroke="black" d="M389.58,-588.65C524.2,-574.01 574.66,-274.2 435.89,-274.2"/>
<polygon fill="black" stroke="black" points="389.63,-588.64 379.41,-584.69 384.31,-588.93 379.98,-589.16 379.98,-589.16 379.98,-589.16 384.31,-588.93 379.89,-593.68 389.63,-588.64"/>
<text text-anchor="start" x="386.31" y="-599.2" font-family="Arial" font-size="10.00">FOREIGN KEY (SavedSearchId) REFERENCES SavedSearches (ID) ON DELETE CASCADE</text>
</g>
<!-- SavedSearchNotificationEvents -->
<g id="node3" class="node">
<title>SavedSearchNotificationEvents</title>
<polygon fill="#efefef" stroke="none" points="43.2,-1042.8 43.2,-1078.4 436.43,-1078.4 436.43,-1042.8 43.2,-1042.8"/>
<polygon fill="none" stroke="black" points="43.2,-1042.8 43.2,-1078.4 436.43,-1078.4 436.43,-1042.8 43.2,-1042.8"/>
<text text-anchor="start" x="60.78" y="-1056.2" font-family="Arial Bold" font-size="18.00">SavedSearchNotificationEvents</text>
<text text-anchor="start" x="289.7" y="-1056.2" font-family="Arial" font-size="14.00">    </text>
<text text-anchor="start" x="320.82" y="-1056.2" font-family="Arial" font-size="14.00" fill="#666666">[BASIC TABLE]</text>
<polygon fill="none" stroke="black" points="43.2,-1012 43.2,-1042.8 436.43,-1042.8 436.43,-1012 43.2,-1012"/>
<text text-anchor="start" x="50.2" y="-1024.2" font-family="Arial" font-size="14.00">EventId </text>
<text text-anchor="start" x="101.57" y="-1024.2" font-family="Arial" font-size="14.00" fill="#666666">[STRING(36)]</text>
<polygon fill="none" stroke="black" points="43.2,-981.2 43.2,-1012 436.43,-1012 436.43,-981.2 43.2,-981.2"/>
<text text-anchor="start" x="50.2" y="-993.4" font-family="Arial" font-size="14.00">SavedSearchId </text>
<text text-anchor="start" x="149.82" y="-993.4" font-family="Arial" font-size="14.00" fill="#666666">[STRING(36)]</text>
<polygon fill="none" stroke="black" points="43.2,-950.4 43.2,-981.2 436.43,-981.2 436.43,-950.4 43.2,-950.4"/>
<text text-anchor="start" x="50.2" y="-962.6" font-family="Arial" font-size="14.00">SnapshotType </text>
<text text-anchor="start" x="144.37" y="-962.6" font-family="Arial" font-size="14.00" fill="#666666">[STRING(MAX)]</text>
<polygon fill="none" stroke="black" points="43.2,-919.6 43.2,-950.4 436.43,-950.4 436.43,-919.6 43.2,-919.6"/>
<text text-anchor="start" x="50.2" y="-931.8" font-family="Arial" font-size="14.00">Timestamp </text>
<text text-anchor="start" x="123.32" y="-931.8" font-family="Arial" font-size="14.00" fill="#666666">[TIMESTAMP (allow_commit_timestamp=TRUE)]</text>
<polygon fill="none" stroke="black" points="43.2,-888.8 43.2,-919.6 436.43,-919.6 436.43,-888.8 43.2,-888.8"/>
<text text-anchor="start" x="50.2" y="-901" font-family="Arial" font-size="14.00">EventType </text>
<text text-anchor="start" x="121.01" y="-901" font-family="Arial" font-size="14.00" fill="#666666">[STRING(MAX)]</text>
<polygon fill="none" stroke="black" points="43.2,-858 43.2,-888.8 436.43,-888.8 436.43,-858 43.2,-858"/>
<text text-anchor="start" x="50.2" y="-870.2" font-family="Arial" font-size="14.00">BlobPath </text>
<text text-anchor="start" x="110.91" y="-870.2" font-family="Arial" font-size="14.00" fill="#666666">[STRING(MAX)]</text>
<polygon fill="none" stroke="black" points="43.2,-827.2 43.2,-858 436.43,-858 436.43,-827.2 43.2,-827.2"/>
<text text-anchor="start" x="50.2" y="-839.4" font-family="Arial" font-size="14.00">Summary </text>
<text text-anchor="start" x="113.99" y="-839.4" font-family="Arial" font-size="14.00" fill="#666666">[JSON]</text>
<polygon fill="none" stroke="black" points="43.2,-796.4 43.2,-827.2 436.43,-827.2 436.43,-796.4 43.2,-796.4"/>
<text text-anchor="start" x="50.2" y="-808.6" font-family="Arial" font-size="14.00">DiffBlobPath </text>
<text text-anchor="start" x="131.91" y="-808.6" font-family="Arial" font-size="14.00" fill="#666666">[STRING(MAX)]</text>
<polygon fill="none" stroke="black" points="43.2,-765.6 43.2,-796.4 436.43,-796.4 436.43,-765.6 43.2,-765.6"/>
<text text-anchor="start" x="50.2" y="-777.8" font-family="Arial" font-size="14.00">Reasons </text>
<text text-anchor="start" x="109.34" y="-777.8" font-family="Arial" font-size="14.00" fill="#666666">[ARRAY&lt;STRING(MAX)&gt;]</text>
</g>
<!-- SavedSearchNotificationEvents&#45;&gt;SavedSearchState -->
<g id="edge2" class="edge">
<title>SavedSearchNotificationEvents:SavedSearchId&#45;&gt;SavedSearchState:SavedSearchId</title>
<path fill="none" stroke="black" d="M447.47,-994.78C524.29,-965.39 467.19,-589.2 379.31,-589.2"/>
<polygon fill="black" stroke="black" points="447.6,-994.76 436.96,-992.11 442.35,-995.71 438.09,-996.48 438.09,-996.48 438.09,-996.48 442.35,-995.71 438.56,-1000.97 447.6,-994.76"/>
<text text-anchor="start" x="444.43" y="-1006.6" font-family="Arial" font-size="10.00">FOREIGN KEY (SavedSearchId, SavedSearchId, SnapshotType, SnapshotType) REFERENCES SavedSearchState (SavedSearchId, SnapshotType, SavedSearchId, SnapshotType) ON DELETE CASCADE</text>
</g>
</g>
</svg>
