<?xml version="1.0" encoding="UTF-8" standalone="no"?>
<!DOCTYPE svg PUBLIC "-//W3C//DTD SVG 1.1//EN"
 "http://www.w3.org/Graphics/SVG/1.1/DTD/svg11.dtd">
<!-- Generated by graphviz version 12.1.2 (20240928.0832)
 -->
<!-- Title: SavedSearchSubscriptions Pages: 1 -->
<svg width="1271pt" height="756pt"
 viewBox="0.00 0.00 1271.17 756.00" xmlns="http://www.w3.org/2000/svg" xmlns:xlink="http://www.w3.org/1999/xlink">
<g id="graph0" class="graph" transform="scale(1 1) rotate(0) translate(4 752)">
<title>SavedSearchSubscriptions</title>
<polygon fill="white" stroke="none" points="-4,4 -4,-752 1267.17,-752 1267.17,4 -4,4"/>
<!-- SavedSearchSubscriptions -->
<g id="node1" class="node">
<title>SavedSearchSubscriptions</title>
<polygon fill="#efefef" stroke="none" points="435.67,-666.2 435.67,-701.8 825.83,-701.8 825.83,-666.2 435.67,-666.2"/>
<polygon fill="none" stroke="black" points="435.67,-666.2 435.67,-701.8 825.83,-701.8 825.83,-666.2 435.67,-666.2"/>
<text text-anchor="start" x="470.69" y="-679.6" font-family="Arial Bold" font-size="18.00">SavedSearchSubscriptions</text>
<text text-anchor="start" x="661.66" y="-679.6" font-family="Arial" font-size="14.00">    </text>
<text text-anchor="start" x="692.78" y="-679.6" font-family="Arial" font-size="14.00" fill="#666666">[BASIC TABLE]</text>
<polygon fill="none" stroke="black" points="435.67,-635.4 435.67,-666.2 825.83,-666.2 825.83,-635.4 435.67,-635.4"/>
<text text-anchor="start" x="442.67" y="-647.6" font-family="Arial" font-size="14.00">ID </text>
<text text-anchor="start" x="460.56" y="-647.6" font-family="Arial" font-size="14.00" fill="#666666">[STRING(36)]</text>
<polygon fill="none" stroke="black" points="435.67,-604.6 435.67,-635.4 825.83,-635.4 825.83,-604.6 435.67,-604.6"/>
<text text-anchor="start" x="442.67" y="-616.8" font-family="Arial" font-size="14.00">ChannelID </text>
<text text-anchor="start" x="512.71" y="-616.8" font-family="Arial" font-size="14.00" fill="#666666">[STRING(36)]</text>
<polygon fill="none" stroke="black" points="435.67,-573.8 435.67,-604.6 825.83,-604.6 825.83,-573.8 435.67,-573.8"/>
<text text-anchor="start" x="442.67" y="-586" font-family="Arial" font-size="14.00">SavedSearchID </text>
<text text-anchor="start" x="544.62" y="-586" font-family="Arial" font-size="14.00" fill="#666666">[STRING(36)]</text>
<polygon fill="none" stroke="black" points="435.67,-543 435.67,-573.8 825.83,-573.8 825.83,-543 435.67,-543"/>
<text text-anchor="start" x="442.67" y="-555.2" font-family="Arial" font-size="14.00">Triggers </text>
<text text-anchor="start" x="497.91" y="-555.2" font-family="Arial" font-size="14.00" fill="#666666">[ARRAY&lt;STRING(MAX)&gt;]</text>
<polygon fill="none" stroke="black" points="435.67,-512.2 435.67,-543 825.83,-543 825.83,-512.2 435.67,-512.2"/>
<text text-anchor="start" x="442.67" y="-524.4" font-family="Arial" font-size="14.00">Frequency </text>
<text text-anchor="start" x="512.71" y="-524.4" font-family="Arial" font-size="14.00" fill="#666666">[STRING(MAX)]</text>
<polygon fill="none" stroke="black" points="435.67,-481.4 435.67,-512.2 825.83,-512.2 825.83,-481.4 435.67,-481.4"/>
<text text-anchor="start" x="442.67" y="-493.6" font-family="Arial" font-size="14.00">CreatedAt </text>
<text text-anchor="start" x="509.6" y="-493.6" font-family="Arial" font-size="14.00" fill="#666666">[TIMESTAMP (allow_commit_timestamp=TRUE)]</text>
<polygon fill="none" stroke="black" points="435.67,-450.6 435.67,-481.4 825.83,-481.4 825.83,-450.6 435.67,-450.6"/>
<text text-anchor="start" x="442.67" y="-462.8" font-family="Arial" font-size="14.00">UpdatedAt </text>
<text text-anchor="start" x="512.72" y="-462.8" font-family="Arial" font-size="14.00" fill="#666666">[TIMESTAMP (allow_commit_timestamp=TRUE)]</text>
<polygon fill="none" stroke="black" stroke-width="3" points="434.17,-449.1 434.17,-703.3 827.33,-703.3 827.33,-449.1 434.17,-449.1"/>
</g>
<!-- NotificationChannels -->
<g id="node2" class="node">
<title>NotificationChannels</title>
<polygon fill="#efefef" stroke="none" points="188.67,-274.2 188.67,-309.8 578.83,-309.8 578.83,-274.2 188.67,-274.2"/>
<polygon fill="none" stroke="black" points="188.67,-274.2 188.67,-309.8 578.83,-309.8 578.83,-274.2 188.67,-274.2"/>
<text text-anchor="start" x="242.19" y="-287.6" font-family="Arial Bold" font-size="18.00">NotificationChannels</text>
<text text-anchor="start" x="396.16" y="-287.6" font-family="Arial" font-size="14.00">    </text>
<text text-anchor="start" x="427.28" y="-287.6" font-family="Arial" font-size="14.00" fill="#666666">[BASIC TABLE]</text>
<polygon fill="none" stroke="black" points="188.67,-243.4 188.67,-274.2 578.83,-274.2 578.83,-243.4 188.67,-243.4"/>
<text text-anchor="start" x="195.67" y="-255.6" font-family="Arial" font-size="14.00">ID </text>
<text text-anchor="start" x="213.56" y="-255.6" font-family="Arial" font-size="14.00" fill="#666666">[STRING(36)]</text>
<polygon fill="none" stroke="black" points="188.67,-212.6 188.67,-243.4 578.83,-243.4 578.83,-212.6 188.67,-212.6"/>
<text text-anchor="start" x="195.67" y="-224.8" font-family="Arial" font-size="14.00">UserID </text>
<text text-anchor="start" x="243.12" y="-224.8" font-family="Arial" font-size="14.00" fill="#666666">[STRING(MAX)]</text>
<polygon fill="none" stroke="black" points="188.67,-181.8 188.67,-212.6 578.83,-212.6 578.83,-181.8 188.67,-181.8"/>
<text text-anchor="start" x="195.67" y="-194" font-family="Arial" font-size="14.00">Name </text>
<text text-anchor="start" x="236.91" y="-194" font-family="Arial" font-size="14.00" fill="#666666">[STRING(MAX)]</text>
<polygon fill="none" stroke="black" points="188.67,-151 188.67,-181.8 578.83,-181.8 578.83,-151 188.67,-151"/>
<text text-anchor="start" x="195.67" y="-163.2" font-family="Arial" font-size="14.00">Type </text>
<text text-anchor="start" x="230.69" y="-163.2" font-family="Arial" font-size="14.00" fill="#666666">[STRING(MAX)]</text>
<polygon fill="none" stroke="black" points="188.67,-120.2 188.67,-151 578.83,-151 578.83,-120.2 188.67,-120.2"/>
<text text-anchor="start" x="195.67" y="-132.4" font-family="Arial" font-size="14.00">Config </text>
<text text-anchor="start" x="240.03" y="-132.4" font-family="Arial" font-size="14.00" fill="#666666">[JSON]</text>
<polygon fill="none" stroke="black" points="188.67,-89.4 188.67,-120.2 578.83,-120.2 578.83,-89.4 188.67,-89.4"/>
<text text-anchor="start" x="195.67" y="-101.6" font-family="Arial" font-size="14.00">CreatedAt </text>
<text text-anchor="start" x="262.6" y="-101.6" font-family="Arial" font-size="14.00" fill="#666666">[TIMESTAMP (allow_commit_timestamp=TRUE)]</text>
<polygon fill="none" stroke="black" points="188.67,-58.6 188.67,-89.4 578.83,-89.4 578.83,-58.6 188.67,-58.6"/>
<text text-anchor="start" x="195.67" y="-70.8" font-family="Arial" font-size="14.00">UpdatedAt </text>
<text text-anchor="start" x="265.72" y="-70.8" font-family="Arial" font-size="14.00" fill="#666666">[TIMESTAMP (allow_commit_timestamp=TRUE)]</text>
</g>
<!-- SavedSearchSubscriptions&#45;&gt;NotificationChannels -->
<g id="edge1" class="edge">
<title>SavedSearchSubscriptions:ChannelID&#45;&gt;NotificationChannels:ID</title>
<path fill="none" stroke="black" d="M424.32,-619.41C342.03,-609.62 382.47,-479.67 435.67,-404.4 474.7,-349.2 539.64,-408.08 578.83,-353 603.1,-318.88 621.7,-258.8 579.83,-258.8"/>
<polygon fill="black" stroke="black" points="424.36,-619.42 434.09,-624.47 429.68,-619.72 434.01,-619.96 434.01,-619.96 434.01,-619.96 429.68,-619.72 434.59,-615.49 424.36,-619.42"/>
<text text-anchor="start" x="7" y="-630" font-family="Arial" font-size="10.00">FOREIGN KEY (ChannelID) REFERENCES NotificationChannels (ID) ON DELETE CASCADE</text>
</g>
<!-- SavedSearches -->
<g id="node3" class="node">
<title>SavedSearches</title>
<polygon fill="#efefef" stroke="none" points="683.67,-289.6 683.67,-325.2 1073.83,-325.2 1073.83,-289.6 683.67,-289.6"/>
<polygon fill="none" stroke="black" points="683.67,-289.6 683.67,-325.2 1073.83,-325.2 1073.83,-289.6 683.67,-289.6"/>
<text text-anchor="start" x="760.2" y="-303" font-family="Arial Bold" font-size="18.00">SavedSearches</text>
<text text-anchor="start" x="868.15" y="-303" font-family="Arial" font-size="14.00">    </text>
<text text-anchor="start" x="899.27" y="-303" font-family="Arial" font-size="14.00" fill="#666666">[BASIC TABLE]</text>
<polygon fill="none" stroke="black" points="683.67,-258.8 683.67,-289.6 1073.83,-289.6 1073.83,-258.8 683.67,-258.8"/>
<text text-anchor="start" x="690.67" y="-271" font-family="Arial" font-size="14.00">ID </text>
<text text-anchor="start" x="708.56" y="-271" font-family="Arial" font-size="14.00" fill="#666666">[STRING(36)]</text>
<polygon fill="none" stroke="black" points="683.67,-228 683.67,-258.8 1073.83,-258.8 1073.83,-228 683.67,-228"/>
<text text-anchor="start" x="690.67" y="-240.2" font-family="Arial" font-size="14.00">Name </text>
<text text-anchor="start" x="731.91" y="-240.2" font-family="Arial" font-size="14.00" fill="#666666">[STRING(MAX)]</text>
<polygon fill="none" stroke="black" points="683.67,-197.2 683.67,-228 1073.83,-228 1073.83,-197.2 683.67,-197.2"/>
<text text-anchor="start" x="690.67" y="-209.4" font-family="Arial" font-size="14.00">Query </text>
<text text-anchor="start" x="732.69" y="-209.4" font-family="Arial" font-size="14.00" fill="#666666">[STRING(MAX)]</text>
<polygon fill="none" stroke="black" points="683.67,-166.4 683.67,-197.2 1073.83,-197.2 1073.83,-166.4 683.67,-166.4"/>
<text text-anchor="start" x="690.67" y="-178.6" font-family="Arial" font-size="14.00">Scope </text>
<text text-anchor="start" x="734.26" y="-178.6" font-family="Arial" font-size="14.00" fill="#666666">[STRING(MAX)]</text>
<polygon fill="none" stroke="black" points="683.67,-135.6 683.67,-166.4 1073.83,-166.4 1073.83,-135.6 683.67,-135.6"/>
<text text-anchor="start" x="690.67" y="-147.8" font-family="Arial" font-size="14.00">AuthorID </text>
<text text-anchor="start" x="749.81" y="-147.8" font-family="Arial" font-size="14.00" fill="#666666">[STRING(MAX)]</text>
<polygon fill="none" stroke="black" points="683.67,-104.8 683.67,-135.6 1073.83,-135.6 1073.83,-104.8 683.67,-104.8"/>
<text text-anchor="start" x="690.67" y="-117" font-family="Arial" font-size="14.00">CreatedAt </text>
<text text-anchor="start" x="757.6" y="-117" font-family="Arial" font-size="14.00" fill="#666666">[TIMESTAMP (allow_commit_timestamp=TRUE)]</text>
<polygon fill="none" stroke="black" points="683.67,-74 683.67,-104.8 1073.83,-104.8 1073.83,-74 683.67,-74"/>
<text text-anchor="start" x="690.67" y="-86.2" font-family="Arial" font-size="14.00">UpdatedAt </text>
<text text-anchor="start" x="760.72" y="-86.2" font-family="Arial" font-size="14.00" fill="#666666">[TIMESTAMP (allow_commit_timestamp=TRUE)]</text>
<polygon fill="none" stroke="black" points="683.67,-43.2 683.67,-74 1073.83,-74 1073.83,-43.2 683.67,-43.2"/>
<text text-anchor="start" x="690.67" y="-55.4" font-family="Arial" font-size="14.00">Description </text>
<text text-anchor="start" x="764.59" y="-55.4" font-family="Arial" font-size="14.00" fill="#666666">[STRING(MAX)]</text>
</g>
<!-- SavedSearchSubscriptions&#45;&gt;SavedSearches -->
<g id="edge2" class="edge">
<title>SavedSearchSubscriptions:SavedSearchID&#45;&gt;SavedSearches:ID</title>
<path fill="none" stroke="black" d="M837.21,-588.49C906.01,-578.52 874.18,-466.17 825.83,-404.4 785.66,-353.08 723.98,-419.62 683.67,-368.4 657.78,-335.5 640.8,-274.2 682.67,-274.2"/>
<polygon fill="black" stroke="black" points="837.14,-588.49 826.85,-584.69 831.82,-588.86 827.5,-589.15 827.5,-589.15 827.5,-589.15 831.82,-588.86 827.47,-593.67 837.14,-588.49"/>
<text text-anchor="start" x="833.83" y="-599.2" font-family="Arial" font-size="10.00">FOREIGN KEY (SavedSearchID) REFERENCES SavedSearches (ID) ON DELETE CASCADE</text>
</g>
</g>
</svg>
