<?xml version="1.0" encoding="UTF-8" standalone="no"?>
<!DOCTYPE svg PUBLIC "-//W3C//DTD SVG 1.1//EN"
 "http://www.w3.org/Graphics/SVG/1.1/DTD/svg11.dtd">
<!-- Generated by graphviz version 2.40.1 (20161225.0304)
 -->
<!-- Title: projects/webstatus&#45;dev&#45;internal&#45;staging/instances/staging&#45;spanner/databases/test&#45;database3 Pages: 1 -->
<svg width="1353pt" height="826pt"
 viewBox="0.00 0.00 1353.18 826.00" xmlns="http://www.w3.org/2000/svg" xmlns:xlink="http://www.w3.org/1999/xlink">
<g id="graph0" class="graph" transform="scale(1 1) rotate(0) translate(4 822)">
<title>projects/webstatus&#45;dev&#45;internal&#45;staging/instances/staging&#45;spanner/databases/test&#45;database3</title>
<polygon fill="#ffffff" stroke="transparent" points="-4,4 -4,-822 1349.1803,-822 1349.1803,4 -4,4"/>
<!-- BrowserFeatureAvailabilities -->
<g id="node1" class="node">
<title>BrowserFeatureAvailabilities</title>
<polygon fill="#efefef" stroke="transparent" points="53.6803,-664.5 53.6803,-699.5 426.6803,-699.5 426.6803,-664.5 53.6803,-664.5"/>
<polygon fill="none" stroke="#000000" points="53.6803,-664.5 53.6803,-699.5 426.6803,-699.5 426.6803,-664.5 53.6803,-664.5"/>
<text text-anchor="start" x="60.5625" y="-677.3" font-family="Arial Bold" font-size="18.00" fill="#000000">BrowserFeatureAvailabilities</text>
<text text-anchor="start" x="287.5695" y="-677.3" font-family="Arial" font-size="14.00" fill="#000000">    </text>
<text text-anchor="start" x="321.7743" y="-677.3" font-family="Arial" font-size="14.00" fill="#666666">[BASIC TABLE]</text>
<polygon fill="none" stroke="#000000" points="53.6803,-634.5 53.6803,-664.5 426.6803,-664.5 426.6803,-634.5 53.6803,-634.5"/>
<text text-anchor="start" x="60.6803" y="-645.9" font-family="Arial" font-size="14.00" fill="#000000">BrowserName    </text>
<text text-anchor="start" x="183.5471" y="-645.9" font-family="Arial" font-size="14.00" fill="#666666">[STRING(64)]</text>
<polygon fill="none" stroke="#000000" points="53.6803,-604.5 53.6803,-634.5 426.6803,-634.5 426.6803,-604.5 53.6803,-604.5"/>
<text text-anchor="start" x="60.6803" y="-615.9" font-family="Arial" font-size="14.00" fill="#000000">BrowserVersion    </text>
<text text-anchor="start" x="193.6663" y="-615.9" font-family="Arial" font-size="14.00" fill="#666666">[STRING(8)]</text>
<polygon fill="none" stroke="#000000" points="53.6803,-574.5 53.6803,-604.5 426.6803,-604.5 426.6803,-574.5 53.6803,-574.5"/>
<text text-anchor="start" x="60.6803" y="-585.9" font-family="Arial" font-size="14.00" fill="#000000">FeatureID    </text>
<text text-anchor="start" x="157.1165" y="-585.9" font-family="Arial" font-size="14.00" fill="#666666">[STRING(64)]</text>
</g>
<!-- BrowserReleases -->
<g id="node2" class="node">
<title>BrowserReleases</title>
<polygon fill="#efefef" stroke="transparent" points="96.6803,-237.5 96.6803,-272.5 383.6803,-272.5 383.6803,-237.5 96.6803,-237.5"/>
<polygon fill="none" stroke="#000000" points="96.6803,-237.5 96.6803,-272.5 383.6803,-272.5 383.6803,-237.5 96.6803,-237.5"/>
<text text-anchor="start" x="103.5618" y="-250.3" font-family="Arial Bold" font-size="18.00" fill="#000000">BrowserReleases</text>
<text text-anchor="start" x="244.5702" y="-250.3" font-family="Arial" font-size="14.00" fill="#000000">    </text>
<text text-anchor="start" x="278.775" y="-250.3" font-family="Arial" font-size="14.00" fill="#666666">[BASIC TABLE]</text>
<polygon fill="none" stroke="#000000" points="96.6803,-207.5 96.6803,-237.5 383.6803,-237.5 383.6803,-207.5 96.6803,-207.5"/>
<text text-anchor="start" x="103.6803" y="-218.9" font-family="Arial" font-size="14.00" fill="#000000">BrowserName    </text>
<text text-anchor="start" x="226.5471" y="-218.9" font-family="Arial" font-size="14.00" fill="#666666">[STRING(64)]</text>
<polygon fill="none" stroke="#000000" points="96.6803,-177.5 96.6803,-207.5 383.6803,-207.5 383.6803,-177.5 96.6803,-177.5"/>
<text text-anchor="start" x="103.6803" y="-188.9" font-family="Arial" font-size="14.00" fill="#000000">BrowserVersion    </text>
<text text-anchor="start" x="236.6663" y="-188.9" font-family="Arial" font-size="14.00" fill="#666666">[STRING(8)]</text>
<polygon fill="none" stroke="#000000" points="96.6803,-147.5 96.6803,-177.5 383.6803,-177.5 383.6803,-147.5 96.6803,-147.5"/>
<text text-anchor="start" x="103.6803" y="-158.9" font-family="Arial" font-size="14.00" fill="#000000">ReleaseDate    </text>
<text text-anchor="start" x="218.7911" y="-158.9" font-family="Arial" font-size="14.00" fill="#666666">[TIMESTAMP]</text>
</g>
<!-- BrowserFeatureAvailabilities&#45;&gt;BrowserReleases -->
<g id="edge4" class="edge">
<title>BrowserFeatureAvailabilities:BrowserName&#45;&gt;BrowserReleases:BrowserName</title>
<path fill="none" stroke="#000000" stroke-dasharray="5,2" d="M43.6303,-647.7796C-38.425,-618.3966 4.8505,-222.5 96.6803,-222.5"/>
<polygon fill="#000000" stroke="#000000" points="43.8237,-647.8126 52.9209,-653.9355 48.752,-648.6563 53.6803,-649.5 53.6803,-649.5 53.6803,-649.5 48.752,-648.6563 54.4396,-645.0645 43.8237,-647.8126 43.8237,-647.8126"/>
</g>
<!-- WebFeatures -->
<g id="node4" class="node">
<title>WebFeatures</title>
<polygon fill="#efefef" stroke="transparent" points="558.6803,-267.5 558.6803,-302.5 829.6803,-302.5 829.6803,-267.5 558.6803,-267.5"/>
<polygon fill="none" stroke="#000000" points="558.6803,-267.5 558.6803,-302.5 829.6803,-302.5 829.6803,-267.5 558.6803,-267.5"/>
<text text-anchor="start" x="574.057" y="-280.3" font-family="Arial Bold" font-size="18.00" fill="#000000">WebFeatures</text>
<text text-anchor="start" x="682.075" y="-280.3" font-family="Arial" font-size="14.00" fill="#000000">    </text>
<text text-anchor="start" x="716.2798" y="-280.3" font-family="Arial" font-size="14.00" fill="#666666">[BASIC TABLE]</text>
<polygon fill="none" stroke="#000000" points="558.6803,-237.5 558.6803,-267.5 829.6803,-267.5 829.6803,-237.5 558.6803,-237.5"/>
<text text-anchor="start" x="565.6803" y="-248.9" font-family="Arial" font-size="14.00" fill="#000000">ID    </text>
<text text-anchor="start" x="613.8823" y="-248.9" font-family="Arial" font-size="14.00" fill="#666666">[STRING(36)]</text>
<polygon fill="none" stroke="#000000" points="558.6803,-207.5 558.6803,-237.5 829.6803,-237.5 829.6803,-207.5 558.6803,-207.5"/>
<text text-anchor="start" x="565.6803" y="-218.9" font-family="Arial" font-size="14.00" fill="#000000">FeatureID    </text>
<text text-anchor="start" x="662.1165" y="-218.9" font-family="Arial" font-size="14.00" fill="#666666">[STRING(64)]</text>
<polygon fill="none" stroke="#000000" points="558.6803,-177.5 558.6803,-207.5 829.6803,-207.5 829.6803,-177.5 558.6803,-177.5"/>
<text text-anchor="start" x="565.6803" y="-188.9" font-family="Arial" font-size="14.00" fill="#000000">Name    </text>
<text text-anchor="start" x="637.2175" y="-188.9" font-family="Arial" font-size="14.00" fill="#666666">[STRING(64)]</text>
<polygon fill="none" stroke="#000000" points="558.6803,-147.5 558.6803,-177.5 829.6803,-177.5 829.6803,-147.5 558.6803,-147.5"/>
<text text-anchor="start" x="565.4552" y="-158.9" font-family="Arial" font-size="14.00" fill="#000000">FeatureID_Lowercase    </text>
<text text-anchor="start" x="737.3542" y="-158.9" font-family="Arial" font-size="14.00" fill="#666666">[STRING(64)]</text>
<polygon fill="none" stroke="#000000" points="558.6803,-117.5 558.6803,-147.5 829.6803,-147.5 829.6803,-117.5 558.6803,-117.5"/>
<text text-anchor="start" x="565.6803" y="-128.9" font-family="Arial" font-size="14.00" fill="#000000">Name_Lowercase    </text>
<text text-anchor="start" x="712.6803" y="-128.9" font-family="Arial" font-size="14.00" fill="#666666">[STRING(64)]</text>
</g>
<!-- BrowserFeatureAvailabilities&#45;&gt;WebFeatures -->
<g id="edge3" class="edge">
<title>BrowserFeatureAvailabilities:FeatureID&#45;&gt;WebFeatures:FeatureID</title>
<path fill="none" stroke="#000000" stroke-dasharray="5,2" d="M433.6658,-581.8347C463.0923,-529.1323 538.8747,-222.5 558.6803,-222.5"/>
<polygon fill="#000000" stroke="#000000" points="433.416,-582.1088 423.3542,-586.4689 430.0482,-585.8044 426.6803,-589.5 426.6803,-589.5 426.6803,-589.5 430.0482,-585.8044 430.0063,-592.5311 433.416,-582.1088 433.416,-582.1088"/>
</g>
<!-- FeatureBaselineStatus -->
<g id="node3" class="node">
<title>FeatureBaselineStatus</title>
<polygon fill="#efefef" stroke="transparent" points="530.6803,-679.5 530.6803,-714.5 858.6803,-714.5 858.6803,-679.5 530.6803,-679.5"/>
<polygon fill="none" stroke="#000000" points="530.6803,-679.5 530.6803,-714.5 858.6803,-714.5 858.6803,-679.5 530.6803,-679.5"/>
<text text-anchor="start" x="537.5391" y="-692.3" font-family="Arial Bold" font-size="18.00" fill="#000000">FeatureBaselineStatus</text>
<text text-anchor="start" x="719.5929" y="-692.3" font-family="Arial" font-size="14.00" fill="#000000">    </text>
<text text-anchor="start" x="753.7977" y="-692.3" font-family="Arial" font-size="14.00" fill="#666666">[BASIC TABLE]</text>
<polygon fill="none" stroke="#000000" points="530.6803,-649.5 530.6803,-679.5 858.6803,-679.5 858.6803,-649.5 530.6803,-649.5"/>
<text text-anchor="start" x="537.6803" y="-660.9" font-family="Arial" font-size="14.00" fill="#000000">FeatureID    </text>
<text text-anchor="start" x="634.1165" y="-660.9" font-family="Arial" font-size="14.00" fill="#666666">[STRING(64)]</text>
<polygon fill="none" stroke="#000000" points="530.6803,-619.5 530.6803,-649.5 858.6803,-649.5 858.6803,-619.5 530.6803,-619.5"/>
<text text-anchor="start" x="537.6803" y="-630.9" font-family="Arial" font-size="14.00" fill="#000000">Status    </text>
<text text-anchor="start" x="611.5681" y="-630.9" font-family="Arial" font-size="14.00" fill="#666666">[STRING(16)]</text>
<polygon fill="none" stroke="#000000" points="530.6803,-589.5 530.6803,-619.5 858.6803,-619.5 858.6803,-589.5 530.6803,-589.5"/>
<text text-anchor="start" x="537.6803" y="-600.9" font-family="Arial" font-size="14.00" fill="#000000">LowDate    </text>
<text text-anchor="start" x="627.1193" y="-600.9" font-family="Arial" font-size="14.00" fill="#666666">[TIMESTAMP]</text>
<polygon fill="none" stroke="#000000" points="530.6803,-559.5 530.6803,-589.5 858.6803,-589.5 858.6803,-559.5 530.6803,-559.5"/>
<text text-anchor="start" x="537.6803" y="-570.9" font-family="Arial" font-size="14.00" fill="#000000">HighDate    </text>
<text text-anchor="start" x="630.2259" y="-570.9" font-family="Arial" font-size="14.00" fill="#666666">[TIMESTAMP]</text>
</g>
<!-- FeatureBaselineStatus&#45;&gt;WebFeatures -->
<g id="edge5" class="edge">
<title>FeatureBaselineStatus:FeatureID&#45;&gt;WebFeatures:FeatureID</title>
<path fill="none" stroke="#000000" stroke-dasharray="5,2" d="M520.4684,-663.6488C468.8254,-654.3241 499.6495,-570.4937 530.6803,-517 607.4946,-384.5802 752.8659,-478.4198 829.6803,-346 857.2219,-298.5211 884.5692,-222.5 829.6803,-222.5"/>
<polygon fill="#000000" stroke="#000000" points="520.7148,-663.6693 530.3065,-668.9844 525.6976,-664.0846 530.6803,-664.5 530.6803,-664.5 530.6803,-664.5 525.6976,-664.0846 531.0541,-660.0156 520.7148,-663.6693 520.7148,-663.6693"/>
</g>
<!-- WPTRunFeatureMetrics -->
<g id="node5" class="node">
<title>WPTRunFeatureMetrics</title>
<polygon fill="#efefef" stroke="transparent" points="963.6803,-739.5 963.6803,-774.5 1302.6803,-774.5 1302.6803,-739.5 963.6803,-739.5"/>
<polygon fill="none" stroke="#000000" points="963.6803,-739.5 963.6803,-774.5 1302.6803,-774.5 1302.6803,-739.5 963.6803,-739.5"/>
<text text-anchor="start" x="970.5662" y="-752.3" font-family="Arial Bold" font-size="18.00" fill="#000000">WPTRunFeatureMetrics</text>
<text text-anchor="start" x="1163.5658" y="-752.3" font-family="Arial" font-size="14.00" fill="#000000">    </text>
<text text-anchor="start" x="1197.7706" y="-752.3" font-family="Arial" font-size="14.00" fill="#666666">[BASIC TABLE]</text>
<polygon fill="none" stroke="#000000" points="963.6803,-709.5 963.6803,-739.5 1302.6803,-739.5 1302.6803,-709.5 963.6803,-709.5"/>
<text text-anchor="start" x="970.6803" y="-720.9" font-family="Arial" font-size="14.00" fill="#000000">ID    </text>
<text text-anchor="start" x="1018.8823" y="-720.9" font-family="Arial" font-size="14.00" fill="#666666">[STRING(36)]</text>
<polygon fill="none" stroke="#000000" points="963.6803,-679.5 963.6803,-709.5 1302.6803,-709.5 1302.6803,-679.5 963.6803,-679.5"/>
<text text-anchor="start" x="970.6803" y="-690.9" font-family="Arial" font-size="14.00" fill="#000000">FeatureID    </text>
<text text-anchor="start" x="1067.1165" y="-690.9" font-family="Arial" font-size="14.00" fill="#666666">[STRING(64)]</text>
<polygon fill="none" stroke="#000000" points="963.6803,-649.5 963.6803,-679.5 1302.6803,-679.5 1302.6803,-649.5 963.6803,-649.5"/>
<text text-anchor="start" x="970.6803" y="-660.9" font-family="Arial" font-size="14.00" fill="#000000">TotalTests    </text>
<text text-anchor="start" x="1070.2259" y="-660.9" font-family="Arial" font-size="14.00" fill="#666666">[INT64]</text>
<polygon fill="none" stroke="#000000" points="963.6803,-619.5 963.6803,-649.5 1302.6803,-649.5 1302.6803,-619.5 963.6803,-619.5"/>
<text text-anchor="start" x="970.6803" y="-630.9" font-family="Arial" font-size="14.00" fill="#000000">TestPass    </text>
<text text-anchor="start" x="1063.2301" y="-630.9" font-family="Arial" font-size="14.00" fill="#666666">[INT64]</text>
<polygon fill="none" stroke="#000000" points="963.6803,-589.5 963.6803,-619.5 1302.6803,-619.5 1302.6803,-589.5 963.6803,-589.5"/>
<text text-anchor="start" x="970.6803" y="-600.9" font-family="Arial" font-size="14.00" fill="#000000">PassRate    </text>
<text text-anchor="start" x="1065.5667" y="-600.9" font-family="Arial" font-size="14.00" fill="#666666">[NUMERIC]</text>
<polygon fill="none" stroke="#000000" points="963.6803,-559.5 963.6803,-589.5 1302.6803,-589.5 1302.6803,-559.5 963.6803,-559.5"/>
<text text-anchor="start" x="970.6803" y="-570.9" font-family="Arial" font-size="14.00" fill="#000000">Channel    </text>
<text text-anchor="start" x="1057.0113" y="-570.9" font-family="Arial" font-size="14.00" fill="#666666">[STRING(32)]</text>
<polygon fill="none" stroke="#000000" points="963.6803,-529.5 963.6803,-559.5 1302.6803,-559.5 1302.6803,-529.5 963.6803,-529.5"/>
<text text-anchor="start" x="970.6803" y="-540.9" font-family="Arial" font-size="14.00" fill="#000000">BrowserName    </text>
<text text-anchor="start" x="1093.5471" y="-540.9" font-family="Arial" font-size="14.00" fill="#666666">[STRING(64)]</text>
<polygon fill="none" stroke="#000000" points="963.6803,-499.5 963.6803,-529.5 1302.6803,-529.5 1302.6803,-499.5 963.6803,-499.5"/>
<text text-anchor="start" x="970.6803" y="-510.9" font-family="Arial" font-size="14.00" fill="#000000">TimeStart    </text>
<text text-anchor="start" x="1065.5485" y="-510.9" font-family="Arial" font-size="14.00" fill="#666666">[TIMESTAMP]</text>
</g>
<!-- WPTRunFeatureMetrics&#45;&gt;WebFeatures -->
<g id="edge2" class="edge">
<title>WPTRunFeatureMetrics:FeatureID&#45;&gt;WebFeatures:FeatureID</title>
<path fill="none" stroke="#000000" stroke-dasharray="5,2" d="M953.8025,-692.1397C911.5701,-670.4555 924.4414,-505.5733 910.6803,-457 880.6245,-350.9108 939.9448,-222.5 829.6803,-222.5"/>
<polygon fill="#000000" stroke="#000000" points="953.9541,-692.1759 962.6344,-698.8768 958.8172,-693.3379 963.6803,-694.5 963.6803,-694.5 963.6803,-694.5 958.8172,-693.3379 964.7261,-690.1232 953.9541,-692.1759 953.9541,-692.1759"/>
</g>
<!-- WPTRuns -->
<g id="node6" class="node">
<title>WPTRuns</title>
<polygon fill="#efefef" stroke="transparent" points="1012.6803,-342.5 1012.6803,-377.5 1254.6803,-377.5 1254.6803,-342.5 1012.6803,-342.5"/>
<polygon fill="none" stroke="#000000" points="1012.6803,-342.5 1012.6803,-377.5 1254.6803,-377.5 1254.6803,-342.5 1012.6803,-342.5"/>
<text text-anchor="start" x="1026.5674" y="-355.3" font-family="Arial Bold" font-size="18.00" fill="#000000">WPTRuns</text>
<text text-anchor="start" x="1108.5646" y="-355.3" font-family="Arial" font-size="14.00" fill="#000000">    </text>
<text text-anchor="start" x="1142.7694" y="-355.3" font-family="Arial" font-size="14.00" fill="#666666">[BASIC TABLE]</text>
<polygon fill="none" stroke="#000000" points="1012.6803,-312.5 1012.6803,-342.5 1254.6803,-342.5 1254.6803,-312.5 1012.6803,-312.5"/>
<text text-anchor="start" x="1019.6803" y="-323.9" font-family="Arial" font-size="14.00" fill="#000000">ID    </text>
<text text-anchor="start" x="1067.8823" y="-323.9" font-family="Arial" font-size="14.00" fill="#666666">[STRING(36)]</text>
<polygon fill="none" stroke="#000000" points="1012.6803,-282.5 1012.6803,-312.5 1254.6803,-312.5 1254.6803,-282.5 1012.6803,-282.5"/>
<text text-anchor="start" x="1019.6803" y="-293.9" font-family="Arial" font-size="14.00" fill="#000000">ExternalRunID    </text>
<text text-anchor="start" x="1144.8963" y="-293.9" font-family="Arial" font-size="14.00" fill="#666666">[INT64]</text>
<polygon fill="none" stroke="#000000" points="1012.6803,-252.5 1012.6803,-282.5 1254.6803,-282.5 1254.6803,-252.5 1012.6803,-252.5"/>
<text text-anchor="start" x="1019.6803" y="-263.9" font-family="Arial" font-size="14.00" fill="#000000">TimeStart    </text>
<text text-anchor="start" x="1114.5485" y="-263.9" font-family="Arial" font-size="14.00" fill="#666666">[TIMESTAMP]</text>
<polygon fill="none" stroke="#000000" points="1012.6803,-222.5 1012.6803,-252.5 1254.6803,-252.5 1254.6803,-222.5 1012.6803,-222.5"/>
<text text-anchor="start" x="1019.6803" y="-233.9" font-family="Arial" font-size="14.00" fill="#000000">TimeEnd    </text>
<text text-anchor="start" x="1109.8893" y="-233.9" font-family="Arial" font-size="14.00" fill="#666666">[TIMESTAMP]</text>
<polygon fill="none" stroke="#000000" points="1012.6803,-192.5 1012.6803,-222.5 1254.6803,-222.5 1254.6803,-192.5 1012.6803,-192.5"/>
<text text-anchor="start" x="1019.6803" y="-203.9" font-family="Arial" font-size="14.00" fill="#000000">BrowserName    </text>
<text text-anchor="start" x="1142.5471" y="-203.9" font-family="Arial" font-size="14.00" fill="#666666">[STRING(64)]</text>
<polygon fill="none" stroke="#000000" points="1012.6803,-162.5 1012.6803,-192.5 1254.6803,-192.5 1254.6803,-162.5 1012.6803,-162.5"/>
<text text-anchor="start" x="1019.6803" y="-173.9" font-family="Arial" font-size="14.00" fill="#000000">BrowserVersion    </text>
<text text-anchor="start" x="1152.6663" y="-173.9" font-family="Arial" font-size="14.00" fill="#666666">[STRING(32)]</text>
<polygon fill="none" stroke="#000000" points="1012.6803,-132.5 1012.6803,-162.5 1254.6803,-162.5 1254.6803,-132.5 1012.6803,-132.5"/>
<text text-anchor="start" x="1019.6803" y="-143.9" font-family="Arial" font-size="14.00" fill="#000000">Channel    </text>
<text text-anchor="start" x="1106.0113" y="-143.9" font-family="Arial" font-size="14.00" fill="#666666">[STRING(32)]</text>
<polygon fill="none" stroke="#000000" points="1012.6803,-102.5 1012.6803,-132.5 1254.6803,-132.5 1254.6803,-102.5 1012.6803,-102.5"/>
<text text-anchor="start" x="1019.6803" y="-113.9" font-family="Arial" font-size="14.00" fill="#000000">OSName    </text>
<text text-anchor="start" x="1111.4447" y="-113.9" font-family="Arial" font-size="14.00" fill="#666666">[STRING(64)]</text>
<polygon fill="none" stroke="#000000" points="1012.6803,-72.5 1012.6803,-102.5 1254.6803,-102.5 1254.6803,-72.5 1012.6803,-72.5"/>
<text text-anchor="start" x="1019.6803" y="-83.9" font-family="Arial" font-size="14.00" fill="#000000">OSVersion    </text>
<text text-anchor="start" x="1121.5639" y="-83.9" font-family="Arial" font-size="14.00" fill="#666666">[STRING(32)]</text>
<polygon fill="none" stroke="#000000" points="1012.6803,-42.5 1012.6803,-72.5 1254.6803,-72.5 1254.6803,-42.5 1012.6803,-42.5"/>
<text text-anchor="start" x="1019.3584" y="-53.9" font-family="Arial" font-size="14.00" fill="#000000">FullRevisionHash    </text>
<text text-anchor="start" x="1162.451" y="-53.9" font-family="Arial" font-size="14.00" fill="#666666">[STRING(40)]</text>
</g>
<!-- WPTRunFeatureMetrics&#45;&gt;WPTRuns -->
<g id="edge1" class="edge">
<title>WPTRunFeatureMetrics:ID&#45;&gt;WPTRuns:ID</title>
<path fill="none" stroke="#000000" d="M1312.6165,-722.1371C1359.6219,-698.1559 1339.6566,-498.8503 1302.6803,-457 1216.6852,-359.6696 1098.6753,-518.3304 1012.6803,-421 985.1655,-389.8584 971.1247,-327.5 1012.6803,-327.5"/>
<polygon fill="#000000" stroke="#000000" points="1312.409,-722.1864 1301.6392,-720.1221 1307.5446,-723.3432 1302.6803,-724.5 1302.6803,-724.5 1302.6803,-724.5 1307.5446,-723.3432 1303.7214,-728.8779 1312.409,-722.1864 1312.409,-722.1864"/>
</g>
</g>
</svg>
