<?xml version="1.0" encoding="UTF-8" standalone="no"?>
<!DOCTYPE svg PUBLIC "-//W3C//DTD SVG 1.1//EN"
 "http://www.w3.org/Graphics/SVG/1.1/DTD/svg11.dtd">
<!-- Generated by graphviz version 2.40.1 (20161225.0304)
 -->
<!-- Title: projects/local/instances/local/databases/local Pages: 1 -->
<svg width="1343pt" height="736pt"
 viewBox="0.00 0.00 1343.00 736.00" xmlns="http://www.w3.org/2000/svg" xmlns:xlink="http://www.w3.org/1999/xlink">
<g id="graph0" class="graph" transform="scale(1 1) rotate(0) translate(4 732)">
<title>projects/local/instances/local/databases/local</title>
<polygon fill="#ffffff" stroke="transparent" points="-4,4 -4,-732 1339,-732 1339,4 -4,4"/>
<!-- WPTRunFeatureMetrics -->
<g id="node1" class="node">
<title>WPTRunFeatureMetrics</title>
<polygon fill="#efefef" stroke="transparent" points="43.5,-649.5 43.5,-684.5 382.5,-684.5 382.5,-649.5 43.5,-649.5"/>
<polygon fill="none" stroke="#000000" points="43.5,-649.5 43.5,-684.5 382.5,-684.5 382.5,-649.5 43.5,-649.5"/>
<text text-anchor="start" x="50.3859" y="-662.3" font-family="Arial Bold" font-size="18.00" fill="#000000">WPTRunFeatureMetrics</text>
<text text-anchor="start" x="243.3855" y="-662.3" font-family="Arial" font-size="14.00" fill="#000000">    </text>
<text text-anchor="start" x="277.5903" y="-662.3" font-family="Arial" font-size="14.00" fill="#666666">[BASIC TABLE]</text>
<polygon fill="none" stroke="#000000" points="43.5,-619.5 43.5,-649.5 382.5,-649.5 382.5,-619.5 43.5,-619.5"/>
<text text-anchor="start" x="50.5" y="-630.9" font-family="Arial" font-size="14.00" fill="#000000">ID    </text>
<text text-anchor="start" x="98.702" y="-630.9" font-family="Arial" font-size="14.00" fill="#666666">[STRING(36)]</text>
<polygon fill="none" stroke="#000000" points="43.5,-589.5 43.5,-619.5 382.5,-619.5 382.5,-589.5 43.5,-589.5"/>
<text text-anchor="start" x="50.5" y="-600.9" font-family="Arial" font-size="14.00" fill="#000000">ExternalRunID    </text>
<text text-anchor="start" x="175.716" y="-600.9" font-family="Arial" font-size="14.00" fill="#666666">[INT64]</text>
<polygon fill="none" stroke="#000000" points="43.5,-559.5 43.5,-589.5 382.5,-589.5 382.5,-559.5 43.5,-559.5"/>
<text text-anchor="start" x="50.5" y="-570.9" font-family="Arial" font-size="14.00" fill="#000000">FeatureID    </text>
<text text-anchor="start" x="146.9362" y="-570.9" font-family="Arial" font-size="14.00" fill="#666666">[STRING(64)]</text>
<polygon fill="none" stroke="#000000" points="43.5,-529.5 43.5,-559.5 382.5,-559.5 382.5,-529.5 43.5,-529.5"/>
<text text-anchor="start" x="50.5" y="-540.9" font-family="Arial" font-size="14.00" fill="#000000">TotalTests    </text>
<text text-anchor="start" x="150.0456" y="-540.9" font-family="Arial" font-size="14.00" fill="#666666">[INT64]</text>
<polygon fill="none" stroke="#000000" points="43.5,-499.5 43.5,-529.5 382.5,-529.5 382.5,-499.5 43.5,-499.5"/>
<text text-anchor="start" x="50.5" y="-510.9" font-family="Arial" font-size="14.00" fill="#000000">TestPass    </text>
<text text-anchor="start" x="143.0498" y="-510.9" font-family="Arial" font-size="14.00" fill="#666666">[INT64]</text>
</g>
<!-- WebFeatures -->
<g id="node3" class="node">
<title>WebFeatures</title>
<polygon fill="#efefef" stroke="transparent" points="523.5,-237.5 523.5,-272.5 777.5,-272.5 777.5,-237.5 523.5,-237.5"/>
<polygon fill="none" stroke="#000000" points="523.5,-237.5 523.5,-272.5 777.5,-272.5 777.5,-237.5 523.5,-237.5"/>
<text text-anchor="start" x="530.3767" y="-250.3" font-family="Arial Bold" font-size="18.00" fill="#000000">WebFeatures</text>
<text text-anchor="start" x="638.3947" y="-250.3" font-family="Arial" font-size="14.00" fill="#000000">    </text>
<text text-anchor="start" x="672.5995" y="-250.3" font-family="Arial" font-size="14.00" fill="#666666">[BASIC TABLE]</text>
<polygon fill="none" stroke="#000000" points="523.5,-207.5 523.5,-237.5 777.5,-237.5 777.5,-207.5 523.5,-207.5"/>
<text text-anchor="start" x="530.5" y="-218.9" font-family="Arial" font-size="14.00" fill="#000000">ID    </text>
<text text-anchor="start" x="578.702" y="-218.9" font-family="Arial" font-size="14.00" fill="#666666">[STRING(36)]</text>
<polygon fill="none" stroke="#000000" points="523.5,-177.5 523.5,-207.5 777.5,-207.5 777.5,-177.5 523.5,-177.5"/>
<text text-anchor="start" x="530.5" y="-188.9" font-family="Arial" font-size="14.00" fill="#000000">FeatureID    </text>
<text text-anchor="start" x="626.9362" y="-188.9" font-family="Arial" font-size="14.00" fill="#666666">[STRING(64)]</text>
<polygon fill="none" stroke="#000000" points="523.5,-147.5 523.5,-177.5 777.5,-177.5 777.5,-147.5 523.5,-147.5"/>
<text text-anchor="start" x="530.5" y="-158.9" font-family="Arial" font-size="14.00" fill="#000000">Name    </text>
<text text-anchor="start" x="602.0372" y="-158.9" font-family="Arial" font-size="14.00" fill="#666666">[STRING(64)]</text>
</g>
<!-- WPTRunFeatureMetrics&#45;&gt;WebFeatures -->
<g id="edge2" class="edge">
<title>WPTRunFeatureMetrics:FeatureID&#45;&gt;WebFeatures:FeatureID</title>
<path fill="none" stroke="#000000" stroke-dasharray="5,2" d="M391.58,-569.6701C434.429,-525.4502 481.2609,-192.5 523.5,-192.5"/>
<polygon fill="#000000" stroke="#000000" points="391.3287,-569.8037 380.3867,-570.5271 386.9143,-572.1519 382.5,-574.5 382.5,-574.5 382.5,-574.5 386.9143,-572.1519 384.6133,-578.4729 391.3287,-569.8037 391.3287,-569.8037"/>
</g>
<!-- WPTRuns -->
<g id="node5" class="node">
<title>WPTRuns</title>
<polygon fill="#efefef" stroke="transparent" points="92.5,-342.5 92.5,-377.5 334.5,-377.5 334.5,-342.5 92.5,-342.5"/>
<polygon fill="none" stroke="#000000" points="92.5,-342.5 92.5,-377.5 334.5,-377.5 334.5,-342.5 92.5,-342.5"/>
<text text-anchor="start" x="106.3871" y="-355.3" font-family="Arial Bold" font-size="18.00" fill="#000000">WPTRuns</text>
<text text-anchor="start" x="188.3843" y="-355.3" font-family="Arial" font-size="14.00" fill="#000000">    </text>
<text text-anchor="start" x="222.5891" y="-355.3" font-family="Arial" font-size="14.00" fill="#666666">[BASIC TABLE]</text>
<polygon fill="none" stroke="#000000" points="92.5,-312.5 92.5,-342.5 334.5,-342.5 334.5,-312.5 92.5,-312.5"/>
<text text-anchor="start" x="99.5" y="-323.9" font-family="Arial" font-size="14.00" fill="#000000">ID    </text>
<text text-anchor="start" x="147.702" y="-323.9" font-family="Arial" font-size="14.00" fill="#666666">[STRING(36)]</text>
<polygon fill="none" stroke="#000000" points="92.5,-282.5 92.5,-312.5 334.5,-312.5 334.5,-282.5 92.5,-282.5"/>
<text text-anchor="start" x="99.5" y="-293.9" font-family="Arial" font-size="14.00" fill="#000000">ExternalRunID    </text>
<text text-anchor="start" x="224.716" y="-293.9" font-family="Arial" font-size="14.00" fill="#666666">[INT64]</text>
<polygon fill="none" stroke="#000000" points="92.5,-252.5 92.5,-282.5 334.5,-282.5 334.5,-252.5 92.5,-252.5"/>
<text text-anchor="start" x="99.5" y="-263.9" font-family="Arial" font-size="14.00" fill="#000000">TimeStart    </text>
<text text-anchor="start" x="194.3682" y="-263.9" font-family="Arial" font-size="14.00" fill="#666666">[TIMESTAMP]</text>
<polygon fill="none" stroke="#000000" points="92.5,-222.5 92.5,-252.5 334.5,-252.5 334.5,-222.5 92.5,-222.5"/>
<text text-anchor="start" x="99.5" y="-233.9" font-family="Arial" font-size="14.00" fill="#000000">TimeEnd    </text>
<text text-anchor="start" x="189.709" y="-233.9" font-family="Arial" font-size="14.00" fill="#666666">[TIMESTAMP]</text>
<polygon fill="none" stroke="#000000" points="92.5,-192.5 92.5,-222.5 334.5,-222.5 334.5,-192.5 92.5,-192.5"/>
<text text-anchor="start" x="99.5" y="-203.9" font-family="Arial" font-size="14.00" fill="#000000">BrowserName    </text>
<text text-anchor="start" x="222.3668" y="-203.9" font-family="Arial" font-size="14.00" fill="#666666">[STRING(64)]</text>
<polygon fill="none" stroke="#000000" points="92.5,-162.5 92.5,-192.5 334.5,-192.5 334.5,-162.5 92.5,-162.5"/>
<text text-anchor="start" x="99.5" y="-173.9" font-family="Arial" font-size="14.00" fill="#000000">BrowserVersion    </text>
<text text-anchor="start" x="232.486" y="-173.9" font-family="Arial" font-size="14.00" fill="#666666">[STRING(32)]</text>
<polygon fill="none" stroke="#000000" points="92.5,-132.5 92.5,-162.5 334.5,-162.5 334.5,-132.5 92.5,-132.5"/>
<text text-anchor="start" x="99.5" y="-143.9" font-family="Arial" font-size="14.00" fill="#000000">Channel    </text>
<text text-anchor="start" x="185.831" y="-143.9" font-family="Arial" font-size="14.00" fill="#666666">[STRING(32)]</text>
<polygon fill="none" stroke="#000000" points="92.5,-102.5 92.5,-132.5 334.5,-132.5 334.5,-102.5 92.5,-102.5"/>
<text text-anchor="start" x="99.5" y="-113.9" font-family="Arial" font-size="14.00" fill="#000000">OSName    </text>
<text text-anchor="start" x="191.2644" y="-113.9" font-family="Arial" font-size="14.00" fill="#666666">[STRING(64)]</text>
<polygon fill="none" stroke="#000000" points="92.5,-72.5 92.5,-102.5 334.5,-102.5 334.5,-72.5 92.5,-72.5"/>
<text text-anchor="start" x="99.5" y="-83.9" font-family="Arial" font-size="14.00" fill="#000000">OSVersion    </text>
<text text-anchor="start" x="201.3836" y="-83.9" font-family="Arial" font-size="14.00" fill="#666666">[STRING(32)]</text>
<polygon fill="none" stroke="#000000" points="92.5,-42.5 92.5,-72.5 334.5,-72.5 334.5,-42.5 92.5,-42.5"/>
<text text-anchor="start" x="99.1781" y="-53.9" font-family="Arial" font-size="14.00" fill="#000000">FullRevisionHash    </text>
<text text-anchor="start" x="242.2707" y="-53.9" font-family="Arial" font-size="14.00" fill="#666666">[STRING(40)]</text>
</g>
<!-- WPTRunFeatureMetrics&#45;&gt;WPTRuns -->
<g id="edge1" class="edge">
<title>WPTRunFeatureMetrics:ID&#45;&gt;WPTRuns:ID</title>
<path fill="none" stroke="#000000" d="M392.4998,-633.7994C458.9425,-623.9838 432.3875,-513.4634 382.5,-457 296.505,-359.6696 178.495,-518.3304 92.5,-421 64.9852,-389.8584 50.9444,-327.5 92.5,-327.5"/>
<polygon fill="#000000" stroke="#000000" points="392.4755,-633.801 382.1855,-630.011 387.4878,-634.1505 382.5,-634.5 382.5,-634.5 382.5,-634.5 387.4878,-634.1505 382.8145,-638.989 392.4755,-633.801 392.4755,-633.801"/>
</g>
<!-- BrowserReleases -->
<g id="node2" class="node">
<title>BrowserReleases</title>
<polygon fill="#efefef" stroke="transparent" points="962.5,-237.5 962.5,-272.5 1249.5,-272.5 1249.5,-237.5 962.5,-237.5"/>
<polygon fill="none" stroke="#000000" points="962.5,-237.5 962.5,-272.5 1249.5,-272.5 1249.5,-237.5 962.5,-237.5"/>
<text text-anchor="start" x="969.3815" y="-250.3" font-family="Arial Bold" font-size="18.00" fill="#000000">BrowserReleases</text>
<text text-anchor="start" x="1110.3899" y="-250.3" font-family="Arial" font-size="14.00" fill="#000000">    </text>
<text text-anchor="start" x="1144.5947" y="-250.3" font-family="Arial" font-size="14.00" fill="#666666">[BASIC TABLE]</text>
<polygon fill="none" stroke="#000000" points="962.5,-207.5 962.5,-237.5 1249.5,-237.5 1249.5,-207.5 962.5,-207.5"/>
<text text-anchor="start" x="969.5" y="-218.9" font-family="Arial" font-size="14.00" fill="#000000">BrowserName    </text>
<text text-anchor="start" x="1092.3668" y="-218.9" font-family="Arial" font-size="14.00" fill="#666666">[STRING(64)]</text>
<polygon fill="none" stroke="#000000" points="962.5,-177.5 962.5,-207.5 1249.5,-207.5 1249.5,-177.5 962.5,-177.5"/>
<text text-anchor="start" x="969.5" y="-188.9" font-family="Arial" font-size="14.00" fill="#000000">BrowserVersion    </text>
<text text-anchor="start" x="1102.486" y="-188.9" font-family="Arial" font-size="14.00" fill="#666666">[STRING(8)]</text>
<polygon fill="none" stroke="#000000" points="962.5,-147.5 962.5,-177.5 1249.5,-177.5 1249.5,-147.5 962.5,-147.5"/>
<text text-anchor="start" x="969.5" y="-158.9" font-family="Arial" font-size="14.00" fill="#000000">ReleaseDate    </text>
<text text-anchor="start" x="1084.6108" y="-158.9" font-family="Arial" font-size="14.00" fill="#666666">[TIMESTAMP]</text>
</g>
<!-- BrowserFeatureAvailabilities -->
<g id="node4" class="node">
<title>BrowserFeatureAvailabilities</title>
<polygon fill="#efefef" stroke="transparent" points="919.5,-619.5 919.5,-654.5 1292.5,-654.5 1292.5,-619.5 919.5,-619.5"/>
<polygon fill="none" stroke="#000000" points="919.5,-619.5 919.5,-654.5 1292.5,-654.5 1292.5,-619.5 919.5,-619.5"/>
<text text-anchor="start" x="926.3822" y="-632.3" font-family="Arial Bold" font-size="18.00" fill="#000000">BrowserFeatureAvailabilities</text>
<text text-anchor="start" x="1153.3892" y="-632.3" font-family="Arial" font-size="14.00" fill="#000000">    </text>
<text text-anchor="start" x="1187.594" y="-632.3" font-family="Arial" font-size="14.00" fill="#666666">[BASIC TABLE]</text>
<polygon fill="none" stroke="#000000" points="919.5,-589.5 919.5,-619.5 1292.5,-619.5 1292.5,-589.5 919.5,-589.5"/>
<text text-anchor="start" x="926.5" y="-600.9" font-family="Arial" font-size="14.00" fill="#000000">BrowserName    </text>
<text text-anchor="start" x="1049.3668" y="-600.9" font-family="Arial" font-size="14.00" fill="#666666">[STRING(64)]</text>
<polygon fill="none" stroke="#000000" points="919.5,-559.5 919.5,-589.5 1292.5,-589.5 1292.5,-559.5 919.5,-559.5"/>
<text text-anchor="start" x="926.5" y="-570.9" font-family="Arial" font-size="14.00" fill="#000000">BrowserVersion    </text>
<text text-anchor="start" x="1059.486" y="-570.9" font-family="Arial" font-size="14.00" fill="#666666">[STRING(8)]</text>
<polygon fill="none" stroke="#000000" points="919.5,-529.5 919.5,-559.5 1292.5,-559.5 1292.5,-529.5 919.5,-529.5"/>
<text text-anchor="start" x="926.5" y="-540.9" font-family="Arial" font-size="14.00" fill="#000000">FeatureID    </text>
<text text-anchor="start" x="1022.9362" y="-540.9" font-family="Arial" font-size="14.00" fill="#666666">[STRING(64)]</text>
</g>
<!-- BrowserFeatureAvailabilities&#45;&gt;BrowserReleases -->
<g id="edge4" class="edge">
<title>BrowserFeatureAvailabilities:BrowserName&#45;&gt;BrowserReleases:BrowserName</title>
<path fill="none" stroke="#000000" stroke-dasharray="5,2" d="M909.6309,-602.6248C837.6737,-573.8067 880.5788,-222.5 962.5,-222.5"/>
<polygon fill="#000000" stroke="#000000" points="909.6758,-602.6333 918.66,-608.9209 914.5879,-603.5666 919.5,-604.5 919.5,-604.5 919.5,-604.5 914.5879,-603.5666 920.34,-600.0791 909.6758,-602.6333 909.6758,-602.6333"/>
</g>
<!-- BrowserFeatureAvailabilities&#45;&gt;WebFeatures -->
<g id="edge3" class="edge">
<title>BrowserFeatureAvailabilities:FeatureID&#45;&gt;WebFeatures:FeatureID</title>
<path fill="none" stroke="#000000" stroke-dasharray="5,2" d="M910.644,-539.7902C869.5165,-498.0199 816.7907,-192.5 777.5,-192.5"/>
<polygon fill="#000000" stroke="#000000" points="910.6709,-539.8045 917.387,-548.4731 915.0855,-542.1522 919.5,-544.5 919.5,-544.5 919.5,-544.5 915.0855,-542.1522 921.613,-540.5269 910.6709,-539.8045 910.6709,-539.8045"/>
</g>
<!-- FeatureBaselineStatus -->
<g id="node6" class="node">
<title>FeatureBaselineStatus</title>
<polygon fill="#efefef" stroke="transparent" points="486.5,-634.5 486.5,-669.5 814.5,-669.5 814.5,-634.5 486.5,-634.5"/>
<polygon fill="none" stroke="#000000" points="486.5,-634.5 486.5,-669.5 814.5,-669.5 814.5,-634.5 486.5,-634.5"/>
<text text-anchor="start" x="493.3588" y="-647.3" font-family="Arial Bold" font-size="18.00" fill="#000000">FeatureBaselineStatus</text>
<text text-anchor="start" x="675.4126" y="-647.3" font-family="Arial" font-size="14.00" fill="#000000">    </text>
<text text-anchor="start" x="709.6174" y="-647.3" font-family="Arial" font-size="14.00" fill="#666666">[BASIC TABLE]</text>
<polygon fill="none" stroke="#000000" points="486.5,-604.5 486.5,-634.5 814.5,-634.5 814.5,-604.5 486.5,-604.5"/>
<text text-anchor="start" x="493.5" y="-615.9" font-family="Arial" font-size="14.00" fill="#000000">FeatureID    </text>
<text text-anchor="start" x="589.9362" y="-615.9" font-family="Arial" font-size="14.00" fill="#666666">[STRING(64)]</text>
<polygon fill="none" stroke="#000000" points="486.5,-574.5 486.5,-604.5 814.5,-604.5 814.5,-574.5 486.5,-574.5"/>
<text text-anchor="start" x="493.5" y="-585.9" font-family="Arial" font-size="14.00" fill="#000000">Status    </text>
<text text-anchor="start" x="567.3878" y="-585.9" font-family="Arial" font-size="14.00" fill="#666666">[STRING(16)]</text>
<polygon fill="none" stroke="#000000" points="486.5,-544.5 486.5,-574.5 814.5,-574.5 814.5,-544.5 486.5,-544.5"/>
<text text-anchor="start" x="493.5" y="-555.9" font-family="Arial" font-size="14.00" fill="#000000">LowDate    </text>
<text text-anchor="start" x="582.939" y="-555.9" font-family="Arial" font-size="14.00" fill="#666666">[TIMESTAMP]</text>
<polygon fill="none" stroke="#000000" points="486.5,-514.5 486.5,-544.5 814.5,-544.5 814.5,-514.5 486.5,-514.5"/>
<text text-anchor="start" x="493.5" y="-525.9" font-family="Arial" font-size="14.00" fill="#000000">HighDate    </text>
<text text-anchor="start" x="586.0456" y="-525.9" font-family="Arial" font-size="14.00" fill="#666666">[TIMESTAMP]</text>
</g>
<!-- FeatureBaselineStatus&#45;&gt;WebFeatures -->
<g id="edge5" class="edge">
<title>FeatureBaselineStatus:FeatureID&#45;&gt;WebFeatures:FeatureID</title>
<path fill="none" stroke="#000000" stroke-dasharray="5,2" d="M823.1036,-613.7867C857.014,-563.1165 821.8668,-192.5 777.5,-192.5"/>
<polygon fill="#000000" stroke="#000000" points="822.8305,-613.968 812.0106,-615.7513 818.6653,-616.734 814.5,-619.5 814.5,-619.5 814.5,-619.5 818.6653,-616.734 816.9894,-623.2487 822.8305,-613.968 822.8305,-613.968"/>
</g>
</g>
</svg>
