<?xml version="1.0" encoding="UTF-8" standalone="no"?>
<!DOCTYPE svg PUBLIC "-//W3C//DTD SVG 1.1//EN"
 "http://www.w3.org/Graphics/SVG/1.1/DTD/svg11.dtd">
<!-- Generated by graphviz version 2.40.1 (20161225.0304)
 -->
<!-- Title: projects/local/instances/local/databases/local Pages: 1 -->
<svg width="1343pt" height="826pt"
 viewBox="0.00 0.00 1343.00 826.00" xmlns="http://www.w3.org/2000/svg" xmlns:xlink="http://www.w3.org/1999/xlink">
<g id="graph0" class="graph" transform="scale(1 1) rotate(0) translate(4 822)">
<title>projects/local/instances/local/databases/local</title>
<polygon fill="#ffffff" stroke="transparent" points="-4,4 -4,-822 1339,-822 1339,4 -4,4"/>
<!-- WPTRunFeatureMetrics -->
<g id="node1" class="node">
<title>WPTRunFeatureMetrics</title>
<polygon fill="#efefef" stroke="transparent" points="43.5,-739.5 43.5,-774.5 382.5,-774.5 382.5,-739.5 43.5,-739.5"/>
<polygon fill="none" stroke="#000000" points="43.5,-739.5 43.5,-774.5 382.5,-774.5 382.5,-739.5 43.5,-739.5"/>
<text text-anchor="start" x="50.3859" y="-752.3" font-family="Arial Bold" font-size="18.00" fill="#000000">WPTRunFeatureMetrics</text>
<text text-anchor="start" x="243.3855" y="-752.3" font-family="Arial" font-size="14.00" fill="#000000">    </text>
<text text-anchor="start" x="277.5903" y="-752.3" font-family="Arial" font-size="14.00" fill="#666666">[BASIC TABLE]</text>
<polygon fill="none" stroke="#000000" points="43.5,-709.5 43.5,-739.5 382.5,-739.5 382.5,-709.5 43.5,-709.5"/>
<text text-anchor="start" x="50.5" y="-720.9" font-family="Arial" font-size="14.00" fill="#000000">ID    </text>
<text text-anchor="start" x="98.702" y="-720.9" font-family="Arial" font-size="14.00" fill="#666666">[STRING(36)]</text>
<polygon fill="none" stroke="#000000" points="43.5,-679.5 43.5,-709.5 382.5,-709.5 382.5,-679.5 43.5,-679.5"/>
<text text-anchor="start" x="50.5" y="-690.9" font-family="Arial" font-size="14.00" fill="#000000">FeatureID    </text>
<text text-anchor="start" x="146.9362" y="-690.9" font-family="Arial" font-size="14.00" fill="#666666">[STRING(64)]</text>
<polygon fill="none" stroke="#000000" points="43.5,-649.5 43.5,-679.5 382.5,-679.5 382.5,-649.5 43.5,-649.5"/>
<text text-anchor="start" x="50.5" y="-660.9" font-family="Arial" font-size="14.00" fill="#000000">TotalTests    </text>
<text text-anchor="start" x="150.0456" y="-660.9" font-family="Arial" font-size="14.00" fill="#666666">[INT64]</text>
<polygon fill="none" stroke="#000000" points="43.5,-619.5 43.5,-649.5 382.5,-649.5 382.5,-619.5 43.5,-619.5"/>
<text text-anchor="start" x="50.5" y="-630.9" font-family="Arial" font-size="14.00" fill="#000000">TestPass    </text>
<text text-anchor="start" x="143.0498" y="-630.9" font-family="Arial" font-size="14.00" fill="#666666">[INT64]</text>
<polygon fill="none" stroke="#000000" points="43.5,-589.5 43.5,-619.5 382.5,-619.5 382.5,-589.5 43.5,-589.5"/>
<text text-anchor="start" x="50.5" y="-600.9" font-family="Arial" font-size="14.00" fill="#000000">PassRate    </text>
<text text-anchor="start" x="145.3864" y="-600.9" font-family="Arial" font-size="14.00" fill="#666666">[NUMERIC]</text>
<polygon fill="none" stroke="#000000" points="43.5,-559.5 43.5,-589.5 382.5,-589.5 382.5,-559.5 43.5,-559.5"/>
<text text-anchor="start" x="50.5" y="-570.9" font-family="Arial" font-size="14.00" fill="#000000">Channel    </text>
<text text-anchor="start" x="136.831" y="-570.9" font-family="Arial" font-size="14.00" fill="#666666">[STRING(32)]</text>
<polygon fill="none" stroke="#000000" points="43.5,-529.5 43.5,-559.5 382.5,-559.5 382.5,-529.5 43.5,-529.5"/>
<text text-anchor="start" x="50.5" y="-540.9" font-family="Arial" font-size="14.00" fill="#000000">BrowserName    </text>
<text text-anchor="start" x="173.3668" y="-540.9" font-family="Arial" font-size="14.00" fill="#666666">[STRING(64)]</text>
<polygon fill="none" stroke="#000000" points="43.5,-499.5 43.5,-529.5 382.5,-529.5 382.5,-499.5 43.5,-499.5"/>
<text text-anchor="start" x="50.5" y="-510.9" font-family="Arial" font-size="14.00" fill="#000000">TimeStart    </text>
<text text-anchor="start" x="145.3682" y="-510.9" font-family="Arial" font-size="14.00" fill="#666666">[TIMESTAMP]</text>
</g>
<!-- WebFeatures -->
<g id="node3" class="node">
<title>WebFeatures</title>
<polygon fill="#efefef" stroke="transparent" points="514.5,-267.5 514.5,-302.5 785.5,-302.5 785.5,-267.5 514.5,-267.5"/>
<polygon fill="none" stroke="#000000" points="514.5,-267.5 514.5,-302.5 785.5,-302.5 785.5,-267.5 514.5,-267.5"/>
<text text-anchor="start" x="529.8767" y="-280.3" font-family="Arial Bold" font-size="18.00" fill="#000000">WebFeatures</text>
<text text-anchor="start" x="637.8947" y="-280.3" font-family="Arial" font-size="14.00" fill="#000000">    </text>
<text text-anchor="start" x="672.0995" y="-280.3" font-family="Arial" font-size="14.00" fill="#666666">[BASIC TABLE]</text>
<polygon fill="none" stroke="#000000" points="514.5,-237.5 514.5,-267.5 785.5,-267.5 785.5,-237.5 514.5,-237.5"/>
<text text-anchor="start" x="521.5" y="-248.9" font-family="Arial" font-size="14.00" fill="#000000">ID    </text>
<text text-anchor="start" x="569.702" y="-248.9" font-family="Arial" font-size="14.00" fill="#666666">[STRING(36)]</text>
<polygon fill="none" stroke="#000000" points="514.5,-207.5 514.5,-237.5 785.5,-237.5 785.5,-207.5 514.5,-207.5"/>
<text text-anchor="start" x="521.5" y="-218.9" font-family="Arial" font-size="14.00" fill="#000000">FeatureID    </text>
<text text-anchor="start" x="617.9362" y="-218.9" font-family="Arial" font-size="14.00" fill="#666666">[STRING(64)]</text>
<polygon fill="none" stroke="#000000" points="514.5,-177.5 514.5,-207.5 785.5,-207.5 785.5,-177.5 514.5,-177.5"/>
<text text-anchor="start" x="521.5" y="-188.9" font-family="Arial" font-size="14.00" fill="#000000">Name    </text>
<text text-anchor="start" x="593.0372" y="-188.9" font-family="Arial" font-size="14.00" fill="#666666">[STRING(64)]</text>
<polygon fill="none" stroke="#000000" points="514.5,-147.5 514.5,-177.5 785.5,-177.5 785.5,-147.5 514.5,-147.5"/>
<text text-anchor="start" x="521.2749" y="-158.9" font-family="Arial" font-size="14.00" fill="#000000">FeatureID_Lowercase    </text>
<text text-anchor="start" x="693.1739" y="-158.9" font-family="Arial" font-size="14.00" fill="#666666">[STRING(64)]</text>
<polygon fill="none" stroke="#000000" points="514.5,-117.5 514.5,-147.5 785.5,-147.5 785.5,-117.5 514.5,-117.5"/>
<text text-anchor="start" x="521.5" y="-128.9" font-family="Arial" font-size="14.00" fill="#000000">Name_Lowercase    </text>
<text text-anchor="start" x="668.5" y="-128.9" font-family="Arial" font-size="14.00" fill="#666666">[STRING(64)]</text>
</g>
<!-- WPTRunFeatureMetrics&#45;&gt;WebFeatures -->
<g id="edge2" class="edge">
<title>WPTRunFeatureMetrics:FeatureID&#45;&gt;WebFeatures:FeatureID</title>
<path fill="none" stroke="#000000" stroke-dasharray="5,2" d="M392.3594,-692.1399C434.4668,-670.4569 420.9411,-505.5837 434.5,-457 464.1015,-350.9329 404.3798,-222.5 514.5,-222.5"/>
<polygon fill="#000000" stroke="#000000" points="392.2252,-692.1719 381.4524,-690.1236 387.3626,-693.336 382.5,-694.5 382.5,-694.5 382.5,-694.5 387.3626,-693.336 383.5476,-698.8764 392.2252,-692.1719 392.2252,-692.1719"/>
</g>
<!-- WPTRuns -->
<g id="node5" class="node">
<title>WPTRuns</title>
<polygon fill="#efefef" stroke="transparent" points="92.5,-342.5 92.5,-377.5 334.5,-377.5 334.5,-342.5 92.5,-342.5"/>
<polygon fill="none" stroke="#000000" points="92.5,-342.5 92.5,-377.5 334.5,-377.5 334.5,-342.5 92.5,-342.5"/>
<text text-anchor="start" x="106.3871" y="-355.3" font-family="Arial Bold" font-size="18.00" fill="#000000">WPTRuns</text>
<text text-anchor="start" x="188.3843" y="-355.3" font-family="Arial" font-size="14.00" fill="#000000">    </text>
<text text-anchor="start" x="222.5891" y="-355.3" font-family="Arial" font-size="14.00" fill="#666666">[BASIC TABLE]</text>
<polygon fill="none" stroke="#000000" points="92.5,-312.5 92.5,-342.5 334.5,-342.5 334.5,-312.5 92.5,-312.5"/>
<text text-anchor="start" x="99.5" y="-323.9" font-family="Arial" font-size="14.00" fill="#000000">ID    </text>
<text text-anchor="start" x="147.702" y="-323.9" font-family="Arial" font-size="14.00" fill="#666666">[STRING(36)]</text>
<polygon fill="none" stroke="#000000" points="92.5,-282.5 92.5,-312.5 334.5,-312.5 334.5,-282.5 92.5,-282.5"/>
<text text-anchor="start" x="99.5" y="-293.9" font-family="Arial" font-size="14.00" fill="#000000">ExternalRunID    </text>
<text text-anchor="start" x="224.716" y="-293.9" font-family="Arial" font-size="14.00" fill="#666666">[INT64]</text>
<polygon fill="none" stroke="#000000" points="92.5,-252.5 92.5,-282.5 334.5,-282.5 334.5,-252.5 92.5,-252.5"/>
<text text-anchor="start" x="99.5" y="-263.9" font-family="Arial" font-size="14.00" fill="#000000">TimeStart    </text>
<text text-anchor="start" x="194.3682" y="-263.9" font-family="Arial" font-size="14.00" fill="#666666">[TIMESTAMP]</text>
<polygon fill="none" stroke="#000000" points="92.5,-222.5 92.5,-252.5 334.5,-252.5 334.5,-222.5 92.5,-222.5"/>
<text text-anchor="start" x="99.5" y="-233.9" font-family="Arial" font-size="14.00" fill="#000000">TimeEnd    </text>
<text text-anchor="start" x="189.709" y="-233.9" font-family="Arial" font-size="14.00" fill="#666666">[TIMESTAMP]</text>
<polygon fill="none" stroke="#000000" points="92.5,-192.5 92.5,-222.5 334.5,-222.5 334.5,-192.5 92.5,-192.5"/>
<text text-anchor="start" x="99.5" y="-203.9" font-family="Arial" font-size="14.00" fill="#000000">BrowserName    </text>
<text text-anchor="start" x="222.3668" y="-203.9" font-family="Arial" font-size="14.00" fill="#666666">[STRING(64)]</text>
<polygon fill="none" stroke="#000000" points="92.5,-162.5 92.5,-192.5 334.5,-192.5 334.5,-162.5 92.5,-162.5"/>
<text text-anchor="start" x="99.5" y="-173.9" font-family="Arial" font-size="14.00" fill="#000000">BrowserVersion    </text>
<text text-anchor="start" x="232.486" y="-173.9" font-family="Arial" font-size="14.00" fill="#666666">[STRING(32)]</text>
<polygon fill="none" stroke="#000000" points="92.5,-132.5 92.5,-162.5 334.5,-162.5 334.5,-132.5 92.5,-132.5"/>
<text text-anchor="start" x="99.5" y="-143.9" font-family="Arial" font-size="14.00" fill="#000000">Channel    </text>
<text text-anchor="start" x="185.831" y="-143.9" font-family="Arial" font-size="14.00" fill="#666666">[STRING(32)]</text>
<polygon fill="none" stroke="#000000" points="92.5,-102.5 92.5,-132.5 334.5,-132.5 334.5,-102.5 92.5,-102.5"/>
<text text-anchor="start" x="99.5" y="-113.9" font-family="Arial" font-size="14.00" fill="#000000">OSName    </text>
<text text-anchor="start" x="191.2644" y="-113.9" font-family="Arial" font-size="14.00" fill="#666666">[STRING(64)]</text>
<polygon fill="none" stroke="#000000" points="92.5,-72.5 92.5,-102.5 334.5,-102.5 334.5,-72.5 92.5,-72.5"/>
<text text-anchor="start" x="99.5" y="-83.9" font-family="Arial" font-size="14.00" fill="#000000">OSVersion    </text>
<text text-anchor="start" x="201.3836" y="-83.9" font-family="Arial" font-size="14.00" fill="#666666">[STRING(32)]</text>
<polygon fill="none" stroke="#000000" points="92.5,-42.5 92.5,-72.5 334.5,-72.5 334.5,-42.5 92.5,-42.5"/>
<text text-anchor="start" x="99.1781" y="-53.9" font-family="Arial" font-size="14.00" fill="#000000">FullRevisionHash    </text>
<text text-anchor="start" x="242.2707" y="-53.9" font-family="Arial" font-size="14.00" fill="#666666">[STRING(40)]</text>
</g>
<!-- WPTRunFeatureMetrics&#45;&gt;WPTRuns -->
<g id="edge1" class="edge">
<title>WPTRunFeatureMetrics:ID&#45;&gt;WPTRuns:ID</title>
<path fill="none" stroke="#000000" d="M392.4363,-722.1371C439.4416,-698.1559 419.4763,-498.8503 382.5,-457 296.505,-359.6696 178.495,-518.3304 92.5,-421 64.9852,-389.8584 50.9444,-327.5 92.5,-327.5"/>
<polygon fill="#000000" stroke="#000000" points="392.2287,-722.1864 381.4589,-720.1221 387.3643,-723.3432 382.5,-724.5 382.5,-724.5 382.5,-724.5 387.3643,-723.3432 383.5411,-728.8779 392.2287,-722.1864 392.2287,-722.1864"/>
</g>
<!-- BrowserReleases -->
<g id="node2" class="node">
<title>BrowserReleases</title>
<polygon fill="#efefef" stroke="transparent" points="962.5,-237.5 962.5,-272.5 1249.5,-272.5 1249.5,-237.5 962.5,-237.5"/>
<polygon fill="none" stroke="#000000" points="962.5,-237.5 962.5,-272.5 1249.5,-272.5 1249.5,-237.5 962.5,-237.5"/>
<text text-anchor="start" x="969.3815" y="-250.3" font-family="Arial Bold" font-size="18.00" fill="#000000">BrowserReleases</text>
<text text-anchor="start" x="1110.3899" y="-250.3" font-family="Arial" font-size="14.00" fill="#000000">    </text>
<text text-anchor="start" x="1144.5947" y="-250.3" font-family="Arial" font-size="14.00" fill="#666666">[BASIC TABLE]</text>
<polygon fill="none" stroke="#000000" points="962.5,-207.5 962.5,-237.5 1249.5,-237.5 1249.5,-207.5 962.5,-207.5"/>
<text text-anchor="start" x="969.5" y="-218.9" font-family="Arial" font-size="14.00" fill="#000000">BrowserName    </text>
<text text-anchor="start" x="1092.3668" y="-218.9" font-family="Arial" font-size="14.00" fill="#666666">[STRING(64)]</text>
<polygon fill="none" stroke="#000000" points="962.5,-177.5 962.5,-207.5 1249.5,-207.5 1249.5,-177.5 962.5,-177.5"/>
<text text-anchor="start" x="969.5" y="-188.9" font-family="Arial" font-size="14.00" fill="#000000">BrowserVersion    </text>
<text text-anchor="start" x="1102.486" y="-188.9" font-family="Arial" font-size="14.00" fill="#666666">[STRING(8)]</text>
<polygon fill="none" stroke="#000000" points="962.5,-147.5 962.5,-177.5 1249.5,-177.5 1249.5,-147.5 962.5,-147.5"/>
<text text-anchor="start" x="969.5" y="-158.9" font-family="Arial" font-size="14.00" fill="#000000">ReleaseDate    </text>
<text text-anchor="start" x="1084.6108" y="-158.9" font-family="Arial" font-size="14.00" fill="#666666">[TIMESTAMP]</text>
</g>
<!-- BrowserFeatureAvailabilities -->
<g id="node4" class="node">
<title>BrowserFeatureAvailabilities</title>
<polygon fill="#efefef" stroke="transparent" points="919.5,-664.5 919.5,-699.5 1292.5,-699.5 1292.5,-664.5 919.5,-664.5"/>
<polygon fill="none" stroke="#000000" points="919.5,-664.5 919.5,-699.5 1292.5,-699.5 1292.5,-664.5 919.5,-664.5"/>
<text text-anchor="start" x="926.3822" y="-677.3" font-family="Arial Bold" font-size="18.00" fill="#000000">BrowserFeatureAvailabilities</text>
<text text-anchor="start" x="1153.3892" y="-677.3" font-family="Arial" font-size="14.00" fill="#000000">    </text>
<text text-anchor="start" x="1187.594" y="-677.3" font-family="Arial" font-size="14.00" fill="#666666">[BASIC TABLE]</text>
<polygon fill="none" stroke="#000000" points="919.5,-634.5 919.5,-664.5 1292.5,-664.5 1292.5,-634.5 919.5,-634.5"/>
<text text-anchor="start" x="926.5" y="-645.9" font-family="Arial" font-size="14.00" fill="#000000">BrowserName    </text>
<text text-anchor="start" x="1049.3668" y="-645.9" font-family="Arial" font-size="14.00" fill="#666666">[STRING(64)]</text>
<polygon fill="none" stroke="#000000" points="919.5,-604.5 919.5,-634.5 1292.5,-634.5 1292.5,-604.5 919.5,-604.5"/>
<text text-anchor="start" x="926.5" y="-615.9" font-family="Arial" font-size="14.00" fill="#000000">BrowserVersion    </text>
<text text-anchor="start" x="1059.486" y="-615.9" font-family="Arial" font-size="14.00" fill="#666666">[STRING(8)]</text>
<polygon fill="none" stroke="#000000" points="919.5,-574.5 919.5,-604.5 1292.5,-604.5 1292.5,-574.5 919.5,-574.5"/>
<text text-anchor="start" x="926.5" y="-585.9" font-family="Arial" font-size="14.00" fill="#000000">FeatureID    </text>
<text text-anchor="start" x="1022.9362" y="-585.9" font-family="Arial" font-size="14.00" fill="#666666">[STRING(64)]</text>
</g>
<!-- BrowserFeatureAvailabilities&#45;&gt;BrowserReleases -->
<g id="edge4" class="edge">
<title>BrowserFeatureAvailabilities:BrowserName&#45;&gt;BrowserReleases:BrowserName</title>
<path fill="none" stroke="#000000" stroke-dasharray="5,2" d="M910.9648,-643.7867C877.7164,-593.1165 918.0753,-222.5 962.5,-222.5"/>
<polygon fill="#000000" stroke="#000000" points="911.1899,-643.9373 916.9968,-653.2395 915.345,-646.7187 919.5,-649.5 919.5,-649.5 919.5,-649.5 915.345,-646.7187 922.0032,-645.7605 911.1899,-643.9373 911.1899,-643.9373"/>
</g>
<!-- BrowserFeatureAvailabilities&#45;&gt;WebFeatures -->
<g id="edge3" class="edge">
<title>BrowserFeatureAvailabilities:FeatureID&#45;&gt;WebFeatures:FeatureID</title>
<path fill="none" stroke="#000000" stroke-dasharray="5,2" d="M912.6553,-582.169C883.0643,-530.4441 805.3825,-222.5 785.5,-222.5"/>
<polygon fill="#000000" stroke="#000000" points="912.6755,-582.1907 916.2108,-592.571 916.0877,-585.8453 919.5,-589.5 919.5,-589.5 919.5,-589.5 916.0877,-585.8453 922.7892,-586.429 912.6755,-582.1907 912.6755,-582.1907"/>
</g>
<!-- FeatureBaselineStatus -->
<g id="node6" class="node">
<title>FeatureBaselineStatus</title>
<polygon fill="#efefef" stroke="transparent" points="486.5,-679.5 486.5,-714.5 814.5,-714.5 814.5,-679.5 486.5,-679.5"/>
<polygon fill="none" stroke="#000000" points="486.5,-679.5 486.5,-714.5 814.5,-714.5 814.5,-679.5 486.5,-679.5"/>
<text text-anchor="start" x="493.3588" y="-692.3" font-family="Arial Bold" font-size="18.00" fill="#000000">FeatureBaselineStatus</text>
<text text-anchor="start" x="675.4126" y="-692.3" font-family="Arial" font-size="14.00" fill="#000000">    </text>
<text text-anchor="start" x="709.6174" y="-692.3" font-family="Arial" font-size="14.00" fill="#666666">[BASIC TABLE]</text>
<polygon fill="none" stroke="#000000" points="486.5,-649.5 486.5,-679.5 814.5,-679.5 814.5,-649.5 486.5,-649.5"/>
<text text-anchor="start" x="493.5" y="-660.9" font-family="Arial" font-size="14.00" fill="#000000">FeatureID    </text>
<text text-anchor="start" x="589.9362" y="-660.9" font-family="Arial" font-size="14.00" fill="#666666">[STRING(64)]</text>
<polygon fill="none" stroke="#000000" points="486.5,-619.5 486.5,-649.5 814.5,-649.5 814.5,-619.5 486.5,-619.5"/>
<text text-anchor="start" x="493.5" y="-630.9" font-family="Arial" font-size="14.00" fill="#000000">Status    </text>
<text text-anchor="start" x="567.3878" y="-630.9" font-family="Arial" font-size="14.00" fill="#666666">[STRING(16)]</text>
<polygon fill="none" stroke="#000000" points="486.5,-589.5 486.5,-619.5 814.5,-619.5 814.5,-589.5 486.5,-589.5"/>
<text text-anchor="start" x="493.5" y="-600.9" font-family="Arial" font-size="14.00" fill="#000000">LowDate    </text>
<text text-anchor="start" x="582.939" y="-600.9" font-family="Arial" font-size="14.00" fill="#666666">[TIMESTAMP]</text>
<polygon fill="none" stroke="#000000" points="486.5,-559.5 486.5,-589.5 814.5,-589.5 814.5,-559.5 486.5,-559.5"/>
<text text-anchor="start" x="493.5" y="-570.9" font-family="Arial" font-size="14.00" fill="#000000">HighDate    </text>
<text text-anchor="start" x="586.0456" y="-570.9" font-family="Arial" font-size="14.00" fill="#666666">[TIMESTAMP]</text>
</g>
<!-- FeatureBaselineStatus&#45;&gt;WebFeatures -->
<g id="edge5" class="edge">
<title>FeatureBaselineStatus:FeatureID&#45;&gt;WebFeatures:FeatureID</title>
<path fill="none" stroke="#000000" stroke-dasharray="5,2" d="M476.2882,-663.6488C424.6451,-654.3241 455.4692,-570.4937 486.5,-517 563.3143,-384.5802 708.6857,-478.4198 785.5,-346 813.0417,-298.5211 840.3889,-222.5 785.5,-222.5"/>
<polygon fill="#000000" stroke="#000000" points="476.5346,-663.6693 486.1262,-668.9844 481.5173,-664.0846 486.5,-664.5 486.5,-664.5 486.5,-664.5 481.5173,-664.0846 486.8738,-660.0156 476.5346,-663.6693 476.5346,-663.6693"/>
</g>
</g>
</svg>
