<?xml version="1.0" encoding="UTF-8" standalone="no"?>
<!DOCTYPE svg PUBLIC "-//W3C//DTD SVG 1.1//EN"
 "http://www.w3.org/Graphics/SVG/1.1/DTD/svg11.dtd">
<!-- Generated by graphviz version 2.40.1 (20161225.0304)
 -->
<!-- Title: SplitWebFeatures Pages: 1 -->
<svg width="399pt" height="255pt"
 viewBox="0.00 0.00 399.00 255.00" xmlns="http://www.w3.org/2000/svg" xmlns:xlink="http://www.w3.org/1999/xlink">
<g id="graph0" class="graph" transform="scale(1 1) rotate(0) translate(4 251)">
<title>SplitWebFeatures</title>
<polygon fill="#ffffff" stroke="transparent" points="-4,4 -4,-251 395,-251 395,4 -4,4"/>
<!-- SplitWebFeatures -->
<g id="node1" class="node">
<title>SplitWebFeatures</title>
<polygon fill="#efefef" stroke="transparent" points="46.5,-165.5 46.5,-200.5 345.5,-200.5 345.5,-165.5 46.5,-165.5"/>
<polygon fill="none" stroke="#000000" points="46.5,-165.5 46.5,-200.5 345.5,-200.5 345.5,-165.5 46.5,-165.5"/>
<text text-anchor="start" x="58.3762" y="-178.3" font-family="Arial Bold" font-size="18.00" fill="#000000">SplitWebFeatures</text>
<text text-anchor="start" x="201.3952" y="-178.3" font-family="Arial" font-size="14.00" fill="#000000">    </text>
<text text-anchor="start" x="235.6" y="-178.3" font-family="Arial" font-size="14.00" fill="#666666">[BASIC TABLE]</text>
<polygon fill="none" stroke="#000000" points="46.5,-135.5 46.5,-165.5 345.5,-165.5 345.5,-135.5 46.5,-135.5"/>
<text text-anchor="start" x="53.5" y="-146.9" font-family="Arial" font-size="14.00" fill="#000000">ID </text>
<text text-anchor="start" x="71.3878" y="-146.9" font-family="Arial" font-size="14.00" fill="#666666">[STRING(36)]</text>
<polygon fill="none" stroke="#000000" points="46.5,-105.5 46.5,-135.5 345.5,-135.5 345.5,-105.5 46.5,-105.5"/>
<text text-anchor="start" x="53.5" y="-116.9" font-family="Arial" font-size="14.00" fill="#000000">OriginalFeatureKey </text>
<text text-anchor="start" x="177.9628" y="-116.9" font-family="Arial" font-size="14.00" fill="#666666">[STRING(64)]</text>
<polygon fill="none" stroke="#000000" points="46.5,-75.5 46.5,-105.5 345.5,-105.5 345.5,-75.5 46.5,-75.5"/>
<text text-anchor="start" x="53.5" y="-86.9" font-family="Arial" font-size="14.00" fill="#000000">TargetWebFeatureID </text>
<text text-anchor="start" x="188.8534" y="-86.9" font-family="Arial" font-size="14.00" fill="#666666">[STRING(36)]</text>
<polygon fill="none" stroke="#000000" points="46.5,-45.5 46.5,-75.5 345.5,-75.5 345.5,-45.5 46.5,-45.5"/>
<text text-anchor="start" x="53.2616" y="-56.9" font-family="Arial" font-size="14.00" fill="#000000">OriginalFeatureKey_Lowercase </text>
<text text-anchor="start" x="253.1872" y="-56.9" font-family="Arial" font-size="14.00" fill="#666666">[STRING(64)]</text>
<polygon fill="none" stroke="#000000" stroke-width="3" points="44.5,-44.5 44.5,-202.5 346.5,-202.5 346.5,-44.5 44.5,-44.5"/>
</g>
</g>
</svg>
