<?xml version="1.0" encoding="UTF-8" standalone="no"?>
<!DOCTYPE svg PUBLIC "-//W3C//DTD SVG 1.1//EN"
 "http://www.w3.org/Graphics/SVG/1.1/DTD/svg11.dtd">
<!-- Generated by graphviz version 12.1.2 (20240928.0832)
 -->
<!-- Title: SplitWebFeatures Pages: 1 -->
<svg width="804pt" height="664pt"
 viewBox="0.00 0.00 804.41 663.60" xmlns="http://www.w3.org/2000/svg" xmlns:xlink="http://www.w3.org/1999/xlink">
<g id="graph0" class="graph" transform="scale(1 1) rotate(0) translate(4 659.6)">
<title>SplitWebFeatures</title>
<polygon fill="white" stroke="none" points="-4,4 -4,-659.6 800.41,-659.6 800.41,4 -4,4"/>
<!-- SplitWebFeatures -->
<g id="node1" class="node">
<title>SplitWebFeatures</title>
<polygon fill="#efefef" stroke="none" points="46.2,-573.8 46.2,-609.4 345.76,-609.4 345.76,-573.8 46.2,-573.8"/>
<polygon fill="none" stroke="black" points="46.2,-573.8 46.2,-609.4 345.76,-609.4 345.76,-573.8 46.2,-573.8"/>
<text text-anchor="start" x="66.92" y="-587.2" font-family="Arial Bold" font-size="18.00">SplitWebFeatures</text>
<text text-anchor="start" x="195.89" y="-587.2" font-family="Arial" font-size="14.00">    </text>
<text text-anchor="start" x="227.01" y="-587.2" font-family="Arial" font-size="14.00" fill="#666666">[BASIC TABLE]</text>
<polygon fill="none" stroke="black" points="46.2,-543 46.2,-573.8 345.76,-573.8 345.76,-543 46.2,-543"/>
<text text-anchor="start" x="53.2" y="-555.2" font-family="Arial" font-size="14.00">ID </text>
<text text-anchor="start" x="71.09" y="-555.2" font-family="Arial" font-size="14.00" fill="#666666">[STRING(36)]</text>
<polygon fill="none" stroke="black" points="46.2,-512.2 46.2,-543 345.76,-543 345.76,-512.2 46.2,-512.2"/>
<text text-anchor="start" x="53.2" y="-524.4" font-family="Arial" font-size="14.00">OriginalFeatureKey </text>
<text text-anchor="start" x="177.7" y="-524.4" font-family="Arial" font-size="14.00" fill="#666666">[STRING(64)]</text>
<polygon fill="none" stroke="black" points="46.2,-481.4 46.2,-512.2 345.76,-512.2 345.76,-481.4 46.2,-481.4"/>
<text text-anchor="start" x="53.2" y="-493.6" font-family="Arial" font-size="14.00">TargetWebFeatureID </text>
<text text-anchor="start" x="188.59" y="-493.6" font-family="Arial" font-size="14.00" fill="#666666">[STRING(36)]</text>
<polygon fill="none" stroke="black" points="46.2,-450.6 46.2,-481.4 345.76,-481.4 345.76,-450.6 46.2,-450.6"/>
<text text-anchor="start" x="53.2" y="-462.8" font-family="Arial" font-size="14.00">OriginalFeatureKey_Lowercase </text>
<text text-anchor="start" x="253.19" y="-462.8" font-family="Arial" font-size="14.00" fill="#666666">[STRING(64)]</text>
<polygon fill="none" stroke="black" stroke-width="3" points="44.7,-449.1 44.7,-610.9 347.26,-610.9 347.26,-449.1 44.7,-449.1"/>
</g>
<!-- WebFeatures -->
<g id="node2" class="node">
<title>WebFeatures</title>
<polygon fill="#efefef" stroke="none" points="64.11,-289.6 64.11,-325.2 327.85,-325.2 327.85,-289.6 64.11,-289.6"/>
<polygon fill="none" stroke="black" points="64.11,-289.6 64.11,-325.2 327.85,-325.2 327.85,-289.6 64.11,-289.6"/>
<text text-anchor="start" x="83.92" y="-303" font-family="Arial Bold" font-size="18.00">WebFeatures</text>
<text text-anchor="start" x="178.88" y="-303" font-family="Arial" font-size="14.00">    </text>
<text text-anchor="start" x="210" y="-303" font-family="Arial" font-size="14.00" fill="#666666">[BASIC TABLE]</text>
<polygon fill="none" stroke="black" points="64.11,-258.8 64.11,-289.6 327.85,-289.6 327.85,-258.8 64.11,-258.8"/>
<text text-anchor="start" x="71.11" y="-271" font-family="Arial" font-size="14.00">ID </text>
<text text-anchor="start" x="89" y="-271" font-family="Arial" font-size="14.00" fill="#666666">[STRING(36)]</text>
<polygon fill="none" stroke="black" points="64.11,-228 64.11,-258.8 327.85,-258.8 327.85,-228 64.11,-228"/>
<text text-anchor="start" x="71.11" y="-240.2" font-family="Arial" font-size="14.00">FeatureKey </text>
<text text-anchor="start" x="147.37" y="-240.2" font-family="Arial" font-size="14.00" fill="#666666">[STRING(64)]</text>
<polygon fill="none" stroke="black" points="64.11,-197.2 64.11,-228 327.85,-228 327.85,-197.2 64.11,-197.2"/>
<text text-anchor="start" x="71.11" y="-209.4" font-family="Arial" font-size="14.00">Name </text>
<text text-anchor="start" x="112.34" y="-209.4" font-family="Arial" font-size="14.00" fill="#666666">[STRING(64)]</text>
<polygon fill="none" stroke="black" points="64.11,-166.4 64.11,-197.2 327.85,-197.2 327.85,-166.4 64.11,-166.4"/>
<text text-anchor="start" x="71.11" y="-178.6" font-family="Arial" font-size="14.00">FeatureKey_Lowercase </text>
<text text-anchor="start" x="222.86" y="-178.6" font-family="Arial" font-size="14.00" fill="#666666">[STRING(64)]</text>
<polygon fill="none" stroke="black" points="64.11,-135.6 64.11,-166.4 327.85,-166.4 327.85,-135.6 64.11,-135.6"/>
<text text-anchor="start" x="71.11" y="-147.8" font-family="Arial" font-size="14.00">Name_Lowercase </text>
<text text-anchor="start" x="187.83" y="-147.8" font-family="Arial" font-size="14.00" fill="#666666">[STRING(64)]</text>
<polygon fill="none" stroke="black" points="64.11,-104.8 64.11,-135.6 327.85,-135.6 327.85,-104.8 64.11,-104.8"/>
<text text-anchor="start" x="71.11" y="-117" font-family="Arial" font-size="14.00">Description </text>
<text text-anchor="start" x="145.03" y="-117" font-family="Arial" font-size="14.00" fill="#666666">[STRING(MAX)]</text>
<polygon fill="none" stroke="black" points="64.11,-74 64.11,-104.8 327.85,-104.8 327.85,-74 64.11,-74"/>
<text text-anchor="start" x="71.11" y="-86.2" font-family="Arial" font-size="14.00">DescriptionHtml </text>
<text text-anchor="start" x="173.8" y="-86.2" font-family="Arial" font-size="14.00" fill="#666666">[STRING(MAX)]</text>
<polygon fill="none" stroke="black" points="64.11,-43.2 64.11,-74 327.85,-74 327.85,-43.2 64.11,-43.2"/>
<text text-anchor="start" x="71.11" y="-55.4" font-family="Arial" font-size="14.00">Description_Lowercase </text>
<text text-anchor="start" x="220.52" y="-55.4" font-family="Arial" font-size="14.00" fill="#666666">[STRING(MAX)]</text>
</g>
<!-- SplitWebFeatures&#45;&gt;WebFeatures -->
<g id="edge1" class="edge">
<title>SplitWebFeatures:TargetWebFeatureID&#45;&gt;WebFeatures:ID</title>
<path fill="none" stroke="black" d="M357.06,-495.95C444.61,-481 424.51,-274.2 328.85,-274.2"/>
<polygon fill="black" stroke="black" points="357.06,-495.95 346.72,-492.29 351.74,-496.39 347.42,-496.74 347.42,-496.74 347.42,-496.74 351.74,-496.39 347.46,-501.26 357.06,-495.95"/>
<text text-anchor="start" x="353.76" y="-506.8" font-family="Arial" font-size="10.00">FOREIGN KEY (TargetWebFeatureID) REFERENCES WebFeatures (ID) ON DELETE CASCADE</text>
</g>
</g>
</svg>
