<?xml version="1.0" encoding="UTF-8" standalone="no"?>
<!DOCTYPE svg PUBLIC "-//W3C//DTD SVG 1.1//EN"
 "http://www.w3.org/Graphics/SVG/1.1/DTD/svg11.dtd">
<!-- Generated by graphviz version 12.1.2 (20240928.0832)
 -->
<!-- Title: SystemManagedSavedSearches Pages: 1 -->
<svg width="1237pt" height="664pt"
 viewBox="0.00 0.00 1236.69 663.60" xmlns="http://www.w3.org/2000/svg" xmlns:xlink="http://www.w3.org/1999/xlink">
<g id="graph0" class="graph" transform="scale(1 1) rotate(0) translate(4 659.6)">
<title>SystemManagedSavedSearches</title>
<polygon fill="white" stroke="none" points="-4,4 -4,-659.6 1232.69,-659.6 1232.69,4 -4,4"/>
<!-- SystemManagedSavedSearches -->
<g id="node1" class="node">
<title>SystemManagedSavedSearches</title>
<polygon fill="#efefef" stroke="none" points="401.19,-573.8 401.19,-609.4 791.35,-609.4 791.35,-573.8 401.19,-573.8"/>
<polygon fill="none" stroke="black" points="401.19,-573.8 401.19,-609.4 791.35,-609.4 791.35,-573.8 401.19,-573.8"/>
<text text-anchor="start" x="417.73" y="-587.2" font-family="Arial Bold" font-size="18.00">SystemManagedSavedSearches</text>
<text text-anchor="start" x="645.66" y="-587.2" font-family="Arial" font-size="14.00">    </text>
<text text-anchor="start" x="676.78" y="-587.2" font-family="Arial" font-size="14.00" fill="#666666">[BASIC TABLE]</text>
<polygon fill="none" stroke="black" points="401.19,-543 401.19,-573.8 791.35,-573.8 791.35,-543 401.19,-543"/>
<text text-anchor="start" x="408.19" y="-555.2" font-family="Arial" font-size="14.00">FeatureID </text>
<text text-anchor="start" x="474.33" y="-555.2" font-family="Arial" font-size="14.00" fill="#666666">[STRING(36)]</text>
<polygon fill="none" stroke="black" points="401.19,-512.2 401.19,-543 791.35,-543 791.35,-512.2 401.19,-512.2"/>
<text text-anchor="start" x="408.19" y="-524.4" font-family="Arial" font-size="14.00">SavedSearchID </text>
<text text-anchor="start" x="510.14" y="-524.4" font-family="Arial" font-size="14.00" fill="#666666">[STRING(36)]</text>
<polygon fill="none" stroke="black" points="401.19,-481.4 401.19,-512.2 791.35,-512.2 791.35,-481.4 401.19,-481.4"/>
<text text-anchor="start" x="408.19" y="-493.6" font-family="Arial" font-size="14.00">CreatedAt </text>
<text text-anchor="start" x="475.12" y="-493.6" font-family="Arial" font-size="14.00" fill="#666666">[TIMESTAMP (allow_commit_timestamp=TRUE)]</text>
<polygon fill="none" stroke="black" points="401.19,-450.6 401.19,-481.4 791.35,-481.4 791.35,-450.6 401.19,-450.6"/>
<text text-anchor="start" x="408.19" y="-462.8" font-family="Arial" font-size="14.00">UpdatedAt </text>
<text text-anchor="start" x="478.24" y="-462.8" font-family="Arial" font-size="14.00" fill="#666666">[TIMESTAMP (allow_commit_timestamp=TRUE)]</text>
<polygon fill="none" stroke="black" stroke-width="3" points="399.69,-449.1 399.69,-610.9 792.85,-610.9 792.85,-449.1 399.69,-449.1"/>
</g>
<!-- WebFeatures -->
<g id="node2" class="node">
<title>WebFeatures</title>
<polygon fill="#efefef" stroke="none" points="249.4,-289.6 249.4,-325.2 513.14,-325.2 513.14,-289.6 249.4,-289.6"/>
<polygon fill="none" stroke="black" points="249.4,-289.6 249.4,-325.2 513.14,-325.2 513.14,-289.6 249.4,-289.6"/>
<text text-anchor="start" x="269.21" y="-303" font-family="Arial Bold" font-size="18.00">WebFeatures</text>
<text text-anchor="start" x="364.17" y="-303" font-family="Arial" font-size="14.00">    </text>
<text text-anchor="start" x="395.29" y="-303" font-family="Arial" font-size="14.00" fill="#666666">[BASIC TABLE]</text>
<polygon fill="none" stroke="black" points="249.4,-258.8 249.4,-289.6 513.14,-289.6 513.14,-258.8 249.4,-258.8"/>
<text text-anchor="start" x="256.4" y="-271" font-family="Arial" font-size="14.00">ID </text>
<text text-anchor="start" x="274.29" y="-271" font-family="Arial" font-size="14.00" fill="#666666">[STRING(36)]</text>
<polygon fill="none" stroke="black" points="249.4,-228 249.4,-258.8 513.14,-258.8 513.14,-228 249.4,-228"/>
<text text-anchor="start" x="256.4" y="-240.2" font-family="Arial" font-size="14.00">FeatureKey </text>
<text text-anchor="start" x="332.66" y="-240.2" font-family="Arial" font-size="14.00" fill="#666666">[STRING(64)]</text>
<polygon fill="none" stroke="black" points="249.4,-197.2 249.4,-228 513.14,-228 513.14,-197.2 249.4,-197.2"/>
<text text-anchor="start" x="256.4" y="-209.4" font-family="Arial" font-size="14.00">Name </text>
<text text-anchor="start" x="297.63" y="-209.4" font-family="Arial" font-size="14.00" fill="#666666">[STRING(64)]</text>
<polygon fill="none" stroke="black" points="249.4,-166.4 249.4,-197.2 513.14,-197.2 513.14,-166.4 249.4,-166.4"/>
<text text-anchor="start" x="256.4" y="-178.6" font-family="Arial" font-size="14.00">FeatureKey_Lowercase </text>
<text text-anchor="start" x="408.15" y="-178.6" font-family="Arial" font-size="14.00" fill="#666666">[STRING(64)]</text>
<polygon fill="none" stroke="black" points="249.4,-135.6 249.4,-166.4 513.14,-166.4 513.14,-135.6 249.4,-135.6"/>
<text text-anchor="start" x="256.4" y="-147.8" font-family="Arial" font-size="14.00">Name_Lowercase </text>
<text text-anchor="start" x="373.12" y="-147.8" font-family="Arial" font-size="14.00" fill="#666666">[STRING(64)]</text>
<polygon fill="none" stroke="black" points="249.4,-104.8 249.4,-135.6 513.14,-135.6 513.14,-104.8 249.4,-104.8"/>
<text text-anchor="start" x="256.4" y="-117" font-family="Arial" font-size="14.00">Description </text>
<text text-anchor="start" x="330.32" y="-117" font-family="Arial" font-size="14.00" fill="#666666">[STRING(MAX)]</text>
<polygon fill="none" stroke="black" points="249.4,-74 249.4,-104.8 513.14,-104.8 513.14,-74 249.4,-74"/>
<text text-anchor="start" x="256.4" y="-86.2" font-family="Arial" font-size="14.00">DescriptionHtml </text>
<text text-anchor="start" x="359.09" y="-86.2" font-family="Arial" font-size="14.00" fill="#666666">[STRING(MAX)]</text>
<polygon fill="none" stroke="black" points="249.4,-43.2 249.4,-74 513.14,-74 513.14,-43.2 249.4,-43.2"/>
<text text-anchor="start" x="256.4" y="-55.4" font-family="Arial" font-size="14.00">Description_Lowercase </text>
<text text-anchor="start" x="405.81" y="-55.4" font-family="Arial" font-size="14.00" fill="#666666">[STRING(MAX)]</text>
</g>
<!-- SystemManagedSavedSearches&#45;&gt;WebFeatures -->
<g id="edge1" class="edge">
<title>SystemManagedSavedSearches:FeatureID&#45;&gt;WebFeatures:ID</title>
<path fill="none" stroke="black" d="M389.82,-557.54C334.95,-547.72 362.91,-456.56 401.19,-404.4 432.11,-362.26 482.13,-410.47 513.14,-368.4 537.98,-334.7 556.01,-274.2 514.14,-274.2"/>
<polygon fill="black" stroke="black" points="389.89,-557.54 399.48,-562.86 395.21,-557.99 399.52,-558.34 399.52,-558.34 399.52,-558.34 395.21,-557.99 400.23,-553.89 389.89,-557.54"/>
<text text-anchor="start" x="7" y="-568.4" font-family="Arial" font-size="10.00">FOREIGN KEY (FeatureID) REFERENCES WebFeatures (ID) ON DELETE CASCADE</text>
</g>
<!-- SavedSearches -->
<g id="node3" class="node">
<title>SavedSearches</title>
<polygon fill="#efefef" stroke="none" points="617.19,-289.6 617.19,-325.2 1007.35,-325.2 1007.35,-289.6 617.19,-289.6"/>
<polygon fill="none" stroke="black" points="617.19,-289.6 617.19,-325.2 1007.35,-325.2 1007.35,-289.6 617.19,-289.6"/>
<text text-anchor="start" x="693.71" y="-303" font-family="Arial Bold" font-size="18.00">SavedSearches</text>
<text text-anchor="start" x="801.67" y="-303" font-family="Arial" font-size="14.00">    </text>
<text text-anchor="start" x="832.79" y="-303" font-family="Arial" font-size="14.00" fill="#666666">[BASIC TABLE]</text>
<polygon fill="none" stroke="black" points="617.19,-258.8 617.19,-289.6 1007.35,-289.6 1007.35,-258.8 617.19,-258.8"/>
<text text-anchor="start" x="624.19" y="-271" font-family="Arial" font-size="14.00">ID </text>
<text text-anchor="start" x="642.08" y="-271" font-family="Arial" font-size="14.00" fill="#666666">[STRING(36)]</text>
<polygon fill="none" stroke="black" points="617.19,-228 617.19,-258.8 1007.35,-258.8 1007.35,-228 617.19,-228"/>
<text text-anchor="start" x="624.19" y="-240.2" font-family="Arial" font-size="14.00">Name </text>
<text text-anchor="start" x="665.43" y="-240.2" font-family="Arial" font-size="14.00" fill="#666666">[STRING(MAX)]</text>
<polygon fill="none" stroke="black" points="617.19,-197.2 617.19,-228 1007.35,-228 1007.35,-197.2 617.19,-197.2"/>
<text text-anchor="start" x="624.19" y="-209.4" font-family="Arial" font-size="14.00">Query </text>
<text text-anchor="start" x="666.21" y="-209.4" font-family="Arial" font-size="14.00" fill="#666666">[STRING(MAX)]</text>
<polygon fill="none" stroke="black" points="617.19,-166.4 617.19,-197.2 1007.35,-197.2 1007.35,-166.4 617.19,-166.4"/>
<text text-anchor="start" x="624.19" y="-178.6" font-family="Arial" font-size="14.00">Scope </text>
<text text-anchor="start" x="667.78" y="-178.6" font-family="Arial" font-size="14.00" fill="#666666">[STRING(MAX)]</text>
<polygon fill="none" stroke="black" points="617.19,-135.6 617.19,-166.4 1007.35,-166.4 1007.35,-135.6 617.19,-135.6"/>
<text text-anchor="start" x="624.19" y="-147.8" font-family="Arial" font-size="14.00">AuthorID </text>
<text text-anchor="start" x="683.33" y="-147.8" font-family="Arial" font-size="14.00" fill="#666666">[STRING(MAX)]</text>
<polygon fill="none" stroke="black" points="617.19,-104.8 617.19,-135.6 1007.35,-135.6 1007.35,-104.8 617.19,-104.8"/>
<text text-anchor="start" x="624.19" y="-117" font-family="Arial" font-size="14.00">CreatedAt </text>
<text text-anchor="start" x="691.12" y="-117" font-family="Arial" font-size="14.00" fill="#666666">[TIMESTAMP (allow_commit_timestamp=TRUE)]</text>
<polygon fill="none" stroke="black" points="617.19,-74 617.19,-104.8 1007.35,-104.8 1007.35,-74 617.19,-74"/>
<text text-anchor="start" x="624.19" y="-86.2" font-family="Arial" font-size="14.00">UpdatedAt </text>
<text text-anchor="start" x="694.24" y="-86.2" font-family="Arial" font-size="14.00" fill="#666666">[TIMESTAMP (allow_commit_timestamp=TRUE)]</text>
<polygon fill="none" stroke="black" points="617.19,-43.2 617.19,-74 1007.35,-74 1007.35,-43.2 617.19,-43.2"/>
<text text-anchor="start" x="624.19" y="-55.4" font-family="Arial" font-size="14.00">Description </text>
<text text-anchor="start" x="698.11" y="-55.4" font-family="Arial" font-size="14.00" fill="#666666">[STRING(MAX)]</text>
</g>
<!-- SystemManagedSavedSearches&#45;&gt;SavedSearches -->
<g id="edge2" class="edge">
<title>SystemManagedSavedSearches:SavedSearchID&#45;&gt;SavedSearches:ID</title>
<path fill="none" stroke="black" d="M802.53,-526.5C844.17,-516.72 823.72,-443.82 791.35,-404.4 741.19,-343.32 667.43,-429.42 617.19,-368.4 590.58,-336.08 574.32,-274.2 616.19,-274.2"/>
<polygon fill="black" stroke="black" points="802.62,-526.49 792.2,-523.09 797.32,-527.07 793.01,-527.53 793.01,-527.53 793.01,-527.53 797.32,-527.07 793.16,-532.04 802.62,-526.49"/>
<text text-anchor="start" x="799.35" y="-537.6" font-family="Arial" font-size="10.00">FOREIGN KEY (SavedSearchID) REFERENCES SavedSearches (ID) ON DELETE CASCADE</text>
</g>
</g>
</svg>
