<?xml version="1.0" encoding="UTF-8" standalone="no"?>
<!DOCTYPE svg PUBLIC "-//W3C//DTD SVG 1.1//EN"
 "http://www.w3.org/Graphics/SVG/1.1/DTD/svg11.dtd">
<!-- Generated by graphviz version 2.40.1 (20161225.0304)
 -->
<!-- Title: SystemManagedSavedSearches Pages: 1 -->
<svg width="508pt" height="255pt"
 viewBox="0.00 0.00 508.00 255.00" xmlns="http://www.w3.org/2000/svg" xmlns:xlink="http://www.w3.org/1999/xlink">
<g id="graph0" class="graph" transform="scale(1 1) rotate(0) translate(4 251)">
<title>SystemManagedSavedSearches</title>
<polygon fill="#ffffff" stroke="transparent" points="-4,4 -4,-251 504,-251 504,4 -4,4"/>
<!-- SystemManagedSavedSearches -->
<g id="node1" class="node">
<title>SystemManagedSavedSearches</title>
<polygon fill="#efefef" stroke="transparent" points="46,-165.5 46,-200.5 454,-200.5 454,-165.5 46,-165.5"/>
<polygon fill="none" stroke="#000000" points="46,-165.5 46,-200.5 454,-200.5 454,-165.5 46,-165.5"/>
<text text-anchor="start" x="52.8466" y="-178.3" font-family="Arial Bold" font-size="18.00" fill="#000000">SystemManagedSavedSearches</text>
<text text-anchor="start" x="314.9248" y="-178.3" font-family="Arial" font-size="14.00" fill="#000000">    </text>
<text text-anchor="start" x="349.1296" y="-178.3" font-family="Arial" font-size="14.00" fill="#666666">[BASIC TABLE]</text>
<polygon fill="none" stroke="#000000" points="46,-135.5 46,-165.5 454,-165.5 454,-135.5 46,-135.5"/>
<text text-anchor="start" x="53" y="-146.9" font-family="Arial" font-size="14.00" fill="#000000">FeatureID </text>
<text text-anchor="start" x="119.122" y="-146.9" font-family="Arial" font-size="14.00" fill="#666666">[STRING(36)]</text>
<polygon fill="none" stroke="#000000" points="46,-105.5 46,-135.5 454,-135.5 454,-105.5 46,-105.5"/>
<text text-anchor="start" x="53" y="-116.9" font-family="Arial" font-size="14.00" fill="#000000">SavedSearchID </text>
<text text-anchor="start" x="154.9172" y="-116.9" font-family="Arial" font-size="14.00" fill="#666666">[STRING(36)]</text>
<polygon fill="none" stroke="#000000" points="46,-75.5 46,-105.5 454,-105.5 454,-75.5 46,-75.5"/>
<text text-anchor="start" x="53" y="-86.9" font-family="Arial" font-size="14.00" fill="#000000">CreatedAt </text>
<text text-anchor="start" x="119.906" y="-86.9" font-family="Arial" font-size="14.00" fill="#666666">[TIMESTAMP (allow_commit_timestamp=TRUE)]</text>
<polygon fill="none" stroke="#000000" points="46,-45.5 46,-75.5 454,-75.5 454,-45.5 46,-45.5"/>
<text text-anchor="start" x="53" y="-56.9" font-family="Arial" font-size="14.00" fill="#000000">UpdatedAt </text>
<text text-anchor="start" x="123.028" y="-56.9" font-family="Arial" font-size="14.00" fill="#666666">[TIMESTAMP (allow_commit_timestamp=TRUE)]</text>
<polygon fill="none" stroke="#000000" stroke-width="3" points="44.5,-44.5 44.5,-202.5 455.5,-202.5 455.5,-44.5 44.5,-44.5"/>
</g>
</g>
</svg>
