<?xml version="1.0" encoding="UTF-8" standalone="no"?>
<!DOCTYPE svg PUBLIC "-//W3C//DTD SVG 1.1//EN"
 "http://www.w3.org/Graphics/SVG/1.1/DTD/svg11.dtd">
<!-- Generated by graphviz version 12.1.2 (20240928.0832)
 -->
<!-- Title: UserSavedSearchBookmarks Pages: 1 -->
<svg width="860pt" height="602pt"
 viewBox="0.00 0.00 860.17 602.00" xmlns="http://www.w3.org/2000/svg" xmlns:xlink="http://www.w3.org/1999/xlink">
<g id="graph0" class="graph" transform="scale(1 1) rotate(0) translate(4 598)">
<title>UserSavedSearchBookmarks</title>
<polygon fill="white" stroke="none" points="-4,4 -4,-598 856.17,-598 856.17,4 -4,4"/>
<!-- UserSavedSearchBookmarks -->
<g id="node1" class="node">
<title>UserSavedSearchBookmarks</title>
<polygon fill="#efefef" stroke="none" points="61.73,-512.2 61.73,-547.8 414.82,-547.8 414.82,-512.2 61.73,-512.2"/>
<polygon fill="none" stroke="black" points="61.73,-512.2 61.73,-547.8 414.82,-547.8 414.82,-512.2 61.73,-512.2"/>
<text text-anchor="start" x="68.73" y="-525.6" font-family="Arial Bold" font-size="18.00">UserSavedSearchBookmarks</text>
<text text-anchor="start" x="278.67" y="-525.6" font-family="Arial" font-size="14.00">    </text>
<text text-anchor="start" x="309.79" y="-525.6" font-family="Arial" font-size="14.00" fill="#666666">[BASIC TABLE]</text>
<polygon fill="none" stroke="black" points="61.73,-481.4 61.73,-512.2 414.82,-512.2 414.82,-481.4 61.73,-481.4"/>
<text text-anchor="start" x="68.73" y="-493.6" font-family="Arial" font-size="14.00">SavedSearchID </text>
<text text-anchor="start" x="170.67" y="-493.6" font-family="Arial" font-size="14.00" fill="#666666">[STRING(36)]</text>
<polygon fill="none" stroke="black" points="61.73,-450.6 61.73,-481.4 414.82,-481.4 414.82,-450.6 61.73,-450.6"/>
<text text-anchor="start" x="68.73" y="-462.8" font-family="Arial" font-size="14.00">UserID </text>
<text text-anchor="start" x="116.18" y="-462.8" font-family="Arial" font-size="14.00" fill="#666666">[STRING(MAX)]</text>
<polygon fill="none" stroke="black" stroke-width="3" points="60.23,-449.1 60.23,-549.3 416.32,-549.3 416.32,-449.1 60.23,-449.1"/>
</g>
<!-- SavedSearches -->
<g id="node2" class="node">
<title>SavedSearches</title>
<polygon fill="#efefef" stroke="none" points="43.2,-289.6 43.2,-325.2 433.35,-325.2 433.35,-289.6 43.2,-289.6"/>
<polygon fill="none" stroke="black" points="43.2,-289.6 43.2,-325.2 433.35,-325.2 433.35,-289.6 43.2,-289.6"/>
<text text-anchor="start" x="119.72" y="-303" font-family="Arial Bold" font-size="18.00">SavedSearches</text>
<text text-anchor="start" x="227.68" y="-303" font-family="Arial" font-size="14.00">    </text>
<text text-anchor="start" x="258.8" y="-303" font-family="Arial" font-size="14.00" fill="#666666">[BASIC TABLE]</text>
<polygon fill="none" stroke="black" points="43.2,-258.8 43.2,-289.6 433.35,-289.6 433.35,-258.8 43.2,-258.8"/>
<text text-anchor="start" x="50.2" y="-271" font-family="Arial" font-size="14.00">ID </text>
<text text-anchor="start" x="68.09" y="-271" font-family="Arial" font-size="14.00" fill="#666666">[STRING(36)]</text>
<polygon fill="none" stroke="black" points="43.2,-228 43.2,-258.8 433.35,-258.8 433.35,-228 43.2,-228"/>
<text text-anchor="start" x="50.2" y="-240.2" font-family="Arial" font-size="14.00">Name </text>
<text text-anchor="start" x="91.43" y="-240.2" font-family="Arial" font-size="14.00" fill="#666666">[STRING(MAX)]</text>
<polygon fill="none" stroke="black" points="43.2,-197.2 43.2,-228 433.35,-228 433.35,-197.2 43.2,-197.2"/>
<text text-anchor="start" x="50.2" y="-209.4" font-family="Arial" font-size="14.00">Query </text>
<text text-anchor="start" x="92.21" y="-209.4" font-family="Arial" font-size="14.00" fill="#666666">[STRING(MAX)]</text>
<polygon fill="none" stroke="black" points="43.2,-166.4 43.2,-197.2 433.35,-197.2 433.35,-166.4 43.2,-166.4"/>
<text text-anchor="start" x="50.2" y="-178.6" font-family="Arial" font-size="14.00">Scope </text>
<text text-anchor="start" x="93.79" y="-178.6" font-family="Arial" font-size="14.00" fill="#666666">[STRING(MAX)]</text>
<polygon fill="none" stroke="black" points="43.2,-135.6 43.2,-166.4 433.35,-166.4 433.35,-135.6 43.2,-135.6"/>
<text text-anchor="start" x="50.2" y="-147.8" font-family="Arial" font-size="14.00">AuthorID </text>
<text text-anchor="start" x="109.34" y="-147.8" font-family="Arial" font-size="14.00" fill="#666666">[STRING(MAX)]</text>
<polygon fill="none" stroke="black" points="43.2,-104.8 43.2,-135.6 433.35,-135.6 433.35,-104.8 43.2,-104.8"/>
<text text-anchor="start" x="50.2" y="-117" font-family="Arial" font-size="14.00">CreatedAt </text>
<text text-anchor="start" x="117.12" y="-117" font-family="Arial" font-size="14.00" fill="#666666">[TIMESTAMP (allow_commit_timestamp=TRUE)]</text>
<polygon fill="none" stroke="black" points="43.2,-74 43.2,-104.8 433.35,-104.8 433.35,-74 43.2,-74"/>
<text text-anchor="start" x="50.2" y="-86.2" font-family="Arial" font-size="14.00">UpdatedAt </text>
<text text-anchor="start" x="120.25" y="-86.2" font-family="Arial" font-size="14.00" fill="#666666">[TIMESTAMP (allow_commit_timestamp=TRUE)]</text>
<polygon fill="none" stroke="black" points="43.2,-43.2 43.2,-74 433.35,-74 433.35,-43.2 43.2,-43.2"/>
<text text-anchor="start" x="50.2" y="-55.4" font-family="Arial" font-size="14.00">Description </text>
<text text-anchor="start" x="124.12" y="-55.4" font-family="Arial" font-size="14.00" fill="#666666">[STRING(MAX)]</text>
</g>
<!-- UserSavedSearchBookmarks&#45;&gt;SavedSearches -->
<g id="edge1" class="edge">
<title>UserSavedSearchBookmarks:SavedSearchID&#45;&gt;SavedSearches:ID</title>
<path fill="none" stroke="black" d="M425.56,-493.82C467.68,-467.41 480.6,-274.2 434.35,-274.2"/>
<polygon fill="black" stroke="black" points="425.71,-493.78 414.83,-492.4 420.61,-495.34 416.46,-496.6 416.46,-496.6 416.46,-496.6 420.61,-495.34 417.46,-501.01 425.71,-493.78"/>
<text text-anchor="start" x="422.83" y="-506.8" font-family="Arial" font-size="10.00">FOREIGN KEY (SavedSearchID) REFERENCES SavedSearches (ID) ON DELETE CASCADE</text>
</g>
</g>
</svg>
