<?xml version="1.0" encoding="UTF-8" standalone="no"?>
<!DOCTYPE svg PUBLIC "-//W3C//DTD SVG 1.1//EN"
 "http://www.w3.org/Graphics/SVG/1.1/DTD/svg11.dtd">
<!-- Generated by graphviz version 2.40.1 (20161225.0304)
 -->
<!-- Title: UserSavedSearchBookmarks Pages: 1 -->
<svg width="514pt" height="592pt"
 viewBox="0.00 0.00 514.00 592.00" xmlns="http://www.w3.org/2000/svg" xmlns:xlink="http://www.w3.org/1999/xlink">
<g id="graph0" class="graph" transform="scale(1 1) rotate(0) translate(4 588)">
<title>UserSavedSearchBookmarks</title>
<polygon fill="#ffffff" stroke="transparent" points="-4,4 -4,-588 510,-588 510,4 -4,4"/>
<!-- UserSavedSearchBookmarks -->
<g id="node1" class="node">
<title>UserSavedSearchBookmarks</title>
<polygon fill="#efefef" stroke="transparent" points="62,-502.5 62,-537.5 444,-537.5 444,-502.5 62,-502.5"/>
<polygon fill="none" stroke="#000000" points="62,-502.5 62,-537.5 444,-537.5 444,-502.5 62,-502.5"/>
<text text-anchor="start" x="68.8669" y="-515.3" font-family="Arial Bold" font-size="18.00" fill="#000000">UserSavedSearchBookmarks</text>
<text text-anchor="start" x="304.9045" y="-515.3" font-family="Arial" font-size="14.00" fill="#000000">    </text>
<text text-anchor="start" x="339.1093" y="-515.3" font-family="Arial" font-size="14.00" fill="#666666">[BASIC TABLE]</text>
<polygon fill="none" stroke="#000000" points="62,-472.5 62,-502.5 444,-502.5 444,-472.5 62,-472.5"/>
<text text-anchor="start" x="69" y="-483.9" font-family="Arial" font-size="14.00" fill="#000000">SavedSearchID </text>
<text text-anchor="start" x="170.9172" y="-483.9" font-family="Arial" font-size="14.00" fill="#666666">[STRING(36)]</text>
<polygon fill="none" stroke="#000000" points="62,-442.5 62,-472.5 444,-472.5 444,-442.5 62,-442.5"/>
<text text-anchor="start" x="69" y="-453.9" font-family="Arial" font-size="14.00" fill="#000000">UserID </text>
<text text-anchor="start" x="116.4376" y="-453.9" font-family="Arial" font-size="14.00" fill="#666666">[STRING(MAX)]</text>
<polygon fill="none" stroke="#000000" stroke-width="3" points="60.5,-441.5 60.5,-539.5 445.5,-539.5 445.5,-441.5 60.5,-441.5"/>
</g>
<!-- SavedSearches -->
<g id="node2" class="node">
<title>SavedSearches</title>
<polygon fill="#efefef" stroke="transparent" points="43,-282.5 43,-317.5 463,-317.5 463,-282.5 43,-282.5"/>
<polygon fill="none" stroke="#000000" points="43,-282.5 43,-317.5 463,-317.5 463,-282.5 43,-282.5"/>
<text text-anchor="start" x="123.3637" y="-295.3" font-family="Arial Bold" font-size="18.00" fill="#000000">SavedSearches</text>
<text text-anchor="start" x="250.4077" y="-295.3" font-family="Arial" font-size="14.00" fill="#000000">    </text>
<text text-anchor="start" x="284.6125" y="-295.3" font-family="Arial" font-size="14.00" fill="#666666">[BASIC TABLE]</text>
<polygon fill="none" stroke="#000000" points="43,-252.5 43,-282.5 463,-282.5 463,-252.5 43,-252.5"/>
<text text-anchor="start" x="50" y="-263.9" font-family="Arial" font-size="14.00" fill="#000000">ID    </text>
<text text-anchor="start" x="98.202" y="-263.9" font-family="Arial" font-size="14.00" fill="#666666">[STRING(36)]</text>
<polygon fill="none" stroke="#000000" points="43,-222.5 43,-252.5 463,-252.5 463,-222.5 43,-222.5"/>
<text text-anchor="start" x="50" y="-233.9" font-family="Arial" font-size="14.00" fill="#000000">Name    </text>
<text text-anchor="start" x="121.5372" y="-233.9" font-family="Arial" font-size="14.00" fill="#666666">[STRING(MAX)]</text>
<polygon fill="none" stroke="#000000" points="43,-192.5 43,-222.5 463,-222.5 463,-192.5 43,-192.5"/>
<text text-anchor="start" x="50" y="-203.9" font-family="Arial" font-size="14.00" fill="#000000">Query    </text>
<text text-anchor="start" x="122.3212" y="-203.9" font-family="Arial" font-size="14.00" fill="#666666">[STRING(MAX)]</text>
<polygon fill="none" stroke="#000000" points="43,-162.5 43,-192.5 463,-192.5 463,-162.5 43,-162.5"/>
<text text-anchor="start" x="50" y="-173.9" font-family="Arial" font-size="14.00" fill="#000000">Scope    </text>
<text text-anchor="start" x="123.8892" y="-173.9" font-family="Arial" font-size="14.00" fill="#666666">[STRING(MAX)]</text>
<polygon fill="none" stroke="#000000" points="43,-132.5 43,-162.5 463,-162.5 463,-132.5 43,-132.5"/>
<text text-anchor="start" x="50" y="-143.9" font-family="Arial" font-size="14.00" fill="#000000">AuthorID    </text>
<text text-anchor="start" x="139.4376" y="-143.9" font-family="Arial" font-size="14.00" fill="#666666">[STRING(MAX)]</text>
<polygon fill="none" stroke="#000000" points="43,-102.5 43,-132.5 463,-132.5 463,-102.5 43,-102.5"/>
<text text-anchor="start" x="50" y="-113.9" font-family="Arial" font-size="14.00" fill="#000000">CreatedAt    </text>
<text text-anchor="start" x="147.2202" y="-113.9" font-family="Arial" font-size="14.00" fill="#666666">[TIMESTAMP (allow_commit_timestamp=TRUE)]</text>
<polygon fill="none" stroke="#000000" points="43,-72.5 43,-102.5 463,-102.5 463,-72.5 43,-72.5"/>
<text text-anchor="start" x="49.8082" y="-83.9" font-family="Arial" font-size="14.00" fill="#000000">UpdatedAt    </text>
<text text-anchor="start" x="150.1504" y="-83.9" font-family="Arial" font-size="14.00" fill="#666666">[TIMESTAMP (allow_commit_timestamp=TRUE)]</text>
<polygon fill="none" stroke="#000000" points="43,-42.5 43,-72.5 463,-72.5 463,-42.5 43,-42.5"/>
<text text-anchor="start" x="50" y="-53.9" font-family="Arial" font-size="14.00" fill="#000000">Description    </text>
<text text-anchor="start" x="154.2062" y="-53.9" font-family="Arial" font-size="14.00" fill="#666666">[STRING(MAX)]</text>
</g>
<!-- UserSavedSearchBookmarks&#45;&gt;SavedSearches -->
<g id="edge1" class="edge">
<title>UserSavedSearchBookmarks:SavedSearchID&#45;&gt;SavedSearches:ID</title>
<path fill="none" stroke="#000000" stroke-dasharray="5,2" d="M453.6297,-484.5564C495.3504,-458.4499 508.7164,-267.5 463,-267.5"/>
<polygon fill="#000000" stroke="#000000" points="453.5632,-484.5766 442.6845,-483.1966 448.7816,-486.0383 444,-487.5 444,-487.5 444,-487.5 448.7816,-486.0383 445.3155,-491.8034 453.5632,-484.5766 453.5632,-484.5766"/>
</g>
</g>
</svg>
