<?xml version="1.0" encoding="UTF-8" standalone="no"?>
<!DOCTYPE svg PUBLIC "-//W3C//DTD SVG 1.1//EN"
 "http://www.w3.org/Graphics/SVG/1.1/DTD/svg11.dtd">
<!-- Generated by graphviz version 12.1.2 (20240928.0832)
 -->
<!-- Title: WebDXSnapshots Pages: 1 -->
<svg width="377pt" height="290pt"
 viewBox="0.00 0.00 376.54 290.00" xmlns="http://www.w3.org/2000/svg" xmlns:xlink="http://www.w3.org/1999/xlink">
<g id="graph0" class="graph" transform="scale(1 1) rotate(0) translate(4 286)">
<title>WebDXSnapshots</title>
<polygon fill="white" stroke="none" points="-4,4 -4,-286 372.54,-286 372.54,4 -4,4"/>
<!-- WebDXSnapshots -->
<g id="node1" class="node">
<title>WebDXSnapshots</title>
<polygon fill="#efefef" stroke="none" points="46.2,-200.2 46.2,-235.8 322.34,-235.8 322.34,-200.2 46.2,-200.2"/>
<polygon fill="none" stroke="black" points="46.2,-200.2 46.2,-235.8 322.34,-235.8 322.34,-200.2 46.2,-200.2"/>
<text text-anchor="start" x="53.2" y="-213.6" font-family="Arial Bold" font-size="18.00">WebDXSnapshots</text>
<text text-anchor="start" x="186.19" y="-213.6" font-family="Arial" font-size="14.00">    </text>
<text text-anchor="start" x="217.3" y="-213.6" font-family="Arial" font-size="14.00" fill="#666666">[BASIC TABLE]</text>
<polygon fill="none" stroke="black" points="46.2,-169.4 46.2,-200.2 322.34,-200.2 322.34,-169.4 46.2,-169.4"/>
<text text-anchor="start" x="53.2" y="-181.6" font-family="Arial" font-size="14.00">ID </text>
<text text-anchor="start" x="71.09" y="-181.6" font-family="Arial" font-size="14.00" fill="#666666">[STRING(36)]</text>
<polygon fill="none" stroke="black" points="46.2,-138.6 46.2,-169.4 322.34,-169.4 322.34,-138.6 46.2,-138.6"/>
<text text-anchor="start" x="53.2" y="-150.8" font-family="Arial" font-size="14.00">SnapshotKey </text>
<text text-anchor="start" x="140.37" y="-150.8" font-family="Arial" font-size="14.00" fill="#666666">[STRING(64)]</text>
<polygon fill="none" stroke="black" points="46.2,-107.8 46.2,-138.6 322.34,-138.6 322.34,-107.8 46.2,-107.8"/>
<text text-anchor="start" x="53.2" y="-120" font-family="Arial" font-size="14.00">Name </text>
<text text-anchor="start" x="94.43" y="-120" font-family="Arial" font-size="14.00" fill="#666666">[STRING(64)]</text>
<polygon fill="none" stroke="black" points="46.2,-77 46.2,-107.8 322.34,-107.8 322.34,-77 46.2,-77"/>
<text text-anchor="start" x="53.2" y="-89.2" font-family="Arial" font-size="14.00">SnapshotKey_Lowercase </text>
<text text-anchor="start" x="215.86" y="-89.2" font-family="Arial" font-size="14.00" fill="#666666">[STRING(64)]</text>
<polygon fill="none" stroke="black" points="46.2,-46.2 46.2,-77 322.34,-77 322.34,-46.2 46.2,-46.2"/>
<text text-anchor="start" x="53.2" y="-58.4" font-family="Arial" font-size="14.00">Name_Lowercase </text>
<text text-anchor="start" x="169.92" y="-58.4" font-family="Arial" font-size="14.00" fill="#666666">[STRING(64)]</text>
<polygon fill="none" stroke="black" stroke-width="3" points="44.7,-44.7 44.7,-237.3 323.84,-237.3 323.84,-44.7 44.7,-44.7"/>
</g>
</g>
</svg>
