<?xml version="1.0" encoding="UTF-8" standalone="no"?>
<!DOCTYPE svg PUBLIC "-//W3C//DTD SVG 1.1//EN"
 "http://www.w3.org/Graphics/SVG/1.1/DTD/svg11.dtd">
<!-- Generated by graphviz version 2.40.1 (20161225.0304)
 -->
<!-- Title: WebDXGroups Pages: 1 -->
<svg width="464pt" height="562pt"
 viewBox="0.00 0.00 463.65 562.00" xmlns="http://www.w3.org/2000/svg" xmlns:xlink="http://www.w3.org/1999/xlink">
<g id="graph0" class="graph" transform="scale(1 1) rotate(0) translate(4 558)">
<title>WebDXGroups</title>
<polygon fill="#ffffff" stroke="transparent" points="-4,4 -4,-558 459.6477,-558 459.6477,4 -4,4"/>
<!-- WebDXGroups -->
<g id="node1" class="node">
<title>WebDXGroups</title>
<polygon fill="#efefef" stroke="transparent" points="101.1477,-195.5 101.1477,-230.5 368.1477,-230.5 368.1477,-195.5 101.1477,-195.5"/>
<polygon fill="none" stroke="#000000" points="101.1477,-195.5 101.1477,-230.5 368.1477,-230.5 368.1477,-195.5 101.1477,-195.5"/>
<text text-anchor="start" x="108.0264" y="-208.3" font-family="Arial Bold" font-size="18.00" fill="#000000">WebDXGroups</text>
<text text-anchor="start" x="229.0404" y="-208.3" font-family="Arial" font-size="14.00" fill="#000000">    </text>
<text text-anchor="start" x="263.2452" y="-208.3" font-family="Arial" font-size="14.00" fill="#666666">[BASIC TABLE]</text>
<polygon fill="none" stroke="#000000" points="101.1477,-165.5 101.1477,-195.5 368.1477,-195.5 368.1477,-165.5 101.1477,-165.5"/>
<text text-anchor="start" x="108.1477" y="-176.9" font-family="Arial" font-size="14.00" fill="#000000">ID </text>
<text text-anchor="start" x="126.0355" y="-176.9" font-family="Arial" font-size="14.00" fill="#666666">[STRING(36)]</text>
<polygon fill="none" stroke="#000000" points="101.1477,-135.5 101.1477,-165.5 368.1477,-165.5 368.1477,-135.5 101.1477,-135.5"/>
<text text-anchor="start" x="108.1477" y="-146.9" font-family="Arial" font-size="14.00" fill="#000000">GroupKey </text>
<text text-anchor="start" x="175.0565" y="-146.9" font-family="Arial" font-size="14.00" fill="#666666">[STRING(64)]</text>
<polygon fill="none" stroke="#000000" points="101.1477,-105.5 101.1477,-135.5 368.1477,-135.5 368.1477,-105.5 101.1477,-105.5"/>
<text text-anchor="start" x="108.1477" y="-116.9" font-family="Arial" font-size="14.00" fill="#000000">Name </text>
<text text-anchor="start" x="149.3707" y="-116.9" font-family="Arial" font-size="14.00" fill="#666666">[STRING(64)]</text>
<polygon fill="none" stroke="#000000" points="101.1477,-75.5 101.1477,-105.5 368.1477,-105.5 368.1477,-75.5 101.1477,-75.5"/>
<text text-anchor="start" x="108.1477" y="-86.9" font-family="Arial" font-size="14.00" fill="#000000">GroupKey_Lowercase </text>
<text text-anchor="start" x="250.5193" y="-86.9" font-family="Arial" font-size="14.00" fill="#666666">[STRING(64)]</text>
<polygon fill="none" stroke="#000000" points="101.1477,-45.5 101.1477,-75.5 368.1477,-75.5 368.1477,-45.5 101.1477,-45.5"/>
<text text-anchor="start" x="108.1477" y="-56.9" font-family="Arial" font-size="14.00" fill="#000000">Name_Lowercase </text>
<text text-anchor="start" x="224.8335" y="-56.9" font-family="Arial" font-size="14.00" fill="#666666">[STRING(64)]</text>
<polygon fill="none" stroke="#000000" stroke-width="3" points="99.1477,-44.5 99.1477,-232.5 369.1477,-232.5 369.1477,-44.5 99.1477,-44.5"/>
</g>
<!-- FeatureGroupKeysLookup -->
<g id="node2" class="node">
<title>FeatureGroupKeysLookup</title>
<polygon fill="#efefef" stroke="transparent" points="56.1477,-475.5 56.1477,-510.5 413.1477,-510.5 413.1477,-475.5 56.1477,-475.5"/>
<polygon fill="none" stroke="#000000" points="56.1477,-475.5 56.1477,-510.5 413.1477,-510.5 413.1477,-475.5 56.1477,-475.5"/>
<text text-anchor="start" x="62.9985" y="-488.3" font-family="Arial Bold" font-size="18.00" fill="#000000">FeatureGroupKeysLookup</text>
<text text-anchor="start" x="274.0683" y="-488.3" font-family="Arial" font-size="14.00" fill="#000000">    </text>
<text text-anchor="start" x="308.2731" y="-488.3" font-family="Arial" font-size="14.00" fill="#666666">[BASIC TABLE]</text>
<polygon fill="none" stroke="#000000" points="56.1477,-445.5 56.1477,-475.5 413.1477,-475.5 413.1477,-445.5 56.1477,-445.5"/>
<text text-anchor="start" x="63.1477" y="-456.9" font-family="Arial" font-size="14.00" fill="#000000">GroupKey_Lowercase    </text>
<text text-anchor="start" x="235.8335" y="-456.9" font-family="Arial" font-size="14.00" fill="#666666">[STRING(64)]</text>
<polygon fill="none" stroke="#000000" points="56.1477,-415.5 56.1477,-445.5 413.1477,-445.5 413.1477,-415.5 56.1477,-415.5"/>
<text text-anchor="start" x="63.1477" y="-426.9" font-family="Arial" font-size="14.00" fill="#000000">WebFeatureID    </text>
<text text-anchor="start" x="188.3637" y="-426.9" font-family="Arial" font-size="14.00" fill="#666666">[STRING(36)]</text>
<polygon fill="none" stroke="#000000" points="56.1477,-385.5 56.1477,-415.5 413.1477,-415.5 413.1477,-385.5 56.1477,-385.5"/>
<text text-anchor="start" x="63.1477" y="-396.9" font-family="Arial" font-size="14.00" fill="#000000">GroupID    </text>
<text text-anchor="start" x="150.2487" y="-396.9" font-family="Arial" font-size="14.00" fill="#666666">[STRING(36)]</text>
<polygon fill="none" stroke="#000000" points="56.1477,-355.5 56.1477,-385.5 413.1477,-385.5 413.1477,-355.5 56.1477,-355.5"/>
<text text-anchor="start" x="63.1477" y="-366.9" font-family="Arial" font-size="14.00" fill="#000000">Depth    </text>
<text text-anchor="start" x="134.6975" y="-366.9" font-family="Arial" font-size="14.00" fill="#666666">[INT64]</text>
</g>
<!-- FeatureGroupKeysLookup&#45;&gt;WebDXGroups -->
<g id="edge1" class="edge">
<title>FeatureGroupKeysLookup:GroupID&#45;&gt;WebDXGroups:ID</title>
<path fill="none" stroke="#000000" stroke-dasharray="5,2" d="M46.1547,-399.7034C-40.4228,-385.3032 4.8541,-180.5 101.1477,-180.5"/>
<polygon fill="#000000" stroke="#000000" points="46.1793,-399.7053 55.7901,-404.9858 51.1635,-400.1026 56.1477,-400.5 56.1477,-400.5 56.1477,-400.5 51.1635,-400.1026 56.5054,-396.0142 46.1793,-399.7053 46.1793,-399.7053"/>
</g>
</g>
</svg>
