<?xml version="1.0" encoding="UTF-8" standalone="no"?>
<!DOCTYPE svg PUBLIC "-//W3C//DTD SVG 1.1//EN"
 "http://www.w3.org/Graphics/SVG/1.1/DTD/svg11.dtd">
<!-- Generated by graphviz version 12.1.2 (20240928.0832)
 -->
<!-- Title: WebDXGroups Pages: 1 -->
<svg width="789pt" height="571pt"
 viewBox="0.00 0.00 789.05 571.20" xmlns="http://www.w3.org/2000/svg" xmlns:xlink="http://www.w3.org/1999/xlink">
<g id="graph0" class="graph" transform="scale(1 1) rotate(0) translate(4 567.2)">
<title>WebDXGroups</title>
<polygon fill="white" stroke="none" points="-4,4 -4,-567.2 785.05,-567.2 785.05,4 -4,4"/>
<!-- WebDXGroups -->
<g id="node1" class="node">
<title>WebDXGroups</title>
<polygon fill="#efefef" stroke="none" points="83.19,-200.2 83.19,-235.8 339.32,-235.8 339.32,-200.2 83.19,-200.2"/>
<polygon fill="none" stroke="black" points="83.19,-200.2 83.19,-235.8 339.32,-235.8 339.32,-200.2 83.19,-200.2"/>
<text text-anchor="start" x="90.19" y="-213.6" font-family="Arial Bold" font-size="18.00">WebDXGroups</text>
<text text-anchor="start" x="203.16" y="-213.6" font-family="Arial" font-size="14.00">    </text>
<text text-anchor="start" x="234.28" y="-213.6" font-family="Arial" font-size="14.00" fill="#666666">[BASIC TABLE]</text>
<polygon fill="none" stroke="black" points="83.19,-169.4 83.19,-200.2 339.32,-200.2 339.32,-169.4 83.19,-169.4"/>
<text text-anchor="start" x="90.19" y="-181.6" font-family="Arial" font-size="14.00">ID </text>
<text text-anchor="start" x="108.08" y="-181.6" font-family="Arial" font-size="14.00" fill="#666666">[STRING(36)]</text>
<polygon fill="none" stroke="black" points="83.19,-138.6 83.19,-169.4 339.32,-169.4 339.32,-138.6 83.19,-138.6"/>
<text text-anchor="start" x="90.19" y="-150.8" font-family="Arial" font-size="14.00">GroupKey </text>
<text text-anchor="start" x="157.11" y="-150.8" font-family="Arial" font-size="14.00" fill="#666666">[STRING(64)]</text>
<polygon fill="none" stroke="black" points="83.19,-107.8 83.19,-138.6 339.32,-138.6 339.32,-107.8 83.19,-107.8"/>
<text text-anchor="start" x="90.19" y="-120" font-family="Arial" font-size="14.00">Name </text>
<text text-anchor="start" x="131.42" y="-120" font-family="Arial" font-size="14.00" fill="#666666">[STRING(64)]</text>
<polygon fill="none" stroke="black" points="83.19,-77 83.19,-107.8 339.32,-107.8 339.32,-77 83.19,-77"/>
<text text-anchor="start" x="90.19" y="-89.2" font-family="Arial" font-size="14.00">GroupKey_Lowercase </text>
<text text-anchor="start" x="232.6" y="-89.2" font-family="Arial" font-size="14.00" fill="#666666">[STRING(64)]</text>
<polygon fill="none" stroke="black" points="83.19,-46.2 83.19,-77 339.32,-77 339.32,-46.2 83.19,-46.2"/>
<text text-anchor="start" x="90.19" y="-58.4" font-family="Arial" font-size="14.00">Name_Lowercase </text>
<text text-anchor="start" x="206.91" y="-58.4" font-family="Arial" font-size="14.00" fill="#666666">[STRING(64)]</text>
<polygon fill="none" stroke="black" stroke-width="3" points="81.69,-44.7 81.69,-237.3 340.82,-237.3 340.82,-44.7 81.69,-44.7"/>
</g>
<!-- FeatureGroupKeysLookup -->
<g id="node2" class="node">
<title>FeatureGroupKeysLookup</title>
<polygon fill="#efefef" stroke="none" points="43.2,-484.4 43.2,-520 379.31,-520 379.31,-484.4 43.2,-484.4"/>
<polygon fill="none" stroke="black" points="43.2,-484.4 43.2,-520 379.31,-520 379.31,-484.4 43.2,-484.4"/>
<text text-anchor="start" x="50.2" y="-497.8" font-family="Arial Bold" font-size="18.00">FeatureGroupKeysLookup</text>
<text text-anchor="start" x="243.16" y="-497.8" font-family="Arial" font-size="14.00">    </text>
<text text-anchor="start" x="274.27" y="-497.8" font-family="Arial" font-size="14.00" fill="#666666">[BASIC TABLE]</text>
<polygon fill="none" stroke="black" points="43.2,-453.6 43.2,-484.4 379.31,-484.4 379.31,-453.6 43.2,-453.6"/>
<text text-anchor="start" x="50.2" y="-465.8" font-family="Arial" font-size="14.00">GroupKey_Lowercase </text>
<text text-anchor="start" x="192.61" y="-465.8" font-family="Arial" font-size="14.00" fill="#666666">[STRING(64)]</text>
<polygon fill="none" stroke="black" points="43.2,-422.8 43.2,-453.6 379.31,-453.6 379.31,-422.8 43.2,-422.8"/>
<text text-anchor="start" x="50.2" y="-435" font-family="Arial" font-size="14.00">WebFeatureID </text>
<text text-anchor="start" x="145.12" y="-435" font-family="Arial" font-size="14.00" fill="#666666">[STRING(36)]</text>
<polygon fill="none" stroke="black" points="43.2,-392 43.2,-422.8 379.31,-422.8 379.31,-392 43.2,-392"/>
<text text-anchor="start" x="50.2" y="-404.2" font-family="Arial" font-size="14.00">GroupID </text>
<text text-anchor="start" x="107" y="-404.2" font-family="Arial" font-size="14.00" fill="#666666">[STRING(36)]</text>
<polygon fill="none" stroke="black" points="43.2,-361.2 43.2,-392 379.31,-392 379.31,-361.2 43.2,-361.2"/>
<text text-anchor="start" x="50.2" y="-373.4" font-family="Arial" font-size="14.00">Depth </text>
<text text-anchor="start" x="91.45" y="-373.4" font-family="Arial" font-size="14.00" fill="#666666">[INT64]</text>
</g>
<!-- FeatureGroupKeysLookup&#45;&gt;WebDXGroups -->
<g id="edge1" class="edge">
<title>FeatureGroupKeysLookup:GroupID&#45;&gt;WebDXGroups:ID</title>
<path fill="none" stroke="black" d="M390.66,-406.55C477.85,-391.6 437.2,-184.8 340.32,-184.8"/>
<polygon fill="black" stroke="black" points="390.61,-406.55 380.27,-402.89 385.29,-406.99 380.97,-407.35 380.97,-407.35 380.97,-407.35 385.29,-406.99 381.01,-411.86 390.61,-406.55"/>
<text text-anchor="start" x="387.31" y="-417.4" font-family="Arial" font-size="10.00">FOREIGN KEY (GroupID) REFERENCES WebDXGroups (ID) ON DELETE CASCADE</text>
</g>
</g>
</svg>
