<?xml version="1.0" encoding="UTF-8" standalone="no"?>
<!DOCTYPE svg PUBLIC "-//W3C//DTD SVG 1.1//EN"
 "http://www.w3.org/Graphics/SVG/1.1/DTD/svg11.dtd">
<!-- Generated by graphviz version 2.40.1 (20161225.0304)
 -->
<!-- Title: WebDXSnapshots Pages: 1 -->
<svg width="393pt" height="285pt"
 viewBox="0.00 0.00 393.00 285.00" xmlns="http://www.w3.org/2000/svg" xmlns:xlink="http://www.w3.org/1999/xlink">
<g id="graph0" class="graph" transform="scale(1 1) rotate(0) translate(4 281)">
<title>WebDXSnapshots</title>
<polygon fill="#ffffff" stroke="transparent" points="-4,4 -4,-281 389,-281 389,4 -4,4"/>
<!-- WebDXSnapshots -->
<g id="node1" class="node">
<title>WebDXSnapshots</title>
<polygon fill="#efefef" stroke="transparent" points="46.5,-195.5 46.5,-230.5 339.5,-230.5 339.5,-195.5 46.5,-195.5"/>
<polygon fill="none" stroke="#000000" points="46.5,-195.5 46.5,-230.5 339.5,-230.5 339.5,-195.5 46.5,-195.5"/>
<text text-anchor="start" x="53.3665" y="-208.3" font-family="Arial Bold" font-size="18.00" fill="#000000">WebDXSnapshots</text>
<text text-anchor="start" x="200.4049" y="-208.3" font-family="Arial" font-size="14.00" fill="#000000">    </text>
<text text-anchor="start" x="234.6097" y="-208.3" font-family="Arial" font-size="14.00" fill="#666666">[BASIC TABLE]</text>
<polygon fill="none" stroke="#000000" points="46.5,-165.5 46.5,-195.5 339.5,-195.5 339.5,-165.5 46.5,-165.5"/>
<text text-anchor="start" x="53.5" y="-176.9" font-family="Arial" font-size="14.00" fill="#000000">ID </text>
<text text-anchor="start" x="71.3878" y="-176.9" font-family="Arial" font-size="14.00" fill="#666666">[STRING(36)]</text>
<polygon fill="none" stroke="#000000" points="46.5,-135.5 46.5,-165.5 339.5,-165.5 339.5,-135.5 46.5,-135.5"/>
<text text-anchor="start" x="53.5" y="-146.9" font-family="Arial" font-size="14.00" fill="#000000">SnapshotKey </text>
<text text-anchor="start" x="140.65" y="-146.9" font-family="Arial" font-size="14.00" fill="#666666">[STRING(64)]</text>
<polygon fill="none" stroke="#000000" points="46.5,-105.5 46.5,-135.5 339.5,-135.5 339.5,-105.5 46.5,-105.5"/>
<text text-anchor="start" x="53.5" y="-116.9" font-family="Arial" font-size="14.00" fill="#000000">Name </text>
<text text-anchor="start" x="94.723" y="-116.9" font-family="Arial" font-size="14.00" fill="#666666">[STRING(64)]</text>
<polygon fill="none" stroke="#000000" points="46.5,-75.5 46.5,-105.5 339.5,-105.5 339.5,-75.5 46.5,-75.5"/>
<text text-anchor="start" x="53.5" y="-86.9" font-family="Arial" font-size="14.00" fill="#000000">SnapshotKey_Lowercase </text>
<text text-anchor="start" x="216.1128" y="-86.9" font-family="Arial" font-size="14.00" fill="#666666">[STRING(64)]</text>
<polygon fill="none" stroke="#000000" points="46.5,-45.5 46.5,-75.5 339.5,-75.5 339.5,-45.5 46.5,-45.5"/>
<text text-anchor="start" x="53.5" y="-56.9" font-family="Arial" font-size="14.00" fill="#000000">Name_Lowercase </text>
<text text-anchor="start" x="170.1858" y="-56.9" font-family="Arial" font-size="14.00" fill="#666666">[STRING(64)]</text>
<polygon fill="none" stroke="#000000" stroke-width="3" points="44.5,-44.5 44.5,-232.5 340.5,-232.5 340.5,-44.5 44.5,-44.5"/>
</g>
</g>
</svg>
