<?xml version="1.0" encoding="UTF-8" standalone="no"?>
<!DOCTYPE svg PUBLIC "-//W3C//DTD SVG 1.1//EN"
 "http://www.w3.org/Graphics/SVG/1.1/DTD/svg11.dtd">
<!-- Generated by graphviz version 2.40.1 (20161225.0304)
 -->
<!-- Title: WebFeatures Pages: 1 -->
<svg width="1343pt" height="772pt"
 viewBox="0.00 0.00 1342.50 772.00" xmlns="http://www.w3.org/2000/svg" xmlns:xlink="http://www.w3.org/1999/xlink">
<g id="graph0" class="graph" transform="scale(1 1) rotate(0) translate(4 768)">
<title>WebFeatures</title>
<polygon fill="#ffffff" stroke="transparent" points="-4,4 -4,-768 1338.5,-768 1338.5,4 -4,4"/>
<!-- WebFeatures -->
<g id="node1" class="node">
<title>WebFeatures</title>
<polygon fill="#efefef" stroke="transparent" points="546.5,-195.5 546.5,-230.5 800.5,-230.5 800.5,-195.5 546.5,-195.5"/>
<polygon fill="none" stroke="#000000" points="546.5,-195.5 546.5,-230.5 800.5,-230.5 800.5,-195.5 546.5,-195.5"/>
<text text-anchor="start" x="553.3767" y="-208.3" font-family="Arial Bold" font-size="18.00" fill="#000000">WebFeatures</text>
<text text-anchor="start" x="661.3947" y="-208.3" font-family="Arial" font-size="14.00" fill="#000000">    </text>
<text text-anchor="start" x="695.5995" y="-208.3" font-family="Arial" font-size="14.00" fill="#666666">[BASIC TABLE]</text>
<polygon fill="none" stroke="#000000" points="546.5,-165.5 546.5,-195.5 800.5,-195.5 800.5,-165.5 546.5,-165.5"/>
<text text-anchor="start" x="553.5" y="-176.9" font-family="Arial" font-size="14.00" fill="#000000">ID </text>
<text text-anchor="start" x="571.3878" y="-176.9" font-family="Arial" font-size="14.00" fill="#666666">[STRING(36)]</text>
<polygon fill="none" stroke="#000000" points="546.5,-135.5 546.5,-165.5 800.5,-165.5 800.5,-135.5 546.5,-135.5"/>
<text text-anchor="start" x="553.5" y="-146.9" font-family="Arial" font-size="14.00" fill="#000000">FeatureID </text>
<text text-anchor="start" x="619.622" y="-146.9" font-family="Arial" font-size="14.00" fill="#666666">[STRING(64)]</text>
<polygon fill="none" stroke="#000000" points="546.5,-105.5 546.5,-135.5 800.5,-135.5 800.5,-105.5 546.5,-105.5"/>
<text text-anchor="start" x="553.5" y="-116.9" font-family="Arial" font-size="14.00" fill="#000000">Name </text>
<text text-anchor="start" x="594.723" y="-116.9" font-family="Arial" font-size="14.00" fill="#666666">[STRING(64)]</text>
<polygon fill="none" stroke="#000000" points="546.5,-75.5 546.5,-105.5 800.5,-105.5 800.5,-75.5 546.5,-75.5"/>
<text text-anchor="start" x="553.5" y="-86.9" font-family="Arial" font-size="14.00" fill="#000000">FeatureID_Lowercase </text>
<text text-anchor="start" x="695.0848" y="-86.9" font-family="Arial" font-size="14.00" fill="#666666">[STRING(64)]</text>
<polygon fill="none" stroke="#000000" points="546.5,-45.5 546.5,-75.5 800.5,-75.5 800.5,-45.5 546.5,-45.5"/>
<text text-anchor="start" x="553.5" y="-56.9" font-family="Arial" font-size="14.00" fill="#000000">Name_Lowercase </text>
<text text-anchor="start" x="670.1858" y="-56.9" font-family="Arial" font-size="14.00" fill="#666666">[STRING(64)]</text>
<polygon fill="none" stroke="#000000" stroke-width="3" points="545,-44.5 545,-232.5 802,-232.5 802,-44.5 545,-44.5"/>
</g>
<!-- WPTRunFeatureMetrics -->
<g id="node2" class="node">
<title>WPTRunFeatureMetrics</title>
<polygon fill="#efefef" stroke="transparent" points="43.5,-685.5 43.5,-720.5 382.5,-720.5 382.5,-685.5 43.5,-685.5"/>
<polygon fill="none" stroke="#000000" points="43.5,-685.5 43.5,-720.5 382.5,-720.5 382.5,-685.5 43.5,-685.5"/>
<text text-anchor="start" x="50.3859" y="-698.3" font-family="Arial Bold" font-size="18.00" fill="#000000">WPTRunFeatureMetrics</text>
<text text-anchor="start" x="243.3855" y="-698.3" font-family="Arial" font-size="14.00" fill="#000000">    </text>
<text text-anchor="start" x="277.5903" y="-698.3" font-family="Arial" font-size="14.00" fill="#666666">[BASIC TABLE]</text>
<polygon fill="none" stroke="#000000" points="43.5,-655.5 43.5,-685.5 382.5,-685.5 382.5,-655.5 43.5,-655.5"/>
<text text-anchor="start" x="50.5" y="-666.9" font-family="Arial" font-size="14.00" fill="#000000">ID    </text>
<text text-anchor="start" x="98.702" y="-666.9" font-family="Arial" font-size="14.00" fill="#666666">[STRING(36)]</text>
<polygon fill="none" stroke="#000000" points="43.5,-625.5 43.5,-655.5 382.5,-655.5 382.5,-625.5 43.5,-625.5"/>
<text text-anchor="start" x="50.5" y="-636.9" font-family="Arial" font-size="14.00" fill="#000000">FeatureID    </text>
<text text-anchor="start" x="146.9362" y="-636.9" font-family="Arial" font-size="14.00" fill="#666666">[STRING(36)]</text>
<polygon fill="none" stroke="#000000" points="43.5,-595.5 43.5,-625.5 382.5,-625.5 382.5,-595.5 43.5,-595.5"/>
<text text-anchor="start" x="50.5" y="-606.9" font-family="Arial" font-size="14.00" fill="#000000">TotalTests    </text>
<text text-anchor="start" x="150.0456" y="-606.9" font-family="Arial" font-size="14.00" fill="#666666">[INT64]</text>
<polygon fill="none" stroke="#000000" points="43.5,-565.5 43.5,-595.5 382.5,-595.5 382.5,-565.5 43.5,-565.5"/>
<text text-anchor="start" x="50.5" y="-576.9" font-family="Arial" font-size="14.00" fill="#000000">TestPass    </text>
<text text-anchor="start" x="143.0498" y="-576.9" font-family="Arial" font-size="14.00" fill="#666666">[INT64]</text>
<polygon fill="none" stroke="#000000" points="43.5,-535.5 43.5,-565.5 382.5,-565.5 382.5,-535.5 43.5,-535.5"/>
<text text-anchor="start" x="50.5" y="-546.9" font-family="Arial" font-size="14.00" fill="#000000">TestPassRate    </text>
<text text-anchor="start" x="172.6122" y="-546.9" font-family="Arial" font-size="14.00" fill="#666666">[NUMERIC]</text>
<polygon fill="none" stroke="#000000" points="43.5,-505.5 43.5,-535.5 382.5,-535.5 382.5,-505.5 43.5,-505.5"/>
<text text-anchor="start" x="50.5" y="-516.9" font-family="Arial" font-size="14.00" fill="#000000">TotalSubtests    </text>
<text text-anchor="start" x="170.2854" y="-516.9" font-family="Arial" font-size="14.00" fill="#666666">[INT64]</text>
<polygon fill="none" stroke="#000000" points="43.5,-475.5 43.5,-505.5 382.5,-505.5 382.5,-475.5 43.5,-475.5"/>
<text text-anchor="start" x="50.5" y="-486.9" font-family="Arial" font-size="14.00" fill="#000000">SubtestPass    </text>
<text text-anchor="start" x="163.2896" y="-486.9" font-family="Arial" font-size="14.00" fill="#666666">[INT64]</text>
<polygon fill="none" stroke="#000000" points="43.5,-445.5 43.5,-475.5 382.5,-475.5 382.5,-445.5 43.5,-445.5"/>
<text text-anchor="start" x="50.5" y="-456.9" font-family="Arial" font-size="14.00" fill="#000000">SubtestPassRate    </text>
<text text-anchor="start" x="192.852" y="-456.9" font-family="Arial" font-size="14.00" fill="#666666">[NUMERIC]</text>
<polygon fill="none" stroke="#000000" points="43.5,-415.5 43.5,-445.5 382.5,-445.5 382.5,-415.5 43.5,-415.5"/>
<text text-anchor="start" x="50.5" y="-426.9" font-family="Arial" font-size="14.00" fill="#000000">Channel    </text>
<text text-anchor="start" x="136.831" y="-426.9" font-family="Arial" font-size="14.00" fill="#666666">[STRING(32)]</text>
<polygon fill="none" stroke="#000000" points="43.5,-385.5 43.5,-415.5 382.5,-415.5 382.5,-385.5 43.5,-385.5"/>
<text text-anchor="start" x="50.5" y="-396.9" font-family="Arial" font-size="14.00" fill="#000000">BrowserName    </text>
<text text-anchor="start" x="173.3668" y="-396.9" font-family="Arial" font-size="14.00" fill="#666666">[STRING(64)]</text>
<polygon fill="none" stroke="#000000" points="43.5,-355.5 43.5,-385.5 382.5,-385.5 382.5,-355.5 43.5,-355.5"/>
<text text-anchor="start" x="50.5" y="-366.9" font-family="Arial" font-size="14.00" fill="#000000">TimeStart    </text>
<text text-anchor="start" x="145.3682" y="-366.9" font-family="Arial" font-size="14.00" fill="#666666">[TIMESTAMP]</text>
</g>
<!-- WPTRunFeatureMetrics&#45;&gt;WebFeatures -->
<g id="edge1" class="edge">
<title>WPTRunFeatureMetrics:FeatureID&#45;&gt;WebFeatures:ID</title>
<path fill="none" stroke="#000000" stroke-dasharray="5,2" d="M392.4053,-638.6892C451.1425,-615.5163 404.2749,-376.6717 433.5,-313 465.786,-242.6595 469.1038,-180.5 546.5,-180.5"/>
<polygon fill="#000000" stroke="#000000" points="392.337,-638.7016 381.6907,-636.0734 387.4185,-639.6008 382.5,-640.5 382.5,-640.5 382.5,-640.5 387.4185,-639.6008 383.3093,-644.9266 392.337,-638.7016 392.337,-638.7016"/>
</g>
<!-- BrowserFeatureAvailabilities -->
<g id="node3" class="node">
<title>BrowserFeatureAvailabilities</title>
<polygon fill="#efefef" stroke="transparent" points="486.5,-565.5 486.5,-600.5 859.5,-600.5 859.5,-565.5 486.5,-565.5"/>
<polygon fill="none" stroke="#000000" points="486.5,-565.5 486.5,-600.5 859.5,-600.5 859.5,-565.5 486.5,-565.5"/>
<text text-anchor="start" x="493.3822" y="-578.3" font-family="Arial Bold" font-size="18.00" fill="#000000">BrowserFeatureAvailabilities</text>
<text text-anchor="start" x="720.3892" y="-578.3" font-family="Arial" font-size="14.00" fill="#000000">    </text>
<text text-anchor="start" x="754.594" y="-578.3" font-family="Arial" font-size="14.00" fill="#666666">[BASIC TABLE]</text>
<polygon fill="none" stroke="#000000" points="486.5,-535.5 486.5,-565.5 859.5,-565.5 859.5,-535.5 486.5,-535.5"/>
<text text-anchor="start" x="493.5" y="-546.9" font-family="Arial" font-size="14.00" fill="#000000">BrowserName    </text>
<text text-anchor="start" x="616.3668" y="-546.9" font-family="Arial" font-size="14.00" fill="#666666">[STRING(64)]</text>
<polygon fill="none" stroke="#000000" points="486.5,-505.5 486.5,-535.5 859.5,-535.5 859.5,-505.5 486.5,-505.5"/>
<text text-anchor="start" x="493.5" y="-516.9" font-family="Arial" font-size="14.00" fill="#000000">BrowserVersion    </text>
<text text-anchor="start" x="626.486" y="-516.9" font-family="Arial" font-size="14.00" fill="#666666">[STRING(8)]</text>
<polygon fill="none" stroke="#000000" points="486.5,-475.5 486.5,-505.5 859.5,-505.5 859.5,-475.5 486.5,-475.5"/>
<text text-anchor="start" x="493.5" y="-486.9" font-family="Arial" font-size="14.00" fill="#000000">FeatureID    </text>
<text text-anchor="start" x="589.9362" y="-486.9" font-family="Arial" font-size="14.00" fill="#666666">[STRING(36)]</text>
</g>
<!-- BrowserFeatureAvailabilities&#45;&gt;WebFeatures -->
<g id="edge2" class="edge">
<title>BrowserFeatureAvailabilities:FeatureID&#45;&gt;WebFeatures:ID</title>
<path fill="none" stroke="#000000" stroke-dasharray="5,2" d="M673.1833,-465.4283C667.0943,-371.0966 574.9286,-374.1835 546.5,-277 534.4585,-235.8362 503.6111,-180.5 546.5,-180.5"/>
<polygon fill="#000000" stroke="#000000" points="673.1856,-465.5049 669.0022,-475.6415 673.3428,-470.5025 673.5,-475.5 673.5,-475.5 673.5,-475.5 673.3428,-470.5025 677.9978,-475.3585 673.1856,-465.5049 673.1856,-465.5049"/>
</g>
<!-- FeatureBaselineStatus -->
<g id="node4" class="node">
<title>FeatureBaselineStatus</title>
<polygon fill="#efefef" stroke="transparent" points="963.5,-580.5 963.5,-615.5 1291.5,-615.5 1291.5,-580.5 963.5,-580.5"/>
<polygon fill="none" stroke="#000000" points="963.5,-580.5 963.5,-615.5 1291.5,-615.5 1291.5,-580.5 963.5,-580.5"/>
<text text-anchor="start" x="970.3588" y="-593.3" font-family="Arial Bold" font-size="18.00" fill="#000000">FeatureBaselineStatus</text>
<text text-anchor="start" x="1152.4126" y="-593.3" font-family="Arial" font-size="14.00" fill="#000000">    </text>
<text text-anchor="start" x="1186.6174" y="-593.3" font-family="Arial" font-size="14.00" fill="#666666">[BASIC TABLE]</text>
<polygon fill="none" stroke="#000000" points="963.5,-550.5 963.5,-580.5 1291.5,-580.5 1291.5,-550.5 963.5,-550.5"/>
<text text-anchor="start" x="970.5" y="-561.9" font-family="Arial" font-size="14.00" fill="#000000">FeatureID    </text>
<text text-anchor="start" x="1066.9362" y="-561.9" font-family="Arial" font-size="14.00" fill="#666666">[STRING(36)]</text>
<polygon fill="none" stroke="#000000" points="963.5,-520.5 963.5,-550.5 1291.5,-550.5 1291.5,-520.5 963.5,-520.5"/>
<text text-anchor="start" x="970.5" y="-531.9" font-family="Arial" font-size="14.00" fill="#000000">Status    </text>
<text text-anchor="start" x="1044.3878" y="-531.9" font-family="Arial" font-size="14.00" fill="#666666">[STRING(16)]</text>
<polygon fill="none" stroke="#000000" points="963.5,-490.5 963.5,-520.5 1291.5,-520.5 1291.5,-490.5 963.5,-490.5"/>
<text text-anchor="start" x="970.5" y="-501.9" font-family="Arial" font-size="14.00" fill="#000000">LowDate    </text>
<text text-anchor="start" x="1059.939" y="-501.9" font-family="Arial" font-size="14.00" fill="#666666">[TIMESTAMP]</text>
<polygon fill="none" stroke="#000000" points="963.5,-460.5 963.5,-490.5 1291.5,-490.5 1291.5,-460.5 963.5,-460.5"/>
<text text-anchor="start" x="970.5" y="-471.9" font-family="Arial" font-size="14.00" fill="#000000">HighDate    </text>
<text text-anchor="start" x="1063.0456" y="-471.9" font-family="Arial" font-size="14.00" fill="#666666">[TIMESTAMP]</text>
</g>
<!-- FeatureBaselineStatus&#45;&gt;WebFeatures -->
<g id="edge3" class="edge">
<title>FeatureBaselineStatus:FeatureID&#45;&gt;WebFeatures:ID</title>
<path fill="none" stroke="#000000" stroke-dasharray="5,2" d="M953.749,-563.231C909.7732,-540.9684 934.8716,-361.3563 911.5,-313 878.07,-243.8327 877.3224,-180.5 800.5,-180.5"/>
<polygon fill="#000000" stroke="#000000" points="953.7602,-563.2335 962.4801,-569.8829 958.6301,-564.3668 963.5,-565.5 963.5,-565.5 963.5,-565.5 958.6301,-564.3668 964.5199,-561.1171 953.7602,-563.2335 953.7602,-563.2335"/>
</g>
</g>
</svg>
