<?xml version="1.0" encoding="UTF-8" standalone="no"?>
<!DOCTYPE svg PUBLIC "-//W3C//DTD SVG 1.1//EN"
 "http://www.w3.org/Graphics/SVG/1.1/DTD/svg11.dtd">
<!-- Generated by graphviz version 12.1.2 (20240928.0832)
 -->
<!-- Title: WebFeatures Pages: 1 -->
<svg width="6766pt" height="910pt"
 viewBox="0.00 0.00 6766.47 910.00" xmlns="http://www.w3.org/2000/svg" xmlns:xlink="http://www.w3.org/1999/xlink">
<g id="graph0" class="graph" transform="scale(1 1) rotate(0) translate(4 906)">
<title>WebFeatures</title>
<polygon fill="white" stroke="none" points="-4,4 -4,-906 6762.47,-906 6762.47,4 -4,4"/>
<!-- WebFeatures -->
<g id="node1" class="node">
<title>WebFeatures</title>
<polygon fill="#efefef" stroke="none" points="3067.39,-292.6 3067.39,-328.2 3331.12,-328.2 3331.12,-292.6 3067.39,-292.6"/>
<polygon fill="none" stroke="black" points="3067.39,-292.6 3067.39,-328.2 3331.12,-328.2 3331.12,-292.6 3067.39,-292.6"/>
<text text-anchor="start" x="3087.2" y="-306" font-family="Arial Bold" font-size="18.00">WebFeatures</text>
<text text-anchor="start" x="3182.16" y="-306" font-family="Arial" font-size="14.00">    </text>
<text text-anchor="start" x="3213.27" y="-306" font-family="Arial" font-size="14.00" fill="#666666">[BASIC TABLE]</text>
<polygon fill="none" stroke="black" points="3067.39,-261.8 3067.39,-292.6 3331.12,-292.6 3331.12,-261.8 3067.39,-261.8"/>
<text text-anchor="start" x="3074.39" y="-274" font-family="Arial" font-size="14.00">ID </text>
<text text-anchor="start" x="3092.28" y="-274" font-family="Arial" font-size="14.00" fill="#666666">[STRING(36)]</text>
<polygon fill="none" stroke="black" points="3067.39,-231 3067.39,-261.8 3331.12,-261.8 3331.12,-231 3067.39,-231"/>
<text text-anchor="start" x="3074.39" y="-243.2" font-family="Arial" font-size="14.00">FeatureKey </text>
<text text-anchor="start" x="3150.65" y="-243.2" font-family="Arial" font-size="14.00" fill="#666666">[STRING(64)]</text>
<polygon fill="none" stroke="black" points="3067.39,-200.2 3067.39,-231 3331.12,-231 3331.12,-200.2 3067.39,-200.2"/>
<text text-anchor="start" x="3074.39" y="-212.4" font-family="Arial" font-size="14.00">Name </text>
<text text-anchor="start" x="3115.62" y="-212.4" font-family="Arial" font-size="14.00" fill="#666666">[STRING(64)]</text>
<polygon fill="none" stroke="black" points="3067.39,-169.4 3067.39,-200.2 3331.12,-200.2 3331.12,-169.4 3067.39,-169.4"/>
<text text-anchor="start" x="3074.39" y="-181.6" font-family="Arial" font-size="14.00">FeatureKey_Lowercase </text>
<text text-anchor="start" x="3226.14" y="-181.6" font-family="Arial" font-size="14.00" fill="#666666">[STRING(64)]</text>
<polygon fill="none" stroke="black" points="3067.39,-138.6 3067.39,-169.4 3331.12,-169.4 3331.12,-138.6 3067.39,-138.6"/>
<text text-anchor="start" x="3074.39" y="-150.8" font-family="Arial" font-size="14.00">Name_Lowercase </text>
<text text-anchor="start" x="3191.11" y="-150.8" font-family="Arial" font-size="14.00" fill="#666666">[STRING(64)]</text>
<polygon fill="none" stroke="black" points="3067.39,-107.8 3067.39,-138.6 3331.12,-138.6 3331.12,-107.8 3067.39,-107.8"/>
<text text-anchor="start" x="3074.39" y="-120" font-family="Arial" font-size="14.00">Description </text>
<text text-anchor="start" x="3148.3" y="-120" font-family="Arial" font-size="14.00" fill="#666666">[STRING(MAX)]</text>
<polygon fill="none" stroke="black" points="3067.39,-77 3067.39,-107.8 3331.12,-107.8 3331.12,-77 3067.39,-77"/>
<text text-anchor="start" x="3074.39" y="-89.2" font-family="Arial" font-size="14.00">DescriptionHtml </text>
<text text-anchor="start" x="3177.07" y="-89.2" font-family="Arial" font-size="14.00" fill="#666666">[STRING(MAX)]</text>
<polygon fill="none" stroke="black" points="3067.39,-46.2 3067.39,-77 3331.12,-77 3331.12,-46.2 3067.39,-46.2"/>
<text text-anchor="start" x="3074.39" y="-58.4" font-family="Arial" font-size="14.00">Description_Lowercase </text>
<text text-anchor="start" x="3223.79" y="-58.4" font-family="Arial" font-size="14.00" fill="#666666">[STRING(MAX)]</text>
<polygon fill="none" stroke="black" stroke-width="3" points="3065.89,-44.7 3065.89,-329.7 3332.62,-329.7 3332.62,-44.7 3065.89,-44.7"/>
</g>
<!-- BrowserFeatureSupportEvents -->
<g id="node2" class="node">
<title>BrowserFeatureSupportEvents</title>
<polygon fill="#efefef" stroke="none" points="43.2,-715.4 43.2,-751 407.31,-751 407.31,-715.4 43.2,-715.4"/>
<polygon fill="none" stroke="black" points="43.2,-715.4 43.2,-751 407.31,-751 407.31,-715.4 43.2,-715.4"/>
<text text-anchor="start" x="50.2" y="-728.8" font-family="Arial Bold" font-size="18.00">BrowserFeatureSupportEvents</text>
<text text-anchor="start" x="271.16" y="-728.8" font-family="Arial" font-size="14.00">    </text>
<text text-anchor="start" x="302.27" y="-728.8" font-family="Arial" font-size="14.00" fill="#666666">[BASIC TABLE]</text>
<polygon fill="none" stroke="black" points="43.2,-684.6 43.2,-715.4 407.31,-715.4 407.31,-684.6 43.2,-684.6"/>
<text text-anchor="start" x="50.2" y="-696.8" font-family="Arial" font-size="14.00">TargetBrowserName </text>
<text text-anchor="start" x="183.24" y="-696.8" font-family="Arial" font-size="14.00" fill="#666666">[STRING(64)]</text>
<polygon fill="none" stroke="black" points="43.2,-653.8 43.2,-684.6 407.31,-684.6 407.31,-653.8 43.2,-653.8"/>
<text text-anchor="start" x="50.2" y="-666" font-family="Arial" font-size="14.00">EventBrowserName </text>
<text text-anchor="start" x="178.58" y="-666" font-family="Arial" font-size="14.00" fill="#666666">[STRING(64)]</text>
<polygon fill="none" stroke="black" points="43.2,-623 43.2,-653.8 407.31,-653.8 407.31,-623 43.2,-623"/>
<text text-anchor="start" x="50.2" y="-635.2" font-family="Arial" font-size="14.00">EventReleaseDate </text>
<text text-anchor="start" x="170.83" y="-635.2" font-family="Arial" font-size="14.00" fill="#666666">[TIMESTAMP]</text>
<polygon fill="none" stroke="black" points="43.2,-592.2 43.2,-623 407.31,-623 407.31,-592.2 43.2,-592.2"/>
<text text-anchor="start" x="50.2" y="-604.4" font-family="Arial" font-size="14.00">WebFeatureID </text>
<text text-anchor="start" x="145.12" y="-604.4" font-family="Arial" font-size="14.00" fill="#666666">[STRING(36)]</text>
<polygon fill="none" stroke="black" points="43.2,-561.4 43.2,-592.2 407.31,-592.2 407.31,-561.4 43.2,-561.4"/>
<text text-anchor="start" x="50.2" y="-573.6" font-family="Arial" font-size="14.00">SupportStatus </text>
<text text-anchor="start" x="142.81" y="-573.6" font-family="Arial" font-size="14.00" fill="#666666">[STRING(32)]</text>
</g>
<!-- BrowserFeatureSupportEvents&#45;&gt;WebFeatures -->
<g id="edge1" class="edge">
<title>BrowserFeatureSupportEvents:WebFeatureID&#45;&gt;WebFeatures:ID</title>
<path fill="none" stroke="black" d="M418.46,-606.91C490.13,-596.26 392,-465.29 459.25,-410.4 571.61,-318.7 2921.36,-277.2 3066.39,-277.2"/>
<polygon fill="black" stroke="black" points="418.62,-606.9 408.34,-603.09 413.3,-607.26 408.98,-607.55 408.98,-607.55 408.98,-607.55 413.3,-607.26 408.95,-612.07 418.62,-606.9"/>
<text text-anchor="start" x="415.31" y="-617.6" font-family="Arial" font-size="10.00">FOREIGN KEY (WebFeatureID) REFERENCES WebFeatures (ID) ON DELETE CASCADE</text>
</g>
<!-- FeatureBaselineStatus -->
<g id="node3" class="node">
<title>FeatureBaselineStatus</title>
<polygon fill="#efefef" stroke="none" points="511.7,-700 511.7,-735.6 814.81,-735.6 814.81,-700 511.7,-700"/>
<polygon fill="none" stroke="black" points="511.7,-700 511.7,-735.6 814.81,-735.6 814.81,-700 511.7,-700"/>
<text text-anchor="start" x="518.7" y="-713.4" font-family="Arial Bold" font-size="18.00">FeatureBaselineStatus</text>
<text text-anchor="start" x="678.66" y="-713.4" font-family="Arial" font-size="14.00">    </text>
<text text-anchor="start" x="709.78" y="-713.4" font-family="Arial" font-size="14.00" fill="#666666">[BASIC TABLE]</text>
<polygon fill="none" stroke="black" points="511.7,-669.2 511.7,-700 814.81,-700 814.81,-669.2 511.7,-669.2"/>
<text text-anchor="start" x="518.7" y="-681.4" font-family="Arial" font-size="14.00">WebFeatureID </text>
<text text-anchor="start" x="613.62" y="-681.4" font-family="Arial" font-size="14.00" fill="#666666">[STRING(36)]</text>
<polygon fill="none" stroke="black" points="511.7,-638.4 511.7,-669.2 814.81,-669.2 814.81,-638.4 511.7,-638.4"/>
<text text-anchor="start" x="518.7" y="-650.6" font-family="Arial" font-size="14.00">Status </text>
<text text-anchor="start" x="562.28" y="-650.6" font-family="Arial" font-size="14.00" fill="#666666">[STRING(16)]</text>
<polygon fill="none" stroke="black" points="511.7,-607.6 511.7,-638.4 814.81,-638.4 814.81,-607.6 511.7,-607.6"/>
<text text-anchor="start" x="518.7" y="-619.8" font-family="Arial" font-size="14.00">LowDate </text>
<text text-anchor="start" x="577.84" y="-619.8" font-family="Arial" font-size="14.00" fill="#666666">[TIMESTAMP]</text>
<polygon fill="none" stroke="black" points="511.7,-576.8 511.7,-607.6 814.81,-607.6 814.81,-576.8 511.7,-576.8"/>
<text text-anchor="start" x="518.7" y="-589" font-family="Arial" font-size="14.00">HighDate </text>
<text text-anchor="start" x="580.95" y="-589" font-family="Arial" font-size="14.00" fill="#666666">[TIMESTAMP]</text>
</g>
<!-- FeatureBaselineStatus&#45;&gt;WebFeatures -->
<g id="edge2" class="edge">
<title>FeatureBaselineStatus:WebFeatureID&#45;&gt;WebFeatures:ID</title>
<path fill="none" stroke="black" d="M825.98,-684.11C930.33,-673.43 777,-490.03 867.25,-410.4 959.04,-329.42 2943.99,-277.2 3066.39,-277.2"/>
<polygon fill="black" stroke="black" points="826.13,-684.11 815.93,-680.09 820.8,-684.36 816.48,-684.57 816.48,-684.57 816.48,-684.57 820.8,-684.36 816.36,-689.08 826.13,-684.11"/>
<text text-anchor="start" x="612.43" y="-668.6" font-family="Arial" font-size="10.00">FOREIGN KEY (WebFeatureID) REFERENCES WebFeatures (ID) ON DELETE CASCADE</text>
</g>
<!-- FeatureSpecs -->
<g id="node4" class="node">
<title>FeatureSpecs</title>
<polygon fill="#efefef" stroke="none" points="919.69,-669.2 919.69,-704.8 1158.81,-704.8 1158.81,-669.2 919.69,-669.2"/>
<polygon fill="none" stroke="black" points="919.69,-669.2 919.69,-704.8 1158.81,-704.8 1158.81,-669.2 919.69,-669.2"/>
<text text-anchor="start" x="926.69" y="-682.6" font-family="Arial Bold" font-size="18.00">FeatureSpecs</text>
<text text-anchor="start" x="1022.66" y="-682.6" font-family="Arial" font-size="14.00">    </text>
<text text-anchor="start" x="1053.78" y="-682.6" font-family="Arial" font-size="14.00" fill="#666666">[BASIC TABLE]</text>
<polygon fill="none" stroke="black" points="919.69,-638.4 919.69,-669.2 1158.81,-669.2 1158.81,-638.4 919.69,-638.4"/>
<text text-anchor="start" x="926.69" y="-650.6" font-family="Arial" font-size="14.00">WebFeatureID </text>
<text text-anchor="start" x="1021.62" y="-650.6" font-family="Arial" font-size="14.00" fill="#666666">[STRING(36)]</text>
<polygon fill="none" stroke="black" points="919.69,-607.6 919.69,-638.4 1158.81,-638.4 1158.81,-607.6 919.69,-607.6"/>
<text text-anchor="start" x="926.69" y="-619.8" font-family="Arial" font-size="14.00">Links </text>
<text text-anchor="start" x="963.27" y="-619.8" font-family="Arial" font-size="14.00" fill="#666666">[ARRAY&lt;STRING(MAX)&gt;]</text>
</g>
<!-- FeatureSpecs&#45;&gt;WebFeatures -->
<g id="edge3" class="edge">
<title>FeatureSpecs:WebFeatureID&#45;&gt;WebFeatures:ID</title>
<path fill="none" stroke="black" d="M1170,-653.25C1261.03,-642.58 1129.89,-480.75 1210.25,-410.4 1288.04,-342.3 2963,-277.2 3066.39,-277.2"/>
<polygon fill="black" stroke="black" points="1170.13,-653.24 1159.9,-649.29 1164.81,-653.53 1160.48,-653.76 1160.48,-653.76 1160.48,-653.76 1164.81,-653.53 1160.39,-658.28 1170.13,-653.24"/>
<text text-anchor="start" x="956.44" y="-637.8" font-family="Arial" font-size="10.00">FOREIGN KEY (WebFeatureID) REFERENCES WebFeatures (ID) ON DELETE CASCADE</text>
</g>
<!-- LatestFeatureDeveloperSignals -->
<g id="node5" class="node">
<title>LatestFeatureDeveloperSignals</title>
<polygon fill="#efefef" stroke="none" points="1262.72,-684.6 1262.72,-720.2 1631.79,-720.2 1631.79,-684.6 1262.72,-684.6"/>
<polygon fill="none" stroke="black" points="1262.72,-684.6 1262.72,-720.2 1631.79,-720.2 1631.79,-684.6 1262.72,-684.6"/>
<text text-anchor="start" x="1269.72" y="-698" font-family="Arial Bold" font-size="18.00">LatestFeatureDeveloperSignals</text>
<text text-anchor="start" x="1495.64" y="-698" font-family="Arial" font-size="14.00">    </text>
<text text-anchor="start" x="1526.76" y="-698" font-family="Arial" font-size="14.00" fill="#666666">[BASIC TABLE]</text>
<polygon fill="none" stroke="black" points="1262.72,-653.8 1262.72,-684.6 1631.79,-684.6 1631.79,-653.8 1262.72,-653.8"/>
<text text-anchor="start" x="1269.72" y="-666" font-family="Arial" font-size="14.00">WebFeatureID </text>
<text text-anchor="start" x="1364.64" y="-666" font-family="Arial" font-size="14.00" fill="#666666">[STRING(36)]</text>
<polygon fill="none" stroke="black" points="1262.72,-623 1262.72,-653.8 1631.79,-653.8 1631.79,-623 1262.72,-623"/>
<text text-anchor="start" x="1269.72" y="-635.2" font-family="Arial" font-size="14.00">Upvotes </text>
<text text-anchor="start" x="1324.97" y="-635.2" font-family="Arial" font-size="14.00" fill="#666666">[INT64]</text>
<polygon fill="none" stroke="black" points="1262.72,-592.2 1262.72,-623 1631.79,-623 1631.79,-592.2 1262.72,-592.2"/>
<text text-anchor="start" x="1269.72" y="-604.4" font-family="Arial" font-size="14.00">Link </text>
<text text-anchor="start" x="1299.29" y="-604.4" font-family="Arial" font-size="14.00" fill="#666666">[STRING(MAX)]</text>
</g>
<!-- LatestFeatureDeveloperSignals&#45;&gt;WebFeatures -->
<g id="edge4" class="edge">
<title>LatestFeatureDeveloperSignals:WebFeatureID&#45;&gt;WebFeatures:ID</title>
<path fill="none" stroke="black" d="M1643.01,-668.68C1740.75,-658.04 1600,-486.61 1684.25,-410.4 1798.68,-306.91 2912.1,-277.2 3066.39,-277.2"/>
<polygon fill="black" stroke="black" points="1643.11,-668.68 1632.9,-664.69 1637.78,-668.95 1633.46,-669.17 1633.46,-669.17 1633.46,-669.17 1637.78,-668.95 1633.35,-673.68 1643.11,-668.68"/>
<text text-anchor="start" x="1639.79" y="-679.2" font-family="Arial" font-size="10.00">FOREIGN KEY (WebFeatureID) REFERENCES WebFeatures (ID) ON DELETE CASCADE</text>
</g>
<!-- MovedWebFeatures -->
<g id="node6" class="node">
<title>MovedWebFeatures</title>
<polygon fill="#efefef" stroke="none" points="1736.48,-700 1736.48,-735.6 2036.03,-735.6 2036.03,-700 1736.48,-700"/>
<polygon fill="none" stroke="black" points="1736.48,-700 1736.48,-735.6 2036.03,-735.6 2036.03,-700 1736.48,-700"/>
<text text-anchor="start" x="1748.7" y="-713.4" font-family="Arial Bold" font-size="18.00">MovedWebFeatures</text>
<text text-anchor="start" x="1894.65" y="-713.4" font-family="Arial" font-size="14.00">    </text>
<text text-anchor="start" x="1925.77" y="-713.4" font-family="Arial" font-size="14.00" fill="#666666">[BASIC TABLE]</text>
<polygon fill="none" stroke="black" points="1736.48,-669.2 1736.48,-700 2036.03,-700 2036.03,-669.2 1736.48,-669.2"/>
<text text-anchor="start" x="1743.48" y="-681.4" font-family="Arial" font-size="14.00">ID </text>
<text text-anchor="start" x="1761.37" y="-681.4" font-family="Arial" font-size="14.00" fill="#666666">[STRING(36)]</text>
<polygon fill="none" stroke="black" points="1736.48,-638.4 1736.48,-669.2 2036.03,-669.2 2036.03,-638.4 1736.48,-638.4"/>
<text text-anchor="start" x="1743.48" y="-650.6" font-family="Arial" font-size="14.00">OriginalFeatureKey </text>
<text text-anchor="start" x="1867.98" y="-650.6" font-family="Arial" font-size="14.00" fill="#666666">[STRING(64)]</text>
<polygon fill="none" stroke="black" points="1736.48,-607.6 1736.48,-638.4 2036.03,-638.4 2036.03,-607.6 1736.48,-607.6"/>
<text text-anchor="start" x="1743.48" y="-619.8" font-family="Arial" font-size="14.00">TargetWebFeatureID </text>
<text text-anchor="start" x="1878.86" y="-619.8" font-family="Arial" font-size="14.00" fill="#666666">[STRING(36)]</text>
<polygon fill="none" stroke="black" points="1736.48,-576.8 1736.48,-607.6 2036.03,-607.6 2036.03,-576.8 1736.48,-576.8"/>
<text text-anchor="start" x="1743.48" y="-589" font-family="Arial" font-size="14.00">OriginalFeatureKey_Lowercase </text>
<text text-anchor="start" x="1943.47" y="-589" font-family="Arial" font-size="14.00" fill="#666666">[STRING(64)]</text>
</g>
<!-- MovedWebFeatures&#45;&gt;WebFeatures -->
<g id="edge5" class="edge">
<title>MovedWebFeatures:TargetWebFeatureID&#45;&gt;WebFeatures:ID</title>
<path fill="none" stroke="black" d="M2046.98,-622.4C2125.72,-612.17 2018.82,-473.15 2088.25,-410.4 2169.63,-336.86 2956.7,-277.2 3066.39,-277.2"/>
<polygon fill="black" stroke="black" points="2047.35,-622.38 2037.1,-618.49 2042.02,-622.7 2037.7,-622.96 2037.7,-622.96 2037.7,-622.96 2042.02,-622.7 2037.64,-627.47 2047.35,-622.38"/>
<text text-anchor="start" x="1594.38" y="-633" font-family="Arial" font-size="10.00">FOREIGN KEY (TargetWebFeatureID) REFERENCES WebFeatures (ID) ON DELETE CASCADE</text>
</g>
<!-- SplitWebFeatures -->
<g id="node7" class="node">
<title>SplitWebFeatures</title>
<polygon fill="#efefef" stroke="none" points="2140.48,-700 2140.48,-735.6 2440.03,-735.6 2440.03,-700 2140.48,-700"/>
<polygon fill="none" stroke="black" points="2140.48,-700 2140.48,-735.6 2440.03,-735.6 2440.03,-700 2140.48,-700"/>
<text text-anchor="start" x="2161.19" y="-713.4" font-family="Arial Bold" font-size="18.00">SplitWebFeatures</text>
<text text-anchor="start" x="2290.16" y="-713.4" font-family="Arial" font-size="14.00">    </text>
<text text-anchor="start" x="2321.28" y="-713.4" font-family="Arial" font-size="14.00" fill="#666666">[BASIC TABLE]</text>
<polygon fill="none" stroke="black" points="2140.48,-669.2 2140.48,-700 2440.03,-700 2440.03,-669.2 2140.48,-669.2"/>
<text text-anchor="start" x="2147.48" y="-681.4" font-family="Arial" font-size="14.00">ID </text>
<text text-anchor="start" x="2165.37" y="-681.4" font-family="Arial" font-size="14.00" fill="#666666">[STRING(36)]</text>
<polygon fill="none" stroke="black" points="2140.48,-638.4 2140.48,-669.2 2440.03,-669.2 2440.03,-638.4 2140.48,-638.4"/>
<text text-anchor="start" x="2147.48" y="-650.6" font-family="Arial" font-size="14.00">OriginalFeatureKey </text>
<text text-anchor="start" x="2271.98" y="-650.6" font-family="Arial" font-size="14.00" fill="#666666">[STRING(64)]</text>
<polygon fill="none" stroke="black" points="2140.48,-607.6 2140.48,-638.4 2440.03,-638.4 2440.03,-607.6 2140.48,-607.6"/>
<text text-anchor="start" x="2147.48" y="-619.8" font-family="Arial" font-size="14.00">TargetWebFeatureID </text>
<text text-anchor="start" x="2282.86" y="-619.8" font-family="Arial" font-size="14.00" fill="#666666">[STRING(36)]</text>
<polygon fill="none" stroke="black" points="2140.48,-576.8 2140.48,-607.6 2440.03,-607.6 2440.03,-576.8 2140.48,-576.8"/>
<text text-anchor="start" x="2147.48" y="-589" font-family="Arial" font-size="14.00">OriginalFeatureKey_Lowercase </text>
<text text-anchor="start" x="2347.47" y="-589" font-family="Arial" font-size="14.00" fill="#666666">[STRING(64)]</text>
</g>
<!-- SplitWebFeatures&#45;&gt;WebFeatures -->
<g id="edge6" class="edge">
<title>SplitWebFeatures:TargetWebFeatureID&#45;&gt;WebFeatures:ID</title>
<path fill="none" stroke="black" d="M2451,-622.42C2529.94,-612.4 2425.8,-476.29 2492.25,-410.4 2585.26,-318.18 2935.41,-277.2 3066.39,-277.2"/>
<polygon fill="black" stroke="black" points="2451.35,-622.39 2441.1,-618.49 2446.02,-622.71 2441.7,-622.96 2441.7,-622.96 2441.7,-622.96 2446.02,-622.71 2441.63,-627.47 2451.35,-622.39"/>
<text text-anchor="start" x="2223.21" y="-607" font-family="Arial" font-size="10.00">FOREIGN KEY (TargetWebFeatureID) REFERENCES WebFeatures (ID) ON DELETE CASCADE</text>
</g>
<!-- SystemManagedSavedSearches -->
<g id="node8" class="node">
<title>SystemManagedSavedSearches</title>
<polygon fill="#efefef" stroke="none" points="2544.18,-700 2544.18,-735.6 2934.33,-735.6 2934.33,-700 2544.18,-700"/>
<polygon fill="none" stroke="black" points="2544.18,-700 2544.18,-735.6 2934.33,-735.6 2934.33,-700 2544.18,-700"/>
<text text-anchor="start" x="2560.71" y="-713.4" font-family="Arial Bold" font-size="18.00">SystemManagedSavedSearches</text>
<text text-anchor="start" x="2788.65" y="-713.4" font-family="Arial" font-size="14.00">    </text>
<text text-anchor="start" x="2819.76" y="-713.4" font-family="Arial" font-size="14.00" fill="#666666">[BASIC TABLE]</text>
<polygon fill="none" stroke="black" points="2544.18,-669.2 2544.18,-700 2934.33,-700 2934.33,-669.2 2544.18,-669.2"/>
<text text-anchor="start" x="2551.18" y="-681.4" font-family="Arial" font-size="14.00">FeatureID </text>
<text text-anchor="start" x="2617.31" y="-681.4" font-family="Arial" font-size="14.00" fill="#666666">[STRING(36)]</text>
<polygon fill="none" stroke="black" points="2544.18,-638.4 2544.18,-669.2 2934.33,-669.2 2934.33,-638.4 2544.18,-638.4"/>
<text text-anchor="start" x="2551.18" y="-650.6" font-family="Arial" font-size="14.00">SavedSearchID </text>
<text text-anchor="start" x="2653.12" y="-650.6" font-family="Arial" font-size="14.00" fill="#666666">[STRING(36)]</text>
<polygon fill="none" stroke="black" points="2544.18,-607.6 2544.18,-638.4 2934.33,-638.4 2934.33,-607.6 2544.18,-607.6"/>
<text text-anchor="start" x="2551.18" y="-619.8" font-family="Arial" font-size="14.00">CreatedAt </text>
<text text-anchor="start" x="2618.1" y="-619.8" font-family="Arial" font-size="14.00" fill="#666666">[TIMESTAMP (allow_commit_timestamp=TRUE)]</text>
<polygon fill="none" stroke="black" points="2544.18,-576.8 2544.18,-607.6 2934.33,-607.6 2934.33,-576.8 2544.18,-576.8"/>
<text text-anchor="start" x="2551.18" y="-589" font-family="Arial" font-size="14.00">UpdatedAt </text>
<text text-anchor="start" x="2621.22" y="-589" font-family="Arial" font-size="14.00" fill="#666666">[TIMESTAMP (allow_commit_timestamp=TRUE)]</text>
</g>
<!-- SystemManagedSavedSearches&#45;&gt;WebFeatures -->
<g id="edge7" class="edge">
<title>SystemManagedSavedSearches:FeatureID&#45;&gt;WebFeatures:ID</title>
<path fill="none" stroke="black" d="M2945.29,-682.45C2993.78,-659.81 2966.6,-465.01 2987.25,-410.4 3011.61,-345.99 2997.53,-277.2 3066.39,-277.2"/>
<polygon fill="black" stroke="black" points="2945.43,-682.42 2934.71,-680.13 2940.22,-683.54 2935.99,-684.46 2935.99,-684.46 2935.99,-684.46 2940.22,-683.54 2936.61,-688.93 2945.43,-682.42"/>
<text text-anchor="start" x="2942.33" y="-694.6" font-family="Arial" font-size="10.00">FOREIGN KEY (FeatureID) REFERENCES WebFeatures (ID) ON DELETE CASCADE</text>
</g>
<!-- WPTRunFeatureMetrics -->
<g id="node9" class="node">
<title>WPTRunFeatureMetrics</title>
<polygon fill="#efefef" stroke="none" points="3039.2,-823.2 3039.2,-858.8 3359.31,-858.8 3359.31,-823.2 3039.2,-823.2"/>
<polygon fill="none" stroke="black" points="3039.2,-823.2 3039.2,-858.8 3359.31,-858.8 3359.31,-823.2 3039.2,-823.2"/>
<text text-anchor="start" x="3046.2" y="-836.6" font-family="Arial Bold" font-size="18.00">WPTRunFeatureMetrics</text>
<text text-anchor="start" x="3223.16" y="-836.6" font-family="Arial" font-size="14.00">    </text>
<text text-anchor="start" x="3254.28" y="-836.6" font-family="Arial" font-size="14.00" fill="#666666">[BASIC TABLE]</text>
<polygon fill="none" stroke="black" points="3039.2,-792.4 3039.2,-823.2 3359.31,-823.2 3359.31,-792.4 3039.2,-792.4"/>
<text text-anchor="start" x="3046.2" y="-804.6" font-family="Arial" font-size="14.00">ID </text>
<text text-anchor="start" x="3064.09" y="-804.6" font-family="Arial" font-size="14.00" fill="#666666">[STRING(36)]</text>
<polygon fill="none" stroke="black" points="3039.2,-761.6 3039.2,-792.4 3359.31,-792.4 3359.31,-761.6 3039.2,-761.6"/>
<text text-anchor="start" x="3046.2" y="-773.8" font-family="Arial" font-size="14.00">WebFeatureID </text>
<text text-anchor="start" x="3141.12" y="-773.8" font-family="Arial" font-size="14.00" fill="#666666">[STRING(36)]</text>
<polygon fill="none" stroke="black" points="3039.2,-730.8 3039.2,-761.6 3359.31,-761.6 3359.31,-730.8 3039.2,-730.8"/>
<text text-anchor="start" x="3046.2" y="-743" font-family="Arial" font-size="14.00">TotalTests </text>
<text text-anchor="start" x="3115.44" y="-743" font-family="Arial" font-size="14.00" fill="#666666">[INT64]</text>
<polygon fill="none" stroke="black" points="3039.2,-700 3039.2,-730.8 3359.31,-730.8 3359.31,-700 3039.2,-700"/>
<text text-anchor="start" x="3046.2" y="-712.2" font-family="Arial" font-size="14.00">TestPass </text>
<text text-anchor="start" x="3108.44" y="-712.2" font-family="Arial" font-size="14.00" fill="#666666">[INT64]</text>
<polygon fill="none" stroke="black" points="3039.2,-669.2 3039.2,-700 3359.31,-700 3359.31,-669.2 3039.2,-669.2"/>
<text text-anchor="start" x="3046.2" y="-681.4" font-family="Arial" font-size="14.00">TestPassRate </text>
<text text-anchor="start" x="3138.01" y="-681.4" font-family="Arial" font-size="14.00" fill="#666666">[NUMERIC]</text>
<polygon fill="none" stroke="black" points="3039.2,-638.4 3039.2,-669.2 3359.31,-669.2 3359.31,-638.4 3039.2,-638.4"/>
<text text-anchor="start" x="3046.2" y="-650.6" font-family="Arial" font-size="14.00">TotalSubtests </text>
<text text-anchor="start" x="3135.69" y="-650.6" font-family="Arial" font-size="14.00" fill="#666666">[INT64]</text>
<polygon fill="none" stroke="black" points="3039.2,-607.6 3039.2,-638.4 3359.31,-638.4 3359.31,-607.6 3039.2,-607.6"/>
<text text-anchor="start" x="3046.2" y="-619.8" font-family="Arial" font-size="14.00">SubtestPass </text>
<text text-anchor="start" x="3128.69" y="-619.8" font-family="Arial" font-size="14.00" fill="#666666">[INT64]</text>
<polygon fill="none" stroke="black" points="3039.2,-576.8 3039.2,-607.6 3359.31,-607.6 3359.31,-576.8 3039.2,-576.8"/>
<text text-anchor="start" x="3046.2" y="-589" font-family="Arial" font-size="14.00">SubtestPassRate </text>
<text text-anchor="start" x="3158.26" y="-589" font-family="Arial" font-size="14.00" fill="#666666">[NUMERIC]</text>
<polygon fill="none" stroke="black" points="3039.2,-546 3039.2,-576.8 3359.31,-576.8 3359.31,-546 3039.2,-546"/>
<text text-anchor="start" x="3046.2" y="-558.2" font-family="Arial" font-size="14.00">Channel </text>
<text text-anchor="start" x="3102.24" y="-558.2" font-family="Arial" font-size="14.00" fill="#666666">[STRING(32)]</text>
<polygon fill="none" stroke="black" points="3039.2,-515.2 3039.2,-546 3359.31,-546 3359.31,-515.2 3039.2,-515.2"/>
<text text-anchor="start" x="3046.2" y="-527.4" font-family="Arial" font-size="14.00">BrowserName </text>
<text text-anchor="start" x="3138.78" y="-527.4" font-family="Arial" font-size="14.00" fill="#666666">[STRING(64)]</text>
<polygon fill="none" stroke="black" points="3039.2,-484.4 3039.2,-515.2 3359.31,-515.2 3359.31,-484.4 3039.2,-484.4"/>
<text text-anchor="start" x="3046.2" y="-496.6" font-family="Arial" font-size="14.00">TimeStart </text>
<text text-anchor="start" x="3110.76" y="-496.6" font-family="Arial" font-size="14.00" fill="#666666">[TIMESTAMP]</text>
<polygon fill="none" stroke="black" points="3039.2,-453.6 3039.2,-484.4 3359.31,-484.4 3359.31,-453.6 3039.2,-453.6"/>
<text text-anchor="start" x="3046.2" y="-465.8" font-family="Arial" font-size="14.00">FeatureRunDetails </text>
<text text-anchor="start" x="3166.81" y="-465.8" font-family="Arial" font-size="14.00" fill="#666666">[JSON]</text>
</g>
<!-- WPTRunFeatureMetrics&#45;&gt;WebFeatures -->
<g id="edge8" class="edge">
<title>WPTRunFeatureMetrics:WebFeatureID&#45;&gt;WebFeatures:ID</title>
<path fill="none" stroke="black" d="M3369.23,-772.05C3412.53,-720.15 3384.49,-277.2 3332.12,-277.2"/>
<polygon fill="black" stroke="black" points="3369.35,-771.99 3358.42,-772.9 3364.68,-774.58 3360.89,-776.68 3360.89,-776.68 3360.89,-776.68 3364.68,-774.58 3362.78,-780.77 3369.35,-771.99"/>
<text text-anchor="start" x="3367.31" y="-787" font-family="Arial" font-size="10.00">FOREIGN KEY (WebFeatureID) REFERENCES WebFeatures (ID) ON DELETE CASCADE</text>
</g>
<!-- WebFeatureSnapshots -->
<g id="node10" class="node">
<title>WebFeatureSnapshots</title>
<polygon fill="#efefef" stroke="none" points="3464.2,-669.2 3464.2,-704.8 3768.31,-704.8 3768.31,-669.2 3464.2,-669.2"/>
<polygon fill="none" stroke="black" points="3464.2,-669.2 3464.2,-704.8 3768.31,-704.8 3768.31,-669.2 3464.2,-669.2"/>
<text text-anchor="start" x="3471.2" y="-682.6" font-family="Arial Bold" font-size="18.00">WebFeatureSnapshots</text>
<text text-anchor="start" x="3632.16" y="-682.6" font-family="Arial" font-size="14.00">    </text>
<text text-anchor="start" x="3663.28" y="-682.6" font-family="Arial" font-size="14.00" fill="#666666">[BASIC TABLE]</text>
<polygon fill="none" stroke="black" points="3464.2,-638.4 3464.2,-669.2 3768.31,-669.2 3768.31,-638.4 3464.2,-638.4"/>
<text text-anchor="start" x="3471.2" y="-650.6" font-family="Arial" font-size="14.00">WebFeatureID </text>
<text text-anchor="start" x="3566.12" y="-650.6" font-family="Arial" font-size="14.00" fill="#666666">[STRING(36)]</text>
<polygon fill="none" stroke="black" points="3464.2,-607.6 3464.2,-638.4 3768.31,-638.4 3768.31,-607.6 3464.2,-607.6"/>
<text text-anchor="start" x="3471.2" y="-619.8" font-family="Arial" font-size="14.00">SnapshotIDs </text>
<text text-anchor="start" x="3555.24" y="-619.8" font-family="Arial" font-size="14.00" fill="#666666">[ARRAY&lt;STRING(36)&gt;]</text>
</g>
<!-- WebFeatureSnapshots&#45;&gt;WebFeatures -->
<g id="edge9" class="edge">
<title>WebFeatureSnapshots:WebFeatureID&#45;&gt;WebFeatures:ID</title>
<path fill="none" stroke="black" d="M3453.19,-651.36C3410.82,-628.93 3430.08,-458.48 3411.25,-410.4 3386.15,-346.28 3400.98,-277.2 3332.12,-277.2"/>
<polygon fill="black" stroke="black" points="3453.16,-651.35 3461.81,-658.09 3458.34,-652.62 3462.55,-653.64 3462.55,-653.64 3462.55,-653.64 3458.34,-652.62 3463.94,-649.35 3453.16,-651.35"/>
<text text-anchor="start" x="3049.44" y="-663.8" font-family="Arial" font-size="10.00">FOREIGN KEY (WebFeatureID) REFERENCES WebFeatures (ID) ON DELETE CASCADE</text>
</g>
<!-- BrowserFeatureAvailabilities -->
<g id="node11" class="node">
<title>BrowserFeatureAvailabilities</title>
<polygon fill="#efefef" stroke="none" points="3872.71,-684.6 3872.71,-720.2 4227.8,-720.2 4227.8,-684.6 3872.71,-684.6"/>
<polygon fill="none" stroke="black" points="3872.71,-684.6 3872.71,-720.2 4227.8,-720.2 4227.8,-684.6 3872.71,-684.6"/>
<text text-anchor="start" x="3879.71" y="-698" font-family="Arial Bold" font-size="18.00">BrowserFeatureAvailabilities</text>
<text text-anchor="start" x="4091.65" y="-698" font-family="Arial" font-size="14.00">    </text>
<text text-anchor="start" x="4122.77" y="-698" font-family="Arial" font-size="14.00" fill="#666666">[BASIC TABLE]</text>
<polygon fill="none" stroke="black" points="3872.71,-653.8 3872.71,-684.6 4227.8,-684.6 4227.8,-653.8 3872.71,-653.8"/>
<text text-anchor="start" x="3879.71" y="-666" font-family="Arial" font-size="14.00">BrowserName </text>
<text text-anchor="start" x="3972.29" y="-666" font-family="Arial" font-size="14.00" fill="#666666">[STRING(64)]</text>
<polygon fill="none" stroke="black" points="3872.71,-623 3872.71,-653.8 4227.8,-653.8 4227.8,-623 3872.71,-623"/>
<text text-anchor="start" x="3879.71" y="-635.2" font-family="Arial" font-size="14.00">BrowserVersion </text>
<text text-anchor="start" x="3982.41" y="-635.2" font-family="Arial" font-size="14.00" fill="#666666">[STRING(8)]</text>
<polygon fill="none" stroke="black" points="3872.71,-592.2 3872.71,-623 4227.8,-623 4227.8,-592.2 3872.71,-592.2"/>
<text text-anchor="start" x="3879.71" y="-604.4" font-family="Arial" font-size="14.00">WebFeatureID </text>
<text text-anchor="start" x="3974.63" y="-604.4" font-family="Arial" font-size="14.00" fill="#666666">[STRING(36)]</text>
</g>
<!-- BrowserFeatureAvailabilities&#45;&gt;WebFeatures -->
<g id="edge10" class="edge">
<title>BrowserFeatureAvailabilities:WebFeatureID&#45;&gt;WebFeatures:ID</title>
<path fill="none" stroke="black" d="M3861.51,-606.94C3789.28,-596.82 3881.33,-472.16 3820.25,-410.4 3741.19,-330.45 3444.56,-277.2 3332.12,-277.2"/>
<polygon fill="black" stroke="black" points="3861.4,-606.94 3871.09,-612.07 3866.72,-607.28 3871.04,-607.56 3871.04,-607.56 3871.04,-607.56 3866.72,-607.28 3871.66,-603.09 3861.4,-606.94"/>
<text text-anchor="start" x="3457.96" y="-617.6" font-family="Arial" font-size="10.00">FOREIGN KEY (WebFeatureID) REFERENCES WebFeatures (ID) ON DELETE CASCADE</text>
</g>
<!-- FeatureDiscouragedDetails -->
<g id="node12" class="node">
<title>FeatureDiscouragedDetails</title>
<polygon fill="#efefef" stroke="none" points="4331.72,-684.6 4331.72,-720.2 4670.79,-720.2 4670.79,-684.6 4331.72,-684.6"/>
<polygon fill="none" stroke="black" points="4331.72,-684.6 4331.72,-720.2 4670.79,-720.2 4670.79,-684.6 4331.72,-684.6"/>
<text text-anchor="start" x="4338.72" y="-698" font-family="Arial Bold" font-size="18.00">FeatureDiscouragedDetails</text>
<text text-anchor="start" x="4534.64" y="-698" font-family="Arial" font-size="14.00">    </text>
<text text-anchor="start" x="4565.76" y="-698" font-family="Arial" font-size="14.00" fill="#666666">[BASIC TABLE]</text>
<polygon fill="none" stroke="black" points="4331.72,-653.8 4331.72,-684.6 4670.79,-684.6 4670.79,-653.8 4331.72,-653.8"/>
<text text-anchor="start" x="4338.72" y="-666" font-family="Arial" font-size="14.00">WebFeatureID </text>
<text text-anchor="start" x="4433.64" y="-666" font-family="Arial" font-size="14.00" fill="#666666">[STRING(MAX)]</text>
<polygon fill="none" stroke="black" points="4331.72,-623 4331.72,-653.8 4670.79,-653.8 4670.79,-623 4331.72,-623"/>
<text text-anchor="start" x="4338.72" y="-635.2" font-family="Arial" font-size="14.00">AccordingTo </text>
<text text-anchor="start" x="4421.2" y="-635.2" font-family="Arial" font-size="14.00" fill="#666666">[ARRAY&lt;STRING(MAX)&gt;]</text>
<polygon fill="none" stroke="black" points="4331.72,-592.2 4331.72,-623 4670.79,-623 4670.79,-592.2 4331.72,-592.2"/>
<text text-anchor="start" x="4338.72" y="-604.4" font-family="Arial" font-size="14.00">Alternatives </text>
<text text-anchor="start" x="4415.75" y="-604.4" font-family="Arial" font-size="14.00" fill="#666666">[ARRAY&lt;STRING(MAX)&gt;]</text>
</g>
<!-- FeatureDiscouragedDetails&#45;&gt;WebFeatures -->
<g id="edge11" class="edge">
<title>FeatureDiscouragedDetails:WebFeatureID&#45;&gt;WebFeatures:ID</title>
<path fill="none" stroke="black" d="M4320.5,-668.69C4222.78,-658.16 4362.63,-488.52 4280.25,-410.4 4203.06,-337.2 3438.51,-277.2 3332.12,-277.2"/>
<polygon fill="black" stroke="black" points="4320.39,-668.68 4330.16,-673.68 4325.72,-668.95 4330.05,-669.17 4330.05,-669.17 4330.05,-669.17 4325.72,-668.95 4330.61,-664.69 4320.39,-668.68"/>
<text text-anchor="start" x="3916.96" y="-679.2" font-family="Arial" font-size="10.00">FOREIGN KEY (WebFeatureID) REFERENCES WebFeatures (ID) ON DELETE CASCADE</text>
</g>
<!-- FeatureGroupKeysLookup -->
<g id="node13" class="node">
<title>FeatureGroupKeysLookup</title>
<polygon fill="#efefef" stroke="none" points="4775.2,-700 4775.2,-735.6 5111.31,-735.6 5111.31,-700 4775.2,-700"/>
<polygon fill="none" stroke="black" points="4775.2,-700 4775.2,-735.6 5111.31,-735.6 5111.31,-700 4775.2,-700"/>
<text text-anchor="start" x="4782.2" y="-713.4" font-family="Arial Bold" font-size="18.00">FeatureGroupKeysLookup</text>
<text text-anchor="start" x="4975.16" y="-713.4" font-family="Arial" font-size="14.00">    </text>
<text text-anchor="start" x="5006.27" y="-713.4" font-family="Arial" font-size="14.00" fill="#666666">[BASIC TABLE]</text>
<polygon fill="none" stroke="black" points="4775.2,-669.2 4775.2,-700 5111.31,-700 5111.31,-669.2 4775.2,-669.2"/>
<text text-anchor="start" x="4782.2" y="-681.4" font-family="Arial" font-size="14.00">GroupKey_Lowercase </text>
<text text-anchor="start" x="4924.61" y="-681.4" font-family="Arial" font-size="14.00" fill="#666666">[STRING(64)]</text>
<polygon fill="none" stroke="black" points="4775.2,-638.4 4775.2,-669.2 5111.31,-669.2 5111.31,-638.4 4775.2,-638.4"/>
<text text-anchor="start" x="4782.2" y="-650.6" font-family="Arial" font-size="14.00">WebFeatureID </text>
<text text-anchor="start" x="4877.12" y="-650.6" font-family="Arial" font-size="14.00" fill="#666666">[STRING(36)]</text>
<polygon fill="none" stroke="black" points="4775.2,-607.6 4775.2,-638.4 5111.31,-638.4 5111.31,-607.6 4775.2,-607.6"/>
<text text-anchor="start" x="4782.2" y="-619.8" font-family="Arial" font-size="14.00">GroupID </text>
<text text-anchor="start" x="4839" y="-619.8" font-family="Arial" font-size="14.00" fill="#666666">[STRING(36)]</text>
<polygon fill="none" stroke="black" points="4775.2,-576.8 4775.2,-607.6 5111.31,-607.6 5111.31,-576.8 4775.2,-576.8"/>
<text text-anchor="start" x="4782.2" y="-589" font-family="Arial" font-size="14.00">Depth </text>
<text text-anchor="start" x="4823.45" y="-589" font-family="Arial" font-size="14.00" fill="#666666">[INT64]</text>
</g>
<!-- FeatureGroupKeysLookup&#45;&gt;WebFeatures -->
<g id="edge12" class="edge">
<title>FeatureGroupKeysLookup:WebFeatureID&#45;&gt;WebFeatures:ID</title>
<path fill="none" stroke="black" d="M4764.01,-653.25C4672.86,-642.64 4802.88,-481.65 4723.25,-410.4 4607.54,-306.86 3487.4,-277.2 3332.12,-277.2"/>
<polygon fill="black" stroke="black" points="4763.88,-653.24 4773.62,-658.28 4769.21,-653.53 4773.53,-653.76 4773.53,-653.76 4773.53,-653.76 4769.21,-653.53 4774.11,-649.29 4763.88,-653.24"/>
<text text-anchor="start" x="4781.2" y="-663.8" font-family="Arial" font-size="10.00">FOREIGN KEY (WebFeatureID) REFERENCES WebFeatures (ID) ON DELETE CASCADE</text>
</g>
<!-- LatestDailyChromiumHistogramMetrics -->
<g id="node14" class="node">
<title>LatestDailyChromiumHistogramMetrics</title>
<polygon fill="#efefef" stroke="none" points="5216.2,-684.6 5216.2,-720.2 5652.3,-720.2 5652.3,-684.6 5216.2,-684.6"/>
<polygon fill="none" stroke="black" points="5216.2,-684.6 5216.2,-720.2 5652.3,-720.2 5652.3,-684.6 5216.2,-684.6"/>
<text text-anchor="start" x="5223.2" y="-698" font-family="Arial Bold" font-size="18.00">LatestDailyChromiumHistogramMetrics</text>
<text text-anchor="start" x="5516.15" y="-698" font-family="Arial" font-size="14.00">    </text>
<text text-anchor="start" x="5547.27" y="-698" font-family="Arial" font-size="14.00" fill="#666666">[BASIC TABLE]</text>
<polygon fill="none" stroke="black" points="5216.2,-653.8 5216.2,-684.6 5652.3,-684.6 5652.3,-653.8 5216.2,-653.8"/>
<text text-anchor="start" x="5223.2" y="-666" font-family="Arial" font-size="14.00">WebFeatureID </text>
<text text-anchor="start" x="5318.13" y="-666" font-family="Arial" font-size="14.00" fill="#666666">[STRING(36)]</text>
<polygon fill="none" stroke="black" points="5216.2,-623 5216.2,-653.8 5652.3,-653.8 5652.3,-623 5216.2,-623"/>
<text text-anchor="start" x="5223.2" y="-635.2" font-family="Arial" font-size="14.00">ChromiumHistogramEnumValueID </text>
<text text-anchor="start" x="5441.83" y="-635.2" font-family="Arial" font-size="14.00" fill="#666666">[STRING(36)]</text>
<polygon fill="none" stroke="black" points="5216.2,-592.2 5216.2,-623 5652.3,-623 5652.3,-592.2 5216.2,-592.2"/>
<text text-anchor="start" x="5223.2" y="-604.4" font-family="Arial" font-size="14.00">Day </text>
<text text-anchor="start" x="5251.99" y="-604.4" font-family="Arial" font-size="14.00" fill="#666666">[DATE]</text>
</g>
<!-- LatestDailyChromiumHistogramMetrics&#45;&gt;WebFeatures -->
<g id="edge13" class="edge">
<title>LatestDailyChromiumHistogramMetrics:WebFeatureID&#45;&gt;WebFeatures:ID</title>
<path fill="none" stroke="black" d="M5204.98,-668.68C5107.24,-657.98 5248.5,-485.57 5163.25,-410.4 5086.75,-342.94 3434.12,-277.2 3332.12,-277.2"/>
<polygon fill="black" stroke="black" points="5204.88,-668.67 5214.64,-673.68 5210.21,-668.94 5214.54,-669.17 5214.54,-669.17 5214.54,-669.17 5210.21,-668.94 5215.1,-664.69 5204.88,-668.67"/>
<text text-anchor="start" x="5222.2" y="-679.2" font-family="Arial" font-size="10.00">FOREIGN KEY (WebFeatureID) REFERENCES WebFeatures (ID) ON DELETE CASCADE</text>
</g>
<!-- WebFeatureChromiumHistogramEnumValues -->
<g id="node15" class="node">
<title>WebFeatureChromiumHistogramEnumValues</title>
<polygon fill="#efefef" stroke="none" points="5756.22,-669.2 5756.22,-704.8 6234.29,-704.8 6234.29,-669.2 5756.22,-669.2"/>
<polygon fill="none" stroke="black" points="5756.22,-669.2 5756.22,-704.8 6234.29,-704.8 6234.29,-669.2 5756.22,-669.2"/>
<text text-anchor="start" x="5763.22" y="-682.6" font-family="Arial Bold" font-size="18.00">WebFeatureChromiumHistogramEnumValues</text>
<text text-anchor="start" x="6098.14" y="-682.6" font-family="Arial" font-size="14.00">    </text>
<text text-anchor="start" x="6129.26" y="-682.6" font-family="Arial" font-size="14.00" fill="#666666">[BASIC TABLE]</text>
<polygon fill="none" stroke="black" points="5756.22,-638.4 5756.22,-669.2 6234.29,-669.2 6234.29,-638.4 5756.22,-638.4"/>
<text text-anchor="start" x="5763.22" y="-650.6" font-family="Arial" font-size="14.00">WebFeatureID </text>
<text text-anchor="start" x="5858.14" y="-650.6" font-family="Arial" font-size="14.00" fill="#666666">[STRING(36)]</text>
<polygon fill="none" stroke="black" points="5756.22,-607.6 5756.22,-638.4 6234.29,-638.4 6234.29,-607.6 5756.22,-607.6"/>
<text text-anchor="start" x="5763.22" y="-619.8" font-family="Arial" font-size="14.00">ChromiumHistogramEnumValueID </text>
<text text-anchor="start" x="5981.84" y="-619.8" font-family="Arial" font-size="14.00" fill="#666666">[STRING(36)]</text>
</g>
<!-- WebFeatureChromiumHistogramEnumValues&#45;&gt;WebFeatures -->
<g id="edge14" class="edge">
<title>WebFeatureChromiumHistogramEnumValues:WebFeatureID&#45;&gt;WebFeatures:ID</title>
<path fill="none" stroke="black" d="M5745.03,-653.24C5653.96,-642.53 5785.27,-480.07 5704.25,-410.4 5604.18,-324.34 3464.12,-277.2 3332.12,-277.2"/>
<polygon fill="black" stroke="black" points="5744.9,-653.24 5754.64,-658.28 5750.22,-653.53 5754.55,-653.76 5754.55,-653.76 5754.55,-653.76 5750.22,-653.53 5755.13,-649.29 5744.9,-653.24"/>
<text text-anchor="start" x="5762.22" y="-663.8" font-family="Arial" font-size="10.00">FOREIGN KEY (WebFeatureID) REFERENCES WebFeatures (ID) ON DELETE CASCADE</text>
</g>
<!-- WebFeaturesMappingData -->
<g id="node16" class="node">
<title>WebFeaturesMappingData</title>
<polygon fill="#efefef" stroke="none" points="6338.71,-669.2 6338.71,-704.8 6675.8,-704.8 6675.8,-669.2 6338.71,-669.2"/>
<polygon fill="none" stroke="black" points="6338.71,-669.2 6338.71,-704.8 6675.8,-704.8 6675.8,-669.2 6338.71,-669.2"/>
<text text-anchor="start" x="6345.71" y="-682.6" font-family="Arial Bold" font-size="18.00">WebFeaturesMappingData</text>
<text text-anchor="start" x="6539.64" y="-682.6" font-family="Arial" font-size="14.00">    </text>
<text text-anchor="start" x="6570.76" y="-682.6" font-family="Arial" font-size="14.00" fill="#666666">[BASIC TABLE]</text>
<polygon fill="none" stroke="black" points="6338.71,-638.4 6338.71,-669.2 6675.8,-669.2 6675.8,-638.4 6338.71,-638.4"/>
<text text-anchor="start" x="6345.71" y="-650.6" font-family="Arial" font-size="14.00">WebFeatureID </text>
<text text-anchor="start" x="6440.64" y="-650.6" font-family="Arial" font-size="14.00" fill="#666666">[STRING(36)]</text>
<polygon fill="none" stroke="black" points="6338.71,-607.6 6338.71,-638.4 6675.8,-638.4 6675.8,-607.6 6338.71,-607.6"/>
<text text-anchor="start" x="6345.71" y="-619.8" font-family="Arial" font-size="14.00">VendorPositions </text>
<text text-anchor="start" x="6451.55" y="-619.8" font-family="Arial" font-size="14.00" fill="#666666">[JSON]</text>
</g>
<!-- WebFeaturesMappingData&#45;&gt;WebFeatures -->
<g id="edge15" class="edge">
<title>WebFeaturesMappingData:WebFeatureID&#45;&gt;WebFeatures:ID</title>
<path fill="none" stroke="black" d="M6327.52,-653.24C6236.42,-642.5 6367.76,-479.57 6286.25,-410.4 6161,-304.09 3496.41,-277.2 3332.12,-277.2"/>
<polygon fill="black" stroke="black" points="6327.39,-653.23 6337.13,-658.27 6332.72,-653.53 6337.05,-653.76 6337.05,-653.76 6337.05,-653.76 6332.72,-653.53 6337.63,-649.29 6327.39,-653.23"/>
<text text-anchor="start" x="6344.71" y="-663.8" font-family="Arial" font-size="10.00">FOREIGN KEY (WebFeatureID) REFERENCES WebFeatures (ID) ON DELETE CASCADE</text>
</g>
</g>
</svg>
