<?xml version="1.0" encoding="UTF-8" standalone="no"?>
<!DOCTYPE svg PUBLIC "-//W3C//DTD SVG 1.1//EN"
 "http://www.w3.org/Graphics/SVG/1.1/DTD/svg11.dtd">
<!-- Generated by graphviz version 2.40.1 (20161225.0304)
 -->
<!-- Title: WebFeatureSnapshots Pages: 1 -->
<svg width="430pt" height="592pt"
 viewBox="0.00 0.00 430.00 592.00" xmlns="http://www.w3.org/2000/svg" xmlns:xlink="http://www.w3.org/1999/xlink">
<g id="graph0" class="graph" transform="scale(1 1) rotate(0) translate(4 588)">
<title>WebFeatureSnapshots</title>
<polygon fill="#ffffff" stroke="transparent" points="-4,4 -4,-588 426,-588 426,4 -4,4"/>
<!-- WebFeatureSnapshots -->
<g id="node1" class="node">
<title>WebFeatureSnapshots</title>
<polygon fill="#efefef" stroke="transparent" points="46,-502.5 46,-537.5 376,-537.5 376,-502.5 46,-502.5"/>
<polygon fill="none" stroke="#000000" points="46,-502.5 46,-537.5 376,-537.5 376,-502.5 46,-502.5"/>
<text text-anchor="start" x="52.858" y="-515.3" font-family="Arial Bold" font-size="18.00" fill="#000000">WebFeatureSnapshots</text>
<text text-anchor="start" x="236.9134" y="-515.3" font-family="Arial" font-size="14.00" fill="#000000">    </text>
<text text-anchor="start" x="271.1182" y="-515.3" font-family="Arial" font-size="14.00" fill="#666666">[BASIC TABLE]</text>
<polygon fill="none" stroke="#000000" points="46,-472.5 46,-502.5 376,-502.5 376,-472.5 46,-472.5"/>
<text text-anchor="start" x="53" y="-483.9" font-family="Arial" font-size="14.00" fill="#000000">WebFeatureID </text>
<text text-anchor="start" x="147.9018" y="-483.9" font-family="Arial" font-size="14.00" fill="#666666">[STRING(36)]</text>
<polygon fill="none" stroke="#000000" points="46,-442.5 46,-472.5 376,-472.5 376,-442.5 46,-442.5"/>
<text text-anchor="start" x="53" y="-453.9" font-family="Arial" font-size="14.00" fill="#000000">SnapshotIDs </text>
<text text-anchor="start" x="137.028" y="-453.9" font-family="Arial" font-size="14.00" fill="#666666">[ARRAY&lt;STRING(36)&gt;]</text>
<polygon fill="none" stroke="#000000" stroke-width="3" points="44.5,-441.5 44.5,-539.5 377.5,-539.5 377.5,-441.5 44.5,-441.5"/>
</g>
<!-- WebFeatures -->
<g id="node2" class="node">
<title>WebFeatures</title>
<polygon fill="#efefef" stroke="transparent" points="64,-282.5 64,-317.5 357,-317.5 357,-282.5 64,-282.5"/>
<polygon fill="none" stroke="#000000" points="64,-282.5 64,-317.5 357,-317.5 357,-282.5 64,-282.5"/>
<text text-anchor="start" x="90.3767" y="-295.3" font-family="Arial Bold" font-size="18.00" fill="#000000">WebFeatures</text>
<text text-anchor="start" x="198.3947" y="-295.3" font-family="Arial" font-size="14.00" fill="#000000">    </text>
<text text-anchor="start" x="232.5995" y="-295.3" font-family="Arial" font-size="14.00" fill="#666666">[BASIC TABLE]</text>
<polygon fill="none" stroke="#000000" points="64,-252.5 64,-282.5 357,-282.5 357,-252.5 64,-252.5"/>
<text text-anchor="start" x="71" y="-263.9" font-family="Arial" font-size="14.00" fill="#000000">ID    </text>
<text text-anchor="start" x="119.202" y="-263.9" font-family="Arial" font-size="14.00" fill="#666666">[STRING(36)]</text>
<polygon fill="none" stroke="#000000" points="64,-222.5 64,-252.5 357,-252.5 357,-222.5 64,-222.5"/>
<text text-anchor="start" x="71" y="-233.9" font-family="Arial" font-size="14.00" fill="#000000">FeatureKey    </text>
<text text-anchor="start" x="177.5582" y="-233.9" font-family="Arial" font-size="14.00" fill="#666666">[STRING(64)]</text>
<polygon fill="none" stroke="#000000" points="64,-192.5 64,-222.5 357,-222.5 357,-192.5 64,-192.5"/>
<text text-anchor="start" x="71" y="-203.9" font-family="Arial" font-size="14.00" fill="#000000">Name    </text>
<text text-anchor="start" x="142.5372" y="-203.9" font-family="Arial" font-size="14.00" fill="#666666">[STRING(64)]</text>
<polygon fill="none" stroke="#000000" points="64,-162.5 64,-192.5 357,-192.5 357,-162.5 64,-162.5"/>
<text text-anchor="start" x="71" y="-173.9" font-family="Arial" font-size="14.00" fill="#000000">FeatureKey_Lowercase    </text>
<text text-anchor="start" x="253.021" y="-173.9" font-family="Arial" font-size="14.00" fill="#666666">[STRING(64)]</text>
<polygon fill="none" stroke="#000000" points="64,-132.5 64,-162.5 357,-162.5 357,-132.5 64,-132.5"/>
<text text-anchor="start" x="71" y="-143.9" font-family="Arial" font-size="14.00" fill="#000000">Name_Lowercase    </text>
<text text-anchor="start" x="218" y="-143.9" font-family="Arial" font-size="14.00" fill="#666666">[STRING(64)]</text>
<polygon fill="none" stroke="#000000" points="64,-102.5 64,-132.5 357,-132.5 357,-102.5 64,-102.5"/>
<text text-anchor="start" x="71" y="-113.9" font-family="Arial" font-size="14.00" fill="#000000">Description    </text>
<text text-anchor="start" x="175.2062" y="-113.9" font-family="Arial" font-size="14.00" fill="#666666">[STRING(MAX)]</text>
<polygon fill="none" stroke="#000000" points="64,-72.5 64,-102.5 357,-102.5 357,-72.5 64,-72.5"/>
<text text-anchor="start" x="71" y="-83.9" font-family="Arial" font-size="14.00" fill="#000000">DescriptionHtml    </text>
<text text-anchor="start" x="203.9706" y="-83.9" font-family="Arial" font-size="14.00" fill="#666666">[STRING(MAX)]</text>
<polygon fill="none" stroke="#000000" points="64,-42.5 64,-72.5 357,-72.5 357,-42.5 64,-42.5"/>
<text text-anchor="start" x="70.5056" y="-53.9" font-family="Arial" font-size="14.00" fill="#000000">Description_Lowercase    </text>
<text text-anchor="start" x="250.1746" y="-53.9" font-family="Arial" font-size="14.00" fill="#666666">[STRING(MAX)]</text>
</g>
<!-- WebFeatureSnapshots&#45;&gt;WebFeatures -->
<g id="edge1" class="edge">
<title>WebFeatureSnapshots:WebFeatureID&#45;&gt;WebFeatures:ID</title>
<path fill="none" stroke="#000000" stroke-dasharray="5,2" d="M36.0698,-485.9805C8.4195,-476.4298 21.7521,-424.2166 46,-397 138.561,-293.1065 264.439,-464.8935 357,-361 384.6432,-329.9723 398.5556,-267.5 357,-267.5"/>
<polygon fill="#000000" stroke="#000000" points="36.1151,-485.9874 45.3193,-491.9482 41.0575,-486.7437 46,-487.5 46,-487.5 46,-487.5 41.0575,-486.7437 46.6807,-483.0518 36.1151,-485.9874 36.1151,-485.9874"/>
</g>
</g>
</svg>
