<?xml version="1.0" encoding="UTF-8" standalone="no"?>
<!DOCTYPE svg PUBLIC "-//W3C//DTD SVG 1.1//EN"
 "http://www.w3.org/Graphics/SVG/1.1/DTD/svg11.dtd">
<!-- Generated by graphviz version 12.1.2 (20240928.0832)
 -->
<!-- Title: WebFeatureChromiumHistogramEnumValues Pages: 1 -->
<svg width="1506pt" height="602pt"
 viewBox="0.00 0.00 1506.30 602.00" xmlns="http://www.w3.org/2000/svg" xmlns:xlink="http://www.w3.org/1999/xlink">
<g id="graph0" class="graph" transform="scale(1 1) rotate(0) translate(4 598)">
<title>WebFeatureChromiumHistogramEnumValues</title>
<polygon fill="white" stroke="none" points="-4,4 -4,-598 1502.3,-598 1502.3,4 -4,4"/>
<!-- WebFeatureChromiumHistogramEnumValues -->
<g id="node1" class="node">
<title>WebFeatureChromiumHistogramEnumValues</title>
<polygon fill="#efefef" stroke="none" points="421.75,-512.2 421.75,-547.8 899.83,-547.8 899.83,-512.2 421.75,-512.2"/>
<polygon fill="none" stroke="black" points="421.75,-512.2 421.75,-547.8 899.83,-547.8 899.83,-512.2 421.75,-512.2"/>
<text text-anchor="start" x="428.75" y="-525.6" font-family="Arial Bold" font-size="18.00">WebFeatureChromiumHistogramEnumValues</text>
<text text-anchor="start" x="763.68" y="-525.6" font-family="Arial" font-size="14.00">    </text>
<text text-anchor="start" x="794.79" y="-525.6" font-family="Arial" font-size="14.00" fill="#666666">[BASIC TABLE]</text>
<polygon fill="none" stroke="black" points="421.75,-481.4 421.75,-512.2 899.83,-512.2 899.83,-481.4 421.75,-481.4"/>
<text text-anchor="start" x="428.75" y="-493.6" font-family="Arial" font-size="14.00">WebFeatureID </text>
<text text-anchor="start" x="523.68" y="-493.6" font-family="Arial" font-size="14.00" fill="#666666">[STRING(36)]</text>
<polygon fill="none" stroke="black" points="421.75,-450.6 421.75,-481.4 899.83,-481.4 899.83,-450.6 421.75,-450.6"/>
<text text-anchor="start" x="428.75" y="-462.8" font-family="Arial" font-size="14.00">ChromiumHistogramEnumValueID </text>
<text text-anchor="start" x="647.38" y="-462.8" font-family="Arial" font-size="14.00" fill="#666666">[STRING(36)]</text>
<polygon fill="none" stroke="black" stroke-width="3" points="420.25,-449.1 420.25,-549.3 901.33,-549.3 901.33,-449.1 420.25,-449.1"/>
</g>
<!-- WebFeatures -->
<g id="node2" class="node">
<title>WebFeatures</title>
<polygon fill="#efefef" stroke="none" points="313.92,-289.6 313.92,-325.2 577.66,-325.2 577.66,-289.6 313.92,-289.6"/>
<polygon fill="none" stroke="black" points="313.92,-289.6 313.92,-325.2 577.66,-325.2 577.66,-289.6 313.92,-289.6"/>
<text text-anchor="start" x="333.74" y="-303" font-family="Arial Bold" font-size="18.00">WebFeatures</text>
<text text-anchor="start" x="428.69" y="-303" font-family="Arial" font-size="14.00">    </text>
<text text-anchor="start" x="459.81" y="-303" font-family="Arial" font-size="14.00" fill="#666666">[BASIC TABLE]</text>
<polygon fill="none" stroke="black" points="313.92,-258.8 313.92,-289.6 577.66,-289.6 577.66,-258.8 313.92,-258.8"/>
<text text-anchor="start" x="320.92" y="-271" font-family="Arial" font-size="14.00">ID </text>
<text text-anchor="start" x="338.81" y="-271" font-family="Arial" font-size="14.00" fill="#666666">[STRING(36)]</text>
<polygon fill="none" stroke="black" points="313.92,-228 313.92,-258.8 577.66,-258.8 577.66,-228 313.92,-228"/>
<text text-anchor="start" x="320.92" y="-240.2" font-family="Arial" font-size="14.00">FeatureKey </text>
<text text-anchor="start" x="397.18" y="-240.2" font-family="Arial" font-size="14.00" fill="#666666">[STRING(64)]</text>
<polygon fill="none" stroke="black" points="313.92,-197.2 313.92,-228 577.66,-228 577.66,-197.2 313.92,-197.2"/>
<text text-anchor="start" x="320.92" y="-209.4" font-family="Arial" font-size="14.00">Name </text>
<text text-anchor="start" x="362.16" y="-209.4" font-family="Arial" font-size="14.00" fill="#666666">[STRING(64)]</text>
<polygon fill="none" stroke="black" points="313.92,-166.4 313.92,-197.2 577.66,-197.2 577.66,-166.4 313.92,-166.4"/>
<text text-anchor="start" x="320.92" y="-178.6" font-family="Arial" font-size="14.00">FeatureKey_Lowercase </text>
<text text-anchor="start" x="472.67" y="-178.6" font-family="Arial" font-size="14.00" fill="#666666">[STRING(64)]</text>
<polygon fill="none" stroke="black" points="313.92,-135.6 313.92,-166.4 577.66,-166.4 577.66,-135.6 313.92,-135.6"/>
<text text-anchor="start" x="320.92" y="-147.8" font-family="Arial" font-size="14.00">Name_Lowercase </text>
<text text-anchor="start" x="437.65" y="-147.8" font-family="Arial" font-size="14.00" fill="#666666">[STRING(64)]</text>
<polygon fill="none" stroke="black" points="313.92,-104.8 313.92,-135.6 577.66,-135.6 577.66,-104.8 313.92,-104.8"/>
<text text-anchor="start" x="320.92" y="-117" font-family="Arial" font-size="14.00">Description </text>
<text text-anchor="start" x="394.84" y="-117" font-family="Arial" font-size="14.00" fill="#666666">[STRING(MAX)]</text>
<polygon fill="none" stroke="black" points="313.92,-74 313.92,-104.8 577.66,-104.8 577.66,-74 313.92,-74"/>
<text text-anchor="start" x="320.92" y="-86.2" font-family="Arial" font-size="14.00">DescriptionHtml </text>
<text text-anchor="start" x="423.61" y="-86.2" font-family="Arial" font-size="14.00" fill="#666666">[STRING(MAX)]</text>
<polygon fill="none" stroke="black" points="313.92,-43.2 313.92,-74 577.66,-74 577.66,-43.2 313.92,-43.2"/>
<text text-anchor="start" x="320.92" y="-55.4" font-family="Arial" font-size="14.00">Description_Lowercase </text>
<text text-anchor="start" x="470.33" y="-55.4" font-family="Arial" font-size="14.00" fill="#666666">[STRING(MAX)]</text>
</g>
<!-- WebFeatureChromiumHistogramEnumValues&#45;&gt;WebFeatures -->
<g id="edge1" class="edge">
<title>WebFeatureChromiumHistogramEnumValues:WebFeatureID&#45;&gt;WebFeatures:ID</title>
<path fill="none" stroke="black" d="M410.68,-495.28C382.83,-485.73 398.43,-433.4 421.75,-404.4 466.32,-348.98 533.1,-423.82 577.66,-368.4 603.9,-335.77 620.53,-274.2 578.66,-274.2"/>
<polygon fill="black" stroke="black" points="410.53,-495.26 419.75,-501.2 415.81,-496.05 420.09,-496.7 420.09,-496.7 420.09,-496.7 415.81,-496.05 421.09,-492.3 410.53,-495.26"/>
<text text-anchor="start" x="7" y="-506.8" font-family="Arial" font-size="10.00">FOREIGN KEY (WebFeatureID) REFERENCES WebFeatures (ID) ON DELETE CASCADE</text>
</g>
<!-- ChromiumHistogramEnumValues -->
<g id="node3" class="node">
<title>ChromiumHistogramEnumValues</title>
<polygon fill="#efefef" stroke="none" points="681.73,-243.4 681.73,-279 1071.85,-279 1071.85,-243.4 681.73,-243.4"/>
<polygon fill="none" stroke="black" points="681.73,-243.4 681.73,-279 1071.85,-279 1071.85,-243.4 681.73,-243.4"/>
<text text-anchor="start" x="688.73" y="-256.8" font-family="Arial Bold" font-size="18.00">ChromiumHistogramEnumValues</text>
<text text-anchor="start" x="935.7" y="-256.8" font-family="Arial" font-size="14.00">    </text>
<text text-anchor="start" x="966.82" y="-256.8" font-family="Arial" font-size="14.00" fill="#666666">[BASIC TABLE]</text>
<polygon fill="none" stroke="black" points="681.73,-212.6 681.73,-243.4 1071.85,-243.4 1071.85,-212.6 681.73,-212.6"/>
<text text-anchor="start" x="688.73" y="-224.8" font-family="Arial" font-size="14.00">ID </text>
<text text-anchor="start" x="706.62" y="-224.8" font-family="Arial" font-size="14.00" fill="#666666">[STRING(36)]</text>
<polygon fill="none" stroke="black" points="681.73,-181.8 681.73,-212.6 1071.85,-212.6 1071.85,-181.8 681.73,-181.8"/>
<text text-anchor="start" x="688.73" y="-194" font-family="Arial" font-size="14.00">ChromiumHistogramEnumID </text>
<text text-anchor="start" x="871.55" y="-194" font-family="Arial" font-size="14.00" fill="#666666">[STRING(36)]</text>
<polygon fill="none" stroke="black" points="681.73,-151 681.73,-181.8 1071.85,-181.8 1071.85,-151 681.73,-151"/>
<text text-anchor="start" x="688.73" y="-163.2" font-family="Arial" font-size="14.00">BucketID </text>
<text text-anchor="start" x="749.42" y="-163.2" font-family="Arial" font-size="14.00" fill="#666666">[INT64]</text>
<polygon fill="none" stroke="black" points="681.73,-120.2 681.73,-151 1071.85,-151 1071.85,-120.2 681.73,-120.2"/>
<text text-anchor="start" x="688.73" y="-132.4" font-family="Arial" font-size="14.00">Label </text>
<text text-anchor="start" x="726.87" y="-132.4" font-family="Arial" font-size="14.00" fill="#666666">[STRING(MAX)]</text>
<polygon fill="none" stroke="black" points="681.73,-89.4 681.73,-120.2 1071.85,-120.2 1071.85,-89.4 681.73,-89.4"/>
<text text-anchor="start" x="688.73" y="-101.6" font-family="Arial" font-size="14.00">Label_Lowercase </text>
<text text-anchor="start" x="802.36" y="-101.6" font-family="Arial" font-size="14.00" fill="#666666">[STRING(64)]</text>
</g>
<!-- WebFeatureChromiumHistogramEnumValues&#45;&gt;ChromiumHistogramEnumValues -->
<g id="edge2" class="edge">
<title>WebFeatureChromiumHistogramEnumValues:ChromiumHistogramEnumValueID&#45;&gt;ChromiumHistogramEnumValues:ID</title>
<path fill="none" stroke="black" d="M910.87,-463.34C924.19,-454.16 913.13,-423.29 899.83,-404.4 840.21,-319.69 741.11,-407.08 681.73,-322.2 657.73,-287.89 638.86,-228 680.73,-228"/>
<polygon fill="black" stroke="black" points="910.82,-463.36 900,-461.56 905.66,-464.72 901.48,-465.83 901.48,-465.83 901.48,-465.83 905.66,-464.72 902.3,-470.26 910.82,-463.36"/>
<text text-anchor="start" x="907.83" y="-476" font-family="Arial" font-size="10.00">FOREIGN KEY (ChromiumHistogramEnumValueID) REFERENCES ChromiumHistogramEnumValues (ID) ON DELETE CASCADE</text>
</g>
</g>
</svg>
