<?xml version="1.0" encoding="UTF-8" standalone="no"?>
<!DOCTYPE svg PUBLIC "-//W3C//DTD SVG 1.1//EN"
 "http://www.w3.org/Graphics/SVG/1.1/DTD/svg11.dtd">
<!-- Generated by graphviz version 2.40.1 (20161225.0304)
 -->
<!-- Title: WebFeatureChromiumHistogramEnumValues Pages: 1 -->
<svg width="904pt" height="592pt"
 viewBox="0.00 0.00 904.00 592.00" xmlns="http://www.w3.org/2000/svg" xmlns:xlink="http://www.w3.org/1999/xlink">
<g id="graph0" class="graph" transform="scale(1 1) rotate(0) translate(4 588)">
<title>WebFeatureChromiumHistogramEnumValues</title>
<polygon fill="#ffffff" stroke="transparent" points="-4,4 -4,-588 900,-588 900,4 -4,4"/>
<!-- WebFeatureChromiumHistogramEnumValues -->
<g id="node1" class="node">
<title>WebFeatureChromiumHistogramEnumValues</title>
<polygon fill="#efefef" stroke="transparent" points="162.5,-502.5 162.5,-537.5 674.5,-537.5 674.5,-502.5 162.5,-502.5"/>
<polygon fill="none" stroke="#000000" points="162.5,-502.5 162.5,-537.5 674.5,-537.5 674.5,-502.5 162.5,-502.5"/>
<text text-anchor="start" x="169.3752" y="-515.3" font-family="Arial Bold" font-size="18.00" fill="#000000">WebFeatureChromiumHistogramEnumValues</text>
<text text-anchor="start" x="535.3962" y="-515.3" font-family="Arial" font-size="14.00" fill="#000000">    </text>
<text text-anchor="start" x="569.601" y="-515.3" font-family="Arial" font-size="14.00" fill="#666666">[BASIC TABLE]</text>
<polygon fill="none" stroke="#000000" points="162.5,-472.5 162.5,-502.5 674.5,-502.5 674.5,-472.5 162.5,-472.5"/>
<text text-anchor="start" x="169.5" y="-483.9" font-family="Arial" font-size="14.00" fill="#000000">WebFeatureID </text>
<text text-anchor="start" x="264.4018" y="-483.9" font-family="Arial" font-size="14.00" fill="#666666">[STRING(36)]</text>
<polygon fill="none" stroke="#000000" points="162.5,-442.5 162.5,-472.5 674.5,-472.5 674.5,-442.5 162.5,-442.5"/>
<text text-anchor="start" x="169.5" y="-453.9" font-family="Arial" font-size="14.00" fill="#000000">ChromiumHistogramEnumValueID </text>
<text text-anchor="start" x="388.0568" y="-453.9" font-family="Arial" font-size="14.00" fill="#666666">[STRING(36)]</text>
<polygon fill="none" stroke="#000000" stroke-width="3" points="161,-441.5 161,-539.5 676,-539.5 676,-441.5 161,-441.5"/>
</g>
<!-- WebFeatures -->
<g id="node2" class="node">
<title>WebFeatures</title>
<polygon fill="#efefef" stroke="transparent" points="43.5,-282.5 43.5,-317.5 336.5,-317.5 336.5,-282.5 43.5,-282.5"/>
<polygon fill="none" stroke="#000000" points="43.5,-282.5 43.5,-317.5 336.5,-317.5 336.5,-282.5 43.5,-282.5"/>
<text text-anchor="start" x="69.8767" y="-295.3" font-family="Arial Bold" font-size="18.00" fill="#000000">WebFeatures</text>
<text text-anchor="start" x="177.8947" y="-295.3" font-family="Arial" font-size="14.00" fill="#000000">    </text>
<text text-anchor="start" x="212.0995" y="-295.3" font-family="Arial" font-size="14.00" fill="#666666">[BASIC TABLE]</text>
<polygon fill="none" stroke="#000000" points="43.5,-252.5 43.5,-282.5 336.5,-282.5 336.5,-252.5 43.5,-252.5"/>
<text text-anchor="start" x="50.5" y="-263.9" font-family="Arial" font-size="14.00" fill="#000000">ID    </text>
<text text-anchor="start" x="98.702" y="-263.9" font-family="Arial" font-size="14.00" fill="#666666">[STRING(36)]</text>
<polygon fill="none" stroke="#000000" points="43.5,-222.5 43.5,-252.5 336.5,-252.5 336.5,-222.5 43.5,-222.5"/>
<text text-anchor="start" x="50.5" y="-233.9" font-family="Arial" font-size="14.00" fill="#000000">FeatureKey    </text>
<text text-anchor="start" x="157.0582" y="-233.9" font-family="Arial" font-size="14.00" fill="#666666">[STRING(64)]</text>
<polygon fill="none" stroke="#000000" points="43.5,-192.5 43.5,-222.5 336.5,-222.5 336.5,-192.5 43.5,-192.5"/>
<text text-anchor="start" x="50.5" y="-203.9" font-family="Arial" font-size="14.00" fill="#000000">Name    </text>
<text text-anchor="start" x="122.0372" y="-203.9" font-family="Arial" font-size="14.00" fill="#666666">[STRING(64)]</text>
<polygon fill="none" stroke="#000000" points="43.5,-162.5 43.5,-192.5 336.5,-192.5 336.5,-162.5 43.5,-162.5"/>
<text text-anchor="start" x="50.5" y="-173.9" font-family="Arial" font-size="14.00" fill="#000000">FeatureKey_Lowercase    </text>
<text text-anchor="start" x="232.521" y="-173.9" font-family="Arial" font-size="14.00" fill="#666666">[STRING(64)]</text>
<polygon fill="none" stroke="#000000" points="43.5,-132.5 43.5,-162.5 336.5,-162.5 336.5,-132.5 43.5,-132.5"/>
<text text-anchor="start" x="50.5" y="-143.9" font-family="Arial" font-size="14.00" fill="#000000">Name_Lowercase    </text>
<text text-anchor="start" x="197.5" y="-143.9" font-family="Arial" font-size="14.00" fill="#666666">[STRING(64)]</text>
<polygon fill="none" stroke="#000000" points="43.5,-102.5 43.5,-132.5 336.5,-132.5 336.5,-102.5 43.5,-102.5"/>
<text text-anchor="start" x="50.5" y="-113.9" font-family="Arial" font-size="14.00" fill="#000000">Description    </text>
<text text-anchor="start" x="154.7062" y="-113.9" font-family="Arial" font-size="14.00" fill="#666666">[STRING(MAX)]</text>
<polygon fill="none" stroke="#000000" points="43.5,-72.5 43.5,-102.5 336.5,-102.5 336.5,-72.5 43.5,-72.5"/>
<text text-anchor="start" x="50.5" y="-83.9" font-family="Arial" font-size="14.00" fill="#000000">DescriptionHtml    </text>
<text text-anchor="start" x="183.4706" y="-83.9" font-family="Arial" font-size="14.00" fill="#666666">[STRING(MAX)]</text>
<polygon fill="none" stroke="#000000" points="43.5,-42.5 43.5,-72.5 336.5,-72.5 336.5,-42.5 43.5,-42.5"/>
<text text-anchor="start" x="50.0056" y="-53.9" font-family="Arial" font-size="14.00" fill="#000000">Description_Lowercase    </text>
<text text-anchor="start" x="229.6746" y="-53.9" font-family="Arial" font-size="14.00" fill="#666666">[STRING(MAX)]</text>
</g>
<!-- WebFeatureChromiumHistogramEnumValues&#45;&gt;WebFeatures -->
<g id="edge1" class="edge">
<title>WebFeatureChromiumHistogramEnumValues:WebFeatureID&#45;&gt;WebFeatures:ID</title>
<path fill="none" stroke="#000000" stroke-dasharray="5,2" d="M152.6023,-486.0082C125.1504,-476.6265 139.4837,-425.2658 162.5,-397 212.3643,-335.7628 286.6357,-422.2372 336.5,-361 362.7392,-328.7763 378.0556,-267.5 336.5,-267.5"/>
<polygon fill="#000000" stroke="#000000" points="152.6117,-486.0095 161.8293,-491.9497 157.5558,-486.7548 162.5,-487.5 162.5,-487.5 162.5,-487.5 157.5558,-486.7548 163.1707,-483.0503 152.6117,-486.0095 152.6117,-486.0095"/>
</g>
<!-- ChromiumHistogramEnumValues -->
<g id="node3" class="node">
<title>ChromiumHistogramEnumValues</title>
<polygon fill="#efefef" stroke="transparent" points="440.5,-237.5 440.5,-272.5 853.5,-272.5 853.5,-237.5 440.5,-237.5"/>
<polygon fill="none" stroke="#000000" points="440.5,-237.5 440.5,-272.5 853.5,-272.5 853.5,-237.5 440.5,-237.5"/>
<text text-anchor="start" x="447.3842" y="-250.3" font-family="Arial Bold" font-size="18.00" fill="#000000">ChromiumHistogramEnumValues</text>
<text text-anchor="start" x="714.3872" y="-250.3" font-family="Arial" font-size="14.00" fill="#000000">    </text>
<text text-anchor="start" x="748.592" y="-250.3" font-family="Arial" font-size="14.00" fill="#666666">[BASIC TABLE]</text>
<polygon fill="none" stroke="#000000" points="440.5,-207.5 440.5,-237.5 853.5,-237.5 853.5,-207.5 440.5,-207.5"/>
<text text-anchor="start" x="447.5" y="-218.9" font-family="Arial" font-size="14.00" fill="#000000">ID    </text>
<text text-anchor="start" x="495.702" y="-218.9" font-family="Arial" font-size="14.00" fill="#666666">[STRING(36)]</text>
<polygon fill="none" stroke="#000000" points="440.5,-177.5 440.5,-207.5 853.5,-207.5 853.5,-177.5 440.5,-177.5"/>
<text text-anchor="start" x="447.5" y="-188.9" font-family="Arial" font-size="14.00" fill="#000000">ChromiumHistogramEnumID    </text>
<text text-anchor="start" x="660.58" y="-188.9" font-family="Arial" font-size="14.00" fill="#666666">[STRING(36)]</text>
<polygon fill="none" stroke="#000000" points="440.5,-147.5 440.5,-177.5 853.5,-177.5 853.5,-147.5 440.5,-147.5"/>
<text text-anchor="start" x="447.5" y="-158.9" font-family="Arial" font-size="14.00" fill="#000000">BucketID    </text>
<text text-anchor="start" x="538.4944" y="-158.9" font-family="Arial" font-size="14.00" fill="#666666">[INT64]</text>
<polygon fill="none" stroke="#000000" points="440.5,-117.5 440.5,-147.5 853.5,-147.5 853.5,-117.5 440.5,-117.5"/>
<text text-anchor="start" x="447.5" y="-128.9" font-family="Arial" font-size="14.00" fill="#000000">Label    </text>
<text text-anchor="start" x="515.9418" y="-128.9" font-family="Arial" font-size="14.00" fill="#666666">[STRING(MAX)]</text>
<polygon fill="none" stroke="#000000" points="440.5,-87.5 440.5,-117.5 853.5,-117.5 853.5,-87.5 440.5,-87.5"/>
<text text-anchor="start" x="447.5" y="-98.9" font-family="Arial" font-size="14.00" fill="#000000">Label_Lowercase    </text>
<text text-anchor="start" x="591.4046" y="-98.9" font-family="Arial" font-size="14.00" fill="#666666">[STRING(64)]</text>
</g>
<!-- WebFeatureChromiumHistogramEnumValues&#45;&gt;ChromiumHistogramEnumValues -->
<g id="edge2" class="edge">
<title>WebFeatureChromiumHistogramEnumValues:ChromiumHistogramEnumValueID&#45;&gt;ChromiumHistogramEnumValues:ID</title>
<path fill="none" stroke="#000000" stroke-dasharray="5,2" d="M684.4369,-454.884C697.755,-445.8461 687.6596,-415.481 674.5,-397 610.6641,-307.3508 504.3359,-405.6492 440.5,-316 416.3962,-282.1493 398.9444,-222.5 440.5,-222.5"/>
<polygon fill="#000000" stroke="#000000" points="684.1705,-454.9541 673.3543,-453.1483 679.3353,-456.227 674.5,-457.5 674.5,-457.5 674.5,-457.5 679.3353,-456.227 675.6457,-461.8517 684.1705,-454.9541 684.1705,-454.9541"/>
</g>
</g>
</svg>
