<?xml version="1.0" encoding="UTF-8" standalone="no"?>
<!DOCTYPE svg PUBLIC "-//W3C//DTD SVG 1.1//EN"
 "http://www.w3.org/Graphics/SVG/1.1/DTD/svg11.dtd">
<!-- Generated by graphviz version 2.40.1 (20161225.0304)
 -->
<!-- Title: WebFeatures Pages: 1 -->
<svg width="3351pt" height="892pt"
 viewBox="0.00 0.00 3350.50 892.00" xmlns="http://www.w3.org/2000/svg" xmlns:xlink="http://www.w3.org/1999/xlink">
<g id="graph0" class="graph" transform="scale(1 1) rotate(0) translate(4 888)">
<title>WebFeatures</title>
<polygon fill="#ffffff" stroke="transparent" points="-4,4 -4,-888 3346.5,-888 3346.5,4 -4,4"/>
<!-- WebFeatures -->
<g id="node1" class="node">
<title>WebFeatures</title>
<polygon fill="#efefef" stroke="transparent" points="1519.5,-285.5 1519.5,-320.5 1782.5,-320.5 1782.5,-285.5 1519.5,-285.5"/>
<polygon fill="none" stroke="#000000" points="1519.5,-285.5 1519.5,-320.5 1782.5,-320.5 1782.5,-285.5 1519.5,-285.5"/>
<text text-anchor="start" x="1530.8767" y="-298.3" font-family="Arial Bold" font-size="18.00" fill="#000000">WebFeatures</text>
<text text-anchor="start" x="1638.8947" y="-298.3" font-family="Arial" font-size="14.00" fill="#000000">    </text>
<text text-anchor="start" x="1673.0995" y="-298.3" font-family="Arial" font-size="14.00" fill="#666666">[BASIC TABLE]</text>
<polygon fill="none" stroke="#000000" points="1519.5,-255.5 1519.5,-285.5 1782.5,-285.5 1782.5,-255.5 1519.5,-255.5"/>
<text text-anchor="start" x="1526.5" y="-266.9" font-family="Arial" font-size="14.00" fill="#000000">ID </text>
<text text-anchor="start" x="1544.3878" y="-266.9" font-family="Arial" font-size="14.00" fill="#666666">[STRING(36)]</text>
<polygon fill="none" stroke="#000000" points="1519.5,-225.5 1519.5,-255.5 1782.5,-255.5 1782.5,-225.5 1519.5,-225.5"/>
<text text-anchor="start" x="1526.5" y="-236.9" font-family="Arial" font-size="14.00" fill="#000000">FeatureKey </text>
<text text-anchor="start" x="1602.744" y="-236.9" font-family="Arial" font-size="14.00" fill="#666666">[STRING(64)]</text>
<polygon fill="none" stroke="#000000" points="1519.5,-195.5 1519.5,-225.5 1782.5,-225.5 1782.5,-195.5 1519.5,-195.5"/>
<text text-anchor="start" x="1526.5" y="-206.9" font-family="Arial" font-size="14.00" fill="#000000">Name </text>
<text text-anchor="start" x="1567.723" y="-206.9" font-family="Arial" font-size="14.00" fill="#666666">[STRING(64)]</text>
<polygon fill="none" stroke="#000000" points="1519.5,-165.5 1519.5,-195.5 1782.5,-195.5 1782.5,-165.5 1519.5,-165.5"/>
<text text-anchor="start" x="1526.5" y="-176.9" font-family="Arial" font-size="14.00" fill="#000000">FeatureKey_Lowercase </text>
<text text-anchor="start" x="1678.2068" y="-176.9" font-family="Arial" font-size="14.00" fill="#666666">[STRING(64)]</text>
<polygon fill="none" stroke="#000000" points="1519.5,-135.5 1519.5,-165.5 1782.5,-165.5 1782.5,-135.5 1519.5,-135.5"/>
<text text-anchor="start" x="1526.5" y="-146.9" font-family="Arial" font-size="14.00" fill="#000000">Name_Lowercase </text>
<text text-anchor="start" x="1643.1858" y="-146.9" font-family="Arial" font-size="14.00" fill="#666666">[STRING(64)]</text>
<polygon fill="none" stroke="#000000" points="1519.5,-105.5 1519.5,-135.5 1782.5,-135.5 1782.5,-105.5 1519.5,-105.5"/>
<text text-anchor="start" x="1526.5" y="-116.9" font-family="Arial" font-size="14.00" fill="#000000">Description </text>
<text text-anchor="start" x="1600.392" y="-116.9" font-family="Arial" font-size="14.00" fill="#666666">[STRING(MAX)]</text>
<polygon fill="none" stroke="#000000" points="1519.5,-75.5 1519.5,-105.5 1782.5,-105.5 1782.5,-75.5 1519.5,-75.5"/>
<text text-anchor="start" x="1526.5" y="-86.9" font-family="Arial" font-size="14.00" fill="#000000">DescriptionHtml </text>
<text text-anchor="start" x="1629.1564" y="-86.9" font-family="Arial" font-size="14.00" fill="#666666">[STRING(MAX)]</text>
<polygon fill="none" stroke="#000000" points="1519.5,-45.5 1519.5,-75.5 1782.5,-75.5 1782.5,-45.5 1519.5,-45.5"/>
<text text-anchor="start" x="1526.1627" y="-56.9" font-family="Arial" font-size="14.00" fill="#000000">Description_Lowercase </text>
<text text-anchor="start" x="1675.5175" y="-56.9" font-family="Arial" font-size="14.00" fill="#666666">[STRING(MAX)]</text>
<polygon fill="none" stroke="#000000" stroke-width="3" points="1517.5,-44.5 1517.5,-322.5 1783.5,-322.5 1783.5,-44.5 1517.5,-44.5"/>
</g>
<!-- WPTRunFeatureMetrics -->
<g id="node2" class="node">
<title>WPTRunFeatureMetrics</title>
<polygon fill="#efefef" stroke="transparent" points="43.5,-805.5 43.5,-840.5 382.5,-840.5 382.5,-805.5 43.5,-805.5"/>
<polygon fill="none" stroke="#000000" points="43.5,-805.5 43.5,-840.5 382.5,-840.5 382.5,-805.5 43.5,-805.5"/>
<text text-anchor="start" x="50.3859" y="-818.3" font-family="Arial Bold" font-size="18.00" fill="#000000">WPTRunFeatureMetrics</text>
<text text-anchor="start" x="243.3855" y="-818.3" font-family="Arial" font-size="14.00" fill="#000000">    </text>
<text text-anchor="start" x="277.5903" y="-818.3" font-family="Arial" font-size="14.00" fill="#666666">[BASIC TABLE]</text>
<polygon fill="none" stroke="#000000" points="43.5,-775.5 43.5,-805.5 382.5,-805.5 382.5,-775.5 43.5,-775.5"/>
<text text-anchor="start" x="50.5" y="-786.9" font-family="Arial" font-size="14.00" fill="#000000">ID    </text>
<text text-anchor="start" x="98.702" y="-786.9" font-family="Arial" font-size="14.00" fill="#666666">[STRING(36)]</text>
<polygon fill="none" stroke="#000000" points="43.5,-745.5 43.5,-775.5 382.5,-775.5 382.5,-745.5 43.5,-745.5"/>
<text text-anchor="start" x="50.5" y="-756.9" font-family="Arial" font-size="14.00" fill="#000000">WebFeatureID    </text>
<text text-anchor="start" x="175.716" y="-756.9" font-family="Arial" font-size="14.00" fill="#666666">[STRING(36)]</text>
<polygon fill="none" stroke="#000000" points="43.5,-715.5 43.5,-745.5 382.5,-745.5 382.5,-715.5 43.5,-715.5"/>
<text text-anchor="start" x="50.5" y="-726.9" font-family="Arial" font-size="14.00" fill="#000000">TotalTests    </text>
<text text-anchor="start" x="150.0456" y="-726.9" font-family="Arial" font-size="14.00" fill="#666666">[INT64]</text>
<polygon fill="none" stroke="#000000" points="43.5,-685.5 43.5,-715.5 382.5,-715.5 382.5,-685.5 43.5,-685.5"/>
<text text-anchor="start" x="50.5" y="-696.9" font-family="Arial" font-size="14.00" fill="#000000">TestPass    </text>
<text text-anchor="start" x="143.0498" y="-696.9" font-family="Arial" font-size="14.00" fill="#666666">[INT64]</text>
<polygon fill="none" stroke="#000000" points="43.5,-655.5 43.5,-685.5 382.5,-685.5 382.5,-655.5 43.5,-655.5"/>
<text text-anchor="start" x="50.5" y="-666.9" font-family="Arial" font-size="14.00" fill="#000000">TestPassRate    </text>
<text text-anchor="start" x="172.6122" y="-666.9" font-family="Arial" font-size="14.00" fill="#666666">[NUMERIC]</text>
<polygon fill="none" stroke="#000000" points="43.5,-625.5 43.5,-655.5 382.5,-655.5 382.5,-625.5 43.5,-625.5"/>
<text text-anchor="start" x="50.5" y="-636.9" font-family="Arial" font-size="14.00" fill="#000000">TotalSubtests    </text>
<text text-anchor="start" x="170.2854" y="-636.9" font-family="Arial" font-size="14.00" fill="#666666">[INT64]</text>
<polygon fill="none" stroke="#000000" points="43.5,-595.5 43.5,-625.5 382.5,-625.5 382.5,-595.5 43.5,-595.5"/>
<text text-anchor="start" x="50.5" y="-606.9" font-family="Arial" font-size="14.00" fill="#000000">SubtestPass    </text>
<text text-anchor="start" x="163.2896" y="-606.9" font-family="Arial" font-size="14.00" fill="#666666">[INT64]</text>
<polygon fill="none" stroke="#000000" points="43.5,-565.5 43.5,-595.5 382.5,-595.5 382.5,-565.5 43.5,-565.5"/>
<text text-anchor="start" x="50.5" y="-576.9" font-family="Arial" font-size="14.00" fill="#000000">SubtestPassRate    </text>
<text text-anchor="start" x="192.852" y="-576.9" font-family="Arial" font-size="14.00" fill="#666666">[NUMERIC]</text>
<polygon fill="none" stroke="#000000" points="43.5,-535.5 43.5,-565.5 382.5,-565.5 382.5,-535.5 43.5,-535.5"/>
<text text-anchor="start" x="50.5" y="-546.9" font-family="Arial" font-size="14.00" fill="#000000">Channel    </text>
<text text-anchor="start" x="136.831" y="-546.9" font-family="Arial" font-size="14.00" fill="#666666">[STRING(32)]</text>
<polygon fill="none" stroke="#000000" points="43.5,-505.5 43.5,-535.5 382.5,-535.5 382.5,-505.5 43.5,-505.5"/>
<text text-anchor="start" x="50.5" y="-516.9" font-family="Arial" font-size="14.00" fill="#000000">BrowserName    </text>
<text text-anchor="start" x="173.3668" y="-516.9" font-family="Arial" font-size="14.00" fill="#666666">[STRING(64)]</text>
<polygon fill="none" stroke="#000000" points="43.5,-475.5 43.5,-505.5 382.5,-505.5 382.5,-475.5 43.5,-475.5"/>
<text text-anchor="start" x="50.5" y="-486.9" font-family="Arial" font-size="14.00" fill="#000000">TimeStart    </text>
<text text-anchor="start" x="145.3682" y="-486.9" font-family="Arial" font-size="14.00" fill="#666666">[TIMESTAMP]</text>
<polygon fill="none" stroke="#000000" points="43.5,-445.5 43.5,-475.5 382.5,-475.5 382.5,-445.5 43.5,-445.5"/>
<text text-anchor="start" x="50.5" y="-456.9" font-family="Arial" font-size="14.00" fill="#000000">FeatureRunDetails    </text>
<text text-anchor="start" x="201.3864" y="-456.9" font-family="Arial" font-size="14.00" fill="#666666">[JSON]</text>
</g>
<!-- WPTRunFeatureMetrics&#45;&gt;WebFeatures -->
<g id="edge1" class="edge">
<title>WPTRunFeatureMetrics:WebFeatureID&#45;&gt;WebFeatures:ID</title>
<path fill="none" stroke="#000000" stroke-dasharray="5,2" d="M392.7174,-758.57C454.9493,-732.7886 378.8695,-456.533 433.5,-403 520.3247,-317.9197 1397.9385,-270.5 1519.5,-270.5"/>
<polygon fill="#000000" stroke="#000000" points="392.3262,-758.6438 381.6647,-756.0782 387.4131,-759.5719 382.5,-760.5 382.5,-760.5 382.5,-760.5 387.4131,-759.5719 383.3353,-764.9218 392.3262,-758.6438 392.3262,-758.6438"/>
</g>
<!-- BrowserFeatureAvailabilities -->
<g id="node3" class="node">
<title>BrowserFeatureAvailabilities</title>
<polygon fill="#efefef" stroke="transparent" points="486.5,-670.5 486.5,-705.5 859.5,-705.5 859.5,-670.5 486.5,-670.5"/>
<polygon fill="none" stroke="#000000" points="486.5,-670.5 486.5,-705.5 859.5,-705.5 859.5,-670.5 486.5,-670.5"/>
<text text-anchor="start" x="493.3822" y="-683.3" font-family="Arial Bold" font-size="18.00" fill="#000000">BrowserFeatureAvailabilities</text>
<text text-anchor="start" x="720.3892" y="-683.3" font-family="Arial" font-size="14.00" fill="#000000">    </text>
<text text-anchor="start" x="754.594" y="-683.3" font-family="Arial" font-size="14.00" fill="#666666">[BASIC TABLE]</text>
<polygon fill="none" stroke="#000000" points="486.5,-640.5 486.5,-670.5 859.5,-670.5 859.5,-640.5 486.5,-640.5"/>
<text text-anchor="start" x="493.5" y="-651.9" font-family="Arial" font-size="14.00" fill="#000000">BrowserName    </text>
<text text-anchor="start" x="616.3668" y="-651.9" font-family="Arial" font-size="14.00" fill="#666666">[STRING(64)]</text>
<polygon fill="none" stroke="#000000" points="486.5,-610.5 486.5,-640.5 859.5,-640.5 859.5,-610.5 486.5,-610.5"/>
<text text-anchor="start" x="493.5" y="-621.9" font-family="Arial" font-size="14.00" fill="#000000">BrowserVersion    </text>
<text text-anchor="start" x="626.486" y="-621.9" font-family="Arial" font-size="14.00" fill="#666666">[STRING(8)]</text>
<polygon fill="none" stroke="#000000" points="486.5,-580.5 486.5,-610.5 859.5,-610.5 859.5,-580.5 486.5,-580.5"/>
<text text-anchor="start" x="493.5" y="-591.9" font-family="Arial" font-size="14.00" fill="#000000">WebFeatureID    </text>
<text text-anchor="start" x="618.716" y="-591.9" font-family="Arial" font-size="14.00" fill="#666666">[STRING(36)]</text>
</g>
<!-- BrowserFeatureAvailabilities&#45;&gt;WebFeatures -->
<g id="edge2" class="edge">
<title>BrowserFeatureAvailabilities:WebFeatureID&#45;&gt;WebFeatures:ID</title>
<path fill="none" stroke="#000000" stroke-dasharray="5,2" d="M869.9028,-594.7882C939.7632,-584.3379 850.0686,-461.4775 911.5,-403 1011.6588,-307.6574 1381.2177,-270.5 1519.5,-270.5"/>
<polygon fill="#000000" stroke="#000000" points="869.4767,-594.8173 859.1928,-591.0105 864.4883,-595.1586 859.5,-595.5 859.5,-595.5 859.5,-595.5 864.4883,-595.1586 859.8072,-599.9895 869.4767,-594.8173 869.4767,-594.8173"/>
</g>
<!-- FeatureBaselineStatus -->
<g id="node4" class="node">
<title>FeatureBaselineStatus</title>
<polygon fill="#efefef" stroke="transparent" points="963.5,-685.5 963.5,-720.5 1291.5,-720.5 1291.5,-685.5 963.5,-685.5"/>
<polygon fill="none" stroke="#000000" points="963.5,-685.5 963.5,-720.5 1291.5,-720.5 1291.5,-685.5 963.5,-685.5"/>
<text text-anchor="start" x="970.3588" y="-698.3" font-family="Arial Bold" font-size="18.00" fill="#000000">FeatureBaselineStatus</text>
<text text-anchor="start" x="1152.4126" y="-698.3" font-family="Arial" font-size="14.00" fill="#000000">    </text>
<text text-anchor="start" x="1186.6174" y="-698.3" font-family="Arial" font-size="14.00" fill="#666666">[BASIC TABLE]</text>
<polygon fill="none" stroke="#000000" points="963.5,-655.5 963.5,-685.5 1291.5,-685.5 1291.5,-655.5 963.5,-655.5"/>
<text text-anchor="start" x="970.5" y="-666.9" font-family="Arial" font-size="14.00" fill="#000000">WebFeatureID    </text>
<text text-anchor="start" x="1095.716" y="-666.9" font-family="Arial" font-size="14.00" fill="#666666">[STRING(36)]</text>
<polygon fill="none" stroke="#000000" points="963.5,-625.5 963.5,-655.5 1291.5,-655.5 1291.5,-625.5 963.5,-625.5"/>
<text text-anchor="start" x="970.5" y="-636.9" font-family="Arial" font-size="14.00" fill="#000000">Status    </text>
<text text-anchor="start" x="1044.3878" y="-636.9" font-family="Arial" font-size="14.00" fill="#666666">[STRING(16)]</text>
<polygon fill="none" stroke="#000000" points="963.5,-595.5 963.5,-625.5 1291.5,-625.5 1291.5,-595.5 963.5,-595.5"/>
<text text-anchor="start" x="970.5" y="-606.9" font-family="Arial" font-size="14.00" fill="#000000">LowDate    </text>
<text text-anchor="start" x="1059.939" y="-606.9" font-family="Arial" font-size="14.00" fill="#666666">[TIMESTAMP]</text>
<polygon fill="none" stroke="#000000" points="963.5,-565.5 963.5,-595.5 1291.5,-595.5 1291.5,-565.5 963.5,-565.5"/>
<text text-anchor="start" x="970.5" y="-576.9" font-family="Arial" font-size="14.00" fill="#000000">HighDate    </text>
<text text-anchor="start" x="1063.0456" y="-576.9" font-family="Arial" font-size="14.00" fill="#666666">[TIMESTAMP]</text>
</g>
<!-- FeatureBaselineStatus&#45;&gt;WebFeatures -->
<g id="edge3" class="edge">
<title>FeatureBaselineStatus:WebFeatureID&#45;&gt;WebFeatures:ID</title>
<path fill="none" stroke="#000000" stroke-dasharray="5,2" d="M1301.4251,-668.2074C1347.4003,-644.9295 1313.3413,-451.239 1343.5,-403 1395.4044,-319.9786 1421.5887,-270.5 1519.5,-270.5"/>
<polygon fill="#000000" stroke="#000000" points="1301.2434,-668.2493 1290.4872,-666.1155 1296.3717,-669.3746 1291.5,-670.5 1291.5,-670.5 1291.5,-670.5 1296.3717,-669.3746 1292.5128,-674.8845 1301.2434,-668.2493 1301.2434,-668.2493"/>
</g>
<!-- WebFeatureChromiumHistogramEnumValues -->
<g id="node5" class="node">
<title>WebFeatureChromiumHistogramEnumValues</title>
<polygon fill="#efefef" stroke="transparent" points="1395.5,-655.5 1395.5,-690.5 1907.5,-690.5 1907.5,-655.5 1395.5,-655.5"/>
<polygon fill="none" stroke="#000000" points="1395.5,-655.5 1395.5,-690.5 1907.5,-690.5 1907.5,-655.5 1395.5,-655.5"/>
<text text-anchor="start" x="1402.3752" y="-668.3" font-family="Arial Bold" font-size="18.00" fill="#000000">WebFeatureChromiumHistogramEnumValues</text>
<text text-anchor="start" x="1768.3962" y="-668.3" font-family="Arial" font-size="14.00" fill="#000000">    </text>
<text text-anchor="start" x="1802.601" y="-668.3" font-family="Arial" font-size="14.00" fill="#666666">[BASIC TABLE]</text>
<polygon fill="none" stroke="#000000" points="1395.5,-625.5 1395.5,-655.5 1907.5,-655.5 1907.5,-625.5 1395.5,-625.5"/>
<text text-anchor="start" x="1402.5" y="-636.9" font-family="Arial" font-size="14.00" fill="#000000">WebFeatureID    </text>
<text text-anchor="start" x="1527.716" y="-636.9" font-family="Arial" font-size="14.00" fill="#666666">[STRING(36)]</text>
<polygon fill="none" stroke="#000000" points="1395.5,-595.5 1395.5,-625.5 1907.5,-625.5 1907.5,-595.5 1395.5,-595.5"/>
<text text-anchor="start" x="1402.5" y="-606.9" font-family="Arial" font-size="14.00" fill="#000000">ChromiumHistogramEnumValueID    </text>
<text text-anchor="start" x="1651.371" y="-606.9" font-family="Arial" font-size="14.00" fill="#666666">[STRING(36)]</text>
</g>
<!-- WebFeatureChromiumHistogramEnumValues&#45;&gt;WebFeatures -->
<g id="edge4" class="edge">
<title>WebFeatureChromiumHistogramEnumValues:WebFeatureID&#45;&gt;WebFeatures:ID</title>
<path fill="none" stroke="#000000" stroke-dasharray="5,2" d="M1385.3601,-638.8909C1360.3311,-629.6369 1376.8997,-582.5767 1395.5,-553 1497.0926,-391.4552 1680.9074,-528.5448 1782.5,-367 1805.3323,-330.6938 1825.3889,-270.5 1782.5,-270.5"/>
<polygon fill="#000000" stroke="#000000" points="1385.6236,-638.9326 1394.7947,-644.9444 1390.5618,-639.7163 1395.5,-640.5 1395.5,-640.5 1395.5,-640.5 1390.5618,-639.7163 1396.2053,-636.0556 1385.6236,-638.9326 1385.6236,-638.9326"/>
</g>
<!-- FeatureGroupKeysLookup -->
<g id="node6" class="node">
<title>FeatureGroupKeysLookup</title>
<polygon fill="#efefef" stroke="transparent" points="2012.5,-685.5 2012.5,-720.5 2369.5,-720.5 2369.5,-685.5 2012.5,-685.5"/>
<polygon fill="none" stroke="#000000" points="2012.5,-685.5 2012.5,-720.5 2369.5,-720.5 2369.5,-685.5 2012.5,-685.5"/>
<text text-anchor="start" x="2019.3508" y="-698.3" font-family="Arial Bold" font-size="18.00" fill="#000000">FeatureGroupKeysLookup</text>
<text text-anchor="start" x="2230.4206" y="-698.3" font-family="Arial" font-size="14.00" fill="#000000">    </text>
<text text-anchor="start" x="2264.6254" y="-698.3" font-family="Arial" font-size="14.00" fill="#666666">[BASIC TABLE]</text>
<polygon fill="none" stroke="#000000" points="2012.5,-655.5 2012.5,-685.5 2369.5,-685.5 2369.5,-655.5 2012.5,-655.5"/>
<text text-anchor="start" x="2019.5" y="-666.9" font-family="Arial" font-size="14.00" fill="#000000">GroupKey_Lowercase    </text>
<text text-anchor="start" x="2192.1858" y="-666.9" font-family="Arial" font-size="14.00" fill="#666666">[STRING(64)]</text>
<polygon fill="none" stroke="#000000" points="2012.5,-625.5 2012.5,-655.5 2369.5,-655.5 2369.5,-625.5 2012.5,-625.5"/>
<text text-anchor="start" x="2019.5" y="-636.9" font-family="Arial" font-size="14.00" fill="#000000">WebFeatureID    </text>
<text text-anchor="start" x="2144.716" y="-636.9" font-family="Arial" font-size="14.00" fill="#666666">[STRING(36)]</text>
<polygon fill="none" stroke="#000000" points="2012.5,-595.5 2012.5,-625.5 2369.5,-625.5 2369.5,-595.5 2012.5,-595.5"/>
<text text-anchor="start" x="2019.5" y="-606.9" font-family="Arial" font-size="14.00" fill="#000000">GroupID    </text>
<text text-anchor="start" x="2106.601" y="-606.9" font-family="Arial" font-size="14.00" fill="#666666">[STRING(36)]</text>
<polygon fill="none" stroke="#000000" points="2012.5,-565.5 2012.5,-595.5 2369.5,-595.5 2369.5,-565.5 2012.5,-565.5"/>
<text text-anchor="start" x="2019.5" y="-576.9" font-family="Arial" font-size="14.00" fill="#000000">Depth    </text>
<text text-anchor="start" x="2091.0498" y="-576.9" font-family="Arial" font-size="14.00" fill="#666666">[INT64]</text>
</g>
<!-- FeatureGroupKeysLookup&#45;&gt;WebFeatures -->
<g id="edge5" class="edge">
<title>FeatureGroupKeysLookup:WebFeatureID&#45;&gt;WebFeatures:ID</title>
<path fill="none" stroke="#000000" stroke-dasharray="5,2" d="M2002.4469,-640.0223C1911.7193,-630.8215 2016.2656,-490.8104 1959.5,-403 1906.1515,-320.4755 1880.7667,-270.5 1782.5,-270.5"/>
<polygon fill="#000000" stroke="#000000" points="2002.5113,-640.0253 2012.2864,-644.9949 2007.5056,-640.2626 2012.5,-640.5 2012.5,-640.5 2012.5,-640.5 2007.5056,-640.2626 2012.7136,-636.0051 2002.5113,-640.0253 2002.5113,-640.0253"/>
</g>
<!-- WebFeatureSnapshots -->
<g id="node7" class="node">
<title>WebFeatureSnapshots</title>
<polygon fill="#efefef" stroke="transparent" points="2473.5,-655.5 2473.5,-690.5 2803.5,-690.5 2803.5,-655.5 2473.5,-655.5"/>
<polygon fill="none" stroke="#000000" points="2473.5,-655.5 2473.5,-690.5 2803.5,-690.5 2803.5,-655.5 2473.5,-655.5"/>
<text text-anchor="start" x="2480.358" y="-668.3" font-family="Arial Bold" font-size="18.00" fill="#000000">WebFeatureSnapshots</text>
<text text-anchor="start" x="2664.4134" y="-668.3" font-family="Arial" font-size="14.00" fill="#000000">    </text>
<text text-anchor="start" x="2698.6182" y="-668.3" font-family="Arial" font-size="14.00" fill="#666666">[BASIC TABLE]</text>
<polygon fill="none" stroke="#000000" points="2473.5,-625.5 2473.5,-655.5 2803.5,-655.5 2803.5,-625.5 2473.5,-625.5"/>
<text text-anchor="start" x="2480.5" y="-636.9" font-family="Arial" font-size="14.00" fill="#000000">WebFeatureID    </text>
<text text-anchor="start" x="2605.716" y="-636.9" font-family="Arial" font-size="14.00" fill="#666666">[STRING(36)]</text>
<polygon fill="none" stroke="#000000" points="2473.5,-595.5 2473.5,-625.5 2803.5,-625.5 2803.5,-595.5 2473.5,-595.5"/>
<text text-anchor="start" x="2480.5" y="-606.9" font-family="Arial" font-size="14.00" fill="#000000">SnapshotIDs    </text>
<text text-anchor="start" x="2594.8422" y="-606.9" font-family="Arial" font-size="14.00" fill="#666666">[ARRAY&lt;STRING(36)&gt;]</text>
</g>
<!-- WebFeatureSnapshots&#45;&gt;WebFeatures -->
<g id="edge6" class="edge">
<title>WebFeatureSnapshots:WebFeatureID&#45;&gt;WebFeatures:ID</title>
<path fill="none" stroke="#000000" stroke-dasharray="5,2" d="M2463.2465,-639.9438C2374.283,-629.5587 2495.7036,-476.3853 2421.5,-403 2318.388,-301.025 1927.5206,-270.5 1782.5,-270.5"/>
<polygon fill="#000000" stroke="#000000" points="2463.5147,-639.9582 2473.2562,-644.9934 2468.5073,-640.2291 2473.5,-640.5 2473.5,-640.5 2473.5,-640.5 2468.5073,-640.2291 2473.7438,-636.0066 2463.5147,-639.9582 2463.5147,-639.9582"/>
</g>
<!-- BrowserFeatureSupportEvents -->
<g id="node8" class="node">
<title>BrowserFeatureSupportEvents</title>
<polygon fill="#efefef" stroke="transparent" points="2907.5,-700.5 2907.5,-735.5 3299.5,-735.5 3299.5,-700.5 2907.5,-700.5"/>
<polygon fill="none" stroke="#000000" points="2907.5,-700.5 2907.5,-735.5 3299.5,-735.5 3299.5,-700.5 2907.5,-700.5"/>
<text text-anchor="start" x="2914.3593" y="-713.3" font-family="Arial Bold" font-size="18.00" fill="#000000">BrowserFeatureSupportEvents</text>
<text text-anchor="start" x="3160.4121" y="-713.3" font-family="Arial" font-size="14.00" fill="#000000">    </text>
<text text-anchor="start" x="3194.6169" y="-713.3" font-family="Arial" font-size="14.00" fill="#666666">[BASIC TABLE]</text>
<polygon fill="none" stroke="#000000" points="2907.5,-670.5 2907.5,-700.5 3299.5,-700.5 3299.5,-670.5 2907.5,-670.5"/>
<text text-anchor="start" x="2914.5" y="-681.9" font-family="Arial" font-size="14.00" fill="#000000">TargetBrowserName    </text>
<text text-anchor="start" x="3077.8184" y="-681.9" font-family="Arial" font-size="14.00" fill="#666666">[STRING(64)]</text>
<polygon fill="none" stroke="#000000" points="2907.5,-640.5 2907.5,-670.5 3299.5,-670.5 3299.5,-640.5 2907.5,-640.5"/>
<text text-anchor="start" x="2914.5" y="-651.9" font-family="Arial" font-size="14.00" fill="#000000">EventBrowserName    </text>
<text text-anchor="start" x="3073.1592" y="-651.9" font-family="Arial" font-size="14.00" fill="#666666">[STRING(64)]</text>
<polygon fill="none" stroke="#000000" points="2907.5,-610.5 2907.5,-640.5 3299.5,-640.5 3299.5,-610.5 2907.5,-610.5"/>
<text text-anchor="start" x="2914.5" y="-621.9" font-family="Arial" font-size="14.00" fill="#000000">EventReleaseDate    </text>
<text text-anchor="start" x="3065.4032" y="-621.9" font-family="Arial" font-size="14.00" fill="#666666">[TIMESTAMP]</text>
<polygon fill="none" stroke="#000000" points="2907.5,-580.5 2907.5,-610.5 3299.5,-610.5 3299.5,-580.5 2907.5,-580.5"/>
<text text-anchor="start" x="2914.5" y="-591.9" font-family="Arial" font-size="14.00" fill="#000000">WebFeatureID    </text>
<text text-anchor="start" x="3039.716" y="-591.9" font-family="Arial" font-size="14.00" fill="#666666">[STRING(36)]</text>
<polygon fill="none" stroke="#000000" points="2907.5,-550.5 2907.5,-580.5 3299.5,-580.5 3299.5,-550.5 2907.5,-550.5"/>
<text text-anchor="start" x="2914.5" y="-561.9" font-family="Arial" font-size="14.00" fill="#000000">SupportStatus    </text>
<text text-anchor="start" x="3037.406" y="-561.9" font-family="Arial" font-size="14.00" fill="#666666">[STRING(32)]</text>
</g>
<!-- BrowserFeatureSupportEvents&#45;&gt;WebFeatures -->
<g id="edge7" class="edge">
<title>BrowserFeatureSupportEvents:WebFeatureID&#45;&gt;WebFeatures:ID</title>
<path fill="none" stroke="#000000" stroke-dasharray="5,2" d="M2897.1117,-594.7723C2827.4616,-584.0906 2919.5474,-458.6001 2855.5,-403 2764.7855,-324.25 1902.6278,-270.5 1782.5,-270.5"/>
<polygon fill="#000000" stroke="#000000" points="2897.5244,-594.8011 2907.1855,-599.989 2902.5122,-595.1505 2907.5,-595.5 2907.5,-595.5 2907.5,-595.5 2902.5122,-595.1505 2907.8145,-591.011 2897.5244,-594.8011 2897.5244,-594.8011"/>
</g>
</g>
</svg>
