<?xml version="1.0" encoding="UTF-8" standalone="no"?>
<!DOCTYPE svg PUBLIC "-//W3C//DTD SVG 1.1//EN"
 "http://www.w3.org/Graphics/SVG/1.1/DTD/svg11.dtd">
<!-- Generated by graphviz version 2.40.1 (20161225.0304)
 -->
<!-- Title: WebFeaturesMappingData Pages: 1 -->
<svg width="461pt" height="195pt"
 viewBox="0.00 0.00 461.00 195.00" xmlns="http://www.w3.org/2000/svg" xmlns:xlink="http://www.w3.org/1999/xlink">
<g id="graph0" class="graph" transform="scale(1 1) rotate(0) translate(4 191)">
<title>WebFeaturesMappingData</title>
<polygon fill="#ffffff" stroke="transparent" points="-4,4 -4,-191 457,-191 457,4 -4,4"/>
<!-- WebFeaturesMappingData -->
<g id="node1" class="node">
<title>WebFeaturesMappingData</title>
<polygon fill="#efefef" stroke="transparent" points="46.5,-105.5 46.5,-140.5 407.5,-140.5 407.5,-105.5 46.5,-105.5"/>
<polygon fill="none" stroke="#000000" points="46.5,-105.5 46.5,-140.5 407.5,-140.5 407.5,-105.5 46.5,-105.5"/>
<text text-anchor="start" x="53.3636" y="-118.3" font-family="Arial Bold" font-size="18.00" fill="#000000">WebFeaturesMappingData</text>
<text text-anchor="start" x="268.4078" y="-118.3" font-family="Arial" font-size="14.00" fill="#000000">    </text>
<text text-anchor="start" x="302.6126" y="-118.3" font-family="Arial" font-size="14.00" fill="#666666">[BASIC TABLE]</text>
<polygon fill="none" stroke="#000000" points="46.5,-75.5 46.5,-105.5 407.5,-105.5 407.5,-75.5 46.5,-75.5"/>
<text text-anchor="start" x="53.5" y="-86.9" font-family="Arial" font-size="14.00" fill="#000000">WebFeatureID </text>
<text text-anchor="start" x="148.4018" y="-86.9" font-family="Arial" font-size="14.00" fill="#666666">[STRING(36)]</text>
<polygon fill="none" stroke="#000000" points="46.5,-45.5 46.5,-75.5 407.5,-75.5 407.5,-45.5 46.5,-45.5"/>
<text text-anchor="start" x="53.5" y="-56.9" font-family="Arial" font-size="14.00" fill="#000000">VendorPositions </text>
<text text-anchor="start" x="159.3064" y="-56.9" font-family="Arial" font-size="14.00" fill="#666666">[JSON]</text>
<polygon fill="none" stroke="#000000" stroke-width="3" points="44.5,-44.5 44.5,-142.5 408.5,-142.5 408.5,-44.5 44.5,-44.5"/>
</g>
</g>
</svg>
