<?xml version="1.0" encoding="UTF-8" standalone="no"?>
<!DOCTYPE svg PUBLIC "-//W3C//DTD SVG 1.1//EN"
 "http://www.w3.org/Graphics/SVG/1.1/DTD/svg11.dtd">
<!-- Generated by graphviz version 2.40.1 (20161225.0304)
 -->
<!-- Title: WebFeatures Pages: 1 -->
<svg width="1343pt" height="532pt"
 viewBox="0.00 0.00 1342.50 532.00" xmlns="http://www.w3.org/2000/svg" xmlns:xlink="http://www.w3.org/1999/xlink">
<g id="graph0" class="graph" transform="scale(1 1) rotate(0) translate(4 528)">
<title>WebFeatures</title>
<polygon fill="#ffffff" stroke="transparent" points="-4,4 -4,-528 1338.5,-528 1338.5,4 -4,4"/>
<!-- WebFeatures -->
<g id="node1" class="node">
<title>WebFeatures</title>
<polygon fill="#efefef" stroke="transparent" points="546.5,-135.5 546.5,-170.5 800.5,-170.5 800.5,-135.5 546.5,-135.5"/>
<polygon fill="none" stroke="#000000" points="546.5,-135.5 546.5,-170.5 800.5,-170.5 800.5,-135.5 546.5,-135.5"/>
<text text-anchor="start" x="553.3767" y="-148.3" font-family="Arial Bold" font-size="18.00" fill="#000000">WebFeatures</text>
<text text-anchor="start" x="661.3947" y="-148.3" font-family="Arial" font-size="14.00" fill="#000000">    </text>
<text text-anchor="start" x="695.5995" y="-148.3" font-family="Arial" font-size="14.00" fill="#666666">[BASIC TABLE]</text>
<polygon fill="none" stroke="#000000" points="546.5,-105.5 546.5,-135.5 800.5,-135.5 800.5,-105.5 546.5,-105.5"/>
<text text-anchor="start" x="553.5" y="-116.9" font-family="Arial" font-size="14.00" fill="#000000">ID </text>
<text text-anchor="start" x="571.3878" y="-116.9" font-family="Arial" font-size="14.00" fill="#666666">[STRING(36)]</text>
<polygon fill="none" stroke="#000000" points="546.5,-75.5 546.5,-105.5 800.5,-105.5 800.5,-75.5 546.5,-75.5"/>
<text text-anchor="start" x="553.5" y="-86.9" font-family="Arial" font-size="14.00" fill="#000000">FeatureID </text>
<text text-anchor="start" x="619.622" y="-86.9" font-family="Arial" font-size="14.00" fill="#666666">[STRING(64)]</text>
<polygon fill="none" stroke="#000000" points="546.5,-45.5 546.5,-75.5 800.5,-75.5 800.5,-45.5 546.5,-45.5"/>
<text text-anchor="start" x="553.5" y="-56.9" font-family="Arial" font-size="14.00" fill="#000000">Name </text>
<text text-anchor="start" x="594.723" y="-56.9" font-family="Arial" font-size="14.00" fill="#666666">[STRING(64)]</text>
<polygon fill="none" stroke="#000000" stroke-width="3" points="545,-44.5 545,-172.5 802,-172.5 802,-44.5 545,-44.5"/>
</g>
<!-- WPTRunFeatureMetrics -->
<g id="node2" class="node">
<title>WPTRunFeatureMetrics</title>
<polygon fill="#efefef" stroke="transparent" points="43.5,-445.5 43.5,-480.5 382.5,-480.5 382.5,-445.5 43.5,-445.5"/>
<polygon fill="none" stroke="#000000" points="43.5,-445.5 43.5,-480.5 382.5,-480.5 382.5,-445.5 43.5,-445.5"/>
<text text-anchor="start" x="50.3859" y="-458.3" font-family="Arial Bold" font-size="18.00" fill="#000000">WPTRunFeatureMetrics</text>
<text text-anchor="start" x="243.3855" y="-458.3" font-family="Arial" font-size="14.00" fill="#000000">    </text>
<text text-anchor="start" x="277.5903" y="-458.3" font-family="Arial" font-size="14.00" fill="#666666">[BASIC TABLE]</text>
<polygon fill="none" stroke="#000000" points="43.5,-415.5 43.5,-445.5 382.5,-445.5 382.5,-415.5 43.5,-415.5"/>
<text text-anchor="start" x="50.5" y="-426.9" font-family="Arial" font-size="14.00" fill="#000000">ID    </text>
<text text-anchor="start" x="98.702" y="-426.9" font-family="Arial" font-size="14.00" fill="#666666">[STRING(36)]</text>
<polygon fill="none" stroke="#000000" points="43.5,-385.5 43.5,-415.5 382.5,-415.5 382.5,-385.5 43.5,-385.5"/>
<text text-anchor="start" x="50.5" y="-396.9" font-family="Arial" font-size="14.00" fill="#000000">ExternalRunID    </text>
<text text-anchor="start" x="175.716" y="-396.9" font-family="Arial" font-size="14.00" fill="#666666">[INT64]</text>
<polygon fill="none" stroke="#000000" points="43.5,-355.5 43.5,-385.5 382.5,-385.5 382.5,-355.5 43.5,-355.5"/>
<text text-anchor="start" x="50.5" y="-366.9" font-family="Arial" font-size="14.00" fill="#000000">FeatureID    </text>
<text text-anchor="start" x="146.9362" y="-366.9" font-family="Arial" font-size="14.00" fill="#666666">[STRING(64)]</text>
<polygon fill="none" stroke="#000000" points="43.5,-325.5 43.5,-355.5 382.5,-355.5 382.5,-325.5 43.5,-325.5"/>
<text text-anchor="start" x="50.5" y="-336.9" font-family="Arial" font-size="14.00" fill="#000000">TotalTests    </text>
<text text-anchor="start" x="150.0456" y="-336.9" font-family="Arial" font-size="14.00" fill="#666666">[INT64]</text>
<polygon fill="none" stroke="#000000" points="43.5,-295.5 43.5,-325.5 382.5,-325.5 382.5,-295.5 43.5,-295.5"/>
<text text-anchor="start" x="50.5" y="-306.9" font-family="Arial" font-size="14.00" fill="#000000">TestPass    </text>
<text text-anchor="start" x="143.0498" y="-306.9" font-family="Arial" font-size="14.00" fill="#666666">[INT64]</text>
</g>
<!-- WPTRunFeatureMetrics&#45;&gt;WebFeatures -->
<g id="edge1" class="edge">
<title>WPTRunFeatureMetrics:FeatureID&#45;&gt;WebFeatures:FeatureID</title>
<path fill="none" stroke="#000000" stroke-dasharray="5,2" d="M392.6876,-369.6285C435.2308,-361.5782 407.6206,-299.4225 433.5,-253 476.3335,-176.165 458.5323,-90.5 546.5,-90.5"/>
<polygon fill="#000000" stroke="#000000" points="392.4636,-369.6476 382.1164,-366.0164 387.4818,-370.0738 382.5,-370.5 382.5,-370.5 382.5,-370.5 387.4818,-370.0738 382.8836,-374.9836 392.4636,-369.6476 392.4636,-369.6476"/>
</g>
<!-- BrowserFeatureAvailabilities -->
<g id="node3" class="node">
<title>BrowserFeatureAvailabilities</title>
<polygon fill="#efefef" stroke="transparent" points="486.5,-415.5 486.5,-450.5 859.5,-450.5 859.5,-415.5 486.5,-415.5"/>
<polygon fill="none" stroke="#000000" points="486.5,-415.5 486.5,-450.5 859.5,-450.5 859.5,-415.5 486.5,-415.5"/>
<text text-anchor="start" x="493.3822" y="-428.3" font-family="Arial Bold" font-size="18.00" fill="#000000">BrowserFeatureAvailabilities</text>
<text text-anchor="start" x="720.3892" y="-428.3" font-family="Arial" font-size="14.00" fill="#000000">    </text>
<text text-anchor="start" x="754.594" y="-428.3" font-family="Arial" font-size="14.00" fill="#666666">[BASIC TABLE]</text>
<polygon fill="none" stroke="#000000" points="486.5,-385.5 486.5,-415.5 859.5,-415.5 859.5,-385.5 486.5,-385.5"/>
<text text-anchor="start" x="493.5" y="-396.9" font-family="Arial" font-size="14.00" fill="#000000">BrowserName    </text>
<text text-anchor="start" x="616.3668" y="-396.9" font-family="Arial" font-size="14.00" fill="#666666">[STRING(64)]</text>
<polygon fill="none" stroke="#000000" points="486.5,-355.5 486.5,-385.5 859.5,-385.5 859.5,-355.5 486.5,-355.5"/>
<text text-anchor="start" x="493.5" y="-366.9" font-family="Arial" font-size="14.00" fill="#000000">BrowserVersion    </text>
<text text-anchor="start" x="626.486" y="-366.9" font-family="Arial" font-size="14.00" fill="#666666">[STRING(8)]</text>
<polygon fill="none" stroke="#000000" points="486.5,-325.5 486.5,-355.5 859.5,-355.5 859.5,-325.5 486.5,-325.5"/>
<text text-anchor="start" x="493.5" y="-336.9" font-family="Arial" font-size="14.00" fill="#000000">FeatureID    </text>
<text text-anchor="start" x="589.9362" y="-336.9" font-family="Arial" font-size="14.00" fill="#666666">[STRING(64)]</text>
</g>
<!-- BrowserFeatureAvailabilities&#45;&gt;WebFeatures -->
<g id="edge2" class="edge">
<title>BrowserFeatureAvailabilities:FeatureID&#45;&gt;WebFeatures:FeatureID</title>
<path fill="none" stroke="#000000" stroke-dasharray="5,2" d="M672.8326,-315.3692C664.287,-254.26 576.0584,-281.1294 546.5,-217 522.9657,-165.9405 490.2778,-90.5 546.5,-90.5"/>
<polygon fill="#000000" stroke="#000000" points="672.8426,-315.5216 669.0097,-325.7958 673.1713,-320.5108 673.5,-325.5 673.5,-325.5 673.5,-325.5 673.1713,-320.5108 677.9903,-325.2042 672.8426,-315.5216 672.8426,-315.5216"/>
</g>
<!-- FeatureBaselineStatus -->
<g id="node4" class="node">
<title>FeatureBaselineStatus</title>
<polygon fill="#efefef" stroke="transparent" points="963.5,-430.5 963.5,-465.5 1291.5,-465.5 1291.5,-430.5 963.5,-430.5"/>
<polygon fill="none" stroke="#000000" points="963.5,-430.5 963.5,-465.5 1291.5,-465.5 1291.5,-430.5 963.5,-430.5"/>
<text text-anchor="start" x="970.3588" y="-443.3" font-family="Arial Bold" font-size="18.00" fill="#000000">FeatureBaselineStatus</text>
<text text-anchor="start" x="1152.4126" y="-443.3" font-family="Arial" font-size="14.00" fill="#000000">    </text>
<text text-anchor="start" x="1186.6174" y="-443.3" font-family="Arial" font-size="14.00" fill="#666666">[BASIC TABLE]</text>
<polygon fill="none" stroke="#000000" points="963.5,-400.5 963.5,-430.5 1291.5,-430.5 1291.5,-400.5 963.5,-400.5"/>
<text text-anchor="start" x="970.5" y="-411.9" font-family="Arial" font-size="14.00" fill="#000000">FeatureID    </text>
<text text-anchor="start" x="1066.9362" y="-411.9" font-family="Arial" font-size="14.00" fill="#666666">[STRING(64)]</text>
<polygon fill="none" stroke="#000000" points="963.5,-370.5 963.5,-400.5 1291.5,-400.5 1291.5,-370.5 963.5,-370.5"/>
<text text-anchor="start" x="970.5" y="-381.9" font-family="Arial" font-size="14.00" fill="#000000">Status    </text>
<text text-anchor="start" x="1044.3878" y="-381.9" font-family="Arial" font-size="14.00" fill="#666666">[STRING(16)]</text>
<polygon fill="none" stroke="#000000" points="963.5,-340.5 963.5,-370.5 1291.5,-370.5 1291.5,-340.5 963.5,-340.5"/>
<text text-anchor="start" x="970.5" y="-351.9" font-family="Arial" font-size="14.00" fill="#000000">LowDate    </text>
<text text-anchor="start" x="1059.939" y="-351.9" font-family="Arial" font-size="14.00" fill="#666666">[TIMESTAMP]</text>
<polygon fill="none" stroke="#000000" points="963.5,-310.5 963.5,-340.5 1291.5,-340.5 1291.5,-310.5 963.5,-310.5"/>
<text text-anchor="start" x="970.5" y="-321.9" font-family="Arial" font-size="14.00" fill="#000000">HighDate    </text>
<text text-anchor="start" x="1063.0456" y="-321.9" font-family="Arial" font-size="14.00" fill="#666666">[TIMESTAMP]</text>
</g>
<!-- FeatureBaselineStatus&#45;&gt;WebFeatures -->
<g id="edge3" class="edge">
<title>FeatureBaselineStatus:FeatureID&#45;&gt;WebFeatures:FeatureID</title>
<path fill="none" stroke="#000000" stroke-dasharray="5,2" d="M953.317,-414.8391C893.0326,-406.3469 943.1642,-317.8053 911.5,-253 873.1032,-174.4156 887.9633,-90.5 800.5,-90.5"/>
<polygon fill="#000000" stroke="#000000" points="953.521,-414.8522 963.2085,-419.9906 958.5105,-415.1761 963.5,-415.5 963.5,-415.5 963.5,-415.5 958.5105,-415.1761 963.7915,-411.0094 953.521,-414.8522 953.521,-414.8522"/>
</g>
</g>
</svg>
