<?xml version="1.0" encoding="UTF-8" standalone="no"?>
<!DOCTYPE svg PUBLIC "-//W3C//DTD SVG 1.1//EN"
 "http://www.w3.org/Graphics/SVG/1.1/DTD/svg11.dtd">
<!-- Generated by graphviz version 12.1.2 (20240928.0832)
 -->
<!-- Title: WebFeatureSnapshots Pages: 1 -->
<svg width="780pt" height="602pt"
 viewBox="0.00 0.00 780.07 602.00" xmlns="http://www.w3.org/2000/svg" xmlns:xlink="http://www.w3.org/1999/xlink">
<g id="graph0" class="graph" transform="scale(1 1) rotate(0) translate(4 598)">
<title>WebFeatureSnapshots</title>
<polygon fill="white" stroke="none" points="-4,4 -4,-598 776.07,-598 776.07,4 -4,4"/>
<!-- WebFeatureSnapshots -->
<g id="node1" class="node">
<title>WebFeatureSnapshots</title>
<polygon fill="#efefef" stroke="none" points="46.2,-512.2 46.2,-547.8 350.31,-547.8 350.31,-512.2 46.2,-512.2"/>
<polygon fill="none" stroke="black" points="46.2,-512.2 46.2,-547.8 350.31,-547.8 350.31,-512.2 46.2,-512.2"/>
<text text-anchor="start" x="53.2" y="-525.6" font-family="Arial Bold" font-size="18.00">WebFeatureSnapshots</text>
<text text-anchor="start" x="214.16" y="-525.6" font-family="Arial" font-size="14.00">    </text>
<text text-anchor="start" x="245.28" y="-525.6" font-family="Arial" font-size="14.00" fill="#666666">[BASIC TABLE]</text>
<polygon fill="none" stroke="black" points="46.2,-481.4 46.2,-512.2 350.31,-512.2 350.31,-481.4 46.2,-481.4"/>
<text text-anchor="start" x="53.2" y="-493.6" font-family="Arial" font-size="14.00">WebFeatureID </text>
<text text-anchor="start" x="148.12" y="-493.6" font-family="Arial" font-size="14.00" fill="#666666">[STRING(36)]</text>
<polygon fill="none" stroke="black" points="46.2,-450.6 46.2,-481.4 350.31,-481.4 350.31,-450.6 46.2,-450.6"/>
<text text-anchor="start" x="53.2" y="-462.8" font-family="Arial" font-size="14.00">SnapshotIDs </text>
<text text-anchor="start" x="137.25" y="-462.8" font-family="Arial" font-size="14.00" fill="#666666">[ARRAY&lt;STRING(36)&gt;]</text>
<polygon fill="none" stroke="black" stroke-width="3" points="44.7,-449.1 44.7,-549.3 351.81,-549.3 351.81,-449.1 44.7,-449.1"/>
</g>
<!-- WebFeatures -->
<g id="node2" class="node">
<title>WebFeatures</title>
<polygon fill="#efefef" stroke="none" points="66.39,-289.6 66.39,-325.2 330.13,-325.2 330.13,-289.6 66.39,-289.6"/>
<polygon fill="none" stroke="black" points="66.39,-289.6 66.39,-325.2 330.13,-325.2 330.13,-289.6 66.39,-289.6"/>
<text text-anchor="start" x="86.2" y="-303" font-family="Arial Bold" font-size="18.00">WebFeatures</text>
<text text-anchor="start" x="181.16" y="-303" font-family="Arial" font-size="14.00">    </text>
<text text-anchor="start" x="212.28" y="-303" font-family="Arial" font-size="14.00" fill="#666666">[BASIC TABLE]</text>
<polygon fill="none" stroke="black" points="66.39,-258.8 66.39,-289.6 330.13,-289.6 330.13,-258.8 66.39,-258.8"/>
<text text-anchor="start" x="73.39" y="-271" font-family="Arial" font-size="14.00">ID </text>
<text text-anchor="start" x="91.28" y="-271" font-family="Arial" font-size="14.00" fill="#666666">[STRING(36)]</text>
<polygon fill="none" stroke="black" points="66.39,-228 66.39,-258.8 330.13,-258.8 330.13,-228 66.39,-228"/>
<text text-anchor="start" x="73.39" y="-240.2" font-family="Arial" font-size="14.00">FeatureKey </text>
<text text-anchor="start" x="149.65" y="-240.2" font-family="Arial" font-size="14.00" fill="#666666">[STRING(64)]</text>
<polygon fill="none" stroke="black" points="66.39,-197.2 66.39,-228 330.13,-228 330.13,-197.2 66.39,-197.2"/>
<text text-anchor="start" x="73.39" y="-209.4" font-family="Arial" font-size="14.00">Name </text>
<text text-anchor="start" x="114.62" y="-209.4" font-family="Arial" font-size="14.00" fill="#666666">[STRING(64)]</text>
<polygon fill="none" stroke="black" points="66.39,-166.4 66.39,-197.2 330.13,-197.2 330.13,-166.4 66.39,-166.4"/>
<text text-anchor="start" x="73.39" y="-178.6" font-family="Arial" font-size="14.00">FeatureKey_Lowercase </text>
<text text-anchor="start" x="225.14" y="-178.6" font-family="Arial" font-size="14.00" fill="#666666">[STRING(64)]</text>
<polygon fill="none" stroke="black" points="66.39,-135.6 66.39,-166.4 330.13,-166.4 330.13,-135.6 66.39,-135.6"/>
<text text-anchor="start" x="73.39" y="-147.8" font-family="Arial" font-size="14.00">Name_Lowercase </text>
<text text-anchor="start" x="190.11" y="-147.8" font-family="Arial" font-size="14.00" fill="#666666">[STRING(64)]</text>
<polygon fill="none" stroke="black" points="66.39,-104.8 66.39,-135.6 330.13,-135.6 330.13,-104.8 66.39,-104.8"/>
<text text-anchor="start" x="73.39" y="-117" font-family="Arial" font-size="14.00">Description </text>
<text text-anchor="start" x="147.31" y="-117" font-family="Arial" font-size="14.00" fill="#666666">[STRING(MAX)]</text>
<polygon fill="none" stroke="black" points="66.39,-74 66.39,-104.8 330.13,-104.8 330.13,-74 66.39,-74"/>
<text text-anchor="start" x="73.39" y="-86.2" font-family="Arial" font-size="14.00">DescriptionHtml </text>
<text text-anchor="start" x="176.08" y="-86.2" font-family="Arial" font-size="14.00" fill="#666666">[STRING(MAX)]</text>
<polygon fill="none" stroke="black" points="66.39,-43.2 66.39,-74 330.13,-74 330.13,-43.2 66.39,-43.2"/>
<text text-anchor="start" x="73.39" y="-55.4" font-family="Arial" font-size="14.00">Description_Lowercase </text>
<text text-anchor="start" x="222.79" y="-55.4" font-family="Arial" font-size="14.00" fill="#666666">[STRING(MAX)]</text>
</g>
<!-- WebFeatureSnapshots&#45;&gt;WebFeatures -->
<g id="edge1" class="edge">
<title>WebFeatureSnapshots:WebFeatureID&#45;&gt;WebFeatures:ID</title>
<path fill="none" stroke="black" d="M361.62,-495.95C449.09,-481 426.88,-274.2 331.13,-274.2"/>
<polygon fill="black" stroke="black" points="361.61,-495.95 351.28,-492.29 356.3,-496.39 351.98,-496.74 351.98,-496.74 351.98,-496.74 356.3,-496.39 352.02,-501.26 361.61,-495.95"/>
<text text-anchor="start" x="358.31" y="-506.8" font-family="Arial" font-size="10.00">FOREIGN KEY (WebFeatureID) REFERENCES WebFeatures (ID) ON DELETE CASCADE</text>
</g>
</g>
</svg>
