<?xml version="1.0" encoding="UTF-8" standalone="no"?>
<!DOCTYPE svg PUBLIC "-//W3C//DTD SVG 1.1//EN"
 "http://www.w3.org/Graphics/SVG/1.1/DTD/svg11.dtd">
<!-- Generated by graphviz version 12.1.2 (20240928.0832)
 -->
<!-- Title: WebFeaturesMappingData Pages: 1 -->
<svg width="813pt" height="602pt"
 viewBox="0.00 0.00 813.03 602.00" xmlns="http://www.w3.org/2000/svg" xmlns:xlink="http://www.w3.org/1999/xlink">
<g id="graph0" class="graph" transform="scale(1 1) rotate(0) translate(4 598)">
<title>WebFeaturesMappingData</title>
<polygon fill="white" stroke="none" points="-4,4 -4,-598 809.03,-598 809.03,4 -4,4"/>
<!-- WebFeaturesMappingData -->
<g id="node1" class="node">
<title>WebFeaturesMappingData</title>
<polygon fill="#efefef" stroke="none" points="46.2,-512.2 46.2,-547.8 383.28,-547.8 383.28,-512.2 46.2,-512.2"/>
<polygon fill="none" stroke="black" points="46.2,-512.2 46.2,-547.8 383.28,-547.8 383.28,-512.2 46.2,-512.2"/>
<text text-anchor="start" x="53.2" y="-525.6" font-family="Arial Bold" font-size="18.00">WebFeaturesMappingData</text>
<text text-anchor="start" x="247.13" y="-525.6" font-family="Arial" font-size="14.00">    </text>
<text text-anchor="start" x="278.25" y="-525.6" font-family="Arial" font-size="14.00" fill="#666666">[BASIC TABLE]</text>
<polygon fill="none" stroke="black" points="46.2,-481.4 46.2,-512.2 383.28,-512.2 383.28,-481.4 46.2,-481.4"/>
<text text-anchor="start" x="53.2" y="-493.6" font-family="Arial" font-size="14.00">WebFeatureID </text>
<text text-anchor="start" x="148.12" y="-493.6" font-family="Arial" font-size="14.00" fill="#666666">[STRING(36)]</text>
<polygon fill="none" stroke="black" points="46.2,-450.6 46.2,-481.4 383.28,-481.4 383.28,-450.6 46.2,-450.6"/>
<text text-anchor="start" x="53.2" y="-462.8" font-family="Arial" font-size="14.00">VendorPositions </text>
<text text-anchor="start" x="159.04" y="-462.8" font-family="Arial" font-size="14.00" fill="#666666">[JSON]</text>
<polygon fill="none" stroke="black" stroke-width="3" points="44.7,-449.1 44.7,-549.3 384.78,-549.3 384.78,-449.1 44.7,-449.1"/>
</g>
<!-- WebFeatures -->
<g id="node2" class="node">
<title>WebFeatures</title>
<polygon fill="#efefef" stroke="none" points="82.87,-289.6 82.87,-325.2 346.61,-325.2 346.61,-289.6 82.87,-289.6"/>
<polygon fill="none" stroke="black" points="82.87,-289.6 82.87,-325.2 346.61,-325.2 346.61,-289.6 82.87,-289.6"/>
<text text-anchor="start" x="102.69" y="-303" font-family="Arial Bold" font-size="18.00">WebFeatures</text>
<text text-anchor="start" x="197.64" y="-303" font-family="Arial" font-size="14.00">    </text>
<text text-anchor="start" x="228.76" y="-303" font-family="Arial" font-size="14.00" fill="#666666">[BASIC TABLE]</text>
<polygon fill="none" stroke="black" points="82.87,-258.8 82.87,-289.6 346.61,-289.6 346.61,-258.8 82.87,-258.8"/>
<text text-anchor="start" x="89.87" y="-271" font-family="Arial" font-size="14.00">ID </text>
<text text-anchor="start" x="107.76" y="-271" font-family="Arial" font-size="14.00" fill="#666666">[STRING(36)]</text>
<polygon fill="none" stroke="black" points="82.87,-228 82.87,-258.8 346.61,-258.8 346.61,-228 82.87,-228"/>
<text text-anchor="start" x="89.87" y="-240.2" font-family="Arial" font-size="14.00">FeatureKey </text>
<text text-anchor="start" x="166.13" y="-240.2" font-family="Arial" font-size="14.00" fill="#666666">[STRING(64)]</text>
<polygon fill="none" stroke="black" points="82.87,-197.2 82.87,-228 346.61,-228 346.61,-197.2 82.87,-197.2"/>
<text text-anchor="start" x="89.87" y="-209.4" font-family="Arial" font-size="14.00">Name </text>
<text text-anchor="start" x="131.11" y="-209.4" font-family="Arial" font-size="14.00" fill="#666666">[STRING(64)]</text>
<polygon fill="none" stroke="black" points="82.87,-166.4 82.87,-197.2 346.61,-197.2 346.61,-166.4 82.87,-166.4"/>
<text text-anchor="start" x="89.87" y="-178.6" font-family="Arial" font-size="14.00">FeatureKey_Lowercase </text>
<text text-anchor="start" x="241.62" y="-178.6" font-family="Arial" font-size="14.00" fill="#666666">[STRING(64)]</text>
<polygon fill="none" stroke="black" points="82.87,-135.6 82.87,-166.4 346.61,-166.4 346.61,-135.6 82.87,-135.6"/>
<text text-anchor="start" x="89.87" y="-147.8" font-family="Arial" font-size="14.00">Name_Lowercase </text>
<text text-anchor="start" x="206.6" y="-147.8" font-family="Arial" font-size="14.00" fill="#666666">[STRING(64)]</text>
<polygon fill="none" stroke="black" points="82.87,-104.8 82.87,-135.6 346.61,-135.6 346.61,-104.8 82.87,-104.8"/>
<text text-anchor="start" x="89.87" y="-117" font-family="Arial" font-size="14.00">Description </text>
<text text-anchor="start" x="163.79" y="-117" font-family="Arial" font-size="14.00" fill="#666666">[STRING(MAX)]</text>
<polygon fill="none" stroke="black" points="82.87,-74 82.87,-104.8 346.61,-104.8 346.61,-74 82.87,-74"/>
<text text-anchor="start" x="89.87" y="-86.2" font-family="Arial" font-size="14.00">DescriptionHtml </text>
<text text-anchor="start" x="192.56" y="-86.2" font-family="Arial" font-size="14.00" fill="#666666">[STRING(MAX)]</text>
<polygon fill="none" stroke="black" points="82.87,-43.2 82.87,-74 346.61,-74 346.61,-43.2 82.87,-43.2"/>
<text text-anchor="start" x="89.87" y="-55.4" font-family="Arial" font-size="14.00">Description_Lowercase </text>
<text text-anchor="start" x="239.28" y="-55.4" font-family="Arial" font-size="14.00" fill="#666666">[STRING(MAX)]</text>
</g>
<!-- WebFeaturesMappingData&#45;&gt;WebFeatures -->
<g id="edge1" class="edge">
<title>WebFeaturesMappingData:WebFeatureID&#45;&gt;WebFeatures:ID</title>
<path fill="none" stroke="black" d="M394.62,-495.95C481.82,-481 444.25,-274.2 347.61,-274.2"/>
<polygon fill="black" stroke="black" points="394.58,-495.95 384.25,-492.29 389.27,-496.39 384.95,-496.75 384.95,-496.75 384.95,-496.75 389.27,-496.39 384.98,-501.26 394.58,-495.95"/>
<text text-anchor="start" x="391.28" y="-506.8" font-family="Arial" font-size="10.00">FOREIGN KEY (WebFeatureID) REFERENCES WebFeatures (ID) ON DELETE CASCADE</text>
</g>
</g>
</svg>
