<?xml version="1.0" encoding="UTF-8" standalone="no"?>
<!DOCTYPE svg PUBLIC "-//W3C//DTD SVG 1.1//EN"
 "http://www.w3.org/Graphics/SVG/1.1/DTD/svg11.dtd">
<!-- Generated by graphviz version 2.40.1 (20161225.0304)
 -->
<!-- Title: WPTRunFeatureMetrics Pages: 1 -->
<svg width="712pt" height="922pt"
 viewBox="0.00 0.00 711.50 922.00" xmlns="http://www.w3.org/2000/svg" xmlns:xlink="http://www.w3.org/1999/xlink">
<g id="graph0" class="graph" transform="scale(1 1) rotate(0) translate(4 918)">
<title>WPTRunFeatureMetrics</title>
<polygon fill="#ffffff" stroke="transparent" points="-4,4 -4,-918 707.5,-918 707.5,4 -4,4"/>
<!-- WPTRunFeatureMetrics -->
<g id="node1" class="node">
<title>WPTRunFeatureMetrics</title>
<polygon fill="#efefef" stroke="transparent" points="175,-832.5 175,-867.5 514,-867.5 514,-832.5 175,-832.5"/>
<polygon fill="none" stroke="#000000" points="175,-832.5 175,-867.5 514,-867.5 514,-832.5 175,-832.5"/>
<text text-anchor="start" x="181.8859" y="-845.3" font-family="Arial Bold" font-size="18.00" fill="#000000">WPTRunFeatureMetrics</text>
<text text-anchor="start" x="374.8855" y="-845.3" font-family="Arial" font-size="14.00" fill="#000000">    </text>
<text text-anchor="start" x="409.0903" y="-845.3" font-family="Arial" font-size="14.00" fill="#666666">[BASIC TABLE]</text>
<polygon fill="none" stroke="#000000" points="175,-802.5 175,-832.5 514,-832.5 514,-802.5 175,-802.5"/>
<text text-anchor="start" x="182" y="-813.9" font-family="Arial" font-size="14.00" fill="#000000">ID </text>
<text text-anchor="start" x="199.8878" y="-813.9" font-family="Arial" font-size="14.00" fill="#666666">[STRING(36)]</text>
<polygon fill="none" stroke="#000000" points="175,-772.5 175,-802.5 514,-802.5 514,-772.5 175,-772.5"/>
<text text-anchor="start" x="182" y="-783.9" font-family="Arial" font-size="14.00" fill="#000000">WebFeatureID </text>
<text text-anchor="start" x="276.9018" y="-783.9" font-family="Arial" font-size="14.00" fill="#666666">[STRING(36)]</text>
<polygon fill="none" stroke="#000000" points="175,-742.5 175,-772.5 514,-772.5 514,-742.5 175,-742.5"/>
<text text-anchor="start" x="182" y="-753.9" font-family="Arial" font-size="14.00" fill="#000000">TotalTests </text>
<text text-anchor="start" x="251.2314" y="-753.9" font-family="Arial" font-size="14.00" fill="#666666">[INT64]</text>
<polygon fill="none" stroke="#000000" points="175,-712.5 175,-742.5 514,-742.5 514,-712.5 175,-712.5"/>
<text text-anchor="start" x="182" y="-723.9" font-family="Arial" font-size="14.00" fill="#000000">TestPass </text>
<text text-anchor="start" x="244.2356" y="-723.9" font-family="Arial" font-size="14.00" fill="#666666">[INT64]</text>
<polygon fill="none" stroke="#000000" points="175,-682.5 175,-712.5 514,-712.5 514,-682.5 175,-682.5"/>
<text text-anchor="start" x="182" y="-693.9" font-family="Arial" font-size="14.00" fill="#000000">TestPassRate </text>
<text text-anchor="start" x="273.798" y="-693.9" font-family="Arial" font-size="14.00" fill="#666666">[NUMERIC]</text>
<polygon fill="none" stroke="#000000" points="175,-652.5 175,-682.5 514,-682.5 514,-652.5 175,-652.5"/>
<text text-anchor="start" x="182" y="-663.9" font-family="Arial" font-size="14.00" fill="#000000">TotalSubtests </text>
<text text-anchor="start" x="271.4712" y="-663.9" font-family="Arial" font-size="14.00" fill="#666666">[INT64]</text>
<polygon fill="none" stroke="#000000" points="175,-622.5 175,-652.5 514,-652.5 514,-622.5 175,-622.5"/>
<text text-anchor="start" x="182" y="-633.9" font-family="Arial" font-size="14.00" fill="#000000">SubtestPass </text>
<text text-anchor="start" x="264.4754" y="-633.9" font-family="Arial" font-size="14.00" fill="#666666">[INT64]</text>
<polygon fill="none" stroke="#000000" points="175,-592.5 175,-622.5 514,-622.5 514,-592.5 175,-592.5"/>
<text text-anchor="start" x="182" y="-603.9" font-family="Arial" font-size="14.00" fill="#000000">SubtestPassRate </text>
<text text-anchor="start" x="294.0378" y="-603.9" font-family="Arial" font-size="14.00" fill="#666666">[NUMERIC]</text>
<polygon fill="none" stroke="#000000" points="175,-562.5 175,-592.5 514,-592.5 514,-562.5 175,-562.5"/>
<text text-anchor="start" x="182" y="-573.9" font-family="Arial" font-size="14.00" fill="#000000">Channel </text>
<text text-anchor="start" x="238.0168" y="-573.9" font-family="Arial" font-size="14.00" fill="#666666">[STRING(32)]</text>
<polygon fill="none" stroke="#000000" points="175,-532.5 175,-562.5 514,-562.5 514,-532.5 175,-532.5"/>
<text text-anchor="start" x="182" y="-543.9" font-family="Arial" font-size="14.00" fill="#000000">BrowserName </text>
<text text-anchor="start" x="274.5526" y="-543.9" font-family="Arial" font-size="14.00" fill="#666666">[STRING(64)]</text>
<polygon fill="none" stroke="#000000" points="175,-502.5 175,-532.5 514,-532.5 514,-502.5 175,-502.5"/>
<text text-anchor="start" x="182" y="-513.9" font-family="Arial" font-size="14.00" fill="#000000">TimeStart </text>
<text text-anchor="start" x="246.554" y="-513.9" font-family="Arial" font-size="14.00" fill="#666666">[TIMESTAMP]</text>
<polygon fill="none" stroke="#000000" stroke-width="3" points="173,-501.5 173,-869.5 515,-869.5 515,-501.5 173,-501.5"/>
</g>
<!-- WPTRuns -->
<g id="node2" class="node">
<title>WPTRuns</title>
<polygon fill="#efefef" stroke="transparent" points="43,-342.5 43,-377.5 285,-377.5 285,-342.5 43,-342.5"/>
<polygon fill="none" stroke="#000000" points="43,-342.5 43,-377.5 285,-377.5 285,-342.5 43,-342.5"/>
<text text-anchor="start" x="56.8871" y="-355.3" font-family="Arial Bold" font-size="18.00" fill="#000000">WPTRuns</text>
<text text-anchor="start" x="138.8843" y="-355.3" font-family="Arial" font-size="14.00" fill="#000000">    </text>
<text text-anchor="start" x="173.0891" y="-355.3" font-family="Arial" font-size="14.00" fill="#666666">[BASIC TABLE]</text>
<polygon fill="none" stroke="#000000" points="43,-312.5 43,-342.5 285,-342.5 285,-312.5 43,-312.5"/>
<text text-anchor="start" x="50" y="-323.9" font-family="Arial" font-size="14.00" fill="#000000">ID    </text>
<text text-anchor="start" x="98.202" y="-323.9" font-family="Arial" font-size="14.00" fill="#666666">[STRING(36)]</text>
<polygon fill="none" stroke="#000000" points="43,-282.5 43,-312.5 285,-312.5 285,-282.5 43,-282.5"/>
<text text-anchor="start" x="50" y="-293.9" font-family="Arial" font-size="14.00" fill="#000000">ExternalRunID    </text>
<text text-anchor="start" x="175.216" y="-293.9" font-family="Arial" font-size="14.00" fill="#666666">[INT64]</text>
<polygon fill="none" stroke="#000000" points="43,-252.5 43,-282.5 285,-282.5 285,-252.5 43,-252.5"/>
<text text-anchor="start" x="50" y="-263.9" font-family="Arial" font-size="14.00" fill="#000000">TimeStart    </text>
<text text-anchor="start" x="144.8682" y="-263.9" font-family="Arial" font-size="14.00" fill="#666666">[TIMESTAMP]</text>
<polygon fill="none" stroke="#000000" points="43,-222.5 43,-252.5 285,-252.5 285,-222.5 43,-222.5"/>
<text text-anchor="start" x="50" y="-233.9" font-family="Arial" font-size="14.00" fill="#000000">TimeEnd    </text>
<text text-anchor="start" x="140.209" y="-233.9" font-family="Arial" font-size="14.00" fill="#666666">[TIMESTAMP]</text>
<polygon fill="none" stroke="#000000" points="43,-192.5 43,-222.5 285,-222.5 285,-192.5 43,-192.5"/>
<text text-anchor="start" x="50" y="-203.9" font-family="Arial" font-size="14.00" fill="#000000">BrowserName    </text>
<text text-anchor="start" x="172.8668" y="-203.9" font-family="Arial" font-size="14.00" fill="#666666">[STRING(64)]</text>
<polygon fill="none" stroke="#000000" points="43,-162.5 43,-192.5 285,-192.5 285,-162.5 43,-162.5"/>
<text text-anchor="start" x="50" y="-173.9" font-family="Arial" font-size="14.00" fill="#000000">BrowserVersion    </text>
<text text-anchor="start" x="182.986" y="-173.9" font-family="Arial" font-size="14.00" fill="#666666">[STRING(32)]</text>
<polygon fill="none" stroke="#000000" points="43,-132.5 43,-162.5 285,-162.5 285,-132.5 43,-132.5"/>
<text text-anchor="start" x="50" y="-143.9" font-family="Arial" font-size="14.00" fill="#000000">Channel    </text>
<text text-anchor="start" x="136.331" y="-143.9" font-family="Arial" font-size="14.00" fill="#666666">[STRING(32)]</text>
<polygon fill="none" stroke="#000000" points="43,-102.5 43,-132.5 285,-132.5 285,-102.5 43,-102.5"/>
<text text-anchor="start" x="50" y="-113.9" font-family="Arial" font-size="14.00" fill="#000000">OSName    </text>
<text text-anchor="start" x="141.7644" y="-113.9" font-family="Arial" font-size="14.00" fill="#666666">[STRING(64)]</text>
<polygon fill="none" stroke="#000000" points="43,-72.5 43,-102.5 285,-102.5 285,-72.5 43,-72.5"/>
<text text-anchor="start" x="50" y="-83.9" font-family="Arial" font-size="14.00" fill="#000000">OSVersion    </text>
<text text-anchor="start" x="151.8836" y="-83.9" font-family="Arial" font-size="14.00" fill="#666666">[STRING(32)]</text>
<polygon fill="none" stroke="#000000" points="43,-42.5 43,-72.5 285,-72.5 285,-42.5 43,-42.5"/>
<text text-anchor="start" x="49.6781" y="-53.9" font-family="Arial" font-size="14.00" fill="#000000">FullRevisionHash    </text>
<text text-anchor="start" x="192.7707" y="-53.9" font-family="Arial" font-size="14.00" fill="#666666">[STRING(40)]</text>
</g>
<!-- WPTRunFeatureMetrics&#45;&gt;WPTRuns -->
<g id="edge1" class="edge">
<title>WPTRunFeatureMetrics:ID&#45;&gt;WPTRuns:ID</title>
<path fill="none" stroke="#000000" d="M164.9847,-817.1837C17.6345,-807.6304 82.982,-583.9356 175,-457 205.1917,-415.3516 254.8083,-462.6484 285,-421 309.39,-387.3549 326.5556,-327.5 285,-327.5"/>
<polygon fill="#000000" stroke="#000000" points="165.005,-817.1843 174.8579,-821.9978 170.0025,-817.3421 175,-817.5 175,-817.5 175,-817.5 170.0025,-817.3421 175.1421,-813.0022 165.005,-817.1843 165.005,-817.1843"/>
</g>
<!-- WebFeatures -->
<g id="node3" class="node">
<title>WebFeatures</title>
<polygon fill="#efefef" stroke="transparent" points="390,-267.5 390,-302.5 661,-302.5 661,-267.5 390,-267.5"/>
<polygon fill="none" stroke="#000000" points="390,-267.5 390,-302.5 661,-302.5 661,-267.5 390,-267.5"/>
<text text-anchor="start" x="405.3767" y="-280.3" font-family="Arial Bold" font-size="18.00" fill="#000000">WebFeatures</text>
<text text-anchor="start" x="513.3947" y="-280.3" font-family="Arial" font-size="14.00" fill="#000000">    </text>
<text text-anchor="start" x="547.5995" y="-280.3" font-family="Arial" font-size="14.00" fill="#666666">[BASIC TABLE]</text>
<polygon fill="none" stroke="#000000" points="390,-237.5 390,-267.5 661,-267.5 661,-237.5 390,-237.5"/>
<text text-anchor="start" x="397" y="-248.9" font-family="Arial" font-size="14.00" fill="#000000">ID    </text>
<text text-anchor="start" x="445.202" y="-248.9" font-family="Arial" font-size="14.00" fill="#666666">[STRING(36)]</text>
<polygon fill="none" stroke="#000000" points="390,-207.5 390,-237.5 661,-237.5 661,-207.5 390,-207.5"/>
<text text-anchor="start" x="397" y="-218.9" font-family="Arial" font-size="14.00" fill="#000000">FeatureKey    </text>
<text text-anchor="start" x="503.5582" y="-218.9" font-family="Arial" font-size="14.00" fill="#666666">[STRING(64)]</text>
<polygon fill="none" stroke="#000000" points="390,-177.5 390,-207.5 661,-207.5 661,-177.5 390,-177.5"/>
<text text-anchor="start" x="397" y="-188.9" font-family="Arial" font-size="14.00" fill="#000000">Name    </text>
<text text-anchor="start" x="468.5372" y="-188.9" font-family="Arial" font-size="14.00" fill="#666666">[STRING(64)]</text>
<polygon fill="none" stroke="#000000" points="390,-147.5 390,-177.5 661,-177.5 661,-147.5 390,-147.5"/>
<text text-anchor="start" x="396.7749" y="-158.9" font-family="Arial" font-size="14.00" fill="#000000">FeatureID_Lowercase    </text>
<text text-anchor="start" x="568.6739" y="-158.9" font-family="Arial" font-size="14.00" fill="#666666">[STRING(64)]</text>
<polygon fill="none" stroke="#000000" points="390,-117.5 390,-147.5 661,-147.5 661,-117.5 390,-117.5"/>
<text text-anchor="start" x="397" y="-128.9" font-family="Arial" font-size="14.00" fill="#000000">Name_Lowercase    </text>
<text text-anchor="start" x="544" y="-128.9" font-family="Arial" font-size="14.00" fill="#666666">[STRING(64)]</text>
</g>
<!-- WPTRunFeatureMetrics&#45;&gt;WebFeatures -->
<g id="edge2" class="edge">
<title>WPTRunFeatureMetrics:WebFeatureID&#45;&gt;WebFeatures:ID</title>
<path fill="none" stroke="#000000" stroke-dasharray="5,2" d="M524.3441,-787.1526C656.6594,-777.9474 572.4764,-587.8288 514,-457 483.8172,-389.4722 420.1828,-413.5278 390,-346 373.0427,-308.0617 348.4444,-252.5 390,-252.5"/>
<polygon fill="#000000" stroke="#000000" points="523.9944,-787.1642 513.8489,-783.0025 518.9972,-787.3321 514,-787.5 514,-787.5 514,-787.5 518.9972,-787.3321 514.1511,-791.9975 523.9944,-787.1642 523.9944,-787.1642"/>
</g>
</g>
</svg>
