<?xml version="1.0" encoding="UTF-8" standalone="no"?>
<!DOCTYPE svg PUBLIC "-//W3C//DTD SVG 1.1//EN"
 "http://www.w3.org/Graphics/SVG/1.1/DTD/svg11.dtd">
<!-- Generated by graphviz version 2.40.1 (20161225.0304)
 -->
<!-- Title: WPTRunFeatureMetrics Pages: 1 -->
<svg width="807pt" height="1229pt"
 viewBox="0.00 0.00 806.50 1229.00" xmlns="http://www.w3.org/2000/svg" xmlns:xlink="http://www.w3.org/1999/xlink">
<g id="graph0" class="graph" transform="scale(1 1) rotate(0) translate(4 1225)">
<title>WPTRunFeatureMetrics</title>
<polygon fill="#ffffff" stroke="transparent" points="-4,4 -4,-1225 802.5,-1225 802.5,4 -4,4"/>
<!-- WPTRunFeatureMetrics -->
<g id="node1" class="node">
<title>WPTRunFeatureMetrics</title>
<polygon fill="#efefef" stroke="transparent" points="67,-862.5 67,-897.5 406,-897.5 406,-862.5 67,-862.5"/>
<polygon fill="none" stroke="#000000" points="67,-862.5 67,-897.5 406,-897.5 406,-862.5 67,-862.5"/>
<text text-anchor="start" x="73.8859" y="-875.3" font-family="Arial Bold" font-size="18.00" fill="#000000">WPTRunFeatureMetrics</text>
<text text-anchor="start" x="266.8855" y="-875.3" font-family="Arial" font-size="14.00" fill="#000000">    </text>
<text text-anchor="start" x="301.0903" y="-875.3" font-family="Arial" font-size="14.00" fill="#666666">[BASIC TABLE]</text>
<polygon fill="none" stroke="#000000" points="67,-832.5 67,-862.5 406,-862.5 406,-832.5 67,-832.5"/>
<text text-anchor="start" x="74" y="-843.9" font-family="Arial" font-size="14.00" fill="#000000">ID </text>
<text text-anchor="start" x="91.8878" y="-843.9" font-family="Arial" font-size="14.00" fill="#666666">[STRING(36)]</text>
<polygon fill="none" stroke="#000000" points="67,-802.5 67,-832.5 406,-832.5 406,-802.5 67,-802.5"/>
<text text-anchor="start" x="74" y="-813.9" font-family="Arial" font-size="14.00" fill="#000000">WebFeatureID </text>
<text text-anchor="start" x="168.9018" y="-813.9" font-family="Arial" font-size="14.00" fill="#666666">[STRING(36)]</text>
<polygon fill="none" stroke="#000000" points="67,-772.5 67,-802.5 406,-802.5 406,-772.5 67,-772.5"/>
<text text-anchor="start" x="74" y="-783.9" font-family="Arial" font-size="14.00" fill="#000000">TotalTests </text>
<text text-anchor="start" x="143.2314" y="-783.9" font-family="Arial" font-size="14.00" fill="#666666">[INT64]</text>
<polygon fill="none" stroke="#000000" points="67,-742.5 67,-772.5 406,-772.5 406,-742.5 67,-742.5"/>
<text text-anchor="start" x="74" y="-753.9" font-family="Arial" font-size="14.00" fill="#000000">TestPass </text>
<text text-anchor="start" x="136.2356" y="-753.9" font-family="Arial" font-size="14.00" fill="#666666">[INT64]</text>
<polygon fill="none" stroke="#000000" points="67,-712.5 67,-742.5 406,-742.5 406,-712.5 67,-712.5"/>
<text text-anchor="start" x="74" y="-723.9" font-family="Arial" font-size="14.00" fill="#000000">TestPassRate </text>
<text text-anchor="start" x="165.798" y="-723.9" font-family="Arial" font-size="14.00" fill="#666666">[NUMERIC]</text>
<polygon fill="none" stroke="#000000" points="67,-682.5 67,-712.5 406,-712.5 406,-682.5 67,-682.5"/>
<text text-anchor="start" x="74" y="-693.9" font-family="Arial" font-size="14.00" fill="#000000">TotalSubtests </text>
<text text-anchor="start" x="163.4712" y="-693.9" font-family="Arial" font-size="14.00" fill="#666666">[INT64]</text>
<polygon fill="none" stroke="#000000" points="67,-652.5 67,-682.5 406,-682.5 406,-652.5 67,-652.5"/>
<text text-anchor="start" x="74" y="-663.9" font-family="Arial" font-size="14.00" fill="#000000">SubtestPass </text>
<text text-anchor="start" x="156.4754" y="-663.9" font-family="Arial" font-size="14.00" fill="#666666">[INT64]</text>
<polygon fill="none" stroke="#000000" points="67,-622.5 67,-652.5 406,-652.5 406,-622.5 67,-622.5"/>
<text text-anchor="start" x="74" y="-633.9" font-family="Arial" font-size="14.00" fill="#000000">SubtestPassRate </text>
<text text-anchor="start" x="186.0378" y="-633.9" font-family="Arial" font-size="14.00" fill="#666666">[NUMERIC]</text>
<polygon fill="none" stroke="#000000" points="67,-592.5 67,-622.5 406,-622.5 406,-592.5 67,-592.5"/>
<text text-anchor="start" x="74" y="-603.9" font-family="Arial" font-size="14.00" fill="#000000">Channel </text>
<text text-anchor="start" x="130.0168" y="-603.9" font-family="Arial" font-size="14.00" fill="#666666">[STRING(32)]</text>
<polygon fill="none" stroke="#000000" points="67,-562.5 67,-592.5 406,-592.5 406,-562.5 67,-562.5"/>
<text text-anchor="start" x="74" y="-573.9" font-family="Arial" font-size="14.00" fill="#000000">BrowserName </text>
<text text-anchor="start" x="166.5526" y="-573.9" font-family="Arial" font-size="14.00" fill="#666666">[STRING(64)]</text>
<polygon fill="none" stroke="#000000" points="67,-532.5 67,-562.5 406,-562.5 406,-532.5 67,-532.5"/>
<text text-anchor="start" x="74" y="-543.9" font-family="Arial" font-size="14.00" fill="#000000">TimeStart </text>
<text text-anchor="start" x="138.554" y="-543.9" font-family="Arial" font-size="14.00" fill="#666666">[TIMESTAMP]</text>
<polygon fill="none" stroke="#000000" points="67,-502.5 67,-532.5 406,-532.5 406,-502.5 67,-502.5"/>
<text text-anchor="start" x="74" y="-513.9" font-family="Arial" font-size="14.00" fill="#000000">FeatureRunDetails </text>
<text text-anchor="start" x="194.5722" y="-513.9" font-family="Arial" font-size="14.00" fill="#666666">[JSON]</text>
<polygon fill="none" stroke="#000000" stroke-width="3" points="65,-501.5 65,-899.5 407,-899.5 407,-501.5 65,-501.5"/>
</g>
<!-- WPTRuns -->
<g id="node2" class="node">
<title>WPTRuns</title>
<polygon fill="#efefef" stroke="transparent" points="116,-342.5 116,-377.5 358,-377.5 358,-342.5 116,-342.5"/>
<polygon fill="none" stroke="#000000" points="116,-342.5 116,-377.5 358,-377.5 358,-342.5 116,-342.5"/>
<text text-anchor="start" x="129.8871" y="-355.3" font-family="Arial Bold" font-size="18.00" fill="#000000">WPTRuns</text>
<text text-anchor="start" x="211.8843" y="-355.3" font-family="Arial" font-size="14.00" fill="#000000">    </text>
<text text-anchor="start" x="246.0891" y="-355.3" font-family="Arial" font-size="14.00" fill="#666666">[BASIC TABLE]</text>
<polygon fill="none" stroke="#000000" points="116,-312.5 116,-342.5 358,-342.5 358,-312.5 116,-312.5"/>
<text text-anchor="start" x="123" y="-323.9" font-family="Arial" font-size="14.00" fill="#000000">ID    </text>
<text text-anchor="start" x="171.202" y="-323.9" font-family="Arial" font-size="14.00" fill="#666666">[STRING(36)]</text>
<polygon fill="none" stroke="#000000" points="116,-282.5 116,-312.5 358,-312.5 358,-282.5 116,-282.5"/>
<text text-anchor="start" x="123" y="-293.9" font-family="Arial" font-size="14.00" fill="#000000">ExternalRunID    </text>
<text text-anchor="start" x="248.216" y="-293.9" font-family="Arial" font-size="14.00" fill="#666666">[INT64]</text>
<polygon fill="none" stroke="#000000" points="116,-252.5 116,-282.5 358,-282.5 358,-252.5 116,-252.5"/>
<text text-anchor="start" x="123" y="-263.9" font-family="Arial" font-size="14.00" fill="#000000">TimeStart    </text>
<text text-anchor="start" x="217.8682" y="-263.9" font-family="Arial" font-size="14.00" fill="#666666">[TIMESTAMP]</text>
<polygon fill="none" stroke="#000000" points="116,-222.5 116,-252.5 358,-252.5 358,-222.5 116,-222.5"/>
<text text-anchor="start" x="123" y="-233.9" font-family="Arial" font-size="14.00" fill="#000000">TimeEnd    </text>
<text text-anchor="start" x="213.209" y="-233.9" font-family="Arial" font-size="14.00" fill="#666666">[TIMESTAMP]</text>
<polygon fill="none" stroke="#000000" points="116,-192.5 116,-222.5 358,-222.5 358,-192.5 116,-192.5"/>
<text text-anchor="start" x="123" y="-203.9" font-family="Arial" font-size="14.00" fill="#000000">BrowserName    </text>
<text text-anchor="start" x="245.8668" y="-203.9" font-family="Arial" font-size="14.00" fill="#666666">[STRING(64)]</text>
<polygon fill="none" stroke="#000000" points="116,-162.5 116,-192.5 358,-192.5 358,-162.5 116,-162.5"/>
<text text-anchor="start" x="123" y="-173.9" font-family="Arial" font-size="14.00" fill="#000000">BrowserVersion    </text>
<text text-anchor="start" x="255.986" y="-173.9" font-family="Arial" font-size="14.00" fill="#666666">[STRING(32)]</text>
<polygon fill="none" stroke="#000000" points="116,-132.5 116,-162.5 358,-162.5 358,-132.5 116,-132.5"/>
<text text-anchor="start" x="123" y="-143.9" font-family="Arial" font-size="14.00" fill="#000000">Channel    </text>
<text text-anchor="start" x="209.331" y="-143.9" font-family="Arial" font-size="14.00" fill="#666666">[STRING(32)]</text>
<polygon fill="none" stroke="#000000" points="116,-102.5 116,-132.5 358,-132.5 358,-102.5 116,-102.5"/>
<text text-anchor="start" x="123" y="-113.9" font-family="Arial" font-size="14.00" fill="#000000">OSName    </text>
<text text-anchor="start" x="214.7644" y="-113.9" font-family="Arial" font-size="14.00" fill="#666666">[STRING(64)]</text>
<polygon fill="none" stroke="#000000" points="116,-72.5 116,-102.5 358,-102.5 358,-72.5 116,-72.5"/>
<text text-anchor="start" x="123" y="-83.9" font-family="Arial" font-size="14.00" fill="#000000">OSVersion    </text>
<text text-anchor="start" x="224.8836" y="-83.9" font-family="Arial" font-size="14.00" fill="#666666">[STRING(32)]</text>
<polygon fill="none" stroke="#000000" points="116,-42.5 116,-72.5 358,-72.5 358,-42.5 116,-42.5"/>
<text text-anchor="start" x="122.6781" y="-53.9" font-family="Arial" font-size="14.00" fill="#000000">FullRevisionHash    </text>
<text text-anchor="start" x="265.7707" y="-53.9" font-family="Arial" font-size="14.00" fill="#666666">[STRING(40)]</text>
</g>
<!-- WPTRunFeatureMetrics&#45;&gt;WPTRuns -->
<g id="edge1" class="edge">
<title>WPTRunFeatureMetrics:ID&#45;&gt;WPTRuns:ID</title>
<path fill="none" stroke="#000000" d="M416.2987,-847.1432C568.0099,-836.3695 509.4459,-584.2677 397,-457 311.005,-359.6696 192.995,-518.3304 107,-421 79.4852,-389.8584 65.4444,-327.5 116,-327.5"/>
<polygon fill="#000000" stroke="#000000" points="415.994,-847.1537 405.8442,-843.0027 410.997,-847.3268 406,-847.5 406,-847.5 406,-847.5 410.997,-847.3268 406.1558,-851.9973 415.994,-847.1537 415.994,-847.1537"/>
</g>
<!-- WPTRunFeatureMetrics&#45;&gt;WPTRuns -->
<g id="edge2" class="edge">
<title>WPTRunFeatureMetrics:ID&#45;&gt;WPTRuns:ID</title>
<path fill="none" stroke="#000000" stroke-dasharray="5,2" d="M416.4171,-847.2051C586.2445,-837.3812 527.6714,-584.523 415,-457 329.005,-359.6696 210.995,-518.3304 125,-421 97.5927,-389.98 83.5543,-327.9867 115.6206,-327.5028"/>
<polygon fill="#000000" stroke="#000000" points="416.263,-847.2095 406.1366,-843.0017 411.2651,-847.3547 406.2672,-847.4998 406.2672,-847.4998 406.2672,-847.4998 411.2651,-847.3547 406.3979,-851.9979 416.263,-847.2095 416.263,-847.2095"/>
</g>
<!-- WebFeatures -->
<g id="node4" class="node">
<title>WebFeatures</title>
<polygon fill="#efefef" stroke="transparent" points="463,-312.5 463,-347.5 756,-347.5 756,-312.5 463,-312.5"/>
<polygon fill="none" stroke="#000000" points="463,-312.5 463,-347.5 756,-347.5 756,-312.5 463,-312.5"/>
<text text-anchor="start" x="489.3767" y="-325.3" font-family="Arial Bold" font-size="18.00" fill="#000000">WebFeatures</text>
<text text-anchor="start" x="597.3947" y="-325.3" font-family="Arial" font-size="14.00" fill="#000000">    </text>
<text text-anchor="start" x="631.5995" y="-325.3" font-family="Arial" font-size="14.00" fill="#666666">[BASIC TABLE]</text>
<polygon fill="none" stroke="#000000" points="463,-282.5 463,-312.5 756,-312.5 756,-282.5 463,-282.5"/>
<text text-anchor="start" x="470" y="-293.9" font-family="Arial" font-size="14.00" fill="#000000">ID    </text>
<text text-anchor="start" x="518.202" y="-293.9" font-family="Arial" font-size="14.00" fill="#666666">[STRING(36)]</text>
<polygon fill="none" stroke="#000000" points="463,-252.5 463,-282.5 756,-282.5 756,-252.5 463,-252.5"/>
<text text-anchor="start" x="470" y="-263.9" font-family="Arial" font-size="14.00" fill="#000000">FeatureKey    </text>
<text text-anchor="start" x="576.5582" y="-263.9" font-family="Arial" font-size="14.00" fill="#666666">[STRING(64)]</text>
<polygon fill="none" stroke="#000000" points="463,-222.5 463,-252.5 756,-252.5 756,-222.5 463,-222.5"/>
<text text-anchor="start" x="470" y="-233.9" font-family="Arial" font-size="14.00" fill="#000000">Name    </text>
<text text-anchor="start" x="541.5372" y="-233.9" font-family="Arial" font-size="14.00" fill="#666666">[STRING(64)]</text>
<polygon fill="none" stroke="#000000" points="463,-192.5 463,-222.5 756,-222.5 756,-192.5 463,-192.5"/>
<text text-anchor="start" x="470" y="-203.9" font-family="Arial" font-size="14.00" fill="#000000">FeatureKey_Lowercase    </text>
<text text-anchor="start" x="652.021" y="-203.9" font-family="Arial" font-size="14.00" fill="#666666">[STRING(64)]</text>
<polygon fill="none" stroke="#000000" points="463,-162.5 463,-192.5 756,-192.5 756,-162.5 463,-162.5"/>
<text text-anchor="start" x="470" y="-173.9" font-family="Arial" font-size="14.00" fill="#000000">Name_Lowercase    </text>
<text text-anchor="start" x="617" y="-173.9" font-family="Arial" font-size="14.00" fill="#666666">[STRING(64)]</text>
<polygon fill="none" stroke="#000000" points="463,-132.5 463,-162.5 756,-162.5 756,-132.5 463,-132.5"/>
<text text-anchor="start" x="470" y="-143.9" font-family="Arial" font-size="14.00" fill="#000000">Description    </text>
<text text-anchor="start" x="574.2062" y="-143.9" font-family="Arial" font-size="14.00" fill="#666666">[STRING(MAX)]</text>
<polygon fill="none" stroke="#000000" points="463,-102.5 463,-132.5 756,-132.5 756,-102.5 463,-102.5"/>
<text text-anchor="start" x="470" y="-113.9" font-family="Arial" font-size="14.00" fill="#000000">DescriptionHtml    </text>
<text text-anchor="start" x="602.9706" y="-113.9" font-family="Arial" font-size="14.00" fill="#666666">[STRING(MAX)]</text>
<polygon fill="none" stroke="#000000" points="463,-72.5 463,-102.5 756,-102.5 756,-72.5 463,-72.5"/>
<text text-anchor="start" x="469.5056" y="-83.9" font-family="Arial" font-size="14.00" fill="#000000">Description_Lowercase    </text>
<text text-anchor="start" x="649.1746" y="-83.9" font-family="Arial" font-size="14.00" fill="#666666">[STRING(MAX)]</text>
</g>
<!-- WPTRunFeatureMetrics&#45;&gt;WebFeatures -->
<g id="edge4" class="edge">
<title>WPTRunFeatureMetrics:WebFeatureID&#45;&gt;WebFeatures:ID</title>
<path fill="none" stroke="#000000" stroke-dasharray="5,2" d="M416.0613,-816.0083C511.5642,-785.5078 350.385,-297.5 463,-297.5"/>
<polygon fill="#000000" stroke="#000000" points="415.8919,-816.0333 405.34,-813.0487 410.9459,-816.7667 406,-817.5 406,-817.5 406,-817.5 410.9459,-816.7667 406.66,-821.9513 415.8919,-816.0333 415.8919,-816.0333"/>
</g>
<!-- LatestWPTRunFeatureMetrics -->
<g id="node3" class="node">
<title>LatestWPTRunFeatureMetrics</title>
<polygon fill="#efefef" stroke="transparent" points="43,-1142.5 43,-1177.5 431,-1177.5 431,-1142.5 43,-1142.5"/>
<polygon fill="none" stroke="#000000" points="43,-1142.5 43,-1177.5 431,-1177.5 431,-1142.5 43,-1142.5"/>
<text text-anchor="start" x="49.8744" y="-1155.3" font-family="Arial Bold" font-size="18.00" fill="#000000">LatestWPTRunFeatureMetrics</text>
<text text-anchor="start" x="291.897" y="-1155.3" font-family="Arial" font-size="14.00" fill="#000000">    </text>
<text text-anchor="start" x="326.1018" y="-1155.3" font-family="Arial" font-size="14.00" fill="#666666">[BASIC TABLE]</text>
<polygon fill="none" stroke="#000000" points="43,-1112.5 43,-1142.5 431,-1142.5 431,-1112.5 43,-1112.5"/>
<text text-anchor="start" x="50" y="-1123.9" font-family="Arial" font-size="14.00" fill="#000000">RunMetricID    </text>
<text text-anchor="start" x="161.9748" y="-1123.9" font-family="Arial" font-size="14.00" fill="#666666">[STRING(36)]</text>
<polygon fill="none" stroke="#000000" points="43,-1082.5 43,-1112.5 431,-1112.5 431,-1082.5 43,-1082.5"/>
<text text-anchor="start" x="50" y="-1093.9" font-family="Arial" font-size="14.00" fill="#000000">WebFeatureID    </text>
<text text-anchor="start" x="175.216" y="-1093.9" font-family="Arial" font-size="14.00" fill="#666666">[STRING(36)]</text>
<polygon fill="none" stroke="#000000" points="43,-1052.5 43,-1082.5 431,-1082.5 431,-1052.5 43,-1052.5"/>
<text text-anchor="start" x="50" y="-1063.9" font-family="Arial" font-size="14.00" fill="#000000">BrowserName    </text>
<text text-anchor="start" x="172.8668" y="-1063.9" font-family="Arial" font-size="14.00" fill="#666666">[STRING(64)]</text>
<polygon fill="none" stroke="#000000" points="43,-1022.5 43,-1052.5 431,-1052.5 431,-1022.5 43,-1022.5"/>
<text text-anchor="start" x="50" y="-1033.9" font-family="Arial" font-size="14.00" fill="#000000">Channel    </text>
<text text-anchor="start" x="136.331" y="-1033.9" font-family="Arial" font-size="14.00" fill="#666666">[STRING(32)]</text>
</g>
<!-- LatestWPTRunFeatureMetrics&#45;&gt;WPTRunFeatureMetrics -->
<g id="edge3" class="edge">
<title>LatestWPTRunFeatureMetrics:RunMetricID&#45;&gt;WPTRunFeatureMetrics:ID</title>
<path fill="none" stroke="#000000" stroke-dasharray="5,2" d="M33.0157,-1126.637C-20.1316,-1116.832 1.3987,-1025.9312 43,-980 97.4179,-919.9183 351.5821,-1004.0817 406,-944 434.7917,-912.2117 448.8889,-847.5 406,-847.5"/>
<polygon fill="#000000" stroke="#000000" points="33.0372,-1126.6387 42.6124,-1131.9833 38.0186,-1127.0694 43,-1127.5 43,-1127.5 43,-1127.5 38.0186,-1127.0694 43.3876,-1123.0167 33.0372,-1126.6387 33.0372,-1126.6387"/>
</g>
</g>
</svg>
