<?xml version="1.0" encoding="UTF-8" standalone="no"?>
<!DOCTYPE svg PUBLIC "-//W3C//DTD SVG 1.1//EN"
 "http://www.w3.org/Graphics/SVG/1.1/DTD/svg11.dtd">
<!-- Generated by graphviz version 12.1.2 (20240928.0832)
 -->
<!-- Title: WPTRunFeatureMetrics Pages: 1 -->
<svg width="1234pt" height="1253pt"
 viewBox="0.00 0.00 1233.81 1252.80" xmlns="http://www.w3.org/2000/svg" xmlns:xlink="http://www.w3.org/1999/xlink">
<g id="graph0" class="graph" transform="scale(1 1) rotate(0) translate(4 1248.8)">
<title>WPTRunFeatureMetrics</title>
<polygon fill="white" stroke="none" points="-4,4 -4,-1248.8 1229.81,-1248.8 1229.81,4 -4,4"/>
<!-- WPTRunFeatureMetrics -->
<g id="node1" class="node">
<title>WPTRunFeatureMetrics</title>
<polygon fill="#efefef" stroke="none" points="65.19,-881.8 65.19,-917.4 385.3,-917.4 385.3,-881.8 65.19,-881.8"/>
<polygon fill="none" stroke="black" points="65.19,-881.8 65.19,-917.4 385.3,-917.4 385.3,-881.8 65.19,-881.8"/>
<text text-anchor="start" x="72.19" y="-895.2" font-family="Arial Bold" font-size="18.00">WPTRunFeatureMetrics</text>
<text text-anchor="start" x="249.15" y="-895.2" font-family="Arial" font-size="14.00">    </text>
<text text-anchor="start" x="280.27" y="-895.2" font-family="Arial" font-size="14.00" fill="#666666">[BASIC TABLE]</text>
<polygon fill="none" stroke="black" points="65.19,-851 65.19,-881.8 385.3,-881.8 385.3,-851 65.19,-851"/>
<text text-anchor="start" x="72.19" y="-863.2" font-family="Arial" font-size="14.00">ID </text>
<text text-anchor="start" x="90.08" y="-863.2" font-family="Arial" font-size="14.00" fill="#666666">[STRING(36)]</text>
<polygon fill="none" stroke="black" points="65.19,-820.2 65.19,-851 385.3,-851 385.3,-820.2 65.19,-820.2"/>
<text text-anchor="start" x="72.19" y="-832.4" font-family="Arial" font-size="14.00">WebFeatureID </text>
<text text-anchor="start" x="167.11" y="-832.4" font-family="Arial" font-size="14.00" fill="#666666">[STRING(36)]</text>
<polygon fill="none" stroke="black" points="65.19,-789.4 65.19,-820.2 385.3,-820.2 385.3,-789.4 65.19,-789.4"/>
<text text-anchor="start" x="72.19" y="-801.6" font-family="Arial" font-size="14.00">TotalTests </text>
<text text-anchor="start" x="141.43" y="-801.6" font-family="Arial" font-size="14.00" fill="#666666">[INT64]</text>
<polygon fill="none" stroke="black" points="65.19,-758.6 65.19,-789.4 385.3,-789.4 385.3,-758.6 65.19,-758.6"/>
<text text-anchor="start" x="72.19" y="-770.8" font-family="Arial" font-size="14.00">TestPass </text>
<text text-anchor="start" x="134.43" y="-770.8" font-family="Arial" font-size="14.00" fill="#666666">[INT64]</text>
<polygon fill="none" stroke="black" points="65.19,-727.8 65.19,-758.6 385.3,-758.6 385.3,-727.8 65.19,-727.8"/>
<text text-anchor="start" x="72.19" y="-740" font-family="Arial" font-size="14.00">TestPassRate </text>
<text text-anchor="start" x="164" y="-740" font-family="Arial" font-size="14.00" fill="#666666">[NUMERIC]</text>
<polygon fill="none" stroke="black" points="65.19,-697 65.19,-727.8 385.3,-727.8 385.3,-697 65.19,-697"/>
<text text-anchor="start" x="72.19" y="-709.2" font-family="Arial" font-size="14.00">TotalSubtests </text>
<text text-anchor="start" x="161.68" y="-709.2" font-family="Arial" font-size="14.00" fill="#666666">[INT64]</text>
<polygon fill="none" stroke="black" points="65.19,-666.2 65.19,-697 385.3,-697 385.3,-666.2 65.19,-666.2"/>
<text text-anchor="start" x="72.19" y="-678.4" font-family="Arial" font-size="14.00">SubtestPass </text>
<text text-anchor="start" x="154.68" y="-678.4" font-family="Arial" font-size="14.00" fill="#666666">[INT64]</text>
<polygon fill="none" stroke="black" points="65.19,-635.4 65.19,-666.2 385.3,-666.2 385.3,-635.4 65.19,-635.4"/>
<text text-anchor="start" x="72.19" y="-647.6" font-family="Arial" font-size="14.00">SubtestPassRate </text>
<text text-anchor="start" x="184.25" y="-647.6" font-family="Arial" font-size="14.00" fill="#666666">[NUMERIC]</text>
<polygon fill="none" stroke="black" points="65.19,-604.6 65.19,-635.4 385.3,-635.4 385.3,-604.6 65.19,-604.6"/>
<text text-anchor="start" x="72.19" y="-616.8" font-family="Arial" font-size="14.00">Channel </text>
<text text-anchor="start" x="128.23" y="-616.8" font-family="Arial" font-size="14.00" fill="#666666">[STRING(32)]</text>
<polygon fill="none" stroke="black" points="65.19,-573.8 65.19,-604.6 385.3,-604.6 385.3,-573.8 65.19,-573.8"/>
<text text-anchor="start" x="72.19" y="-586" font-family="Arial" font-size="14.00">BrowserName </text>
<text text-anchor="start" x="164.77" y="-586" font-family="Arial" font-size="14.00" fill="#666666">[STRING(64)]</text>
<polygon fill="none" stroke="black" points="65.19,-543 65.19,-573.8 385.3,-573.8 385.3,-543 65.19,-543"/>
<text text-anchor="start" x="72.19" y="-555.2" font-family="Arial" font-size="14.00">TimeStart </text>
<text text-anchor="start" x="136.76" y="-555.2" font-family="Arial" font-size="14.00" fill="#666666">[TIMESTAMP]</text>
<polygon fill="none" stroke="black" points="65.19,-512.2 65.19,-543 385.3,-543 385.3,-512.2 65.19,-512.2"/>
<text text-anchor="start" x="72.19" y="-524.4" font-family="Arial" font-size="14.00">FeatureRunDetails </text>
<text text-anchor="start" x="192.8" y="-524.4" font-family="Arial" font-size="14.00" fill="#666666">[JSON]</text>
<polygon fill="none" stroke="black" stroke-width="3" points="63.69,-510.7 63.69,-918.9 386.8,-918.9 386.8,-510.7 63.69,-510.7"/>
</g>
<!-- WPTRuns -->
<g id="node2" class="node">
<title>WPTRuns</title>
<polygon fill="#efefef" stroke="none" points="116.17,-351.2 116.17,-386.8 334.32,-386.8 334.32,-351.2 116.17,-351.2"/>
<polygon fill="none" stroke="black" points="116.17,-351.2 116.17,-386.8 334.32,-386.8 334.32,-351.2 116.17,-351.2"/>
<text text-anchor="start" x="123.17" y="-364.6" font-family="Arial Bold" font-size="18.00">WPTRuns</text>
<text text-anchor="start" x="198.17" y="-364.6" font-family="Arial" font-size="14.00">    </text>
<text text-anchor="start" x="229.29" y="-364.6" font-family="Arial" font-size="14.00" fill="#666666">[BASIC TABLE]</text>
<polygon fill="none" stroke="black" points="116.17,-320.4 116.17,-351.2 334.32,-351.2 334.32,-320.4 116.17,-320.4"/>
<text text-anchor="start" x="123.17" y="-332.6" font-family="Arial" font-size="14.00">ID </text>
<text text-anchor="start" x="141.06" y="-332.6" font-family="Arial" font-size="14.00" fill="#666666">[STRING(36)]</text>
<polygon fill="none" stroke="black" points="116.17,-289.6 116.17,-320.4 334.32,-320.4 334.32,-289.6 116.17,-289.6"/>
<text text-anchor="start" x="123.17" y="-301.8" font-family="Arial" font-size="14.00">ExternalRunID </text>
<text text-anchor="start" x="218.1" y="-301.8" font-family="Arial" font-size="14.00" fill="#666666">[INT64]</text>
<polygon fill="none" stroke="black" points="116.17,-258.8 116.17,-289.6 334.32,-289.6 334.32,-258.8 116.17,-258.8"/>
<text text-anchor="start" x="123.17" y="-271" font-family="Arial" font-size="14.00">TimeStart </text>
<text text-anchor="start" x="187.73" y="-271" font-family="Arial" font-size="14.00" fill="#666666">[TIMESTAMP]</text>
<polygon fill="none" stroke="black" points="116.17,-228 116.17,-258.8 334.32,-258.8 334.32,-228 116.17,-228"/>
<text text-anchor="start" x="123.17" y="-240.2" font-family="Arial" font-size="14.00">TimeEnd </text>
<text text-anchor="start" x="183.08" y="-240.2" font-family="Arial" font-size="14.00" fill="#666666">[TIMESTAMP]</text>
<polygon fill="none" stroke="black" points="116.17,-197.2 116.17,-228 334.32,-228 334.32,-197.2 116.17,-197.2"/>
<text text-anchor="start" x="123.17" y="-209.4" font-family="Arial" font-size="14.00">BrowserName </text>
<text text-anchor="start" x="215.75" y="-209.4" font-family="Arial" font-size="14.00" fill="#666666">[STRING(64)]</text>
<polygon fill="none" stroke="black" points="116.17,-166.4 116.17,-197.2 334.32,-197.2 334.32,-166.4 116.17,-166.4"/>
<text text-anchor="start" x="123.17" y="-178.6" font-family="Arial" font-size="14.00">BrowserVersion </text>
<text text-anchor="start" x="225.87" y="-178.6" font-family="Arial" font-size="14.00" fill="#666666">[STRING(32)]</text>
<polygon fill="none" stroke="black" points="116.17,-135.6 116.17,-166.4 334.32,-166.4 334.32,-135.6 116.17,-135.6"/>
<text text-anchor="start" x="123.17" y="-147.8" font-family="Arial" font-size="14.00">Channel </text>
<text text-anchor="start" x="179.21" y="-147.8" font-family="Arial" font-size="14.00" fill="#666666">[STRING(32)]</text>
<polygon fill="none" stroke="black" points="116.17,-104.8 116.17,-135.6 334.32,-135.6 334.32,-104.8 116.17,-104.8"/>
<text text-anchor="start" x="123.17" y="-117" font-family="Arial" font-size="14.00">OSName </text>
<text text-anchor="start" x="184.63" y="-117" font-family="Arial" font-size="14.00" fill="#666666">[STRING(64)]</text>
<polygon fill="none" stroke="black" points="116.17,-74 116.17,-104.8 334.32,-104.8 334.32,-74 116.17,-74"/>
<text text-anchor="start" x="123.17" y="-86.2" font-family="Arial" font-size="14.00">OSVersion </text>
<text text-anchor="start" x="194.75" y="-86.2" font-family="Arial" font-size="14.00" fill="#666666">[STRING(32)]</text>
<polygon fill="none" stroke="black" points="116.17,-43.2 116.17,-74 334.32,-74 334.32,-43.2 116.17,-43.2"/>
<text text-anchor="start" x="123.17" y="-55.4" font-family="Arial" font-size="14.00">FullRevisionHash </text>
<text text-anchor="start" x="235.99" y="-55.4" font-family="Arial" font-size="14.00" fill="#666666">[STRING(40)]</text>
</g>
<!-- WPTRunFeatureMetrics&#45;&gt;WPTRuns -->
<g id="edge1" class="edge">
<title>WPTRunFeatureMetrics:ID&#45;&gt;WPTRuns:ID</title>
<path fill="none" stroke="black" d="M394.56,-860.44C430.16,-802.15 382.41,-335.8 335.32,-335.8"/>
<polygon fill="black" stroke="black" points="394.68,-860.35 383.94,-862.56 390.35,-863.47 386.84,-866.01 386.84,-866.01 386.84,-866.01 390.35,-863.47 389.21,-869.85 394.68,-860.35"/>
<text text-anchor="start" x="393.3" y="-876.4" font-family="Arial" font-size="10.00">FOREIGN KEY (ID) REFERENCES WPTRuns (ID)</text>
</g>
<!-- WPTRunFeatureMetrics&#45;&gt;WPTRuns -->
<g id="edge2" class="edge">
<title>WPTRunFeatureMetrics:ID&#45;&gt;WPTRuns:ID</title>
<path fill="none" stroke="black" d="M396.08,-862.16C449.01,-812.22 400.17,-337.76 335.72,-335.81"/>
<polygon fill="black" stroke="black" points="396.12,-862.14 385.15,-862.15 391.26,-864.34 387.31,-866.12 387.31,-866.12 387.31,-866.12 391.26,-864.34 388.85,-870.36 396.12,-862.14"/>
<text text-anchor="start" x="393.7" y="-850.39" font-family="Arial" font-size="10.00">INTERLEAVE IN PARENT WPTRuns ON DELETE CASCADE</text>
</g>
<!-- WebFeatures -->
<g id="node4" class="node">
<title>WebFeatures</title>
<polygon fill="#efefef" stroke="none" points="438.38,-320.4 438.38,-356 702.11,-356 702.11,-320.4 438.38,-320.4"/>
<polygon fill="none" stroke="black" points="438.38,-320.4 438.38,-356 702.11,-356 702.11,-320.4 438.38,-320.4"/>
<text text-anchor="start" x="458.19" y="-333.8" font-family="Arial Bold" font-size="18.00">WebFeatures</text>
<text text-anchor="start" x="553.15" y="-333.8" font-family="Arial" font-size="14.00">    </text>
<text text-anchor="start" x="584.27" y="-333.8" font-family="Arial" font-size="14.00" fill="#666666">[BASIC TABLE]</text>
<polygon fill="none" stroke="black" points="438.38,-289.6 438.38,-320.4 702.11,-320.4 702.11,-289.6 438.38,-289.6"/>
<text text-anchor="start" x="445.38" y="-301.8" font-family="Arial" font-size="14.00">ID </text>
<text text-anchor="start" x="463.27" y="-301.8" font-family="Arial" font-size="14.00" fill="#666666">[STRING(36)]</text>
<polygon fill="none" stroke="black" points="438.38,-258.8 438.38,-289.6 702.11,-289.6 702.11,-258.8 438.38,-258.8"/>
<text text-anchor="start" x="445.38" y="-271" font-family="Arial" font-size="14.00">FeatureKey </text>
<text text-anchor="start" x="521.64" y="-271" font-family="Arial" font-size="14.00" fill="#666666">[STRING(64)]</text>
<polygon fill="none" stroke="black" points="438.38,-228 438.38,-258.8 702.11,-258.8 702.11,-228 438.38,-228"/>
<text text-anchor="start" x="445.38" y="-240.2" font-family="Arial" font-size="14.00">Name </text>
<text text-anchor="start" x="486.61" y="-240.2" font-family="Arial" font-size="14.00" fill="#666666">[STRING(64)]</text>
<polygon fill="none" stroke="black" points="438.38,-197.2 438.38,-228 702.11,-228 702.11,-197.2 438.38,-197.2"/>
<text text-anchor="start" x="445.38" y="-209.4" font-family="Arial" font-size="14.00">FeatureKey_Lowercase </text>
<text text-anchor="start" x="597.13" y="-209.4" font-family="Arial" font-size="14.00" fill="#666666">[STRING(64)]</text>
<polygon fill="none" stroke="black" points="438.38,-166.4 438.38,-197.2 702.11,-197.2 702.11,-166.4 438.38,-166.4"/>
<text text-anchor="start" x="445.38" y="-178.6" font-family="Arial" font-size="14.00">Name_Lowercase </text>
<text text-anchor="start" x="562.1" y="-178.6" font-family="Arial" font-size="14.00" fill="#666666">[STRING(64)]</text>
<polygon fill="none" stroke="black" points="438.38,-135.6 438.38,-166.4 702.11,-166.4 702.11,-135.6 438.38,-135.6"/>
<text text-anchor="start" x="445.38" y="-147.8" font-family="Arial" font-size="14.00">Description </text>
<text text-anchor="start" x="519.29" y="-147.8" font-family="Arial" font-size="14.00" fill="#666666">[STRING(MAX)]</text>
<polygon fill="none" stroke="black" points="438.38,-104.8 438.38,-135.6 702.11,-135.6 702.11,-104.8 438.38,-104.8"/>
<text text-anchor="start" x="445.38" y="-117" font-family="Arial" font-size="14.00">DescriptionHtml </text>
<text text-anchor="start" x="548.07" y="-117" font-family="Arial" font-size="14.00" fill="#666666">[STRING(MAX)]</text>
<polygon fill="none" stroke="black" points="438.38,-74 438.38,-104.8 702.11,-104.8 702.11,-74 438.38,-74"/>
<text text-anchor="start" x="445.38" y="-86.2" font-family="Arial" font-size="14.00">Description_Lowercase </text>
<text text-anchor="start" x="594.78" y="-86.2" font-family="Arial" font-size="14.00" fill="#666666">[STRING(MAX)]</text>
</g>
<!-- WPTRunFeatureMetrics&#45;&gt;WebFeatures -->
<g id="edge4" class="edge">
<title>WPTRunFeatureMetrics:WebFeatureID&#45;&gt;WebFeatures:ID</title>
<path fill="none" stroke="black" d="M396.53,-834.08C493.44,-802.96 322.62,-305 437.38,-305"/>
<polygon fill="black" stroke="black" points="396.52,-834.08 385.97,-831.1 391.25,-834.86 386.96,-835.5 386.96,-835.5 386.96,-835.5 391.25,-834.86 387.29,-840 396.52,-834.08"/>
<text text-anchor="start" x="393.3" y="-819.6" font-family="Arial" font-size="10.00">FOREIGN KEY (WebFeatureID) REFERENCES WebFeatures (ID) ON DELETE CASCADE</text>
</g>
<!-- LatestWPTRunFeatureMetrics -->
<g id="node3" class="node">
<title>LatestWPTRunFeatureMetrics</title>
<polygon fill="#efefef" stroke="none" points="43.2,-1166 43.2,-1201.6 407.29,-1201.6 407.29,-1166 43.2,-1166"/>
<polygon fill="none" stroke="black" points="43.2,-1166 43.2,-1201.6 407.29,-1201.6 407.29,-1166 43.2,-1166"/>
<text text-anchor="start" x="50.2" y="-1179.4" font-family="Arial Bold" font-size="18.00">LatestWPTRunFeatureMetrics</text>
<text text-anchor="start" x="271.14" y="-1179.4" font-family="Arial" font-size="14.00">    </text>
<text text-anchor="start" x="302.26" y="-1179.4" font-family="Arial" font-size="14.00" fill="#666666">[BASIC TABLE]</text>
<polygon fill="none" stroke="black" points="43.2,-1135.2 43.2,-1166 407.29,-1166 407.29,-1135.2 43.2,-1135.2"/>
<text text-anchor="start" x="50.2" y="-1147.4" font-family="Arial" font-size="14.00">RunMetricID </text>
<text text-anchor="start" x="131.88" y="-1147.4" font-family="Arial" font-size="14.00" fill="#666666">[STRING(36)]</text>
<polygon fill="none" stroke="black" points="43.2,-1104.4 43.2,-1135.2 407.29,-1135.2 407.29,-1104.4 43.2,-1104.4"/>
<text text-anchor="start" x="50.2" y="-1116.6" font-family="Arial" font-size="14.00">WebFeatureID </text>
<text text-anchor="start" x="145.12" y="-1116.6" font-family="Arial" font-size="14.00" fill="#666666">[STRING(36)]</text>
<polygon fill="none" stroke="black" points="43.2,-1073.6 43.2,-1104.4 407.29,-1104.4 407.29,-1073.6 43.2,-1073.6"/>
<text text-anchor="start" x="50.2" y="-1085.8" font-family="Arial" font-size="14.00">BrowserName </text>
<text text-anchor="start" x="142.78" y="-1085.8" font-family="Arial" font-size="14.00" fill="#666666">[STRING(64)]</text>
<polygon fill="none" stroke="black" points="43.2,-1042.8 43.2,-1073.6 407.29,-1073.6 407.29,-1042.8 43.2,-1042.8"/>
<text text-anchor="start" x="50.2" y="-1055" font-family="Arial" font-size="14.00">Channel </text>
<text text-anchor="start" x="106.24" y="-1055" font-family="Arial" font-size="14.00" fill="#666666">[STRING(32)]</text>
</g>
<!-- LatestWPTRunFeatureMetrics&#45;&gt;WPTRunFeatureMetrics -->
<g id="edge3" class="edge">
<title>LatestWPTRunFeatureMetrics:RunMetricID&#45;&gt;WPTRunFeatureMetrics:WebFeatureID</title>
<path fill="none" stroke="black" d="M418.67,-1150C547.44,-1134.81 523.08,-835.6 386.3,-835.6"/>
<polygon fill="black" stroke="black" points="418.61,-1150 408.37,-1146.09 413.28,-1150.31 408.96,-1150.56 408.96,-1150.56 408.96,-1150.56 413.28,-1150.31 408.88,-1155.07 418.61,-1150"/>
<text text-anchor="start" x="415.29" y="-1160.6" font-family="Arial" font-size="10.00">FOREIGN KEY (RunMetricID, RunMetricID, WebFeatureID, WebFeatureID) REFERENCES WPTRunFeatureMetrics (WebFeatureID, ID, ID, WebFeatureID) ON DELETE CASCADE</text>
</g>
</g>
</svg>
