<?xml version="1.0" encoding="UTF-8" standalone="no"?>
<!DOCTYPE svg PUBLIC "-//W3C//DTD SVG 1.1//EN"
 "http://www.w3.org/Graphics/SVG/1.1/DTD/svg11.dtd">
<!-- Generated by graphviz version 2.40.1 (20161225.0304)
 -->
<!-- Title: WPTRuns Pages: 1 -->
<svg width="441pt" height="922pt"
 viewBox="0.00 0.00 440.82 922.00" xmlns="http://www.w3.org/2000/svg" xmlns:xlink="http://www.w3.org/1999/xlink">
<g id="graph0" class="graph" transform="scale(1 1) rotate(0) translate(4 918)">
<title>WPTRuns</title>
<polygon fill="#ffffff" stroke="transparent" points="-4,4 -4,-918 436.8221,-918 436.8221,4 -4,4"/>
<!-- WPTRuns -->
<g id="node1" class="node">
<title>WPTRuns</title>
<polygon fill="#efefef" stroke="transparent" points="99.5,-345.5 99.5,-380.5 327.5,-380.5 327.5,-345.5 99.5,-345.5"/>
<polygon fill="none" stroke="#000000" points="99.5,-345.5 99.5,-380.5 327.5,-380.5 327.5,-345.5 99.5,-345.5"/>
<text text-anchor="start" x="106.3871" y="-358.3" font-family="Arial Bold" font-size="18.00" fill="#000000">WPTRuns</text>
<text text-anchor="start" x="188.3843" y="-358.3" font-family="Arial" font-size="14.00" fill="#000000">    </text>
<text text-anchor="start" x="222.5891" y="-358.3" font-family="Arial" font-size="14.00" fill="#666666">[BASIC TABLE]</text>
<polygon fill="none" stroke="#000000" points="99.5,-315.5 99.5,-345.5 327.5,-345.5 327.5,-315.5 99.5,-315.5"/>
<text text-anchor="start" x="106.5" y="-326.9" font-family="Arial" font-size="14.00" fill="#000000">ID </text>
<text text-anchor="start" x="124.3878" y="-326.9" font-family="Arial" font-size="14.00" fill="#666666">[STRING(36)]</text>
<polygon fill="none" stroke="#000000" points="99.5,-285.5 99.5,-315.5 327.5,-315.5 327.5,-285.5 99.5,-285.5"/>
<text text-anchor="start" x="106.5" y="-296.9" font-family="Arial" font-size="14.00" fill="#000000">ExternalRunID </text>
<text text-anchor="start" x="201.4018" y="-296.9" font-family="Arial" font-size="14.00" fill="#666666">[INT64]</text>
<polygon fill="none" stroke="#000000" points="99.5,-255.5 99.5,-285.5 327.5,-285.5 327.5,-255.5 99.5,-255.5"/>
<text text-anchor="start" x="106.5" y="-266.9" font-family="Arial" font-size="14.00" fill="#000000">TimeStart </text>
<text text-anchor="start" x="171.054" y="-266.9" font-family="Arial" font-size="14.00" fill="#666666">[TIMESTAMP]</text>
<polygon fill="none" stroke="#000000" points="99.5,-225.5 99.5,-255.5 327.5,-255.5 327.5,-225.5 99.5,-225.5"/>
<text text-anchor="start" x="106.5" y="-236.9" font-family="Arial" font-size="14.00" fill="#000000">TimeEnd </text>
<text text-anchor="start" x="166.3948" y="-236.9" font-family="Arial" font-size="14.00" fill="#666666">[TIMESTAMP]</text>
<polygon fill="none" stroke="#000000" points="99.5,-195.5 99.5,-225.5 327.5,-225.5 327.5,-195.5 99.5,-195.5"/>
<text text-anchor="start" x="106.5" y="-206.9" font-family="Arial" font-size="14.00" fill="#000000">BrowserName </text>
<text text-anchor="start" x="199.0526" y="-206.9" font-family="Arial" font-size="14.00" fill="#666666">[STRING(64)]</text>
<polygon fill="none" stroke="#000000" points="99.5,-165.5 99.5,-195.5 327.5,-195.5 327.5,-165.5 99.5,-165.5"/>
<text text-anchor="start" x="106.5" y="-176.9" font-family="Arial" font-size="14.00" fill="#000000">BrowserVersion </text>
<text text-anchor="start" x="209.1718" y="-176.9" font-family="Arial" font-size="14.00" fill="#666666">[STRING(32)]</text>
<polygon fill="none" stroke="#000000" points="99.5,-135.5 99.5,-165.5 327.5,-165.5 327.5,-135.5 99.5,-135.5"/>
<text text-anchor="start" x="106.5" y="-146.9" font-family="Arial" font-size="14.00" fill="#000000">Channel </text>
<text text-anchor="start" x="162.5168" y="-146.9" font-family="Arial" font-size="14.00" fill="#666666">[STRING(32)]</text>
<polygon fill="none" stroke="#000000" points="99.5,-105.5 99.5,-135.5 327.5,-135.5 327.5,-105.5 99.5,-105.5"/>
<text text-anchor="start" x="106.5" y="-116.9" font-family="Arial" font-size="14.00" fill="#000000">OSName </text>
<text text-anchor="start" x="167.9502" y="-116.9" font-family="Arial" font-size="14.00" fill="#666666">[STRING(64)]</text>
<polygon fill="none" stroke="#000000" points="99.5,-75.5 99.5,-105.5 327.5,-105.5 327.5,-75.5 99.5,-75.5"/>
<text text-anchor="start" x="106.5" y="-86.9" font-family="Arial" font-size="14.00" fill="#000000">OSVersion </text>
<text text-anchor="start" x="178.0694" y="-86.9" font-family="Arial" font-size="14.00" fill="#666666">[STRING(32)]</text>
<polygon fill="none" stroke="#000000" points="99.5,-45.5 99.5,-75.5 327.5,-75.5 327.5,-45.5 99.5,-45.5"/>
<text text-anchor="start" x="106.5" y="-56.9" font-family="Arial" font-size="14.00" fill="#000000">FullRevisionHash </text>
<text text-anchor="start" x="219.2784" y="-56.9" font-family="Arial" font-size="14.00" fill="#666666">[STRING(40)]</text>
<polygon fill="none" stroke="#000000" stroke-width="3" points="98,-44.5 98,-382.5 329,-382.5 329,-44.5 98,-44.5"/>
</g>
<!-- WPTRunFeatureMetrics -->
<g id="node2" class="node">
<title>WPTRunFeatureMetrics</title>
<polygon fill="#efefef" stroke="transparent" points="43.5,-835.5 43.5,-870.5 382.5,-870.5 382.5,-835.5 43.5,-835.5"/>
<polygon fill="none" stroke="#000000" points="43.5,-835.5 43.5,-870.5 382.5,-870.5 382.5,-835.5 43.5,-835.5"/>
<text text-anchor="start" x="50.3859" y="-848.3" font-family="Arial Bold" font-size="18.00" fill="#000000">WPTRunFeatureMetrics</text>
<text text-anchor="start" x="243.3855" y="-848.3" font-family="Arial" font-size="14.00" fill="#000000">    </text>
<text text-anchor="start" x="277.5903" y="-848.3" font-family="Arial" font-size="14.00" fill="#666666">[BASIC TABLE]</text>
<polygon fill="none" stroke="#000000" points="43.5,-805.5 43.5,-835.5 382.5,-835.5 382.5,-805.5 43.5,-805.5"/>
<text text-anchor="start" x="50.5" y="-816.9" font-family="Arial" font-size="14.00" fill="#000000">ID    </text>
<text text-anchor="start" x="98.702" y="-816.9" font-family="Arial" font-size="14.00" fill="#666666">[STRING(36)]</text>
<polygon fill="none" stroke="#000000" points="43.5,-775.5 43.5,-805.5 382.5,-805.5 382.5,-775.5 43.5,-775.5"/>
<text text-anchor="start" x="50.5" y="-786.9" font-family="Arial" font-size="14.00" fill="#000000">WebFeatureID    </text>
<text text-anchor="start" x="175.716" y="-786.9" font-family="Arial" font-size="14.00" fill="#666666">[STRING(36)]</text>
<polygon fill="none" stroke="#000000" points="43.5,-745.5 43.5,-775.5 382.5,-775.5 382.5,-745.5 43.5,-745.5"/>
<text text-anchor="start" x="50.5" y="-756.9" font-family="Arial" font-size="14.00" fill="#000000">TotalTests    </text>
<text text-anchor="start" x="150.0456" y="-756.9" font-family="Arial" font-size="14.00" fill="#666666">[INT64]</text>
<polygon fill="none" stroke="#000000" points="43.5,-715.5 43.5,-745.5 382.5,-745.5 382.5,-715.5 43.5,-715.5"/>
<text text-anchor="start" x="50.5" y="-726.9" font-family="Arial" font-size="14.00" fill="#000000">TestPass    </text>
<text text-anchor="start" x="143.0498" y="-726.9" font-family="Arial" font-size="14.00" fill="#666666">[INT64]</text>
<polygon fill="none" stroke="#000000" points="43.5,-685.5 43.5,-715.5 382.5,-715.5 382.5,-685.5 43.5,-685.5"/>
<text text-anchor="start" x="50.5" y="-696.9" font-family="Arial" font-size="14.00" fill="#000000">TestPassRate    </text>
<text text-anchor="start" x="172.6122" y="-696.9" font-family="Arial" font-size="14.00" fill="#666666">[NUMERIC]</text>
<polygon fill="none" stroke="#000000" points="43.5,-655.5 43.5,-685.5 382.5,-685.5 382.5,-655.5 43.5,-655.5"/>
<text text-anchor="start" x="50.5" y="-666.9" font-family="Arial" font-size="14.00" fill="#000000">TotalSubtests    </text>
<text text-anchor="start" x="170.2854" y="-666.9" font-family="Arial" font-size="14.00" fill="#666666">[INT64]</text>
<polygon fill="none" stroke="#000000" points="43.5,-625.5 43.5,-655.5 382.5,-655.5 382.5,-625.5 43.5,-625.5"/>
<text text-anchor="start" x="50.5" y="-636.9" font-family="Arial" font-size="14.00" fill="#000000">SubtestPass    </text>
<text text-anchor="start" x="163.2896" y="-636.9" font-family="Arial" font-size="14.00" fill="#666666">[INT64]</text>
<polygon fill="none" stroke="#000000" points="43.5,-595.5 43.5,-625.5 382.5,-625.5 382.5,-595.5 43.5,-595.5"/>
<text text-anchor="start" x="50.5" y="-606.9" font-family="Arial" font-size="14.00" fill="#000000">SubtestPassRate    </text>
<text text-anchor="start" x="192.852" y="-606.9" font-family="Arial" font-size="14.00" fill="#666666">[NUMERIC]</text>
<polygon fill="none" stroke="#000000" points="43.5,-565.5 43.5,-595.5 382.5,-595.5 382.5,-565.5 43.5,-565.5"/>
<text text-anchor="start" x="50.5" y="-576.9" font-family="Arial" font-size="14.00" fill="#000000">Channel    </text>
<text text-anchor="start" x="136.831" y="-576.9" font-family="Arial" font-size="14.00" fill="#666666">[STRING(32)]</text>
<polygon fill="none" stroke="#000000" points="43.5,-535.5 43.5,-565.5 382.5,-565.5 382.5,-535.5 43.5,-535.5"/>
<text text-anchor="start" x="50.5" y="-546.9" font-family="Arial" font-size="14.00" fill="#000000">BrowserName    </text>
<text text-anchor="start" x="173.3668" y="-546.9" font-family="Arial" font-size="14.00" fill="#666666">[STRING(64)]</text>
<polygon fill="none" stroke="#000000" points="43.5,-505.5 43.5,-535.5 382.5,-535.5 382.5,-505.5 43.5,-505.5"/>
<text text-anchor="start" x="50.5" y="-516.9" font-family="Arial" font-size="14.00" fill="#000000">TimeStart    </text>
<text text-anchor="start" x="145.3682" y="-516.9" font-family="Arial" font-size="14.00" fill="#666666">[TIMESTAMP]</text>
</g>
<!-- WPTRunFeatureMetrics&#45;&gt;WPTRuns -->
<g id="edge1" class="edge">
<title>WPTRunFeatureMetrics:ID&#45;&gt;WPTRuns:ID</title>
<path fill="none" stroke="#000000" d="M392.5697,-818.7452C459.4731,-794.2177 432.6528,-519.9369 382.5,-463 298.6925,-367.8561 183.3075,-522.1439 99.5,-427 71.151,-394.8163 56.6111,-330.5 99.5,-330.5"/>
<polygon fill="#000000" stroke="#000000" points="392.3515,-818.7832 381.7274,-816.0668 387.4258,-819.6416 382.5,-820.5 382.5,-820.5 382.5,-820.5 387.4258,-819.6416 383.2726,-824.9332 392.3515,-818.7832 392.3515,-818.7832"/>
</g>
</g>
</svg>
