<?xml version="1.0" encoding="UTF-8" standalone="no"?>
<!DOCTYPE svg PUBLIC "-//W3C//DTD SVG 1.1//EN"
 "http://www.w3.org/Graphics/SVG/1.1/DTD/svg11.dtd">
<!-- Generated by graphviz version 12.1.2 (20240928.0832)
 -->
<!-- Title: WPTRuns Pages: 1 -->
<svg width="664pt" height="972pt"
 viewBox="0.00 0.00 663.96 971.60" xmlns="http://www.w3.org/2000/svg" xmlns:xlink="http://www.w3.org/1999/xlink">
<g id="graph0" class="graph" transform="scale(1 1) rotate(0) translate(4 967.6)">
<title>WPTRuns</title>
<polygon fill="white" stroke="none" points="-4,4 -4,-967.6 659.96,-967.6 659.96,4 -4,4"/>
<!-- WPTRuns -->
<g id="node1" class="node">
<title>WPTRuns</title>
<polygon fill="#efefef" stroke="none" points="94.18,-354.2 94.18,-389.8 312.33,-389.8 312.33,-354.2 94.18,-354.2"/>
<polygon fill="none" stroke="black" points="94.18,-354.2 94.18,-389.8 312.33,-389.8 312.33,-354.2 94.18,-354.2"/>
<text text-anchor="start" x="101.18" y="-367.6" font-family="Arial Bold" font-size="18.00">WPTRuns</text>
<text text-anchor="start" x="176.18" y="-367.6" font-family="Arial" font-size="14.00">    </text>
<text text-anchor="start" x="207.3" y="-367.6" font-family="Arial" font-size="14.00" fill="#666666">[BASIC TABLE]</text>
<polygon fill="none" stroke="black" points="94.18,-323.4 94.18,-354.2 312.33,-354.2 312.33,-323.4 94.18,-323.4"/>
<text text-anchor="start" x="101.18" y="-335.6" font-family="Arial" font-size="14.00">ID </text>
<text text-anchor="start" x="119.07" y="-335.6" font-family="Arial" font-size="14.00" fill="#666666">[STRING(36)]</text>
<polygon fill="none" stroke="black" points="94.18,-292.6 94.18,-323.4 312.33,-323.4 312.33,-292.6 94.18,-292.6"/>
<text text-anchor="start" x="101.18" y="-304.8" font-family="Arial" font-size="14.00">ExternalRunID </text>
<text text-anchor="start" x="196.11" y="-304.8" font-family="Arial" font-size="14.00" fill="#666666">[INT64]</text>
<polygon fill="none" stroke="black" points="94.18,-261.8 94.18,-292.6 312.33,-292.6 312.33,-261.8 94.18,-261.8"/>
<text text-anchor="start" x="101.18" y="-274" font-family="Arial" font-size="14.00">TimeStart </text>
<text text-anchor="start" x="165.74" y="-274" font-family="Arial" font-size="14.00" fill="#666666">[TIMESTAMP]</text>
<polygon fill="none" stroke="black" points="94.18,-231 94.18,-261.8 312.33,-261.8 312.33,-231 94.18,-231"/>
<text text-anchor="start" x="101.18" y="-243.2" font-family="Arial" font-size="14.00">TimeEnd </text>
<text text-anchor="start" x="161.09" y="-243.2" font-family="Arial" font-size="14.00" fill="#666666">[TIMESTAMP]</text>
<polygon fill="none" stroke="black" points="94.18,-200.2 94.18,-231 312.33,-231 312.33,-200.2 94.18,-200.2"/>
<text text-anchor="start" x="101.18" y="-212.4" font-family="Arial" font-size="14.00">BrowserName </text>
<text text-anchor="start" x="193.76" y="-212.4" font-family="Arial" font-size="14.00" fill="#666666">[STRING(64)]</text>
<polygon fill="none" stroke="black" points="94.18,-169.4 94.18,-200.2 312.33,-200.2 312.33,-169.4 94.18,-169.4"/>
<text text-anchor="start" x="101.18" y="-181.6" font-family="Arial" font-size="14.00">BrowserVersion </text>
<text text-anchor="start" x="203.88" y="-181.6" font-family="Arial" font-size="14.00" fill="#666666">[STRING(32)]</text>
<polygon fill="none" stroke="black" points="94.18,-138.6 94.18,-169.4 312.33,-169.4 312.33,-138.6 94.18,-138.6"/>
<text text-anchor="start" x="101.18" y="-150.8" font-family="Arial" font-size="14.00">Channel </text>
<text text-anchor="start" x="157.22" y="-150.8" font-family="Arial" font-size="14.00" fill="#666666">[STRING(32)]</text>
<polygon fill="none" stroke="black" points="94.18,-107.8 94.18,-138.6 312.33,-138.6 312.33,-107.8 94.18,-107.8"/>
<text text-anchor="start" x="101.18" y="-120" font-family="Arial" font-size="14.00">OSName </text>
<text text-anchor="start" x="162.64" y="-120" font-family="Arial" font-size="14.00" fill="#666666">[STRING(64)]</text>
<polygon fill="none" stroke="black" points="94.18,-77 94.18,-107.8 312.33,-107.8 312.33,-77 94.18,-77"/>
<text text-anchor="start" x="101.18" y="-89.2" font-family="Arial" font-size="14.00">OSVersion </text>
<text text-anchor="start" x="172.76" y="-89.2" font-family="Arial" font-size="14.00" fill="#666666">[STRING(32)]</text>
<polygon fill="none" stroke="black" points="94.18,-46.2 94.18,-77 312.33,-77 312.33,-46.2 94.18,-46.2"/>
<text text-anchor="start" x="101.18" y="-58.4" font-family="Arial" font-size="14.00">FullRevisionHash </text>
<text text-anchor="start" x="214" y="-58.4" font-family="Arial" font-size="14.00" fill="#666666">[STRING(40)]</text>
<polygon fill="none" stroke="black" stroke-width="3" points="92.68,-44.7 92.68,-391.3 313.83,-391.3 313.83,-44.7 92.68,-44.7"/>
</g>
<!-- WPTRunFeatureMetrics -->
<g id="node2" class="node">
<title>WPTRunFeatureMetrics</title>
<polygon fill="#efefef" stroke="none" points="43.2,-884.8 43.2,-920.4 363.31,-920.4 363.31,-884.8 43.2,-884.8"/>
<polygon fill="none" stroke="black" points="43.2,-884.8 43.2,-920.4 363.31,-920.4 363.31,-884.8 43.2,-884.8"/>
<text text-anchor="start" x="50.2" y="-898.2" font-family="Arial Bold" font-size="18.00">WPTRunFeatureMetrics</text>
<text text-anchor="start" x="227.16" y="-898.2" font-family="Arial" font-size="14.00">    </text>
<text text-anchor="start" x="258.28" y="-898.2" font-family="Arial" font-size="14.00" fill="#666666">[BASIC TABLE]</text>
<polygon fill="none" stroke="black" points="43.2,-854 43.2,-884.8 363.31,-884.8 363.31,-854 43.2,-854"/>
<text text-anchor="start" x="50.2" y="-866.2" font-family="Arial" font-size="14.00">ID </text>
<text text-anchor="start" x="68.09" y="-866.2" font-family="Arial" font-size="14.00" fill="#666666">[STRING(36)]</text>
<polygon fill="none" stroke="black" points="43.2,-823.2 43.2,-854 363.31,-854 363.31,-823.2 43.2,-823.2"/>
<text text-anchor="start" x="50.2" y="-835.4" font-family="Arial" font-size="14.00">WebFeatureID </text>
<text text-anchor="start" x="145.12" y="-835.4" font-family="Arial" font-size="14.00" fill="#666666">[STRING(36)]</text>
<polygon fill="none" stroke="black" points="43.2,-792.4 43.2,-823.2 363.31,-823.2 363.31,-792.4 43.2,-792.4"/>
<text text-anchor="start" x="50.2" y="-804.6" font-family="Arial" font-size="14.00">TotalTests </text>
<text text-anchor="start" x="119.44" y="-804.6" font-family="Arial" font-size="14.00" fill="#666666">[INT64]</text>
<polygon fill="none" stroke="black" points="43.2,-761.6 43.2,-792.4 363.31,-792.4 363.31,-761.6 43.2,-761.6"/>
<text text-anchor="start" x="50.2" y="-773.8" font-family="Arial" font-size="14.00">TestPass </text>
<text text-anchor="start" x="112.44" y="-773.8" font-family="Arial" font-size="14.00" fill="#666666">[INT64]</text>
<polygon fill="none" stroke="black" points="43.2,-730.8 43.2,-761.6 363.31,-761.6 363.31,-730.8 43.2,-730.8"/>
<text text-anchor="start" x="50.2" y="-743" font-family="Arial" font-size="14.00">TestPassRate </text>
<text text-anchor="start" x="142.01" y="-743" font-family="Arial" font-size="14.00" fill="#666666">[NUMERIC]</text>
<polygon fill="none" stroke="black" points="43.2,-700 43.2,-730.8 363.31,-730.8 363.31,-700 43.2,-700"/>
<text text-anchor="start" x="50.2" y="-712.2" font-family="Arial" font-size="14.00">TotalSubtests </text>
<text text-anchor="start" x="139.69" y="-712.2" font-family="Arial" font-size="14.00" fill="#666666">[INT64]</text>
<polygon fill="none" stroke="black" points="43.2,-669.2 43.2,-700 363.31,-700 363.31,-669.2 43.2,-669.2"/>
<text text-anchor="start" x="50.2" y="-681.4" font-family="Arial" font-size="14.00">SubtestPass </text>
<text text-anchor="start" x="132.69" y="-681.4" font-family="Arial" font-size="14.00" fill="#666666">[INT64]</text>
<polygon fill="none" stroke="black" points="43.2,-638.4 43.2,-669.2 363.31,-669.2 363.31,-638.4 43.2,-638.4"/>
<text text-anchor="start" x="50.2" y="-650.6" font-family="Arial" font-size="14.00">SubtestPassRate </text>
<text text-anchor="start" x="162.26" y="-650.6" font-family="Arial" font-size="14.00" fill="#666666">[NUMERIC]</text>
<polygon fill="none" stroke="black" points="43.2,-607.6 43.2,-638.4 363.31,-638.4 363.31,-607.6 43.2,-607.6"/>
<text text-anchor="start" x="50.2" y="-619.8" font-family="Arial" font-size="14.00">Channel </text>
<text text-anchor="start" x="106.24" y="-619.8" font-family="Arial" font-size="14.00" fill="#666666">[STRING(32)]</text>
<polygon fill="none" stroke="black" points="43.2,-576.8 43.2,-607.6 363.31,-607.6 363.31,-576.8 43.2,-576.8"/>
<text text-anchor="start" x="50.2" y="-589" font-family="Arial" font-size="14.00">BrowserName </text>
<text text-anchor="start" x="142.78" y="-589" font-family="Arial" font-size="14.00" fill="#666666">[STRING(64)]</text>
<polygon fill="none" stroke="black" points="43.2,-546 43.2,-576.8 363.31,-576.8 363.31,-546 43.2,-546"/>
<text text-anchor="start" x="50.2" y="-558.2" font-family="Arial" font-size="14.00">TimeStart </text>
<text text-anchor="start" x="114.77" y="-558.2" font-family="Arial" font-size="14.00" fill="#666666">[TIMESTAMP]</text>
<polygon fill="none" stroke="black" points="43.2,-515.2 43.2,-546 363.31,-546 363.31,-515.2 43.2,-515.2"/>
<text text-anchor="start" x="50.2" y="-527.4" font-family="Arial" font-size="14.00">FeatureRunDetails </text>
<text text-anchor="start" x="170.81" y="-527.4" font-family="Arial" font-size="14.00" fill="#666666">[JSON]</text>
</g>
<!-- WPTRunFeatureMetrics&#45;&gt;WPTRuns -->
<g id="edge1" class="edge">
<title>WPTRunFeatureMetrics:ID&#45;&gt;WPTRuns:ID</title>
<path fill="none" stroke="black" d="M374.4,-867.78C470.42,-835.75 419.26,-338.8 313.33,-338.8"/>
<polygon fill="black" stroke="black" points="374.51,-867.76 363.93,-864.9 369.25,-868.61 364.97,-869.29 364.97,-869.29 364.97,-869.29 369.25,-868.61 365.35,-873.79 374.51,-867.76"/>
<text text-anchor="start" x="371.31" y="-879.4" font-family="Arial" font-size="10.00">FOREIGN KEY (ID) REFERENCES WPTRuns (ID)</text>
</g>
<!-- WPTRunFeatureMetrics&#45;&gt;WPTRuns -->
<g id="edge2" class="edge">
<title>WPTRunFeatureMetrics:ID&#45;&gt;WPTRuns:ID</title>
<path fill="none" stroke="black" d="M375.04,-868.07C488.6,-838.85 437.16,-339.8 313.71,-338.8"/>
<polygon fill="black" stroke="black" points="374.93,-868.08 364.44,-864.89 369.64,-868.76 365.35,-869.31 365.35,-869.31 365.35,-869.31 369.64,-868.76 365.59,-873.82 374.93,-868.08"/>
<text text-anchor="start" x="371.68" y="-853.4" font-family="Arial" font-size="10.00">INTERLEAVE IN PARENT WPTRuns ON DELETE CASCADE</text>
</g>
</g>
</svg>
