<?xml version="1.0" encoding="UTF-8" standalone="no"?>
<!DOCTYPE svg PUBLIC "-//W3C//DTD SVG 1.1//EN"
 "http://www.w3.org/Graphics/SVG/1.1/DTD/svg11.dtd">
<!-- Generated by graphviz version 2.40.1 (20161225.0304)
 -->
<!-- Title: WPTRunFeatureMetrics Pages: 1 -->
<svg width="694pt" height="742pt"
 viewBox="0.00 0.00 694.00 742.00" xmlns="http://www.w3.org/2000/svg" xmlns:xlink="http://www.w3.org/1999/xlink">
<g id="graph0" class="graph" transform="scale(1 1) rotate(0) translate(4 738)">
<title>WPTRunFeatureMetrics</title>
<polygon fill="#ffffff" stroke="transparent" points="-4,4 -4,-738 690,-738 690,4 -4,4"/>
<!-- WPTRunFeatureMetrics -->
<g id="node1" class="node">
<title>WPTRunFeatureMetrics</title>
<polygon fill="#efefef" stroke="transparent" points="170,-652.5 170,-687.5 509,-687.5 509,-652.5 170,-652.5"/>
<polygon fill="none" stroke="#000000" points="170,-652.5 170,-687.5 509,-687.5 509,-652.5 170,-652.5"/>
<text text-anchor="start" x="176.8859" y="-665.3" font-family="Arial Bold" font-size="18.00" fill="#000000">WPTRunFeatureMetrics</text>
<text text-anchor="start" x="369.8855" y="-665.3" font-family="Arial" font-size="14.00" fill="#000000">    </text>
<text text-anchor="start" x="404.0903" y="-665.3" font-family="Arial" font-size="14.00" fill="#666666">[BASIC TABLE]</text>
<polygon fill="none" stroke="#000000" points="170,-622.5 170,-652.5 509,-652.5 509,-622.5 170,-622.5"/>
<text text-anchor="start" x="177" y="-633.9" font-family="Arial" font-size="14.00" fill="#000000">ID </text>
<text text-anchor="start" x="194.8878" y="-633.9" font-family="Arial" font-size="14.00" fill="#666666">[STRING(36)]</text>
<polygon fill="none" stroke="#000000" points="170,-592.5 170,-622.5 509,-622.5 509,-592.5 170,-592.5"/>
<text text-anchor="start" x="177" y="-603.9" font-family="Arial" font-size="14.00" fill="#000000">ExternalRunID </text>
<text text-anchor="start" x="271.9018" y="-603.9" font-family="Arial" font-size="14.00" fill="#666666">[INT64]</text>
<polygon fill="none" stroke="#000000" points="170,-562.5 170,-592.5 509,-592.5 509,-562.5 170,-562.5"/>
<text text-anchor="start" x="177" y="-573.9" font-family="Arial" font-size="14.00" fill="#000000">FeatureID </text>
<text text-anchor="start" x="243.122" y="-573.9" font-family="Arial" font-size="14.00" fill="#666666">[STRING(64)]</text>
<polygon fill="none" stroke="#000000" points="170,-532.5 170,-562.5 509,-562.5 509,-532.5 170,-532.5"/>
<text text-anchor="start" x="177" y="-543.9" font-family="Arial" font-size="14.00" fill="#000000">TotalTests </text>
<text text-anchor="start" x="246.2314" y="-543.9" font-family="Arial" font-size="14.00" fill="#666666">[INT64]</text>
<polygon fill="none" stroke="#000000" points="170,-502.5 170,-532.5 509,-532.5 509,-502.5 170,-502.5"/>
<text text-anchor="start" x="177" y="-513.9" font-family="Arial" font-size="14.00" fill="#000000">TestPass </text>
<text text-anchor="start" x="239.2356" y="-513.9" font-family="Arial" font-size="14.00" fill="#666666">[INT64]</text>
<polygon fill="none" stroke="#000000" stroke-width="3" points="168,-501.5 168,-689.5 510,-689.5 510,-501.5 168,-501.5"/>
</g>
<!-- WPTRuns -->
<g id="node2" class="node">
<title>WPTRuns</title>
<polygon fill="#efefef" stroke="transparent" points="43,-342.5 43,-377.5 285,-377.5 285,-342.5 43,-342.5"/>
<polygon fill="none" stroke="#000000" points="43,-342.5 43,-377.5 285,-377.5 285,-342.5 43,-342.5"/>
<text text-anchor="start" x="56.8871" y="-355.3" font-family="Arial Bold" font-size="18.00" fill="#000000">WPTRuns</text>
<text text-anchor="start" x="138.8843" y="-355.3" font-family="Arial" font-size="14.00" fill="#000000">    </text>
<text text-anchor="start" x="173.0891" y="-355.3" font-family="Arial" font-size="14.00" fill="#666666">[BASIC TABLE]</text>
<polygon fill="none" stroke="#000000" points="43,-312.5 43,-342.5 285,-342.5 285,-312.5 43,-312.5"/>
<text text-anchor="start" x="50" y="-323.9" font-family="Arial" font-size="14.00" fill="#000000">ID    </text>
<text text-anchor="start" x="98.202" y="-323.9" font-family="Arial" font-size="14.00" fill="#666666">[STRING(36)]</text>
<polygon fill="none" stroke="#000000" points="43,-282.5 43,-312.5 285,-312.5 285,-282.5 43,-282.5"/>
<text text-anchor="start" x="50" y="-293.9" font-family="Arial" font-size="14.00" fill="#000000">ExternalRunID    </text>
<text text-anchor="start" x="175.216" y="-293.9" font-family="Arial" font-size="14.00" fill="#666666">[INT64]</text>
<polygon fill="none" stroke="#000000" points="43,-252.5 43,-282.5 285,-282.5 285,-252.5 43,-252.5"/>
<text text-anchor="start" x="50" y="-263.9" font-family="Arial" font-size="14.00" fill="#000000">TimeStart    </text>
<text text-anchor="start" x="144.8682" y="-263.9" font-family="Arial" font-size="14.00" fill="#666666">[TIMESTAMP]</text>
<polygon fill="none" stroke="#000000" points="43,-222.5 43,-252.5 285,-252.5 285,-222.5 43,-222.5"/>
<text text-anchor="start" x="50" y="-233.9" font-family="Arial" font-size="14.00" fill="#000000">TimeEnd    </text>
<text text-anchor="start" x="140.209" y="-233.9" font-family="Arial" font-size="14.00" fill="#666666">[TIMESTAMP]</text>
<polygon fill="none" stroke="#000000" points="43,-192.5 43,-222.5 285,-222.5 285,-192.5 43,-192.5"/>
<text text-anchor="start" x="50" y="-203.9" font-family="Arial" font-size="14.00" fill="#000000">BrowserName    </text>
<text text-anchor="start" x="172.8668" y="-203.9" font-family="Arial" font-size="14.00" fill="#666666">[STRING(64)]</text>
<polygon fill="none" stroke="#000000" points="43,-162.5 43,-192.5 285,-192.5 285,-162.5 43,-162.5"/>
<text text-anchor="start" x="50" y="-173.9" font-family="Arial" font-size="14.00" fill="#000000">BrowserVersion    </text>
<text text-anchor="start" x="182.986" y="-173.9" font-family="Arial" font-size="14.00" fill="#666666">[STRING(32)]</text>
<polygon fill="none" stroke="#000000" points="43,-132.5 43,-162.5 285,-162.5 285,-132.5 43,-132.5"/>
<text text-anchor="start" x="50" y="-143.9" font-family="Arial" font-size="14.00" fill="#000000">Channel    </text>
<text text-anchor="start" x="136.331" y="-143.9" font-family="Arial" font-size="14.00" fill="#666666">[STRING(32)]</text>
<polygon fill="none" stroke="#000000" points="43,-102.5 43,-132.5 285,-132.5 285,-102.5 43,-102.5"/>
<text text-anchor="start" x="50" y="-113.9" font-family="Arial" font-size="14.00" fill="#000000">OSName    </text>
<text text-anchor="start" x="141.7644" y="-113.9" font-family="Arial" font-size="14.00" fill="#666666">[STRING(64)]</text>
<polygon fill="none" stroke="#000000" points="43,-72.5 43,-102.5 285,-102.5 285,-72.5 43,-72.5"/>
<text text-anchor="start" x="50" y="-83.9" font-family="Arial" font-size="14.00" fill="#000000">OSVersion    </text>
<text text-anchor="start" x="151.8836" y="-83.9" font-family="Arial" font-size="14.00" fill="#666666">[STRING(32)]</text>
<polygon fill="none" stroke="#000000" points="43,-42.5 43,-72.5 285,-72.5 285,-42.5 43,-42.5"/>
<text text-anchor="start" x="49.6781" y="-53.9" font-family="Arial" font-size="14.00" fill="#000000">FullRevisionHash    </text>
<text text-anchor="start" x="192.7707" y="-53.9" font-family="Arial" font-size="14.00" fill="#666666">[STRING(40)]</text>
</g>
<!-- WPTRunFeatureMetrics&#45;&gt;WPTRuns -->
<g id="edge1" class="edge">
<title>WPTRunFeatureMetrics:ID&#45;&gt;WPTRuns:ID</title>
<path fill="none" stroke="#000000" d="M159.8636,-636.8138C92.7473,-627.1946 124.6314,-518.742 170,-457 201.713,-413.8418 253.287,-464.1582 285,-421 309.6066,-387.513 326.5556,-327.5 285,-327.5"/>
<polygon fill="#000000" stroke="#000000" points="160.0228,-636.8245 169.696,-641.9897 165.0114,-637.1622 170,-637.5 170,-637.5 170,-637.5 165.0114,-637.1622 170.304,-633.0103 160.0228,-636.8245 160.0228,-636.8245"/>
</g>
<!-- WebFeatures -->
<g id="node3" class="node">
<title>WebFeatures</title>
<polygon fill="#efefef" stroke="transparent" points="389,-237.5 389,-272.5 643,-272.5 643,-237.5 389,-237.5"/>
<polygon fill="none" stroke="#000000" points="389,-237.5 389,-272.5 643,-272.5 643,-237.5 389,-237.5"/>
<text text-anchor="start" x="395.8767" y="-250.3" font-family="Arial Bold" font-size="18.00" fill="#000000">WebFeatures</text>
<text text-anchor="start" x="503.8947" y="-250.3" font-family="Arial" font-size="14.00" fill="#000000">    </text>
<text text-anchor="start" x="538.0995" y="-250.3" font-family="Arial" font-size="14.00" fill="#666666">[BASIC TABLE]</text>
<polygon fill="none" stroke="#000000" points="389,-207.5 389,-237.5 643,-237.5 643,-207.5 389,-207.5"/>
<text text-anchor="start" x="396" y="-218.9" font-family="Arial" font-size="14.00" fill="#000000">ID    </text>
<text text-anchor="start" x="444.202" y="-218.9" font-family="Arial" font-size="14.00" fill="#666666">[STRING(36)]</text>
<polygon fill="none" stroke="#000000" points="389,-177.5 389,-207.5 643,-207.5 643,-177.5 389,-177.5"/>
<text text-anchor="start" x="396" y="-188.9" font-family="Arial" font-size="14.00" fill="#000000">FeatureID    </text>
<text text-anchor="start" x="492.4362" y="-188.9" font-family="Arial" font-size="14.00" fill="#666666">[STRING(64)]</text>
<polygon fill="none" stroke="#000000" points="389,-147.5 389,-177.5 643,-177.5 643,-147.5 389,-147.5"/>
<text text-anchor="start" x="396" y="-158.9" font-family="Arial" font-size="14.00" fill="#000000">Name    </text>
<text text-anchor="start" x="467.5372" y="-158.9" font-family="Arial" font-size="14.00" fill="#666666">[STRING(64)]</text>
</g>
<!-- WPTRunFeatureMetrics&#45;&gt;WebFeatures -->
<g id="edge2" class="edge">
<title>WPTRunFeatureMetrics:FeatureID&#45;&gt;WebFeatures:FeatureID</title>
<path fill="none" stroke="#000000" stroke-dasharray="5,2" d="M519.0191,-576.4896C557.7067,-567.7215 526.1923,-503.7275 509,-457 480.5857,-379.7719 417.4143,-393.2281 389,-316 370.047,-264.4871 334.1111,-192.5 389,-192.5"/>
<polygon fill="#000000" stroke="#000000" points="518.9495,-576.4965 508.5484,-573.0227 513.9748,-576.9983 509,-577.5 509,-577.5 509,-577.5 513.9748,-576.9983 509.4516,-581.9773 518.9495,-576.4965 518.9495,-576.4965"/>
</g>
</g>
</svg>
