<?xml version="1.0" encoding="UTF-8" standalone="no"?>
<!DOCTYPE svg PUBLIC "-//W3C//DTD SVG 1.1//EN"
 "http://www.w3.org/Graphics/SVG/1.1/DTD/svg11.dtd">
<!-- Generated by graphviz version 2.40.1 (20161225.0304)
 -->
<!-- Title: WPTRuns Pages: 1 -->
<svg width="453pt" height="952pt"
 viewBox="0.00 0.00 452.59 952.00" xmlns="http://www.w3.org/2000/svg" xmlns:xlink="http://www.w3.org/1999/xlink">
<g id="graph0" class="graph" transform="scale(1 1) rotate(0) translate(4 948)">
<title>WPTRuns</title>
<polygon fill="#ffffff" stroke="transparent" points="-4,4 -4,-948 448.5916,-948 448.5916,4 -4,4"/>
<!-- WPTRuns -->
<g id="node1" class="node">
<title>WPTRuns</title>
<polygon fill="#efefef" stroke="transparent" points="99.5,-345.5 99.5,-380.5 327.5,-380.5 327.5,-345.5 99.5,-345.5"/>
<polygon fill="none" stroke="#000000" points="99.5,-345.5 99.5,-380.5 327.5,-380.5 327.5,-345.5 99.5,-345.5"/>
<text text-anchor="start" x="106.3871" y="-358.3" font-family="Arial Bold" font-size="18.00" fill="#000000">WPTRuns</text>
<text text-anchor="start" x="188.3843" y="-358.3" font-family="Arial" font-size="14.00" fill="#000000">    </text>
<text text-anchor="start" x="222.5891" y="-358.3" font-family="Arial" font-size="14.00" fill="#666666">[BASIC TABLE]</text>
<polygon fill="none" stroke="#000000" points="99.5,-315.5 99.5,-345.5 327.5,-345.5 327.5,-315.5 99.5,-315.5"/>
<text text-anchor="start" x="106.5" y="-326.9" font-family="Arial" font-size="14.00" fill="#000000">ID </text>
<text text-anchor="start" x="124.3878" y="-326.9" font-family="Arial" font-size="14.00" fill="#666666">[STRING(36)]</text>
<polygon fill="none" stroke="#000000" points="99.5,-285.5 99.5,-315.5 327.5,-315.5 327.5,-285.5 99.5,-285.5"/>
<text text-anchor="start" x="106.5" y="-296.9" font-family="Arial" font-size="14.00" fill="#000000">ExternalRunID </text>
<text text-anchor="start" x="201.4018" y="-296.9" font-family="Arial" font-size="14.00" fill="#666666">[INT64]</text>
<polygon fill="none" stroke="#000000" points="99.5,-255.5 99.5,-285.5 327.5,-285.5 327.5,-255.5 99.5,-255.5"/>
<text text-anchor="start" x="106.5" y="-266.9" font-family="Arial" font-size="14.00" fill="#000000">TimeStart </text>
<text text-anchor="start" x="171.054" y="-266.9" font-family="Arial" font-size="14.00" fill="#666666">[TIMESTAMP]</text>
<polygon fill="none" stroke="#000000" points="99.5,-225.5 99.5,-255.5 327.5,-255.5 327.5,-225.5 99.5,-225.5"/>
<text text-anchor="start" x="106.5" y="-236.9" font-family="Arial" font-size="14.00" fill="#000000">TimeEnd </text>
<text text-anchor="start" x="166.3948" y="-236.9" font-family="Arial" font-size="14.00" fill="#666666">[TIMESTAMP]</text>
<polygon fill="none" stroke="#000000" points="99.5,-195.5 99.5,-225.5 327.5,-225.5 327.5,-195.5 99.5,-195.5"/>
<text text-anchor="start" x="106.5" y="-206.9" font-family="Arial" font-size="14.00" fill="#000000">BrowserName </text>
<text text-anchor="start" x="199.0526" y="-206.9" font-family="Arial" font-size="14.00" fill="#666666">[STRING(64)]</text>
<polygon fill="none" stroke="#000000" points="99.5,-165.5 99.5,-195.5 327.5,-195.5 327.5,-165.5 99.5,-165.5"/>
<text text-anchor="start" x="106.5" y="-176.9" font-family="Arial" font-size="14.00" fill="#000000">BrowserVersion </text>
<text text-anchor="start" x="209.1718" y="-176.9" font-family="Arial" font-size="14.00" fill="#666666">[STRING(32)]</text>
<polygon fill="none" stroke="#000000" points="99.5,-135.5 99.5,-165.5 327.5,-165.5 327.5,-135.5 99.5,-135.5"/>
<text text-anchor="start" x="106.5" y="-146.9" font-family="Arial" font-size="14.00" fill="#000000">Channel </text>
<text text-anchor="start" x="162.5168" y="-146.9" font-family="Arial" font-size="14.00" fill="#666666">[STRING(32)]</text>
<polygon fill="none" stroke="#000000" points="99.5,-105.5 99.5,-135.5 327.5,-135.5 327.5,-105.5 99.5,-105.5"/>
<text text-anchor="start" x="106.5" y="-116.9" font-family="Arial" font-size="14.00" fill="#000000">OSName </text>
<text text-anchor="start" x="167.9502" y="-116.9" font-family="Arial" font-size="14.00" fill="#666666">[STRING(64)]</text>
<polygon fill="none" stroke="#000000" points="99.5,-75.5 99.5,-105.5 327.5,-105.5 327.5,-75.5 99.5,-75.5"/>
<text text-anchor="start" x="106.5" y="-86.9" font-family="Arial" font-size="14.00" fill="#000000">OSVersion </text>
<text text-anchor="start" x="178.0694" y="-86.9" font-family="Arial" font-size="14.00" fill="#666666">[STRING(32)]</text>
<polygon fill="none" stroke="#000000" points="99.5,-45.5 99.5,-75.5 327.5,-75.5 327.5,-45.5 99.5,-45.5"/>
<text text-anchor="start" x="106.5" y="-56.9" font-family="Arial" font-size="14.00" fill="#000000">FullRevisionHash </text>
<text text-anchor="start" x="219.2784" y="-56.9" font-family="Arial" font-size="14.00" fill="#666666">[STRING(40)]</text>
<polygon fill="none" stroke="#000000" stroke-width="3" points="98,-44.5 98,-382.5 329,-382.5 329,-44.5 98,-44.5"/>
</g>
<!-- WPTRunFeatureMetrics -->
<g id="node2" class="node">
<title>WPTRunFeatureMetrics</title>
<polygon fill="#efefef" stroke="transparent" points="43.5,-865.5 43.5,-900.5 382.5,-900.5 382.5,-865.5 43.5,-865.5"/>
<polygon fill="none" stroke="#000000" points="43.5,-865.5 43.5,-900.5 382.5,-900.5 382.5,-865.5 43.5,-865.5"/>
<text text-anchor="start" x="50.3859" y="-878.3" font-family="Arial Bold" font-size="18.00" fill="#000000">WPTRunFeatureMetrics</text>
<text text-anchor="start" x="243.3855" y="-878.3" font-family="Arial" font-size="14.00" fill="#000000">    </text>
<text text-anchor="start" x="277.5903" y="-878.3" font-family="Arial" font-size="14.00" fill="#666666">[BASIC TABLE]</text>
<polygon fill="none" stroke="#000000" points="43.5,-835.5 43.5,-865.5 382.5,-865.5 382.5,-835.5 43.5,-835.5"/>
<text text-anchor="start" x="50.5" y="-846.9" font-family="Arial" font-size="14.00" fill="#000000">ID    </text>
<text text-anchor="start" x="98.702" y="-846.9" font-family="Arial" font-size="14.00" fill="#666666">[STRING(36)]</text>
<polygon fill="none" stroke="#000000" points="43.5,-805.5 43.5,-835.5 382.5,-835.5 382.5,-805.5 43.5,-805.5"/>
<text text-anchor="start" x="50.5" y="-816.9" font-family="Arial" font-size="14.00" fill="#000000">WebFeatureID    </text>
<text text-anchor="start" x="175.716" y="-816.9" font-family="Arial" font-size="14.00" fill="#666666">[STRING(36)]</text>
<polygon fill="none" stroke="#000000" points="43.5,-775.5 43.5,-805.5 382.5,-805.5 382.5,-775.5 43.5,-775.5"/>
<text text-anchor="start" x="50.5" y="-786.9" font-family="Arial" font-size="14.00" fill="#000000">TotalTests    </text>
<text text-anchor="start" x="150.0456" y="-786.9" font-family="Arial" font-size="14.00" fill="#666666">[INT64]</text>
<polygon fill="none" stroke="#000000" points="43.5,-745.5 43.5,-775.5 382.5,-775.5 382.5,-745.5 43.5,-745.5"/>
<text text-anchor="start" x="50.5" y="-756.9" font-family="Arial" font-size="14.00" fill="#000000">TestPass    </text>
<text text-anchor="start" x="143.0498" y="-756.9" font-family="Arial" font-size="14.00" fill="#666666">[INT64]</text>
<polygon fill="none" stroke="#000000" points="43.5,-715.5 43.5,-745.5 382.5,-745.5 382.5,-715.5 43.5,-715.5"/>
<text text-anchor="start" x="50.5" y="-726.9" font-family="Arial" font-size="14.00" fill="#000000">TestPassRate    </text>
<text text-anchor="start" x="172.6122" y="-726.9" font-family="Arial" font-size="14.00" fill="#666666">[NUMERIC]</text>
<polygon fill="none" stroke="#000000" points="43.5,-685.5 43.5,-715.5 382.5,-715.5 382.5,-685.5 43.5,-685.5"/>
<text text-anchor="start" x="50.5" y="-696.9" font-family="Arial" font-size="14.00" fill="#000000">TotalSubtests    </text>
<text text-anchor="start" x="170.2854" y="-696.9" font-family="Arial" font-size="14.00" fill="#666666">[INT64]</text>
<polygon fill="none" stroke="#000000" points="43.5,-655.5 43.5,-685.5 382.5,-685.5 382.5,-655.5 43.5,-655.5"/>
<text text-anchor="start" x="50.5" y="-666.9" font-family="Arial" font-size="14.00" fill="#000000">SubtestPass    </text>
<text text-anchor="start" x="163.2896" y="-666.9" font-family="Arial" font-size="14.00" fill="#666666">[INT64]</text>
<polygon fill="none" stroke="#000000" points="43.5,-625.5 43.5,-655.5 382.5,-655.5 382.5,-625.5 43.5,-625.5"/>
<text text-anchor="start" x="50.5" y="-636.9" font-family="Arial" font-size="14.00" fill="#000000">SubtestPassRate    </text>
<text text-anchor="start" x="192.852" y="-636.9" font-family="Arial" font-size="14.00" fill="#666666">[NUMERIC]</text>
<polygon fill="none" stroke="#000000" points="43.5,-595.5 43.5,-625.5 382.5,-625.5 382.5,-595.5 43.5,-595.5"/>
<text text-anchor="start" x="50.5" y="-606.9" font-family="Arial" font-size="14.00" fill="#000000">Channel    </text>
<text text-anchor="start" x="136.831" y="-606.9" font-family="Arial" font-size="14.00" fill="#666666">[STRING(32)]</text>
<polygon fill="none" stroke="#000000" points="43.5,-565.5 43.5,-595.5 382.5,-595.5 382.5,-565.5 43.5,-565.5"/>
<text text-anchor="start" x="50.5" y="-576.9" font-family="Arial" font-size="14.00" fill="#000000">BrowserName    </text>
<text text-anchor="start" x="173.3668" y="-576.9" font-family="Arial" font-size="14.00" fill="#666666">[STRING(64)]</text>
<polygon fill="none" stroke="#000000" points="43.5,-535.5 43.5,-565.5 382.5,-565.5 382.5,-535.5 43.5,-535.5"/>
<text text-anchor="start" x="50.5" y="-546.9" font-family="Arial" font-size="14.00" fill="#000000">TimeStart    </text>
<text text-anchor="start" x="145.3682" y="-546.9" font-family="Arial" font-size="14.00" fill="#666666">[TIMESTAMP]</text>
<polygon fill="none" stroke="#000000" points="43.5,-505.5 43.5,-535.5 382.5,-535.5 382.5,-505.5 43.5,-505.5"/>
<text text-anchor="start" x="50.5" y="-516.9" font-family="Arial" font-size="14.00" fill="#000000">FeatureRunDetails    </text>
<text text-anchor="start" x="201.3864" y="-516.9" font-family="Arial" font-size="14.00" fill="#666666">[JSON]</text>
</g>
<!-- WPTRunFeatureMetrics&#45;&gt;WPTRuns -->
<g id="edge1" class="edge">
<title>WPTRunFeatureMetrics:ID&#45;&gt;WPTRuns:ID</title>
<path fill="none" stroke="#000000" d="M392.6511,-848.4315C456.8134,-820.7972 427.7503,-524.5886 373.5,-463 289.6925,-367.8561 174.3075,-522.1439 90.5,-427 62.151,-394.8163 47.6111,-330.5 99.5,-330.5"/>
<polygon fill="#000000" stroke="#000000" points="392.2986,-848.5032 381.6015,-846.0906 387.3993,-849.5016 382.5,-850.5 382.5,-850.5 382.5,-850.5 387.3993,-849.5016 383.3985,-854.9094 392.2986,-848.5032 392.2986,-848.5032"/>
</g>
<!-- WPTRunFeatureMetrics&#45;&gt;WPTRuns -->
<g id="edge2" class="edge">
<title>WPTRunFeatureMetrics:ID&#45;&gt;WPTRuns:ID</title>
<path fill="none" stroke="#000000" stroke-dasharray="5,2" d="M392.8223,-849.1296C475.3494,-826.3027 446.2526,-525.1588 391.5,-463 307.6925,-367.8561 192.3075,-522.1439 108.5,-427 80.2617,-394.942 65.7249,-331.002 99.1051,-330.5029"/>
<polygon fill="#000000" stroke="#000000" points="392.6866,-849.148 382.1703,-846.0403 387.7325,-849.8236 382.7783,-850.4991 382.7783,-850.4991 382.7783,-850.4991 387.7325,-849.8236 383.3863,-854.9578 392.6866,-849.148 392.6866,-849.148"/>
</g>
</g>
</svg>
